<?xml version="1.0" encoding="UTF-8"?>
<svg id="_Layer_" data-name="&amp;lt;Layer&amp;gt;" xmlns="http://www.w3.org/2000/svg" viewBox="0 0 1394.53 1556.21">
  <defs>
    <style>
      .cls-1 {
        fill: none;
        stroke: #3a4284;
        stroke-linecap: round;
        stroke-linejoin: round;
        stroke-width: 38.08px;
      }
    </style>
  </defs>
  <g id="education_3" data-name="education 3">
    <g id="g_225" data-name="g 225">
      <g id="g_226" data-name="g 226">
        <g id="g_227" data-name="g 227">
          <g id="g_228" data-name="g 228">
            <path id="path_173" data-name="path 173" class="cls-1" d="M193.66,598.75v-223.15"/>
          </g>
          <g id="g_229" data-name="g 229">
            <path id="path_174" data-name="path 174" class="cls-1" d="M1160.67,1045.04H317.62c-41.07,0-74.33-33.3-74.33-74.38v-148.77c0-41.08,33.26-74.38,74.33-74.38h843.05v297.52Z"/>
          </g>
          <g id="g_230" data-name="g 230">
            <path id="path_175" data-name="path 175" class="cls-1" d="M1160.67,896.28H392.01"/>
          </g>
          <g id="g_231" data-name="g 231">
            <path id="path_176" data-name="path 176" class="cls-1" d="M1160.67,747.52h74.33"/>
          </g>
          <g id="g_232" data-name="g 232">
            <path id="path_177" data-name="path 177" class="cls-1" d="M416.83,426.32v321.2h644.63v-321.2"/>
          </g>
          <g id="g_233" data-name="g 233">
            <path id="path_178" data-name="path 178" class="cls-1" d="M739.14,251.63l-545.49,123.97,545.49,123.97,545.49-123.97-545.49-123.97Z"/>
          </g>
          <g id="g_234" data-name="g 234">
            <path id="path_179" data-name="path 179" class="cls-1" d="M1262.29,1342.58H216c-41.07,0-74.39-33.3-74.39-74.38v-148.77c0-41.08,33.32-74.38,74.39-74.38h1046.29v297.54Z"/>
          </g>
          <g id="g_235" data-name="g 235">
            <path id="path_180" data-name="path 180" class="cls-1" d="M1262.29,1193.81H290.39"/>
          </g>
          <g id="g_236" data-name="g 236">
            <path id="path_181" data-name="path 181" class="cls-1" d="M1262.29,1045.04h74.39"/>
          </g>
          <g id="g_237" data-name="g 237">
            <path id="path_182" data-name="path 182" class="cls-1" d="M1262.29,1342.58h74.39"/>
          </g>
        </g>
      </g>
    </g>
  </g>
</svg>