<?xml version="1.0" encoding="UTF-8"?>
<svg id="_Layer_" data-name="&amp;lt;Layer&amp;gt;" xmlns="http://www.w3.org/2000/svg" viewBox="0 0 1394.53 1556.21">
  <defs>
    <style>
      .cls-1 {
        fill: #d4dcff;
      }

      .cls-2 {
        fill: #fff;
      }

      .cls-3 {
        fill: #070a3d;
      }

      .cls-4 {
        fill: #44c2d9;
      }

      .cls-5 {
        fill: #fa9265;
      }

      .cls-6 {
        fill: #3f59a6;
      }

      .cls-7 {
        fill: #d37d58;
      }
    </style>
  </defs>
  <path class="cls-1" d="M1090.68,1435.22c0,5.42-.08,11.14-1.53,16.18-.61,2.1-1.45,4.08-2.63,5.88-5.15,7.82-14.69,9.42-23.24,10.34-144.61,15.34-290.02,16.14-435.24,16.94-152.05.84-304.06,1.68-456.07,2.52-47.27.27-36.4-53.34-37.62-93.29-1.64-54.83-3.01-109.74-4.12-164.6-2.18-109.74-3.24-219.51-3.17-329.32,0-7.4.23-15.22,1.18-22.74.23-1.91.53-3.82.88-5.68,82.15-3.36,164.37-6.11,246.56-8.24,226.07-5.99,452.26-7.33,678.4-4.31,10.91.15,21.82.3,32.74.46.38,1.91.72,3.82,1.03,5.8,1.3,8.81,1.6,18.09,1.6,26.75.42,181.09.8,362.21,1.22,543.33Z"/>
  <path class="cls-4" d="M476.38,1149.4c-.37.05-.73.12-1.08.17.73-15.1.6-30.27.78-45.39.18-15.48.18-30.96.03-46.45-.3-30.96-1.15-61.92-2.58-92.84-.15-3.2-.3-6.4-.47-9.6-.05-.95-.1-1.9-.15-2.85-.23-4.42-.47-8.83-.72-13.25-.25-4.42-.52-8.83-.78-13.25-.27-4.25-.38-8.53-1.18-12.71-.25-1.35-2.2-.95-2.27.3-.45,7.65.65,15.53,1.08,23.18.3,5.33.58,10.66.85,16-15.73,1.57-31.21,5.55-45.74,11.85-29.52,12.8-54.1,35.54-69.9,63.52-8.26,14.61-14.03,30.58-16.98,47.1-12.16-15.35-27.97-32.66-49.4-30.02-18.84,2.32-31.11,20.13-34.81,37.44-2.25,10.48-2.13,21.19-1.62,31.84-4.48-9.48-6.01-20.18-10.51-29.69-4.52-9.55-12.55-18.58-23.83-18.93-11.81-.37-21.66,8.75-28.21,17.65-5.4,7.33-9.76,15.53-13.08,24.06-.33-8.73-.6-17.46-.88-26.19-1.1-34.12-2.2-68.26-3.35-102.39-.65-19.28-1.15-38.57-2.08-57.85,38.51-1.1,77.08-2.53,115.65-3.52,38.54-.98,77.08-1.78,115.62-2.53,21.91-.43,43.82-.78,65.72-1.03,1.83-.03,1.83-2.88,0-2.85-38.81.67-77.63,1.28-116.45,2.12-38.54.83-77.08,1.78-115.6,2.9-21.91.62-43.82,1.2-65.7,2.22-1.02.05-1.33,1.08-1,1.77-.3.17-.52.47-.52.93.63,34.41,2.13,68.81,3.32,103.22,1.03,29.84,1.8,59.7,3.02,89.52.12,3.03.25,6.06.4,9.1.03,1.08.08,2.18.13,3.27.43,9.53,1,19.06,1.85,28.57.83,9.26,1.53,18.81,3.57,27.91.1.48.48.73.9.8-.13.6.18,1.27,1,1.27,9.7-.08,19.41-.92,29.09-1.53,9.7-.63,19.39-1.35,29.09-2.12,19.38-1.52,38.74-3.27,58.08-5.18,38.26-3.8,76.43-8.41,114.48-13.81,21.68-3.08,43.42-6.12,64.97-9.96,1.8-.33,1.02-3.01-.75-2.73Z"/>
  <path class="cls-6" d="M1086.83,859.34c-10.91-.15-21.82-.31-32.74-.46-226.15-3.01-452.33-1.68-678.4,4.31-82.19,2.14-164.41,4.88-246.56,8.24,2.14-11.37,6.41-21.6,14.84-27.82,7.55-5.57,16.9-6.52,25.87-7.29,289.56-25.03,580.38-19.04,870.71-13.01,10.19.23,20.95.61,29.69,6.64,9.23,6.37,14.08,17.17,16.6,29.38Z"/>
  <path class="cls-2" d="M1342.17,851.82c-.37,14.65-.75,29.29-1.12,43.92-1.48,57.68-2.98,115.37-4.52,173.05-.37,13.71-.45,27.46-1.22,41.16-.63,11.16-2.08,22.79-7.25,32.86-4.83,9.48-12.83,16.53-22.66,20.55-1.82.73-3.68,1.38-5.57,1.93-8.03,2.38-16.53,3.23-24.88,3.52-12.73.42-25.51-.12-38.24-.33-14.46-.25-28.96-.52-43.44-.8-28.98-.57-57.93-1.18-86.91-1.87-27.91-.68-55.83-1.4-83.74-2.2-.87-.02-1.73-.05-2.6-.07-7.17-.22-14.31-.42-21.46-.63-6.3-.18-12.73-.05-18.95-1.12-5.17-.88-10.26-2.72-14-6.53-3.57-3.6-5.3-8.45-6.05-13.36-.97-6.18-.7-12.53-.78-18.74-.07-7.33-.17-14.66-.27-22.01-.15-14.33-.32-28.66-.48-42.99-.42-34.56-.68-69.85-1.85-104.67-1.13-34.62-.45-112.68-1.8-147.28-.2-5.18-.4-9.76-.43-13.76,0-1.08.02-2.12.03-3.12,34.26.63,68.48,1.48,102.72,2.18,84.36,1.78,168.72,3.53,253.1,5.28,10.51.23,21.04.43,31.57.63.22,1,.43,2.02.62,3.05.68,4.03.92,8.15,1,12.11.23,13.05-.5,26.19-.85,39.24Z"/>
  <path class="cls-2" d="M1192.48,1061.91c-1.98,1.73-4.1,3.3-6.18,4.7-6.57,4.38-13.86,8.05-21.31,10.66-7.53,2.65-15.78,3.92-23.64,1.98-9.26-2.3-17.41-8.58-22.19-16.79.87-.25,1.72-.5,2.58-.72,21.96-5.82,45.34-5.77,67.43-.65,1.12.25,2.22.52,3.32.82Z"/>
  <path class="cls-6" d="M1299.85,1165.28c-8.03,2.38-16.53,3.23-24.88,3.52-12.73.42-25.51-.12-38.24-.33-14.46-.25-28.96-.52-43.44-.8-28.98-.57-57.93-1.18-86.91-1.87-27.91-.68-55.83-1.4-83.74-2.2,5.2-20.73,15.43-40.14,29.14-56.52,17.05-20.38,39.72-36.17,65.2-43.99.72-.22,1.43-.43,2.17-.63,4.78,8.21,12.93,14.49,22.19,16.79,7.86,1.93,16.11.67,23.64-1.98,7.45-2.62,14.75-6.28,21.31-10.66,2.08-1.4,4.2-2.97,6.18-4.7,1.25.32,2.5.65,3.73,1,25.69,7.31,49.59,21.66,67.2,41.86,15.66,17.91,26.11,39.22,36.44,60.52Z"/>
  <path class="cls-6" d="M1341.4,797.41c-10.52-.19-21.05-.4-31.56-.63-84.37-1.75-168.73-3.5-253.1-5.28-34.24-.71-68.46-1.55-102.71-2.18.31-12.94,3.38-19.4,16.68-21.94,7.9-1.53,23.79-1.83,33.76-1.78,14.05.07,28.11.63,42.17.95,28.78.67,57.57,1.36,86.37,2.03,57.57,1.36,115.2,2.18,172.77,4.06,11.3.37,23.24,2.33,30.23,12.18,2.69,3.78,4.38,8.1,5.41,12.59Z"/>
  <path class="cls-5" d="M951.79,620.89c-10.68,42.87-37.49,79.38-59.3,117.03-23.23,40.14-40.95,83.36-52.4,128.3-5.05,19.84-8.9,40.84-20.39,58.22-9.6,14.48-25.68,25.11-43.45,25.21-8.25.05-16.36-2.58-22.63-8.03-7.1-6.18-11.05-15.18-13.11-24.19-5.22-22.73-2.05-47.12,2.12-69.75,8.2-44.57,24.19-92.58,5.51-136.73-7.6-17.96-21.06-33.67-39.7-40.52-14.38-5.28-31.09-5.52-44.77,1.47-.4,2.23-.85,4.47-1.75,6.43-.5,1.12-2.18.5-2.2-.6,0-1.25.17-2.53.43-3.83-1.38.87-2.75,1.8-4.05,2.83-1.37,1.1-3.33-.82-1.95-1.95,2.17-1.8,4.5-3.37,6.91-4.73.25-.97.48-1.9.68-2.82l2.28-10.56,4.63-21.49c-2.05-16.74,6.4-32.42,16.88-45.14,6.86-8.31,14.49-16.03,21.96-23.81,7.41-7.71,14.94-15.35,22.74-22.68,29.24-27.56,63.85-52.73,104.49-58.98,34.74-5.35,73.78,2.2,97.92,29.49,25.53,28.86,28.11,70.9,19.14,106.84Z"/>
  <path class="cls-5" d="M633.5,559.88c-3.35,17.96-11.26,34.71-20.09,50.57-9.53,17.09-19.86,33.76-29.86,50.59-20.81,34.99-41.62,69.98-62.43,104.99-4.9,8.25-9.68,16.6-14.78,24.73-4.2,6.68-8.91,13.28-15.11,18.26-13.28,10.68-30.86,10.85-46.49,5.82-26.89-8.65-48.75-30.14-61.67-54.82-12.65-24.19-17.63-52.52-12.7-79.46,5.68-30.94,25.33-57.2,48.99-77.08,26.71-22.43,58.62-38.14,91.16-50.19,25.93-9.58,52.57-16.88,79.38-23.48,3.78-1.53,7.56-3.03,11.36-4.47,7.36-2.8,15.86-5.36,23.11-.83,11.4,7.15,11.28,23.78,9.13,35.37Z"/>
  <path class="cls-6" d="M1091.77,1164.13c-28.36,1.13-56.72.87-85.03-1.25-6.52-.49-13.1-.9-19.57-1.83-5.18-.75-10.47-1.95-14.99-4.69-11.01-6.68-10.83-20.57-11.4-31.94-1.43-28.61-2.49-57.23-3.21-85.87-.72-28.5-1.1-57-1.19-85.51-.09-28.65.14-57.29.41-85.94.03-3.6.07-7.19.07-10.79,0-1.54-2.35-1.54-2.4,0-.94,29.32-.99,58.68-.97,88.01.02,29.2.33,58.4,1,87.59.67,29.33,1.7,58.65,3.17,87.95.56,11.21-.27,24.95,7.36,34.14,6.98,8.4,18.84,9.88,29.02,10.83,28.92,2.69,58.02,3.58,87.05,2.67,3.56-.11,7.12-.28,10.68-.47,1.85-.1,1.87-2.96,0-2.89Z"/>
  <path class="cls-4" d="M964.94,1204.62c-5.93,7.43-12.1,14.7-18.5,21.76-11.31,12.5-23.33,24.34-35.97,35.49-.68,8.48-1.17,16.8-1.62,25.11-.53,9.65-.97,19.31-1.62,28.96-.5,7.61-1.4,15.46-4.85,22.38-7.46,15.03-24.71,16.68-39.56,18.11-40.16,3.88-80.39,6.8-120.68,8.75-40.3,1.95-80.63,2.93-120.97,2.97-20.11.02-40.21-.22-60.3-.67-14.76-.33-34.87,1.32-42.59-14.43-3.52-7.2-3.9-15.46-4.55-23.31-.83-10.1-1.67-20.19-2.5-30.27-1.58-19.34-3.18-38.66-4.65-57.98-.53,1.28-2.4.63-2.2-.77.92-6.47,2.08-12.86,2.8-19.34.68-6.35,1.17-12.71,1.6-19.08.77-11.16,1.38-22.33,2.82-33.42,1.32-10.13,3.05-20.41,7.06-29.86,3.47-8.18,8.86-15.65,16.7-20.11,6.75-3.85,16.53-6.08,23.78-2.23,4.73-.25,9.38-.25,13.43-.43,20.21-.92,40.4-1.83,60.62-2.73,40.59-1.85,81.19-3.68,121.78-5.52,20.38-.92,40.75-1.85,61.13-2.77,9.98-.45,19.96-.9,29.94-1.35,8.8-.4,17.66-1.07,26.48-.52,7.7.5,15.5,1.97,22.31,5.73,6.18,3.43,11.15,8.71,14.4,14.98,6.65,12.81,6.81,28.08,6.22,42.16-.8,18.58-1.8,37.16-2.87,55.72,17.6-4.37,34.62-10.86,50.62-19.58,1.52-.83,2.72,1.03,1.73,2.27Z"/>
  <path class="cls-2" d="M1009.39,940.4c-9.65,12.87-19.98,25.27-30,37.84-17.81,22.36-35.61,44.72-53.43,67.08-6.18,7.76-12.34,15.55-18.5,23.34.42,2.08.85,4.16,1.25,6.25,2.62,13.86,5.03,27.74,7.22,41.68,1.79,11.27,3.63,22.63,3.22,34.09-.36,10.33-2.9,20.82-9.49,29.01-6.77,8.38-16.74,13.17-26.8,16.37-12.18,3.86-24.83,6.34-37.23,9.29-13.87,3.3-27.74,6.56-41.61,9.81-27.47,6.41-54.97,12.68-82.51,18.73-27.69,6.09-55.43,11.91-83.25,17.41-13.83,2.72-27.67,5.36-41.55,7.91-12.78,2.34-25.6,5.02-38.52,6.52-10.49,1.25-21.5,1.46-31.57-2.12-9.82-3.47-17.23-10.68-22.07-19.77-5.16-9.67-7.43-20.6-9.6-31.26-2.84-14.02-5.71-28.05-8.55-42.07-2.05-10.05-4.07-20.08-6.12-30.12-5.82-20.76-11.2-41.66-16.15-62.65-3.15-13.4-6.09-26.83-8.88-40.31-2.52-12.28-5.57-24.73-6.66-37.25-.85-9.91-.06-20.65,6.19-28.82,7.13-9.32,19.18-12.23,29.94-15.12,26.86-7.22,53.92-13.67,81.12-19.54,55-11.86,110.48-21.27,166.08-29.78,27.15-4.15,54.33-8.5,81.57-11.96,10.41-1.32,21.38-2.1,31.57.93,10.59,3.13,18.06,10.62,22.66,20.5,2.44,5.19,4.1,10.69,5.78,16.16,2.07,6.74,4.08,13.5,6.04,20.27,3.92,13.55,7.62,27.15,11.09,40.81,1.78,6.94,3.49,13.9,5.15,20.87,4.4-2.63,8.8-5.27,13.17-7.95,17.03-10.49,33.79-21.38,50.26-32.68,16.47-11.3,32.89-22.81,48.42-35.36,1.18-.95,2.63.72,1.78,1.85Z"/>
  <path class="cls-5" d="M745.1,597.24c-1.27,14.91-9.81,27.56-20.16,37.87-11.05,11-23.98,19.79-35.82,29.86-12.46,10.6-23.98,22.29-34.42,34.89-20.93,25.26-37.54,54.12-48.97,84.84-1.9,5.08-3.63,10.21-5.23,15.38,1.62,26.16,1.92,52.4.87,78.59-1.18,29.73-3.68,59.7-8.75,89.03-2.15,12.46-6.12,20.43-17.16,26.91-9.41,5.52-38.04,14.16-52.76-5.28-11.09-14.65-20.79-40.24-25.27-57.8-10.45-40.94-14.39-77.41-11.84-119.62,2.45-40.35,11.41-80.39,27.76-117.43,14.33-32.49,34.24-62.55,58.8-88.22,12.21-12.78,25.61-24.44,40.01-34.74,14.23-10.16,29.49-19.25,45.72-25.84.37-.15.72-.08.98.1,9.28-3.43,19.09-5.35,28.97-5.15,15.6.33,30.38,6.28,41.47,17.31,10.3,10.23,17.06,24.59,15.81,39.31Z"/>
  <path class="cls-5" d="M578.92,493.38c-1.35.07-2.68.17-4.03.27,2.35,5.65,3.27,11.66,2.77,17.78-1.13,14.1-8.08,27.14-15.11,39.12-8.31,14.16-16.71,28.28-25.06,42.41-8.4,14.18-16.78,28.37-25.18,42.55-7.66,12.98-15.28,26.01-23.53,38.64-15.35,23.49-33.27,45.79-56.72,61.67-21.23,14.38-46.85,23.03-72.65,19.61-23.61-3.13-46.45-15.88-57.88-37.37-12.5-23.48-10.4-57.77.19-81.48,11.23-25.13,28.94-41.02,49.62-58.69,20.83-17.81,45.88-32.18,70.14-44.93,24.26-12.73,49.92-22.81,76.38-29.94,26.46-7.15,53.67-11.3,81.06-12.16,1.63-.05,1.62,2.45,0,2.53Z"/>
  <path class="cls-5" d="M586.06,496.93c-2.35,17.2-13.16,31.94-26.83,42.12-14.89,11.11-33.02,17.43-50.79,22.34-19.16,5.32-38.89,8.6-58.73,9.81-19.96,1.25-39.96.3-59.73-2.58-9.2-1.35-18.58-2.93-27.87-1.8-8.48,1.03-16,4.92-21.66,11.28-10.66,12-14.25,28.89-19.13,43.74-6.25,19.06-13.46,37.81-21.58,56.17-4.07,9.16-8.35,18.23-12.85,27.19-4.15,8.23-8.28,16.56-13.33,24.29-7.95,12.18-19.43,25.48-34.72,27.49-16.05,2.12-28.87-9.9-33.74-24.31-3.08-9.15-2.92-19.11-1.67-28.59,1.37-10.26,3.77-20.43,6.1-30.52,4.65-20.13,10.13-40.07,16.43-59.75,5.7-17.86,11.83-35.71,19.69-52.75,7.31-15.86,16.43-31.11,28.57-43.77,12.55-13.06,28.16-22.49,44.74-29.57,17.74-7.58,36.42-13.01,55.08-17.88,19.64-5.13,39.56-9.26,59.63-12.36,37.69-5.83,75.9-8.1,114.02-6.78.28-.38.72-.67,1.35-.67,7.26-.13,14.36,2.28,20.23,6.55,12.78,9.28,18.91,24.84,16.78,40.35Z"/>
  <path class="cls-1" d="M1022.54,489.81c-.22,8.31-.62,16.63-1.03,24.94-.35,6.78-.52,13.68-2.15,20.29-1.43,5.86-4.22,11.46-9.08,15.2-5.2,4-11.8,5.4-18.2,6-14.6,1.4-29.41-.75-43.37-5.08-27.99-8.66-53.2-25.34-75.91-43.52-22.54-18.06-42.87-38.72-61.82-60.48-19.04-21.84-36.76-44.8-54.3-67.85-8.23-10.81-18.74-22.43-19.83-36.64-.78-10.45,5.13-22.71,16.3-24.58.8-.13,1.38.38,1.58.98,4.5-1.05,8.93-2.42,13.28-4.03,24.48-9.11,46.22-25.61,72.21-30.56,13.86-2.63,27.89-1.18,41.19,3.38,13.91,4.77,26.69,12.28,38.94,20.31,23.59,15.46,47.87,31.77,66.58,53.15,9.43,10.78,17.05,22.88,22.56,36.11,5.75,13.84,9.21,28.52,11.16,43.37,2.13,16.21,2.32,32.66,1.88,49Z"/>
  <path class="cls-5" d="M1028.37,490.71c-4.38,4.27-8.48,8.81-12.33,13.58-29.93,37.01-45.49,86.66-86.76,113.8-21.56,14.16-46.72,16.66-71.91,14.63-13.76-1.1-27.43-3.3-41.16-4.87-14.26-1.62-28.59-2.73-42.94-3.35-28.91-1.23-57.88-.42-86.68,2.43-27.28,2.71-54.98,9.55-82.51,6.98-22.71-2.12-42.6-12.31-59.03-27.89-15.9-15.06-28.18-33.52-39.87-51.9-22.64-35.59-49.94-80.03-96.02-85.66-2.17-.27-2.18-3.7,0-3.43,5.08.63,10.08,1.65,14.96,3.2,1.03.33,2.03.7,3.05,1.05-.08-.57.15-1.22.82-1.48,5.71-2.35,11.41-4.71,17.13-7.01,45.69-18.48,91.56-36.57,137.35-54.8,45.77-18.23,91.44-36.77,137.34-54.67,21.34-8.31,43.34-15.98,66.31-17.81,22.54-1.8,44.24,3.48,64.93,12.16,18.91,7.93,37.19,17.66,55.12,27.63,17.08,9.48,33.81,19.71,49.55,31.31,30.27,22.31,56.92,49.8,72.9,84.23.28.63.28,1.37-.25,1.88Z"/>
  <path class="cls-5" d="M1165.17,283.83c-2.13,8.52-6.45,16.66-10.7,24.33-67.64,122.05-143.99,238.56-228.17,348.18-1.3,1.69-2.77,3.49-4.78,3.88-2.22.43-4.35-1-6.21-2.38-48.91-36.04-95.6-75.53-139.66-118.13-19.59-18.94-35.27-41.95-54.71-61.03-12.99-12.74-28.22-19.48-44.5-25.85-5.2-2.03-22.08-5.01-23.31-11.46-.99-5.21,19.28-23.57,22.79-27.62,40.17-46.45,84.63-89.89,121.26-139.62,33.71-45.66,64.28-93.97,91.35-144.44,2.34-4.37,5.05-9.11,9.52-10.67,2.66-.93,5.54-.57,8.31-.17,86.64,12.48,169.68,52.26,236.1,113.11,11.15,10.21,22.54,22.46,23.94,38.09.42,4.68-.09,9.28-1.22,13.76Z"/>
  <path class="cls-6" d="M1261.29,962c-7.35,34.96-32.02,62.68-65.08,74.4-21.94,7.77-45.86,9.85-68.61,6.87-37.86-4.96-79.39-29.83-94.58-73.08-9.53-27.14-8.43-59.16,2.94-85.3,21.36-49.09,75.62-74.9,120.77-70.28,45.29,4.64,85.53,39.42,101.25,89.87,6.31,20.27,7.03,39.83,3.31,57.53Z"/>
  <path class="cls-7" d="M553.12,952.71c-3.31-13.44-11.24-27.46-25.73-30.81-6.95-1.61-14.52-.28-19.74,4.81-6.16,6-5.84,15.51-4.46,23.41,2.16,12.38,7.09,24.8,14.46,35,3.99,5.52,8.85,10.42,14.63,14.05,5.42,3.4,12.96,5.51,17.21-.74,2-2.94,2.88-6.78,3.69-10.19.93-3.84,1.53-7.76,1.85-11.69.64-7.97-.02-16.08-1.93-23.84ZM548.44,993.08c-1.01,2.99-2.64,6.03-6.17,6.23-3.2.17-6.29-1.6-8.88-3.29-5.15-3.34-9.56-7.82-13.13-12.79-7.58-10.56-12.41-23.8-14.45-36.61-2.03-12.75,5.79-24.34,19.77-21.7,13.04,2.46,20.46,14.56,23.81,26.45,3.8,13.52,3.58,28.38-.94,41.71Z"/>
  <path class="cls-7" d="M587.73,591.19c-4.1,4.15-8.1,8.41-11.98,12.76-19.06,21.36-35.51,45.04-48.85,70.36-14.16,26.84-24.74,55.52-31.33,85.14-7.1,31.96-9.65,64.9-7.68,97.56,1.98,32.82,8.7,65.21,19.21,96.36.45,1.37-1.63,1.88-2.13.58-1.45-3.87-2.98-7.71-4.27-11.63-10.18-31.36-15.6-64.35-16.46-97.29-.88-33.11,2.83-66.38,11.16-98.44,1.92-7.38,4.08-14.7,6.48-21.93.32-.92.62-1.83.93-2.73,4.57-13.33,9.95-26.38,16.11-39.06.53-1.13,1.1-2.27,1.67-3.4,2.7-5.41,5.53-10.76,8.52-16.03,14.23-25.14,31.57-48.54,51.43-69.51,1.12-1.18,2.25-2.35,3.38-3.52.28.07.58.03.85-.12,2.83.68,2.88.78,2.95.88Z"/>
  <path class="cls-7" d="M577.41,537.47c-48.7,7.79-95.72,25.11-137.85,50.75-19.78,12.04-39,25.99-52.92,44.76-12.56,16.95-19.58,37.62-20.98,58.6-1.55,23.32,3.85,47.68,17.02,67.15.76,1.12,2.54.12,1.83-1.07-21.23-35.8-21.78-82.54,1.08-117.79,12.54-19.33,31.28-33.73,50.55-45.87,20.34-12.81,41.92-23.68,64.31-32.42,25.06-9.78,51.17-16.97,77.71-21.36,1.81-.3,1.04-3.04-.76-2.75Z"/>
  <path class="cls-7" d="M518.94,682.88c-6.17,12.68-11.55,25.73-16.11,39.06-3.32-4.82-6.23-9.81-8.2-15.38-1.05-2.95-1.87-6-2.43-9.08-.55-2.93-1.2-6.4-.95-9.48,9.23-1.65,18.44-3.43,27.69-5.12Z"/>
  <path class="cls-7" d="M521.58,682.4c-.88.17-1.76.32-2.65.48-9.25,1.68-18.46,3.47-27.69,5.12-.25,3.08.4,6.55.95,9.48.57,3.08,1.38,6.13,2.43,9.08,1.97,5.57,4.88,10.56,8.2,15.38.4.57.78,1.12,1.18,1.67.78,1.08-.95,2.37-1.83,1.4-4.73-5.33-7.96-11.41-10.21-17.69-1.22-3.4-2.12-6.91-2.7-10.46-.53-3.37-.43-6.77-.87-10.11-.08-.6.52-1.33,1.1-1.43,10.36-2,20.74-3.83,31.11-5.82,2.1-.42,2.9,2.57.98,2.92Z"/>
  <path class="cls-7" d="M540.12,492.46c-44.83,6.45-88.27,20.81-128.12,42.36-19.84,10.73-38.73,23.21-56.37,37.27-17.59,14.02-34.33,29.66-46.66,48.64-13.8,21.24-22.07,48.04-16.27,73.29.36,1.56,2.62.88,2.36-.65-3.94-23.01,1.85-46.27,13.59-66.2,11.37-19.29,27.59-35.18,44.78-49.3,34.25-28.14,73.58-50.12,115.4-64.81,23.35-8.2,47.57-14.24,72.07-17.76,1.86-.27,1.07-3.09-.78-2.83Z"/>
  <path class="cls-7" d="M226.42,666.21c-7.71-1.33-14.19,4.71-17.84,10.9-6.88,11.69-7.36,25.86-5.81,38.98.05.42.1.84.16,1.27.44,3.37,1.03,6.73,1.82,10.03.7,2.92,1.73,5.87,4.15,7.8,5.08,4.06,12.07,1.98,16.76-1.56,10.55-7.96,16.85-21.35,17.58-34.39.65-11.51-3.01-30.66-16.84-33.04ZM226.93,728.02c-3.66,3.66-9.55,7.98-14.92,5.16-2.64-1.39-3.41-4.32-4.04-7.01-.72-3.05-1.29-6.15-1.72-9.25-.89-6.54-1.07-13.19-.43-19.77.02-.2.05-.39.07-.59,1.21-5.54,2.45-10.89,5.21-15.95,2.44-4.47,6.05-9.75,11.42-10.8,6.13-1.19,11.13,3.99,13.55,9.02,2.57,5.36,3.74,11.53,3.8,17.44.12,11.81-4.58,23.38-12.94,31.74Z"/>
  <path class="cls-7" d="M510.48,762.31c-1.46-.54-3.15-.56-4.7-.56-1.65,0-3.3.19-4.92.46-3.19.53-6.21,1.58-9.1,3.03-1.49.75-.18,2.83,1.28,2.19,2.67-1.16,5.55-1.95,8.43-2.41,1.43-.23,2.87-.33,4.31-.39,1.46-.06,2.95.08,4.4-.11,1.24-.16,1.55-1.75.3-2.21Z"/>
  <path class="cls-7" d="M514.25,747.51c-3.2-.34-6.61.54-9.63,1.57-3.1,1.06-6.03,2.56-8.72,4.42-1.17.8-.12,2.68,1.12,1.92,2.66-1.63,5.48-2.9,8.45-3.86,2.97-.95,6.04-1.3,9.06-2.04,1.2-.29.81-1.9-.27-2.02Z"/>
  <path class="cls-7" d="M391.48,675.14c-3.19-1.96-7.56-2.55-11.23-2.77-3.92-.24-7.81.2-11.56,1.34-1.45.44-.85,2.61.63,2.27,3.51-.8,7.15-1.13,10.74-.9,1.77.11,3.53.36,5.26.74,1.78.39,3.5,1.06,5.29,1.43,1.25.26,2.04-1.4.89-2.11Z"/>
  <path class="cls-7" d="M387.48,660.92c-1.18-.75-2.87-.83-4.23-.9-1.44-.07-2.87.01-4.29.21-2.81.39-5.48,1.34-7.94,2.74-1.43.81-.17,2.93,1.28,2.19,2.19-1.12,4.6-1.85,7.04-2.17,1.21-.16,2.44-.2,3.66-.14,1.26.06,2.64.45,3.89.3,1.14-.14,1.68-1.55.6-2.23Z"/>
  <path class="cls-7" d="M315.42,664.94c-1.57-1.32-3.56-2.11-5.48-2.79-1.98-.7-4.05-1.18-6.13-1.49-4.18-.63-8.37-.51-12.48.45-1.53.36-.83,2.5.63,2.3,3.78-.51,7.71-.51,11.47.1,1.82.3,3.61.75,5.36,1.31,1.86.59,3.65,1.49,5.53,2,1.02.28,1.99-1.13,1.1-1.88Z"/>
  <path class="cls-7" d="M318.06,655.23c-1.31-1.39-3.21-2.32-4.94-3.07-1.81-.78-3.68-1.38-5.62-1.75-3.9-.75-7.81-.67-11.67.25-1.49.35-.84,2.53.63,2.27,3.49-.61,7.18-.51,10.64.26,1.67.37,3.34.88,4.92,1.56,1.68.72,3.24,1.72,4.93,2.41,1.14.46,1.85-1.17,1.13-1.94Z"/>
  <path class="cls-7" d="M290.52,526.15c-.37-1.64-1.44-3.02-2.49-4.29-1.04-1.25-2.21-2.37-3.48-3.38-2.62-2.07-5.54-3.55-8.75-4.48-1.56-.45-2.15,1.86-.66,2.4,2.69.97,5.28,2.49,7.48,4.32,1.13.94,2.19,1.99,3.16,3.09.98,1.12,1.79,2.41,2.9,3.41.83.75,2.1.02,1.85-1.08Z"/>
  <path class="cls-7" d="M301.41,521.13c-1.5-3.42-4.09-6.33-6.91-8.74-2.9-2.48-6.1-4.39-9.66-5.76-1.28-.49-2.18,1.64-.94,2.23,3.15,1.48,6.16,3.41,8.77,5.72,2.65,2.35,4.83,5.12,7.02,7.88.34.42,1.05.38,1.44.09.46-.36.5-.9.28-1.41Z"/>
  <path class="cls-2" d="M1163.69,966.34c-1.18,6.8-4.53,13.16-9,18.36-7.98,9.25-19.96,14.68-32.24,13.81-12.33-.88-23.91-7.38-30.86-17.65-.57-.83-.15-1.63.55-2,.07-.28.27-.53.63-.7,5.22-2.3,11.05-3.65,16.55-5.15,5.58-1.52,11.23-2.87,16.9-4.07,11.28-2.38,22.83-4.42,34.34-5.28.7-.05,1.13.32,1.3.8.93-.13,2.05.65,1.83,1.87Z"/>
  <path class="cls-2" d="M1078.12,936.66c.71,3.26-.56,6.98-4.49,8.77-10.97,5.01-15.86-13.25-4.09-14.74,4.66-.59,7.8,2.42,8.58,5.97Z"/>
  <path class="cls-2" d="M1153.39,935.3c-7.38,2.73-16.83-3.58-13.42-11.83,3.82-9.24,18.84-11.43,20.32.6.6,4.87-2.35,9.55-6.9,11.23Z"/>
  <g>
    <path class="cls-2" d="M1314.68,781.94c-3.52,2.81-4.05,8.39.96,10.1,3.51,1.2,7.8-1.27,8.52-4.67,1.16-5.47-4.86-9.13-9.48-5.43Z"/>
    <path class="cls-2" d="M1293.02,779.92c-3.52,2.81-4.05,8.39.96,10.1,3.51,1.2,7.8-1.27,8.53-4.67,1.16-5.47-4.86-9.13-9.48-5.43Z"/>
  </g>
  <g>
    <path class="cls-2" d="M183.33,847.77c-4.37,4.59-4.07,12.46,3.24,13.9,5.13,1.01,10.64-3.23,11.01-8.12.59-7.85-8.5-11.81-14.25-5.79Z"/>
    <path class="cls-2" d="M152.75,849.04c-4.37,4.59-4.07,12.46,3.24,13.9,5.13,1.01,10.64-3.23,11.01-8.12.59-7.85-8.5-11.81-14.25-5.79Z"/>
  </g>
  <g>
    <path class="cls-6" d="M229.88,1215.2c-.72,2.98-3.5,4.93-6.52,4.87-1.52-.03-2.95-.53-4.12-1.5-1.13-.93-1.77-2.28-1.93-3.72-.18-1.42.13-2.85.83-4.03-.75-.17-1.33-1.1-.85-1.83.5-.8,1.17-1.38,2.02-1.8.77-.38,1.58-.65,2.43-.77,1.73-.23,3.52.02,5.03.93,2.62,1.6,3.82,4.9,3.1,7.85Z"/>
    <path class="cls-6" d="M200.72,1213.82c-.7,2.85-3.52,4.85-6.36,5.07-2.92.22-5.47-1.83-6.15-4.61-.68-2.68.18-5.7,2.55-7.28.5-.33,1.22-.12,1.55.37.97-.72,2.13-1.12,3.37-.98,3.47.42,5.88,4.08,5.05,7.45Z"/>
  </g>
  <path class="cls-6" d="M418.15,1202.98c-5.67,4.78-14.31,5.04-20.74,1.64-2.25-1.19-4.3-2.87-5.81-4.94.66-.37,1.31-.73,1.95-1.12,3.75-2.26,8.67-7.35,4.92-11.82-2.89-3.45-8.84-2.17-11.07,1.36-2.05,3.24-1.57,7.18,0,10.59-3.67,1.76-7.44,3.36-11.21,4.87-5.07,2.03-10.23,3.94-15.48,5.44-4.88,1.4-10.53,2.48-15.36.28-1.86-.84-3.8-2.37-5.12-4.24,3.92-2.65,7.43-5.88,10.4-9.57.47-.59.55-1.35,0-1.94-3.08-3.27-8.02-2.58-11.29.06-3.26,2.64-4.01,6.76-2.67,10.46-4.23,2.56-8.87,4.45-13.77,5.5-5.04,1.07-11.86,1.83-15.49-2.7-.34-.43-.65-.91-.9-1.42,2.79-1.87,5.39-4.01,7.74-6.38.46-.47.53-1.36,0-1.82-2.93-2.54-7.35-1.64-9.65,1.34-1.33,1.72-1.62,3.78-1.22,5.75-4.7,2.81-9.9,4.81-15.31,5.81-4.28.8-10.18,1.67-14.11-.71-.56-.34-1.11-.8-1.59-1.34,2.11-1.9,3.93-4.16,5.32-6.72.25-.47.26-1.25-.21-1.62-3.71-2.89-9.22,0-9.33,4.65-.03,1.22.2,2.3.61,3.25-5.17,3.87-11.84,5.71-18.32,4.59-1.41-.24-2.03,1.89-.6,2.17,7.18,1.43,14.61-.4,20.39-4.6,2.4,2.52,6.44,3.65,9.88,3.72,8.51.16,16.89-2.35,24.17-6.69.6,1.16,1.41,2.21,2.36,3.05,4.09,3.63,10,3.47,15.06,2.63,5.26-.87,10.37-2.71,15.04-5.31.4-.22.79-.46,1.18-.69,8.02,12.05,25.2,4.98,35.72.97,5.02-1.91,10.25-3.9,15.14-6.33.49.74,1.03,1.44,1.59,2.07,7.52,8.4,21.47,9.23,29.97,1.94,1.53-1.31-.68-3.48-2.2-2.2ZM271.1,1203.35c.57-1.46,2.11-2.28,3.54-2.02-1.02,1.63-2.23,3.12-3.61,4.44-.22-.79-.25-1.61.07-2.42ZM306.76,1200.06c1.02-1.26,2.86-2.03,4.44-1.63-1.67,1.58-3.46,3.02-5.34,4.32,0-.95.26-1.88.91-2.69ZM339.18,1198.13c1.35-3.01,5.58-5.15,8.52-3.43-2.57,3-5.5,5.64-8.72,7.86-.45-1.43-.46-2.94.21-4.43ZM389.77,1196.31c-.75-2.1-1.06-4.71.21-6.69.99-1.54,3.16-2.34,4.94-1.9,2.27.56,2.53,2.92,1.48,4.71-1.15,1.97-3.31,3.37-5.28,4.4-.31.16-.63.31-.94.47-.15-.33-.3-.65-.42-.99Z"/>
  <path class="cls-6" d="M433.9,1235.64c-32.69,1.57-65.37,3.11-98.06,4.67-32.83,1.56-65.65,3.15-98.48,4.73-18.42.89-36.87,1.57-55.26,2.83-1.68.12-1.72,2.69,0,2.64,32.7-.9,65.39-2.97,98.06-4.54,32.83-1.58,65.65-3.18,98.48-4.77,18.42-.9,36.84-1.8,55.26-2.68,1.84-.09,1.85-2.97,0-2.88Z"/>
  <path class="cls-6" d="M274.99,1264.79c-3.48-.76-7.38-.52-10.93-.63-3.81-.12-7.63-.19-11.44-.22-7.63-.05-15.26.07-22.88.4-7.62.32-15.24.82-22.83,1.51-3.8.34-7.59.73-11.38,1.18-3.54.42-7.45.55-10.87,1.56-1.33.39-1.07,2.39.33,2.42,3.74.07,7.64-.8,11.36-1.2,3.79-.41,7.59-.78,11.39-1.12,7.33-.65,14.67-1.13,22.02-1.44,7.35-.31,14.71-.48,22.06-.48,3.81,0,7.63.05,11.44.13,3.72.09,7.75.69,11.43.26,1.23-.14,1.76-2.04.32-2.35Z"/>
  <path class="cls-6" d="M432.42,1254.33c-34.58,3.46-69.25,6.12-103.87,9.14-9.79.85-19.59,1.71-29.38,2.56-1.77.16-1.79,2.94,0,2.79,34.62-3.02,69.25-6.03,103.87-9.07,9.79-.86,19.58-1.74,29.38-2.46,1.9-.14,1.88-3.14,0-2.96Z"/>
  <path class="cls-6" d="M433.95,1283.48c-32.1,1.62-64.21,3.15-96.31,4.69-31.96,1.53-63.93,3.08-95.89,4.64-18.11.88-36.32,1.32-54.38,2.88-1.6.14-1.66,2.56,0,2.54,16.05-.19,32.13-1.36,48.16-2.15,16.05-.79,32.1-1.58,48.15-2.37,31.97-1.57,63.93-3.2,95.89-4.78,18.13-.9,36.25-1.81,54.38-2.67,1.79-.09,1.79-2.88,0-2.79Z"/>
  <path class="cls-6" d="M342.07,1315.92c-39.13,2.86-78.37,4.42-117.61,4.61-11.13.05-22.33-.4-33.46,0-1.59.06-1.57,2.36,0,2.46,9.86.66,19.86.4,29.74.37,9.78-.03,19.55-.14,29.33-.34,19.55-.4,39.09-1.15,58.62-2.27,11.14-.64,22.27-1.4,33.39-2.27,1.63-.13,1.65-2.69,0-2.56Z"/>
  <path class="cls-6" d="M433.15,1309.99c-6.28.1-12.61.82-18.87,1.26-6.42.46-12.85.91-19.27,1.45-12.71,1.08-25.39,2.38-38.06,3.83-1.66.19-1.69,2.81,0,2.63,12.67-1.39,25.36-2.63,38.06-3.78,6.28-.57,12.57-1.15,18.86-1.65,6.41-.51,12.9-.67,19.28-1.37,1.49-.16,1.57-2.41,0-2.38Z"/>
  <path class="cls-6" d="M433.18,1333.93c-31.41,3.47-62.96,5.68-94.5,7.6-31.4,1.91-62.84,3.18-94.28,4.1-17.79.52-35.6.86-53.39,1.27-1.55.04-1.55,2.4,0,2.41,31.59.12,63.2-.87,94.76-2.31,31.43-1.43,62.85-3.46,94.21-5.98,17.74-1.43,35.46-3.03,53.2-4.51,1.65-.14,1.64-2.76,0-2.58Z"/>
  <path class="cls-3" d="M550.3,1302.01c-.87.02-1.73,0-2.59-.03-.34-.65-1.08-1.05-1.87-.52-.18.12-.37.23-.55.35-9.27-.93-17.98-5.11-24.59-11.8-1.25-1.26-3.15.66-1.94,1.94,6.02,6.38,14.08,10.62,22.65,12.24-16.16,9.22-36.14,11.9-53.18,3.21-8.36-4.26-15.56-10.92-19.75-19.38-3.87-7.81-4.96-16.95-3.17-25.48,4.82,3.95,11.13,5.7,17.55,3.73,8.54-2.62,13.1-11.45,8.8-19.62-1.83-3.48-5.16-6.31-9.15-6.77-5.14-.58-9.7,2.82-12.76,6.62-2.54,3.15-4.46,6.7-5.8,10.46-.13-.17-.27-.33-.39-.51-6.11-8.79-5.27-19.91-2.55-29.74,5.85-21.16,19.14-46.79,43.99-48.41,1.45-.09,1.48-2.33,0-2.28-11.17.38-21.34,6.06-28.79,14.2-8.06,8.8-12.99,19.96-16.66,31.19-3.64,11.12-5.77,23.74.2,34.46.9,1.61,1.97,3.09,3.18,4.42-1.33,5.15-1.62,10.58-.93,15.85,1.39,10.58,6.78,20.14,14.85,27.07,17.62,15.13,42.68,15.49,62.8,5.24-4.13,3.04-8.14,6.58-11.75,10.52-.5-.39-1.26-.42-1.56.28-.46,1.09-.98,2.15-1.46,3.22-.61,1.36,1.14,3.13,2.27,1.75,6.61-8.03,14.7-14.65,23.89-19.5,1.28-.67.69-2.74-.73-2.71ZM472.3,1247.67c2.95-3.43,7.64-6.63,12.27-4.49,3.37,1.56,5.59,5.26,6.03,8.86.49,4.01-1.49,7.64-4.83,9.83-6.47,4.24-14.4,2.46-19.66-2.49,1.28-4.24,3.3-8.35,6.19-11.7Z"/>
  <path class="cls-6" d="M1192.7,261.6c-1.78,3.92-3.6,7.83-5.41,11.75-15.01,32.26-30.98,64.05-47.69,95.47-3.88,7.3-7.65,14.7-11.85,21.81-3.32,5.6-7.15,11.16-12.23,15.3-4.98,4.03-11.13,6.43-17.61,5.78-7.53-.75-14.13-4.87-20.06-9.3-13.63-10.23-26.83-21.04-40.37-31.38-13.71-10.45-27.53-20.76-41.45-30.91-27.88-20.29-56.24-39.92-85.01-58.9-15.26-10.05-30.64-19.93-46.12-29.62-5.98-2.65-12.08-5.07-18.26-7.2-3.66-1.27-7.36-2.43-11.08-3.5-3.43-1-6.95-1.78-10.33-2.93-.37.07-.75.02-1.1-.28-2.47-2.06-4.13-4.81-5.05-7.9-2.12-7.21.38-14.61,3.62-21.08,3.93-7.9,8.48-15.53,12.91-23.14,9.11-15.68,18.73-31.08,28.84-46.12,7.98-11.91,16.83-24.49,30.56-30.14,7.82-3.22,16.41-3.58,24.76-3.13,8.18.47,16.36,1.47,24.46,2.68,33.04,4.98,65.18,15.28,95.37,29.54,29.71,14.01,57.45,31.89,82.99,52.52,25.54,20.61,48.67,43.94,69.9,68.95.45.52.52,1.1.22,1.73Z"/>
  <path class="cls-1" d="M1105.15,406.66c-7.21,9-14.23,18.16-21.03,27.48-24.94,34.26-46.82,70.63-65.77,108.54-.72,1.45-2.62.57-2.77-.75-.33-3.13-.72-6.27-1.17-9.37-3.58-24.31-10.96-48.04-21.68-70.13-10.66-22.01-24.56-42.45-41.24-60.37-17.14-18.43-37.19-34.01-59.27-46.09-22.46-12.3-46.85-20.98-71.98-25.78-12.66-2.43-25.53-3.83-38.42-4.25-12.81-.4-25.54.47-38.29,1.65-1.28.12-1.57-2.03-.3-2.25.25-.05.52-.08.77-.12.93-2.15,2.6-3.7,4.15-5.45,1.78-2.03,3.58-4.05,5.36-6.08,3.4-3.87,6.77-7.77,10.1-11.68,23.98-28.27,46.34-57.98,66.51-89.09-.13-.65.13-1.37.95-1.62,26.97-8.03,56.83-5.45,83.41,2.85,22.96,7.16,44.3,18.83,63.92,32.62,18.79,13.25,36.31,28.38,52.34,44.85,31.86,32.71,57.9,71.05,76.48,112.77.67,1.5-1,2.8-2.08,2.25Z"/>
  <path class="cls-3" d="M843.94,1042.88c-9.18,9.25-19.46,17.37-30.75,23.89-5.6,3.23-11.41,6.11-17.45,8.44-5.52,2.13-12.45,4.02-18.09,1.24-3.05-1.5-5.03-4.1-6.2-7.09.61-.59,1.23-1.16,1.82-1.77,4.96-5.12,9.27-10.92,12.77-17.12,2.63-4.67,5.69-12.91-.77-16.08-5.99-2.94-11.64,2.39-13.78,7.56-1.43,3.46-2.3,7.23-3.12,10.87-.9,4.01-1.5,8.17-.99,12.28.15,1.23.44,2.44.8,3.62-5.44,5.04-11.55,9.35-18.14,12.76-5.98,3.09-13.2,5.77-19.91,3.47-5.15-1.77-8.78-6.44-10.55-11.44-.49-1.39-.84-2.8-1.07-4.22,4.56-4.96,8.68-10.37,11.94-16.27,1.67-3.03,3.11-6.19,4.3-9.44,1.05-2.87,2.43-6.39,1.1-9.39-1.17-2.63-4.14-3.54-6.79-2.71-3.09.97-4.76,3.86-6.02,6.62-3.36,7.37-6.68,15.02-7.57,23.15-.26,2.39-.22,4.86.12,7.29-6.29,6.65-13.47,12.48-20.92,17.76-5.11,3.62-10.5,7.75-16.55,9.58-5.7,1.73-12.02.43-14.55-5.49-.98-2.28-.87-4.58.65-6.58.91-1.21-.96-2.39-1.98-1.52-7.37,6.27-10.73,16.45-19.29,21.4-3.77,2.18-8.66,3.02-12.19-.04-2.06-1.78-3.66-4.77-3.09-7.45.44-.83.87-1.66,1.31-2.49.65-1.24-1.03-2.74-2.04-1.57-.86,1.14-1.3,1.99-1.57,2.87-4.92,9.26-11.03,19.12-21.99,21.34-5.34,1.08-11.06-.14-14.69-4.41-1.89-2.22-3.04-4.93-3.76-7.77.58-1.43,1.12-2.88,1.62-4.34,1.87-5.54,3.1-11.25,3.76-17.05.1-.9-.9-1.39-1.64-1.25-5.23.99-7.08,6.53-7.48,11.21-.31,3.59-.02,7.53.9,11.23-7.01,16.76-19.55,31.19-35.4,40.23-1.28.73-.14,2.68,1.16,1.98,15.67-8.46,28.11-22.18,35.5-38.3.34.86.71,1.7,1.12,2.49,6.32,11.98,21.77,10.66,30.91,2.87,4.21-3.58,7.33-8.16,10.06-12.94.32,1.02.79,2.02,1.43,2.94,2.74,3.96,7.13,5.68,11.84,4.85,10.72-1.9,15.22-12.6,21.71-20.29.11,3.21,1.92,6.43,4.43,8.54,5.32,4.48,12.48,3.18,18.3.39,6.69-3.21,12.89-7.94,18.76-12.45,5.05-3.87,9.88-8.04,14.34-12.58,2.3,9.18,8.95,17.06,19.41,16.95,7.51-.07,14.71-3.81,20.97-7.65,4.49-2.75,8.72-5.94,12.63-9.48,1.81,3.8,4.8,6.91,9.02,8.33,6.57,2.21,13.93-.21,20.02-2.78,14.24-6.02,27.65-14.3,39.38-24.38,2.87-2.47,5.63-5.06,8.29-7.76,1.29-1.31-.72-3.32-2.02-2.02ZM583.81,1096.67c-.26-3.81.02-9.74,3.61-11.92-.7,4.82-1.85,9.54-3.41,14.12-.08-.74-.14-1.48-.19-2.2ZM719.58,1054.88c.94-3.42,2.2-6.74,3.58-10,1.2-2.84,2.28-6.1,4.1-8.61.91-1.25,2.25-2.29,3.85-2.3,2.24-.02,2.72,2.04,2.49,3.87-.38,3.03-1.8,6.14-3.03,8.9-2.42,5.4-5.57,10.47-9.22,15.13-1.02,1.31-2.09,2.58-3.18,3.83-.11-3.62.43-7.26,1.41-10.81ZM770.1,1060.89c.14-3.77,1.04-7.47,2-11.11.77-2.96,1.46-6.07,2.98-8.76,1.45-2.56,3.84-4.6,6.92-4.6,3.59,0,5.02,3.14,4.44,6.33-.53,2.94-2.13,5.58-3.65,8.1-1.65,2.72-3.45,5.35-5.4,7.85-2.11,2.7-4.39,5.25-6.81,7.67-.38-1.81-.54-3.67-.48-5.48Z"/>
  <g>
    <path class="cls-6" d="M1063.22,718.87c-.47-1.18-2.36-.72-1.95.54,3.97,12.02,8.33,23.88,12.75,35.74.54,1.44,2.86.84,2.34-.64-4.21-11.94-8.48-23.85-13.14-35.63Z"/>
    <path class="cls-6" d="M1112.05,671.37c-.09-1.34-2.07-1.37-2.11,0-.36,13.86.8,27.87,2.14,41.65,1.34,13.7,3.3,27.3,5.77,40.84.27,1.5,2.52.85,2.27-.63-2.26-13.6-4.03-27.31-5.36-41.03-1.32-13.6-1.78-27.22-2.71-40.84Z"/>
    <path class="cls-6" d="M1175.04,685.52c-3.59,10.16-6.26,20.73-9.23,31.09-2.97,10.34-6.46,20.7-8.69,31.24-.34,1.62,1.9,2.21,2.46.68,3.69-10.12,6.22-20.75,9.18-31.1,2.97-10.35,6.31-20.73,8.65-31.25.35-1.56-1.85-2.14-2.37-.65Z"/>
  </g>
</svg>