<?xml version="1.0" encoding="UTF-8"?>
<svg xmlns="http://www.w3.org/2000/svg" xmlns:xlink="http://www.w3.org/1999/xlink" viewBox="0 0 2209.68 1434.95">
  <defs>
    <style>
      .cls-1 {
        fill: #cacaca;
      }

      .cls-2 {
        fill: #2c3030;
      }

      .cls-3 {
        fill: #e3f5fd;
      }

      .cls-4 {
        fill: #2a2a4f;
      }

      .cls-5 {
        fill: #637dca;
      }

      .cls-6 {
        fill: #151f51;
      }

      .cls-7 {
        fill: #fbfbfb;
      }

      .cls-8 {
        fill: #008ca5;
      }

      .cls-9 {
        mix-blend-mode: color-burn;
      }

      .cls-9, .cls-10 {
        fill: #ffc7c7;
      }

      .cls-11 {
        isolation: isolate;
      }

      .cls-12 {
        fill: #162d44;
      }

      .cls-13 {
        fill: #00bbd5;
      }

      .cls-14 {
        fill: #212121;
      }

      .cls-15 {
        fill: #00dbfb;
      }

      .cls-16 {
        fill: #daf1ff;
      }

      .cls-17 {
        fill: #c6e2eb;
      }

      .cls-18 {
        fill: #102235;
      }

      .cls-19 {
        fill: url(#_Áåçûìÿííûé_ãðàäèåíò_121);
      }

      .cls-20 {
        fill: url(#_Áåçûìÿííûé_ãðàäèåíò_121-2);
      }

      .cls-21 {
        fill: #44c2d9;
      }

      .cls-22 {
        fill: #fa9265;
      }

      .cls-23 {
        fill: #ebf7fd;
      }

      .cls-24 {
        fill: #3f59a6;
      }
    </style>
    <linearGradient id="_Áåçûìÿííûé_ãðàäèåíò_121" data-name="Áåçûìÿííûé ãðàäèåíò 121" x1="295.52" y1="438.37" x2="87.64" y2="447.12" gradientUnits="userSpaceOnUse">
      <stop offset="0" stop-color="#84cdff"/>
      <stop offset="1" stop-color="#56c2ff"/>
    </linearGradient>
    <linearGradient id="_Áåçûìÿííûé_ãðàäèåíò_121-2" data-name="Áåçûìÿííûé ãðàäèåíò 121" x1="-12020.77" y1="438.37" x2="-12228.64" y2="447.12" gradientTransform="translate(-11393.8) rotate(-180) scale(1 -1)" xlink:href="#_Áåçûìÿííûé_ãðàäèåíò_121"/>
  </defs>
  <g class="cls-11">
    <g id="_Layer_" data-name="&amp;lt;Layer&amp;gt;">
      <g>
        <g>
          <path class="cls-12" d="M1823.7,712.52c6.16-1.64,78.97-10.27,103.59,9.46,24.62,19.72,69,105.48,69,111.92s-43.15,82.87-43.15,82.87c0,0-25.48,6.16-35.34,0,0,0-32.05,36.57-96.16,41.5-64.11,4.93-111.77-55.72-111.77-55.72,0,0-6.84,13.9-17.39,10.16-10.55-3.75-16.15-88.01,5.76-136.9,21.91-48.89,119.3-61.64,125.46-63.28Z"/>
          <path class="cls-12" d="M1019.91,712.52c6.16-1.64,78.97-10.27,103.59,9.46,24.62,19.72,69,105.48,69,111.92s-43.15,82.87-43.15,82.87c0,0-25.48,6.16-35.34,0,0,0-32.05,36.57-96.16,41.5-64.11,4.93-111.77-55.72-111.77-55.72,0,0-6.84,13.9-17.39,10.16-10.55-3.75-16.15-88.01,5.76-136.9,21.9-48.89,119.3-61.64,125.46-63.28Z"/>
          <path class="cls-15" d="M714.27,928.79c-1.11-.05-2.12-.1-3.06-.12.94.05,1.95.07,3.06.12Z"/>
          <path class="cls-24" d="M711.14,920.68l3.33-3.57c6.36-5.47,11.84-11.24,11.84-11.24,0,0-.74-.22-1.5-1.77-.89-1.82-1.8-5.5-1.58-12.8.39-13.56-2.88-26.26-1.23-27.52.15-.12.35-.22.54-.32,1.95-.91,5.7-1.11,2.74-6.68-1.36-2.54-2.51-3.77-3.38-4.98-1.26-1.73-1.97-3.45-1.97-9,0-.64,0-1.36.03-2.1.17-10.16,1.97-29.09,17.65-39.82,16.84-11.51,7.82-9.86,18.91-16.45,11.1-6.56,41.5-11.88,82.18-42.41,40.68-30.52,51.16-31.14,85.68-36.69,34.52-5.55,132.53-17.88,178.76-18.49,46.23-.62,35.13-7,48.08-7.5,12.94-.52,10.48-1.13,16.03-5.45,5.55-4.31,25.27,1.23,25.27,1.23,0,0,160.68-91.65,184.5-102.32,23.84-10.68,60.83-19.73,152.05-14.79,91.23,4.93,222.72,43.57,277.8,60.83,55.06,17.26,110.11,42.73,120.82,41.08.96-.15,1.97-.39,3.03-.71,10.55-3.28,25.17-14.84,40.31-20.44,9.52-3.53,14.28-4.44,19.23-4.91h.02c3.67-.37,7.47-.47,13.41-1.26,0,0,8.63,6.16,17.26-5.55,8.63-11.71,37.6-12.94,60.41-12.94s25.89,5.55,19.11,14.18c-5.82,7.4-12.08,14.35-21.94,17.33h-.02s-.05,0-.1.02c-1.58.52-3.25.86-5.05,1.13-12.94,1.85-19.72,19.11-11.71,22.19,3.6,1.38,6.83.15,9.42-1.01,3.16-1.41,5.33-2.71,5.99,1.01.99,5.45-2.39,9.69-1.18,12.11.27.59.84,1.09,1.8,1.45,4.93,1.85,9.86,6.16,8.63,8.01-1.23,1.85-9.86,13.56-22.19,15.41-5.33.79-6.85,3.33-5.74,6.56,1.48,4.29,7.54,9.84,15.61,14.4,14.18,8.01,46.85,43.76,46.85,56.09,0,2.39-.05,6.29-.12,11.05-.37,19.72-1.48,54.05-2.96,55.53-1.85,1.85-9.86,1.85-8.01,6.78,1.85,4.93,11.1,1.85,11.1,11.71,0,6.43-.27,14.45-2.66,20.09-1.31,3.01-3.18,5.35-5.97,6.41-8.01,3.08-155.33,24.66-159.03,22.19-.69-.47-.91-2.64-.94-6.16v-.07c-.02-9.52,1.41-28.8-1.26-51.11-.05-.39-.1-.79-.15-1.21-.1-.64-.17-1.31-.27-1.97-.54-3.9-1.18-7.89-2-11.91-1.75-8.63-4.24-17.48-7.72-26.18-7.32-18.37-18.94-35.92-34.77-50.08-.02,0-.02-.02-.05-.02-19.08-17.14-44.28-29.27-75.45-31.86-8.04-.69-16.49-.72-25.35-.02-1.13.07-2.24.17-3.33.3-1.08.12-2.17.27-3.25.39-31.07,4.22-53.9,20.39-69.75,38.96-.1.1-.17.2-.27.3-6.04,7.1-11.05,14.52-15.14,21.75-.1.2-.22.39-.32.57-7.94,14.23-12.28,27.66-13.54,36.17-.67,4.54-1.11,9.89-1.38,15.63-.07,1.5-.12,3.01-.17,4.56-.2,6.44-.25,13.22-.22,19.75.05,19.11.54,36.29-1.11,37.72-.12.1-1.26.22-3.33.35h-.1c-.67.05-1.41.1-2.24.12-19.38.99-86.25,2.44-166.63,3.87-.64.02-1.31.02-1.95.02-3.77.07-7.54.15-11.32.2-53.23.91-111.4,1.8-165.1,2.54-3.82.07-7.62.1-11.44.15-3.48.07-6.95.1-10.43.12-78.38.99-143.84,1.55-164.65,1.18-1.46-.02-2.71-.05-3.72-.07,0,0-.02,0-.05-.02-1.92-.05-2.98-.15-3.13-.25-.84-.62-1.04-3.38-.96-7.79v-.02c.17-12.97,2.59-40.34-2.32-70.66-.17-1.01-.35-2.05-.54-3.08,0-.05-.02-.1-.02-.17-2.88-15.36-8.58-31.09-17.73-45.32-12.16-18.91-30.43-35.13-56.29-44.26-.1-.05-.22-.07-.32-.1-5.01-1.8-10.31-3.28-15.9-4.46-26.48-5.62-51.58-4.24-73.43,2.24-13.51,3.99-25.79,9.94-36.37,17.36-4.71,3.3-9.1,6.93-13.09,10.77-4.27,4.12-8.11,8.53-11.49,13.17-13.51,18.59-20.34,34.1-23.69,47.39-1.04,4.07-1.73,7.91-2.19,11.59-.86,6.63-.96,12.67-.84,18.29.15,6.48.39,15.16.81,24.04,0,.17.02.37.02.54.35,6.8.76,13.68,1.38,19.75.02.25.05.47.07.72.02.35.05.71.1,1.06.05.37.07.54.07.54,0,.07.02.15.02.22.76,7.03,1.77,12.7,3.08,15.46-.79,1.11-2.07,1.85-3.58,1.9-24.9.99-49.85,1.53-74.81,1.6h-2.93c-15.11-.2-30.8-.47-45.61-.84-2.24-.05-4.46-.1-6.66-.15-4.04-.07-7.99-.17-11.84-.27-.67-.02-1.31-.05-1.97-.05-1.75-.05-3.45-.1-5.15-.15-5.05-.12-9.84-.25-14.3-.37-1.55-.05-3.06-.1-4.51-.12-3.65-.1-7-.2-10.04-.3-.22,0-.42-.02-.64-.02-2.22-.1-4.41-.2-6.63-.32-3.6-.17-5.52-4.07-3.9-6.98.17-.35.39-.69.69-.99Z"/>
          <path class="cls-18" d="M1940.82,684.99c36.98,1.85,65.34,14.18,98.62,8.63,19.6-3.28,30.65-8.68,36.42-12.55.27.59.84,1.09,1.8,1.45,4.93,1.85,9.86,6.16,8.63,8.01-1.23,1.85-9.86,13.56-22.19,15.41-5.33.79-6.85,3.33-5.74,6.56-20.64.27-56.96-3.75-71.92-9.64-17.26-6.78-64.11-8.63-101.71-10.48-37.6-1.85-85.06-2.47-91.84-6.68-6.78-4.22,110.95-2.56,147.94-.72Z"/>
          <path class="cls-18" d="M711.14,920.68l3.33-3.57,9.07-9.74c.84-.89,1.28-2.07,1.26-3.28v-.2l-2.27-40.44-.64-11.66-.2-3.55c-.12-2.32,1.48-4.39,3.75-4.88l93.15-19.48c6.78-1.43,13.54-2.84,20.32-4.26,15.39-3.23,30.99-6.51,45.69-11.93,7.5-2.74,14.74-6.04,21.6-10.16,10.63-6.36,20.02-14.5,29.46-22.56,4.31-3.67,8.63-7.32,13.09-10.77,2.49-1.95,5.03-3.82,7.62-5.6,32.03-21.97,73.82-29.09,111.3-18.96,31.24,8.46,59.03,28.77,77,55.62,2.51,3.77,8.38,2.34,8.68-2.17.52-8.51,2.22-16.94,5.13-24.95.74-2.07,1.55-4.12,2.47-6.14.47-1.01,1.26-1.85,2.24-2.34,19.72-9.76,42.73-10.23,64.82-10.48,84.55-.94,169.12-1.9,253.69-2.84,9.67-.1,19.43-.2,28.9,1.7,6.21,1.23,12.25,3.35,18.44,4.68,48.18,10.5,120.15-27.25,141.33,37.87,5.13,15.78,6.36,32.62,11.61,48.38,1.9,5.65,6.93,11.96,11.96,12.43,2,.17,3.6,1.55,4.12,3.38.15.44.2.91.2,1.41l-.42,18.34-.74,33.56c-.07,2.19-1.63,4.04-3.7,4.51h-.1c-.27.07-.54.1-.81.1-.47.02-.96.02-1.43.02-55.53,1.5-111.08,2.79-166.63,3.87-.64.02-1.31.02-1.95.02-3.77.07-7.54.15-11.32.2-55.03,1.08-110.07,1.92-165.1,2.54-3.82.07-7.62.1-11.44.15-3.48.07-6.95.1-10.43.12-54.88.62-109.77,1.01-164.65,1.18-.91.02-1.8.02-2.71.02-.35,0-.67-.02-1.01-.1,0,0-.02,0-.05-.02-2.19-.47-3.77-2.49-3.67-4.83.07-1.43.15-2.88.2-4.31,1.11-24.36,1.48-49.16-3.48-72.66,0-.05-.02-.1-.02-.17-1.85-8.7-4.44-17.23-7.99-25.49-12.53-29.02-37.21-52.02-66.35-64.18-12.8-5.38-26.46-8.63-40.31-9.42-16.64-.94-33.33,1.68-49.02,7.2-27.12,9.57-51.28,27.91-67.19,51.95-9.69,14.65-16.25,31.14-19.65,48.33-4.12,20.61-3.67,42.19,1.38,62.63.02.22.07.42.15.64v.02c.15.62.3,1.23.47,1.85l-.34.02c.76,7.03,1.77,12.7,3.08,15.46-.79,1.11-2.07,1.85-3.58,1.9-24.9.99-49.85,1.53-74.81,1.6h-2.93c-15.11-.2-30.8-.47-45.61-.84-2.24-.05-4.46-.1-6.66-.15-4.04-.07-7.99-.17-11.84-.27-.67-.02-1.31-.05-1.97-.05-1.75-.05-3.45-.1-5.15-.15-5.05-.12-9.84-.25-14.3-.37-1.55-.05-3.06-.1-4.51-.12-3.65-.1-7-.2-10.04-.3-.22,0-.42-.02-.64-.02-2.22-.1-4.41-.2-6.63-.32-3.6-.17-5.52-4.07-3.9-6.98.17-.35.39-.69.69-.99Z"/>
          <path class="cls-6" d="M1896.44,749.52c47.66,22.19,55.9,64.92,89.58,47.98,33.7-16.94,46.03-3.6,100.47-.32,17.04,1.04,27.64-.52,34.2-3.13-.37,19.72-1.48,54.05-2.96,55.53-1.85,1.85-9.86,1.85-8.01,6.78,1.85,4.93,11.1,1.85,11.1,11.71s-.62,23.42-8.63,26.51c-8.01,3.08-155.33,24.66-159.03,22.19-3.7-2.47,6.16-52.39-12.33-98.62-16.2-40.51-53.23-77.22-110.26-81.96,16.72-2.81,37.9.32,65.88,13.34Z"/>
          <path class="cls-3" d="M1792.6,638.03c45.33,16.53,19.59,26.82-34.24,31.75-53.83,4.93-136.22,6.58-138.07,5.34-1.85-1.23,17.88-74.58,17.88-74.58,3.38-12.74,109.1,20.96,154.44,37.49Z"/>
          <path class="cls-3" d="M1456.32,583.3c69.65-5.57,149.37,1.41,153.28,7.17l-26.3,85.05s-1.64,2.86-84.65,5.55c-83.01,2.69-240.19,10.26-230.95,0,9.25-10.26,118.97-92.2,188.62-97.77Z"/>
          <path class="cls-3" d="M1384.82,581.26c-2.47,5.72-156.57,104.47-165.81,105.03-9.25.55-26.51-11.16-26.51-11.16,0,0,97.04-58.04,177.66-98.98,0,0,17.13-.61,14.66,5.12Z"/>
          <path class="cls-18" d="M1308.27,650.33s-8.11,11.65-10.16,15.35c-2.05,3.7,6.58,4.52,8.63,3.29,2.05-1.23,1.23-8.63,4.93-13.97,3.7-5.34,21.64-20.88,35.34-21.22,13.7-.34,25.07,2.31,25.48,22.04.41,19.72-19.31,26.71-35.75,26.71s-42.74,1.64-47.96-4.11c-5.22-5.75,2.21-15.96,2.21-15.96l17.28-12.13Z"/>
          <path class="cls-12" d="M1798.63,736.84c-31.07,4.22-53.9,20.39-69.75,38.96,19.53-23.35,43.89-35.6,69.75-38.96Z"/>
          <path class="cls-12" d="M1152.34,910.5l540.07-7.91s-8.98-52.27,20.74-104.17c-7.94,14.23-.78,26.27-2.04,34.77-.67,4.54-9.59,13.73-9.86,19.47-1.18,26.01-2.15,57.57-4.52,59.59-2.88,2.47-540.78,10.68-544.09,8.21-3.28-2.47,3.3-37.8-3.28-78.48-2.66-16.37-8.51-33.33-18.29-48.57,35.63,51.33,21.28,117.09,21.28,117.09Z"/>
          <path class="cls-12" d="M1074.4,749c.12.05.25.1.37.15-5.1-1.82-10.5-3.35-16.22-4.56-57.94-12.33-107.28,11.6-132.33,46.12-13.51,18.59-22.39,31.52-25.74,44.81,7.64-46.77,73.35-128.21,173.92-86.52Z"/>
          <path class="cls-12" d="M898.28,889.98c.37,7.47.86,15.04,1.55,21.52-.27-2-1.18-9.39-1.55-21.52Z"/>
          <path class="cls-12" d="M711.31,920.68l177.57-7.91h.02l7.59-.34h.02l3.4-.15c.76,7.03,1.77,12.7,3.08,15.46-.79,1.11-2.07,1.85-3.58,1.9-24.9.99-49.85,1.53-74.81,1.6-16.12-.2-32.87-.49-48.55-.84-2.24-.05-4.46-.1-6.66-.15-4.04-.07-7.99-.17-11.84-.27-.67-.02-1.31-.05-1.97-.05-1.75-.05-3.45-.1-5.15-.15-5.05-.12-9.84-.25-14.3-.37-1.55-.05-3.06-.1-4.51-.12-3.65-.12-7-.22-10.04-.3-.22,0-.42-.02-.64-.02-2.22-.1-4.41-.2-6.63-.32-3.6-.17-5.52-4.07-3.9-6.98l.86-.99Z"/>
          <circle class="cls-3" cx="1822.88" cy="849.78" r="76.02" transform="translate(692.08 2513) rotate(-80.78)"/>
          <circle class="cls-12" cx="1822.88" cy="849.78" r="14.79"/>
          <circle class="cls-3" cx="1015.45" cy="849.78" r="76.02"/>
          <circle class="cls-12" cx="1015.45" cy="849.78" r="14.79"/>
        </g>
        <g>
          <path class="cls-21" d="M419.23,891.05c.22-.67.52-1.36.84-2.05,7.4-16.03,119.58-92.46,182.46-106.02,48.2-10.4,98.3-14.94,147.49-17.21,40.31-1.85,72.83,6.16,106.37-.32,14.2-2.74,28.55-8.09,43.76-17.9,55.85-36,122.37-72.61,188.1-85.38,88.76-17.26,318.06-14.79,451.21,14.79,133.14,29.59,157.8,81.37,212.04,83.83,54.24,2.47,69.04,27.12,73.97,73.97.71,6.78.76,12.72.39,18.07-2.29,31.54-19.38,41.52-.39,73.15,22.19,36.98,17.26,69.04-66.57,81.37-72.49,10.65-109.94,12.11-112.36,4.31,7.62-15.43,11.88-32.79,11.88-51.16,0-64.01-51.88-115.88-115.88-115.88s-115.88,51.88-115.88,115.88c0,19.82,4.98,38.46,13.73,54.79-9.02.81-14.35,1.31-14.35,1.31,0,0-18.49,10.48-35.75,0-17.26-10.48-571.6,0-571.6,0,0,0-37.82,13.76-34.52-2.66.59-2.93-6.36-4.61-18.22-5.37,6.68-14.62,10.4-30.92,10.4-48.05,0-64.01-51.88-115.88-115.88-115.88s-115.88,51.88-115.88,115.88c0,21.99,6.12,42.53,16.74,60.04-7.03.76-11.32,1.28-11.93,1.45-4.81,1.38-25.77-7.25-25.77-7.25,0,0-87.53,12.33-92.46-8.63s3.7-16.03,0-55.48c-3.53-37.72-17.23-45.02-11.93-59.59Z"/>
          <circle class="cls-12" cx="660.47" cy="958.04" r="115.88" transform="translate(-483.99 747.63) rotate(-45)"/>
          <circle class="cls-12" cx="1540.7" cy="958.04" r="115.88" transform="translate(-226.18 1370.04) rotate(-45)"/>
          <circle class="cls-3" cx="660.47" cy="957.63" r="76.02"/>
          <path class="cls-12" d="M660.47,942.83c8.17,0,14.79,6.62,14.79,14.79s-6.62,14.79-14.79,14.79-14.79-6.62-14.79-14.79,6.62-14.79,14.79-14.79Z"/>
          <circle class="cls-3" cx="1540.7" cy="957.63" r="76.02" transform="translate(-250.13 668.26) rotate(-22.68)"/>
          <path class="cls-12" d="M1540.7,942.83c8.17,0,14.79,6.62,14.79,14.79s-6.62,14.79-14.79,14.79-14.79-6.62-14.79-14.79,6.62-14.79,14.79-14.79Z"/>
          <path class="cls-3" d="M1062.36,685.59c48.7-18.49,130.06-17.88,142.39-14.18,12.33,3.7-27.74,98.01-27.74,98.01-5.09,12.36-260.74,17.88-272.45,12.33-11.71-5.55,109.1-77.67,157.8-96.16Z"/>
          <path class="cls-3" d="M1273.18,669.33s116.71,3.52,124.92,10.91c8.22,7.4,4.93,74.79-5.75,81.36-10.68,6.58-159.85,12.74-164.17,9.04-4.31-3.7,8.63-81.36,12.33-92.46,3.7-11.1,32.67-8.86,32.67-8.86Z"/>
          <path class="cls-3" d="M1413.72,684.36s78.9,9.04,95.34,23.01c16.44,13.97-27.94,40.27-63.28,48.49s-46.02,3.29-38.63-5.75c7.4-9.04,6.57-65.75,6.57-65.75Z"/>
          <path class="cls-3" d="M1738.98,759.28s18.25,1.87,40.24,5.57c22,3.71,31.2,20.57,31.2,20.57,0,0-.57,10.7-21.11,16.46-20.55,5.75-110.13.82-118.35-8.22-8.22-9.04,68.02-34.38,68.02-34.38Z"/>
          <path class="cls-3" d="M577.26,802.71c2.5,11.1-13.56,25.27-59.79,46.85-46.23,21.57-55.4,4.09-55.4,4.09,62.34-43.99,107.2-59.86,107.2-59.86,0,0,5.49-2.18,7.99,8.92Z"/>
          <path class="cls-8" d="M419.23,891.05c37.67-6.41,126.98-20.49,125.35-9.44-2.05,13.98,70.27-67.36,154.1-54.64,83.83,12.72,113.42,143.4,136.42,130.65,23.03-12.72-6.56-57.1,9.86-86.69,16.45-29.59,200.55-3.11,256.42-10.6,55.9-7.49,47.04-.72,105.73,0,58.66.74,193.95-72.41,197.79-18.17,3.87,54.24-7.89,3.55,135.78-20.05,143.67-23.6,72.73,84.3,166.43,68.2,53.85-9.25,91.4-28.87,118.74-37.48-2.29,31.54-19.38,41.52-.39,73.15,22.19,36.98,17.26,69.04-66.57,81.37-72.49,10.65-109.94,12.11-112.36,4.31,7.62-15.43,11.88-32.79,11.88-51.16,0-64.01-51.88-115.88-115.88-115.88s-115.88,51.88-115.88,115.88c0,19.82,4.98,38.46,13.73,54.79-9.02.81-14.35,1.31-14.35,1.31,0,0-18.49,10.48-35.75,0-17.26-10.48-571.6,0-571.6,0,0,0-37.82,13.76-34.52-2.66.59-2.93-6.36-4.61-18.22-5.37,6.68-14.62,10.4-30.92,10.4-48.05,0-64.01-51.88-115.88-115.88-115.88s-115.88,51.88-115.88,115.88c0,21.99,6.12,42.53,16.74,60.04-7.03.76-11.32,1.28-11.93,1.45-4.81,1.38-25.77-7.25-25.77-7.25,0,0-87.53,12.33-92.46-8.63s3.7-16.03,0-55.48c-3.53-37.72-17.23-45.02-11.93-59.59Z"/>
        </g>
        <g>
          <path class="cls-12" d="M1368.44,913.33c6.45-1.72,82.69-10.75,108.46,9.9,25.78,20.65,72.24,110.44,72.24,117.18s-45.18,86.76-45.18,86.76c0,0-26.68,6.45-37,0,0,0-33.56,38.29-100.68,43.46-67.12,5.16-117.03-58.34-117.03-58.34,0,0-7.16,14.56-18.21,10.63-11.05-3.93-16.9-92.14,6.03-143.33,22.93-51.19,124.9-64.54,131.36-66.25Z"/>
          <path class="cls-12" d="M526.88,913.33c6.45-1.72,82.69-10.75,108.46,9.9,25.78,20.65,72.24,110.44,72.24,117.18s-45.18,86.76-45.18,86.76c0,0-26.68,6.45-37,0,0,0-33.56,38.29-100.68,43.46-67.12,5.16-117.03-58.34-117.03-58.34,0,0-7.16,14.56-18.21,10.63-11.05-3.93-16.91-92.14,6.03-143.33,22.93-51.19,124.9-64.54,131.36-66.25Z"/>
          <path class="cls-15" d="M206.88,1139.76c-1.16-.05-2.22-.1-3.2-.13.98.05,2.04.08,3.2.13Z"/>
          <path class="cls-15" d="M203.6,1131.27l3.48-3.74c6.66-5.73,12.39-11.77,12.39-11.77,0,0-.77-.23-1.57-1.86-.93-1.91-1.88-5.76-1.65-13.4.41-14.2-3.02-27.49-1.29-28.81.15-.13.36-.23.57-.34,2.04-.95,5.96-1.16,2.87-7-1.42-2.66-2.63-3.95-3.54-5.21-1.32-1.81-2.07-3.61-2.07-9.42,0-.67,0-1.42.03-2.19.18-10.64,2.07-30.46,18.48-41.69,17.63-12.06,8.18-10.33,19.8-17.22,11.62-6.87,43.45-12.44,86.04-44.4,42.59-31.96,53.57-32.6,89.71-38.41,36.14-5.81,138.76-18.72,187.16-19.36,48.4-.65,36.79-7.33,50.34-7.85,13.55-.54,10.97-1.19,16.78-5.71,5.81-4.52,26.46,1.29,26.46,1.29,0,0,168.24-95.95,193.17-107.13,24.96-11.18,63.69-20.65,159.2-15.49,95.51,5.16,233.19,45.61,290.86,63.69,57.64,18.07,115.29,44.74,126.49,43.01,1.01-.15,2.07-.41,3.17-.75,11.05-3.43,26.36-15.54,42.21-21.4,9.96-3.69,14.95-4.65,20.14-5.14h.03c3.85-.39,7.82-.49,14.04-1.32,0,0,9.04,6.45,18.07-5.81,9.04-12.26,39.37-13.55,63.25-13.55s27.11,5.81,20.01,14.84c-6.09,7.74-12.65,15.02-22.98,18.15h-.03s-.05,0-.1.03c-1.65.54-3.41.9-5.29,1.19-13.55,1.94-20.65,20.01-12.26,23.23,3.77,1.45,7.15.15,9.86-1.06,3.3-1.47,5.58-2.84,6.27,1.06,1.03,5.7-2.5,10.15-1.24,12.67.28.62.88,1.14,1.88,1.52,5.16,1.94,10.33,6.45,9.04,8.39-1.29,1.94-10.33,14.2-23.23,16.13-5.58.83-7.18,3.49-6.01,6.87,1.55,4.49,7.9,10.3,16.34,15.08,14.84,8.39,49.05,45.82,49.05,58.73,0,2.5-.05,6.58-.13,11.57-.39,20.65-1.55,56.59-3.1,58.14-1.94,1.94-10.33,1.94-8.39,7.1,1.94,5.16,11.62,1.94,11.62,12.26,0,6.74-.28,15.13-2.79,21.04-1.37,3.15-3.33,5.6-6.25,6.71-8.39,3.23-162.63,25.81-166.51,23.23-.72-.49-.95-2.76-.98-6.45v-.08c-.03-9.96,1.47-30.15-1.32-53.51-.05-.41-.1-.83-.15-1.27-.1-.67-.18-1.37-.28-2.06-.57-4.08-1.24-8.26-2.09-12.47-1.83-9.04-4.44-18.3-8.08-27.42-7.67-19.23-19.83-37.61-36.4-52.43-.03,0-.03-.03-.05-.03-19.98-17.94-46.36-30.64-78.99-33.35-8.42-.72-17.27-.75-26.54-.03-1.19.08-2.35.18-3.48.31-1.14.13-2.27.28-3.41.41-32.53,4.41-56.43,21.35-73.03,40.79-.1.1-.18.21-.28.31-6.32,7.43-11.56,15.2-15.85,22.77-.1.21-.23.41-.34.59-8.31,14.9-12.86,28.96-14.17,37.87-.7,4.75-1.16,10.35-1.45,16.37-.08,1.58-.13,3.15-.18,4.78-.21,6.74-.26,13.84-.23,20.68.05,20.01.57,38-1.16,39.5-.13.1-1.32.23-3.48.36h-.1c-.7.05-1.47.1-2.35.13-20.29,1.03-90.3,2.56-174.46,4.05-.67.03-1.37.03-2.04.03-3.95.08-7.9.15-11.85.21-55.73.96-116.63,1.88-172.86,2.66-4,.08-7.98.1-11.98.15-3.64.08-7.28.1-10.92.13-82.07,1.03-150.6,1.63-172.39,1.24-1.52-.03-2.84-.05-3.9-.08,0,0-.03,0-.05-.03-2.01-.05-3.12-.15-3.28-.26-.88-.65-1.08-3.54-1.01-8.16v-.03c.18-13.58,2.71-42.23-2.43-73.99-.18-1.06-.36-2.14-.57-3.23,0-.05-.03-.1-.03-.18-3.02-16.08-8.98-32.55-18.56-47.45-12.73-19.8-31.86-36.79-58.94-46.34-.1-.05-.23-.08-.34-.1-5.24-1.88-10.79-3.43-16.65-4.67-27.73-5.89-54-4.44-76.88,2.35-14.15,4.18-27,10.4-38.08,18.17-4.93,3.46-9.53,7.25-13.71,11.28-4.47,4.31-8.49,8.93-12.03,13.78-14.15,19.46-21.3,35.7-24.81,49.62-1.08,4.26-1.81,8.29-2.3,12.13-.9,6.94-1.01,13.27-.88,19.15.15,6.79.41,15.88.85,25.17,0,.18.03.39.03.57.36,7.12.8,14.33,1.45,20.68.03.26.05.49.08.75.03.36.05.75.1,1.11.05.39.08.57.08.57,0,.08.03.15.03.23.8,7.36,1.86,13.29,3.23,16.19-.83,1.16-2.17,1.94-3.74,1.99-26.07,1.03-52.2,1.6-78.32,1.68h-3.07c-15.82-.21-32.24-.49-47.76-.88-2.35-.05-4.67-.1-6.97-.15-4.23-.08-8.36-.18-12.39-.28-.7-.03-1.37-.05-2.07-.05-1.83-.05-3.61-.1-5.39-.16-5.29-.13-10.3-.26-14.97-.39-1.63-.05-3.2-.1-4.72-.13-3.82-.1-7.33-.21-10.51-.31-.23,0-.44-.03-.67-.03-2.32-.1-4.62-.21-6.94-.34-3.77-.18-5.78-4.26-4.08-7.31.18-.36.41-.72.72-1.03Z"/>
          <path class="cls-13" d="M1542.82,830.96h.03c23.93.67,5.65,19.34,8.88,23.85,3.15,4.41,79.56-10.77,83.38-11.51-1.65.54-3.41.9-5.29,1.19-13.55,1.94-20.65,20.01-12.26,23.23,3.77,1.45,7.15.15,9.86-1.06-6.94,6.69-62.14,23.65-82.14,18.48-20.01-5.16-10.97-9.04-21.94-16.78-10.95-7.72-27.67-9.04-42.85-10.87,11.05-3.43,26.36-15.54,42.21-21.4,9.96-3.69,14.95-4.65,20.14-5.14Z"/>
          <path class="cls-13" d="M1491.06,884.5c38.72,1.94,68.41,14.84,103.26,9.04,20.52-3.43,32.09-9.09,38.13-13.14.28.62.88,1.14,1.88,1.52,5.16,1.94,10.33,6.45,9.04,8.39-1.29,1.94-10.33,14.2-23.23,16.13-5.58.83-7.18,3.49-6.01,6.87-21.61.28-59.63-3.92-75.3-10.09-18.07-7.1-67.12-9.04-106.49-10.97-39.37-1.94-89.06-2.58-96.16-7-7.1-4.41,116.17-2.69,154.89-.75Z"/>
          <path class="cls-13" d="M203.6,1131.27l3.48-3.74,9.5-10.2c.88-.93,1.34-2.17,1.32-3.43v-.21l-2.38-42.34-.67-12.21-.21-3.72c-.13-2.43,1.55-4.6,3.92-5.11l97.53-20.39c7.1-1.5,14.17-2.97,21.27-4.47,16.11-3.38,32.45-6.82,47.83-12.49,7.85-2.87,15.44-6.33,22.61-10.64,11.13-6.66,20.96-15.18,30.85-23.62,4.52-3.85,9.04-7.67,13.71-11.28,2.61-2.04,5.27-4,7.98-5.86,33.53-23,77.29-30.46,116.53-19.85,32.71,8.85,61.8,30.13,80.62,58.24,2.63,3.95,8.78,2.45,9.09-2.27.54-8.91,2.32-17.73,5.37-26.12.77-2.17,1.63-4.31,2.58-6.43.49-1.06,1.32-1.94,2.35-2.45,20.65-10.22,44.74-10.71,67.87-10.97,88.52-.98,177.06-1.99,265.61-2.97,10.12-.1,20.34-.21,30.26,1.78,6.51,1.29,12.83,3.51,19.31,4.9,50.44,11,125.8-28.53,147.97,39.65,5.37,16.52,6.66,34.15,12.16,50.65,1.99,5.91,7.25,12.52,12.52,13.01,2.09.18,3.77,1.63,4.31,3.54.15.46.21.95.21,1.47l-.44,19.21-.77,35.13c-.08,2.3-1.7,4.23-3.87,4.72h-.1c-.28.08-.57.1-.85.1-.49.03-1.01.03-1.5.03-58.14,1.58-116.3,2.92-174.46,4.05-.67.03-1.37.03-2.04.03-3.95.08-7.9.15-11.85.21-57.62,1.14-115.24,2.01-172.86,2.66-4,.08-7.98.1-11.98.15-3.64.08-7.28.1-10.92.13-57.46.65-114.93,1.06-172.39,1.24-.95.03-1.88.03-2.84.03-.36,0-.7-.03-1.06-.1,0,0-.03,0-.05-.03-2.3-.49-3.95-2.61-3.85-5.06.08-1.5.15-3.02.21-4.52,1.16-25.5,1.55-51.47-3.64-76.08,0-.05-.03-.1-.03-.18-1.94-9.11-4.65-18.04-8.36-26.69-13.11-30.38-38.95-54.47-69.47-67.2-13.4-5.63-27.7-9.04-42.21-9.86-17.43-.98-34.9,1.76-51.32,7.54-28.4,10.02-53.69,29.22-70.35,54.39-10.15,15.33-17.01,32.6-20.57,50.6-4.31,21.58-3.85,44.17,1.45,65.57.03.23.08.44.15.67v.03c.15.65.31,1.29.49,1.94l-.36.03c.8,7.36,1.86,13.29,3.23,16.19-.83,1.16-2.17,1.94-3.74,1.99-26.07,1.03-52.2,1.6-78.32,1.68h-3.07c-15.82-.21-32.24-.49-47.76-.88-2.35-.05-4.67-.1-6.97-.15-4.23-.08-8.36-.18-12.39-.28-.7-.03-1.37-.05-2.07-.05-1.83-.05-3.61-.1-5.39-.16-5.29-.13-10.3-.26-14.97-.39-1.63-.05-3.2-.1-4.72-.13-3.82-.1-7.33-.21-10.51-.31-.23,0-.44-.03-.67-.03-2.32-.1-4.62-.21-6.94-.34-3.77-.18-5.78-4.26-4.08-7.31.18-.36.41-.72.72-1.03Z"/>
          <path class="cls-13" d="M1689.19,990.22l-.21-8.91s2.04,4.23.21,8.91Z"/>
          <path class="cls-13" d="M1444.6,952.06c49.9,23.23,58.52,67.97,93.79,50.24,35.29-17.73,48.2-3.77,105.2-.34,17.84,1.08,28.94-.54,35.8-3.28-.39,20.65-1.55,56.59-3.1,58.14-1.94,1.94-10.33,1.94-8.39,7.1,1.94,5.16,11.62,1.94,11.62,12.26s-.65,24.52-9.03,27.75c-8.39,3.23-162.63,25.81-166.51,23.23-3.87-2.58,6.45-54.86-12.91-103.26-16.96-42.41-55.73-80.85-115.44-85.81,17.5-2.94,39.68.34,68.98,13.97Z"/>
          <path class="cls-3" d="M1335.88,835.34c47.46,17.31,20.52,28.08-35.85,33.25-56.36,5.16-142.63,6.88-144.56,5.59-1.94-1.29,18.72-78.09,18.72-78.09,3.54-13.33,114.23,21.94,161.69,39.25Z"/>
          <path class="cls-3" d="M983.8,778.04c72.93-5.83,156.39,1.47,160.48,7.5l-27.54,89.05s-1.72,3-88.63,5.81c-86.91,2.81-251.48,10.74-241.8,0,9.68-10.74,124.56-96.54,197.48-102.36Z"/>
          <path class="cls-3" d="M908.94,775.9c-2.58,5.99-163.92,109.38-173.61,109.96-9.68.58-27.75-11.68-27.75-11.68,0,0,101.6-60.77,186.01-103.63,0,0,17.93-.63,15.35,5.36Z"/>
          <path class="cls-13" d="M828.79,848.21s-8.49,12.2-10.64,16.07c-2.15,3.87,6.88,4.73,9.04,3.44,2.15-1.29,1.29-9.04,5.16-14.63,3.87-5.59,22.65-21.86,37-22.22,14.35-.36,26.25,2.42,26.68,23.08.43,20.65-20.22,27.97-37.43,27.97s-44.75,1.72-50.21-4.3c-5.47-6.02,2.31-16.7,2.31-16.7l18.1-12.7Z"/>
          <path class="cls-12" d="M1676.72,1097.22c-1.37,3.15-3.33,5.6-6.25,6.71-8.39,3.23-162.63,25.81-166.51,23.23-.72-.49-.95-2.76-.98-6.45l173.71-23.52.03.03Z"/>
          <path class="cls-12" d="M1502.99,1120.63c-.03-9.96,1.47-30.15-1.32-53.51,3.61,28.68,1.47,51.94,1.32,53.51Z"/>
          <path class="cls-12" d="M1499.14,1051.32c-1.83-9.04-4.44-18.3-8.08-27.42-7.67-19.23-19.83-37.61-36.4-52.43,26.31,18.97,38.75,50.57,44.48,79.85Z"/>
          <path class="cls-12" d="M1342.19,938.79c-32.53,4.41-56.43,21.35-73.03,40.79,20.45-24.45,45.95-37.28,73.03-40.79Z"/>
          <path class="cls-12" d="M665.53,1120.61l565.45-8.29s-9.4-54.73,21.71-109.07c-8.31,14.9-.82,27.5-2.13,36.41-.7,4.75-10.04,14.37-10.33,20.39-1.24,27.24-2.25,60.28-4.73,62.4-3.02,2.58-566.2,11.18-569.66,8.6-3.43-2.58,3.46-39.57-3.43-82.17-2.79-17.14-8.91-34.9-19.15-50.86,37.3,53.75,22.28,122.6,22.28,122.6Z"/>
          <path class="cls-12" d="M583.93,951.52c.13.05.26.1.39.15-5.34-1.91-11-3.51-16.99-4.78-60.67-12.91-112.32,12.15-138.55,48.29-14.15,19.46-23.44,33-26.95,46.92,8-48.97,76.8-134.24,182.1-90.58Z"/>
          <path class="cls-12" d="M399.53,1099.13c.39,7.82.9,15.75,1.63,22.54-.28-2.09-1.24-9.84-1.63-22.54Z"/>
          <path class="cls-12" d="M203.78,1131.27l185.92-8.29h.03l7.95-.36h.03l3.56-.15c.8,7.36,1.86,13.29,3.23,16.19-.83,1.16-2.17,1.94-3.74,1.99-26.07,1.03-52.2,1.6-78.32,1.68-16.88-.21-34.41-.52-50.83-.88-2.35-.05-4.67-.1-6.97-.15-4.23-.08-8.36-.18-12.39-.28-.7-.03-1.37-.05-2.07-.05-1.83-.05-3.61-.1-5.39-.16-5.29-.13-10.3-.26-14.97-.39-1.63-.05-3.2-.1-4.72-.13-3.82-.13-7.33-.23-10.51-.31-.23,0-.44-.03-.67-.03-2.32-.1-4.62-.21-6.94-.34-3.77-.18-5.78-4.26-4.08-7.31l.9-1.03Z"/>
          <circle class="cls-3" cx="1367.58" cy="1057.03" r="79.6" transform="translate(-346.88 1276.62) rotate(-45)"/>
          <path class="cls-12" d="M1367.58,1041.54c8.55,0,15.49,6.93,15.49,15.49s-6.93,15.49-15.49,15.49-15.49-6.93-15.49-15.49,6.93-15.49,15.49-15.49Z"/>
          <circle class="cls-3" cx="522.21" cy="1057.03" r="79.6" transform="translate(-654.21 1134.98) rotate(-67.5)"/>
          <path class="cls-12" d="M522.21,1041.54c8.55,0,15.49,6.93,15.49,15.49s-6.93,15.49-15.49,15.49-15.49-6.93-15.49-15.49,6.94-15.49,15.49-15.49Z"/>
        </g>
      </g>
      <g>
        <g>
          <polygon class="cls-14" points="286.88 557.09 333.98 920.7 334.67 926.02 334.64 927.48 326.36 1249.99 256.34 1250.89 238.63 928.7 239.28 935.48 157.37 577.3 286.88 557.09"/>
          <rect class="cls-10" x="174.42" y="223.75" width="35.82" height="62.87"/>
          <path class="cls-9" d="M210.24,261.46v-37.7h-35.82v15.77c12.89,13.43,29.19,19.82,29.19,19.82h0c2.17.78,4.4,1.48,6.63,2.11Z"/>
          <path class="cls-2" d="M85.56,562.33l.24,48.12.11.04s3.99,203.63,18.96,309.01c.98,6.92.85,13.93-.59,20.79-3.45,16.44-9.3,56.42-7.18,132.84,2.95,106.32,9.52,175.23,9.52,175.23l52.31,1.83,29.2-341.65,28.65-341.68-131.22-4.53Z"/>
          <path class="cls-10" d="M249.09,136.95c-5.96-11.14-35.23-25.3-57.13-16.25-21.9,9.05-31.3,26.46-36.62,51.62-2.8,13.26,1.71,29.4,6.61,41.7,10.24,22.29,36.85,32.71,36.85,32.71h0c9.32,3.34,19.48,5.5,27.93,3.75,19.01-15.68,24.67-42.36,26.32-54.72,1.07-13.82,1.14-25.07,1.14-27.3,0,0,.85-20.38-5.11-31.52Z"/>
          <path class="cls-9" d="M254.2,168.47l.04-19.34-77.06-8.36.6,45.43s9.21-28.23,28.44-23.85c32.06,7.31,47.98,6.11,47.98,6.11Z"/>
          <path class="cls-4" d="M172.59,215.87c.31-3.46,1.21-6.81,2.28-10.13,2.03-6.32.32-17.96,8.15-35.83,13.54-30.87,52.16,1.86,80.98-10.21,28.82-12.07,5.07-38.52-9.64-35.74-14.71,2.78-11.98-9.05-26.63-11.14-12.81-1.82-25.34-5.11-49.18,10.68-23.85,15.78-21.86,25.99-21.86,25.99,0,0-28.18,35.21,10.56,82.66,1.42,1.74,4.43.93,4.62-1.25l.71-15.03Z"/>
          <path class="cls-10" d="M179.1,190.97s-2.54-15.03-10.98-11.78c-8.45,3.25-5.91,35.74,5.49,34.81,11.4-.93,5.49-23.03,5.49-23.03Z"/>
          <path class="cls-4" d="M151.72,191.72v11.83s2.73,9.05,1.24,12.07c-1.49,3.02,5.22,2.32,5.96-3.71.75-6.03-7.2-20.19-7.2-20.19Z"/>
          <path class="cls-10" d="M130.91,323.89l-69.51,229.18-29.44-24.57,149.46-63.17c7.54-3.19,16.23.34,19.42,7.88,3.03,7.16-.06,15.39-6.83,18.93l-144.06,74.66c-10.18,5.27-22.7,1.3-27.98-8.88-2.35-4.53-2.86-9.52-1.82-14.13l.35-1.56,53.15-233.52c3.63-15.96,19.51-25.95,35.47-22.32,15.96,3.63,25.95,19.51,22.32,35.47-.15.66-.35,1.38-.54,2.02Z"/>
          <path class="cls-19" d="M290.72,610.48l12.41-254.63c1.44-42.01-16.07-76.72-70.86-80.89l-41.77-4.09s-76.09,3.93-90.52,7.49c-14.43,3.56-27.31,17.62-30.4,66.44-.01.24.02.43,0,.66-.37,3.4-.59,6.84-.46,10.39l16.78,254.63h204.82Z"/>
          <path class="cls-10" d="M184.02,464.85s5.84-18.06,26.99-23.51c21.15-5.45-13.86,13.97-18.6,31.69-4.74,17.72-8.39-8.18-8.39-8.18Z"/>
          <path class="cls-10" d="M187.98,499.81s20.1,5.69,60.19,2.28c0,0,10.78-1.9,9.91-6.07-.86-4.17-23.71-5.69-31.04-5.31-7.33.38,32.33,4.17,41.82-3.79,9.49-7.97-42.25-8.58-49.58-7.14-7.33,1.44,52.59,6.38,57.77-4.63,5.17-11-29.35-6.13-48.28-9.57-18.93-3.44,39.66,3.67,38.8-7.42-.86-11.09-14.66-3.12-53.03-5.78-38.37-2.66-26.57,47.43-26.57,47.43Z"/>
          <path class="cls-10" d="M196.48,501.44s-16.01-1.32-23.4-4.13c-7.39-2.81,3.01-38.08,21.88-45.24,18.88-7.16,1.51,49.37,1.51,49.37Z"/>
          <path class="cls-16" d="M172.26,459.81l-25.96,10.96c2.91,15.49,7.42,39,10.51,55.1l27.2-12.62-11.76-53.44Z"/>
          <path class="cls-17" d="M213.24,266.35c-3.29,1.09-7.57,2.02-13.17,2.64-16.66,1.83-24.4-3.04-28.03-7.86l.63,4.12s-16.55,4.73,9.44,15.85c25.99,11.12,36.11-2.84,36.11-2.84l-2.46-5.72-2.52-6.17Z"/>
          <path class="cls-16" d="M173.63,256.38s-5.56,4.86,26.44,12.61l-14.32,25.13s-16.44-9.99-25.35-21.49l13.22-16.25Z"/>
          <path class="cls-16" d="M199.35,268.81s8.07-.4,11.9-7.35l18.63,13.27s-2.35,8.66-10.83,19.39l-19.69-25.31Z"/>
          <g>
            <path class="cls-10" d="M317.15,1278.03c-3.43-19.73-1.47-46.21-1.47-46.21,0,0-27.38-64.88-44.99,0-4.29,15.82-3.39,33.71-5.49,46.21h51.95Z"/>
            <path class="cls-14" d="M388.05,1310.41c-11.41.61-31.3-3.65-53.38-17.36-6.46-4.01-10.75-10.92-13.61-18.67h0s0,0,0,0h-59.78c-6.52,38.74-4.29,60.7-4.29,60.7h30.32l.98-13.71,3.91,13.71h117.36s4.11-26.04-21.52-24.67Z"/>
          </g>
          <g>
            <path class="cls-10" d="M158.71,1278.03c-3.43-19.73-1.47-46.21-1.47-46.21,0,0-27.38-64.88-44.99,0-4.29,15.82-3.39,33.71-5.49,46.21h51.95Z"/>
            <path class="cls-14" d="M229.61,1310.41c-11.41.61-31.3-3.65-53.38-17.36-6.46-4.01-10.75-10.92-13.61-18.67h0s-59.78,0-59.78,0c-6.52,38.74-4.29,60.7-4.29,60.7h30.32l.98-13.71,3.91,13.71h117.36s4.11-26.04-21.52-24.67Z"/>
          </g>
          <polygon class="cls-24" points="286.88 557.09 333.98 920.7 334.67 926.02 334.64 927.48 326.36 1249.99 256.34 1250.89 238.63 928.7 239.28 935.48 157.37 577.3 286.88 557.09"/>
          <rect class="cls-22" x="174.42" y="223.75" width="35.82" height="62.87"/>
          <path class="cls-9" d="M210.24,261.46v-37.7h-35.82v15.77c12.89,13.43,29.19,19.82,29.19,19.82h0c2.17.78,4.4,1.48,6.63,2.11Z"/>
          <path class="cls-10" d="M382.41,565.7s20.79,3.07,40.49,0c19.7-3.07,83.16,21.47,64.56,32.71-18.6,11.24-67.84,15.49-115.99-10.66-48.15-26.15,10.94-22.06,10.94-22.06Z"/>
          <path class="cls-24" d="M85.56,562.33l.24,48.12.11.04s3.99,203.63,18.96,309.01c.98,6.92.85,13.93-.59,20.79-3.45,16.44-9.3,56.42-7.18,132.84,2.95,106.32,9.52,175.23,9.52,175.23l52.31,1.83,29.2-341.65,28.65-341.68-131.22-4.53Z"/>
          <path class="cls-22" d="M249.09,136.95c-5.96-11.14-35.23-25.3-57.13-16.25-21.9,9.05-31.3,26.46-36.62,51.62-2.8,13.26,1.71,29.4,6.61,41.7,10.24,22.29,36.85,32.71,36.85,32.71h0c9.32,3.34,19.48,5.5,27.93,3.75,19.01-15.68,24.67-42.36,26.32-54.72,1.07-13.82,1.14-25.07,1.14-27.3,0,0,.85-20.38-5.11-31.52Z"/>
          <path class="cls-9" d="M254.2,168.47l.04-19.34-77.06-8.36.6,45.43s9.21-28.23,28.44-23.85c32.06,7.31,47.98,6.11,47.98,6.11Z"/>
          <path class="cls-4" d="M172.59,215.87c.31-3.46,1.21-6.81,2.28-10.13,2.03-6.32.32-17.96,8.15-35.83,13.54-30.87,52.16,1.86,80.98-10.21,28.82-12.07,5.07-38.52-9.64-35.74-14.71,2.78-11.98-9.05-26.63-11.14-12.81-1.82-25.34-5.11-49.18,10.68-23.85,15.78-21.86,25.99-21.86,25.99,0,0-28.18,35.21,10.56,82.66,1.42,1.74,4.43.93,4.62-1.25l.71-15.03Z"/>
          <path class="cls-22" d="M179.1,190.97s-2.54-15.03-10.98-11.78c-8.45,3.25-5.91,35.74,5.49,34.81,11.4-.93,5.49-23.03,5.49-23.03Z"/>
          <path class="cls-4" d="M151.72,191.72v11.83s2.73,9.05,1.24,12.07c-1.49,3.02,5.22,2.32,5.96-3.71.75-6.03-7.2-20.19-7.2-20.19Z"/>
          <path class="cls-10" d="M130.91,323.89l-69.51,229.18-29.44-24.57,149.46-63.17c7.54-3.19,16.23.34,19.42,7.88,3.03,7.16-.06,15.39-6.83,18.93l-144.06,74.66c-10.18,5.27-22.7,1.3-27.98-8.88-2.35-4.53-2.86-9.52-1.82-14.13l.35-1.56,53.15-233.52c3.63-15.96,19.51-25.95,35.47-22.32,15.96,3.63,25.95,19.51,22.32,35.47-.15.66-.35,1.38-.54,2.02Z"/>
          <path class="cls-23" d="M283.3,498.37l9.85-87.11h0s8.13-71.92,2.04-98.19c-5.27-22.74-24.66-29.31-29.78-30.66-5.18-1.31-10.44-2.09-15.48-2.48-21.69-1.68-14.53,14.95-16.34,35.22l-21.14,237.66-.16,1.78c-.56,6.4,1.2,13.02,5.49,18.67,9.68,12.72,28.56,15.7,42.17,6.66l143.47,27.17,9.3-48.74-129.42-59.99Z"/>
          <path class="cls-21" d="M290.72,610.48l12.41-254.63c1.44-42.01-16.07-76.72-70.86-80.89l-41.77-4.09s-76.09,3.93-90.52,7.49c-14.43,3.56-27.31,17.62-30.4,66.44-.01.24.02.43,0,.66-.37,3.4-.59,6.84-.46,10.39l16.78,254.63h204.82Z"/>
          <path class="cls-10" d="M184.02,464.85s5.84-18.06,26.99-23.51c21.15-5.45-13.86,13.97-18.6,31.69-4.74,17.72-8.39-8.18-8.39-8.18Z"/>
          <g>
            <rect class="cls-7" x="208.15" y="344.8" width="163.04" height="230.02"/>
            <rect class="cls-1" x="308.41" y="355.45" width="52.52" height="16.36"/>
            <rect class="cls-1" x="308.41" y="375.19" width="52.52" height="2.75"/>
            <rect class="cls-1" x="308.41" y="379.96" width="52.52" height="2.75"/>
            <rect class="cls-1" x="328.01" y="511.51" width="32.93" height="2.75"/>
            <rect class="cls-1" x="289.67" y="511.51" width="21.57" height="2.75"/>
            <rect class="cls-1" x="328.01" y="517.24" width="32.93" height="2.75"/>
            <rect class="cls-1" x="263.4" y="401.78" width="52.52" height="2.75"/>
            <rect class="cls-1" x="218.77" y="416.01" width="141.79" height="2.75"/>
            <rect class="cls-1" x="218.77" y="422.29" width="141.79" height="2.75"/>
            <rect class="cls-1" x="218.77" y="428.57" width="141.79" height="2.75"/>
            <rect class="cls-1" x="218.77" y="434.85" width="141.79" height="2.75"/>
            <rect class="cls-1" x="218.77" y="441.14" width="141.79" height="2.75"/>
            <rect class="cls-1" x="218.77" y="447.42" width="141.79" height="2.75"/>
            <rect class="cls-1" x="218.77" y="453.7" width="141.79" height="2.75"/>
            <rect class="cls-1" x="218.77" y="459.98" width="141.79" height="2.75"/>
            <rect class="cls-1" x="218.77" y="466.26" width="141.79" height="2.75"/>
            <rect class="cls-1" x="218.77" y="472.54" width="141.79" height="2.75"/>
            <rect class="cls-1" x="218.77" y="478.82" width="141.79" height="2.75"/>
            <rect class="cls-1" x="218.77" y="485.1" width="141.79" height="2.75"/>
          </g>
          <path class="cls-10" d="M187.98,499.81s20.1,5.69,60.19,2.28c0,0,10.78-1.9,9.91-6.07-.86-4.17-23.71-5.69-31.04-5.31-7.33.38,32.33,4.17,41.82-3.79,9.49-7.97-42.25-8.58-49.58-7.14-7.33,1.44,52.59,6.38,57.77-4.63,5.17-11-29.35-6.13-48.28-9.57-18.93-3.44,39.66,3.67,38.8-7.42-.86-11.09-14.66-3.12-53.03-5.78-38.37-2.66-26.57,47.43-26.57,47.43Z"/>
          <path class="cls-10" d="M196.48,501.44s-16.01-1.32-23.4-4.13c-7.39-2.81,3.01-38.08,21.88-45.24,18.88-7.16,1.51,49.37,1.51,49.37Z"/>
          <path class="cls-23" d="M172.26,459.81l-83.46,35.24,36.45-137.15c.23-.77.47-1.65.65-2.45,4.51-19.9,6.17-72.19-15.13-76.4-2.17-.43-4.33-.64-6.48-.73-32.15,1.1-43.91,52.65-53.54,87.86l-39.53,174.58-.4,1.75c-1.42,6.29-.56,13.06,2.95,19.17,7.9,13.75,26.23,18.92,40.95,11.54l129.3-59.98-11.76-53.44Z"/>
          <path class="cls-16" d="M172.26,459.81l-25.96,10.96c2.91,15.49,7.42,39,10.51,55.1l27.2-12.62-11.76-53.44Z"/>
          <path class="cls-17" d="M213.24,266.35c-3.29,1.09-7.57,2.02-13.17,2.64-16.66,1.83-24.4-3.04-28.03-7.86l.63,4.12s-16.55,4.73,9.44,15.85c25.99,11.12,36.11-2.84,36.11-2.84l-2.46-5.72-2.52-6.17Z"/>
          <path class="cls-16" d="M173.63,256.38s-5.56,4.86,26.44,12.61l-14.32,25.13s-16.44-9.99-25.35-21.49l13.22-16.25Z"/>
          <path class="cls-16" d="M199.35,268.81s8.07-.4,11.9-7.35l18.63,13.27s-2.35,8.66-10.83,19.39l-19.69-25.31Z"/>
        </g>
        <g>
          <polygon class="cls-14" points="635.6 557.09 588.5 920.7 587.81 926.02 587.85 927.48 596.13 1249.99 666.15 1250.89 683.86 928.7 683.21 935.48 765.12 577.3 635.6 557.09"/>
          <rect class="cls-10" x="712.24" y="223.75" width="35.82" height="62.87"/>
          <path class="cls-9" d="M712.24,261.46v-37.7h35.82v15.77c-12.89,13.43-29.19,19.82-29.19,19.82h0c-2.17.78-4.4,1.48-6.63,2.11Z"/>
          <path class="cls-10" d="M673.39,136.95c5.96-11.14,35.23-25.3,57.13-16.25,21.9,9.05,31.3,26.46,36.61,51.62,2.8,13.26-1.71,29.4-6.61,41.7-10.24,22.29-36.85,32.71-36.85,32.71h0c-9.32,3.34-19.48,5.5-27.92,3.75-19.01-15.68-24.67-42.36-26.32-54.72-1.07-13.82-1.14-25.07-1.14-27.3,0,0-.85-20.38,5.11-31.52Z"/>
          <path class="cls-9" d="M668.28,168.47l-.04-19.34,77.06-8.36-.6,45.43s-9.21-28.23-28.45-23.85c-32.06,7.31-47.98,6.11-47.98,6.11Z"/>
          <path class="cls-10" d="M743.39,190.97s2.54-15.03,10.98-11.78c8.45,3.25,5.91,35.74-5.49,34.81-11.4-.93-5.49-23.03-5.49-23.03Z"/>
          <path class="cls-4" d="M770.76,191.72v11.83s-2.73,9.05-1.24,12.07c1.49,3.02-5.22,2.32-5.96-3.71-.74-6.03,7.2-20.19,7.2-20.19Z"/>
          <path class="cls-20" d="M631.76,610.48l-12.41-254.63c-1.44-42.01,16.07-76.72,70.86-80.89l41.77-4.09s76.09,3.93,90.52,7.49c14.43,3.56,27.31,17.62,30.4,66.44.02.24-.02.43,0,.66.37,3.4.59,6.84.47,10.39l-16.78,254.63h-204.82Z"/>
          <g>
            <path class="cls-10" d="M605.33,1278.03c3.43-19.73,1.47-46.21,1.47-46.21,0,0,27.38-64.88,44.99,0,4.29,15.82,3.39,33.71,5.49,46.21h-51.95Z"/>
            <path class="cls-6" d="M534.43,1310.41c11.41.61,31.3-3.65,53.38-17.36,6.46-4.01,10.75-10.92,13.61-18.67h0s59.78,0,59.78,0c6.52,38.74,4.29,60.7,4.29,60.7h-30.32l-.98-13.71-3.91,13.71h-117.36s-4.11-26.04,21.52-24.67Z"/>
          </g>
          <g>
            <path class="cls-10" d="M824.16,1276.88c2.15-19.89-1.52-46.21-1.52-46.21,0,0,23.14-66.3,44.91-2.54,5.31,15.55,5.56,33.46,8.47,45.81l-47.95,2.71-3.91.22Z"/>
            <path class="cls-6" d="M755.49,1313.2c11.43-.04,31-5.41,52.16-20.34,6.19-4.37,10.03-11.5,12.38-19.41h0s0,0,0,0l59.67-3.37c9.01,38.31,8.21,60.35,8.21,60.35l-30.26,1.71-1.86-13.63-3.02,13.9-117.15,6.62s-5.79-25.76,19.88-25.84Z"/>
          </g>
          <polygon class="cls-6" points="635.6 557.09 588.5 920.7 587.81 926.02 587.85 927.48 596.13 1249.99 666.15 1250.89 683.86 928.7 683.21 935.48 765.12 577.3 635.6 557.09"/>
          <rect class="cls-22" x="712.24" y="223.75" width="35.82" height="62.87"/>
          <path class="cls-9" d="M712.24,261.46v-37.7h35.82v15.77c-12.89,13.43-29.19,19.82-29.19,19.82h0c-2.17.78-4.4,1.48-6.63,2.11Z"/>
          <path class="cls-10" d="M521,568.53s-20.79,3.07-40.49,0c-19.7-3.07-83.16,21.47-64.56,32.71,18.6,11.24,67.84,15.49,115.99-10.66,48.15-26.15-10.94-22.06-10.94-22.06Z"/>
          <path class="cls-6" d="M827.44,558.35l2.87,48.04-.1.05s32.66,203.48,24.53,309.52c-.54,6.97.05,13.96,1.93,20.72,4.51,16.22,12.93,55.79,15.75,132.19,3.93,106.29,1.83,175.45,1.83,175.45l-52.1,4.78-62.97-339.38-70.25-339.44,138.51-11.92Z"/>
          <path class="cls-22" d="M673.39,136.95c5.96-11.14,35.23-25.3,57.13-16.25,21.9,9.05,31.3,26.46,36.61,51.62,2.8,13.26-1.71,29.4-6.61,41.7-10.24,22.29-36.85,32.71-36.85,32.71h0c-9.32,3.34-19.48,5.5-27.92,3.75-19.01-15.68-24.67-42.36-26.32-54.72-1.07-13.82-1.14-25.07-1.14-27.3,0,0-.85-20.38,5.11-31.52Z"/>
          <path class="cls-9" d="M668.28,168.47l-.04-19.34,77.06-8.36-.6,45.43s-9.21-28.23-28.45-23.85c-32.06,7.31-47.98,6.11-47.98,6.11Z"/>
          <path class="cls-4" d="M749.9,215.87c-.31-3.46-1.21-6.81-2.28-10.13-2.03-6.32-.32-17.96-8.15-35.83-13.54-30.87-29.87-5.82-58.69-17.89-28.82-12.07-16.66-19-1.96-16.22,14.71,2.78,5.15-15.89,19.8-17.98,12.81-1.83,21.46-10.11,45.31,5.67,23.85,15.78,21.86,25.99,21.86,25.99,0,0,28.18,35.21-10.56,82.66-1.42,1.74-4.43.93-4.62-1.25l-.71-15.03Z"/>
          <path class="cls-22" d="M743.39,190.97s2.54-15.03,10.98-11.78c8.45,3.25,5.91,35.74-5.49,34.81-11.4-.93-5.49-23.03-5.49-23.03Z"/>
          <path class="cls-4" d="M770.76,191.72v11.83s-2.73,9.05-1.24,12.07c1.49,3.02-5.22,2.32-5.96-3.71-.74-6.03,7.2-20.19,7.2-20.19Z"/>
          <path class="cls-5" d="M639.25,498.03l-12.67-86.79h0s-10.46-71.66-5.23-98.09c4.53-22.88,23.7-29.99,28.77-31.49,5.14-1.46,10.37-2.38,15.39-2.91,21.63-2.3,15.01,14.53,17.47,34.74l28.84,236.95.22,1.77c.77,6.39-.77,13.05-4.88,18.82-9.26,12.99-28.04,16.5-41.94,7.85l-178.01,30.34-10.87-48.45,162.91-62.74Z"/>
          <path class="cls-24" d="M620.02,636.07l-.67-280.22c-1.44-42.01,16.07-76.72,70.86-80.89l41.77-4.09s76.09,3.93,90.52,7.49c14.43,3.56,27.31,17.62,30.4,66.44.02.24-.02.43,0,.66.37,3.4.59,6.84.47,10.39l-12.87,280.22h-220.47Z"/>
          <path class="cls-10" d="M836.64,311.94c6.18,18.99,11.88,38.12,17.61,57.23,5.61,19.15,11.19,38.3,16.54,57.52,5.49,19.18,10.59,38.46,15.89,57.69l15.29,57.85.06.21c.45,1.71.66,3.52.65,5.21l-.5,50.56c-.37,16.85-.54,33.71-1.13,50.56-.44,16.85-1.1,33.71-1.8,50.56-.83,16.85-1.62,33.7-2.91,50.56-.63,8.18-7.77,14.3-15.94,13.67-7.41-.57-13.13-6.48-13.67-13.67-1.29-16.85-2.09-33.7-2.91-50.56-.71-16.85-1.37-33.71-1.8-50.56-.58-16.85-.75-33.7-1.13-50.56l-.5-50.56.71,5.42-15.38-57.82c-4.93-19.33-10.05-38.6-14.78-57.98-4.87-19.34-9.52-38.75-14.12-58.16-4.49-19.44-9.01-38.88-13.05-58.44-1.9-9.22,4.03-18.23,13.24-20.14,8.59-1.77,17.01,3.26,19.65,11.42Z"/>
          <path class="cls-10" d="M865.28,738.92c-4.68,3.9-14.41,20.1-15.81,34.87-1.15,12.12,7.6,11.79,10.11-7.46.9-3.99,3.21-2.85,3.42-.31,2.91,35.82-8.83,54.89,1.34,55.58,10.17.69,6.52-53.58,9.91-35.93,3.39,17.65-4.24,49.56,5.78,44.61,2.91-1.44,4.52-7.18,5.33-14.43,1.2,6.18,2.93,9.66,5.35,6.65,3.04-3.79,4.08-12.62,4.25-21.01.87,5.71,2.18,10.49,3.96,10.85,3.84.76,5.44-9.33,5.44-9.33,1.64-23.41.13-39.51-1.24-48.29h0s-3.05-15.49-5.72-22.36c-2.41-6.2-22.32-8.01-32.11,6.55Z"/>
          <path class="cls-5" d="M801.87,275.77s29.01-1.94,44.99,18.35c19.37,24.61,50.2,191.39,50.2,191.39,0,0,9.13,46.69,11.08,68.42,1.96,21.73-5.87,181.94-5.87,181.94,0,0-21.71,3.01-45.64-3.65,0,0,7.82-166.3,3.26-187.62-4.56-21.32-80.85-214.19-58.03-268.83Z"/>
          <path class="cls-22" d="M702.79,273.73s-8.31,37.96,18.59,45.04c26.9,7.08,35.44-46.47,35.44-46.47,0,0-25.43-4.33-54.03,1.43Z"/>
          <path class="cls-4" d="M671.8,208.29s4.25-.3,12.08,0c7.82.3,19,.27,22.9-.13,7.29-.75,29.39-3.01,36.66-27.18,7.27-24.17,1.27,5.22,1.27,5.22,0,0-1.5,25.74-1.17,32.74.33,7.01.6,15.95-4.51,19.26-5.11,3.31-31.35,17.59-44.07,14.55-12.71-3.05-23.5-37.76-23.16-44.47Z"/>
          <path class="cls-4" d="M768.24,153.21c-14.94-30.43-34.11-39.65-47.79-41.97-7.43-1.26-15.07-.26-22.14,2.22-6.97,2.45-20.27,6.22-30.07,3.53-13.87-3.8-26.09,9.45-21.2,14.7,4.89,5.25-5.37,13.25-1.1,20.1,4.28,6.85,14.12,13.25,26.19,8.68,12.07-4.57,8.41,1.94,17.7,1.54,9.29-.4,24.02.17,31.94-5.6,7.35-5.35-8.8-30.11-11.16-33.64l7.52,1.75s76.27,81.93,50.12,28.68Z"/>
        </g>
      </g>
    </g>
  </g>
</svg>