<?xml version="1.0" encoding="UTF-8"?>
<svg id="_Layer_" data-name="&amp;lt;Layer&amp;gt;" xmlns="http://www.w3.org/2000/svg" viewBox="0 0 1556.21 1556.21">
  <path d="M1107.31,1051.88c-4.14,0-7.79-2.97-8.53-7.18l-100.84-582.05c-.81-4.71,2.35-9.19,7.06-10.02,4.62-.73,9.19,2.33,10.02,7.06l100.84,582.05c.81,4.71-2.35,9.19-7.06,10.01-.5.08-.99.12-1.49.12Z"/>
  <path d="M700.95,1101.07c-.16,0-.32,0-.49-.01-7.96-.26-14.21-6.92-13.95-14.9,3.11-95.88,47.08-146.99,83.4-172.97,44.85-32.09,105.06-43.29,153.36-28.52,38.58,11.84,74.36,37.33,103.47,73.7,23.68,29.59,42.97,65.85,55.78,104.87,2.49,7.57-1.64,15.73-9.21,18.21-7.57,2.53-15.73-1.65-18.21-9.21-11.75-35.76-29.35-68.9-50.89-95.82-25.48-31.84-56.39-54.01-89.39-64.14-39.98-12.25-90.3-2.65-128.1,24.39-31.04,22.21-68.62,66.33-71.36,150.44-.25,7.8-6.66,13.96-14.41,13.96Z"/>
  <path d="M849.53,903.22c-33.92,0-66.71-11.06-95.15-32.86-47.46-36.38-73.62-96.47-65.11-149.52,7.44-46.43,39.68-81.9,90.78-99.91,80.56-35.08,156.14,11.37,189.24,75.55,30.69,59.52,28.61,144.52-48.47,190.48-.49.29-.98.55-1.49.78-23.1,10.37-46.7,15.48-69.79,15.48ZM836.62,637.6c-14.49,0-29.75,3.07-45.48,9.99-.34.15-.69.28-1.05.41-41.51,14.5-66.52,41.27-72.33,77.41-6.87,42.88,14.9,91.92,54.18,122.03,22.88,17.55,70.77,42.65,134.79,14.3,60.7-36.7,62.31-102.72,36.88-152.03-20.05-38.9-59.35-72.11-106.99-72.11ZM785.33,634.37h.11-.11Z"/>
  <path d="M874.95,965.93h-.14c-11.23-.05-22.24-4.73-33.65-14.31-13.09-11.01-23.65-25.11-30.51-40.76-3.2-7.3.12-15.81,7.42-19.01,7.3-3.26,15.82.12,19.02,7.42,5.1,11.62,12.92,22.08,22.65,30.25,5.95,5,10.74,7.53,15.23,7.54,5.41,0,11.66-4.86,15.2-11.83,4.31-8.48,5.45-19.43,6.54-30.03.81-7.93,7.84-13.79,15.85-12.87,7.93.81,13.69,7.91,12.87,15.85-1.3,12.6-2.77,26.88-9.52,40.14-8.54,16.79-24.6,27.62-40.95,27.62Z"/>
  <path d="M849.42,1100.13c-.68,0-1.36-.05-2.05-.15-7.89-1.12-13.39-8.44-12.26-16.32l19.33-135.69c1.13-7.89,8.44-13.44,16.32-12.26,7.89,1.12,13.39,8.44,12.26,16.32l-19.33,135.69c-1.03,7.21-7.2,12.41-14.27,12.41Z"/>
  <path d="M942.27,1091.76c-5.83,0-11.31-3.55-13.5-9.33l-50.38-133.03c-2.82-7.45.94-15.79,8.39-18.61,7.42-2.86,15.78.93,18.61,8.39l50.38,133.03c2.82,7.45-.94,15.79-8.39,18.61-1.68.64-3.41.94-5.11.94Z"/>
  <path d="M902.66,748.03c-61.64,0-122.82-15.9-176.82-46.5-6.94-3.94-9.37-12.74-5.45-19.68,3.94-6.95,12.76-9.39,19.68-5.45,65.42,37.08,142.34,50.67,216.5,38.29,7.96-1.16,15.3,4,16.62,11.86,1.31,7.86-4,15.3-11.86,16.62-19.46,3.25-39.09,4.85-58.67,4.85Z"/>
  <path d="M1161.37,1211.74c-3.05,0-6.1-.96-8.72-2.93-6.35-4.83-7.59-13.87-2.77-20.23,7.76-10.22,9.65-27.55,5.64-51.51l-126.33-752.76c-5.2-31.64-9.53-51.62-32.31-63.34-18.53-9.52-47.71-6.5-73.44-3.85-8.38.87-16.39,1.69-23.66,2.08l-179.61,9.59c-15.55.83-31.14,1.56-46.72,2.27-30.4,1.4-61.84,2.85-92.55,5.15-22.07,1.66-35.92,10.35-41.14,25.85-2.55,7.56-10.75,11.61-18.29,9.07-7.56-2.55-11.62-10.74-9.07-18.29,9.02-26.75,32.58-42.88,66.34-45.41,31.14-2.35,62.79-3.8,93.38-5.21,15.52-.71,31.03-1.43,46.52-2.26l179.61-9.59c6.83-.36,14.35-1.15,22.22-1.96,29.75-3.09,63.45-6.58,89.63,6.89,36.86,18.96,42.56,53.69,47.59,84.33l20.62,122.96,105.69,629.7c5.47,32.57,1.84,56.7-11.1,73.75-2.84,3.75-7.15,5.71-11.51,5.71Z"/>
  <path d="M1150.12,338.77c-.72,0-1.45-.06-2.19-.17l-52.51-7.98c-7.88-1.2-13.31-8.56-12.1-16.43,1.2-7.88,8.62-13.29,16.43-12.1l52.51,7.98c7.88,1.2,13.31,8.56,12.1,16.43-1.08,7.15-7.24,12.27-14.24,12.27Z"/>
  <path d="M1052.82,274.58c-2.32,0-4.68-.56-6.87-1.75-7.01-3.8-9.61-12.56-5.81-19.57,9.3-17.15,22.67-32.15,38.63-43.38,6.54-4.6,15.54-3.01,20.11,3.51,4.59,6.52,3.01,15.53-3.51,20.11-12.34,8.67-22.66,20.27-29.85,33.52-2.62,4.83-7.58,7.56-12.7,7.56Z"/>
  <path d="M995.89,248.9c-.32,0-.63-.01-.95-.03-7.96-.52-13.98-7.39-13.47-15.34l3.91-59.81c.52-7.95,7.3-14.02,15.35-13.45,7.95.52,13.98,7.39,13.45,15.35l-3.91,59.79c-.5,7.64-6.85,13.5-14.39,13.5Z"/>
  <path d="M668.13,1224.47c-4.39,0-8.72-1.99-11.55-5.76-7.43-9.88-12.26-21.24-14.36-33.76l-92.4-550.56c-4.48-26.66-9.38-53.37-14.3-80.11-9.73-53-19.79-107.8-26.34-162.07-1.75-14.63-.68-27.87,3.2-39.38,2.54-7.54,10.68-11.63,18.29-9.07,7.56,2.55,11.62,10.74,9.07,18.29-2.49,7.4-3.14,16.39-1.89,26.72,6.43,53.38,16.41,107.73,26.06,160.3,4.94,26.88,9.88,53.73,14.37,80.54l92.4,550.56c1.33,7.92,4.35,15.04,8.97,21.19,4.79,6.37,3.51,15.43-2.86,20.21-2.59,1.95-5.64,2.9-8.66,2.9Z"/>
  <path d="M608.36,1290.17c-4.39,0-8.73-2-11.56-5.77-7.43-9.9-12.26-21.26-14.35-33.74l-92.39-550.56c-4.47-26.57-9.35-53.18-14.24-79.82-9.76-53.1-19.84-107.99-26.39-162.36l-.2-1.68c-1.69-13.84-3.6-29.52,5.5-41.72,19.85-26.61,73.45-83.81,75.72-86.23,5.46-5.81,14.61-6.09,20.41-.65,5.81,5.46,6.1,14.59.65,20.41-.55.58-54.77,58.43-73.65,83.74-2.19,2.93-.86,13.78.01,20.96l.21,1.73c6.44,53.48,16.44,107.93,26.11,160.59,4.93,26.79,9.85,53.55,14.32,80.26l92.39,550.56c1.33,7.89,4.34,15.03,8.98,21.2,4.78,6.38,3.5,15.43-2.89,20.21-2.59,1.95-5.64,2.89-8.65,2.89Z"/>
  <path d="M683.92,1317.74c-6.23,0-12.43-.06-18.63-.16-27.63-.47-53.23-12.88-68.48-33.19-4.78-6.37-3.5-15.43,2.89-20.21,6.37-4.8,15.41-3.49,20.21,2.89,9.94,13.24,27.08,21.33,45.88,21.64,64.63,1.08,131.7-4.03,196.47-8.99,32.36-2.47,65.81-5.04,98.49-6.78,11.46-.61,23.1-.9,34.81-1.2,22.65-.55,46.06-1.14,67.92-4.22,12.91-1.84,20.03-7.96,28.26-15.06,6.08-5.23,13.29-12.51,20.53-20.3-18.74,1.82-37.77,2.29-56.29,2.75-11.41.28-22.77.56-33.94,1.15-32.35,1.73-65.62,4.27-97.79,6.74-65.44,5-133.08,10.15-199.2,9.07-27.62-.47-53.21-12.87-68.47-33.18-4.78-6.38-3.5-15.43,2.88-20.22,6.39-4.79,15.43-3.51,20.22,2.88,9.94,13.24,27.08,21.34,45.87,21.65,64.64,1.07,131.72-4.03,196.49-8.99,32.35-2.47,65.79-5.04,98.47-6.78,11.44-.61,23.06-.9,34.76-1.18,22.66-.56,46.08-1.15,67.96-4.24,11.59-1.64,19.93-5.47,25.4-11.71.94-1.15,1.47-1.8,1.51-1.86,4.95-6.14,13.91-7.18,20.14-2.34,6.21,4.86,7.39,13.82,2.62,20.11-.69.89-1.4,1.77-2.12,2.63-8,9.82-39.12,47.56-59.72,65.28-10.17,8.76-22.24,19.16-43.53,22.17-23.53,3.33-47.79,3.93-71.26,4.51-11.43.28-22.79.55-33.98,1.15-32.35,1.73-65.63,4.27-97.82,6.74-59.29,4.54-120.42,9.23-180.54,9.23Z"/>
  <path d="M655.6,1115.67c-7.62,0-14-5.97-14.4-13.67-.43-7.96,5.68-14.76,13.65-15.18l498.25-26.58c7.84-.41,14.76,5.68,15.18,13.65.43,7.96-5.68,14.76-13.65,15.18l-498.25,26.58c-.26.01-.52.02-.78.02Z"/>
  <path d="M545.18,457.76c-7.62,0-14-5.97-14.4-13.67-.43-7.96,5.68-14.76,13.65-15.18l498.25-26.58c7.88-.26,14.76,5.67,15.18,13.65.43,7.96-5.68,14.76-13.65,15.18l-498.25,26.58c-.26.01-.52.02-.78.02Z"/>
  <path d="M929.26,1194.76c-14.38,0-27.5-6.97-35.54-19.04-8-12.01-9.43-26.5-3.74-37.84,3.18-6.34,11.53-17.14,31.66-18.21h0c26.53-1.43,44.23,19.33,45.46,39.34,1.01,16.47-9.34,33.88-34.73,35.64-1.04.08-2.09.11-3.11.11ZM922.56,1136.97c-5.98.32-13.79,2.09-17.1,8.68-2.87,5.7-1.81,13.73,2.68,20.46,2.46,3.7,9.6,12.16,23.03,11.26,12.46-.87,19.25-7.17,18.63-17.3-.72-11.77-11.85-24.1-27.25-23.1h0Z"/>
  <path d="M1048.1,1292.03c-1.55,0-3.11-.42-4.53-1.29-4.07-2.52-5.33-7.85-2.83-11.92,11.75-19.06,25.01-37.46,39.43-54.67,3.08-3.65,8.54-4.14,12.2-1.08,3.66,3.07,4.15,8.54,1.08,12.2-13.88,16.57-26.65,34.29-37.96,52.64-1.64,2.65-4.48,4.12-7.39,4.12Z"/>
  <path d="M1012.93,1287.13c-2.18,0-4.35-.81-6.03-2.45-3.44-3.34-3.51-8.82-.18-12.25,14.24-14.65,26.79-31.01,37.27-48.63,2.45-4.11,7.76-5.45,11.88-3.01,4.11,2.45,5.46,7.76,3.01,11.88-11.18,18.78-24.55,36.23-39.73,51.84-1.7,1.75-3.96,2.63-6.21,2.63Z"/>
  <path d="M973.77,1293.43c-1.58,0-3.18-.43-4.61-1.33-4.05-2.56-5.26-7.91-2.71-11.96l36.94-58.58c2.55-4.04,7.92-5.26,11.95-2.71,4.04,2.56,5.26,7.91,2.71,11.95l-36.94,58.58c-1.65,2.61-4.47,4.04-7.34,4.04Z"/>
  <path d="M927.17,1291.21c-1.43,0-2.89-.36-4.23-1.12-4.17-2.33-5.65-7.62-3.32-11.79l28.06-49.92c2.35-4.16,7.62-5.62,11.8-3.32,4.17,2.35,5.65,7.62,3.32,11.8l-28.06,49.92c-1.59,2.83-4.53,4.42-7.57,4.42Z"/>
  <path d="M883.8,1297.38c-1.57,0-3.17-.43-4.6-1.33-4.05-2.55-5.27-7.89-2.72-11.94l33.27-52.88c2.55-4.04,7.87-5.28,11.94-2.72,4.05,2.55,5.27,7.89,2.72,11.94l-33.27,52.88c-1.65,2.62-4.45,4.05-7.34,4.05Z"/>
  <path d="M837.85,1298.65c-1.61,0-3.24-.45-4.7-1.39-4.02-2.61-5.15-7.97-2.56-11.99l32.37-49.95c2.61-4,7.96-5.17,11.98-2.55,4.02,2.59,5.15,7.96,2.55,11.98l-32.35,49.95c-1.66,2.55-4.44,3.95-7.29,3.95Z"/>
  <path d="M786.94,1307.59c-1.6,0-3.23-.45-4.68-1.38-4.03-2.59-5.18-7.95-2.59-11.98l36.98-57.37c2.6-4.02,7.94-5.18,11.98-2.59,4.03,2.59,5.18,7.96,2.59,11.98l-36.98,57.37c-1.66,2.57-4.44,3.97-7.3,3.97Z"/>
  <path d="M746.6,1307.68c-1.6,0-3.24-.45-4.68-1.39-4.03-2.59-5.18-7.95-2.58-11.97l32.58-50.49c2.57-4.03,7.96-5.19,11.97-2.58,4.03,2.6,5.18,7.95,2.58,11.97l-32.58,50.49c-1.66,2.57-4.44,3.97-7.29,3.97Z"/>
  <path d="M693.48,1308.89c-1.69,0-3.39-.5-4.89-1.52-3.95-2.72-4.94-8.11-2.23-12.05l39.41-57.28c2.72-3.95,8.1-4.94,12.05-2.23,3.95,2.72,4.94,8.11,2.23,12.04l-39.41,57.28c-1.68,2.45-4.39,3.76-7.15,3.76Z"/>
  <path d="M647.89,1307.31c-1.61,0-3.25-.45-4.7-1.4-4.01-2.61-5.15-7.97-2.55-11.98l46.2-71.12c2.59-4.02,7.95-5.17,11.98-2.55,4.02,2.6,5.15,7.97,2.55,11.98l-46.2,71.12c-1.66,2.56-4.43,3.95-7.27,3.95Z"/>
  <path d="M613.01,1287.04c-1.67,0-3.36-.49-4.85-1.49-3.96-2.68-5-8.08-2.31-12.03l53.83-79.44c2.69-3.97,8.05-4.99,12.03-2.31,3.96,2.68,5,8.08,2.31,12.03l-53.83,79.44c-1.68,2.47-4.41,3.8-7.18,3.8Z"/>
  <path d="M598.72,1240.06c-1.61,0-3.24-.45-4.69-1.39-4.02-2.59-5.17-7.96-2.57-11.98l48.51-75.03c2.61-4.01,7.95-5.16,11.98-2.57,4.02,2.59,5.17,7.96,2.57,11.98l-48.51,75.03c-1.66,2.56-4.44,3.96-7.29,3.96Z"/>
  <path d="M588.23,1172.66c-1.8,0-3.63-.56-5.19-1.74-3.82-2.86-4.6-8.29-1.73-12.12l52.33-69.77c2.87-3.82,8.29-4.62,12.12-1.73,3.82,2.86,4.6,8.3,1.73,12.12l-52.33,69.77c-1.69,2.27-4.3,3.46-6.94,3.46Z"/>
  <path d="M581.96,1111.41c-1.83,0-3.67-.58-5.23-1.77-3.8-2.89-4.54-8.32-1.65-12.14l48.11-63.34c2.89-3.8,8.33-4.56,12.13-1.67,3.81,2.9,4.56,8.33,1.67,12.14l-48.14,63.36c-1.7,2.24-4.29,3.42-6.9,3.42Z"/>
  <path d="M572.34,1063.35c-2.01,0-4.01-.69-5.65-2.1-3.63-3.12-4.04-8.59-.91-12.21l48.34-56.1c3.14-3.65,8.61-4.03,12.21-.91,3.63,3.12,4.04,8.59.91,12.21l-48.34,56.1c-1.71,2-4.14,3.01-6.56,3.01Z"/>
  <path d="M560.93,1009.45c-1.61,0-3.24-.45-4.69-1.39-4.01-2.59-5.17-7.96-2.57-11.98l43.55-67.35c2.59-4.02,7.95-5.15,11.98-2.57,4.01,2.6,5.16,7.96,2.57,11.98l-43.55,67.35c-1.66,2.56-4.44,3.96-7.29,3.96Z"/>
  <path d="M555.84,951.01c-2,0-3.99-.68-5.63-2.08-3.63-3.1-4.06-8.57-.96-12.21,18.51-21.68,35.18-45.16,49.57-69.81,2.39-4.14,7.68-5.54,11.84-3.11,4.13,2.4,5.53,7.71,3.11,11.84-14.9,25.53-32.18,49.87-51.35,72.34-1.71,2.01-4.14,3.03-6.59,3.03Z"/>
  <path d="M544.09,897.52c-1.77,0-3.55-.54-5.09-1.66-3.87-2.82-4.71-8.24-1.91-12.1l47.99-65.82c2.83-3.89,8.24-4.71,12.1-1.91,3.87,2.82,4.71,8.24,1.91,12.1l-47.99,65.82c-1.7,2.33-4.34,3.56-7.01,3.56Z"/>
  <path d="M538.32,840.96c-2.04,0-4.09-.72-5.74-2.18-3.59-3.17-3.91-8.65-.75-12.23,15.35-17.33,28.03-36.78,37.69-57.79,2.02-4.34,7.17-6.24,11.49-4.25,4.34,2.01,6.25,7.15,4.25,11.49-10.38,22.56-24,43.43-40.47,62.03-1.72,1.94-4.09,2.92-6.49,2.92Z"/>
  <path d="M519.82,781.76c-1.82,0-3.65-.58-5.21-1.75-3.82-2.89-4.57-8.32-1.69-12.13l47.39-62.69c2.88-3.82,8.32-4.57,12.13-1.69,3.81,2.89,4.57,8.32,1.69,12.14l-47.39,62.69c-1.7,2.26-4.3,3.44-6.92,3.44Z"/>
  <path d="M518.22,717.99c-1.61,0-3.24-.45-4.69-1.39-4.02-2.59-5.17-7.96-2.57-11.98,14.11-21.83,26.9-44.82,38.01-68.3,2.04-4.33,7.22-6.17,11.53-4.13,4.33,2.04,6.18,7.21,4.13,11.53-11.43,24.18-24.59,47.83-39.11,70.31-1.66,2.56-4.44,3.96-7.29,3.96Z"/>
  <path d="M504.41,657.64c-1.65,0-3.32-.47-4.78-1.46-3.98-2.64-5.06-8.02-2.41-12l41.42-62.32c2.65-3.99,8.02-5.09,12.01-2.42,3.98,2.65,5.06,8.03,2.43,12.01l-41.45,62.32c-1.66,2.52-4.41,3.87-7.22,3.87Z"/>
  <path d="M486.76,601.78c-2.03,0-4.07-.71-5.71-2.16-3.6-3.15-3.96-8.62-.8-12.21,19.68-22.45,35.89-47.67,48.18-74.94,1.97-4.37,7.12-6.28,11.45-4.33,4.36,1.96,6.3,7.09,4.34,11.45-12.99,28.84-30.14,55.5-50.96,79.24-1.7,1.95-4.11,2.96-6.51,2.96Z"/>
  <path d="M476.43,542.94c-1.11,0-2.22-.21-3.29-.64-3.8-1.57-5.98-5.58-5.22-9.62l.52-2.76c.5-2.84,2.32-5.11,4.73-6.28,15.1-22.4,30.28-44.73,45.56-67,2.68-3.94,8.09-4.96,12.03-2.24,3.95,2.7,4.95,8.09,2.24,12.03-16.56,24.17-33.02,48.41-49.39,72.7-1.65,2.45-4.38,3.82-7.18,3.82Z"/>
  <path d="M474.25,484.36c-1.48,0-2.99-.38-4.35-1.18-4.14-2.41-5.53-7.71-3.11-11.84,12.07-20.66,26.58-39.88,43.12-57.11,3.3-3.45,8.79-3.58,12.25-.25,3.45,3.32,3.56,8.8.25,12.25-15.6,16.25-29.27,34.36-40.66,53.84-1.61,2.76-4.51,4.3-7.49,4.3Z"/>
</svg>