<?xml version="1.0" encoding="UTF-8"?>
<svg id="_Layer_" data-name="&amp;lt;Layer&amp;gt;" xmlns="http://www.w3.org/2000/svg" xmlns:xlink="http://www.w3.org/1999/xlink" viewBox="0 0 1394.53 1556.21">
  <defs>
    <style>
      .cls-1 {
        fill: none;
      }

      .cls-1, .cls-2, .cls-3 {
        stroke: #43c4db;
        stroke-miterlimit: 10;
      }

      .cls-2 {
        fill: #43c4db;
      }

      .cls-4 {
        clip-path: url(#clippath-1);
      }

      .cls-3 {
        fill: #fff;
      }

      .cls-5 {
        clip-path: url(#clippath-3);
      }

      .cls-6 {
        clip-path: url(#clippath-2);
      }

      .cls-7 {
        clip-path: url(#clippath);
      }
    </style>
    <clipPath id="clippath">
      <path class="cls-1" d="M705.6,745.75c-1.91-15.5-233.64-42.2-243.18-34.15-9.54,8.05-20.31,159.45-18.53,165.95,1.78,6.51,233.91,38.41,240.86,35.22,6.96-3.2,22.27-155.47,20.85-167.02Z"/>
    </clipPath>
    <clipPath id="clippath-1">
      <path class="cls-1" d="M493.91,476.35c27.55-2.37,225.99,21.04,233.31,33.83,7.32,12.79,1.08,154.5-9.04,165.96-10.12,11.45-250.12-8.38-252.92-24.14s14.64-174.44,28.65-175.65Z"/>
    </clipPath>
    <clipPath id="clippath-2">
      <path class="cls-1" d="M801.93,515.03c-5.8-.02-27.47,161.88-13.53,172.08,13.94,10.2,215.21,36.51,222.54,27.96,7.33-8.55,23.33-160.62,10.97-168.6-12.36-7.98-196.48-31.38-219.98-31.45Z"/>
    </clipPath>
    <clipPath id="clippath-3">
      <path class="cls-1" d="M782.3,742.63c3.5-12.91,215.35,17.39,221.36,24.56,6.01,7.17-11.89,162.42-15.25,170.5s-199.69-13.22-214.81-21.58c-15.12-8.36,4.24-157.03,8.7-173.49Z"/>
    </clipPath>
  </defs>
  <path class="cls-3" d="M544.02,1191.83l1.85,12.51s-108.45,11.94-99.26,21.91c9.19,9.98,449.65,57.71,449.07,48.87-.58-8.84-82.23-40.66-82.23-40.66l-269.43-42.64Z"/>
  <path class="cls-2" d="M886.75,1278.58c-34.24,0-148.51-11.43-218.48-19.09-57.13-6.25-110.49-12.66-150.24-18.05-69.41-9.42-71.97-12.19-73.21-13.53-1.15-1.25-1.49-2.81-.94-4.28.89-2.37,2.74-7.31,53.11-15.22,19.69-3.09,39.29-5.43,46.1-6.22l-1.48-10.01c-.11-.77.15-1.55.7-2.09.55-.55,1.33-.8,2.1-.68l269.43,42.64c.17.03.34.07.51.14.2.08,20.7,8.08,40.99,17.06,42.32,18.72,42.62,23.27,42.78,25.72.03.46-.02,2.04-1.91,2.85-1.22.53-4.5.76-9.46.77ZM448.95,1224.82c10.5,4.54,102.27,16.98,221.71,30.01,112.77,12.31,204.1,20.05,221.16,18.86-7.82-6.86-44.4-23.36-79.01-36.86l-265.88-42.07,1.36,9.22c.1.66-.08,1.32-.48,1.85-.41.53-1.01.86-1.67.94-43.89,4.83-91,12.76-97.19,18.05ZM448.26,1224.46h0Z"/>
  <path class="cls-3" d="M610.26,1046.41c-17.55,13.45-79.06,160.66-75.62,161.12,17.31,2.29,283.59,41.59,280.01,28.85-3.57-12.74-23.95-176.62-37.5-180.16-13.55-3.54-166.9-9.81-166.9-9.81Z"/>
  <path class="cls-2" d="M801.92,1241.36c-22.92,0-84.39-5.38-254.36-29.54-6.79-.97-11.41-1.62-13.24-1.86-1.03-.14-1.88-.89-2.16-1.93-1.33-4.96,24.13-63.61,31.02-79.05,12.56-28.13,35.18-76.52,45.59-84.5.45-.35,1.01-.53,1.59-.5,6.27.26,153.77,6.31,167.42,9.88,4.17,1.09,9.28,8.6,18.39,55.73,5.68,29.4,11.11,65,15.08,91,2.72,17.85,4.87,31.95,5.76,35.14.31,1.1.05,2.23-.71,3.1-.9,1.03-2.23,2.54-14.38,2.54ZM537.35,1205.43c2.42.34,6.13.86,10.9,1.54,210.67,29.95,256.43,31.22,263.75,28.83-1.07-4.82-3-17.52-5.59-34.48-3.9-25.59-9.24-60.64-14.84-89.74-9-46.85-13.82-52.43-15.09-53.02-10.4-2.72-112.17-7.49-165.39-9.67-16.95,15.18-68.7,139.04-73.75,156.54Z"/>
  <path class="cls-3" d="M217.14,1048.74c54.92,16.78,880.69,97.19,914.67,105.18,33.98,8,58.55,7.74,62.42-21.53,3.87-29.27,84.12-649.39,77.46-652.03-6.66-2.63-942.82-119.99-963.89-121.62-21.39-1.66-27.39,3.97-31.11,32.09-4.33,32.72-65.03,580.08-70.62,609.13-5.59,29.05-9.14,42.59,11.07,48.77Z"/>
  <path class="cls-2" d="M1162.58,1160.86c-9.96,0-20.96-2.11-31.33-4.55-13.03-3.07-148.47-17.39-305.3-33.98-256.48-27.13-575.68-60.9-609.53-71.24-21.48-6.57-18.62-21.31-13.43-48.07l.68-3.5c3.66-19,30.89-259.81,50.78-435.64,10.24-90.57,18.33-162.11,19.82-173.35,3.83-28.96,10.76-35.99,33.72-34.21,11.05.86,261.63,32.04,487.46,60.45,141.98,17.86,472.69,59.58,477.13,61.34,2.11.83,2.9,1.15.28,30.07-1.49,16.41-4.01,40.42-7.5,71.35-5.92,52.47-66.29,534.85-68.72,553.2-1.39,10.53-5.34,17.91-12.06,22.54-5.93,4.09-13.6,5.6-22.01,5.6ZM217.86,1046.4c33.4,10.21,352.34,43.95,608.61,71.06,163.46,17.29,292.57,30.95,305.9,34.09,17.01,4,38,7.59,49.44-.31,5.52-3.81,8.79-10.08,9.99-19.16,6.93-52.38,79.61-616.61,77.85-649.6-40.07-6.26-936.21-119.28-962.05-121.29-19.11-1.48-24.81,2.08-28.5,29.98-1.48,11.19-9.57,82.71-19.81,173.25-19.9,175.91-47.14,416.83-50.84,436.02l-.68,3.5c-5.48,28.25-6.42,37.43,10.06,42.46Z"/>
  <path class="cls-3" d="M339.75,912.53c74.27,8.07,772.89,77.68,788.16,81.45,15.27,3.77,19.85-4.38,28.52-52.29,13.36-73.81,59.17-403.32,48.91-414.02-16.04-16.72-817.56-97.6-839.72-102.28-22.16-4.68-35.31,6.43-37.5,31.83-2.84,32.92-45.81,412.68-46.59,431.85-.78,19.17,58.22,23.47,58.22,23.47Z"/>
  <path class="cls-2" d="M1133.55,997.22c-2.21,0-4.35-.41-6.23-.88-10.03-2.48-325-34.36-554.98-57.64-116.23-11.77-208.05-21.06-232.81-23.75-6.48-.47-61.29-5.12-60.44-26,.44-10.9,14.46-137.85,26.84-249.86,9.53-86.28,18.53-167.78,19.76-182.1,1.22-14.13,5.73-24.18,13.4-29.88,6.86-5.09,15.95-6.48,27.03-4.14,6.1,1.29,74.05,8.64,168.1,18.82,120.68,13.06,285.96,30.94,422.12,47.02,242.61,28.65,248.31,34.6,250.75,37.14,1.89,1.97,7.66,7.99-14.93,185.34-12.39,97.28-26.95,195.55-33.33,230.8-6.51,36-10.7,48.4-17.9,53.06-2.37,1.53-4.91,2.05-7.38,2.05ZM356.31,426.78c-5.68,0-10.47,1.43-14.31,4.28-6.5,4.82-10.35,13.69-11.45,26.37-1.24,14.38-46.15,421.01-46.59,431.74-.5,12.23,34.06,19.33,55.95,20.93h.09c24.67,2.69,116.52,11.99,232.82,23.76,230.13,23.29,545.3,55.19,555.66,57.75,4.55,1.12,7.48.97,9.78-.53,6.41-4.15,10.48-20.72,15.75-49.83,15.42-85.18,57.59-396.62,49.5-411.92-15.99-11.91-441.18-57.92-669.82-82.66-97.7-10.57-162.25-17.56-168.59-18.9-3.13-.66-6.07-.99-8.8-.99Z"/>
  <path class="cls-3" d="M493.91,476.35c27.55-2.37,225.99,21.04,233.31,33.83,7.32,12.79,1.08,154.5-9.04,165.96-10.12,11.45-250.12-8.38-252.92-24.14s14.64-174.44,28.65-175.65Z"/>
  <path class="cls-2" d="M498.97,476.18c40.95,0,221.28,21.82,228.25,34,7.32,12.79,1.08,154.5-9.04,165.96-2.1,2.37-14.08,3.4-31.78,3.4-67.67,0-218.92-15.05-221.14-27.54-2.8-15.76,14.64-174.44,28.65-175.65,1.31-.11,3.02-.17,5.06-.17ZM498.97,471.29v4.89-4.89h0c-2.24,0-4.03.06-5.48.19-2.23.19-4.23,1.43-5.96,3.68-8.2,10.68-15.45,55-20.09,90.3-4.61,35.04-8.59,78.42-6.99,87.4.87,4.89,6.02,8.66,29.81,13.51,14.88,3.03,35.79,6.13,60.47,8.95,47.68,5.45,102.21,9.12,135.67,9.12,28.58,0,33.18-2.5,35.44-5.06,2.14-2.42,4.96-8.19,7.9-31.59,1.82-14.51,3.38-33.64,4.38-53.88.62-12.52,3.42-75.53-2.66-86.15-1.79-3.13-5.99-10.46-104.96-23.98-52.06-7.11-106.89-12.48-127.53-12.48Z"/>
  <path class="cls-3" d="M801.93,515.03c-5.8-.02-27.47,161.88-13.53,172.08,13.94,10.2,215.21,36.51,222.54,27.96,7.33-8.55,23.33-160.62,10.97-168.6-12.36-7.98-196.48-31.38-219.98-31.45Z"/>
  <path class="cls-2" d="M801.93,515.03c23.5.07,207.62,23.47,219.98,31.45,12.36,7.98-3.64,160.05-10.97,168.6-1,1.17-5.59,1.68-12.83,1.68-45.87,0-197.66-20.83-209.71-29.64-13.94-10.2,7.73-172.1,13.53-172.08ZM801.92,510.14c-4.24,0-5.68,4.38-6.37,6.49-3.97,12.08-10.11,52.67-13.69,90.48-7.2,76.01.69,81.78,3.66,83.95,14.65,10.72,171.13,30.59,212.59,30.59,11.46,0,14.66-1.19,16.54-3.39,1.13-1.32,3.23-3.77,6.77-25.55,2.07-12.71,4.15-29.24,5.87-46.56,1.53-15.45,6.26-67.67,2.86-91.05-1.03-7.06-2.7-10.86-5.59-12.73-7.77-5.02-62.92-13.33-107.81-19.42-52.64-7.14-103.08-12.77-114.82-12.8v4.89-4.89h-.01Z"/>
  <path class="cls-3" d="M782.3,742.63c3.5-12.91,215.35,17.39,221.36,24.56,6.01,7.17-11.89,162.42-15.25,170.5s-199.69-13.22-214.81-21.58c-15.12-8.36,4.24-157.03,8.7-173.49Z"/>
  <path class="cls-2" d="M800.51,739.47c52.12,0,198.17,21.79,203.15,27.73,6.01,7.17-11.89,162.42-15.25,170.5-.52,1.25-5.66,1.8-14.04,1.8-45.75,0-187.99-16.31-200.77-23.38-15.12-8.36,4.24-157.03,8.7-173.49.6-2.22,7.38-3.16,18.21-3.16ZM800.51,734.58c-15.58,0-21.58,1.77-22.93,6.77-2.34,8.65-8.35,50.52-11.84,90.63-2,22.91-2.89,41.72-2.67,55.89.39,24.83,4.16,30.3,8.17,32.52,14.47,8,158.02,23.99,203.13,23.99,12.84,0,17-1.08,18.55-4.81,2.39-5.72,8.27-55.28,11.49-86.98,8.36-82.14,4.87-86.31,2.99-88.55-1.31-1.56-2.93-3.5-29.35-8.5-15.24-2.88-35.7-6.18-57.61-9.29-39.84-5.65-92.27-11.68-119.94-11.68Z"/>
  <path class="cls-3" d="M705.6,745.75c-1.91-15.5-233.64-42.2-243.18-34.15-9.54,8.05-20.31,159.45-18.53,165.95,1.78,6.51,233.91,38.41,240.86,35.22,6.96-3.2,22.27-155.47,20.85-167.02Z"/>
  <path class="cls-2" d="M475.76,710.12c51.08,0,228.17,22.09,229.84,35.63,1.42,11.55-13.9,163.82-20.85,167.02-.33.15-1.17.22-2.46.22-26.02,0-236.71-29.24-238.4-35.44-1.78-6.51,8.99-157.91,18.53-165.95,1.21-1.02,5.96-1.48,13.34-1.48ZM475.76,705.23c-11.19,0-14.52.96-16.49,2.63-2.34,1.97-7.82,6.59-15.23,86.84-2.88,31.15-6.26,79.03-4.87,84.14.93,3.39,3.97,4.6,13.27,6.77,5.83,1.36,14.21,3.01,24.9,4.9,19.11,3.38,46.07,7.62,75.93,11.92,51.99,7.49,114.87,15.45,129.02,15.45,2.22,0,3.44-.18,4.5-.67,2.58-1.19,3.96-3.84,5.66-10.92,1.06-4.42,2.25-10.67,3.52-18.57,2.81-17.51,5.47-39.46,7.21-54.78,4.17-36.79,8.14-80.82,7.28-87.79-.64-5.19-6.28-9.38-33.21-15.45-16.69-3.76-39.98-7.8-67.34-11.68-52.23-7.41-108.64-12.79-134.14-12.79Z"/>
  <g>
    <g class="cls-7">
      <path class="cls-3" d="M599.36,679.96s-7.76,12.84-32.45,17.94c-24.69,5.11-57.02,27.68-59.44,50.42-6.1,57.31,26.31,69.77,26.31,69.77,0,0,56.12-11.78,66.02-9.76,9.91,2.01,26.82-21.51,26.82-21.51,0,0,6.76-6.95,8.87-23.36,4.48-34.93-10.7-44.26-27.99-58.33,0,0,1.14-12.63-8.14-25.18Z"/>
      <path class="cls-2" d="M533.78,820.55c-.3,0-.6-.05-.88-.16-1.39-.54-34.08-13.81-27.86-72.31,2.69-25.25,37.56-47.63,61.37-52.56,23.17-4.8,30.79-16.71,30.86-16.83.43-.69,1.17-1.13,1.98-1.16.78-.03,1.59.33,2.07.98,8.04,10.87,8.7,21.76,8.67,25.5.86.7,1.72,1.38,2.57,2.06,15.94,12.78,29.71,23.82,25.36,57.71-2.04,15.9-8.34,23.43-9.4,24.6-2.21,3.06-18.23,24.57-29.2,22.35-7.72-1.57-49.56,6.51-65.04,9.76-.17.03-.33.05-.5.05ZM599.22,684.1c-3.89,4.32-13.31,12.37-31.81,16.2-24.76,5.12-55.27,27.33-57.5,48.29-5.37,50.47,19.88,64.9,24.15,66.96,8.56-1.78,56.48-11.58,66.24-9.61,5.75,1.16,17.71-11.31,24.35-20.54.07-.1.15-.19.23-.28.05-.05,6.24-6.72,8.2-21.96,4-31.17-8.17-40.93-23.57-53.27-1.17-.93-2.35-1.88-3.54-2.85-.63-.51-.96-1.31-.89-2.11,0-.1.76-10.16-5.85-20.82Z"/>
      <path class="cls-3" d="M576.09,725.44c13.8,10.58,21.05,8.5,32.64,24.5,11.59,16,10.25,42.13,10.25,42.13,0,0,4-14.23,9.11-8.15,5.11,6.08-8.46,27.59-12.24,27.05,0,0-11.61,48.6-46.16,48.32-34.54-.28-41.47-34.92-43.55-53.99,0,0-11.72-15.79-10.15-25.45,1.56-9.66,8.62-6.9,10-3.9,0,0,6.12-29.78,19.5-37.79,13.37-8.01,30.6-12.73,30.6-12.73Z"/>
      <path class="cls-2" d="M570.01,861.74c-.11,0-.22,0-.33,0-26.3-.21-41.74-18.9-45.89-55.52-2.13-2.99-11.76-17.15-10.21-26.75,1.12-6.91,4.78-8.42,6.86-8.7,1.45-.2,2.88.09,4.11.66,2.25-8.66,8.49-28.65,19.67-35.36,13.5-8.09,30.5-12.8,31.21-12.99.74-.2,1.53-.05,2.13.42,4.93,3.78,8.92,5.85,12.79,7.86,6.81,3.53,12.69,6.59,20.34,17.15,7.45,10.29,9.8,24.29,10.5,33.65.95-1.03,2.05-1.81,3.3-2.08,1.37-.3,3.43-.14,5.46,2.27,4.31,5.12-.65,15.44-2.99,19.63-1.3,2.34-5.27,9.03-9.1,10.93-2.24,8.22-14.98,48.82-47.87,48.82ZM521.36,775.59c-.09,0-.17,0-.25.02-1.26.17-2.25,1.86-2.69,4.64-1.15,7.09,6.62,19.44,9.7,23.6.26.35.42.76.47,1.19,3.73,34.19,17.57,51.62,41.14,51.81.09,0,.18,0,.27,0,31.97,0,43.38-45.98,43.49-46.45.26-1.1,1.25-1.86,2.35-1.88,1.99-.98,8.41-9.65,10.43-17.33.71-2.7.7-4.83-.04-5.7-.47-.56-.74-.64-.74-.64-.9.21-2.99,3.77-4.15,7.88-.34,1.2-1.53,1.95-2.75,1.75-1.23-.2-2.11-1.29-2.04-2.53.01-.25,1.15-25.48-9.79-40.58-6.97-9.62-12.12-12.3-18.63-15.68-3.62-1.88-7.69-3.99-12.52-7.57-4.02,1.2-17.88,5.57-28.85,12.14-12.31,7.37-18.3,35.9-18.36,36.18-.21,1.04-1.07,1.82-2.12,1.94-1.06.13-2.06-.45-2.5-1.41-.27-.59-1.38-1.38-2.41-1.38ZM615.72,808.57h0Z"/>
      <path class="cls-2" d="M605.63,762.58c-2.43-1.62-12.47-8.08-18.26-8.27l1.5-5.44s13.53,6.72,17.83,11.47c-.54.66-.91,1.42-1.07,2.24Z"/>
      <path class="cls-2" d="M592.02,767.81c3.97-.47,3.95,8.93-1.34,8.71-5.29-.23-2.4-8.26,1.34-8.71Z"/>
      <path class="cls-2" d="M545.48,760.83c2.47-1.46,12.7-7.26,18.49-7.07l-1.34-5.53s-13.72,5.83-18.16,10.3c.52.69.87,1.48,1,2.31Z"/>
      <path class="cls-2" d="M558.91,766.94c-3.95-.73-4.21,8.67,1.08,8.79,5.29.12,2.64-8.1-1.08-8.79Z"/>
      <path class="cls-2" d="M580.82,802.82c-.82,0-1.75-.12-2.83-.41-7.57-2.06-12.11-6.25-12.3-6.43-.99-.92-1.04-2.47-.11-3.45.92-.99,2.47-1.04,3.45-.11.03.03,3.9,3.56,10.24,5.28,1.51.41,2.09.2,2.14.14.42-.53.29-3.36-1.93-7.51-3.48-6.5-3.39-15.28-3.39-15.65.02-1.35,1.12-2.4,2.48-2.41,1.35.02,2.43,1.13,2.41,2.48,0,.08-.07,7.9,2.81,13.27,1.41,2.64,4.38,9.17,1.45,12.86-.77.97-2.12,1.95-4.42,1.95Z"/>
      <path class="cls-3" d="M587.44,812.58c-5.89-3.31-28.32-5.14-33.07-4.03-4.75,1.11,1.54,23.7,12.39,26.16,10.85,2.46,19.69-11.77,21.06-15.78,1.86-5.43,1.14-5.49-.38-6.35Z"/>
      <path class="cls-2" d="M569.33,837.44c-1.01,0-2.05-.11-3.11-.35-9.82-2.23-15.87-17.33-15.89-24.81-.01-4.61,2.18-5.81,3.49-6.12,5.01-1.17,28.24.58,34.82,4.28h0l.2.11c3.36,1.85,2.95,4.33,1.29,9.16-1.46,4.28-9.69,17.72-20.8,17.72ZM555.34,810.85c-.4,1.28-.06,5.41,2.12,10.53,2.57,6.03,6.25,10.12,9.84,10.94,9.15,2.08,17.18-11.19,18.21-14.19.64-1.88.87-2.83.95-3.31l-.21-.12c-5.01-2.81-25.59-4.74-30.9-3.86Z"/>
      <path class="cls-2" d="M579.68,890.77c-1.21,0-2.26-.9-2.42-2.13-1.32-10.12,4.55-31.97,4.8-32.89.35-1.3,1.69-2.07,3-1.72,1.3.35,2.07,1.7,1.72,3-.06.22-5.87,21.82-4.67,30.98.18,1.34-.77,2.57-2.11,2.74-.11.01-.21.02-.32.02Z"/>
      <path class="cls-2" d="M533.64,884.52c-.43,0-.87-.11-1.27-.36-1.15-.7-1.52-2.2-.82-3.36,6.31-10.39,4.73-35.94,4.71-36.2-.09-1.35.93-2.51,2.28-2.6,1.36-.1,2.51.93,2.6,2.28.07,1.11,1.7,27.35-5.41,39.05-.46.76-1.27,1.18-2.09,1.18Z"/>
      <path class="cls-2" d="M625.74,911.69c-.57,0-1.14-.2-1.61-.6-5.96-5.2-14.09-10.46-23.51-15.23-2.25-1.14-4.54-2.39-6.76-3.61-3.47-1.9-8.07-4.42-10.15-4.98-1.42,4.21-4.3,8.68-17.09,10.22-13.87,1.67-31.53-7.64-35.08-13.2-3.92-.24-20.64,6.19-34.58,12.59-1.23.56-2.68.03-3.24-1.2-.56-1.23-.03-2.68,1.2-3.24,9.82-4.51,33.26-14.77,38.73-12.67,1.18.46,1.73,1.26,1.98,1.85,1.17,2.74,16.94,12.64,30.4,11.01,11.29-1.37,12.38-4.82,13.18-7.35l.21-.65c.33-.98,1.05-1.73,2.01-2.1,2.73-1.06,6.72,1.01,14.78,5.42,2.18,1.2,4.44,2.43,6.62,3.54,9.78,4.95,18.26,10.44,24.52,15.9,1.02.89,1.12,2.43.24,3.45-.48.55-1.16.84-1.84.84Z"/>
    </g>
    <path class="cls-1" d="M705.6,745.75c-1.91-15.5-233.64-42.2-243.18-34.15-9.54,8.05-20.31,159.45-18.53,165.95,1.78,6.51,233.91,38.41,240.86,35.22,6.96-3.2,22.27-155.47,20.85-167.02Z"/>
  </g>
  <g>
    <g class="cls-4">
      <path class="cls-3" d="M567.06,638.57s-1.17,18.71-5.27,28.85,19.82,35.94,32.93,36.11c13.11.16,26.73-23.89,27.35-29.96.63-6.07-1.51-26.47,1.64-33.29,3.14-6.83-56.65-1.71-56.65-1.71Z"/>
      <path class="cls-2" d="M594.85,705.98c-.05,0-.11,0-.16,0-9.71-.12-23.5-11.88-30.7-22.71-3.19-4.79-6.55-11.59-4.46-16.76,3.9-9.65,5.08-27.91,5.09-28.09.08-1.21,1.02-2.18,2.23-2.28.13-.01,13.46-1.14,27.05-1.63,28.7-1.02,30.68,1.78,31.73,3.29.73,1.04.84,2.33.29,3.51-1.88,4.08-1.6,14.81-1.4,22.64.11,4.15.2,7.74-.02,9.88-.68,6.55-14.82,32.15-29.65,32.15ZM569.34,640.83c-.44,5.27-1.86,19.05-5.28,27.51-.98,2.42.52,6.99,4,12.22,7.22,10.85,19.69,20.44,26.7,20.53.04,0,.07,0,.11,0,11.55,0,24.25-22.62,24.78-27.77.19-1.83.1-5.27,0-9.25-.21-8.18-.47-18.22,1.4-23.68-5.27-1.94-29.76-1.34-51.7.44Z"/>
      <path class="cls-3" d="M644.34,578.2s8.82-7.46,16.34-.09c7.52,7.37-11.91,30.49-18.37,31.01-6.46.51,2.03-30.91,2.03-30.91Z"/>
      <path class="cls-2" d="M642.15,611.57c-1.22,0-2.32-.52-3.13-1.49-3.97-4.78.74-24.33,2.96-32.51.13-.48.4-.91.78-1.23,3.64-3.08,12.43-7.03,19.63.03,1.91,1.87,3.67,5.49,1.27,12.13-3.59,9.88-15.25,22.59-21.16,23.06-.12,0-.23.01-.35.01ZM642.8,606.97h0ZM646.49,579.63c-3.25,12.27-4.94,24.07-3.89,26.94,3.56-1.12,13.25-10.9,16.46-19.76.84-2.31,1.51-5.4-.09-6.97-4.96-4.86-10.67-1.51-12.48-.22Z"/>
      <path class="cls-3" d="M541.55,582.05s-1.22-16.39-14.11-8.42c-12.89,7.97,8.7,33.4,19.87,30.94,0,0,10.87,46.47,45.45,51.6,34.57,5.13,60.38-43.97,65.47-85.96,5.09-41.99-64.82-71.28-88.16-58.03-23.34,13.24-28.51,69.88-28.51,69.88Z"/>
      <path class="cls-2" d="M597.79,658.99c-1.79,0-3.58-.13-5.39-.4-31.97-4.75-44.33-42.09-46.93-51.42-8.43-.23-19.17-10.16-22.98-19.55-2.84-7.01-1.5-12.87,3.68-16.07,4.4-2.72,8.25-3.27,11.44-1.65,1.1.56,2.01,1.33,2.77,2.21,2.65-17.12,10.16-51.67,28.49-62.07,13.72-7.79,41.85-2.3,64.05,12.49,19.74,13.15,29.85,30.63,27.75,47.97-3.35,27.58-16.5,62.86-38.33,79.51-7.84,5.97-16.07,8.98-24.54,8.98ZM547.31,602.12c1.11,0,2.11.76,2.38,1.89.1.45,10.92,44.92,43.42,49.74,9.01,1.34,17.85-1.23,26.25-7.63,20.7-15.78,33.22-49.65,36.44-76.21,1.87-15.44-7.46-31.22-25.61-43.31-20.44-13.62-46.88-19.14-58.92-12.3-21.96,12.46-27.24,67.42-27.29,67.98-.12,1.27-1.26,2.24-2.46,2.22-1.27-.01-2.32-.99-2.42-2.26-.13-1.64-1.09-6.64-3.74-7.98-1.57-.79-3.8-.31-6.64,1.45-3.08,1.9-3.66,5.29-1.72,10.07,3.54,8.73,14.26,17.61,19.77,16.4.18-.04.35-.06.53-.06Z"/>
      <path class="cls-3" d="M556.86,543.23s12.52,15.5,28.75,23.1c16.24,7.6,14.44-10.04,18.31-9.42,3.88.62,9.4,10.37,13.53,9.49,4.13-.88,6.49-10.15,9.6-7.34,3.11,2.81,8.84,16.07,21.76,17.36,12.92,1.29,21.5-21.25,13.07-51.52-8.43-30.27-54.27-63.04-73.19-42.92,0,0-27.16-11.28-46.3,21.92-19.14,33.2-5.48,82.04,4.12,95.92,0,0-6.76-33.09,10.34-56.58Z"/>
      <path class="cls-2" d="M546.52,602.25c-.78,0-1.54-.38-2.01-1.05-9.17-13.25-24.36-63.61-4.23-98.53,17.29-29.98,41.39-25.36,47.77-23.49,6.03-5.58,14.48-7.21,24.56-4.73,21.61,5.32,45.74,28.59,51.65,49.78,5.7,20.46,4.22,39.81-3.76,49.3-3.3,3.92-7.43,5.76-11.91,5.31-11.01-1.1-17.16-9.79-20.84-14.98-.72-1.02-1.41-2-1.93-2.6-.48.52-1.13,1.42-1.59,2.08-1.61,2.27-3.44,4.83-6.24,5.43-3.59.77-6.78-2.48-9.87-5.62-1.16-1.19-2.81-2.87-3.9-3.54-.24.49-.51,1.17-.74,1.72-1.13,2.79-2.83,7.01-7.03,8.66-3.2,1.25-7.08.78-11.86-1.46-12.79-5.99-23.18-16.52-27.49-21.31-14.04,22.13-8.24,51.78-8.18,52.09.23,1.14-.37,2.28-1.44,2.74-.31.13-.64.2-.96.2ZM577.66,482.52c-8.98,0-22.3,3.79-33.14,22.6-15.12,26.22-9.19,61.64-1.76,81.44-.31-12.14,1.46-30.11,12.14-44.77.45-.61,1.16-.99,1.91-1,.74,0,1.48.32,1.96.91.12.15,12.37,15.16,27.89,22.42,3.45,1.62,6.14,2.07,8,1.34,2.24-.88,3.33-3.57,4.29-5.94.99-2.46,2.23-5.51,5.38-5.01,2.53.4,4.84,2.75,7.28,5.24,1.31,1.34,4.38,4.44,5.36,4.27.94-.2,2.35-2.18,3.28-3.48,1.52-2.14,2.96-4.17,5.23-4.41.81-.09,2.03.04,3.25,1.14.93.84,1.85,2.14,3.02,3.8,3.4,4.8,8.55,12.06,17.34,12.94,2.85.28,5.44-.92,7.69-3.59,5.71-6.79,8.79-23.29,2.79-44.84-5.5-19.73-27.98-41.39-48.11-46.35-6.21-1.53-14.88-2-20.95,4.45-.7.74-1.78.97-2.72.58-.4-.16-4.36-1.71-10.11-1.71Z"/>
      <path class="cls-2" d="M568.42,580.94s3.91-8.52,13.72-10.54c4.24-.87,5.05,7.41,2.8,7-4.17-.74-9.94,2.27-12.77,4.9-2.83,2.63-3.75-1.37-3.75-1.37Z"/>
      <path class="cls-2" d="M583.75,586.85c-2.92.62-5.84,11.02-1.06,11.01,4.78,0,5.19-11.9,1.06-11.01Z"/>
      <path class="cls-2" d="M641.33,589.87s-.91-9.29-9.54-14.25c-3.73-2.15-7.22,5.45-4.95,5.77,4.19.59,8.67,5.24,10.49,8.62s4-.13,4-.13Z"/>
      <path class="cls-2" d="M624.86,590.72c2.56,1.5,1.91,12.26-2.61,10.77-4.53-1.49-1.01-12.89,2.61-10.77Z"/>
      <path class="cls-2" d="M611.5,623.81c-6.67,0-13.14-6.51-13.93-7.32-.93-.97-.91-2.52.07-3.45.97-.94,2.52-.91,3.45.06,1.68,1.74,7.31,6.48,11.24,5.75,1.03-1.99-1.71-11.77-5.85-20.83-.56-1.23-.02-2.68,1.2-3.24,1.23-.56,2.68-.02,3.24,1.21,2.05,4.48,8.53,19.55,5.73,25.13-.66,1.31-1.78,2.19-3.16,2.48-.66.14-1.33.21-2,.21Z"/>
      <path class="cls-2" d="M605.87,637.58c-6.48,0-11.76-3.43-14.41-6.28-.92-.99-.86-2.54.13-3.45.99-.92,2.53-.86,3.45.12.39.42,9.64,9.96,21.23.6,1.05-.85,2.59-.68,3.44.37.85,1.05.68,2.59-.37,3.44-4.73,3.82-9.34,5.21-13.46,5.21Z"/>
    </g>
    <path class="cls-1" d="M493.91,476.35c27.55-2.37,225.99,21.04,233.31,33.83,7.32,12.79,1.08,154.5-9.04,165.96-10.12,11.45-250.12-8.38-252.92-24.14s14.64-174.44,28.65-175.65Z"/>
  </g>
  <g>
    <g class="cls-6">
      <path class="cls-3" d="M967.01,598.98s-1.74,9.17-7.69,14.26c-5.94,5.09-2.27-7.43-2.27-7.43l4.52-13.41,5.44,6.57Z"/>
      <path class="cls-2" d="M957.04,616.91c-.63,0-1.23-.18-1.78-.54-.8-.52-3.24-2.09-.55-11.25l4.55-13.51c.28-.84,1-1.46,1.87-1.62.87-.16,1.76.16,2.33.85l5.44,6.57c.46.56.65,1.3.52,2.01-.08.41-1.98,10.08-8.5,15.66-1.41,1.21-2.71,1.82-3.88,1.82ZM962.49,597.34l-3.12,9.26c-.39,1.35-.71,2.86-.87,4.09,3.56-3.54,5.26-8.83,5.86-11.09l-1.87-2.25Z"/>
      <path class="cls-3" d="M872.22,589.93s-4.7-7.31-1.36,5.46c2.72,10.39,9.98,10.27,9.98,10.27l5.76-6.86-4.18-15.38s-1.32-.91-1.77-.83c-.45.08-8.44,7.35-8.44,7.35Z"/>
      <path class="cls-2" d="M880.84,608.1c-.74,0-9.25-.26-12.35-12.09-1.65-6.29-1.96-9.28.52-10.37,1.14-.5,2.29-.24,3.44.77,6.68-6.03,7.02-6.1,7.76-6.23.43-.08,1.44-.26,3.59,1.23.47.33.82.81.97,1.37l4.18,15.38c.21.77.03,1.6-.49,2.21l-5.76,6.86c-.46.54-1.12.86-1.83.87h-.04ZM872.63,592.34c.15.68.35,1.48.59,2.43,1.61,6.17,4.95,7.83,6.62,8.28l4.07-4.84-3.37-12.41c-1.6,1.37-4.27,3.75-6.68,5.94-.35.32-.78.52-1.23.6ZM880.22,584.95h0Z"/>
      <path class="cls-2" d="M972.26,729.14c-.68,0-1.35-.28-1.84-.83-18.14-20.61-47.36-44.86-54.14-48.76-5.38-3.1-24.95-6.96-32.73-8.32-5.42,1.47-51.81,14.25-68.81,24.53-1.16.7-2.66.33-3.36-.83-.7-1.16-.33-2.66.83-3.36,18.57-11.23,68.47-24.64,70.59-25.21.34-.09.7-.11,1.04-.05,1.12.19,27.49,4.74,34.87,8.99,6.99,4.02,36.92,28.81,55.37,49.77.89,1.01.79,2.56-.22,3.45-.46.41-1.04.61-1.61.61Z"/>
      <path class="cls-3" d="M929.27,648.79s-7.74,21.92-7.9,31.11c-.16,9.19.05,33.92-22.75,29.01-17.62-3.8-23.77-26.22-18.19-37.93,3.76-7.88,11.07-21.06,12.19-34.33,1.13-13.27,36.65,12.14,36.65,12.14Z"/>
      <path class="cls-2" d="M904.17,712c-1.9,0-3.92-.23-6.06-.69-7.98-1.72-14.55-7.1-18.52-15.16-4.21-8.56-4.76-19.09-1.37-26.21.5-1.05,1.06-2.2,1.67-3.42,3.95-8.02,9.36-19.01,10.3-30.07.28-3.25,2.06-4.73,3.5-5.4,8.67-4,32.34,12.42,37,15.76.89.63,1.25,1.77.88,2.8-.08.22-7.61,21.65-7.76,30.34v.73c-.12,6.86-.34,21.12-8.73,27.78-2.96,2.36-6.62,3.54-10.92,3.54ZM897.2,635.22c-.58,0-1.08.08-1.46.26-.21.09-.59.27-.68,1.37-1.02,11.98-6.89,23.91-10.78,31.81-.59,1.21-1.15,2.33-1.64,3.37-2.78,5.84-2.24,14.66,1.34,21.95,3.29,6.69,8.67,11.14,15.16,12.54,5.49,1.18,9.84.54,12.91-1.89,6.57-5.22,6.77-17.93,6.87-24.03v-.74c.15-8.02,5.59-24.67,7.44-30.13-10.86-7.57-23.86-14.5-29.16-14.5Z"/>
      <path class="cls-3" d="M964.24,578.56c.19,1.19,1.24,50.45-33.2,71.25-34.44,20.8-49.27-28.53-50.94-41.05-1.67-12.52,2.09-44.22,2.09-44.22,0,0,10.8-19.18,26.59-22.3,15.8-3.12,52.82,19.82,55.45,36.32Z"/>
      <path class="cls-2" d="M915.11,657.32c-3.68,0-7.23-.82-10.64-2.45-18.36-8.81-25.81-38.35-26.79-45.78-1.69-12.68,1.93-43.52,2.09-44.83.04-.32.14-.63.3-.91.46-.82,11.54-20.2,28.25-23.5,10.02-1.97,26.1,5.23,37.59,13.24,5.66,3.95,19.02,14.29,20.75,25.09.08.48,1.93,51.82-34.35,73.73-5.97,3.61-11.72,5.41-17.19,5.41ZM884.56,565.34c-.47,4.1-3.53,31.88-2.04,43.1,1.36,10.19,9.3,34.93,24.06,42.01,6.9,3.31,14.7,2.39,23.19-2.74,32.99-19.92,32.1-67.35,32.04-68.85-1.02-6.1-8.18-14.44-18.7-21.77-12.6-8.78-26.51-13.91-33.85-12.46-13.3,2.62-23.07,17.99-24.7,20.7Z"/>
      <path class="cls-3" d="M932.38,549.07s4.62,13.32,19.61,15.85c0,0-.86,19.45,10.37,21.44,0,0-3.22,14.51,4.14,14.02,7.36-.48,8.22-11.88,8.22-11.88,0,0,10.32,5.69,11.01-1.88.7-7.58-7.79-7.25-7.79-7.25,0,0,16.28-1.13,12.46-14.72-3.82-13.59-7.74-12.47-7.74-12.47,0,0,5.53-11.87-4.46-22.51-9.99-10.64-18.7-3.44-18.7-3.44,0,0-.16-15.53-24.55-22.08-24.39-6.55-28.42,13.6-27.24,16.07,0,0-10.48-18-24.07-11.5-13.59,6.5-9.29,22.08-9.29,22.08,0,0-7.47-6.82-15.85,3.49-8.38,10.32,5.97,17.35,5.97,17.35,0,0-4.67.48-3.92,5.96,0,0-7.31,5.48-4.35,11.66s9.89,6.02,9.89,6.02l3.6,1.67s-7.8,15.33,6.82,14.02c3.36-.3,6.66-3.65,6.66-11.71,0,0,10.75-2.69,5.96-14.88,0,0,16.01,3.44,18.7-12.68,0,0,15.1,9.83,24.55-2.63Z"/>
      <path class="cls-2" d="M966.14,602.83c-1.92,0-3.55-.73-4.75-2.12-2.74-3.19-2.35-9.19-1.84-12.62-8.7-3.45-9.9-16.1-10.02-21.18-10.04-2.41-15.38-9.28-17.8-13.53-7.13,6.43-16.36,4.76-22.28,2-1.2,3.81-3.31,6.76-6.29,8.78-3.62,2.46-7.74,3.01-10.68,2.97.62,3.14.31,5.94-.94,8.38-1.56,3.03-4.22,4.66-5.99,5.47-.5,8.59-4.8,12.08-8.84,12.44-4.87.43-8.29-.74-10.16-3.51-2.45-3.63-1.18-8.75-.07-11.73l-.99-.46c-2.04-.11-8.45-.98-11.52-7.39-3.01-6.29,1.78-11.7,4.03-13.77-.02-2.27.76-3.79,1.49-4.71.08-.11.17-.21.26-.31-2.4-1.85-5.26-4.76-6.1-8.56-.76-3.45.23-6.88,2.93-10.21,3.31-4.08,6.96-6.29,10.85-6.58,1.4-.1,2.68.06,3.8.36-.31-6.58,1.84-15.48,11.34-20.02,9.55-4.57,18.21,1.25,23.5,7.31.74-2.11,1.91-4.35,3.57-6.35,3.92-4.72,11.6-9.54,25.93-5.69,18.74,5.03,24.16,15.2,25.72,20.7,4.02-1.59,11.14-2.51,18.67,5.5,8.26,8.79,7.02,18.29,5.78,22.71,2.69,1.86,5.04,6.33,7,13.29,1.24,4.42.77,8.21-1.39,11.28-1.45,2.06-3.49,3.48-5.53,4.45.07.07.14.14.21.21,1.15,1.21,2.45,3.4,2.13,6.91-.29,3.19-1.92,4.69-3.23,5.39-2.57,1.36-5.9.67-8.33-.21-.95,4.05-3.47,10.37-9.94,10.79-.17.01-.35.02-.51.02ZM934.68,548.26c.18.51,4.41,12.01,17.71,14.25,1.22.2,2.09,1.28,2.04,2.52,0,.17-.48,17.36,8.36,18.92.66.12,1.24.5,1.61,1.05.37.55.5,1.23.35,1.89-.72,3.28-1.11,8.93.36,10.65.19.22.46.45,1.23.41,5.07-.33,5.93-9.53,5.94-9.62.07-.83.55-1.57,1.28-1.96.73-.39,1.61-.39,2.34,0,1.99,1.09,5.45,2.24,6.75,1.55.13-.07.54-.28.65-1.51.13-1.38-.14-2.39-.81-3.1-1.45-1.53-4.46-1.49-4.46-1.49-1.36.02-2.46-.98-2.53-2.31-.07-1.33.94-2.48,2.27-2.57.06,0,6.84-.55,9.61-4.49,1.29-1.83,1.51-4.17.67-7.14-2.5-8.92-4.8-10.47-5.24-10.69-.74.05-1.5-.26-2.01-.85-.62-.73-.76-1.75-.36-2.62.19-.42,4.66-10.56-4.03-19.81-8.09-8.61-14.65-3.79-15.37-3.22-.73.59-1.74.71-2.58.31-.84-.4-1.39-1.24-1.4-2.18-.02-.54-.63-13.8-22.74-19.74-8.63-2.32-15.27-1.37-19.72,2.83-3.85,3.63-4.82,8.74-4.62,9.98.45,1.15-.02,2.47-1.13,3.05-1.16.61-2.59.2-3.26-.93-.38-.65-9.53-15.97-20.91-10.52-11.54,5.52-8.14,18.68-7.99,19.24.28,1.05-.16,2.16-1.09,2.73-.92.57-2.12.46-2.92-.28,0,0-2.08-1.79-4.95-1.55-2.47.21-4.94,1.82-7.35,4.78-1.74,2.14-2.38,4.12-1.95,6.07.81,3.7,5.4,6.71,7.1,7.55.97.48,1.51,1.55,1.32,2.62-.19,1.07-1.07,1.89-2.15,2-.96.14-2.08.81-1.75,3.2.12.88-.24,1.76-.95,2.29-.05.04-5.66,4.37-3.61,8.65,2.22,4.63,7.4,4.64,7.64,4.63.35,0,.74.07,1.07.23l3.6,1.67c.6.28,1.07.79,1.28,1.42.22.63.17,1.32-.13,1.91-1.03,2.04-2.69,6.96-1.24,9.11.99,1.46,3.63,1.55,5.67,1.37,2.14-.19,4.43-2.73,4.43-9.28,0-1.12.76-2.1,1.85-2.37,0,0,3.24-.89,4.65-3.66,1.03-2.03.91-4.71-.37-7.96-.33-.84-.17-1.79.41-2.48.58-.69,1.49-1,2.38-.81.05.01,6.23,1.25,10.81-1.89,2.62-1.79,4.29-4.76,4.96-8.81.14-.81.67-1.5,1.43-1.84.75-.33,1.63-.26,2.32.19.54.35,13.33,8.41,21.27-2.06.54-.72,1.44-1.08,2.33-.94.89.14,1.63.76,1.92,1.61ZM983.33,554.53h0ZM983.33,554.53h0ZM909.99,519.37h0ZM909.92,519.16h0Z"/>
      <path class="cls-3" d="M885.41,541.98c14.94-13.22,36.4-18.29,60.51-10.27,26.81,8.92,36.71,40.25,26.8,61.82-.16-.11-.33-.21-.51-.29.9-1.83,4.96-14.36-.79-26.93-7.06-15.44-26.63-29.39-51.94-26.86-25.31,2.53-45.74,19.21-45.8,33.02-.05,13.81-.1,3.9-.1,3.9,0,0-3.12-21.17,11.82-34.39Z"/>
      <path class="cls-2" d="M972.72,595.97c-.49,0-.98-.15-1.39-.43-.05-.03-.09-.06-.14-.08-.6-.28-1.06-.78-1.28-1.4-.22-.62-.18-1.3.11-1.89.9-1.83,4.37-13.51-.81-24.84-6.4-14-24.61-27.94-49.48-25.44-24.5,2.45-43.55,18.45-43.59,30.59-.01,2.84-.02,4.68-.03,5.81,0,.38,0,.8-.04,1.21,0,.06,0,.1,0,.14h-.02c-.13,1.34-.6,2.62-2.42,2.62h0c-1.7,0-2.23-.71-2.4-2.61h-.04s0-.15,0-.39c-.05-.74-.05-1.63-.06-2.71-.3-2.31-2.53-22.97,12.64-36.39,16.54-14.64,39.47-18.56,62.9-10.76,12.61,4.2,22.56,13.43,28.01,25.99,5.55,12.78,5.64,27.42.24,39.17-.3.66-.88,1.15-1.57,1.34-.21.06-.43.09-.65.09ZM925.48,536.7c22.22,0,38.9,12.17,46.49,25.31-.49-1.59-1.07-3.15-1.74-4.69-4.89-11.27-13.79-19.54-25.07-23.3-21.74-7.23-42.92-3.67-58.12,9.78-4.18,3.7-6.84,8.11-8.52,12.47,8.73-9.75,24.26-17.62,40.73-19.26,2.12-.21,4.2-.31,6.23-.31Z"/>
      <path class="cls-2" d="M952.55,590.58s-5.53-6.93-14.94-8.27c0,0-3.12-5.05,5.96-1.45,9.08,3.6,12.63,8.33,8.97,9.72Z"/>
      <path class="cls-2" d="M940.11,595.02c4.11-.07,2.04,9.09-1.77,8.39-3.81-.7-.13-8.36,1.77-8.39Z"/>
      <path class="cls-2" d="M897.22,581.33s7.72-4.37,16.95-2.11c0,0,4.78-3.52-4.99-3.57-9.77-.05-14.82,3.02-11.95,5.68Z"/>
      <path class="cls-2" d="M906.08,588.86c4.06-.64,3.29,8.71-.58,8.55s-1.3-8.26.58-8.55Z"/>
      <path class="cls-2" d="M922.43,625.23c-1.2,0-2.69-.38-4.44-1.53-5.75-3.75-7.19-7.07-7.33-7.43-.5-1.26.12-2.68,1.37-3.17,1.26-.5,2.68.12,3.17,1.37,0,0,1.1,2.29,5.46,5.14,1.11.72,1.79.81,1.96.69.44-.3,1.01-1.95.54-4.16-.98-4.67-.03-14.16.01-14.56.14-1.34,1.34-2.33,2.68-2.18,1.34.14,2.32,1.34,2.18,2.68-.26,2.53-.78,9.8-.09,13.06.68,3.24.15,7.34-2.57,9.2-.62.42-1.61.9-2.95.9Z"/>
      <path class="cls-2" d="M921.57,637.68c-9.32,0-15.51-5.07-15.84-5.35-1.03-.87-1.17-2.41-.3-3.44.87-1.03,2.4-1.17,3.44-.31.36.3,8.74,7.04,20.32,2.83,1.27-.46,2.67.19,3.13,1.46.46,1.27-.19,2.67-1.46,3.13-3.34,1.22-6.46,1.69-9.29,1.69Z"/>
    </g>
    <path class="cls-1" d="M801.93,515.03c-5.8-.02-27.47,161.88-13.53,172.08,13.94,10.2,215.21,36.51,222.54,27.96,7.33-8.55,23.33-160.62,10.97-168.6-12.36-7.98-196.48-31.38-219.98-31.45Z"/>
  </g>
  <g>
    <g class="cls-5">
      <path class="cls-3" d="M888.26,735.17s-10.5-11.58-30.5,6.12c-20,17.71-64.69,118.01-52.73,134.99,11.96,16.98,77.58,22.57,102.31,21.49,24.73-1.07,41.1.62,41.71-24.74.61-25.36-4.13-84.78-15.19-110.55-11.05-25.76-26.32-34.21-45.6-27.33Z"/>
      <path class="cls-2" d="M900.67,900.36c-28.24,0-85.7-5.72-97.64-22.66-13.81-19.59,34.33-121.61,53.11-138.23,17.56-15.55,28.95-9.79,32.63-7.05,20.3-6.6,36.21,3.19,47.34,29.12,11.23,26.18,15.99,86.55,15.38,111.57-.61,25.58-17.18,26.16-38.14,26.9-1.91.07-3.88.14-5.91.22-1.99.09-4.27.13-6.78.13ZM878.34,733.89c-4.46,0-10.78,1.99-18.96,9.24-9.17,8.12-25.03,36.24-37.71,66.87-13.57,32.78-19.32,58.24-14.64,64.88,11.19,15.88,75.31,21.53,100.2,20.46,2.04-.09,4.02-.16,5.95-.23,21.23-.74,32.92-1.16,33.43-22.13.59-24.65-4.03-83.99-14.99-109.52-10.31-24.02-24.22-32.53-42.53-25.99-.93.33-1.95.07-2.62-.64-.22-.23-2.91-2.94-8.12-2.94Z"/>
      <path class="cls-2" d="M936.54,937.76c-.55,0-1.1-.18-1.56-.56-4.94-4.09-27.06-12.71-37.04-16.4-2.97,3.18-11.41,10.17-26.97,8.56-14.04-1.46-18.04-9.17-19.17-13.93-4.03,1.8-11.26,4.86-17.25,6.37-7.28,1.84-23.36,5.62-23.53,5.65-1.31.31-2.63-.51-2.94-1.82-.31-1.31.51-2.63,1.82-2.94.16-.04,16.2-3.8,23.44-5.63,8.15-2.06,19.29-7.4,19.4-7.46.79-.38,1.72-.31,2.44.18.72.49,1.13,1.33,1.06,2.2-.02.43-.44,10.89,15.22,12.51,16.58,1.72,23.42-7.59,23.71-7.99.64-.89,1.8-1.27,2.83-.89,1.35.49,33.15,12.07,40.09,17.81,1.04.86,1.19,2.4.33,3.44-.48.58-1.18.89-1.88.89Z"/>
      <path class="cls-3" d="M853.31,912.77s5.54-18.4,4.91-31.78l35.45-.37s-1.79,32.91,4.1,38.36c0,0-8.01,11.08-24.58,9.36-16.57-1.72-19.05-10.84-19.87-15.57Z"/>
      <path class="cls-2" d="M876.67,930.97c-1.2,0-2.44-.06-3.74-.2-19.31-2-21.36-13.73-22.03-17.59-.07-.37-.04-.76.07-1.12.05-.18,5.41-18.16,4.81-30.96-.03-.66.21-1.31.66-1.79.46-.48,1.09-.76,1.75-.77l35.45-.37c.69.04,1.32.27,1.79.75.47.49.71,1.15.67,1.82-.72,13.19-.16,33.22,3.32,36.44.91.84,1.04,2.22.32,3.23-.33.46-7.82,10.56-23.08,10.56ZM855.82,912.9c1.07,5.44,4.21,11.63,17.62,13.01,11.65,1.21,18.64-4.44,21.21-7.07-4.19-7.61-3.88-27.56-3.55-35.75l-30.39.32c-.04,12.04-4,26.41-4.89,29.49Z"/>
      <path class="cls-3" d="M886.2,762.81s1.78,6.24-14.94,11.77c-16.72,5.53-32.93,13.94-33.82,42.1,0,0-.6-9.75-5.93-5.05-5.33,4.69.56,21.85,4.89,19.07,0,0-1.85,37.34,26.25,54.38,28.1,17.04,45.19-15.5,49.41-21.12,4.21-5.62,10.19-24.37,10.19-24.37,0,0,6.36-2.97,8.15-12.47s-6.29-5.49-6.29-5.49c0,0,4.96-24.51-12.84-39.67-17.8-15.16-21.45-11.1-25.06-19.14Z"/>
      <path class="cls-2" d="M878.38,892.42c-5.17,0-10.85-1.51-17.01-5.24-24.98-15.14-27.33-44.97-27.46-54-1.01-.37-2.06-1.14-3.07-2.46-3.47-4.59-6.2-16.31-.96-20.92,2.55-2.24,4.6-2.09,5.88-1.56,3.61-22.5,18.68-30.67,34.72-35.98,11.3-3.74,13.45-7.74,13.32-8.96.01.12.04.18.04.18l2.35-.67,2.23-1c1.48,3.31,2.69,3.94,6.26,5.82,3.65,1.92,9.17,4.81,18.15,12.46,14.62,12.46,14.85,30.51,14.16,38.27,1.3-.08,2.71.15,3.9,1.05,1.99,1.51,2.63,4.25,1.89,8.16-1.58,8.37-6.4,12.31-8.52,13.66-1.27,3.89-6.36,18.98-10.28,24.2-.4.54-.93,1.34-1.59,2.33-4.55,6.88-16.31,24.65-34.04,24.65ZM836.39,828.26c.42,0,.84.11,1.22.33.79.46,1.26,1.32,1.22,2.24-.02.36-1.41,36.11,25.08,52.17,20.6,12.49,34.57-3.02,44.43-17.92.72-1.09,1.31-1.97,1.76-2.57,3.25-4.34,8.19-18.54,9.82-23.65.21-.65.68-1.18,1.29-1.47.19-.1,5.27-2.67,6.79-10.71.45-2.39.07-3.27-.04-3.36-.32-.24-1.81.03-2.76.5-.83.41-1.83.32-2.57-.25-.74-.57-1.09-1.51-.91-2.42.05-.23,4.43-23.31-12.03-37.33-8.57-7.3-13.79-10.04-17.25-11.86-2.23-1.17-4.02-2.11-5.56-3.68-2.07,2.67-6.32,5.81-14.84,8.63-15.79,5.23-31.28,12.61-32.15,39.86-.04,1.3-1.1,2.35-2.41,2.37-1.29.05-2.39-.99-2.48-2.29-.1-1.54-.59-3.36-1.04-3.97-.16.08-.44.25-.84.6-1.2,1.05-1.6,3.92-1.03,7.3.7,4.12,2.42,7.05,3.3,7.71.32-.14.66-.21,1-.21Z"/>
      <path class="cls-2" d="M854.42,792s3.57-3.26,15.79-4.42c0,0,.08-4.63-8.2-2.67-8.28,1.97-7.6,7.08-7.6,7.08Z"/>
      <path class="cls-2" d="M863.06,797.26c-5.54-.75-4.56,11.33.1,10.71,4.66-.62,4.69-10.07-.1-10.71Z"/>
      <path class="cls-2" d="M906.66,797.41s-2.82-3.92-14.55-7.56c0,0,.88-4.55,8.57-.93,7.7,3.62,5.98,8.49,5.98,8.49Z"/>
      <path class="cls-2" d="M897.12,800.79c5.58.4,2.14,12.02-2.3,10.46-4.43-1.56-2.53-10.81,2.3-10.46Z"/>
      <path class="cls-2" d="M876.84,832.33c-.2,0-.39,0-.59-.03-2.38-.21-4.51-1.67-5.43-3.74-.83-1.86-.58-3.9.68-5.58,1.79-2.39,2.67-5.62,3.68-9.35.39-1.43.8-2.93,1.28-4.49.4-1.29,1.77-2.01,3.06-1.61,1.29.4,2.01,1.77,1.61,3.06-.47,1.5-.86,2.95-1.23,4.33-1.1,4.04-2.13,7.86-4.49,11-.24.32-.2.5-.13.66.17.38.7.8,1.39.86,1.11.09,1.93-.78,2.44-1.53.75-1.12,2.28-1.41,3.39-.66,1.12.75,1.42,2.27.66,3.39-1.6,2.37-3.88,3.69-6.32,3.69Z"/>
      <path class="cls-3" d="M863.95,841.23c.17-1.6,22.09,1.08,25.05-.23,2.96-1.31-.04,23.81-11.07,25.09-11.03,1.28-13.97-24.86-13.97-24.86Z"/>
      <path class="cls-2" d="M877.13,868.57c-2.07,0-4.01-.71-5.79-2.12-7.49-5.95-9.61-23.02-9.82-24.95-.02-.18-.02-.35,0-.53.32-3.13,3.32-2.97,14.45-2.39,4.3.22,10.8.56,12.11.15,1.01-.45,2.2-.26,3.06.51,3.33,2.99-.45,15.24-.49,15.36-2.66,8.34-7.07,13.28-12.44,13.91-.36.04-.72.06-1.08.06ZM866.69,843.14c.91,5.7,3.35,16.02,7.71,19.48,1.06.84,2.09,1.17,3.25,1.03,2.04-.24,3.94-1.74,5.65-4.47,3.16-5.07,4.36-12.31,4.35-15.46-2.32.2-6.02.05-11.92-.26-2.99-.16-6.8-.35-9.03-.32Z"/>
    </g>
    <path class="cls-1" d="M782.3,742.63c3.5-12.91,215.35,17.39,221.36,24.56,6.01,7.17-11.89,162.42-15.25,170.5s-199.69-13.22-214.81-21.58c-15.12-8.36,4.24-157.03,8.7-173.49Z"/>
  </g>
  <path class="cls-3" d="M703.41,1013.76c-19.26-7.96-33.4,31.79-9.3,34.98,24.11,3.19,34.22-24.68,9.3-34.98Z"/>
  <path class="cls-2" d="M697.97,1051.45c-1.34,0-2.73-.09-4.17-.28-7.06-.93-12.02-4.86-13.97-11.05-2.57-8.15.62-19,7.41-25.23,5.07-4.65,11.15-5.86,17.11-3.39,14.61,6.04,17.39,17.17,15.33,24.86-2.05,7.63-9.6,15.08-21.71,15.08ZM698.31,1015.15c-3.3,0-5.95,1.67-7.77,3.34-5.4,4.95-8.06,13.8-6.05,20.15,1.39,4.4,4.73,6.98,9.95,7.67,11.61,1.54,18.78-4.74,20.52-11.22,1.55-5.78-.79-14.25-12.47-19.08-1.48-.61-2.87-.87-4.17-.87Z"/>
</svg>