<?xml version="1.0" encoding="UTF-8"?>
<svg id="_Layer_" data-name="&amp;lt;Layer&amp;gt;" xmlns="http://www.w3.org/2000/svg" xmlns:xlink="http://www.w3.org/1999/xlink" viewBox="0 0 3202.5 1879.5">
  <defs>
    <style>
      .cls-1, .cls-2, .cls-3, .cls-4 {
        fill-rule: evenodd;
      }

      .cls-1, .cls-5 {
        fill: #3f59a8;
      }

      .cls-6 {
        fill: #f9ceb2;
      }

      .cls-7 {
        fill: #5e5d9b;
      }

      .cls-8 {
        fill: #6d72a0;
      }

      .cls-9 {
        fill: #f7b690;
      }

      .cls-10 {
        fill: #fbe9dc;
      }

      .cls-11 {
        fill: #3c79a6;
      }

      .cls-2 {
        fill: #384d94;
      }

      .cls-12 {
        fill: #fff;
      }

      .cls-13 {
        fill: #f5fafa;
      }

      .cls-14, .cls-15, .cls-16, .cls-17 {
        fill: none;
      }

      .cls-18 {
        fill: #f4a086;
      }

      .cls-19 {
        fill: #fa694f;
      }

      .cls-20 {
        fill: #121b4b;
      }

      .cls-21 {
        fill: #9fd9de;
      }

      .cls-22 {
        fill: #f2a966;
      }

      .cls-15 {
        stroke: #121b4b;
        stroke-width: 3.7px;
      }

      .cls-15, .cls-16 {
        stroke-linecap: round;
        stroke-linejoin: round;
      }

      .cls-23 {
        fill: #d0fcff;
      }

      .cls-16 {
        stroke: #fff;
        stroke-width: 4.84px;
      }

      .cls-24 {
        fill: #397eb2;
      }

      .cls-25 {
        fill: #0b0949;
      }

      .cls-26, .cls-27 {
        fill: #ff9985;
      }

      .cls-26, .cls-17 {
        stroke: #f58a80;
        stroke-miterlimit: 10;
        stroke-width: 4.63px;
      }

      .cls-28 {
        fill: #43c4db;
      }

      .cls-29 {
        fill: #7fd0dd;
      }

      .cls-30 {
        fill: #ffb288;
      }

      .cls-31 {
        fill: #8881b6;
      }

      .cls-3 {
        fill: #0a3c5f;
      }

      .cls-32 {
        fill: #f9c29d;
      }

      .cls-33 {
        fill: #8493c2;
      }

      .cls-4 {
        fill: #fdd247;
      }

      .cls-34 {
        fill: #dadae0;
      }

      .cls-35 {
        fill: #26266d;
      }

      .cls-36 {
        fill: #67bae0;
      }

      .cls-37 {
        clip-path: url(#clippath);
      }

      .cls-38 {
        fill: #2186c4;
      }

      .cls-39 {
        fill: #4e96e5;
      }

      .cls-40 {
        fill: #9beaff;
      }
    </style>
    <clipPath id="clippath">
      <path class="cls-14" d="M489.78-1334.11l12.25-.02c-2.05-3.84-4.09-5.12-5.91-5.12-3.63,0-6.34,5.14-6.34,5.14M2507.8-1629.23s-35.3,292.18-373.71,292.18l-1632.06,2.93c6.3,11.78,12.67,47.67,12.67,144.64,0,191.83,22.83,448.6,267.83,448.6h1729.43l-4.15-888.35Z"/>
    </clipPath>
  </defs>
  <rect class="cls-28" x="-183.26" y="-5.53" width="1872.84" height="1936.84"/>
  <path class="cls-5" d="M1643.03,0c-125.25,116.23-123.94,273.16-134.34,318.33-14.98,65-85.26,95.18-142.95,125.91-142.56,75.93-253.27,212.72-299.97,370.66-46.7,157.93-28.79,334.94,48.53,479.6,27.25,50.98,90.56,159.06,166.04,372.69,40.97,102.57,144.91,180.4,273.46,211.84h1648.71V0h-1559.47Z"/>
  <g>
    <g>
      <g>
        <path class="cls-21" d="M2828.23,1852.52c331.15-112.38,643.85-404.95,192.31-578.44-132.76-51.01-278.03-16.57-399.33,52.56-82.15,46.82-158.9,111.7-203.2,202.77-185.46,381.57,119.49,421.78,410.22,323.12Z"/>
        <path class="cls-34" d="M2471.94,1873.38c176.18,38.8,366.09,45.1,546.52,18.11,45.15-6.75,98.35-22.24,103.8-55.07,3-18.09-11.07-35.98-30.72-47.54-19.64-11.56-44.21-17.84-68.56-23.08-120.12-25.87-263.42-36.64-386.93-15.66-50.09,8.51-279.75,97.78-164.11,123.25Z"/>
        <g>
          <g>
            <path class="cls-36" d="M2901.08,1066.5c.02-.17.03-.35.05-.52,12.02,15.27,27.49,19.41,34.41,42.1,5.03,16.49,6.2,34.3,11,50.88,8.35,28.88,32.32,37.41,42.47,65.58,14.64,40.63,19.55,87.68,4.89,129.43-11.47,32.66-34.47,61.6-36.56,96.25-1.36,22.48,6.44,43.94,9.15,66.11,10.03,81.95-57.1,140.45-104.43,193.07-24.59,27.34-20.75,4.97-18.52-19.19,6.19-67.08,12.38-134.15,18.57-201.23,12.99-140.82,25.56-281.7,38.98-422.48Z"/>
            <path class="cls-40" d="M2901.08,1066.49c-14.52,8.11-18.75,23-29.85,34.25-9.22,9.34-22.08,14.64-31.74,24.02-21.09,20.48-36.84,47.97-43.87,77.87-4.59,19.52-5.96,40.73-16.59,57.29-8.03,12.51-20.39,20.73-29.63,32.18-15.65,19.39-21.06,46.72-19.56,72.21,2.79,47.65,23.51,91.37,27.39,138.78,1.98,24.14-2.14,48.63-1.59,72.92,1.1,48.76,43.36,122.92,85.37,141.19-4.22-1.83,11-118.69,11.74-126.72,8.15-88.38,16.31-176.76,24.46-265.13,7.96-86.25,15.6-172.74,23.88-258.85Z"/>
            <path class="cls-13" d="M2840.75,1720.46c1.61.12,3.05-1.23,3.21-3.03l60.03-650.71c.17-1.79-1-3.34-2.61-3.47-1.61-.12-3.04,1.23-3.21,3.03l-60.03,650.71c-.17,1.79,1,3.35,2.61,3.47Z"/>
            <path class="cls-13" d="M2856.21,1552.88c.24.02.5,0,.76-.05,1.6-.35,2.69-2.06,2.43-3.82-.96-6.62-24.23-162.58-88.12-205.31-1.35-.91-3.17-.4-4.04,1.16-.86,1.55-.46,3.54.9,4.45,61.68,41.26,85.24,199.36,85.47,200.95.22,1.48,1.31,2.53,2.59,2.62Z"/>
            <path class="cls-13" d="M2874.22,1357.7c1.18.09,2.37-.63,2.92-1.91.43-.99,43.91-98.94,99.61-94.71,1.61.12,3.04-1.23,3.21-3.03.17-1.79-1-3.34-2.61-3.47-59.74-4.53-103.62,94.32-105.46,98.53-.71,1.64-.12,3.56,1.33,4.3.32.16.66.25.99.28Z"/>
          </g>
          <g>
            <path class="cls-31" d="M2284.84,1308.06c-1.31,62.48,48.87,100.83,59.91,162.89,4.51,25.35,4.84,52.13,16.72,75.05,18.34,35.36,59.85,52.7,99.31,58.26,27.66,3.9,57.91,4.21,79.83,21.59,19.8,15.7,27.86,41.62,42.96,61.85,42.27,56.59,124.32,58.87,187.9,61.54,30.77,1.29,62.26.45,91.21-11.02,1.73-.69,26.73-14.42,26.73-14.42-68.15-46.86-136.29-93.72-204.44-140.58-133.34-91.69-268.16-181.7-400.13-275.26,0,.04,0,.07,0,.11Z"/>
            <path class="cls-33" d="M2284.83,1308.05c2.34,1.61,40.05-10.56,48.04-10.81,22.63-.7,41.8,4.65,60.91,17,20,12.93,41.66,28.62,65.06,24.78,19.72-3.24,34.49-19.7,53.27-26.44,26.38-9.46,55.81,1.66,80.14,15.9,45.58,26.67,81.81,64.2,110.17,108.32,26.43,41.12,57.15,50.85,99.99,72.58,50.69,25.72,60.17,70.42,76.04,119.19,7.25,22.26,15.3,41.47,14.88,65.78-.03,1.8-3.92,29.43-3.91,29.44-2.32-1.6-604.56-415.71-604.6-415.73Z"/>
            <path class="cls-13" d="M2892.44,1725.87c-1.14,1.65-3.4,2.06-5.07.91l-604.6-415.74c-1.67-1.15-2.1-3.41-.96-5.06,1.14-1.65,3.4-2.06,5.07-.91l604.6,415.74c1.67,1.15,2.1,3.41.96,5.06Z"/>
            <path class="cls-13" d="M2736.74,1618.8c-.17.25-.39.49-.63.7-1.53,1.3-3.84,1.11-5.15-.42-4.93-5.76-120.8-141.98-108.18-235.17.27-1.98,2.1-3.37,4.11-3.08,2,.29,3.4,2.13,3.13,4.12-12.19,89.97,105.29,228.04,106.47,229.42,1.1,1.29,1.16,3.11.25,4.43Z"/>
            <path class="cls-13" d="M2555.39,1494.1c-.84,1.21-2.37,1.84-3.9,1.45-1.18-.3-118.76-29.42-158.1,27.76-1.14,1.65-3.4,2.06-5.07.91-1.67-1.15-2.1-3.41-.96-5.06,42.2-61.33,160.86-31.94,165.89-30.66,1.95.5,3.14,2.48,2.66,4.43-.1.43-.29.82-.53,1.17Z"/>
          </g>
          <g>
            <path class="cls-28" d="M2544.71,1046.63c-23.07,40.9-52.46,101.43-39.9,147.21,6.01,21.89,16.79,43.92,17.41,67.42.71,27.09-15.58,46.16-18.61,71.8-12.27,104.02,117.1,109.92,122.47,195.46,1.31,20.95-5.56,42.22-4.58,63.21,1.26,26.92,15.49,50.83,33.92,68.18,33.7,31.73,78.58,53.31,121.71,66.87,29.21,9.19,52.74,26.27,84.93,27.04,1.62.04,27.23-2.32,27.27-2.24-.39-.81-344.64-704.96-344.64-704.96Z"/>
            <path class="cls-29" d="M2544.72,1046.64c6.84,13.57,55.53,12.9,68.49,16.01,31.23,7.52,63.73,21.61,88.53,42.98,16.58,14.29,29.4,35.05,29.91,58.45.19,8.74-1.28,17.92,1.57,25.94,4.22,11.87,16.7,17.64,28.63,19.1,43.47,5.34,79.06,12.74,92.51,64,10.13,38.59,14.75,97.5,10.69,137.34-1.44,14.17-4.2,29.04.4,42.05,4.17,11.78,13.68,20,21.68,29.07,46.61,52.91,62.41,157.49,28.41,224.41-1.16,2.29-25.8,46.35-26.19,45.56-1.99-4.07-344.63-704.94-344.62-704.93Z"/>
            <path class="cls-13" d="M2891.07,1755.1c-1.87,1.13-4.16.48-5.11-1.47l-344.64-704.96c-.95-1.94-.2-4.43,1.67-5.57,1.87-1.13,4.16-.48,5.11,1.47l344.64,704.96c.95,1.94.2,4.43-1.67,5.57Z"/>
            <path class="cls-13" d="M2802.31,1573.56c-.28.17-.6.31-.93.41-2.05.59-4.07-.69-4.51-2.85-1.62-8.14-39.19-200.37,19.29-288.55,1.24-1.87,3.62-2.41,5.32-1.18,1.68,1.23,2.04,3.75.79,5.64-56.47,85.14-18.35,279.99-17.96,281.94.36,1.82-.5,3.69-2,4.59Z"/>
            <path class="cls-13" d="M2698.94,1362.11c-1.38.83-3.09.74-4.3-.37-.93-.86-94-85.7-158.83-46.48-1.87,1.13-4.16.48-5.11-1.47-.95-1.94-.2-4.43,1.67-5.57,69.54-42.06,163.47,43.55,167.43,47.23,1.54,1.43,1.63,3.99.21,5.73-.31.38-.68.7-1.07.93Z"/>
            <path class="cls-13" d="M2834.84,1655.11c-1.38.83-3.09.74-4.3-.37-.93-.86-94-85.7-158.83-46.48-1.87,1.13-4.16.48-5.11-1.47-.95-1.94-.2-4.43,1.67-5.57,69.54-42.06,163.47,43.56,167.43,47.23,1.54,1.43,1.63,3.99.21,5.73-.31.38-.68.7-1.07.93Z"/>
          </g>
        </g>
      </g>
      <g>
        <path class="cls-24" d="M3173.66,1275.85c-46.9,12.21-76.34,57.5-69.95,104.35-21.37,19.29-59.75,69.11-37.52,136.8,0,0,27.69-71.28,59.82-87.48,22.86,26.32,59.36,39.06,95.38,29.68,50.63-13.18,80.99-64.91,67.81-115.54-13.18-50.63-64.91-80.99-115.54-67.81Z"/>
        <g>
          <path class="cls-12" d="M3139.13,1342.84h124.78c3.52,0,6.38-2.86,6.38-6.38s-2.86-6.38-6.38-6.38h-124.78c-3.52,0-6.38,2.86-6.38,6.38s2.86,6.38,6.38,6.38Z"/>
          <path class="cls-12" d="M3139.13,1372.86h124.78c3.52,0,6.38-2.86,6.38-6.38s-2.86-6.38-6.38-6.38h-124.78c-3.52,0-6.38,2.86-6.38,6.38s2.86,6.38,6.38,6.38Z"/>
          <path class="cls-12" d="M3139.13,1402.88h124.78c3.52,0,6.38-2.86,6.38-6.38s-2.86-6.38-6.38-6.38h-124.78c-3.52,0-6.38,2.86-6.38,6.38s2.86,6.38,6.38,6.38Z"/>
        </g>
      </g>
      <g>
        <path class="cls-40" d="M3052.38,993.72c37.3,0,68.01,28.03,72.34,64.16,19.66,10.22,39.9,27.19,47.4,55.05,0,0-27.37-8.14-54.45-13.99-11.92,24.04-36.64,40.61-65.29,40.61-40.27,0-72.92-32.65-72.92-72.92s32.65-72.92,72.92-72.92Z"/>
        <g>
          <path class="cls-12" d="M3048.99,1099.22c-2.38-.21-4.54-1.78-5.38-4.19-3.12-9.02-1.03-19.46,5.33-26.58,3.19-3.57,6.95-5.92,10.59-8.19,2.71-1.69,5.27-3.29,7.22-5.21,5.23-5.14,6.51-14.17,2.92-20.56-3.59-6.39-11.96-10-19.07-8.2-7.11,1.79-12.78,8.93-12.91,16.26-.06,3.46-2.92,6.21-6.37,6.14-3.46-.06-6.21-2.92-6.14-6.37.24-12.91,9.85-25.01,22.37-28.17,12.52-3.15,26.72,2.96,33.04,14.21,6.32,11.25,4.14,26.56-5.06,35.61-2.93,2.88-6.21,4.93-9.38,6.9-3.03,1.89-5.88,3.67-7.88,5.9-3.33,3.73-4.47,9.42-2.84,14.15,1.13,3.27-.6,6.83-3.87,7.96-.86.3-1.74.4-2.58.32Z"/>
          <path class="cls-12" d="M3055.9,1113.63c-.3,3.44-3.33,5.99-6.78,5.69s-5.99-3.33-5.69-6.77c.3-3.44,3.33-5.99,6.77-5.69,3.44.3,5.99,3.33,5.69,6.78Z"/>
        </g>
      </g>
    </g>
    <g>
      <g>
        <path class="cls-9" d="M2569.99,1572.2c-1.14,10.6-1.78,21.88,3.1,31.36,4.87,9.48,17.23,15.9,26.57,10.75,5.26-2.9,8.28-8.56,11.01-13.91,15.34-30.05,30.68-60.11,46.02-90.16,12.65-24.78,25.63-51.07,24.03-78.84-.74-12.83-4.77-25.63-12.53-35.87-6.78-8.95-21.5-23.21-31.63-12.74-10.09,10.42-17.01,28.61-23.39,41.51-14.74,29.78-26.1,61.24-33.8,93.56-4.26,17.89-7.4,36.06-9.37,54.34Z"/>
        <path class="cls-4" d="M2680.59,1437.29c-.83-14.28-5.31-28.51-13.94-39.92-7.54-9.96-11.95-34.99-23.22-23.34-11.22,11.6-30.9,41-38,55.36-9.35,18.89-17.43,38.39-24.27,58.32l73.54,35.66c13.8-27.09,27.65-55.79,25.89-86.07Z"/>
        <path class="cls-9" d="M2572.29,1570.13c7.46-9.09,20.31-12.27,32-10.97,11.69,1.3,22.56,6.4,33.18,11.45,19.47,9.25,38.93,18.53,58.38,27.81,20.08,9.58,40.17,19.17,60.25,28.75,3.13,1.49,6.57,3.34,7.58,6.65,1.08,3.55-1.28,7.43-4.5,9.29-3.22,1.86-7.07,2.16-10.78,2.35-30.14,1.57-60.48-1.3-89.83-8.33-14.82-3.55-29.38-8.15-43.55-13.77-12.17-4.83-29.43-10.18-39.26-19.11-9.4-8.54-11.77-24.01-3.48-34.11Z"/>
      </g>
      <g>
        <path class="cls-2" d="M2698.41,1637.86c22.38-3.28,128.62-3.28,151,0,27.84,4.07,23.65,38.72,20.14,59.45-3.83,22.62-8.51,46.9-25.13,62.71-16.24,15.44-124.78,15.44-141.01,0-16.62-15.81-21.3-40.09-25.13-62.71-3.51-20.73-7.7-55.37,20.14-59.45Z"/>
        <path class="cls-2" d="M3088.22,1732.86c11.69,12.89,19.31,34.02,9.18,47.41-8.58,11.34-248.43-10.97-283.9-10.97-25.2-32.12-24.21-80.91,40.38-113.78,13.82-7.03,28.99.36,44,3.52,43.45,9.14,161.31,41.82,190.34,73.82Z"/>
        <path class="cls-2" d="M2569.61,1503.93c-17.33-1.51-36.46,5.23-44.9,20.44-6.9,12.44-5.42,28.16.39,41.15,5.81,12.98,15.45,23.81,24.94,34.4,137.15,153.2,139.36,160.14,162.29,166.29,39.08,10.48,86.25-.16,51.62-89.89-5.58-14.46-151.29-168.65-194.34-172.39Z"/>
        <path class="cls-9" d="M2691.65,1817.24c-9.13-5.33-27.23-28.86-48.43-59.86l39.89-14.06c13.04,46.27,18.11,79.5,8.54,73.91Z"/>
        <path class="cls-1" d="M2534.87,1506.49c24.33-11.74,48.31-8.68,67.74,22.81,26.19,42.45,61.34,146.06,80.49,214.04l-45.76,20.74c-28.97-66.1-86.07-151.84-108.19-190.79-12.4-21.84-13.48-57.54,5.72-66.79Z"/>
        <g>
          <path class="cls-9" d="M2812.63,1774.01l19.8,37.02c-29.58,1.95-53.39,2.29-63.42-1.87-10.09-4.18,10.06-18.94,43.62-35.15Z"/>
          <path class="cls-1" d="M3046.8,1732.23c36.99,0,55.26,19.02,55.26,32.42,0,22.78-14.06,47.14-49.09,47.14-44.55,0-156.17-1.52-224.62,3.15l-15.72-40.93c50.51-24.4,180.07-41.78,234.18-41.78Z"/>
          <path class="cls-3" d="M2754.36,1803.97c1.35-.84,11.54-15.87,18.19-18.53,3.86-1.54,9.07-3.99,13.2-1.97,4.69,2.3,4.9,8.81,7.69,12.73,2.09,2.95,4.95,5.36,8.2,6.97l6.47-8.69c22.9,10.58,4.71,37.2,27.68,48.16,5.55,2.65,11.6,4.5,16.36,8.39,4.76,3.89,7.77,10.99,4.61,16.26-1.19,1.98-3.08,3.36-5.24,4.2l-74.01-35.91s-.44-14.98,1.67-16.66c-2.51,1.02-8.4,3.76-11.09,3.8l-13.73-18.76Z"/>
        </g>
        <path class="cls-3" d="M2641.59,1819.2c-.24-6.12,2.31-11.2,4.94-12.62,2.63-1.43,6.73-11.69,12.17-26.71,2.49-6.87,16.36-8.79,23.29,3.04,2.25,3.84,4.33,6.33,6.86,6.24,2.11-.07,4.48-3.74,6.51-1.32,1.79,2.14,2.28,7.79,2.73,11.82.78,6.94,1.49,13.92,2.24,20.88.17,1.54.33,3.15.38,4.74h-57.85c-.69-1.7-1.18-3.77-1.27-6.07Z"/>
      </g>
      <g>
        <path class="cls-9" d="M2977.84,1572.2c1.14,10.6,1.78,21.88-3.1,31.36-4.87,9.48-17.23,15.9-26.57,10.75-5.26-2.9-8.28-8.56-11.01-13.91-15.34-30.05-30.68-60.11-46.02-90.16-12.65-24.78-25.63-51.07-24.03-78.84.74-12.83,4.77-25.63,12.53-35.87,6.77-8.95,21.5-23.21,31.63-12.74,10.09,10.42,17.01,28.61,23.39,41.51,14.74,29.78,26.1,61.24,33.8,93.56,4.26,17.89,7.4,36.06,9.37,54.34Z"/>
        <path class="cls-4" d="M2867.13,1437.29c.83-14.28,5.31-28.51,13.94-39.92,7.54-9.96,11.95-34.99,23.22-23.34,11.22,11.6,30.9,41,38,55.36,9.35,18.89,17.43,38.39,24.27,58.32l-73.54,35.66c-13.8-27.09-27.65-55.79-25.89-86.07Z"/>
        <path class="cls-9" d="M2973.57,1575.38c-7.46-9.09-20.31-12.27-32-10.97-11.69,1.3-22.56,6.4-33.18,11.45-19.47,9.25-38.93,18.53-58.38,27.81-20.08,9.58-40.17,19.17-60.25,28.75-3.13,1.49-6.57,3.34-7.58,6.65-1.08,3.55,1.28,7.43,4.5,9.29,3.22,1.86,7.07,2.16,10.78,2.35,30.14,1.57,60.48-1.3,89.83-8.33,14.82-3.55,29.38-8.15,43.54-13.77,12.17-4.83,29.43-10.18,39.26-19.11,9.4-8.54,11.77-24.01,3.48-34.11Z"/>
      </g>
      <path class="cls-4" d="M2640.43,1377.35c7.17-8.68,17.96-13.41,28.52-17.28,31.05-11.39,102.27-41.18,104.96-41.12,2.69-.06,73.91,29.74,104.96,41.12,10.57,3.87,21.36,8.61,28.52,17.28,9.56,11.57,10.81,28.2,7.37,42.82-3.44,14.61-10.93,27.88-17.48,41.39-8.17,16.85-14.92,34.39-20.23,52.35-9.58,32.45-14.42,66.3-14.27,100.13.05,10.37,5.56,27.92,2.37,37.7-4,12.29-25.2,15.07-35.9,16.45-18.34,2.36-36.87,3.15-55.35,2.37-18.47.77-37.01-.01-55.35-2.37-10.7-1.38-31.9-4.16-35.9-16.45-3.19-9.79,2.32-27.33,2.37-37.7.15-33.83-4.69-67.68-14.27-100.13-5.3-17.96-12.06-35.49-20.23-52.35-6.55-13.51-14.04-26.78-17.48-41.39-3.44-14.61-2.19-31.24,7.37-42.82Z"/>
      <g>
        <path class="cls-18" d="M2750.5,1315.31c2.9-9.32,4.45-26.74,10.21-32.94,3.46-3.72,21.5-3.72,24.96,0,5.76,6.2,7.31,23.62,10.21,32.94,3.24,10.44,6.07,22.95,2.68,33.28-2.37,7.23-7.39,11.57-12.48,13.03-4.25,1.22-21.54,1.22-25.79,0-5.09-1.46-10.11-5.8-12.48-13.03-3.39-10.32-.56-22.84,2.68-33.28Z"/>
        <path class="cls-9" d="M2734.97,1236.85c5.81-16.93,70.63-16.93,76.44,0,4.62,13.47,5.28,28.66,2.65,42.84-2.48,13.39-7.89,25.52-15.48,35.57-5.17,6.86-11.91,16.96-19.44,20.37h-11.91c-7.53-3.41-14.27-13.51-19.44-20.37-7.58-10.05-12.99-22.18-15.48-35.57-2.63-14.18-1.97-29.38,2.65-42.84Z"/>
        <path class="cls-3" d="M2736.92,1281.74c-.8-4-2.56-7.77-3.34-11.78-.78-4.01-2.21-8.61.7-11.48,2.66,12.28,7.85,24.41,11.88,36.31.87,2.58,1.83,5.23,3.74,7.18,2.34,2.38,5.75,3.33,9.04,3.9,3.61.64,13.14-3.43,14.25-3.36,1.1-.07,10.64,3.99,14.25,3.36,3.29-.58,6.7-1.52,9.04-3.9,1.91-1.94,2.87-4.6,3.74-7.18,4.03-11.9,7.39-24.03,10.04-36.31,2.91,2.86,3.32,7.47,2.54,11.48-.78,4.01-2.54,7.77-3.34,11.78-.06.32-.12.63-.17.95-.39,2.62-.3,5.44.79,7.9.5,1.12,1.17,1.85,1.21,3.09.04,1.15-.46,2.57-.68,3.7-1.07,5.44-2.64,10.77-4.67,15.92-2.03,5.15-4.53,10.12-7.43,14.84-1.45,2.36-3.01,4.66-4.66,6.88-.69.93-3.94,6.21-5.03,6.21l-12.67,3.62h-5.9l-12.67-3.62c-1.09,0-4.33-5.28-5.03-6.21-1.65-2.23-3.21-4.52-4.66-6.88-2.91-4.72-5.4-9.69-7.44-14.84-2.03-5.15-3.61-10.48-4.67-15.92-.22-1.13-.72-2.55-.68-3.7.04-1.24.71-1.96,1.21-3.09,1.09-2.46,1.18-5.28.79-7.9-.05-.32-.1-.64-.17-.95Z"/>
        <path class="cls-3" d="M2709.71,1201.79c7.89-10.47,22.42-14.58,34.08-9.52,4.9,2.13,9.31,5.68,14.5,6.77,6.06,1.27,12.24-1.02,18.02-3.34,5.78-2.33,11.85-4.78,17.97-3.85,6.12.93,12.08,6.61,11.29,13.16,8.25-3.25,18.26-.53,24.04,6.54,5.79,7.07,6.97,18.03,2.85,26.33-2.49,5.01-6.67,9.02-8.49,14.35-2.08,6.09.32,20.72-6.95,23.52-5.61,2.16-8.73-42.43-24.46-43.55-8.35,8.92-22.25,11.2-32.71,5.36-3.93-2.19-8.09-5.5-12.31-4.07-2.82.95-6.29,2.31-8.11,4.82-4.39,6.06-3.1,33.66-9.16,38.22-3.24-9.75-4.51-20.22-3.8-30.54-2.74.07-5.49-.37-8.05-1.41-7.43-3.04-12.98.33-14.51-8.01-1.53-8.34.81-28.15,5.8-34.77Z"/>
        <path class="cls-9" d="M2821.38,1278.6c1.56-2.89,2.86-6.18,2.42-9.49-.43-3.31-3.18-6.45-6.28-6.07-1.92.24-3.54,1.72-4.53,3.49-.99,1.77-1.44,3.81-1.88,5.82-.77,3.5-1.54,7-2.31,10.5-.65,2.94-1.03,6.68,1.3,8.39,4.27,3.13,9.58-9.49,11.28-12.64Z"/>
        <path class="cls-9" d="M2725.5,1278.6c-1.56-2.89-2.86-6.18-2.42-9.49.43-3.31,3.18-6.45,6.28-6.07,1.92.24,3.54,1.72,4.53,3.49.99,1.77,1.44,3.81,1.88,5.82.77,3.5,1.54,7,2.31,10.5.65,2.94,1.03,6.68-1.3,8.39-4.27,3.13-9.58-9.49-11.28-12.64Z"/>
      </g>
      <path class="cls-23" d="M2677.49,1655.56h196.6c9.19,0,16.86-7.05,17.63-16.21l10.21-121.49c.87-10.32-7.27-19.17-17.63-19.17h-217.01c-10.35,0-18.49,8.85-17.63,19.17l10.21,121.49c.77,9.16,8.43,16.21,17.63,16.21Z"/>
      <path class="cls-11" d="M2901.49,1523.05c-1.87-7.69-8.8-13.5-17.19-13.5h-217.01c-8.39,0-15.32,5.81-17.19,13.5l-.44-5.2c-.87-10.32,7.27-19.17,17.63-19.17h217.01c10.35,0,18.49,8.85,17.63,19.17l-.44,5.2Z"/>
    </g>
  </g>
  <g>
    <path class="cls-20" d="M1654.02,511.88c-6.04,17.9-8.58,37.59-19.41,52.93-9.3,13.1-23.73,21.57-34.03,33.87-10.31,12.3-15.48,32.21-4.37,44.46,5.27,5.81,13.16,8.65,18.42,14.44,14.81,16.33.7,40.74-4.21,61.77-5.51,23.55,3,50.3,21.27,66.87,13.13,11.91,32.02,20.88,35.07,38.23,2.38,13.67-6.59,28.23-.54,40.82,8.89,18.47,37.84,12.2,53.77,25.12,11.21,9.11,13.03,25.1,18.32,38.49,9.87,24.99,35.24,43.32,61.66,44.54,14.12.64,28.75-3.09,42.08,2.07,17.2,6.68,27.86,26.67,45.78,30.6,37.27,8.11,44.16-36.15,68.34-60.37,30.41-30.5,91.68-28.6,104.15-70.29,2.93-9.76,2.73-21.38,9.99-28.41,7.37-7.15,19.66-6.59,27.77-12.88,15.19-11.8,7.5-38.28,13.69-55.76,1.02-1.49,6.26-10.2,7.45-11.09,60.94-96.48,66.59-209.35,4.19-279.06-51.68-57.76-137.72-72-223.98-46.19-.81-.68-1.28-1.46-2.12-2.13-19.78-15.88-43.51-19.33-68.06-17.05-45.04,4.18-57.5,45.77-94.48,54.65-14.15,3.38-29.05-5.32-43.55-3.78-18.79,1.98-31.15,20.24-37.19,38.14Z"/>
    <g>
      <path class="cls-27" d="M1735.88,973.67l-310.39,56.86-7.77,34.49c9.31,49.3,42.22,91.83,92.43,89.12l253.4-13.79-27.67-166.68Z"/>
      <path class="cls-12" d="M1977.94,1138.37c-126.02,29.18-190.32,40.17-304.88,44.49-17.12.62-31.66-13.1-32.83-30.96l-11.58-176.61c-3.68-56.02,68.29-52.66,321.51-96.42,124.09-21.45,152.96,230.51,27.79,259.49Z"/>
      <path class="cls-27" d="M1569.8,1057.79c-6.17-40.27-14.86-92.66-30.61-145.54-18.87-147.22-34.08-264.72-43.79-389.57-.45-5.75,1.44-19.3.86-33.88l-69.33-5.4c-19.49,160.13-55.23,554.17,17.07,640.31,18.57,22.13,46.37,39.34,107.93,11.83,30.85-13.78,23.06-43.86,17.87-77.75Z"/>
      <g>
        <path class="cls-27" d="M1559.6,434.75c-4.89-3.7-12.83-2.2-17.64,3.34l-43.43,50c-4.81,5.54-4.74,13.1.15,16.8,4.89,3.7,12.83,2.2,17.64-3.34l43.43-50c4.81-5.54,4.74-13.1-.15-16.8Z"/>
        <path class="cls-27" d="M1412.28,458.72c3.63-9.83,8.28-19.6,15.1-25.35,5.28-4.46,11.38-6.1,17.31-7.31,15.29-3.11,30.66-3.92,45.76-2.4,13.85,1.39,29.4,6.74,34.4,24.23,4.84,16.91.33,36.16-8.31,51.75-16.37,29.55-22.47,39.99-46.75,54.9-30.41,18.67-55.84,14.31-58.86-29.99-1.56-22.8-6.54-44.45,1.34-65.83Z"/>
        <path class="cls-27" d="M1503.75,452.98l-7.21-86.05c-.49-5.83,4.18-11.64,10.37-12.92,6.19-1.27,11.66,2.45,12.15,8.28l7.21,86.04c.49,5.83-4.18,11.64-10.37,12.92-6.19,1.28-11.66-2.45-12.15-8.28Z"/>
        <path class="cls-27" d="M1472.54,450.69l-7.21-86.04c-.49-5.83,4.18-11.64,10.38-12.92,6.19-1.27,11.66,2.45,12.15,8.28l7.21,86.04c.49,5.83-4.18,11.64-10.37,12.92-6.19,1.27-11.66-2.45-12.15-8.28Z"/>
        <path class="cls-27" d="M1442.04,468.31l-7.21-86.05c-.49-5.83,4.18-11.64,10.37-12.92,6.19-1.28,11.66,2.45,12.15,8.28l7.21,86.04c.49,5.83-4.18,11.64-10.37,12.92-6.19,1.27-11.66-2.45-12.15-8.28Z"/>
        <path class="cls-27" d="M1415.19,496.56l-7.21-86.04c-.49-5.83,4.18-11.64,10.38-12.92,6.19-1.28,11.66,2.45,12.15,8.28l7.21,86.05c.49,5.83-4.18,11.64-10.37,12.92-6.2,1.27-11.66-2.45-12.15-8.28Z"/>
      </g>
    </g>
    <g>
      <path class="cls-27" d="M2280.82,1166.66l118.69,230.02-21.81,27.81c-36.82,18.7-81.83,7.31-105.25-26.65l-114.2-165.5,122.57-65.68Z"/>
      <path class="cls-12" d="M2051.96,1092.19c44.21,96.44,69.32,143.7,123.98,220.23,8.19,11.42,24.43,13.98,36.66,5.78l120.97-81.11c38.37-25.72.07-70.76-98.47-257.09-48.29-91.32-227.06,16.39-183.14,112.18Z"/>
      <path class="cls-27" d="M2293.38,1343.31c17.36-28.64,40.45-65.69,69.05-100.9,60.67-105.86,109.2-190.3,155.87-282.05,2.15-4.23,4.98-15.11,10.01-26l54.34,17.62c-35.61,127.68-132.51,438.06-214.52,480.8-21.07,10.98-47.59,15.34-85.67-24.84-19.09-20.13-3.7-40.53,10.91-64.63Z"/>
      <g>
        <path class="cls-27" d="M2490.11,882.79c4.88-1.28,10.44,2.35,12.34,8.06l17.23,51.57c1.91,5.71-.52,11.43-5.4,12.71-4.88,1.28-10.43-2.35-12.34-8.06l-17.23-51.57c-1.91-5.71.52-11.43,5.4-12.71Z"/>
        <path class="cls-27" d="M2594.42,947.15c.34-8.6-.12-17.47-3.49-23.98-2.61-5.04-6.72-8.2-10.85-10.97-10.63-7.15-22.04-12.58-33.99-16.16-10.96-3.28-24.44-4.09-33.75,7.61-8.99,11.32-11.63,27.35-9.98,41.89,3.13,27.56,4.47,37.4,18.22,56.33,17.21,23.7,37.89,28.36,54.13-4.32,8.36-16.82,18.96-31.7,19.7-50.4Z"/>
        <path class="cls-27" d="M2526.78,914.12l32.56-63.07c2.21-4.27.49-10.15-3.81-13.06-4.3-2.91-9.63-1.79-11.83,2.48l-32.56,63.07c-2.21,4.27-.49,10.15,3.81,13.06,4.3,2.91,9.63,1.79,11.83-2.48Z"/>
        <path class="cls-27" d="M2551.2,922.17l32.56-63.07c2.21-4.27.49-10.15-3.81-13.06-4.3-2.91-9.63-1.79-11.83,2.48l-32.56,63.07c-2.2,4.27-.49,10.15,3.81,13.06,4.3,2.91,9.63,1.79,11.83-2.48Z"/>
        <path class="cls-27" d="M2568.8,945.11l32.56-63.07c2.21-4.27.49-10.15-3.81-13.06-4.3-2.91-9.63-1.79-11.83,2.48l-32.56,63.07c-2.2,4.27-.49,10.15,3.81,13.06,4.3,2.91,9.63,1.79,11.83-2.48Z"/>
        <path class="cls-27" d="M2580.3,974.97l32.56-63.07c2.21-4.27.49-10.15-3.81-13.06-4.3-2.91-9.63-1.79-11.83,2.48l-32.56,63.07c-2.21,4.27-.49,10.15,3.81,13.06,4.3,2.91,9.63,1.8,11.83-2.48Z"/>
      </g>
    </g>
    <path class="cls-30" d="M2548.61,877.48s.19-.1.19-.1l.39-.24-.58.34Z"/>
    <path class="cls-12" d="M1811.18,1448.84c5.15,184.77-116.87,243.16-136.82,430.46h636.63c-3.57-106.2-24.8-98.69-43.09-310.68-18.1-209.84,19.32-343.65,10.41-452.78.09-4.54-.43-8.69-1.08-12.81-.94-5.98-2.33-11.84-3.95-17.65-4.65-16.34-9.54-34.56-15.32-52.72-13.07-41.13-37.76-78.07-71.4-106.39-120.4-101.38-236.43-58.47-316.32-9.66l-27.49,17.67c-129.5,83.24-81.32,273.73-81.32,273.73,16.09,92.78,46.84,137.44,49.73,240.83Z"/>
    <g>
      <path class="cls-20" d="M2001.08,721.55c-21.97-16.47-66.11-32.62-82.99-46.55-11.39-9.4-22.94-19.4-31.41-31.28-4.3-6.04-9.81-15.88-12.09-32.15.04.2,9.33-16.8,1.85-4.34,17.71-29.47,21.97-58.33,17.07-84.34,3.65-14.79,10.12-31.35,27.93-50.51,39.6-42.61,61.61-37.5,87.57-47.6,25.48-9.92,24.29-7.2,57.08-12.15,28.68-4.33,58.75,4.87,80.98,23.34,0,0,12.73,12,17.02,17.99,4.62,6.44,8.66,13.29,12.88,20,7.22,4.09,33.72,21.33,37.09,41.2,6.61,39.03-4.95,55.64-4.95,55.64-19.82-3.02-38.12-29.44-55.12-25.89-7.62,2.28-10.94,3.48-15.35,6.23-23.74,14.86-43.35,26.96-51.18,55.98-6.42,23.79,2.34,52.76-15.08,71.03-15.56,16.32-44.85,15.37-61.76,30.51-4.15,3.72-7.11,8.14-9.54,12.88Z"/>
      <path class="cls-20" d="M1852.33,607.16c3.41,19.25,73.54,109.23,101.76,131.05.12.09,27.48,44.17,27.6,44.09,32.96-25.01,6.03-98.47,6.03-98.47-6.97-7.11-10.29-21.65-7.64-37.55,3.52-21.12,16.19-36.57,28.31-34.51.92.16,1.61.94,2.44,1.35l-69.74-86.47c-15.68,35.74-102.67,1.85-88.75,80.52Z"/>
    </g>
    <g>
      <path class="cls-20" d="M1957.05,687.64c11.45-7.6,21.62-17.17,29.67-28.36,14.37-19.98,22.02-44.17,35.9-64.5,16.83-24.66,61.2-67.26,136.13-70.97,7.29-.36,18.28-.48,20.69-9.11.73-2.61-.04-6.46-1.41-10.65-2.66-8.16-7.73-17.72-9.47-22.65-.68-1.93-1.42-3.94-2.97-5.26-1.39-1.18-3.24-1.63-5.02-2.04-15.46-3.56-30.92-7.12-46.37-10.69-21.26-4.9-42.61-9.81-64.36-11.34-18.07-1.28-37.37.16-52.24,10.62-24.02,16.9-28.31,50.28-41.64,76.59-3.06,6.04-6.71,11.72-10.62,17.22l-9.53-8.81c-2.23,8.14-3.76,17.18-4.73,26.87-6.53,7.67-13.27,15.21-19.7,22.92l27.87,68.62c3.39,14.57,7.63,30,13.18,46.7,6.11,18.37,14.35,33.66,24.49,45.22.44-.52,1.62-57.58,1.62-57.58-8.59-.8-16.15-5.53-21.5-12.79Z"/>
      <path class="cls-27" d="M2178.04,504.05c1.37,4.19,2.14,8.04,1.41,10.65-2.42,8.63-13.4,8.75-20.69,9.11-74.92,3.71-119.29,46.31-136.13,70.97-13.88,20.33-21.53,44.52-35.9,64.5-8.05,11.2-18.22,20.77-29.67,28.36,5.34,7.26,12.91,11.99,21.5,12.79l-1.17,57.06-3.33,162.2c-.24,11.77,7.03,21.55,16.15,21.74l66.35,1.35c9.12.19,16.78-9.29,17.03-21.06l2.8-136.35c4.8.72,9.66,1.25,14.64,1.35,62.89,1.29,115.4-48.82,116.68-111.36l1.88-91.53c.64-30.87-11.63-58.9-31.55-79.78ZM2096.96,619.11c-.11,7.04-3.92,12.69-8.51,12.62s-8.22-5.84-8.11-12.88c.11-7.04,3.92-12.69,8.51-12.62l14.13.22-6.99,6.76c.59,1.79,1,3.74.96,5.9ZM2101.68,586.75l-27.81-.43c-4.06-.06-7.34-3.43-7.27-7.49.06-4.05,3.44-7.32,7.5-7.26l27.81.43c4.06.06,7.33,3.43,7.27,7.49-.06,4.05-3.44,7.32-7.5,7.25ZM2155.74,681.44l-12.48,3.83c-7.19,2.21-13.8-5.23-12.12-13.65l.28-1.4c2.23,3.72,6.09,6.04,10.39,4.72l12.48-3.83c5.12-1.57,8.42-6.54,9.2-12.13l.87,2.48c2.91,8.29-1.14,17.69-8.61,19.98ZM2196.83,620.67c-.11,7.04-3.92,12.69-8.51,12.62-4.59-.07-8.22-5.84-8.11-12.88.11-7.04,3.92-12.69,8.51-12.62l14.13.22-6.99,6.76c.59,1.79,1,3.74.97,5.9ZM2203.41,588.34l-21.59-.34c-3.15-.05-5.68-3.41-5.62-7.46.06-4.05,2.7-7.33,5.85-7.28l21.59.34c3.15.05,5.68,3.4,5.62,7.46-.06,4.05-2.7,7.33-5.85,7.28Z"/>
      <path class="cls-20" d="M2109.18,579.5c.06-4.05-3.21-7.42-7.27-7.49l-27.81-.43c-4.06-.06-7.44,3.2-7.5,7.26-.06,4.05,3.21,7.42,7.27,7.49l27.81.43c4.06.06,7.44-3.2,7.5-7.25Z"/>
      <path class="cls-20" d="M2203.64,573.6l-21.59-.34c-3.15-.05-5.79,3.23-5.85,7.28-.06,4.05,2.47,7.41,5.62,7.46l21.59.34c3.15.05,5.79-3.23,5.85-7.28.06-4.06-2.47-7.41-5.62-7.46Z"/>
      <path class="cls-19" d="M2163.48,658.98c-.77,5.6-4.08,10.56-9.2,12.13l-12.48,3.83c-4.3,1.32-8.15-1-10.39-4.72l-.28,1.4c-1.68,8.42,4.92,15.86,12.12,13.65l12.48-3.83c7.47-2.29,11.52-11.7,8.61-19.98l-.87-2.48Z"/>
      <path class="cls-20" d="M2088.85,606.22c-4.59-.07-8.4,5.58-8.51,12.62-.11,7.04,3.52,12.81,8.11,12.88s8.4-5.58,8.51-12.62c.03-2.16-.37-4.11-.96-5.9l6.99-6.76-14.13-.22Z"/>
      <path class="cls-20" d="M2188.72,607.78c-4.59-.07-8.4,5.58-8.51,12.62-.11,7.04,3.52,12.81,8.11,12.88,4.59.07,8.4-5.58,8.51-12.62.03-2.16-.38-4.11-.97-5.9l6.99-6.76-14.13-.22Z"/>
    </g>
    <path class="cls-27" d="M1980.37,880.5h90.63c25.34,0,46.06,20.68,46.06,45.95s-20.72,45.96-46.06,45.96h-90.63c-25.33,0-46.06-20.68-46.06-45.96s20.73-45.95,46.06-45.95Z"/>
    <path class="cls-12" d="M2108.11,706.26l44.99,9.8s-27.32,19.18-44.99-9.8Z"/>
  </g>
  <g>
    <g>
      <g>
        <rect class="cls-35" x="930.56" y="1520.45" width="1.53" height="159.77"/>
        <polygon class="cls-35" points="931.6 1679.99 933.07 1680.51 964.73 1526.18 963.26 1525.67 931.6 1679.99"/>
        <polygon class="cls-35" points="932.65 1680.13 933.97 1681.12 995.13 1542.76 993.81 1541.76 932.65 1680.13"/>
        <polygon class="cls-35" points="933.63 1680.61 934.71 1682.02 1021.21 1569.05 1020.13 1567.64 933.63 1680.61"/>
        <polygon class="cls-35" points="934.49 1681.41 935.25 1683.14 1041.19 1603.25 1040.42 1601.53 934.49 1681.41"/>
        <polygon class="cls-35" points="935.16 1682.48 935.55 1684.4 1053.71 1643.05 1053.31 1641.12 935.16 1682.48"/>
        <rect class="cls-35" x="935.6" y="1683.73" width="122.32" height="1.99"/>
        <polygon class="cls-35" points="935.77 1685.09 935.37 1687.01 1053.52 1728.36 1053.92 1726.44 935.77 1685.09"/>
        <polygon class="cls-35" points="935.67 1686.46 934.9 1688.18 1040.84 1768.07 1041.6 1766.34 935.67 1686.46"/>
        <polygon class="cls-35" points="935.3 1687.75 934.22 1689.16 1020.71 1802.13 1021.79 1800.72 935.3 1687.75"/>
        <polygon class="cls-35" points="934.68 1688.87 933.36 1689.86 994.52 1828.23 995.84 1827.23 934.68 1688.87"/>
        <polygon class="cls-35" points="933.87 1689.74 932.39 1690.26 964.05 1844.58 965.53 1844.07 933.87 1689.74"/>
        <rect class="cls-35" x="931.38" y="1690.31" width="1.53" height="159.77"/>
        <polygon class="cls-35" points="931.87 1690.54 930.39 1690.02 898.74 1844.35 900.21 1844.86 931.87 1690.54"/>
        <polygon class="cls-35" points="930.82 1690.4 929.5 1689.4 868.34 1827.77 869.66 1828.77 930.82 1690.4"/>
        <polygon class="cls-35" points="929.83 1689.92 928.75 1688.51 842.26 1801.48 843.34 1802.89 929.83 1689.92"/>
        <polygon class="cls-35" points="928.98 1689.12 928.21 1687.39 822.28 1767.28 823.04 1769 928.98 1689.12"/>
        <polygon class="cls-35" points="928.31 1688.05 927.91 1686.13 809.76 1727.48 810.15 1729.4 928.31 1688.05"/>
        <rect class="cls-35" x="805.55" y="1684.81" width="122.32" height="1.99"/>
        <polygon class="cls-35" points="927.7 1685.44 928.09 1683.52 809.94 1642.16 809.55 1644.09 927.7 1685.44"/>
        <polygon class="cls-35" points="927.8 1684.07 928.56 1682.35 822.63 1602.46 821.87 1604.19 927.8 1684.07"/>
        <polygon class="cls-35" points="928.17 1682.78 929.25 1681.37 842.76 1568.4 841.68 1569.81 928.17 1682.78"/>
        <polygon class="cls-35" points="928.79 1681.66 930.11 1680.67 868.95 1542.3 867.63 1543.3 928.79 1681.66"/>
        <polygon class="cls-35" points="929.6 1680.79 931.07 1680.27 899.41 1525.95 897.94 1526.46 929.6 1680.79"/>
      </g>
      <path class="cls-35" d="M790.82,1689.62c0,103.15,64.03,186.79,143.02,186.79s143.01-83.64,143.01-186.79-64.03-186.82-143.01-186.82-143.02,83.64-143.02,186.82ZM812.77,1689.62c0-87.35,54.2-158.14,121.06-158.14s121.05,70.79,121.05,158.14-54.2,158.11-121.05,158.11-121.06-70.79-121.06-158.11Z"/>
    </g>
    <path class="cls-5" d="M1447.95,1615.2c2.38,7.44,4.76,14.89,7.14,22.33,3.16,9.87,6.32,19.76,10.23,29.31,5.46,13.32,12.4,26.01,16.38,39.92,2.94,10.31,4.2,21.1,6.89,31.49,4.13,15.98,11.55,30.71,17.49,46.02,5.94,15.31,8.33,35.16,6.22,51.6-.27,2.11-.58,2.61-2.54,2.32-1.35-.19-.7-2.8-1.23-4.14-27.43-69.05-52.05-139.39-73.77-210.75-4.76-15.65-9.41-31.48-11.06-47.86-.34-3.36-.54-6.85.46-10.06,1-3.21,5.81-124.82,8.93-125.22,8.67-1.11,4.67,135.85,5.67,141.37,2.09,11.5,5.65,22.61,9.18,33.67Z"/>
    <path class="cls-5" d="M1329.98,1631.66c.42,9.16,2.37,18.16,3.43,27.26,2.48,21.36.01,43.02.97,64.53,1.65,37.22,13.49,74.36,7.47,111.05-1.23-5.23-1.85-10.6-2.47-15.95-9.28-80.35-18.58-160.96-18.38-241.93,0-3.4,6.67-129.53,8.77-132.08,9.17-11.19,3.03,141.09,2.95,144.43-.36,14.27-3.39,28.37-2.73,42.69Z"/>
    <polygon class="cls-27" points="1493.28 1812.98 1509.01 1867.74 1486.52 1872.28 1474.95 1861.56 1475.91 1859.04 1463.27 1819.01 1493.28 1812.98"/>
    <g>
      <g>
        <path class="cls-10" d="M1475.8,1853.17l-30.88,10.21c-7.56,2.5-9.04,7.78-6.08,11.75l71.34-.96-2.7-15.82c-.48-2.83-2.91-4.9-5.76-4.93l-25.91-.26Z"/>
        <path class="cls-20" d="M1446.15,1879.5h63.18c1.21-.6,1.9-1.59,1.61-2.64l-.76-2.68-71.34.96c1.44,1.93,3.95,3.54,7.32,4.36Z"/>
      </g>
      <path class="cls-20" d="M1490.15,1867.32h11.95c.53,0,.96.43.96.96v3.11c0,.53-.43.96-.96.96h-11.95c-.53,0-.96-.43-.96-.96v-3.11c0-.53.43-.96.96-.96Z" transform="translate(18.6 -14.73) rotate(.57)"/>
    </g>
    <polygon class="cls-27" points="1323.45 1812.72 1325.24 1868.91 1302.11 1870.88 1293.45 1858.93 1295.02 1856.54 1292.6 1815.34 1323.45 1812.72"/>
    <g>
      <g>
        <path class="cls-10" d="M1296.93,1853.32l-30.83,10.37c-7.55,2.54-9,7.83-6.02,11.78l71.33-1.33-2.78-15.8c-.5-2.82-2.93-4.89-5.79-4.9l-25.91-.13Z"/>
        <path class="cls-20" d="M1266.27,1879.5h64.29c1.24-.6,1.94-1.61,1.63-2.67l-.77-2.68-71.33,1.33c1.28,1.7,3.39,3.15,6.19,4.02Z"/>
      </g>
      <rect class="cls-20" x="1310.41" y="1867.37" width="13.88" height="5.03" rx=".96" ry=".96" transform="translate(9.06 -6.35) rotate(.28)"/>
    </g>
    <path class="cls-28" d="M1329.76,1433.84c-1.72,99.66-3.19,298.16,14.27,393.44,1.48,8.08-4.37,15.56-12.02,15.39l-41.95-.9c-4.78-.1-8.8-3.9-9.53-8.98-19.45-134.84-35.48-312.11-41.58-390.2l90.82-8.75Z"/>
    <path class="cls-28" d="M1433.75,1556.78c.26,26.25,8.22,52.68,25.97,102,16.12,44.8,35.55,118.11,51.75,169.82,3.13,10-2.36,18.03-12.17,17.83l-35.16-.71c-7.81-.16-14.8-5.27-17.81-13.03-17.44-45.02-30.37-75.52-50.66-122.27-26.83-61.81-45.53-81.36-48.37-124.11-.25-3.76-4.48-25.29-4.62-29.05l-23.92-135.09,117.07,23.83-2.08,110.78Z"/>
    <path class="cls-12" d="M1200.73,1321.16l26.59-149.64c.48-4.25,6.05-12.66,10.28-15.52,1.92-1.3,3.77-1.72,5.25-1.29l40.4,8.12-26.71,163.42c-.82,8.5-6.23,15.72-13.78,18.4-1.11.39-2.21.68-3.31.86-7.02,1.16-13.85-1.96-20.36-9.33l-18.36-15.02Z"/>
    <path class="cls-12" d="M1245.75,1458.09h192.78c.55-1.05,1-2.18,1.25-3.4.31-1.53.54-2.89.68-3.99-.42-4.48-.86-9.51-1.3-14.76-.55-6.52-1.1-13.41-1.61-20.32-.88-11.84-1.67-23.61-2.16-33.1-.33-5.41-.55-10.84-.64-16.25-1.01-37.3-8.65-106.71-4.95-178.04.55-10.55,7.44-22.79,1.71-30.82.04-.02.08-.05.12-.07,7.22-4.48,2.78-18.87-4.03-23.94-102.92-76.71-175.95-3.67-175.95-3.67-25.67,15.5-26.54,55.73-26.99,61.08,15.99,77.93-3.99,142.63,8.98,224.83,1.08,6.86-5.95,18.04-5.87,25.33.07,6.11-.56,17.15,17.98,17.15Z"/>
    <path class="cls-12" d="M1435.22,1142.89l86.23,113.95c9.58,12.67,7.56,30.6-4.61,40.82-12.08,10.14-29.96,9.2-40.87-2.19-33.66-35.1-99.02-103.77-96.6-105.17,1.91-1.11,14.88-25.24,25.25-44.93,6.2-11.78,22.57-13.1,30.61-2.49Z"/>
    <g>
      <path class="cls-27" d="M1245.68,1015.03c.03.54.09,1.09.15,1.63.13-.05,8.49-1.24,8.49-1.24,1.22-.17,2.37.69,2.55,1.93.18,1.24-.67,2.39-1.9,2.57l-8.31,1.19,7.38,28.49c.09.63.25,1.23.37,1.85,1.84-.11,25.2-1.59,39.17-7.61,11.88-5.12,12.59-7.92,14.13-20.9l1.51-12.76c-28-.51-50.78-11.8-58.8-16.31-3.44,6.27-5.2,13.55-4.75,21.17ZM1258.29,1025.45c.32,2.21-.57,4.16-1.99,4.36-1.42.2-2.82-1.42-3.14-3.63-.32-2.21.57-4.16,1.99-4.36,1.42-.2,2.82,1.42,3.14,3.63ZM1284.62,1022.31c-.32-2.2.57-4.16,1.99-4.36,1.42-.2,2.82,1.42,3.14,3.63s-.57,4.16-1.99,4.36c-1.42.2-2.82-1.42-3.14-3.63ZM1277.03,1014.47c-.18-1.24.67-2.39,1.9-2.57l8.37-1.2c1.22-.17,2.37.69,2.55,1.93.18,1.24-.67,2.39-1.9,2.57l-8.37,1.2c-1.22.17-2.37-.69-2.55-1.93ZM1265.39,1037.46l.21-.8c.49,1.68,1.84,3.04,3.7,3.29l4.53.61c1.56.21,2.82-.67,3.46-1.91l.15.41c.92,2.5-1.11,5.07-3.72,4.72l-4.53-.61c-2.71-.36-4.5-3.05-3.79-5.72Z"/>
      <path class="cls-27" d="M1322.58,1065.84c4.96-7.86,5.35-18.38,3.31-27.51l-3.61-20.31c5.3-.66,10.33,3.95,11.3,10.41.58,3.89-.46,7.54-2.51,10.05l3.11,16.05,8.57,44.18c2.01,10.35-2.39,20.89-11.17,26.76l-11.4,7.63c-5.82,3.89-13.74,1.71-16.74-4.6-.45-.95-.76-1.97-.91-3.01l-5.98-40.2c5.63-1.16,10.92-2.84,13.84-5.42,3.45-3.04,9.73-10.12,12.19-14.02Z"/>
      <path class="cls-20" d="M1278.93,1011.9l8.37-1.2c1.22-.17,2.37.69,2.55,1.93.18,1.24-.67,2.39-1.9,2.57l-8.37,1.2c-1.22.17-2.37-.69-2.55-1.93-.18-1.24.67-2.39,1.9-2.57Z"/>
      <path class="cls-20" d="M1254.33,1015.42c1.22-.17,2.37.69,2.55,1.93.18,1.24-.67,2.39-1.9,2.57l-8.31,1.19c-1.28.18-2.43-.69-2.61-1.92-.17-1.19.62-2.28,1.77-2.52.13-.05,8.49-1.24,8.49-1.24Z"/>
      <path class="cls-20" d="M1256.3,1029.81c-1.42.2-2.82-1.42-3.14-3.63-.32-2.21.57-4.16,1.99-4.36,1.42-.2,2.82,1.42,3.14,3.63.32,2.21-.57,4.16-1.99,4.36Z"/>
      <path class="cls-20" d="M1286.61,1017.95c1.42-.2,2.82,1.42,3.14,3.63s-.57,4.16-1.99,4.36c-1.42.2-2.82-1.42-3.14-3.63-.32-2.2.57-4.16,1.99-4.36Z"/>
      <path class="cls-19" d="M1265.6,1036.67c.49,1.68,1.84,3.04,3.7,3.29l4.53.61c1.56.21,2.82-.67,3.46-1.91l.15.41c.92,2.5-1.11,5.07-3.72,4.72l-4.53-.61c-2.71-.36-4.5-3.05-3.79-5.72l.21-.8Z"/>
      <path class="cls-20" d="M1254.42,1051.44c-.13,0,5.22,24.13,5.22,24.13,2.45,6.89,11.04,13.26,18.21,12.34,4.25-.54,11.74-1.19,18.7-2.62,5.63-1.16,10.92-2.84,13.84-5.42,3.45-3.04,9.73-10.12,12.19-14.02,4.96-7.86,5.35-18.38,3.31-27.51l-3.61-20.31c5.3-.66,10.33,3.95,11.3,10.41.58,3.89-.46,7.54-2.51,10.05l3.11,16.05c1.48-1.34,3.78-1.48,5.39-2.69,4.07-3.07,1.16-10.02,3.59-14.53,1.64-3.04,5.49-4.47,6.81-7.67,1.38-3.35-.58-7.14-2.78-10.03-1.13-1.49-2.37-2.99-3.34-4.6,1.2-6.98,4.83-14.72,1.47-20.81-1.15-2.09-3.03-3.68-4.08-5.83-.86-1.76-1.1-3.77-1.67-5.66-3.49-11.6-15.08-13.49-23.9-18.22-8.04-4.31-13.25-13.63-22.53-14.99-.67-.39-1.43-.61-2.21-.57-.66.03-1.27.23-1.86.51-2.37.27-4.74,1.04-7.01,2.16-1.33-.5-2.56-1.46-3.97-1.73-4.59-.88-7.42,5.4-11.95,6.53-3.06.76-6.42-.99-9.38.09-3.1,1.13-4.41,4.8-4.97,8.09-.56,3.29-.89,6.92-3.23,9.27-1.42,1.43-3.39,2.15-4.96,3.41-3.83,3.06-4.61,8.58-4.67,13.53-.08,6.18.5,12.41,1.58,18.5.39,2.22.58,3.87,2.68,5.09.76.44,1.64.67,2.49.66-.46-7.62,1.31-14.9,4.75-21.17,8.02,4.52,30.8,15.8,58.8,16.31l-1.51,12.76c-1.54,12.97-2.26,15.78-14.13,20.9-13.97,6.02-37.32,7.5-39.17,7.61ZM1270.87,1057.4l15.08-3.71c.09,2.48-.89,5.65-6.58,7.36,0,0-6.32,1.36-8.49-3.65Z"/>
      <path class="cls-12" d="M1279.37,1061.06s-6.32,1.36-8.49-3.65l15.08-3.71c.09,2.48-.89,5.65-6.58,7.36Z"/>
    </g>
    <path class="cls-8" d="M1298.28,1361.63c-2.32,0-4.2-1.88-4.2-4.19v-65.57c-45.62.48-46.15.14-47.48-.75-1.93-1.28-2.45-3.88-1.17-5.81.99-1.48,2.75-2.13,4.39-1.77,3.48.28,31.35.1,48.41-.1,1.17-.07,2.2.42,3,1.21.8.79,1.25,1.86,1.25,2.98v69.81c0,2.31-1.88,4.19-4.2,4.19Z"/>
    <polygon class="cls-27" points="1090.76 1375.8 1108.24 1361.92 1118.68 1376.59 1101.38 1388.28 1090.76 1375.8"/>
    <g>
      <path class="cls-27" d="M1058.33,1376.61c-.03,1.85,1.55,3.39,3.51,3.42l17.75.32c1.97.04,3.6-1.45,3.64-3.29.03-1.85-1.55-3.39-3.51-3.42l-17.75-.32c-1.97-.03-3.6,1.45-3.64,3.29Z"/>
      <path class="cls-27" d="M1086.81,1405.95c-2.71,1.07-5.58,1.89-7.91,1.43-1.81-.35-3.13-1.44-4.33-2.58-3.09-2.92-5.69-6.31-7.74-10.09-1.88-3.47-3.17-8.09-.15-12.64,2.92-4.4,7.83-7.09,12.59-8.12,9.02-1.96,12.26-2.57,19.34.14,8.87,3.39,11.93,10.11,2.76,19.4-4.72,4.78-8.65,10.13-14.55,12.46Z"/>
      <path class="cls-27" d="M1071.12,1385.96l-17.61,18.36c-1.19,1.24-3.2,1.29-4.45.11-1.26-1.18-1.31-3.17-.11-4.41l17.61-18.36c1.19-1.24,3.2-1.29,4.45-.11,1.26,1.18,1.31,3.17.11,4.41Z"/>
      <path class="cls-27" d="M1075.55,1393.61l-17.61,18.35c-1.19,1.24-3.2,1.29-4.45.11-1.26-1.18-1.31-3.17-.11-4.41l17.61-18.36c1.19-1.24,3.2-1.29,4.45-.11,1.26,1.18,1.31,3.17.11,4.41Z"/>
      <path class="cls-27" d="M1084.86,1397.52l-17.61,18.36c-1.19,1.24-3.2,1.29-4.45.11-1.26-1.18-1.31-3.17-.11-4.41l17.61-18.36c1.19-1.24,3.2-1.29,4.45-.11,1.26,1.18,1.31,3.16.11,4.41Z"/>
      <path class="cls-27" d="M1094.59,1397.93l-17.61,18.36c-1.19,1.24-3.2,1.29-4.45.11-1.26-1.18-1.31-3.17-.11-4.41l17.61-18.36c1.19-1.24,3.2-1.29,4.45-.11,1.26,1.18,1.31,3.17.11,4.41Z"/>
    </g>
    <path class="cls-38" d="M1101.9,1353.45l80.05-59.35,60.13,3.1c2.3.12,4.21,1.61,4.87,3.79.15.51.23,1.01.23,1.52.01,1.67-.77,3.26-2.2,4.3l-109.65,79.77c-5.47,3.98-13.13,3.05-17.47-2.12l-17.21-20.52c-2.69-3.21-2.12-7.99,1.25-10.49Z"/>
    <path class="cls-32" d="M987.1,1603.58l65.65-301.52c3.24-16.77,18.59-30.49,34.12-30.49h153.19c15.53,0,25.59,13.72,22.35,30.49l-58.77,301.52h-216.55Z"/>
    <path class="cls-10" d="M1163.42,1603.58h-216.56l65.34-301.34c3.24-16.84,18.59-30.62,34.12-30.62h153.19c15.53,0,25.59,13.78,22.35,30.62l-58.45,301.34Z"/>
    <path class="cls-8" d="M1016.79,1530.71c-2.32,0-4.2-1.88-4.2-4.19v-50.62c0-3.34-2.73-6.06-6.08-6.06h-94.44c-2.32,0-4.2-1.88-4.2-4.19s1.88-4.19,4.2-4.19h94.44c7.98,0,14.47,6.48,14.47,14.44v50.62c0,2.31-1.88,4.19-4.2,4.19Z"/>
    <g>
      <rect class="cls-8" x="977.37" y="1613.56" width="8.4" height="218.13"/>
      <path class="cls-8" d="M1172.18,1694.12c-.28,0-.57,0-.85-.03-12.45-.73-14.97-.85-15.37-.86h-277.77v-8.38h277.79c.33,0,1.03,0,15.84.87,1.73.09,3.37-.49,4.63-1.68,1.26-1.18,1.95-2.79,1.95-4.51v-50.72h8.4v50.72c0,4-1.67,7.87-4.59,10.61-2.71,2.55-6.33,3.97-10.03,3.97Z"/>
    </g>
    <rect class="cls-32" x="872.03" y="1442.32" width="140.58" height="18.71" rx="3.87" ry="3.87" transform="translate(1884.65 2903.35) rotate(180)"/>
    <path class="cls-32" d="M945.08,1598.61h259.36l-3.48,17.06c-3.26,15.99-17.31,27.51-33.66,27.62h-222.22v-44.69Z"/>
    <path class="cls-10" d="M828.62,1597.56l31.25-.11,94.29-.32,51.6-.18v30.86c0,8.72-7.13,15.76-15.87,15.67l-35.58-.37-94.29.32-31.41.11v-45.99Z"/>
    <path class="cls-12" d="M1018.45,1313.01c-.05.14,0,.06.03-.02-.01,0-.02.01-.03.02Z"/>
    <polygon class="cls-27" points="867.07 1830.49 868.93 1823.24 879.99 1780.15 907.7 1772.45 891.56 1830.49 867.07 1830.49"/>
    <polygon class="cls-27" points="780.19 1834.45 781.8 1826.29 789.13 1783.2 820.12 1775.5 809.78 1828.61 780.19 1834.45"/>
    <path class="cls-30" d="M1097.62,1562.39c-.74.3-1.56.56-2.34.81,1.47-.51,2.34-.81,2.34-.81Z"/>
    <path class="cls-20" d="M1047.87,1175.71c-14.81-61.95,22.27-73.3,44.08-74.82,8.49-.58,14.57.29,14.57.29,5.13,2.64,8.68,5.53,10.94,8.57,1.33.6,3.51,1.28,7.76,2.44,7.77,2.12,18.2,2.29,21.59,9.1,3.39,6.81,3.07,17.63.25,24.62-2.1,5.2-8.86,12.46-10,17.9-1.71,8.21-9.05,16.66-12.55,20.56-3.17,3.52-6.23,7.17-8.69,11.21-4.54,7.43-11.13,13.42-19.1,17.44,0,0-42.27-21.14-48.85-37.32Z"/>
    <path class="cls-27" d="M973.79,1415.74c20.66-27.21,60.99-116.35,70.6-135.23l9.83,68.33c-3.84,6.76-27.5,63.42-54.69,91.74-2.24,2.34-19.7,1.77-22.38,2.56l-3.36-27.41Z"/>
    <path class="cls-30" d="M1099.37,1562.23c-.73.29-1.54.54-2.3.78,1.45-.49,2.3-.78,2.3-.78Z"/>
    <path class="cls-20" d="M1118.5,1101.88c-29.42-4.71-59.96,14.09-68.22,42-8.26,27.91,8.9,54.36,38.32,59.07,29.42,4.71,52.55-9.17,60.8-37.08,8.26-27.91-1.49-59.28-30.91-63.99Z"/>
    <path class="cls-5" d="M1138.36,1496.51c-6.68-10.84-21.36-5.67-44.75,3.66-5.55,2.22-12.44,4.88-16.46,5.87-5.83,1.44-11.78,2.83-17.8,4.24l-.78.18c-66.38,15.52-141.62,33.1-166.07,122.56-23.32,85.31-34.41,126.71-42.37,158.2-1.23,4.88-.77,10.17,1.27,14.53,4.25,9.12,12.33,6.07,38.38,14.32,6.77,2.14,12.76-.3,15.2-9.38,16.53-61.9,42-136.03,52.19-165.03,4.33-12.32,13.11-25.94,20.24-27.39l101.34-15.86c23.19-7.76,52.03-58.2,60.92-88.16,2.73-9.19.35-15.07-1.3-17.75Z"/>
    <path class="cls-5" d="M1086.77,1491.45c-8.37-9.21-25.19-4.27-51.97,4.55-6.67,2.2-14.95,4.84-19.89,5.83-7.34,1.48-14.85,2.92-22.45,4.37-79.46,15.21-169.53,32.45-189.04,118.01l-10.3,44.91c-13.53,58.89-19.79,86.52-24.52,111.09-2.17,11.28,6.4,23.09,17.45,24.03l34.44,2.92c6.5.55,11.93-3.66,13.3-10.27,11.37-54.99,28.25-117.04,42.59-160.88,4.15-12.71,16.22-24.86,26.3-26.53l123.67-18.63c27-7.43,56.1-55.66,63.51-84.3,2.04-7.94-1.05-12.86-3.08-15.09Z"/>
    <path class="cls-28" d="M1181.52,1321.57c13.21-32.08-4.66-69.53-34.81-76.16-37.22-8.19-48.74-11.87-76.8,5.81-25.89,16.31-41.45,50.18-37.64,72.91,18.97,113.31-43.6,113.93-56.99,174.91-1.67,7.59-1.35,9.21,6.33,9.66,43.84,2.54,67.39,24.64,130.97,17.22,5.42-.63,11.05-.37,16.36-3.87,3.95-2.61,9.52-11.91,13.29-18.84,2.06-3.77,3.32-8.09,3.75-12.55,8.3-85.5,18.95-128.81,35.54-169.08Z"/>
    <path class="cls-27" d="M1083.26,1214.86c1.58.14,3.13.14,4.67.08l-3.86,43.17c-.33,3.73,1.76,6.99,4.65,7.24l21.01,1.87c2.89.26,5.52-2.58,5.86-6.31l6.21-69.42c2.74.05,5.3-1.19,7.24-3.29-3.35-2.8-6.23-6.17-8.38-9.99-3.84-6.81-5.42-14.72-9.1-21.62-4.46-8.37-16.99-23.37-40.53-27.14-2.29-.37-5.76-.79-6.22-3.59-.14-.85.24-2.04.82-3.32-7.02,5.91-11.87,14.34-12.74,24.11l-2.59,28.98c-1.77,19.8,13.07,37.45,32.98,39.22ZM1085.75,1157.49l4.47.42c1.45.14,2.46,2.05,2.25,4.28-.21,2.23-1.56,3.92-3.01,3.79-1.45-.14-2.46-2.05-2.25-4.28.06-.68.25-1.3.49-1.85l-1.96-2.36ZM1084.73,1148.77c.12-1.28,1.27-2.23,2.56-2.11l8.8.83c1.29.12,2.24,1.27,2.12,2.55-.12,1.28-1.27,2.23-2.56,2.11l-8.8-.83c-1.28-.12-2.24-1.27-2.12-2.55ZM1064.45,1172.74l.36-.75c.05,1.79.92,3.48,2.48,4.15l3.81,1.64c1.31.57,2.61-.03,3.45-1.13l.04.45c.24,2.72-2.11,4.84-4.3,3.89l-3.81-1.64c-2.28-.98-3.23-4.1-2.03-6.61ZM1056.11,1156.88l-1.96-2.36,4.47.42c1.45.14,2.46,2.05,2.25,4.28-.21,2.23-1.56,3.92-3.01,3.79-1.45-.14-2.46-2.05-2.25-4.28.06-.68.25-1.3.49-1.85ZM1053.07,1145.79c.12-1.28,1.04-2.26,2.03-2.16l6.83.64c1,.09,1.72,1.22,1.6,2.5-.12,1.28-1.04,2.26-2.04,2.16l-6.83-.64c-1-.09-1.72-1.22-1.59-2.5Z"/>
    <path class="cls-20" d="M1084.73,1148.77c.12-1.28,1.27-2.23,2.56-2.11l8.8.83c1.29.12,2.24,1.27,2.12,2.55-.12,1.28-1.27,2.23-2.56,2.11l-8.8-.83c-1.28-.12-2.24-1.27-2.12-2.55Z"/>
    <path class="cls-20" d="M1055.1,1143.63l6.83.64c1,.09,1.72,1.22,1.6,2.5-.12,1.28-1.04,2.26-2.04,2.16l-6.83-.64c-1-.09-1.72-1.22-1.59-2.5.12-1.28,1.04-2.26,2.03-2.16Z"/>
    <path class="cls-19" d="M1064.81,1171.99c.05,1.79.92,3.48,2.48,4.15l3.81,1.64c1.31.57,2.61-.03,3.45-1.13l.04.45c.24,2.72-2.11,4.84-4.3,3.89l-3.81-1.64c-2.28-.98-3.23-4.1-2.03-6.61l.36-.75Z"/>
    <path class="cls-20" d="M1120.64,1178.21c-3.84-6.81-5.42-14.72-9.1-21.62-4.46-8.37-16.99-23.37-40.53-27.14-2.29-.37-5.76-.79-6.22-3.59-.14-.85.24-2.04.82-3.32,1.12-2.48,3.06-5.33,3.78-6.83.28-.58.59-1.2,1.12-1.56.48-.33,1.08-.4,1.66-.47,5.01-.59,10.01-1.18,15.02-1.77,6.89-.81,13.8-1.62,20.73-1.35,5.75.22,11.8,1.35,16.13,5.16,7,6.17,7.19,16.86,10.49,25.64,2.73,7.27,7.75,13.45,12.06,19.93l-15.44,28.57c-.17-.12-.36-.23-.54-.35-.55-.41-1.06-.87-1.59-1.31-3.35-2.8-6.23-6.17-8.38-9.99Z"/>
    <path class="cls-27" d="M1072.24,1259.94c6.06-11.31,21.25-20.49,33.93-20.49s18.06,9.17,12.01,20.49c-6.06,11.31-21.25,20.49-33.93,20.49s-18.06-9.17-12.01-20.49Z"/>
    <path class="cls-31" d="M1030.71,1613.26c-3.54.12-7.14-.11-10.57.92-6.18,1.85-11.02,7.49-17,10.06-8.92,3.82-19.15.36-28.21,3.71-12.51,4.62-18.98,20.42-22.79,35-4.85,18.53-7.81,37.92-15.42,55.15-4.32,9.78-10.1,18.77-13.11,29.19-3.27,11.31-3.08,23.62-6.07,35.03-3.49,13.33-8.3,26.68-17.17,36.08,4.99-12.81,5.99-28.16,8.64-41.88,2.94-15.16,4.4-30.67,7.48-45.8,2.9-14.28,7.22-28.11,11.71-41.83,8.98-27.4,19.06-55.17,36.53-76.35,2.74-3.33,5.72-6.52,9.3-8.52,3.59-2,7.61-2.69,11.55-3.35,27.91-4.63,55.9-8.64,83.94-12.01,1.42-.17,3.87,9.47,3.17,11-1.33,2.91-10.56,5.27-13.17,6.36-9.28,3.86-18.91,6.91-28.82,7.23Z"/>
    <path class="cls-31" d="M885.27,1632.42c-3.31,7.38-6.62,14.75-9.93,22.13-2.7,6.02-5.41,12.06-7.4,18.48-5.99,19.35-5.24,41.55-12.7,60.13-3.04,7.56-7.36,14.31-11.06,21.47-6.7,12.97-11.35,27.35-13.71,42.43,3.76-60.24,16.5-118.63,37.61-172.35,3-7.64,6.88-15.87,14.42-18.05,5.42-1.57,12.57-.02,15.82-4.74.79-1.15,1.28-2.61,2.39-3.39,1.96-1.37,5.02.09,6.56,2.38,5.87,8.75-5.08,8.38-9.51,12.11-5.76,4.85-9.34,12.36-12.5,19.41Z"/>
    <path class="cls-7" d="M849.05,1789.54c7.99-31.6,19.08-73.01,42.38-158.23,20.64-75.51,76.98-99.94,131.14-114.62,1.72.64,3.62,1.04,5.71,1.17-55.11,14.39-113.76,37.62-134.7,114.24-23.3,85.21-34.38,126.6-42.36,158.18-1.15,4.55-.72,9.48,1.17,13.53.3.64.09,1.43-.46,1.78-.17.11-.35.16-.54.16-.4,0-.79-.25-.99-.69-2.18-4.66-2.68-10.31-1.36-15.52Z"/>
    <rect class="cls-32" x="1045.36" y="1442.32" width="140.58" height="18.71" rx="3.87" ry="3.87" transform="translate(2231.29 2903.35) rotate(180)"/>
    <g>
      <path class="cls-27" d="M1141.43,1271.56c2.53-4.33,14.03-15.11,26.91-10.13.99.38,1.93.72,2.61.93,14.11,4.18,17.69,32.49,19.57,52.72.67,7.23,10.64,68.26,11.63,73.1l-35.75,8.14c-8.2-30.47-30.4-115.45-24.97-124.75Z"/>
      <path class="cls-27" d="M1162.81,1416.15c5.12-.57,8.69-5.41,7.21-9.87-1.43-4.31-3.03-9.12-4.58-13.88l36.63-6.53c1.74,15.74,2.27,31.43,1.57,47.28-.47,4.05-4.11,12.57-8.64,12.68-15.08,2.13-34.54-.42-58.64-1.02-28.73-.72-59.88-.96-83.64-2.1v-17.01c43.04-2.32,70.69-5.14,110.09-9.55Z"/>
    </g>
    <g>
      <path class="cls-27" d="M1027.22,1418.72c-.54,1.53.27,3.23,1.79,3.79l13.78,5.03c1.53.56,3.22-.24,3.76-1.76.54-1.53-.27-3.23-1.79-3.79l-13.78-5.03c-1.53-.56-3.22.24-3.75,1.76Z"/>
      <path class="cls-27" d="M1041.32,1450.76c-2.42.16-4.88.08-6.58-.93-1.31-.78-2.04-2.04-2.66-3.3-1.6-3.26-2.69-6.78-3.25-10.47-.51-3.39-.23-7.58,3.39-10.55,3.5-2.87,8.08-3.8,12.09-3.38,7.59.79,10.29,1.15,15.07,5.3,5.98,5.2,6.51,11.61-3.23,16.87-5.01,2.71-9.57,6.11-14.83,6.46Z"/>
      <path class="cls-27" d="M1034.61,1429.92l-18.85,10.54c-1.28.71-2.86.22-3.51-1.1-.65-1.32-.14-2.98,1.14-3.7l18.85-10.54c1.28-.71,2.86-.22,3.51,1.1.65,1.32.14,2.98-1.14,3.7Z"/>
      <path class="cls-27" d="M1035.95,1437.47l-18.85,10.54c-1.28.71-2.86.22-3.51-1.1-.65-1.32-.14-2.98,1.13-3.7l18.85-10.54c1.28-.71,2.86-.22,3.51,1.1.65,1.32.14,2.98-1.14,3.7Z"/>
      <path class="cls-27" d="M1042.14,1443.23l-18.85,10.54c-1.28.71-2.86.22-3.51-1.1-.65-1.32-.14-2.98,1.14-3.7l18.85-10.54c1.28-.71,2.86-.22,3.51,1.1.65,1.32.14,2.98-1.14,3.7Z"/>
      <path class="cls-27" d="M1049.62,1446.18l-18.85,10.54c-1.28.71-2.86.22-3.51-1.1-.65-1.32-.14-2.98,1.14-3.7l18.85-10.54c1.28-.71,2.86-.22,3.51,1.1.65,1.32.14,2.98-1.13,3.7Z"/>
    </g>
    <path class="cls-27" d="M979.94,1411l24.1.73c.22,5.69.36,11.4.3,17.13-.3,4.06-3.29,12.67-7.32,12.9-13.34,2.51-30.71.46-52.15.47-25.55.02-53.25.57-74.4.04l-.49-17.01c38.19-3.41,62.68-6.94,97.58-12.35.18-.03,12.2-1.87,12.37-1.91Z"/>
    <g>
      <path class="cls-27" d="M856.41,1414.81c-.54,1.53.27,3.23,1.79,3.79l13.78,5.03c1.53.56,3.22-.24,3.76-1.76.54-1.53-.27-3.23-1.79-3.79l-13.78-5.03c-1.53-.56-3.22.24-3.76,1.76Z"/>
      <path class="cls-27" d="M870.51,1446.85c-2.42.16-4.88.08-6.58-.93-1.31-.78-2.04-2.04-2.66-3.3-1.6-3.26-2.69-6.78-3.25-10.47-.51-3.39-.23-7.58,3.39-10.55,3.5-2.87,8.08-3.8,12.09-3.38,7.59.79,10.29,1.15,15.07,5.3,5.98,5.2,6.51,11.61-3.23,16.87-5.01,2.71-9.57,6.11-14.83,6.46Z"/>
      <path class="cls-27" d="M863.8,1426.02l-18.85,10.54c-1.28.71-2.86.22-3.51-1.1-.65-1.32-.14-2.98,1.14-3.7l18.85-10.54c1.28-.71,2.86-.22,3.51,1.1.65,1.32.14,2.98-1.13,3.7Z"/>
      <path class="cls-27" d="M865.14,1433.56l-18.85,10.54c-1.28.71-2.86.22-3.51-1.1-.65-1.32-.14-2.98,1.14-3.7l18.85-10.54c1.28-.71,2.86-.22,3.51,1.1.65,1.32.14,2.98-1.14,3.7Z"/>
      <path class="cls-27" d="M871.33,1439.32l-18.85,10.54c-1.28.71-2.86.22-3.51-1.1-.65-1.32-.14-2.98,1.14-3.7l18.85-10.54c1.28-.71,2.86-.22,3.51,1.1.65,1.32.14,2.98-1.14,3.7Z"/>
      <path class="cls-27" d="M878.82,1442.28l-18.85,10.54c-1.28.71-2.86.22-3.51-1.1-.65-1.32-.14-2.98,1.14-3.7l18.85-10.54c1.28-.71,2.86-.22,3.51,1.1.65,1.32.14,2.98-1.13,3.7Z"/>
    </g>
    <path class="cls-12" d="M1078.76,1189.73c0,1.95-2.88,3.52-6.43,3.52s-6.43-1.57-6.43-3.5c0-.01,12.86-.01,12.86-.01Z"/>
    <path class="cls-20" d="M1082.58,1176.53c-4.51,0-8.04-1.88-8.04-4.27s3.53-4.27,8.04-4.27,8.04,1.88,8.04,4.27-3.53,4.27-8.04,4.27ZM1082.58,1169.03c-4.18,0-6.99,1.67-6.99,3.22s2.81,3.22,6.99,3.22,6.99-1.67,6.99-3.22-2.81-3.22-6.99-3.22Z"/>
    <path class="cls-20" d="M1055.92,1175.23c-4.18,0-7.45-1.88-7.45-4.27s3.27-4.27,7.45-4.27,7.45,1.88,7.45,4.27-3.27,4.27-7.45,4.27ZM1055.92,1167.74c-3.47,0-6.4,1.48-6.4,3.22s2.93,3.22,6.4,3.22,6.4-1.47,6.4-3.22-2.93-3.22-6.4-3.22Z"/>
    <ellipse class="cls-20" cx="1148.68" cy="1117.27" rx="30.35" ry="30.28"/>
    <path class="cls-20" d="M1092.47,1162.2c-.21,2.23-1.56,3.92-3.01,3.79-1.45-.14-2.46-2.05-2.25-4.28.06-.68.25-1.3.49-1.85l-1.96-2.36,4.47.42c1.45.14,2.46,2.05,2.25,4.28Z"/>
    <path class="cls-20" d="M1058.62,1154.94c1.45.14,2.46,2.05,2.25,4.28-.21,2.23-1.56,3.92-3.01,3.79-1.45-.14-2.46-2.05-2.25-4.28.06-.68.25-1.3.49-1.85l-1.96-2.36,4.47.42Z"/>
    <path class="cls-19" d="M1087.8,1140.68c-.09,0-24.38-2-24.38-2-.58-.05-1.01-.55-.96-1.13.05-.58.54-.99,1.13-.96l24.29,1.99c.58.05,1.01.55.96,1.13-.05.55-.5.96-1.05.96Z"/>
    <path class="cls-8" d="M1222.84,1540.89c-2.32,0-4.2-1.88-4.2-4.19v-60.15c0-3.34-2.73-6.06-6.08-6.06h-94.44c-2.32,0-4.2-1.88-4.2-4.19s1.88-4.19,4.2-4.19h94.44c7.98,0,14.47,6.48,14.47,14.44v60.15c0,2.31-1.88,4.19-4.2,4.19Z"/>
    <g>
      <g>
        <g>
          <rect class="cls-25" x="1152.15" y="1523.8" width="1.53" height="159.77"/>
          <path class="cls-25" d="M1154.2,1684.09h-2.57v-160.82h2.57v160.82ZM1152.67,1683.05h.48v-158.72h-.48v158.72Z"/>
        </g>
        <g>
          <polygon class="cls-25" points="1153.19 1683.34 1154.66 1683.86 1186.32 1529.53 1184.85 1529.02 1153.19 1683.34"/>
          <path class="cls-25" d="M1155.06,1684.55l-2.47-.87.09-.45,31.78-154.91,2.47.87-.09.45-31.78,154.92ZM1153.79,1683l.47.17,31.45-153.29-.47-.17-31.45,153.29Z"/>
        </g>
        <g>
          <polygon class="cls-25" points="1154.24 1683.48 1155.56 1684.47 1216.72 1546.11 1215.4 1545.11 1154.24 1683.48"/>
          <path class="cls-25" d="M1155.77,1685.29l-2.18-1.64.17-.38,61.43-138.97,2.18,1.64-.17.38-61.43,138.97ZM1154.89,1683.31l.46.35,60.72-137.38-.46-.35-60.72,137.38Z"/>
        </g>
        <g>
          <polygon class="cls-25" points="1155.22 1683.96 1156.3 1685.37 1242.8 1572.4 1241.72 1570.99 1155.22 1683.96"/>
          <path class="cls-25" d="M1156.3,1686.23l-1.74-2.27,87.15-113.84,1.74,2.27-87.15,113.84ZM1155.88,1683.96l.42.55,85.83-112.11-.42-.54-85.83,112.11Z"/>
        </g>
        <g>
          <polygon class="cls-25" points="1156.08 1684.76 1156.84 1686.49 1262.78 1606.6 1262.01 1604.88 1156.08 1684.76"/>
          <path class="cls-25" d="M1156.63,1687.31l-1.2-2.71,106.79-80.53,1.2,2.71-106.79,80.53ZM1156.73,1684.93l.33.74,105.07-79.24-.33-.74-105.07,79.24Z"/>
        </g>
        <g>
          <polygon class="cls-25" points="1156.75 1685.83 1157.14 1687.75 1275.3 1646.4 1274.9 1644.47 1156.75 1685.83"/>
          <path class="cls-25" d="M1156.75,1688.45l-.61-2.96,119.15-41.7.61,2.96-119.15,41.7ZM1157.36,1686.17l.18.89,117.15-41-.18-.89-117.15,41Z"/>
        </g>
        <g>
          <rect class="cls-25" x="1157.19" y="1687.08" width="122.32" height="1.99"/>
          <path class="cls-25" d="M1280.03,1689.6h-123.37v-3.04h123.37v3.04ZM1157.71,1688.55h121.27v-.95h-121.27v.95Z"/>
        </g>
        <g>
          <polygon class="cls-25" points="1157.36 1688.44 1156.96 1690.36 1275.11 1731.71 1275.51 1729.79 1157.36 1688.44"/>
          <path class="cls-25" d="M1275.51,1732.41l-119.15-41.7.61-2.96,119.15,41.7-.61,2.96ZM1157.57,1690.02l117.15,41,.18-.89-117.15-41-.18.89Z"/>
        </g>
        <g>
          <polygon class="cls-25" points="1157.26 1689.81 1156.49 1691.53 1262.43 1771.42 1263.19 1769.69 1157.26 1689.81"/>
          <path class="cls-25" d="M1262.64,1772.23l-106.79-80.53,1.2-2.71.53.4,106.26,80.14-1.2,2.71ZM1157.14,1691.37l105.07,79.24.33-.74-105.07-79.24-.33.74Z"/>
        </g>
        <g>
          <polygon class="cls-25" points="1156.89 1691.1 1155.81 1692.51 1242.3 1805.48 1243.38 1804.07 1156.89 1691.1"/>
          <path class="cls-25" d="M1242.3,1806.34l-.42-.55-86.74-113.29,1.74-2.27.42.55,86.74,113.29-1.74,2.27ZM1156.47,1692.51l85.83,112.11.42-.55-85.83-112.11-.42.54Z"/>
        </g>
        <g>
          <polygon class="cls-25" points="1156.27 1692.22 1154.95 1693.21 1216.11 1831.58 1217.43 1830.58 1156.27 1692.22"/>
          <path class="cls-25" d="M1215.9,1832.39l-61.6-139.35,2.18-1.64,61.6,139.35-2.18,1.64ZM1155.6,1693.38l60.72,137.38.46-.35-60.72-137.38-.46.35Z"/>
        </g>
        <g>
          <polygon class="cls-25" points="1155.46 1693.09 1153.98 1693.61 1185.64 1847.93 1187.12 1847.42 1155.46 1693.09"/>
          <path class="cls-25" d="M1185.25,1848.63l-31.87-155.36,2.47-.87,31.87,155.36-2.47.87ZM1154.59,1693.95l31.45,153.29.47-.17-31.45-153.29-.47.17Z"/>
        </g>
        <g>
          <rect class="cls-25" x="1152.97" y="1693.66" width="1.53" height="159.77"/>
          <path class="cls-25" d="M1155.02,1853.95h-2.58v-160.82h2.58v160.82ZM1153.5,1852.91h.48v-158.72h-.48v158.72Z"/>
        </g>
        <g>
          <polygon class="cls-25" points="1153.46 1693.89 1151.98 1693.37 1120.33 1847.7 1121.8 1848.21 1153.46 1693.89"/>
          <path class="cls-25" d="M1122.19,1848.91l-2.47-.87.09-.45,31.78-154.92,2.47.87-.09.45-31.78,154.92ZM1120.93,1847.35l.47.17,31.45-153.29-.47-.17-31.45,153.29Z"/>
        </g>
        <g>
          <polygon class="cls-25" points="1152.41 1693.75 1151.09 1692.75 1089.93 1831.12 1091.25 1832.12 1152.41 1693.75"/>
          <path class="cls-25" d="M1091.46,1832.93l-2.18-1.64.17-.38,61.43-138.97,2.18,1.64-.17.38-61.43,138.97ZM1090.58,1830.95l.46.35,60.72-137.38-.46-.35-60.72,137.38Z"/>
        </g>
        <g>
          <polygon class="cls-25" points="1151.42 1693.27 1150.34 1691.86 1063.85 1804.83 1064.93 1806.24 1151.42 1693.27"/>
          <path class="cls-25" d="M1064.93,1807.1l-1.74-2.27,87.15-113.84,1.74,2.27-87.15,113.84ZM1064.51,1804.83l.42.55,85.83-112.11-.42-.54-85.83,112.11Z"/>
        </g>
        <g>
          <polygon class="cls-25" points="1150.57 1692.47 1149.8 1690.74 1043.87 1770.63 1044.63 1772.35 1150.57 1692.47"/>
          <path class="cls-25" d="M1044.42,1773.17l-1.2-2.71,106.79-80.53,1.2,2.71-106.79,80.53ZM1044.52,1770.79l.33.74,105.07-79.24-.33-.74-105.07,79.24Z"/>
        </g>
        <g>
          <polygon class="cls-25" points="1149.9 1691.4 1149.5 1689.48 1031.35 1730.83 1031.75 1732.75 1149.9 1691.4"/>
          <path class="cls-25" d="M1031.35,1733.45l-.61-2.96,119.15-41.7.61,2.96-119.15,41.7ZM1031.96,1731.17l.18.89,117.15-41-.18-.89-117.15,41Z"/>
        </g>
        <g>
          <rect class="cls-25" x="1027.14" y="1688.16" width="122.32" height="1.99"/>
          <path class="cls-25" d="M1149.99,1690.67h-123.37v-3.04h123.37v3.04ZM1027.67,1689.63h121.27v-.94h-121.27v.94Z"/>
        </g>
        <g>
          <polygon class="cls-25" points="1149.29 1688.79 1149.68 1686.87 1031.53 1645.51 1031.14 1647.44 1149.29 1688.79"/>
          <path class="cls-25" d="M1149.68,1689.48l-119.15-41.7.61-2.96,119.15,41.7-.61,2.96ZM1031.74,1647.1l117.15,41,.18-.89-117.15-41-.18.89Z"/>
        </g>
        <g>
          <polygon class="cls-25" points="1149.39 1687.42 1150.15 1685.7 1044.22 1605.81 1043.46 1607.54 1149.39 1687.42"/>
          <path class="cls-25" d="M1149.6,1688.24l-106.79-80.53,1.2-2.71.53.4,106.26,80.14-1.2,2.71ZM1044.11,1607.37l105.07,79.24.33-.74-105.07-79.24-.33.74Z"/>
        </g>
        <g>
          <polygon class="cls-25" points="1149.76 1686.13 1150.84 1684.72 1064.35 1571.75 1063.27 1573.16 1149.76 1686.13"/>
          <path class="cls-25" d="M1149.76,1686.99l-.42-.54-86.74-113.29,1.74-2.27.42.55,86.74,113.29-1.74,2.27ZM1063.93,1573.16l85.83,112.11.42-.55-85.83-112.11-.42.55Z"/>
        </g>
        <g>
          <polygon class="cls-25" points="1150.38 1685.01 1151.7 1684.02 1090.54 1545.65 1089.22 1546.65 1150.38 1685.01"/>
          <path class="cls-25" d="M1150.16,1685.83l-61.6-139.35,2.18-1.64,61.6,139.35-2.18,1.64ZM1089.86,1546.82l60.72,137.38.46-.35-60.73-137.38-.46.35Z"/>
        </g>
        <g>
          <polygon class="cls-25" points="1151.19 1684.14 1152.66 1683.62 1121 1529.3 1119.53 1529.81 1151.19 1684.14"/>
          <path class="cls-25" d="M1150.8,1684.83l-31.87-155.36,2.47-.87,31.87,155.36-2.47.87ZM1120.14,1530.16l31.45,153.29.47-.17-31.45-153.29-.47.17Z"/>
        </g>
      </g>
      <path class="cls-25" d="M1147.91,1879.5h15.03c75.49-5.1,135.5-86.68,135.5-186.53s-64.03-186.82-143.01-186.82-143.02,83.64-143.02,186.82,60.01,181.43,135.5,186.53ZM1155.43,1534.83c66.86,0,121.05,70.79,121.05,158.14s-54.2,158.11-121.05,158.11-121.06-70.79-121.06-158.11,54.2-158.14,121.06-158.14Z"/>
    </g>
    <ellipse class="cls-8" cx="1154.56" cy="1689.13" rx="9.41" ry="15.02"/>
    <rect class="cls-32" x="740.6" y="1850.37" width="203.65" height="20.86" rx="6.54" ry="6.54" transform="translate(1684.85 3721.6) rotate(180)"/>
    <rect class="cls-10" x="703.51" y="1850.29" width="162.3" height="20.86" rx="6.54" ry="6.54" transform="translate(1569.33 3721.45) rotate(180)"/>
    <g>
      <g>
        <rect class="cls-25" x="978.91" y="1787.45" width="1.44" height="41.8"/>
        <polygon class="cls-25" points="980.47 1829.5 979.09 1829.01 987.38 1788.61 988.76 1789.09 980.47 1829.5"/>
        <polygon class="cls-25" points="980.52 1829.78 979.32 1828.87 979.49 1828.5 995.36 1792.59 996.55 1793.49 996.38 1793.87 980.52 1829.78"/>
        <polygon class="cls-25" points="980.49 1830.05 979.56 1828.83 1002.28 1799.15 1003.22 1800.37 980.49 1830.05"/>
        <polygon class="cls-25" points="980.42 1830.29 979.79 1828.87 1007.67 1807.84 1008.3 1809.26 980.42 1830.29"/>
        <polygon class="cls-25" points="980.31 1830.49 980 1828.96 1011.14 1818.06 1011.45 1819.59 1011.02 1819.74 980.31 1830.49"/>
        <rect class="cls-25" x="980.19" y="1829.1" width="32.25" height="1.56"/>
        <polygon class="cls-25" points="1011.19 1841.7 1010.63 1841.51 980.05 1830.81 980.37 1829.28 1011.51 1840.18 1011.19 1841.7"/>
        <polygon class="cls-25" points="1007.78 1851.96 979.89 1830.93 980.52 1829.5 1008.41 1850.53 1007.78 1851.96"/>
        <polygon class="cls-25" points="1002.43 1860.69 979.7 1831.01 980.64 1829.79 1003.37 1859.47 1002.43 1860.69"/>
        <polygon class="cls-25" points="995.54 1867.3 979.5 1831.02 980.7 1830.12 996.73 1866.4 995.54 1867.3"/>
        <polygon class="cls-25" points="987.58 1871.36 979.29 1830.95 980.67 1830.47 988.96 1870.87 987.58 1871.36"/>
        <rect class="cls-25" x="979.12" y="1830.78" width="1.44" height="41.8"/>
        <polygon class="cls-25" points="972.08 1871.42 970.71 1870.94 979 1830.53 980.37 1831.02 972.08 1871.42"/>
        <polygon class="cls-25" points="964.11 1867.44 962.91 1866.54 963.08 1866.16 978.95 1830.26 980.15 1831.16 979.98 1831.54 964.11 1867.44"/>
        <polygon class="cls-25" points="957.18 1860.89 956.25 1859.66 978.97 1829.98 979.91 1831.2 957.18 1860.89"/>
        <polygon class="cls-25" points="951.79 1852.19 951.16 1850.77 979.05 1829.74 979.68 1831.17 951.79 1852.19"/>
        <polygon class="cls-25" points="948.32 1841.97 948.01 1840.44 979.15 1829.54 979.47 1831.07 979.03 1831.22 948.32 1841.97"/>
        <rect class="cls-25" x="947.02" y="1829.37" width="32.25" height="1.56"/>
        <polygon class="cls-25" points="979.1 1830.75 978.53 1830.56 947.96 1819.86 948.27 1818.33 979.41 1829.23 979.1 1830.75"/>
        <polygon class="cls-25" points="978.94 1830.53 951.06 1809.5 951.69 1808.07 979.57 1829.1 978.94 1830.53"/>
        <polygon class="cls-25" points="978.82 1830.25 956.1 1800.56 957.03 1799.34 979.76 1829.02 978.82 1830.25"/>
        <polygon class="cls-25" points="978.77 1829.91 962.73 1793.64 963.93 1792.72 979.96 1829.01 978.77 1829.91"/>
        <polygon class="cls-25" points="978.79 1829.56 970.5 1789.16 971.88 1788.68 980.17 1829.09 978.79 1829.56"/>
      </g>
      <g>
        <path class="cls-25" d="M943.78,1831.13c0,26.31,16.33,47.65,36.48,47.65s36.48-21.34,36.48-47.65-16.33-47.66-36.48-47.66-36.48,21.34-36.48,47.66ZM949.39,1831.13c0-22.28,13.83-40.34,30.88-40.34s30.88,18.06,30.88,40.34-13.83,40.33-30.88,40.33-30.88-18.06-30.88-40.33Z"/>
        <path class="cls-25" d="M1013.25,1831.13c0-23.4-14.8-42.44-32.98-42.44s-32.98,19.04-32.98,42.44,14.8,42.43,32.98,42.43,32.98-19.03,32.98-42.43ZM951.48,1831.13c0-21.09,12.91-38.25,28.78-38.25s28.78,17.16,28.78,38.25-12.91,38.24-28.78,38.24-28.78-17.16-28.78-38.24Z"/>
        <path class="cls-25" d="M971.3,1879.5h17.94c16.96-5.23,29.61-24.92,29.61-48.37,0-27.43-17.31-49.75-38.58-49.75s-38.58,22.32-38.58,49.75c0,23.45,12.65,43.15,29.61,48.37ZM980.27,1785.56c18.96,0,34.38,20.44,34.38,45.56s-15.43,45.56-34.38,45.56-34.38-20.44-34.38-45.56,15.43-45.56,34.38-45.56Z"/>
      </g>
    </g>
    <g>
      <path class="cls-12" d="M1474.93,1248.3l-126.7,44.47c-6.44,2.26-9.86,9.27-7.68,15.72l9.35,27.58c2.14,6.32,8.89,9.84,15.31,7.96,42.64-12.46,99.35-28.83,135.82-39.54,15.71-4.61,16.38-18.28,12.55-34.17-4.17-17.32-21.98-27.18-38.66-22.03Z"/>
      <path class="cls-6" d="M1362.29,1346.28c-6.09,0-11.72-3.84-13.77-9.89l-9.35-27.58c-2.54-7.5,1.48-15.74,8.97-18.37l107.11-37.6c1.09-.39,2.29.19,2.68,1.28.38,1.09-.19,2.29-1.28,2.67l-107.11,37.6c-5.33,1.87-8.19,7.74-6.38,13.08l9.35,27.58c1.79,5.28,7.38,8.18,12.73,6.62,24.91-7.28,51.41-15.11,76.41-22.51,17.78-5.26,34.8-10.29,49.96-14.74,1.12-.34,2.28.31,2.61,1.42.33,1.11-.31,2.27-1.42,2.6-15.16,4.45-32.18,9.48-49.96,14.74-25,7.39-51.5,15.23-76.42,22.51-1.37.4-2.76.59-4.12.59Z"/>
    </g>
    <g>
      <path class="cls-27" d="M1341.37,1309.86c-4.33.83-16.9,3.35-19.16,3.98l8.25,16.07c3.71.01,9.81-.18,17.48-.59l-6.57-19.46Z"/>
      <g>
        <path class="cls-27" d="M1297.51,1304.41c-.61,1.51.11,3.33,1.59,4.06l13.38,6.56c1.48.73,3.19.09,3.8-1.42.61-1.51-.11-3.33-1.59-4.06l-13.38-6.56c-1.48-.73-3.19-.09-3.8,1.42Z"/>
        <path class="cls-27" d="M1310.06,1338.73c-2.51-.14-5.06-.53-6.78-1.78-1.33-.97-2.05-2.36-2.65-3.74-1.55-3.56-2.57-7.33-3.03-11.21-.42-3.56,0-7.85,3.85-10.46,3.72-2.52,8.49-2.91,12.63-1.97,7.84,1.77,10.62,2.47,15.44,7.36,6.03,6.11,6.37,12.79-3.89,17-5.28,2.17-10.11,5.1-15.57,4.8Z"/>
        <path class="cls-27" d="M1303.79,1316.4l-19.86,8.51c-1.35.58-2.97-.13-3.6-1.57-.63-1.44-.05-3.09,1.3-3.67l19.86-8.51c1.35-.58,2.97.13,3.6,1.57.63,1.44.05,3.1-1.3,3.67Z"/>
        <path class="cls-27" d="M1304.93,1324.35l-19.86,8.51c-1.35.58-2.97-.13-3.6-1.58-.63-1.44-.05-3.09,1.3-3.67l19.86-8.51c1.35-.58,2.97.13,3.6,1.58.63,1.44.05,3.09-1.3,3.67Z"/>
        <path class="cls-27" d="M1311.15,1331.06l-19.86,8.51c-1.35.58-2.97-.13-3.6-1.57-.63-1.44-.05-3.1,1.3-3.67l19.86-8.51c1.35-.58,2.97.13,3.6,1.57.63,1.44.05,3.09-1.3,3.67Z"/>
        <path class="cls-27" d="M1318.81,1335.05l-19.86,8.51c-1.35.58-2.97-.13-3.6-1.57-.63-1.44-.05-3.1,1.3-3.67l19.86-8.51c1.35-.58,2.97.13,3.6,1.57.63,1.44.05,3.1-1.3,3.67Z"/>
      </g>
    </g>
    <g>
      <path class="cls-25" d="M893.16,1824.49c-.11-.34-.7-.75-1.57-1.16-9.1,13.76-31.06,18.67-46.36,8.82l-13.36,4.41c-11.97,3.95-7.35,14.85,6.2,14.62l51.57-.85c2.47-.04,4.32-1.42,3.86-2.88l-.34-22.96Z"/>
      <path class="cls-27" d="M893.2,1824.42c-3.44-4.26-11.6-4.27-13.45-3.66l-34.52,11.4c15.31,9.85,38.87,6.03,47.97-7.73Z"/>
    </g>
    <g>
      <path class="cls-25" d="M810.34,1824.49c-.11-.34-.7-.75-1.57-1.16-9.1,13.76-31.06,18.67-46.36,8.82l-13.36,4.41c-11.97,3.95-7.35,14.85,6.2,14.62l51.57-.85c2.47-.04,4.32-1.42,3.86-2.88l-.34-22.96Z"/>
      <path class="cls-27" d="M810.39,1824.42c-3.44-4.26-11.6-4.27-13.45-3.66l-34.52,11.4c15.31,9.85,38.87,6.03,47.97-7.73Z"/>
    </g>
    <path class="cls-8" d="M973.12,1830.8c0,6.01,3.74,10.89,8.36,10.89s8.36-4.87,8.36-10.89-3.74-10.89-8.36-10.89-8.36,4.87-8.36,10.89Z"/>
  </g>
  <path class="cls-12" d="M1434.09,514.06c-.46,0-.91-.03-1.36-.1-1.11-.14-2.18-.46-3.18-.97-.26-.13-.52-.27-.76-.43-14.29-6.77-154-75.79-172.69-195.98-6.48-41.64,7-84.26,36.05-114,9.71-10.63,21.49-18.97,34.78-24.55,11.57-5.13,23.39-7.78,34.97-7.78,2.77,0,5.74.19,9.06.57,23.61,1.52,46.22,12.13,63.23,29.49,18.56-18.85,43.38-29.46,69.65-29.46,4.15,0,8.44.32,13.03.98,1.27-.29,2.63-.33,3.96-.09,13.31,2.45,26.78,8.31,38.95,16.95,2.64,1.85,5.29,3.92,7.82,6.12,34.53,29.23,51.55,75.88,44.42,121.77-18.66,119.92-157.78,188.91-172.61,195.94-.25.16-.52.31-.79.45-1.42.71-2.98,1.09-4.54,1.09Z"/>
  <path class="cls-22" d="M1870.53,163.05c-1.79,0-3.66-.95-4.39-2.95-3.12-8.69-12.31-13.65-21.36-11.55-2.27.54-4.58-.72-5.35-2.95-.77-2.22.26-4.64,2.39-5.62,8.48-3.97,12.61-13.6,9.58-22.4-.82-2.37.44-4.96,2.82-5.79,2.44-.85,5.1.4,5.93,2.77,3.07,8.77,12.28,13.79,21.43,11.67,2.29-.54,4.58.72,5.35,2.95.77,2.22-.26,4.64-2.4,5.62-8.4,3.93-12.54,13.49-9.61,22.24.79,2.36-.49,4.94-2.84,5.75-.49.17-1.02.25-1.55.25ZM1848.96,143.88c9.31,0,17.89,5.76,21.13,14.79.06.17.43.23.62.17.18-.06.29-.28.23-.47-3.6-10.76,1.48-22.53,11.83-27.36.19-.09.26-.27.2-.45-.06-.18-.24-.27-.42-.24-11.25,2.61-22.58-3.57-26.36-14.37-.05-.14-.33-.28-.59-.19-.19.06-.29.28-.23.46,3.73,10.82-1.34,22.67-11.78,27.56-.19.09-.26.27-.2.45.06.18.23.28.42.24,1.72-.4,3.44-.59,5.14-.59Z"/>
  <path class="cls-5" d="M240.75,558.31c-1.79,0-3.66-.95-4.39-2.95-3.12-8.69-12.31-13.65-21.36-11.55-2.27.54-4.58-.72-5.35-2.95-.77-2.22.26-4.64,2.39-5.62,8.48-3.97,12.61-13.6,9.58-22.4-.82-2.37.44-4.96,2.82-5.79,2.44-.85,5.1.4,5.93,2.77,3.07,8.77,12.28,13.79,21.43,11.67,2.29-.54,4.58.72,5.35,2.95.77,2.22-.26,4.64-2.4,5.62-8.4,3.93-12.54,13.49-9.61,22.24.79,2.36-.49,4.94-2.84,5.75-.49.17-1.02.25-1.55.25ZM219.18,539.14c9.31,0,17.89,5.76,21.13,14.79.06.17.43.23.62.17.18-.06.29-.28.23-.47-3.6-10.76,1.48-22.53,11.83-27.36.19-.09.26-.27.2-.45-.06-.18-.24-.27-.42-.24-11.25,2.61-22.58-3.57-26.36-14.37-.05-.14-.33-.28-.59-.19-.19.06-.29.28-.23.46,3.73,10.82-1.34,22.67-11.78,27.56-.19.09-.26.27-.2.45.06.18.23.28.42.24,1.72-.4,3.44-.59,5.14-.59Z"/>
  <path class="cls-22" d="M1739.68,374.63c-1.07,0-2.12-.44-2.85-1.29-3.87-4.54-10.55-5.45-15.54-2.12-1.6,1.08-3.76.77-5.01-.72-1.25-1.5-1.16-3.67.21-5.06,4.21-4.32,4.51-11.08.67-15.7-1.33-1.59-1.11-3.98.49-5.31.77-.64,1.75-.96,2.76-.89,1.03.07,1.99.55,2.63,1.32,3.85,4.6,10.56,5.53,15.6,2.18,1.61-1.08,3.76-.77,5.01.72,1.25,1.5,1.16,3.67-.21,5.06-4.17,4.28-4.49,10.99-.73,15.61,1.3,1.6,1.06,3.97-.52,5.28-.74.61-1.63.91-2.52.91ZM1727.87,365.04c3.51,0,6.97,1.15,9.81,3.35-2.77-5.31-2.31-11.8,1.25-16.7-5.49,2.6-11.93,1.88-16.64-1.76,2.74,5.3,2.27,11.75-1.29,16.65,2.19-1.04,4.54-1.54,6.87-1.54Z"/>
  <path class="cls-22" d="M2454.03,253.32c-.35,0-.72-.04-1.07-.13-2.13-.53-4.04-2.74-3.42-5.39,2.05-8.59-2.7-17.36-11.05-20.4-2.15-.77-3.36-3.04-2.8-5.27.56-2.23,2.7-3.67,4.98-3.33,8.86,1.23,17.23-4.32,19.42-12.94.29-1.15,1.01-2.12,2.03-2.73,1.03-.61,2.23-.79,3.38-.5,1.16.29,2.15,1,2.79,2.01.65,1.03.87,2.27.58,3.42-2.14,8.63,2.61,17.45,11.04,20.53,2.15.77,3.36,3.04,2.8,5.27-.56,2.23-2.7,3.66-4.98,3.33-8.78-1.24-17.12,4.26-19.36,12.79-.53,1.99-2.36,3.33-4.34,3.33ZM2440.02,222.95c-.13,0-.23.08-.26.2-.03.14.03.27.16.31,10.37,3.78,16.26,14.65,13.71,25.3-.03.11.19.32.35.36.15.04.3-.06.33-.2,2.79-10.58,13.11-17.4,24.02-15.87.15.03.28-.06.31-.2.03-.14-.03-.27-.16-.31-10.47-3.82-16.34-14.77-13.68-25.48.04-.16-.16-.32-.31-.36,0,0-.33.2-.33.2-2.71,10.7-13.06,17.6-24.09,16.05-.02,0-.03,0-.05,0Z"/>
  <path class="cls-22" d="M2209.85,125.77c-1.87,0-3.48-1.32-3.83-3.18-1.23-6.43-7.04-10.9-13.57-10.37-1.05.08-2.04-.24-2.84-.91-.8-.67-1.28-1.61-1.37-2.65-.09-1.03.23-2.05.88-2.86.67-.83,1.64-1.35,2.68-1.44,6.5-.56,11.51-5.93,11.65-12.49.03-1.99,1.57-3.63,3.58-3.8,2.01-.17,3.8,1.2,4.16,3.17,1.22,6.37,6.98,10.82,13.46,10.37,2.05-.14,3.99,1.45,4.17,3.56.18,2.17-1.39,4.11-3.5,4.32-6.45.61-11.42,5.97-11.56,12.47-.03,1.99-1.57,3.63-3.58,3.79-.11,0-.22.01-.33.01ZM2194.99,108.04c6.84.61,12.69,5.32,14.72,11.97.91-6.9,5.94-12.53,12.61-14.24-6.87-.58-12.76-5.31-14.8-11.96-.9,6.9-5.89,12.51-12.52,14.23Z"/>
  <path class="cls-5" d="M1097.75,263.73c-1.87,0-3.48-1.32-3.83-3.18-1.23-6.43-7.04-10.9-13.57-10.37-1.05.08-2.04-.24-2.84-.91-.8-.67-1.28-1.61-1.37-2.65-.09-1.03.23-2.05.88-2.86.67-.83,1.64-1.35,2.68-1.44,6.5-.56,11.51-5.93,11.65-12.49.03-1.99,1.57-3.63,3.58-3.8,2.01-.17,3.8,1.2,4.16,3.17,1.22,6.37,6.98,10.82,13.46,10.37,2.05-.14,3.99,1.45,4.17,3.56.18,2.17-1.39,4.11-3.5,4.32-6.45.61-11.42,5.97-11.56,12.47-.03,1.99-1.57,3.63-3.58,3.79-.11,0-.22.01-.33.01ZM1082.89,246.01c6.84.61,12.69,5.32,14.72,11.97.91-6.9,5.94-12.53,12.61-14.24-6.87-.58-12.76-5.31-14.8-11.96-.9,6.9-5.89,12.51-12.52,14.23Z"/>
  <path class="cls-22" d="M2631.43,164.18c-.82,0-1.64-.3-2.29-.89-1.29-1.17-1.48-3.11-.44-4.51,2.61-3.53,2.14-8.43-1.07-11.37-1.38-1.25-1.47-3.39-.22-4.77.62-.68,1.5-1.09,2.42-1.13.9-.05,1.77.26,2.42.86,3.23,2.93,8.16,2.93,11.45.02,1.29-1.15,3.24-1.15,4.54.03,1.3,1.18,1.48,3.13.43,4.53-2.58,3.49-2.14,8.36,1.03,11.31,1.35,1.27,1.43,3.4.19,4.76-1.27,1.39-3.43,1.53-4.81.31-3.25-2.89-8.15-2.88-11.41.01-.64.57-1.44.86-2.24.86ZM2633.15,147.81c1.68,3.22,1.9,7.05.57,10.48,3.31-1.63,7.15-1.76,10.53-.37-1.69-3.23-1.92-7.06-.59-10.5-3.3,1.64-7.13,1.77-10.5.39Z"/>
  <path class="cls-22" d="M2387.35,497.93c-1.38,0-2.76-.5-3.86-1.5-2.18-1.98-2.49-5.25-.73-7.6,8.43-11.44,6.94-27.27-3.49-36.81-1.12-1.02-1.78-2.42-1.85-3.94-.07-1.52.46-2.98,1.49-4.1,1.04-1.13,2.45-1.82,3.99-1.93,1.58-.11,3.09.41,4.2,1.42,10.47,9.48,26.4,9.52,37.06.08,2.18-1.95,5.46-1.93,7.64.05,2.18,1.98,2.49,5.25.73,7.61-8.36,11.32-6.93,27.07,3.33,36.63,2.27,2.13,2.42,5.72.32,8.01-1.9,2.08-5.57,2.9-8.18.59-10.47-9.33-26.33-9.31-36.88.04-1.08.97-2.43,1.45-3.78,1.45ZM2383.33,446.22s-.09,0-.12,0c-.45.03-.89.24-1.19.57-.27.3-.41.68-.39,1.09.02.4.19.77.49,1.04,12.01,11,13.74,29.22,4.03,42.39-.47.63-.39,1.49.19,2.02.58.52,1.44.53,2.01.02,12.16-10.77,30.41-10.79,42.47-.05.69.61,1.8.25,2.29-.29.55-.61.51-1.56-.09-2.13-11.81-11-13.46-29.14-3.83-42.18.47-.63.39-1.49-.19-2.02-.57-.52-1.44-.53-2.02-.02-12.27,10.87-30.62,10.82-42.69-.11-.32-.29-.7-.34-.95-.34Z"/>
  <path class="cls-5" d="M824.92,534.65c-1.38,0-2.76-.5-3.86-1.5-2.18-1.98-2.49-5.25-.73-7.6,8.43-11.44,6.94-27.27-3.49-36.81-1.12-1.02-1.78-2.42-1.85-3.94-.07-1.52.46-2.98,1.49-4.1,1.04-1.13,2.45-1.82,3.99-1.93,1.58-.11,3.09.41,4.2,1.42,10.47,9.48,26.4,9.52,37.06.08,2.18-1.95,5.46-1.93,7.64.05,2.18,1.98,2.49,5.25.73,7.61-8.36,11.32-6.93,27.07,3.33,36.63,2.27,2.13,2.42,5.72.32,8.01-1.9,2.08-5.57,2.9-8.18.59-10.47-9.33-26.33-9.31-36.88.04-1.08.97-2.43,1.45-3.78,1.45ZM820.9,482.94s-.09,0-.12,0c-.45.03-.89.24-1.19.57-.27.3-.41.68-.39,1.09.02.4.19.77.49,1.04,12.01,11,13.74,29.22,4.03,42.39-.47.63-.39,1.49.19,2.02.58.52,1.44.53,2.01.02,12.16-10.77,30.41-10.79,42.47-.05.69.61,1.8.25,2.29-.29.55-.61.51-1.56-.09-2.13-11.81-11-13.46-29.14-3.83-42.18.47-.63.39-1.49-.19-2.02-.57-.52-1.44-.53-2.02-.02-12.27,10.87-30.62,10.82-42.69-.11-.32-.29-.7-.34-.95-.34Z"/>
  <path class="cls-22" d="M2044.83,318.33c-1.58,0-3.1-.87-3.79-2.34-3.19-6.8-10.99-10.13-18.18-7.75-2.01.69-4.21-.27-5.09-2.22-.89-1.94-.16-4.22,1.7-5.29,6.57-3.86,9.18-11.97,6.06-18.86-.94-2.08-.02-4.53,2.06-5.48,2.14-.97,4.65-.06,5.6,2.01,3.15,6.87,10.99,10.25,18.24,7.84,2.02-.69,4.21.27,5.09,2.22.89,1.95.16,4.22-1.7,5.29-6.51,3.81-9.13,11.87-6.1,18.74.91,2.08-.03,4.51-2.08,5.45-.59.27-1.2.39-1.8.39ZM2027.71,303.32c7.17,0,13.94,4.09,17.13,10.88-3.85-8.84-.48-19.17,7.87-24.07-9.24,3.17-19.3-1.17-23.34-10,3.98,8.85.64,19.26-7.79,24.21,2.03-.69,4.1-1.03,6.13-1.03Z"/>
  <path class="cls-5" d="M116.2,1258.14c-1.58,0-3.1-.87-3.79-2.34-3.19-6.8-10.99-10.13-18.18-7.75-2.01.69-4.21-.27-5.09-2.22-.89-1.94-.16-4.22,1.7-5.29,6.57-3.86,9.18-11.97,6.06-18.86-.94-2.08-.02-4.53,2.06-5.48,2.14-.97,4.65-.06,5.6,2.01,3.15,6.87,10.99,10.25,18.24,7.84,2.02-.69,4.21.27,5.09,2.22.89,1.95.16,4.22-1.7,5.29-6.51,3.81-9.13,11.87-6.1,18.74.91,2.08-.03,4.51-2.08,5.45-.59.27-1.2.39-1.8.39ZM99.08,1243.13c7.17,0,13.94,4.09,17.13,10.88-3.85-8.84-.48-19.17,7.87-24.07-9.24,3.17-19.3-1.17-23.34-10,3.98,8.85.64,19.26-7.79,24.21,2.03-.69,4.1-1.03,6.13-1.03Z"/>
  <path class="cls-39" d="M2660.82,1580.17c-.11,0-.23,0-.34-.03-1.14-.19-1.92-1.27-1.73-2.41.06-.38,6.13-38.16-2.43-78.12-.17-.78.12-1.59.75-2.08l28.69-22.69c.91-.73,2.23-.57,2.95.34.72.91.57,2.22-.34,2.94l-27.67,21.89c8.33,40.29,2.26,78.02,2.2,78.4-.17,1.02-1.06,1.75-2.07,1.75Z"/>
  <path class="cls-39" d="M1336.76,1523.97c-.99,0-1.87-.7-2.06-1.71l-6.7-35.76-14.24-14.2c-.82-.82-.82-2.14,0-2.96.82-.82,2.15-.82,2.97,0l14.7,14.66c.3.3.5.68.58,1.1l6.82,36.39c.21,1.14-.54,2.23-1.68,2.44-.13.02-.26.03-.39.03Z"/>
  <path class="cls-39" d="M2640.57,1556.29c.98-.16,1.73-1,1.76-2.02l.82-36.37,11.74-16.32c.68-.94.46-2.25-.48-2.92-.94-.67-2.25-.46-2.93.48l-12.12,16.85c-.25.34-.38.75-.39,1.18l-.83,37.02c-.03,1.16.89,2.11,2.05,2.14.13,0,.26,0,.39-.03Z"/>
  <g>
    <path class="cls-12" d="M2492.89,223.5l16.82-7.76,24.1,25.19c12.48,13.04,20.31,29.83,22.3,47.77h0c10.19-11.66,23.86-19.72,38.99-23.02l114.84-24.97,10.18,25.4-171.3,49.93-55.93-92.53Z"/>
    <path class="cls-12" d="M3101.36,800.88l-67.14-225.5c-12.22-26.51-37.4-44.71-66.4-48.02l-151.67-17.31c-36.58-4.17-71.57,16.08-86.17,49.88l-58.41,288.58"/>
    <path class="cls-27" d="M2649.7,854.81l-43.04-330.83-55.43-180-70.88-2.15-4.57,26.58-4.21,35.49c-3.36,28.33,3.32,56.95,18.89,80.86l15.35,23.57,22.5,306.49"/>
    <path class="cls-27" d="M2784.21,839.91l-92.63-259.31c-25.97-49-37.03-104.52-31.81-159.73l8.67-91.78,68.69-17.61,10.28,24.94,11.88,33.71c9.48,26.91,9.22,56.3-.73,83.04l-9.82,26.36,187.61,343.61"/>
    <g>
      <path class="cls-20" d="M2835.01,473.29c25.02,11.75,68.38,30.79,100.7,24.49,32.32-6.3,85.89,0,65.6-31.43-20.3-31.44-34.96-35.7-24.47-49.62,10.48-13.92,81.43-80.1,16.58-119.31-64.86-39.22-165.41-.53-196.05,45.13-30.64,45.66,22.27,46.83,10.4,61.86-11.87,15.02-29.1,21.84-16.86,35.91,12.24,14.07,26.16,24.55,44.12,32.98Z"/>
      <path class="cls-27" d="M2822.77,511.02c.22.03.44.04.66.07l17.29,2.25,13.61-115.6,78.61,9.26-13.72,114.7s32.16,3.7,33.69,3.97c-.53,1.74-1.09,5.91-1.74,7.64-14.22,37.79-53.36,58.03-87.42,45.21-26.85-10.1-42.51-37.74-40.98-67.49Z"/>
      <path class="cls-20" d="M2968.23,311.38s79.69,23.12,97.43,15.45c24.59-10.63,29.95-55.99,3.2-68.87-26.75-12.88-74.91-3.11-100.62,53.42Z"/>
      <path class="cls-27" d="M2904.16,437.45c-14.28,9.37-46.71,25.45-66.8,14.28-31.23-17.37-18.24-89.68-6.53-114,11.71-24.32,23.33-54.68,80.36-36.21,57.02,18.47,16.89,39.59,16.89,39.59,0,0-3.92,20.58,3.42,27.12,7.34,6.53,48.67,19.35-27.34,69.23Z"/>
      <path class="cls-20" d="M2880.93,358.84c.73-3.93,3.62-6.68,6.44-6.15,2.83.53,4.52,4.14,3.79,8.07-.73,3.93-3.62,6.68-6.44,6.15-2.83-.53-4.52-4.14-3.79-8.07Z"/>
      <path class="cls-20" d="M2832.07,351.42c.73-3.93,3.62-6.68,6.44-6.15,2.83.53,4.52,4.14,3.79,8.07-.73,3.93-3.62,6.68-6.44,6.15-2.83-.53-4.52-4.14-3.79-8.07Z"/>
      <path class="cls-20" d="M2967.71,372.93c-.15,1.29-.37,2.56-.63,3.81-7.72,1.03-15.84,1.17-24.17.19-41.79-4.92-72.6-35.01-68.81-67.21.95-8.05,4.66-14.43,9.31-20.95,64.38,13.64,88.3,50.26,84.31,84.15Z"/>
      <path class="cls-27" d="M2928.14,387.2c-1.34,11.35,6.78,21.64,18.14,22.98,11.35,1.34,21.64-6.78,22.98-18.14,1.34-11.35-6.78-21.64-18.14-22.98-11.35-1.34-21.64,6.78-22.98,18.14Z"/>
      <path class="cls-15" d="M3013.94,319.66c12.36,7.96,17.49,24.21,15.55,38.79-1.94,14.58-9.79,27.7-18.72,39.38-4.73,6.18-9.86,12.17-13.16,19.21-3.3,7.04-4.57,15.5-1.3,22.56,2.78,5.98,8.33,10.11,12.66,15.08,4.33,4.98,7.55,12.19,4.53,18.05"/>
    </g>
    <polygon class="cls-28" points="2731.78 255.02 2706.4 527.53 2522.23 568.02 2555.95 287.24 2731.78 255.02"/>
    <polygon class="cls-28" points="2487.04 213.42 2461.66 485.94 2522.23 568.02 2555.95 287.24 2487.04 213.42"/>
    <path class="cls-27" d="M2762.26,409.16c.09-20.95-16.78-69.09-17.5-71.12l-8.3-23.7c-.52-1.5-2.04-2.32-3.5-1.91l-61.46,17.42c-1.15.33-2.01,1.35-2.19,2.6-.77,5.47-.17,15.53,5.97,21.19l-14.29,3.87c-1.29.35-2.21,1.57-2.25,2.98-.02.82-.39,20.07,13.14,24.8.11,3.88.93,11.11,5.18,16.18,2.5,2.99,5.79,4.72,9.74,5.27-.4,4.69.62,10.84,5.99,14.89,5.25,3.95,24.78,2.06,33.52.71-2.23,3.47-7.28,12.86-6.44,19.14.24,1.82,42.29-9.33,42.39-32.32Z"/>
    <path class="cls-17" d="M2743.89,336.93l-87.12,21.77s-.45,18.9,12.79,23.22"/>
    <path class="cls-17" d="M2679.16,351.64c-13.24-4.32-10.64-22.3-10.64-22.3l69.36-18.17,7.09,25.24"/>
    <path class="cls-17" d="M2754.72,362.72l-82.95,19.69s-1.56,21.69,15.89,22.44"/>
    <path class="cls-17" d="M2756.19,391.73l-66.67,12.6s-3.83,10.7,4.67,16.74c8.51,6.05,37.94-.57,37.94-.57,0,0-12.5,5.5-11.9,20.57"/>
    <g>
      <path class="cls-26" d="M2436.23,380.41l-2.38-32.67,28.48-38.4c2.39-3.23,6.65-3.19,9.15.07h0c5.07,6.62,5.72,16.42,1.57,23.62l-22.12,38.42-14.71,8.95Z"/>
      <path class="cls-26" d="M2499.09,355.77l-.22-3c-.23-3.2-3.02-5.6-6.21-5.37l-58.53,4.27,1.87,25.67,47.44-3.46c9.33-.68,16.34-8.79,15.66-18.12Z"/>
      <path class="cls-26" d="M2500.92,380.8l-.22-3c-.23-3.2-3.02-5.6-6.21-5.37l-58.53,4.27,1.87,25.67,47.44-3.46c9.33-.68,16.34-8.79,15.66-18.12Z"/>
      <path class="cls-26" d="M2489.5,405.24l-.07-.9c-.25-3.49-2.83-6.15-5.74-5.94l-45.91,3.35.88,12.14c.62,8.48,4.67,16.17,10.84,20.58l20.26,14.47-1.2-23.61,6.88-.5c8.51-.62,14.8-9.38,14.06-19.57Z"/>
    </g>
    <line class="cls-16" x1="2555.95" y1="287.24" x2="2522.23" y2="568.02"/>
  </g>
  <g class="cls-37">
    <g id="Group_231" data-name="Group 231">
      <path id="Path_5588" data-name="Path 5588" class="cls-5" d="M290-843.39l433.64-1703.76,1987.25,1021.6-433.64,1703.76L290-843.39Z"/>
    </g>
  </g>
  <path class="cls-19" d="M2849.75,385.41c.44,3.18,2.32,6.01,5.23,6.91l7.1,2.18c2.45.75,4.64-.57,5.91-2.69l.16.79c.96,4.79-2.8,9.03-6.89,7.77l-7.1-2.18c-4.25-1.31-6.56-6.66-4.9-11.37l.5-1.41Z"/>
  <path class="cls-12" d="M2888.84,411.51l-44.99,9.8s27.32,19.18,44.99-9.8Z"/>
</svg>