<?xml version="1.0" encoding="UTF-8"?>
<svg id="_Layer_" data-name="&amp;lt;Layer&amp;gt;" xmlns="http://www.w3.org/2000/svg" viewBox="0 0 1394.53 1556.21">
  <path d="M955.72,618.22c-28.79,4.48-56.64-17.79-64.74-51.91-2.03-8.6-10.39-14.19-19.08-12.78-113.13,18.08-311.56,40.58-440.83,52.57-9.2.86-16.01,8.96-15.27,18.17,3.14,38.72-19.04,73.46-50.5,79.06-.03,0-.07.01-.09.01-1.35.25-2.73.43-4.11.55-9.25.83-16.09,8.96-15.33,18.2,5.03,60.77,11.82,119.49,20.2,174.53,1.36,8.93,9.47,15.27,18.46,14.24,30.35-3.39,58.49,22.88,63.91,59.48,1.24,8.35,8.41,14.4,16.68,14.4.62,0,1.25-.04,1.89-.11,103.03-11.47,197.83-27.68,289.81-49.59,14.22-3.38,47.52-8.61,79.71-13.69,38.77-6.09,78.87-12.4,96.41-17.01,8.31-2.19,13.65-10.26,12.41-18.77-5.63-38.48,14.72-75.34,46.32-83.92,8.2-2.21,13.48-10.21,12.31-18.62-6.78-48.43-16.58-99.6-29.11-152.09-2.03-8.57-10.33-14.14-19.04-12.75ZM910.58,874.74c-19.86,3.92-51.1,8.84-79.38,13.29-34.35,5.39-66.8,10.5-82.28,14.19-86.16,20.51-174.85,35.96-270.7,47.16-11.84-40.09-44.02-68.67-81-72.18-6.63-45.53-12.17-93.47-16.52-142.91,38.64-11.69,66.4-50.74,68.96-96.04,124.21-11.8,302.18-32.07,413.14-49.14,14.41,37.31,46.66,62.05,82.36,63.38,9.64,41.86,17.48,82.73,23.34,121.85-35.34,16.74-58.5,56.8-57.91,100.39ZM659.67,629.4c-37.77,4.72-67.91,23.34-84.85,52.41-17.5,30.04-19.15,67.59-4.54,103.01,17.48,42.37,64.37,102.99,121.76,102.99,5.72,0,11.54-.61,17.45-1.89,29.23-6.34,47.57-30.95,55-51.88,14.86-41.85,11.82-91.21-8.34-135.43-11.38-24.95-34.96-76.82-96.47-69.21ZM732.67,822.75c-4.19,11.79-14.64,26.77-30.35,30.18-42.02,9.17-85.12-42.89-100.84-80.98-10.56-25.61-9.65-52.27,2.51-73.14,11.69-20.06,32.39-32.47,59.87-35.91,30.86-3.85,45.49,14.49,61.55,49.72,16.56,36.32,19.2,76.47,7.25,110.14ZM359.37,1065.14c-1.91,9.13,3.93,18.07,13.06,19.99,160.48,33.72,402.92,48.48,563.34,58.24,64.77,3.94,133.37,6.77,222.46,9.15h.45c8.39,0,15.52-6.17,16.71-14.51,19.4-136.54,25.14-279.74,17.05-425.63-.42-7.53-5.79-13.29-12.72-15.13-2.38-1.95-5.11-3.5-8.39-3.92-30.4-3.84-60.79-7.96-91.17-12.19-11.97-65-26.9-130.07-45-194.84-2.13-7.63-9.2-12.25-16.8-12.01-2.84-1.17-5.91-1.87-9.15-1.35-232.98,39.84-542.54,73.48-745.95,89.15-9.3.71-16.26,8.82-15.54,18.12.06.73.41,1.35.56,2.05-.05.71-.35,1.35-.31,2.08,7.95,151.31,26.34,302.97,54.56,450.98-2.38,3.2-3.78,7.16-3.4,11.45.77,8.78,8.14,15.4,16.8,15.4.49,0,.99-.03,1.49-.07,14.53-1.28,30.01-2.76,45.89-4.35-1.82,2.08-3.31,4.46-3.92,7.36ZM1159.24,725.79c6.77,134.38,1.72,266.32-15.21,392.56-81.41-2.28-145.53-5-206.2-8.69-153.16-9.31-381.33-23.26-539.19-53.79.02-.59.03-1.18.05-1.77,38.43-4.14,79.41-9,121.63-14.55,1.01,7.03,6.11,12.92,13.35,14.26,77.24,14.39,202.76,20.92,303.59,26.17,25.36,1.32,48.76,2.53,68.78,3.76,30.58,1.85,62.33,3.38,97.04,4.66.21.01.42.01.63.01,8.82,0,16.21-6.83,16.83-15.71,2.66-38.23,29.52-67.14,61.23-66.56,8.99.53,16.63-6.61,17.32-15.59,1.8-23.63,2.99-48.02,3.69-72.57.41-.33.63-.81,1.01-1.17.78-.74,1.44-1.52,2.06-2.4.63-.89,1.15-1.8,1.6-2.8.43-.96.75-1.92,1-2.96.27-1.13.4-2.24.43-3.42.02-.58.26-1.1.21-1.69-4.61-62.12-12.35-124.75-22.84-187.52,24.32,3.35,48.64,6.66,72.99,9.77ZM597.07,1028.92c100.31-14.64,201.27-32.36,282.28-51.64,56.43-13.43,115.72-28.63,189.11-48.51-.54,15.01-1.04,30.08-2,44.75-37.71,6.37-68.5,38.34-77.34,80.55-28.59-1.15-55.22-2.48-81.02-4.05-20.11-1.23-43.61-2.44-69.08-3.77-73.55-3.82-168.18-8.76-241.95-17.33ZM1048.13,693.43c-.02.11-.1.2-.11.32-.51,3.63.44,7,2.01,10.02,11.1,63.06,19.12,125.98,24.2,188.43-79.81,21.74-142.96,38.01-202.68,52.24-137.4,32.7-332.94,60.88-484.04,76.92-1.5-.5-2.99-1.04-4.65-1.1-.18-.01-.37-.01-.57-.01-3.1,0-5.86,1.07-8.37,2.55-13.35,1.38-26.17,2.63-38.68,3.79-26.94-141.88-44.69-287.13-52.84-432.15,201.53-16.01,496.71-48.4,723.52-86.71,16.88,61.76,31,123.77,42.21,185.7ZM980.65,1210.41c-124.38-7.57-432.02-29.03-601.82-64.71-9.13-1.93-14.97-10.88-13.06-19.99,1.93-9.11,10.95-14.9,19.99-13.06,167.61,35.24,473.29,56.54,596.94,64.06,60.68,3.71,124.79,6.41,206.2,8.69,17.42-129.88,22.37-265.74,14.69-404.09-.51-9.31,6.61-17.28,15.92-17.79,9.39-.15,17.28,6.61,17.79,15.92,8.1,145.86,2.36,289.06-17.04,425.63-1.19,8.34-8.32,14.51-16.71,14.51h-.45c-89.07-2.39-157.68-5.21-222.46-9.15ZM1265.67,1264.41c-1.19,8.34-8.32,14.51-16.71,14.51h-.45c-89.06-2.39-157.67-5.21-222.46-9.15-197.9-12.04-480.86-37.01-626.96-67.71-9.13-1.93-14.97-10.87-13.06-19.99,1.92-9.11,10.93-14.89,19.99-13.06,144.32,30.33,425.31,55.09,622.08,67.05,60.68,3.69,124.8,6.41,206.2,8.69,17.42-129.85,22.37-265.72,14.7-404.09-.51-9.31,6.61-17.28,15.92-17.79,9.28-.34,17.28,6.61,17.79,15.92,8.08,145.89,2.35,289.09-17.05,425.63ZM195.46,611.88c-.79,8.77-8.16,15.36-16.8,15.36-.5,0-1.02-.03-1.53-.07-20.81-1.89-41.53-6.3-61.59-13.12-8.82-3.01-13.55-12.6-10.55-21.42,3.01-8.84,12.67-13.49,21.42-10.55,17.53,5.96,35.62,9.82,53.75,11.46,9.28.84,16.14,9.05,15.3,18.33ZM221.02,515.5c7.69,5.29,9.63,15.8,4.35,23.48-3.28,4.76-8.56,7.32-13.93,7.32-3.3,0-6.63-.96-9.55-2.97-19.64-13.5-36.07-33.89-46.28-57.41-3.72-8.56.21-18.5,8.76-22.21,8.56-3.71,18.5.22,22.21,8.76,7.73,17.79,19.95,33.08,34.43,43.03ZM262.07,505.02c-2.78-29.09-2.7-58.57.26-87.6.94-9.28,9.32-16.18,18.5-15.07,9.27.94,16.02,9.22,15.07,18.5-2.73,26.82-2.81,54.06-.24,80.95.9,9.28-5.91,17.53-15.19,18.41-.54.05-1.09.08-1.63.08-8.59,0-15.95-6.54-16.78-15.27Z"/>
</svg>