<?xml version="1.0" encoding="UTF-8"?>
<svg id="_Layer_" data-name="&amp;lt;Layer&amp;gt;" xmlns="http://www.w3.org/2000/svg" viewBox="0 0 1428.21 1434.95">
  <defs>
    <style>
      .cls-1 {
        opacity: .6;
      }

      .cls-2 {
        fill: #d8d6d6;
      }

      .cls-3 {
        fill: #ffd593;
      }

      .cls-4 {
        fill: #3f5f99;
      }

      .cls-5 {
        fill: #f3ddb7;
      }

      .cls-6 {
        fill: #3a2232;
      }

      .cls-7 {
        fill: #bfbbbb;
      }

      .cls-8 {
        fill: #fff;
      }

      .cls-9 {
        fill: #151f51;
      }

      .cls-10 {
        fill: #23121e;
      }

      .cls-11 {
        fill: #6c81b0;
      }

      .cls-12 {
        fill: #fc9465;
      }

      .cls-13 {
        fill: #999898;
      }

      .cls-14 {
        fill: #f28161;
      }

      .cls-15 {
        fill: #43c4db;
      }

      .cls-16 {
        fill: #313871;
      }

      .cls-17 {
        fill: #b47e6a;
      }

      .cls-18 {
        fill: #e65a28;
      }

      .cls-19 {
        fill: #5371a5;
      }

      .cls-20 {
        fill: #f08d60;
      }

      .cls-21 {
        fill: #3f59a8;
      }

      .cls-22 {
        fill: #eae4e4;
      }

      .cls-23 {
        fill: #a56a58;
      }
    </style>
  </defs>
  <g>
    <path class="cls-13" d="M1052.82,1132.67c-132.42,0-239.77-1.92-239.77-4.29s107.35-4.29,239.77-4.29,239.77,1.92,239.77,4.29-107.35,4.29-239.77,4.29Z"/>
    <path class="cls-13" d="M1082.14,1128.38c0,16.2-13.13,29.32-29.32,29.32s-29.32-13.13-29.32-29.32,13.13-29.32,29.32-29.32,29.32,13.13,29.32,29.32Z"/>
    <path class="cls-13" d="M1057.11,1128.38c0,132.42-1.92,239.77-4.29,239.77s-4.29-107.35-4.29-239.77,1.92-239.77,4.29-239.77,4.29,107.35,4.29,239.77Z"/>
    <path class="cls-13" d="M1055.86,1131.41c-93.64,93.64-170.9,168.19-172.58,166.51-1.68-1.68,72.87-78.94,166.51-172.58,93.64-93.64,170.9-168.19,172.58-166.51,1.68,1.68-72.87,78.94-166.51,172.58Z"/>
    <path class="cls-13" d="M1049.79,1131.41c-93.64-93.64-168.19-170.9-166.51-172.58,1.68-1.68,78.94,72.87,172.58,166.51,93.64,93.64,168.19,170.9,166.51,172.58s-78.94-72.87-172.58-166.51Z"/>
    <path class="cls-13" d="M1064.53,1128.38c0,6.47-5.24,11.71-11.71,11.71s-11.71-5.24-11.71-11.71,5.24-11.71,11.71-11.71,11.71,5.24,11.71,11.71Z"/>
    <path class="cls-13" d="M1053.67,1371.31c-139.49,0-252.98-113.48-252.98-252.98s113.48-252.98,252.98-252.98,252.98,113.48,252.98,252.98-113.49,252.98-252.98,252.98ZM1053.67,900.7c-120,0-217.63,97.63-217.63,217.63s97.63,217.63,217.63,217.63,217.63-97.63,217.63-217.63-97.62-217.63-217.63-217.63Z"/>
  </g>
  <rect class="cls-23" x="1139.22" y="1044.53" width="69.82" height="296.95"/>
  <path class="cls-12" d="M1262.24,991.92c9.12,6.74,31.59,39.63,26.92,53.81-14.66,44.58-23.2,60.66-29.11,85.28-11.44,47.75-26.08,83.84-34.96,133.22-1.62,9.32-3.31,19.22-4.89,29.94-1.25,8.05-19.69,5.4-20.38,3.34-2.06-5.74-5.82-14.24-9.7-22.39-3.24-6.83-6.57-13.45-9-17.99-6.63-12.36-13.47-24.75-16.74-38.54-3.56-15-4.1-31.68-3.06-47,3.17-47.06,4.08-91.67,38.56-131.31,11.96-13.75,7.08-32,22.91-30.54,28.79,2.64,10.18-39.45,39.45-17.82Z"/>
  <path class="cls-12" d="M1301.12,1051.01c-2.46-12.81-8.49-24.78-20.57-35.39-7.33,5.13-13.07,14.43-20.79,23.31-34.48,39.65-47.76,82.21-50.93,129.27-1.04,15.32-.5,32.01,3.06,47,3.27,13.79,10.12,26.18,16.74,38.54,2.43,4.54,5.76,11.16,9,17.99,3.87,8.15,7.63,16.65,9.7,22.39.69,2.06,19.13,4.71,20.38-3.34,1.57-10.72,3.27-20.62,4.89-29.94,7.51-43.15,14.35-86.41,20.66-129.75,3.95-27.14,12.65-55.17,7.86-80.07Z"/>
  <path class="cls-14" d="M1227.24,1252.93c-.19,0-.39-.02-.59-.06-1.42-.32-2.32-1.75-2-3.18l17.82-78.91c.33-1.43,1.71-2.3,3.18-2,1.42.32,2.32,1.75,2,3.18l-17.82,78.91c-.28,1.23-1.37,2.06-2.59,2.06Z"/>
  <path class="cls-12" d="M1100.62,722.12c-7.64-8.91-19.73-26.23-22.91-33.09-4.53-9.62-9.83-20.86-16.76-32.67-5.59-9.47-12.16-19.3-20.22-29.06-.49-.64-.92-1.13-1.27-1.63-16.47-20.01-32.59-39.59-40.23-54.58-6.86-13.5-8.63-30.54-5.16-45.04,6.43-27.22,31.32-45.53,75.37-15.2,17.25,11.88,30.33,46.52,40.44,66.6.85,1.56,1.56,3.11,2.33,4.67,4.53,8.98,8.27,17.82,11.38,25.59,1.27,3.18,2.83,7,4.67,11.17,12.51,29.84,35.35,81.87,39.81,101.95,4.6,20.79-56.14,14.49-67.45,1.27Z"/>
  <path class="cls-15" d="M1128.26,618.89c-16.4,12.09-35.56,26.3-36.55,27.71l-30.76,9.76-6.58,2.12-14.92-32.81-45.39-99.62c6.43-27.22,31.32-45.53,75.37-15.2,17.25,11.88,30.33,46.52,40.44,66.6.85,1.56,1.56,3.11,2.33,4.67,4.53,8.98,8.27,17.82,11.38,25.59,1.27,3.18,2.83,7,4.67,11.17Z"/>
  <polygon class="cls-21" points="1082.8 551.58 1095.52 803.57 1019.16 789.57 1049.71 512.13 1082.8 551.58"/>
  <path class="cls-5" d="M1095.47,404.28c-13.33-12.44-34.84-14.63-50.09-4.09-4.68,3.24-7.93,8.04-12.53,11.35-4.63,3.33-9.16,5.83-12.16,10.9-5.66,9.57-4.49,21.69-.44,31.68-3.22,5.19-5.71,10.83-5.93,17.02-.26,7.21,3.1,14.27,8.66,18.83,8.82,7.23,13.86,15.26,22.18,8.73,2.39,12.26,19.45,14.05,32.51,14.8,13.77.79,25.73-9.56,28.86-22.42,9.46,4.57,21.91,1.1,28.59-7.09,8.91-10.92,6.44-26.37-.13-37.9,6.69-4.64,12.1-11.49,13.06-19.77,1.06-9.14-2.98-17.28-10.9-21.92-12.25-7.18-30.33-9.93-41.7-.13Z"/>
  <path class="cls-5" d="M1001.49,436.23c7.65-16.55,2.99-37.67-11.79-48.85-4.54-3.43-10.12-5.02-14.7-8.35-4.61-3.35-8.4-6.88-14.16-8.14-10.86-2.38-22.01,2.52-30.22,9.49-5.94-1.44-12.07-2.04-18.02-.3-6.93,2.01-12.58,7.41-15.18,14.12-4.11,10.64.39,21.81,9.19,27.67-10.89,6.11-17.81,19-14.43,31.64,3.56,13.33,17.13,21.45,30.32,20.4-1.38,10.41,5.82,21.16,15.68,24.94,13.16,5.04,27.91,3.51,36.8-6.34,6.5,4.9,13.85,2.26,22.02.58,9.01-1.85,15.48-8.23,17.41-17.21,2.98-13.88-.06-31.91-12.92-39.65Z"/>
  <rect class="cls-23" x="781.18" y="655.78" width="82.66" height="433.42"/>
  <path class="cls-21" d="M1223.13,965.45c-80.51-53.06-152.2-104.91-240.16-140.98-29.23-21.91-67.05-32.27-102.54-18.9-39.82,15-63.2,55.53-65.34,96.97-1.54,29.85,8.66,54.04,24.45,78.83,24.72,38.81,61.56,46.39,104.52,50.61,45.63,4.48,91.54,6.2,137.38,4.96,28.42-.77,59.58-3.16,89.05-1.6,21.94,1.17,57.33,16.39,70.85-8.28,14.23-25.98,3.28-47.45-18.21-61.61Z"/>
  <path class="cls-15" d="M1138.07,870.46c-.57,1.58-1.66,3.15-3.42,4.77-17.08,15.65-57.12,16.81-78.73,19.19-31.08,3.43-63.2,3.88-94.24-.3-29.72-4.01-58.43-13.58-88.26-17.04-20.55-2.38-40.46-7.78-59.75-15.08-3.86-20.34,20.34-109.47,26.16-135.14,8.91-39.27,19.57-77.84,31.77-116.2,9.75-30.44,7.43-63.61,26.93-89.13,13.82-18.09,38.78-24.68,60.17-28.47,26.16-4.63,51.75-4.84,77.49,2.59,11.43,3.37,24.69,6.8,34.01,14.87,1.82,1.54,3.51,3.3,4.98,5.26,2.66,3.51,4.63,7.43,6.17,11.64,3.09,7.71,4.98,16.06,8.34,23.21,1.12,2.38,2.24,4.77,3.3,7.22,3.86,8.56,7.36,17.46,9.05,26.37,1.4,7.08,1.68,14.24.21,21.32-3.44,16.13-15.29,28.96-25.53,41.94-9.19,11.64-17.67,24.75-18.65,39.55-.91,13.38-7.18,48.22-2,60.55,18.33,43.6,38.18,63.63,76.61,104.23,5.95,6.28,7.29,13.38,5.39,18.66Z"/>
  <path class="cls-9" d="M1310.82,1148.04c-.07,16.54-.64,33.23-1.91,49.21l-11.03-1.91-11.67-2.05-2.26-.42-11.67-1.98-19.51-3.39-13.36-2.33-1.13-.21-13.43-2.33-25.88-4.45-2.4-.42-12.09-2.12-2.4-.42-20.72-3.61-9.12-25.24-4.74-13.08-.78-2.05-4.81-13.43-6.93-19.3-3.04-8.27-1.77-4.95-2.97-8.27c0-.07-11.74-32.45-11.74-32.45l-32.52-1.63-8.7-.42-11.6-.57-7.07-.35-70.84-3.46-11.31-.57-5.23-.28-11.38-.57-58.4-2.9-11.45-.57-4.53-.21-11.17-.57-30.69-1.48-13.57-3.39s6.43-22.98,20.43-54.09c1.91-4.24,3.96-8.7,6.22-13.22,2.05-4.31,4.24-8.56,6.5-12.8,10.18-19.3,22.84-39.88,38.25-59.18,2.97-3.75,6.01-7.35,9.19-10.89.21-.21.42-.49.64-.71,3.25-3.68,6.65-7.28,10.11-10.82,21.35-21.49,46.81-39.38,76.78-49.07,5.87-1.98,11.95-3.54,18.24-4.74,7.21-1.41,14.28-2.33,21.64-2.76,19.66-1.13,40.72,1.2,63.49,7.85,0,0,5.52,2.97,14.85,8.56,1.63.92,3.39,1.98,5.3,3.11,4.1,2.47,8.77,5.3,13.79,8.48.99.64,1.98,1.27,3.04,1.91,10.89,6.93,23.62,15.41,37.05,25.1,3.54,2.47,7.14,5.09,10.75,7.78,1.41.99,2.76,2.05,4.17,3.11,3.18,2.4,6.22,4.74,9.33,7.14,12.51,9.76,25.24,20.43,37.26,31.6,3.04,2.83,6.01,5.73,8.98,8.63.64.64,1.2,1.2,1.84,1.84,2.97,2.9,5.8,5.94,8.7,8.98,15.55,16.51,29.15,34.02,38.87,52,6.5,12.01,10.22,25.31,11.62,38.9.29,2.77.59,5.82.91,9.15.28,2.62.49,5.3.78,8.2.21,1.84.35,3.75.57,5.73.21,2.62.42,5.44.64,8.27,1.34,16.76,2.69,36.77,3.39,57.98.14,4.81.28,9.55.35,14.42,0,1.77.07,3.46.07,5.23.07,4.88.07,9.83.07,14.78Z"/>
  <g class="cls-1">
    <path class="cls-5" d="M1310.67,1128.03c-54.3-10.32-110.16-9.33-163.96,3.18l-4.81-13.43c55.29-12.94,112.63-14.35,168.42-4.17.14,4.81.28,9.55.35,14.42Z"/>
  </g>
  <g class="cls-1">
    <path class="cls-5" d="M1306.29,1047.35c-60.24,1.48-118.22,21.35-174.35,42.85l-1.77-4.95-2.97-8.27c57.27-21.99,116.31-41.86,177.75-43.55.28,2.62.49,5.3.78,8.2.21,1.84.35,3.75.57,5.73Z"/>
  </g>
  <g class="cls-1">
    <path class="cls-5" d="M1187.44,875.19c-43.06,9.05-83.92,27.79-118.85,54.72-38.18,29.48-67.38,68.44-95.17,107.61l-5.23-.28-11.38-.57c30.4-43.2,62.08-86.19,104.29-118.71,33.02-25.52,71.2-43.55,111.43-53.66,3.54,2.47,7.14,5.09,10.75,7.78,1.41.99,2.76,2.05,4.17,3.11Z"/>
  </g>
  <g class="cls-1">
    <path class="cls-5" d="M1132.43,837.29c-55.36,5.16-104.71,35.49-144.3,73.32-21.21,20.29-40.3,42.77-58.61,65.75-14.49,18.24-30.68,36.48-42.56,56.85l-4.53-.21-11.17-.57c12.44-23.76,31.32-44.75,47.73-65.47,19.58-24.6,40.02-48.57,63.14-70,36.98-34.29,81.52-62.01,131.22-71.27,1.63.92,3.39,1.98,5.3,3.11,4.1,2.47,8.77,5.3,13.79,8.48Z"/>
  </g>
  <g class="cls-1">
    <path class="cls-5" d="M1198.96,1178.15l-2.4-.42-12.09-2.12c-3.18-28.63-7.71-57.06-13.72-85.27-3.68-17.46-7.78-34.86-12.59-52.04-3.82-13.58-8.41-28.42-19.02-38.32-11.81-11.17-30.4-12.87-45.82-15.2-17.25-2.62-34.64-4.1-52.04-5.09-62.85-3.54-127.05-.99-187.65-19.44,2.05-4.31,4.24-8.56,6.5-12.8,34.08,9.97,69.57,13.5,104.99,15.13,35.7,1.7,71.55,1.84,107.19,5.37,30.33,3.04,68.3,4.95,86.05,33.51,8.2,13.08,12.16,28.21,15.98,42.99,4.74,18.1,8.91,36.27,12.51,54.58,5.16,26.16,9.19,52.6,12.09,79.12Z"/>
  </g>
  <g class="cls-1">
    <path class="cls-5" d="M1252.77,1187.49l-13.36-2.33-1.13-.21c-3.53-33.16-8.63-66.11-15.27-98.77-6.86-33.8-13.79-70.99-35.49-98.84-19.02-24.32-48.15-37.61-76.64-47.51-34.72-12.09-70.35-21.92-105.56-32.67-32.52-9.97-65.12-19.87-97.71-29.77.21-.21.42-.49.64-.71,3.25-3.68,6.65-7.28,10.11-10.82,37.12,11.38,74.24,22.7,111.36,34.01,34.72,10.61,70.35,19.73,103.93,33.44,29.55,12.09,57.06,29.98,73.6,57.98,18.24,30.76,24.75,67.45,31.53,102.03,6.08,31.18,10.68,62.57,14,94.18Z"/>
  </g>
  <g class="cls-1">
    <path class="cls-5" d="M1297.88,1195.34l-11.67-2.05-2.26-.42c4.88-33.44,6.72-67.38-.07-100.68-13.22-65.12-56.28-120.27-105.28-163.18-50.62-44.33-108.67-80.11-164.95-117.01,6.93-1.34,14-2.26,21.35-2.69,28.49,18.74,56.84,37.33,84.77,56.7,57.13,39.66,112.42,85.27,147.7,146.21,16.54,28.49,28.35,59.6,32.81,92.41,4.1,30.19,2.05,60.66-2.4,90.71Z"/>
  </g>
  <g>
    <path class="cls-12" d="M1316.72,1316.26c-.46.7-1.48.94-2.35.9-6.94-.4-13.81-.79-20.75-1.19-15.54-.87-31.01-1.74-46.55-2.61l-2.46-.11c-1.57-4.77-2.31-8.13-2.35-11.17.08-4.11,1.5-7.44,4.43-12.37,12.8,2.55,19.65-2.55,19.93-2.46,7.98,1.75,13.92,3.61,19.56,6.05,3.21,1.38,6.34,2.97,9.68,4.86,3.41,1.89,24.01,12.97,20.86,18.1Z"/>
    <path class="cls-10" d="M1316.72,1316.26c-.46.7-1.48.94-2.35.9-6.94-.4-13.81-.79-20.75-1.19-15.54-.87-31.01-1.74-46.55-2.61l-2.46-.11c-1.57-4.77-2.31-8.13-2.35-11.17,0,0,31.32,9.13,43.92-8.78,3.21,1.38,6.34,2.97,9.68,4.86,3.41,1.89,24.01,12.97,20.86,18.1Z"/>
  </g>
  <path class="cls-12" d="M1225.09,1264.23c-1.62,9.32-3.31,19.22-4.89,29.94-1.25,8.05-19.69,5.4-20.38,3.34-2.06-5.74-5.82-14.24-9.7-22.39l34.97-10.89Z"/>
  <g>
    <path class="cls-12" d="M1269.2,1319.66c-.46.7-1.48.94-2.35.9-6.94-.4-13.81-.79-20.75-1.19-15.54-.87-31.01-1.74-46.55-2.61l-2.46-.11c-1.57-4.77-2.31-8.13-2.35-11.17.08-4.12,1.5-7.45,4.43-12.37,12.8,2.55,19.65-2.55,19.93-2.46,7.98,1.75,13.92,3.61,19.56,6.05,3.21,1.38,6.34,2.97,9.68,4.86,3.41,1.89,24.01,12.97,20.86,18.1Z"/>
    <path class="cls-6" d="M1269.2,1319.66c-.46.7-1.48.94-2.35.9-6.94-.4-13.81-.79-20.75-1.19-15.54-.87-31.01-1.74-46.55-2.61l-2.46-.11c-1.57-4.77-2.31-8.13-2.35-11.17,0,0,31.33,9.13,43.92-8.78,3.21,1.38,6.34,2.97,9.68,4.86,3.41,1.89,24.01,12.97,20.86,18.1Z"/>
  </g>
  <path class="cls-12" d="M400.71,433.95c2.96-66.16,50.23-70.77,62.3-13.03,6.9,33.01,32.42,103.68,48.44,136.68,3.25,6.69,8.8,16.69,11.22,23.57,7.14,20.29-15.07,31.34-33.54,21.62-25.53-13.45-44.47-54.22-57.56-78.26-13.52-24.84-32.15-61.9-30.87-90.58Z"/>
  <path class="cls-12" d="M264.43,1081.23c-6.76-26.79-20.57-17.94-46.3-16.92-5.69.23-2.9-27.65-26.59,14.02-13.12,23.06-34.46,42.92-50.46,64.03-23.56,31.09-44.99,62.81-48.79,102.7-1.84,19.36-.43,40.76,5.19,59.47,3.19,10.62,8.1,31.68,10.02,42.52.7,3.92,15.03,13.32,17.78,5.79,22.97-62.84,44.26-102.72,68.59-154.67,10.56-22.55,27.64-44.77,41.69-65.69,7.54-11.23,31.82-39.6,28.88-51.24Z"/>
  <path class="cls-12" d="M500.74,1069.77c-16.3-22.31-25.79-8.93-49.26,1.65-5.19,2.34-13.04-24.55-19.41,22.95-3.52,26.3-15.88,52.7-22.81,78.27-10.2,37.65-18.2,75.09-6.78,113.5,5.54,18.64,14.86,37.96,27.08,53.2,6.94,8.65,19.37,26.34,25.21,35.67,2.11,3.38,18.93,6.72,18.66-1.29-2.24-66.86,2.57-111.82,5.67-169.1,1.34-24.86,8.86-51.86,14.06-76.52,2.79-13.24,14.67-48.63,7.59-58.33Z"/>
  <path class="cls-21" d="M144.45,792.79c-3.76,41.89-7.18,133.53,16.92,250.46,2.92,14.17.47,28.95-6.96,41.36-29.82,49.73-102.57,184.39-59.87,250.32l40.99,15.18s108.04-212.9,134.48-262.18c1.8-3.36,3.09-6.92,3.86-10.66l70.59-344.15-170.35-36.47-19.71,52.56c-5.26,14.03-8.62,28.64-9.96,43.57Z"/>
  <path class="cls-21" d="M288.75,839.25s10.63,96.23,102.15,233.81c8.04,12.09,11.35,26.73,9.09,41.07-9.02,57.29-26.05,209.37,38.24,254.51l43.7-1.27s20.44-237.87,26.51-293.46c.41-3.79.28-7.58-.41-11.33l-63.43-345.54-166.29,44.12,10.44,78.1Z"/>
  <path class="cls-11" d="M464.85,517.65c4.95-6.15,9.9-12.37,12.73-19.66,8.77-22.77,1.56-47.65-7.49-69.08-11.52-27.22-24.04-53.45-49-67.95-4.45-2.69-9.26-4.88-14.57-6.72-13.72-4.6-28.07-8.34-42.56-7.71-13.22.57-25.03,5.66-35.21,13.22-8.55,6.36-15.98,14.42-22.27,23.05-11.52,15.77-21,35.56-23.83,54.87-4.67,31.6-4.31,64.06-13.01,94.95-9.33,33.02-32.66,60.73-51.9,88.52-20.72,29.98-41.43,59.96-62.22,89.93,16.97,12.94,35.14,24.32,54.16,34.15,19.02,9.9,38.96,18.1,59.32,24.96,3.25.85,6.43,1.77,9.62,2.55,23.54,6.08,47.16,12.44,71.2,16.05,7.42,1.13,14.92,2.19,22.41,3.18,32.31,2.97,64.98,2.55,97.15-1.77,2.33-12.59-6.5-91.56-15.13-120.27-8.77-29.63-15.27-48.93-20.79-79.68-4.67-26.66,9.97-46.03,25.45-65.26,2.05-2.4,3.96-4.88,5.94-7.35Z"/>
  <path class="cls-20" d="M1144.38,381.98c5.79,6.83,2.72,18.93-6.84,27.03-9.56,8.1-22,9.13-27.79,2.3-5.79-6.83-2.72-18.93,6.84-27.03,9.56-8.1,22-9.13,27.79-2.3Z"/>
  <path class="cls-5" d="M1109.75,296.43c-5.62-4.15-11.96-7.44-18.45-10.06-28.92-11.65-62.63-10.81-90.94,2.24-24.72,11.4-54.5,37.66-60.03,65.87-5.81,29.62,9.5,65.34,30.18,85.86,9.31,9.24,21.65,17.01,34.69,15.6,2.65-.29,5.32-.97,7.53-2.46,3.26-2.19,5.18-5.83,7.12-9.25,17.74-31.28,46.83-54.64,77.7-73.08,11.52-6.88,24.15-14.01,29.56-26.29,5.16-11.69,2.24-25.88-5.19-36.28-3.36-4.71-7.52-8.73-12.17-12.16Z"/>
  <path class="cls-12" d="M1132.34,430.4c-1.52,5.23-3.62,10.25-6.27,14.79-10.02,16.93-26.68,27.6-43.75,32.24-28.85,7.87-61.96-2.15-77.76-30.17-13.82-24.56-13.3-60.23-7.97-88.73,5.83-31.22,24.41-48.56,50.8-53.78,17.37-3.37,36.06-2.89,50.87,7.25,14.75,10.07,24.21,29.69,24,49.91-.04,4.34-.5,8.77.02,12.98.2,1.52.47,3.05,1.03,4.49,1.3,3.5,3.32,6.15,5.05,8.97,1.22,2.07,2.27,4.31,3.19,6.61,4.05,10.8,4.02,23.64.8,35.44Z"/>
  <path class="cls-5" d="M1015.97,321.79c-.19.34.45,1.13,1.83,2.09,1.45,1.02,3.73,2.42,6.68,4,19.19,10.41,66.49,30.22,97.77,34.05,2.1.26-.09-13.47-1.2-19.63-.33-1.61-.57-2.67-.65-2.87-1.2-3.39-2.75-6.77-4.55-10.01-7.86-13.86-20.95-25.3-36.42-28.03-23.06-4.07-50.56-2.24-63.47,20.41Z"/>
  <path class="cls-5" d="M993.07,381.51s52.93-36.5,58.09-68.84c.19-1.18-8.75-3.32-9.49-3.45-29.39-5.43-54.39,32.99-48.67,59.21.24,1.1.22,12.97.07,13.08Z"/>
  <path class="cls-12" d="M1004.61,408.18c-5.06,7.38-17.54,7.63-27.88.55-10.34-7.08-14.62-18.81-9.56-26.19,5.06-7.39,17.54-7.63,27.88-.55,10.34,7.08,14.62,18.81,9.56,26.19Z"/>
  <path class="cls-8" d="M957.15,641.72c9.18,3.18,18.46,5.6,27.71,7.71,9.28,1.98,18.61,3.43,27.97,3.96,9.37.72,18.71-.04,27.98-1.43,9.32-1.44,18.21-4.61,27.28-8.24-7.68,5.86-16.45,10.95-26.12,13.36-9.58,2.57-19.62,3.66-29.52,3.03-19.74-1.36-39.13-7.46-55.3-18.39Z"/>
  <path d="M1055.28,396.92c-.12,4.38,1.43,7.97,3.45,8.02,2.02.05,3.76-3.45,3.87-7.83.12-4.38-1.43-7.97-3.45-8.02-2.02-.05-3.76,3.45-3.87,7.83Z"/>
  <path d="M1107.03,392.2c1.1,4.24,3.58,7.26,5.54,6.75,1.96-.51,2.65-4.36,1.55-8.59-1.1-4.24-3.58-7.26-5.54-6.75-1.96.51-2.65,4.36-1.55,8.59Z"/>
  <path class="cls-18" d="M1086.37,424.83c3,3.03,8.02,4.62,12.67,2.67,2.35-1.09,4.11-3.1,4.78-5.45.74-2.28.35-5.11-1.47-6.51.34,2.16-.29,3.89-1.23,5.31-1,1.38-2.23,2.55-3.64,3.13-3.01,1.41-6.8,1.18-11.11.84Z"/>
  <path class="cls-8" d="M1091.91,441.39c-3.07-.49-5.95-.66-8.76-1-2.8-.37-5.54-.69-8.15-1.39-2.63-.61-5.12-1.53-7.58-2.67-2.45-1.2-4.65-2.83-7.17-4.67.87,2.94,2.65,5.71,5.12,7.75,2.47,2.05,5.46,3.4,8.52,4.2,6.18,1.4,12.6.63,18.02-2.21Z"/>
  <path class="cls-12" d="M1126,770.24c6.2,12.44,11.49,25.37,16.27,38.35,3.83,10.39,7,21.01,9.06,31.89.67,3.52,2.42,35.4,3.07,35.63,0,0,27.56,9.86,27.78-3.59.01-.74.73-14.31,1.24-17.75.93-6.29,1.73-12.58,2.39-18.89,6.01-57.13-7.54-113.19-41.85-159.55-6.26-8.46-16.71-24.38-28.62-25.09-6.12-.37-15.96,6.46-20.13,10.97-7.65,8.28-14.56,17.31-12.41,27.45,2.89,13.61,17.66,39.54,25.4,50.47,6.74,9.53,12.59,19.65,17.8,30.11Z"/>
  <path class="cls-3" d="M326.21,121.59c-.37-.21-.72-.27-1.07-.34-15.86-16.4-40.3-21.7-62.47-19.84-23.31,1.96-47.31,14.41-52.38,39.1-1.71,8.32-.88,21.54,6.32,27.46-12.25,12.51-10.58,32.28-8.51,48.56,1.43,11.22,1.98,22.24-.65,33.34-1.31,5.51-3.18,10.87-5.69,15.95-2.21,4.48-4.92,10.32-9.82,12.36-3.11,1.29-3.58,5.75.05,6.82,14.25,4.22,30.68,4.86,43.81-3.1,10.26-6.21,17.58-17.54,17.5-29.61,23.95-1.12,40.79-22.65,42.51-45.81.23-3.1.08-6.14-.04-9.24-.07-2.03-.17-3.71,1.21-5.4.88-1.08,2.2-1.82,3.19-2.8,3.9-3.84,5.43-9.15,6.07-14.44.67-5.52.39-11.45,2.46-16.7,2.37-6,8.47-8.27,13.53-11.52,7.89-5.07,14.81-18.71,3.97-24.79Z"/>
  <path class="cls-3" d="M466.15,124.53c-28.21-28.93-82.34-21.38-116.79-10.34-29.04,9.31-51.72,27.85-61.06,57.39-8.11,25.64-8.51,53.78-.56,79.51,3.85,12.47,12.15,29.25,26.38,32.08,7.24,1.44,14.84-1.53,20.4-6.37,9.93-8.64,13.1-21.12,18.93-32.36,6.18-11.91,15.93-21.16,27.26-28.19,20.54-12.74,38.86-8.44,60.76-18.46,8.03-3.67,23.61,1.04,29.76-5.41,9.19-9.63,11.85-42.93,5.73-54.77-2.28-4.42-7.53-9.73-10.81-13.1Z"/>
  <path class="cls-12" d="M521.81,1395.01c-.42.71-1.41.99-2.26.99-6.79-.06-13.5-.12-20.29-.18-15.2-.12-30.33-.24-45.53-.36h-2.4c-1.7-4.59-2.56-7.84-2.7-10.81-.08-4.03,1.19-7.35,3.87-12.31,12.59,1.89,19.09-3.42,19.37-3.35,7.85,1.33,13.72,2.88,19.31,4.99,3.18,1.2,6.3,2.61,9.62,4.3,3.4,1.69,23.91,11.56,21.02,16.73Z"/>
  <path class="cls-4" d="M521.8,1395.01c-.42.71-1.41.99-2.26.99-6.79-.07-13.5-.14-20.29-.21-15.2-.07-30.33-.21-45.53-.35h-2.4c-.35-.92-.64-1.77-.92-2.62-1.06-3.25-1.63-5.8-1.77-8.2,0,0,30.9,7.49,42.56-10.61,3.18,1.2,6.29,2.55,9.62,4.24,2.97,1.48,18.95,9.19,21,14.56.35.78.35,1.56,0,2.19Z"/>
  <path class="cls-12" d="M526.05,584.83c35.06,20.03,70.41,37.8,110.78,46.28,0,0,2.31,25.35-9.09,33.86-30.16-2.36-60.83-9.27-89.36-16.05-27.33-6.5-49.66-24.38-71.22-41.63-5.56-4.45-10.73-7.59-9.44-15.31,1.05-6.31,5.66-12.18,10.23-16.41,6.42-5.93,15.05-10.95,24.05-8.86,4.9,1.14,9.33,3.73,13.67,6.28,6.81,4,13.59,7.97,20.38,11.85Z"/>
  <path class="cls-20" d="M492.22,212.87c6.29,8.35,1.92,22.25-9.77,31.06-11.68,8.81-26.26,9.18-32.55.83-6.29-8.35-1.92-22.25,9.77-31.06,11.68-8.81,26.26-9.18,32.55-.83Z"/>
  <path class="cls-12" d="M474.96,268.49c-2.12,6-4.9,11.71-8.29,16.82-12.81,19.07-32.94,30.4-53.14,34.66-34.16,7.26-72.07-6.63-88.63-40.34-14.48-29.54-11.5-71.09-3.39-103.96,8.87-36,31.68-54.99,62.78-59.31,20.47-2.77,42.23-.98,58.82,11.84,16.52,12.72,26.24,36.22,24.65,59.78-.45,6.88-1.83,14.06.06,20.43,1.15,3.99,3.4,7.3,5.28,10.79,1.28,2.49,2.36,5.18,3.28,7.92,4,12.87,3.12,27.83-1.42,41.37Z"/>
  <path d="M454.65,220.77c.61,4.75-.68,8.83-2.88,9.11-2.2.28-4.47-3.34-5.07-8.09-.61-4.75.68-8.83,2.88-9.11,2.2-.28,4.47,3.34,5.07,8.09Z"/>
  <path d="M395.91,222.77c-1.44,4.57-4.32,7.73-6.43,7.06-2.11-.66-2.65-4.91-1.21-9.47,1.44-4.57,4.32-7.73,6.43-7.06,2.11.67,2.65,4.91,1.21,9.47Z"/>
  <path class="cls-18" d="M421.78,248.47c3.9.61,7.25,1.11,9.99.34,1.27-.3,2.42-1.05,3.4-1.98.93-.96,1.61-2.19,1.46-3.88,1.61,1.22,1.83,3.44,1.04,5.12-.72,1.74-2.43,3.11-4.62,3.72-4.32,1.04-8.78-.68-11.27-3.32Z"/>
  <path class="cls-12" d="M397.26,340.53c4.6,10.18,8.84,20.43,12.73,30.83-1.91,10.39-10.61,18.52-21.28,19.3-11.03.85-25.1-.49-36.98-9.33-7.14-5.3-10.61-14.42-8.63-23.19l12.73-57.55,61.58,9.62-3.89,32.31c-1.2-2.76-2.4-5.59-3.68-8.34-3.75-8.27-16.33-1.91-12.59,6.36Z"/>
  <path class="cls-12" d="M329.44,234.15c-6.39,8.27-20.95,7.73-32.53-1.22-11.58-8.94-15.79-22.9-9.4-31.17,6.39-8.27,20.95-7.73,32.53,1.22,11.58,8.94,15.79,22.9,9.4,31.17Z"/>
  <path class="cls-3" d="M470.75,192.99s-43.64-30.52-44.71-50.17c0,0-45.59,62.92-112.37,57.03,0,0-6.84-100.92,98-92.15,0,0,76.68,21.11,59.07,85.29Z"/>
  <path class="cls-12" d="M162.16,1390.69c-.66.5-1.68.39-2.47.07-6.27-2.6-12.47-5.17-18.75-7.77-14.05-5.81-28.03-11.58-42.08-17.39l-2.23-.9c.14-4.9.57-8.23,1.55-11.04,1.44-3.76,3.86-6.37,8.2-9.96,10.96,6.47,18.98,3.98,19.21,4.15,6.78,4.17,11.64,7.81,16.03,11.86,2.5,2.3,4.86,4.78,7.31,7.59,2.52,2.84,17.84,19.68,13.23,23.38Z"/>
  <path class="cls-4" d="M162.16,1390.68c-.66.5-1.68.39-2.47.07-6.27-2.61-12.47-5.19-18.73-7.8-14.07-5.76-28.05-11.56-42.09-17.38l-2.23-.9c.02-.98.07-1.88.13-2.77.23-3.41.66-5.98,1.43-8.27,0,0,25.84,18.52,43.44,6.11,2.5,2.31,4.88,4.72,7.33,7.53,2.2,2.49,14.13,15.62,14.02,21.37.04.85-.26,1.57-.82,2.03Z"/>
  <rect class="cls-22" x="399.21" y="640.48" width="90.08" height="58.66" transform="translate(-19.52 13.37) rotate(-1.69)"/>
  <path class="cls-2" d="M465.66,640.51c-1.16,9.77-10.72,16.67-21.37,15.41-10.64-1.26-18.34-10.2-17.18-19.98,1.16-9.77,10.72-16.67,21.37-15.41,10.64,1.26,18.34,10.2,17.18,19.97Z"/>
  <rect class="cls-17" x="733.56" y="655.78" width="50.17" height="433.42"/>
  <rect class="cls-17" x="621.99" y="655.78" width="160.21" height="25.75"/>
  <path class="cls-8" d="M391,271.2c5.03,6.17,10.76,8.39,17.33,9,3.25.49,6.69.35,10.26.36,3.59-.09,7.24-.33,11.27-.04-3.09,2.5-6.59,4.31-10.36,5.48-1.87.65-3.87.86-5.84,1.26-2.04.04-4.05.27-6.14-.04-4.09-.49-8.4-1.94-11.59-4.94-3.18-2.89-5.26-7.03-4.92-11.08Z"/>
  <path class="cls-12" d="M645.18,631.88c9.12,1.56,17.16,5.92,26.36,7.28,2.34.35,10.54.1,10.06,4.55-.86,8.03-7.05,9.27-13.29,9.14-3.89-.08-7.89-.28-11.67.78-3.22.9-6.15,2.6-9.06,4.3-1.28.75-6.42,4.84-7.82,3.9-.46-.32-.7-.91-.91-1.47-3.02-8.09-14.95-20.5-13.58-29.24,5.09-1.91,16.37.15,19.91.75Z"/>
  <path class="cls-12" d="M671.08,681.18c-3.81-5.43-8.04-10.73-12.96-14.67,0,0-6.57,8.09-6.57,8.09-.23.28,2.52,4.25,2.72,4.56,2.11,3.38,4.28,7.71,7.52,10.15,2.65,1.99,6.27,1.55,8.29-1.11,1.5-1.98,1.7-4.64,1-7.02Z"/>
  <path class="cls-12" d="M660.27,682.87c-3.81-5.43-8.04-10.73-12.96-14.67,0,0-6.57,8.09-6.57,8.09-.23.28,2.52,4.25,2.72,4.56,2.11,3.38,4.29,7.71,7.52,10.15,2.65,1.99,6.27,1.55,8.29-1.11,1.5-1.98,1.7-4.64,1-7.02Z"/>
  <path class="cls-12" d="M683.47,680.11c-.01-.26-.04-.52-.07-.78-.35-2.5-2.03-4.9-3.2-7.08-1.78-3.31-3.75-6.53-6.05-9.51,0,0-10.19,5.32-10.2,5.32-1.14.62,3.01,9.42,3.39,10.33,1.62,3.79,4.18,10.14,9.07,10.29,4.55.14,7.24-4.43,7.05-8.56Z"/>
  <path class="cls-12" d="M693.2,674.58c-1.29-3.21-4.34-5.99-6.39-8.76-1.67-2.27-5.1-6.57-7.45-8-1.56,1.61-.56,3.64-1.95,5.42-.38.48-3.43,3.63-3.26,4.2,1.54,5.39,3.78,11.17,7.04,15.77.69.97,1.48,1.9,2.49,2.52,5.26,3.2,10.84-3.09,10.29-8.21-.11-.99-.38-1.97-.77-2.93Z"/>
  <path class="cls-12" d="M636.71,632.65c15.79,5.69,36.5,16.92,45.35,27.78.59.73,9.77,19.59-30.53,26.37-.59.1-8.12-3.41-11.93-5.25-6.08-2.94-16.68-2.97-22.27-6.98-4.7-3.37-9.07-7.9-10.89-13.59-3.41-10.68-2.04-22.57,7.63-27.99,6.75-3.79,16.22-2.65,22.64-.34Z"/>
  <path class="cls-12" d="M400.07,412.03c-34.42-2.54-60.8-37.85-71.32-52.26,10.18-7.57,21.99-12.66,35.21-13.22,14.49-.64,28.85,3.11,42.56,7.71,5.3,1.84,10.11,4.03,14.57,6.72,5.16,12.77,6.15,22.63,5.2,30.08-1.66,13.06-13.09,21.95-26.22,20.98Z"/>
  <path class="cls-12" d="M413.52,342.51l-3.32,27.43c-.07.49-.14.99-.21,1.41-3.89-10.39-8.13-20.65-12.73-30.83-3.75-8.27,8.84-14.64,12.59-6.36,1.27,2.76,2.47,5.59,3.68,8.34Z"/>
  <path class="cls-15" d="M452.62,628.93c-1.27,9.05-14.85,5.44-13.72-3.46,10.96-85.98,1.41-173.22-28.92-254.11.07-.42.14-.92.21-1.41l3.32-27.43c38.67,89.65,52.81,189.63,39.1,286.42Z"/>
  <path class="cls-12" d="M505.27,605.25c37.51,14.95,74.99,27.62,116.15,30.39,0,0,5.82,24.78-4.29,34.8-30.19,1.86-62.01,2.48-90.72-3.45-22.67-4.68-57.46-19.24-81.22-33.32-6.12-3.63-6.79-4-6.6-11.83.16-6.4,3.9-12.85,7.84-17.68,5.53-6.76,13.38-12.94,22.58-12.12,5.02.45,9.76,2.39,14.41,4.31,7.3,3.01,14.57,5.99,21.84,8.89Z"/>
  <path class="cls-14" d="M464.71,579.58c10.81,7.4,22.06,14.02,33.6,19.92,11.67,5.66,23.5,10.83,36.08,13.76,12.73,3.31,25.15,7.15,37.77,10.56,12.59,3.2,25.17,7.48,37.72,9.57l-.65.12c3.84-1.45,7.69-2.35,11.64-2.92,3.93-.59,7.94-.65,11.83-.11-7.82.15-15.54,2.13-22.35,5.46-.2.1-.44.14-.65.12-13.37-1.47-26.01-4.48-38.75-7.68-12.67-3.24-25.42-6.47-37.87-10.25-12.83-3.37-25.19-8.66-36.53-15.4-11.4-6.64-22.17-14.3-31.85-23.16Z"/>
  <path class="cls-15" d="M444.41,613.97c-17.09-49.26-8.67-103.54-27.45-152.37-16.9-43.94-53.1-77.29-69.75-121.7-1.27-3.39-14.59,8.07-12.3,15.7,13.84,46.18,51.96,66.86,68.93,111.27,18.44,48.27,9.86,102.15,26.96,150.9,2.99,8.54,16.61,4.82,13.62-3.8Z"/>
  <path class="cls-12" d="M455.38,638.12c-27.5-8.7-72.75-59.74-89.93-81.1-1.2-1.49-2.4-3.04-3.68-4.6-17.25-21.92-39.17-52.53-42.78-79.12-8.77-65.61,46.1-77.92,68.23-23.26,9.69,23.9,28.14,66.39,47.58,97.01,6.01,9.47,12.09,17.75,18.03,24.04,15.27,16.12,36.48,26.3,46.66,33.09,17.89,11.95-24.25,40.23-44.12,33.94Z"/>
  <path class="cls-11" d="M422.29,520.19c-21.32,12.62-42.32,26.3-60.52,32.24-17.25-21.92-39.17-52.53-42.78-79.12-8.77-65.61,46.1-77.92,68.23-23.26,9.69,23.9,15.63,39.52,35.07,70.14Z"/>
  <path class="cls-19" d="M420.81,521.57c-.96,0-1.88-.52-2.36-1.43-18.45-35.63-46.57-88.1-46.86-88.64-.69-1.28-.21-2.89,1.08-3.58,1.31-.7,2.9-.21,3.59,1.08.28.52,28.43,53.03,46.89,88.69.67,1.3.16,2.91-1.14,3.58-.39.2-.8.3-1.22.3Z"/>
  <path class="cls-19" d="M361.77,555.08c-.9,0-1.78-.46-2.28-1.28l-51.9-86.11c-.76-1.25-.35-2.88.9-3.64,1.25-.75,2.88-.35,3.64.9l51.9,86.11c.76,1.25.35,2.88-.9,3.64-.43.25-.9.38-1.36.38Z"/>
  <rect class="cls-17" x="1144.73" y="1314.33" width="176.9" height="27.15"/>
  <g class="cls-1">
    <path class="cls-5" d="M1244.85,924.4c-.21.14-.42.21-.71.35-63.49,28.28-121.19,68.37-169.9,117.72l-11.6-.57-7.07-.35c50.62-53.66,111.36-96.93,178.46-127.62,3.04,2.83,6.01,5.73,8.98,8.63.64.64,1.2,1.2,1.84,1.84Z"/>
  </g>
  <path class="cls-21" d="M1039.1,493.89s50.91,74.66,19.51,277.44c0,0,5.09,30.54,39.88,45.82,0,0,30.62-213.76-15.17-294.87-3.24-5.74-8.05-10.38-13.71-13.75-8.5-5.06-21.83-12.47-30.51-14.64Z"/>
  <path class="cls-12" d="M1044.02,519.72l20.93-53.78-46.01-21.42-25.71,52.98c-4.78,9.85-3.26,21.33,3.75,27.37,6.96,5.99,17.01,11.54,29.42,9.91,7.52-.99,14.43-6.9,17.61-15.06Z"/>
  <path class="cls-12" d="M1040.16,566.22s-52.18-36.91-64.91-78.27c0,0,36.7-8.42,62.12,2.22.72.3,1.44.62,2.14.96,25.45,12.09.64,75.09.64,75.09Z"/>
  <path class="cls-21" d="M990.85,485.4s72.17,252.28-58.87,341.58c-13.69,9.33-30.36,13.28-46.8,11.26l-75.15-9.23s.42-359.21,180.82-343.62Z"/>
  <path class="cls-12" d="M967.93,560.32c4,16.8,4.38,43.08,4.76,69.7.39,28.42.85,57.43,5.9,75.95,1.96,7.26,23.19,37.16,25.73,47.54,4.11,16.89-40.22,35.46-58.54,24.6-25.41-15-40.16-83.18-48.87-109.31-2.65-7.97-5.54-17.12-7.95-26.87-6-23.11-9.9-49.56-4.01-71.34,21.37-79.2,72.89-52.58,82.97-10.29Z"/>
  <path class="cls-15" d="M970.38,550.73c4,16.8,11.1,50.56,2.31,79.28l-83.73,11.93c-6-23.11-13.14-50.76-7.24-72.54,21.37-79.2,78.58-60.96,88.66-18.67Z"/>
  <path class="cls-16" d="M1310.82,1148.04c0-4.95,0-9.9-.07-14.78-7.85-2.26-15.84-4.24-23.9-5.8-1.91-22.34-6.22-44.4-13.5-66.04-.21-.64-.42-1.27-.64-1.84,7.85-1.13,15.77-2.19,23.69-2.97,3.46-.35,7-.71,10.53-.99-.35-4.95-.78-9.62-1.2-14-2.62.14-5.23.42-7.85.64-10.11.92-20.15,2.26-30.19,3.82-12.8-31.96-31.39-61.72-54.72-86.97-1.2-1.27-2.55-2.55-3.75-3.82,14.14-8.41,28.92-16.19,44.33-21.92-3.46-3.68-6.93-7.28-10.53-10.82-7.28,2.83-14.35,6.08-21.21,9.62-7.78,4.03-15.34,8.34-22.91,12.8-16.47-15.77-34.43-29.84-53.03-43.13,16.54-7.71,33.51-14.28,50.91-19.51-4.53-3.54-9.05-7-13.5-10.25-17.25,5.66-34.15,12.59-50.48,20.5-5.23-3.61-10.46-7.21-15.7-10.75-12.51-8.48-25.1-16.9-37.69-25.38,14.85-6.22,30.33-11.1,46.03-14.99,3.32-.85,6.72-1.56,10.04-2.26-6.22-3.96-11.95-7.42-16.83-10.39-18.17,4.6-35.99,10.46-53.1,18.38-17.39-11.74-34.79-23.47-52.18-35.14-6.29,1.2-12.37,2.76-18.24,4.74,18.67,12.51,37.33,25.03,55.93,37.61-1.06.57-2.12,1.06-3.18,1.7-21.92,12.23-41.5,28.21-59.74,45.46-26.58-8.27-53.24-16.54-79.89-24.89-3.39,3.75-6.65,7.64-9.83,11.6,26.23,8.06,52.46,16.05,78.69,24.11-17.39,17.53-34.01,35.99-49.49,55.29-24.6-2.55-49.28-5.09-73.88-7.63-2.26,4.59-4.38,9.12-6.29,13.43,23.33,2.4,46.59,4.88,69.85,7.28-.35.5-.78.99-1.13,1.48-12.23,16.26-23.69,33.16-33.73,50.77l15.98.78c10.61-17.89,22.63-34.86,35.49-51.26,23.4,2.4,46.81,4.88,70.28,7.28-2.69,2.97-5.37,5.87-7.92,8.98-10.18,12.23-19.58,25.1-28.07,38.46l16.54.85c11.1-16.47,23.54-31.96,37.05-46.45,12.37,1.27,24.75,2.62,37.12,3.89,18.24,1.91,36.55,3.61,54.8,5.73-13.5,9.62-26.73,19.58-39.31,30.33-3.96,3.39-7.92,6.86-11.74,10.32l20.29.99c15.91-13.5,32.88-26.02,49.99-37.9,2.69,1.13,5.09,2.62,7.14,4.81,5.37,5.8,7.21,14.92,9.4,22.27,4.1,13.58,7.78,27.29,11.31,41.08-10.32,3.68-20.5,7.63-30.61,12.09l4.81,13.22c2.33-.99,4.6-1.91,6.79-2.83,7.42-3.11,14.99-6.01,22.55-8.84,3.25,13.36,6.15,26.8,8.91,40.3-8.63,1.63-17.25,3.68-25.74,6.15l4.74,13.08c7.85-2.19,15.77-4.1,23.76-5.59.21.85.35,1.7.57,2.55,1.98,10.61,3.89,21.21,5.52,31.89l14.49,2.55c-1.98-13.15-4.31-26.23-6.79-39.31,9.97-1.34,20.01-2.12,30.05-2.47,0,.28,0,.49.07.71,2.12,15.27,3.75,30.61,4.95,45.96l14.56,2.55c-1.2-16.47-2.83-32.95-5.02-49.28,13.08.28,26.16,1.56,39.17,3.61.64,11.17.71,22.41,0,33.8-.35,5.87-.78,11.74-1.27,17.61l13.93,2.4c.5-5.02.85-9.97,1.2-14.92.78-12.16.85-24.25.35-36.27,7.78,1.63,15.48,3.61,23.05,5.94ZM1186.45,952.61c-7.07,4.45-14.14,8.98-21.07,13.58-9.97-7.49-20.93-13.5-32.52-18.31-13.86-5.8-28.28-10.25-42.63-14.64,13.22-8.98,27.08-17.04,41.29-24.39,19.16,13.5,37.83,27.72,54.94,43.77ZM1044.34,874.7c6.5-4.17,13.15-7.92,20.01-11.38,9.26,6.29,18.52,12.51,27.79,18.74,8.84,5.94,17.68,11.81,26.44,17.82-15.77,8.41-30.97,17.75-45.53,28.14-21.42-6.72-42.85-13.36-64.34-20.01-1.7-.57-3.32-1.06-5.02-1.56,12.66-11.67,26.09-22.48,40.65-31.75ZM1016.05,976.86c-16.54-1.7-33.02-3.39-49.56-5.16-7.35-.71-14.71-1.48-21.99-2.26,10.32-12.51,21.14-24.61,32.31-36.41,5.09-5.37,10.25-10.75,15.55-15.91,22.41,6.86,44.75,13.86,67.03,21-15.27,11.88-29.84,24.82-43.34,38.75ZM1130.81,989.31c-12.87-3.54-27.57-3.39-40.09-4.67-18.81-1.98-37.61-3.89-56.42-5.87,13.01-12.73,26.87-24.53,41.5-35.42,9.97,3.18,19.94,6.36,29.84,9.62,16.4,5.37,32.88,11.66,47.23,21.49-2.9,1.98-5.8,3.89-8.7,5.8-4.45,2.97-8.91,6.01-13.36,9.05ZM1174.15,1068.49c-2.97-11.38-6.01-22.7-9.33-34.01-3.96-13.72-7.35-29.34-19.09-38.25,6.15-4.24,12.44-8.34,18.67-12.44,10.61,10.18,18.59,22.7,24.82,36.27,5.87,12.73,10.61,25.95,14.71,39.38-10.04,2.76-19.94,5.8-29.77,9.05ZM1187.16,1124.77c-2.9-14.28-6.15-28.49-9.62-42.63,9.9-3.39,20.01-6.36,30.12-9.12,4.17,16.19,7.42,32.67,10.04,49.07-10.18.35-20.43,1.2-30.54,2.69ZM1217.49,1055.91c-3.25-10.82-7-21.56-11.24-32.1-6.86-16.97-15.77-33.58-28.49-46.81-.42-.42-.92-.85-1.34-1.27,6.79-4.38,13.65-8.62,20.5-12.87,24.32,25.03,43.06,54.16,56,85.62-11.88,2.12-23.69,4.6-35.42,7.42ZM1232.26,1121.8c-2.76-17.68-6.29-35.14-10.89-52.39,12.09-2.97,24.32-5.51,36.62-7.57,7.14,20.29,12.02,41.5,14.35,63.21-13.29-1.98-26.66-3.11-40.09-3.25Z"/>
  <rect class="cls-17" x="733.56" y="1033.41" width="435.56" height="100.84"/>
  <rect class="cls-17" x="1139.22" y="1044.53" width="28.85" height="296.95"/>
  <g>
    <ellipse class="cls-7" cx="891.62" cy="1153.83" rx="239.77" ry="4.29"/>
    <path class="cls-7" d="M920.94,1153.83c0,16.2-13.13,29.32-29.32,29.32s-29.32-13.13-29.32-29.32,13.13-29.32,29.32-29.32,29.32,13.13,29.32,29.32Z"/>
    <path class="cls-7" d="M895.91,1153.83c0,132.42-1.92,239.77-4.29,239.77s-4.29-107.35-4.29-239.77,1.92-239.77,4.29-239.77,4.29,107.35,4.29,239.77Z"/>
    <path class="cls-7" d="M894.65,1156.87c-93.64,93.64-170.9,168.19-172.58,166.51-1.68-1.68,72.87-78.94,166.51-172.58,93.64-93.64,170.9-168.19,172.58-166.51,1.68,1.68-72.87,78.94-166.51,172.58Z"/>
    <path class="cls-7" d="M888.58,1156.87c-93.64-93.64-168.19-170.9-166.51-172.58,1.68-1.68,78.94,72.87,172.58,166.51,93.64,93.64,168.19,170.9,166.51,172.58-1.68,1.68-78.94-72.87-172.58-166.51Z"/>
    <path class="cls-13" d="M903.33,1153.83c0,6.47-5.24,11.71-11.71,11.71s-11.71-5.24-11.71-11.71,5.24-11.71,11.71-11.71,11.71,5.24,11.71,11.71Z"/>
    <path class="cls-7" d="M891.62,1404.4c-139.49,0-252.98-113.48-252.98-252.98s113.48-252.98,252.98-252.98,252.98,113.48,252.98,252.98-113.48,252.98-252.98,252.98ZM891.62,933.79c-120,0-217.63,97.63-217.63,217.63s97.63,217.63,217.63,217.63,217.63-97.62,217.63-217.63-97.62-217.63-217.63-217.63Z"/>
  </g>
  <g>
    <path class="cls-12" d="M1137.94,851.18c-4.75,6.76-7.15,14.34-12.08,21.04-1.25,1.71-6.5,6.88-3.55,9,5.33,3.83,9.92.5,13.73-3.61,2.37-2.56,4.75-5.26,7.74-7.13,2.55-1.59,5.38-2.56,8.21-3.51,1.24-.42,6.89-1.51,7.19-2.93.1-.47-.11-.95-.31-1.39-2.94-6.37-3.26-18.16-9.33-22.05-3.99,2.16-9.76,7.96-11.6,10.58Z"/>
    <path class="cls-14" d="M1131.9,862.79c7.33,3.8,12.97,9.41,20.44,13.08,1.9.94,8.95,3.09,7.31,6.34-2.95,5.86-8.57,5.03-13.85,3.15-3.29-1.17-6.64-2.47-10.15-2.75-2.99-.23-5.96.22-8.9.68-1.3.2-6.81,1.85-7.73.73-.31-.37-.35-.89-.37-1.38-.33-7.01-4.74-16.91-1.16-23.17,3.69-.28,11.57,1.84,14.42,3.32Z"/>
    <path class="cls-12" d="M1164.88,892.34c2.3,1.05,3.31,3.76,2.27,6.06-.22.48-.54.87-.89,1.23-1.85,3.51-4.16,6.34-6.62,8.77-.29.28-.54.63-.82.89-2.49,2.43-5.08,4.33-7.46,5.81-6.2,4.91-8.61,4.41-8.61,4.41-3.08-.87-1.37-5.81,3.55-11.48,1.88-2.19,3.99-4.36,6.06-6.42.24-.3.48-.59.77-.82,3.36-3.4,4.81-4.62,5.43-5.08.07-.37.09-.74.25-1.1,1.05-2.3,3.76-3.31,6.06-2.27Z"/>
    <path class="cls-12" d="M1161.47,896.77c-1.6,3.32-4.78,7.65-7.45,10.84-.58,1.14-1.21,1.72-1.91,2.18-3.13,3.25-6.15,5.62-9.02,7.41-6.9,5.73-9.07,4.21-9.07,4.21-3.8-2.54-1.83-5.47,3.53-12.03,2.35-2.9,4.95-5.92,7.49-8.59,5.04-5.53,8.82-8.79,8.82-8.79l7.6,4.78Z"/>
    <path class="cls-12" d="M1155.8,894.03c-2.32,3.92-5.74,8.28-8.81,11.51-.57.6-1.07,1.15-1.53,1.59-4.11,3.96-8.42,6.99-12.3,9.26-6.69,4.77-9.13,4.06-9.13,4.06-4.06-1.35-3.26-4.82,2.51-11.41,3.1-3.57,6.86-7.38,10.44-10.91,6.83-6.75,12.05-11.28,12.05-11.28l6.78,7.17Z"/>
    <path class="cls-12" d="M1140.08,902.03c3.21-3.21,6.29-6.94,8.85-11.46l-4.88-8.86s-6.79,5.19-12.84,11.94c-3.23,3.41-6.03,6.92-8.62,9.98-5.86,6.79-6.34,11.06-2.78,11.84,0,0,2.49.58,9.12-4.39,3.05-1.96,6.39-4.38,9.67-7.47.26-.24.51-.57.77-.82.12-.1.26-.14.37-.25.14-.15.2-.34.32-.49Z"/>
    <path class="cls-12" d="M1144.85,846.32c-1.4,2.8-1.89,5.8-1.71,8.72-5.47,7.53,2.72,18.79-8.68,35.44-.45.66,23.76,8.3,31.61,9.08.53.05,8.86-15.11,10.73-18.18,2.98-4.91,5.67-10.4,7.75-15.76,1.75-4.51,2.65-9.58,1.09-14.16-2.07-6.07-7.97-9.45-14.11-10.41-1.07-.93-2.23-1.79-3.56-2.45-8.52-4.25-18.87-.79-23.12,7.72Z"/>
    <path class="cls-12" d="M1154.03,890.08c1.13-2.26,3.87-3.18,6.13-2.05,2.26,1.13,3.18,3.87,2.05,6.13-1.13,2.26-3.87,3.18-6.13,2.05-2.26-1.13-3.18-3.87-2.05-6.13Z"/>
    <path class="cls-12" d="M1145.34,886.12c1.22-2.45,4.19-3.44,6.64-2.22,2.45,1.22,3.44,4.2,2.22,6.64-1.22,2.45-4.19,3.44-6.64,2.22-2.45-1.22-3.44-4.2-2.22-6.64Z"/>
    <path class="cls-12" d="M1127.03,911.74c-1.55,1.99-1.2,4.86.79,6.42.41.32.88.52,1.35.68,3.26,2.25,6.62,3.7,9.92,4.72.38.12.76.31,1.14.41,3.33,1,6.5,1.49,9.3,1.71,7.77,1.49,9.67-.07,9.67-.07,2.33-2.2-1.47-5.78-8.45-8.54-2.68-1.08-5.55-2.02-8.34-2.89-.35-.16-.7-.3-1.07-.37-4.55-1.46-6.4-1.87-7.16-2-.23-.3-.42-.61-.73-.85-1.99-1.55-4.87-1.2-6.42.79Z"/>
    <path class="cls-12" d="M1132.11,914.1c2.96,2.21,7.78,4.57,11.61,6.17,1.04.74,1.86.97,2.7,1.06,4.28,1.44,8.05,2.14,11.42,2.4,8.76,1.9,9.98-.46,9.98-.46,2.19-4.01-.91-5.7-8.69-9.04-3.43-1.49-7.13-2.97-10.61-4.16-7.02-2.58-11.89-3.72-11.89-3.72l-4.53,7.75Z"/>
    <path class="cls-12" d="M1135.86,909.04c3.87,2.41,8.92,4.69,13.14,6.14.78.26,1.49.53,2.1.7,5.47,1.62,10.7,2.31,15.18,2.53,8.13,1.14,9.98-.62,9.98-.62,2.98-3.07.66-5.78-7.5-8.96-4.4-1.73-9.5-3.37-14.3-4.85-9.18-2.83-15.9-4.43-15.9-4.43l-2.7,9.49Z"/>
    <path class="cls-12" d="M1153.51,908.88c-4.33-1.36-8.79-3.24-13.15-6.07l.23-10.11s8.42,1.47,16.9,4.65c4.44,1.53,8.54,3.36,12.26,4.87,8.34,3.31,10.74,6.88,7.93,9.22,0,0-1.94,1.66-10.12.32-3.62-.33-7.69-.93-12.03-2.15-.35-.09-.71-.27-1.06-.37-.15-.04-.3,0-.45-.05-.19-.06-.33-.21-.51-.29Z"/>
    <path class="cls-12" d="M1123.38,861.87c2.42,1.54,4.59,3.54,6.46,5.66,5.07,5.77,7.12,13.21,11.81,19.1,3.11,3.9,7.11,7.05,11.5,9.39.7.38-17.24,18.34-23.84,22.66-.44.29-14.84-9.3-17.92-11.17-7.18-4.34-15.43-9.11-19.51-16.77-4.21-7.93-.84-17.72,4.99-23.96,4.03-4.31,9.78-7.29,15.67-7.83,3.96-.37,7.62.87,10.84,2.92Z"/>
    <path class="cls-12" d="M1133.15,903.28c-2.04-1.48-4.91-1.03-6.39,1.02-1.48,2.05-1.03,4.9,1.02,6.39,2.04,1.48,4.91,1.03,6.39-1.02,1.48-2.04,1.03-4.9-1.02-6.39Z"/>
    <path class="cls-12" d="M1139.02,895.76c-2.21-1.6-5.31-1.11-6.91,1.1-1.61,2.21-1.11,5.31,1.1,6.92,2.21,1.6,5.31,1.11,6.92-1.1,1.6-2.21,1.11-5.31-1.1-6.92Z"/>
    <path class="cls-14" d="M1165.74,900.67c-2.87-.24-5.78-.66-8.57-1.57-2.8-.86-5.46-2.18-7.97-3.74-2.46-1.64-4.68-3.65-6.51-5.96-1.91-2.26-3.13-4.99-4.12-7.69,1.59,2.43,3.15,4.81,5.15,6.81,1.95,2.02,4.03,3.92,6.45,5.37,4.65,3.2,10.05,5.03,15.57,6.78Z"/>
    <path class="cls-14" d="M1117.83,911.67c2.29.55,4.23,1.67,6.2,2.75,1.86,1.26,3.75,2.47,5.28,4.26-2.3-.54-4.23-1.67-6.2-2.75-1.86-1.26-3.75-2.47-5.28-4.26Z"/>
  </g>
  <path class="cls-12" d="M1033.75,798.87c8.77,10.78,18.36,20.94,28.21,30.65,7.88,7.77,16.24,15.05,25.3,21.42,2.94,2.06,31.24,16.82,31.18,17.51,0,0-2.4,29.17-14.74,23.81-.68-.3-13.33-5.25-16.68-6.21-6.11-1.75-12.17-3.62-18.19-5.62-54.51-18.11-99.97-53.61-128.03-104-5.12-9.19-15.3-25.28-11.03-36.43,2.2-5.72,12.47-11.87,18.3-13.81,10.7-3.55,34.71.46,43.06,6.6,11.21,8.25,15.79,25.84,22.55,37.4,5.89,10.07,12.69,19.58,20.07,28.65Z"/>
</svg>