<?xml version="1.0" encoding="UTF-8"?>
<svg xmlns="http://www.w3.org/2000/svg" xmlns:xlink="http://www.w3.org/1999/xlink" viewBox="0 0 1394.53 1556.21">
  <defs>
    <style>
      .cls-1 {
        fill: url(#linear-gradient-15);
      }

      .cls-2 {
        fill: url(#linear-gradient-13);
      }

      .cls-3 {
        fill: url(#linear-gradient-28);
      }

      .cls-4 {
        fill: #5995cf;
      }

      .cls-5 {
        fill: #9f73f8;
      }

      .cls-6 {
        fill: #1f1f44;
      }

      .cls-7 {
        fill: url(#linear-gradient-2);
      }

      .cls-8 {
        fill: url(#linear-gradient-10);
      }

      .cls-9 {
        fill: url(#linear-gradient-12);
      }

      .cls-10, .cls-11, .cls-12 {
        mix-blend-mode: soft-light;
      }

      .cls-10, .cls-13 {
        fill: #f4f7fa;
      }

      .cls-14 {
        fill: url(#linear-gradient-27);
      }

      .cls-15 {
        fill: url(#linear-gradient-37);
      }

      .cls-16 {
        fill: url(#linear-gradient-25);
      }

      .cls-16, .cls-17, .cls-18, .cls-19, .cls-20, .cls-21, .cls-22 {
        mix-blend-mode: multiply;
      }

      .cls-16, .cls-17, .cls-18, .cls-20, .cls-22 {
        opacity: .3;
      }

      .cls-23, .cls-11 {
        fill: #fff;
      }

      .cls-24 {
        fill: #637dca;
      }

      .cls-17 {
        fill: url(#linear-gradient-36);
      }

      .cls-25 {
        fill: url(#linear-gradient-26);
      }

      .cls-18 {
        fill: url(#linear-gradient-7);
      }

      .cls-26 {
        fill: none;
      }

      .cls-27 {
        fill: url(#linear-gradient-4);
      }

      .cls-28 {
        fill: url(#linear-gradient-35);
      }

      .cls-29 {
        fill: url(#linear-gradient-30);
      }

      .cls-19 {
        opacity: .24;
      }

      .cls-30 {
        fill: #ae87f9;
      }

      .cls-31 {
        fill: #b3b7bc;
      }

      .cls-32 {
        fill: url(#linear-gradient-3);
      }

      .cls-33 {
        fill: #beb8f2;
      }

      .cls-34 {
        fill: url(#linear-gradient-34);
      }

      .cls-35 {
        clip-path: url(#clippath-1);
      }

      .cls-36 {
        fill: url(#linear-gradient-5);
      }

      .cls-37 {
        fill: #444b8c;
      }

      .cls-38 {
        fill: #26264f;
      }

      .cls-39 {
        fill: url(#linear-gradient-22);
      }

      .cls-40 {
        fill: url(#linear-gradient-24);
      }

      .cls-41 {
        isolation: isolate;
      }

      .cls-42 {
        fill: url(#linear-gradient-33);
      }

      .cls-43 {
        fill: url(#linear-gradient-8);
      }

      .cls-44 {
        fill: #e6ebf4;
      }

      .cls-45 {
        clip-path: url(#clippath-3);
      }

      .cls-20 {
        fill: url(#linear-gradient-14);
      }

      .cls-21 {
        opacity: .2;
      }

      .cls-46 {
        fill: url(#linear-gradient-29);
      }

      .cls-47 {
        fill: url(#linear-gradient-20);
      }

      .cls-22 {
        fill: url(#linear-gradient-31);
      }

      .cls-48 {
        fill: url(#linear-gradient-17);
      }

      .cls-49 {
        fill: #d8dee8;
      }

      .cls-50 {
        fill: url(#linear-gradient-9);
      }

      .cls-51 {
        fill: #44c2d9;
      }

      .cls-52 {
        fill: url(#linear-gradient-11);
      }

      .cls-53 {
        fill: url(#linear-gradient-19);
      }

      .cls-54 {
        fill: url(#linear-gradient-6);
      }

      .cls-11, .cls-12 {
        opacity: .5;
      }

      .cls-55 {
        fill: url(#linear-gradient-21);
      }

      .cls-56 {
        clip-path: url(#clippath-2);
      }

      .cls-57 {
        fill: #ebf7fd;
      }

      .cls-58 {
        fill: url(#linear-gradient-32);
      }

      .cls-59 {
        fill: url(#linear-gradient-16);
      }

      .cls-60 {
        fill: #fcfdfe;
      }

      .cls-61 {
        fill: url(#linear-gradient);
      }

      .cls-62 {
        fill: url(#linear-gradient-23);
      }

      .cls-63 {
        fill: #c9ced6;
      }

      .cls-64 {
        clip-path: url(#clippath);
      }

      .cls-65 {
        fill: #3f59a6;
      }

      .cls-66 {
        fill: url(#linear-gradient-18);
      }
    </style>
    <clipPath id="clippath">
      <rect class="cls-26" x="767.32" y="160.7" width="627.2" height="886.38"/>
    </clipPath>
    <clipPath id="clippath-1">
      <path class="cls-26" d="M841.51,1326.4l134.92,36.88s44.32-62.27,24.6-120.15c-40.22-118.1,66.02-145.08,108.83-163.04,64.56-27.08,109.64-79.11,38.57-126.54-71.07-47.44,40.63-147.14,151.2-175.86,108.19-28.1,120.68-236.64-119.08-197.33-143.18,23.48-160.13,163.85-185.54,232.7-25.41,68.85-131.9,46.02-119.55,141.99,10.55,81.98,54.14,151.56-4.15,190.01-58.29,38.44-78.4,93.92-29.8,181.35Z"/>
    </clipPath>
    <clipPath id="clippath-2">
      <path class="cls-26" d="M981.49,904.01l-104.76,4.2s-46.1-60.41-15.63-88.51c30.47-28.11-3.48-89.01-17.49-123.5-38.01-93.56,76.91-116.36,38.5-240.36-10.22-32.98-41.65-92.54-19.7-127.25,25-39.55,59.17-17.24,73.45-48.45,22.32-48.79,73.9-78.52,119.76-47.64,45.26,30.48,29.85,120.77-49.8,212.24-49.23,71.51-45.32,87.68-28.13,124.9,12.05,26.07,61.98,88.78,30.91,128.15-31.07,39.36-52.04,78.36-27.18,104.65,37.82,40,.08,101.6.08,101.6Z"/>
    </clipPath>
    <clipPath id="clippath-3">
      <path class="cls-26" d="M1004.24,955.58l-165.4,18.28c-12.38-21.03-29.74-60.42,3.62-74.3,46.38-19.29,36.94-99.38,19.98-126.11-20.99-33.08-68.19-111.05,3.01-141.93,59.27-25.71,103.09-30.86,97.47-106.35-5.62-75.49,31.55-127.38,104.2-131.43,76.46-4.26,126.01-106.85,192.36-82.33,115.62,42.73,39.45,219.54-85.86,282.95-125.31,63.41-43.85,99.26-32.16,160.2,15.96,83.19-106.43,79.47-133.77,116.12-21.43,28.73-12.1,63.79-3.45,84.9Z"/>
    </clipPath>
    <linearGradient id="linear-gradient" x1="640.48" y1="918.87" x2="651.94" y2="801.91" gradientUnits="userSpaceOnUse">
      <stop offset="0" stop-color="#aa80f9"/>
      <stop offset="1" stop-color="#6165d7"/>
    </linearGradient>
    <linearGradient id="linear-gradient-2" x1="200.9" y1="649.22" x2="352.26" y2="649.22" xlink:href="#linear-gradient"/>
    <linearGradient id="linear-gradient-3" x1="741.61" y1="996.86" x2="753.45" y2="876.08" xlink:href="#linear-gradient"/>
    <linearGradient id="linear-gradient-4" x1="332.25" y1="783.82" x2="154.37" y2="646.3" xlink:href="#linear-gradient"/>
    <linearGradient id="linear-gradient-5" x1="252.86" y1="677.4" x2="183.87" y2="807.14" xlink:href="#linear-gradient"/>
    <linearGradient id="linear-gradient-6" x1="108.79" y1="213.25" x2="308.84" y2="702.54" gradientUnits="userSpaceOnUse">
      <stop offset="0" stop-color="#40447e"/>
      <stop offset="1" stop-color="#3c3b6b"/>
    </linearGradient>
    <linearGradient id="linear-gradient-7" x1="274.55" y1="788.82" x2="282.22" y2="575.54" xlink:href="#linear-gradient-6"/>
    <linearGradient id="linear-gradient-8" x1="-4450.54" y1="-1760.11" x2="-4486.39" y2="-1492.65" gradientTransform="translate(5048.29 19.46) rotate(-30.06)" gradientUnits="userSpaceOnUse">
      <stop offset="0" stop-color="#4053b1"/>
      <stop offset="1" stop-color="#3c3b6b"/>
    </linearGradient>
    <linearGradient id="linear-gradient-9" x1="-4406.16" y1="-2201.83" x2="-4451.73" y2="-1622.79" gradientTransform="translate(5048.29 19.46) rotate(-30.06)" xlink:href="#linear-gradient-6"/>
    <linearGradient id="linear-gradient-10" x1="143.29" y1="836.33" x2="176.74" y2="523.65" gradientUnits="userSpaceOnUse">
      <stop offset="0" stop-color="#ffc444"/>
      <stop offset="1" stop-color="#f36f56"/>
    </linearGradient>
    <linearGradient id="linear-gradient-11" x1="6486.96" y1="1647.4" x2="6507" y2="1460.05" gradientTransform="translate(6690.2 -235.02) rotate(-176.19) scale(1 -1)" xlink:href="#linear-gradient-10"/>
    <linearGradient id="linear-gradient-12" x1="-4507.09" y1="-1869.4" x2="-4416.95" y2="-1869.4" gradientTransform="translate(-3678.76 -1510.91) rotate(-131.05) scale(1 -1)" xlink:href="#linear-gradient-6"/>
    <linearGradient id="linear-gradient-13" x1="758.17" y1="493.24" x2="1483.56" y2="1245.99" gradientTransform="translate(1554.63 -123.91) rotate(174.38) scale(1 -1)" xlink:href="#linear-gradient-10"/>
    <linearGradient id="linear-gradient-14" x1="800.67" y1="540.31" x2="1087.49" y2="540.31" xlink:href="#linear-gradient-10"/>
    <linearGradient id="linear-gradient-15" x1="-652.54" y1="524.25" x2="-248.42" y2="449.17" gradientTransform="translate(647.45 30.38) rotate(-176.5) scale(1 -1)" gradientUnits="userSpaceOnUse">
      <stop offset="0" stop-color="#311944"/>
      <stop offset="1" stop-color="#893976"/>
    </linearGradient>
    <linearGradient id="linear-gradient-16" x1="-320.05" y1="596.22" x2="-424.09" y2="349.86" gradientTransform="translate(647.45 30.38) rotate(-176.5) scale(1 -1)" xlink:href="#linear-gradient"/>
    <linearGradient id="linear-gradient-17" x1="-483.32" y1="482.23" x2="-527.49" y2="309.49" gradientTransform="translate(647.45 30.38) rotate(-176.5) scale(1 -1)" xlink:href="#linear-gradient"/>
    <linearGradient id="linear-gradient-18" x1="-495.88" y1="426.36" x2="-283.73" y2="370.09" gradientTransform="translate(647.45 30.38) rotate(-176.5) scale(1 -1)" xlink:href="#linear-gradient-10"/>
    <linearGradient id="linear-gradient-19" x1="218.41" y1="402.7" x2="221.16" y2="329.42" gradientTransform="translate(1347.12 -74.66) rotate(174.58) scale(1 -1)" xlink:href="#linear-gradient-10"/>
    <linearGradient id="linear-gradient-20" x1="661.39" y1="427.22" x2="620.11" y2="322.39" gradientTransform="translate(477.07 31.21) rotate(-8.92)" gradientUnits="userSpaceOnUse">
      <stop offset="0" stop-color="#311944"/>
      <stop offset="1" stop-color="#6b3976"/>
    </linearGradient>
    <linearGradient id="linear-gradient-21" x1="224.32" y1="343.21" x2="222.97" y2="452.1" gradientTransform="translate(1347.12 -74.66) rotate(174.58) scale(1 -1)" xlink:href="#linear-gradient-10"/>
    <linearGradient id="linear-gradient-22" x1="-431.48" y1="411.68" x2="-286.49" y2="411.68" gradientTransform="translate(647.45 30.38) rotate(-176.5) scale(1 -1)" xlink:href="#linear-gradient-6"/>
    <linearGradient id="linear-gradient-23" x1="-2189.95" y1="-151.76" x2="-2117.93" y2="-151.76" gradientTransform="translate(-1260.1 -174.32) rotate(-157.87) scale(1 -1)" xlink:href="#linear-gradient-6"/>
    <linearGradient id="linear-gradient-24" x1="-218.88" y1="434.14" x2="506.53" y2="1186.92" gradientTransform="translate(647.45 30.38) rotate(-176.5) scale(1 -1)" xlink:href="#linear-gradient-10"/>
    <linearGradient id="linear-gradient-25" x1="-503.48" y1="498.03" x2="-258.99" y2="445.78" gradientTransform="translate(647.45 30.38) rotate(-176.5) scale(1 -1)" xlink:href="#linear-gradient-10"/>
    <linearGradient id="linear-gradient-26" x1="-618.43" y1="903.4" x2="-264.68" y2="1143.68" gradientTransform="translate(-86.35) rotate(-180) scale(1 -1)" xlink:href="#linear-gradient-20"/>
    <linearGradient id="linear-gradient-27" x1="-774.88" y1="1458.71" x2="-727.24" y2="1458.71" gradientTransform="translate(-86.35) rotate(-180) scale(1 -1)" xlink:href="#linear-gradient-20"/>
    <linearGradient id="linear-gradient-28" x1="-752.41" y1="1477.48" x2="-681.33" y2="1264.25" gradientTransform="translate(-86.35) rotate(-180) scale(1 -1)" xlink:href="#linear-gradient-10"/>
    <linearGradient id="linear-gradient-29" x1="-767.3" y1="1371.23" x2="-738.16" y2="1371.23" gradientTransform="translate(-86.35) rotate(-180) scale(1 -1)" xlink:href="#linear-gradient-20"/>
    <linearGradient id="linear-gradient-30" x1="-784.18" y1="1451.24" x2="-736.61" y2="1308.5" gradientTransform="translate(-86.35) rotate(-180) scale(1 -1)" xlink:href="#linear-gradient-10"/>
    <linearGradient id="linear-gradient-31" x1="-675.44" y1="1453.91" x2="-624.98" y2="1294.22" gradientTransform="translate(-86.35) rotate(-180) scale(1 -1)" gradientUnits="userSpaceOnUse">
      <stop offset="0" stop-color="#ab316d"/>
      <stop offset="1" stop-color="#792d3d"/>
    </linearGradient>
    <linearGradient id="linear-gradient-32" x1="3102.28" y1="814.93" x2="3105.89" y2="718.62" gradientTransform="translate(-2445.51 -298.94) rotate(10.28)" xlink:href="#linear-gradient-10"/>
    <linearGradient id="linear-gradient-33" x1="3101.15" y1="729.91" x2="3099.6" y2="854.6" gradientTransform="translate(-2445.51 -298.94) rotate(10.28)" xlink:href="#linear-gradient-10"/>
    <linearGradient id="linear-gradient-34" x1="844.92" y1="1187.39" x2="982.38" y2="1187.39" gradientTransform="translate(1423.65) rotate(-180) scale(1 -1)" xlink:href="#linear-gradient-6"/>
    <linearGradient id="linear-gradient-35" x1="757.02" y1="1100.68" x2="847.14" y2="1190.08" gradientTransform="translate(1423.65) rotate(-180) scale(1 -1)" xlink:href="#linear-gradient-6"/>
    <linearGradient id="linear-gradient-36" x1="757.02" y1="1100.68" x2="847.14" y2="1190.08" gradientTransform="translate(1423.65) rotate(-180) scale(1 -1)" xlink:href="#linear-gradient-6"/>
    <linearGradient id="linear-gradient-37" x1="492.64" y1="1160.28" x2="446.95" y2="1203.34" xlink:href="#linear-gradient-10"/>
  </defs>
  <g class="cls-41">
    <g id="_Layer_" data-name="&amp;lt;Layer&amp;gt;">
      <g>
        <g class="cls-64">
          <g>
            <g class="cls-35">
              <path class="cls-51" d="M841.51,1326.4l134.92,36.88s44.32-62.27,24.6-120.15c-40.22-118.1,66.02-145.08,108.83-163.04,64.56-27.08,102.69-74.45,48.27-126.82-61.57-59.25,30.93-146.87,141.49-175.59,108.19-28.1,120.68-236.64-119.08-197.33-143.18,23.48-160.13,163.85-185.54,232.7-25.41,68.85-131.9,46.02-119.55,141.99,10.55,81.98,54.14,151.56-4.15,190.01-58.29,38.44-78.4,93.92-29.8,181.35Z"/>
              <g class="cls-12">
                <path class="cls-33" d="M896.48,1354.88l2.94.25c.16-1.82,16.46-184.21,87.13-360.14,65.11-162.08,191.04-351.69,421.21-334.56l.22-2.94c-102.46-7.63-193.14,24.37-269.51,95.1-61.01,56.5-113.05,137.71-154.68,241.36-70.83,176.34-87.15,359.1-87.31,360.93Z"/>
                <path class="cls-33" d="M1107.84,783.52l2.92.42c14-97.28,86.37-221.12,87.1-222.36l-2.54-1.5c-.73,1.25-73.39,125.59-87.48,223.44Z"/>
                <path class="cls-33" d="M1160.01,737.79c112.21-33.53,193.96,19.62,194.78,20.16l1.64-2.46c-.82-.55-83.67-54.47-197.26-20.53l.85,2.83Z"/>
                <path class="cls-33" d="M946.61,1112.53c68.55-125.59,260.2-108.6,262.06-108.28l.69-2.87c-1.79-.49-196.18-16.97-265.34,109.73l2.59,1.41Z"/>
                <path class="cls-33" d="M961.29,1055.38l2.95.18c5.63-91.13-71.68-176.02-72.46-176.87l-2.17,2c.77.84,77.24,84.83,71.68,174.69Z"/>
                <path class="cls-33" d="M902.62,1326.49c18.39-51.15,104.33-72.14,105.2-72.34l-.68-2.87c-3.6.85-88.36,21.56-107.29,74.22l2.78,1Z"/>
                <path class="cls-33" d="M905.9,1283.25l2.94.29c4.19-42.77-45.13-105.18-61.34-125.68-2.29-2.9-4.27-5.4-4.53-5.91l-2.65,1.31c.36.73,1.67,2.4,4.86,6.43,16.03,20.28,64.8,81.98,60.72,123.57Z"/>
              </g>
            </g>
            <g>
              <path class="cls-51" d="M981.41,802.42c21.74,22.99,17.27,53.36,10.6,74.82-2.92.84-4.39,2.07-7.14,3.56-24.84,13.49-38.31,13.96-64.89,23.4-5.72,2.03-24.33,2.89-31.95,2.75l-14.21-.49s-43.19-58.65-12.72-86.76c30.47-28.11-3.48-89.01-17.49-123.5-8.6-21.18-5.75-33.62-7.66-41.9-20.24-87.74-53.73-105.65-42.79-138.22,12.08-35.96,56.37-24.42,71.58-62.84,17.18-43.39-27.76-87.23-2.33-124.65,4.36-6.42,9.01-12.89,17.72-18.48,21.5-13.79,44.62-5.7,55.73-29.97,22.32-48.79,73.9-78.52,119.76-47.64,45.26,30.48,29.85,120.77-49.81,212.24-49.23,71.51-45.32,87.68-28.13,124.9,12.05,26.07,61.98,88.78,30.91,128.14-31.07,39.36-52.04,78.36-27.18,104.65Z"/>
              <g class="cls-56">
                <g class="cls-12">
                  <path class="cls-60" d="M934.43,901.23l-2.05.33c-1.92-11.31-3.7-22.75-5.3-33.99-11.83-83.2-14.84-164.54-8.94-241.75,5-65.43,16.44-128.82,34.02-188.41,14.13-47.92,32.29-93.66,53.97-135.94,15.24-29.72,32.05-57.44,49.95-82.39,3.12-4.35,6.57-8.64,9.91-12.78,4.45-5.53,9.04-11.24,12.89-17.14l1.77.98c-3.9,5.98-8.53,11.73-13.01,17.3-3.32,4.13-6.75,8.39-9.84,12.7-17.85,24.87-34.61,52.51-49.81,82.15-21.62,42.18-39.74,87.81-53.84,135.62-17.54,59.47-28.96,122.73-33.95,188.03-5.89,77.08-2.88,158.29,8.93,241.37,1.6,11.22,3.37,22.64,5.29,33.94Z"/>
                  <path class="cls-60" d="M936,511.16l-2.05-.27c14.13-81.86-58.98-205.24-59.73-206.48l1.82-.96c.74,1.24,74.2,125.19,59.96,207.71Z"/>
                  <path class="cls-60" d="M918.05,743.06l-2.08-.05c2.6-56.57,94.42-125.46,95.35-126.15l1.28,1.5c-.92.68-92,69.02-94.56,124.71Z"/>
                  <path class="cls-60" d="M919.56,775.24l-2.06.29c-5.36-36.52-33.77-83.37-79.97-131.9q-2.32-2.44-2.38-2.8l2.06-.31-1.03.16.89-.5c.13.18,1.01,1.1,2.03,2.17,46.47,48.81,75.05,96.01,80.47,132.9Z"/>
                  <path class="cls-60" d="M931.25,880.54l-2.05-.27c6.78-40.3,63.14-71.27,63.71-71.58l1.03,1.66c-.56.3-56.06,30.82-62.68,70.19Z"/>
                  <path class="cls-60" d="M931.46,902.22c-17.04-28.5-43.54-53.26-81.02-75.71l1.15-1.62c37.76,22.62,64.48,47.6,81.69,76.38l-1.82.95Z"/>
                  <path class="cls-60" d="M995.67,327.37l-2.03-.38c10.59-45.15,10.46-94.69,10.42-110.97,0-3.94,0-5.33.08-5.81l2.05.3c-.06.37-.06,2.62-.05,5.48.04,16.33.16,66.03-10.47,111.39Z"/>
                  <path class="cls-60" d="M966.79,398.59l-1.81-.92c22.89-37.94,112.68-62.15,116.49-63.16l.54,1.85c-.92.25-92.77,25-115.23,62.23Z"/>
                </g>
              </g>
            </g>
            <g>
              <path class="cls-65" d="M981.44,1105.56c-7.19-.06-3.17-37.59-29.3-81.93-6.53-11.08-37.95-73.97-90.63-69.62-10.23.84-20.45,1.69-30.68,2.53-11.47-21.84-18.23-44.55,11.63-56.97,46.38-19.29,36.94-99.38,19.98-126.11-20.99-33.08-68.19-111.05,3.01-141.93,59.27-25.71,103.09-30.87,97.47-106.35-5.62-75.49,31.55-127.38,104.2-131.43,76.46-4.26,126.01-106.85,192.36-82.33,115.62,42.73,39.45,219.54-85.86,282.95-125.31,63.41-43.85,99.26-32.16,160.2.76,5.72,1.51,14.64.39,25.34-6.9,65.88-72.57,84.86-114.26,143.06-56.85,79.38-34.04,182.69-46.15,182.59Z"/>
              <g class="cls-45">
                <g class="cls-12">
                  <path class="cls-60" d="M923.32,939.64l-3.6-.26c20.49-248.19,168.54-485.77,386.37-620.04l1.97,2.85c-216.91,133.7-364.34,370.3-384.75,617.45Z"/>
                  <path class="cls-60" d="M946.77,805.23l-3.58.41c-12.52-97.12-110.38-162.71-111.37-163.36l2.07-2.79c1,.66,100.17,67.09,112.89,165.74Z"/>
                  <path class="cls-60" d="M928.41,894.08l-3.36-1.24c38.38-92.34,226.39-126.36,228.29-126.69l.66,3.35c-1.87.33-187.94,34-225.59,124.59Z"/>
                  <path class="cls-60" d="M1046.89,580.26l-3.46-.97c23.71-75.44-40.07-180.01-40.72-181.06l3.12-1.72c.66,1.06,65.21,106.91,41.06,183.74Z"/>
                  <path class="cls-60" d="M1146.45,453.1l-2.25-2.66c74.35-55.82,202.13-44.36,203.41-44.24l-.36,3.39c-1.27-.12-127.61-11.44-200.8,43.51Z"/>
                </g>
              </g>
            </g>
          </g>
        </g>
        <g>
          <polygon class="cls-23" points="1140.54 1142.52 193.69 1198.17 193.69 666.3 1140.54 657.65 1140.54 1142.52"/>
          <g>
            <g>
              <g>
                <polygon class="cls-63" points="553.07 1122 485.69 1125.67 485.69 739.78 553.07 738.65 553.07 1122"/>
                <path class="cls-63" d="M566.9,738.22c0,5.79-4.54,10.58-10.75,10.69l-79.56,1.38c-6.31.11-11.63-4.54-11.63-10.39v-1.35c0-5.85,5.57-10.67,11.88-10.77l79.09-1.21c6.21-.09,10.97,4.53,10.97,10.32v1.34Z"/>
                <path class="cls-63" d="M566.9,1121.03c0,5.79-4.54,10.76-10.75,11.1l-79.56,4.32c-6.31.34-11.63-4.12-11.63-9.97v-1.35c0-5.85,5.57-10.86,11.88-11.19l79.09-4.15c6.21-.32,10.97,4.11,10.97,9.9v1.34Z"/>
              </g>
              <g>
                <path class="cls-13" d="M508.15,1099.34c0,2.38-1.75,4.42-4.32,4.56h0c-2.57.13-4.32-1.69-4.32-4.08v-336.95c0-2.39,1.75-4.36,4.32-4.4h0c2.57-.05,4.32,1.85,4.32,4.23v336.65Z"/>
                <path class="cls-13" d="M535.8,1098.02c0,2.38-2.63,4.41-5.18,4.54h0c-2.56.13-5.19-1.69-5.19-4.07v-336.11c0-2.38,2.63-4.35,5.19-4.39h0c2.55-.05,5.18,1.84,5.18,4.22v335.81Z"/>
              </g>
            </g>
            <g>
              <g>
                <polygon class="cls-63" points="886.54 1104.19 824.34 1107.53 824.34 734.2 886.54 733.18 886.54 1104.19"/>
                <path class="cls-63" d="M900.37,732.77c0,5.61-4.72,10.24-10.54,10.34l-74.92,1.29c-5.91.1-11.31-4.4-11.31-10.06v-1.31c0-5.66,5.39-10.32,11.3-10.41l74.62-1.13c5.82-.09,10.83,4.39,10.83,9.99v1.29Z"/>
                <path class="cls-63" d="M900.37,1103.27c0,5.61-4.72,10.41-10.54,10.73l-74.92,4.04c-5.91.32-11.31-4.01-11.31-9.67v-1.31c0-5.66,5.39-10.5,11.3-10.81l74.62-3.88c5.82-.3,10.83,4,10.83,9.6v1.29Z"/>
              </g>
              <g>
                <path class="cls-13" d="M845.08,1082.19c0,2.31-1.91,4.28-4.32,4.4h0c-2.4.12-4.32-1.65-4.32-3.96v-326.06c0-2.31,1.92-4.22,4.32-4.26h0c2.4-.04,4.32,1.79,4.32,4.1v325.78Z"/>
                <path class="cls-13" d="M870.99,1080.86c0,2.3-1.93,4.27-4.32,4.39h0c-2.39.12-4.32-1.64-4.32-3.95v-325.21c0-2.3,1.93-4.2,4.32-4.25h0c2.39-.04,4.32,1.79,4.32,4.09v324.93Z"/>
              </g>
            </g>
          </g>
          <polygon class="cls-61" points="1154.36 672.09 176.41 682.48 176.41 657.54 1154.36 649.42 1154.36 672.09"/>
          <polygon class="cls-13" points="1154.36 1141.66 176.41 1199.1 176.41 1168.81 1154.36 1114.13 1154.36 1141.66"/>
          <polygon class="cls-23" points="1232.11 1204.65 304.27 1265.57 304.27 739.22 1232.11 724.3 1232.11 1204.65"/>
          <g>
            <g>
              <g>
                <g>
                  <polygon class="cls-49" points="1081.79 924.07 1016.13 926.48 1016.13 811.52 1081.79 809.88 1081.79 924.07"/>
                  <g>
                    <g>
                      <polygon class="cls-23" points="1042.05 848.53 1024.77 849.06 1024.77 821.16 1042.05 820.69 1042.05 848.53"/>
                      <polygon class="cls-23" points="1074.88 847.64 1055.87 848.2 1055.87 820.39 1074.88 819.88 1074.88 847.64"/>
                    </g>
                    <g>
                      <polygon class="cls-23" points="1042.05 881.29 1024.77 881.87 1024.77 855.62 1042.05 855.09 1042.05 881.29"/>
                      <polygon class="cls-23" points="1074.88 880.29 1055.87 880.92 1055.87 854.75 1074.88 854.17 1074.88 880.29"/>
                    </g>
                    <g>
                      <polygon class="cls-23" points="1042.05 915.68 1024.77 916.33 1024.77 890.08 1042.05 889.48 1042.05 915.68"/>
                      <polygon class="cls-23" points="1074.88 914.57 1055.87 915.27 1055.87 889.1 1074.88 888.45 1074.88 914.57"/>
                    </g>
                  </g>
                </g>
                <g>
                  <polygon class="cls-49" points="1173.36 920.8 1107.71 923.17 1107.71 809.27 1173.36 807.66 1173.36 920.8"/>
                  <g>
                    <g>
                      <polygon class="cls-23" points="1133.62 845.95 1116.35 846.46 1116.35 818.83 1133.62 818.36 1133.62 845.95"/>
                      <polygon class="cls-23" points="1166.45 845.07 1145.72 845.62 1145.72 818.07 1166.45 817.57 1166.45 845.07"/>
                    </g>
                    <g>
                      <polygon class="cls-23" points="1133.62 878.4 1116.35 878.98 1116.35 852.97 1133.62 852.44 1133.62 878.4"/>
                      <polygon class="cls-23" points="1166.45 877.42 1145.72 878.04 1145.72 852.11 1166.45 851.54 1166.45 877.42"/>
                    </g>
                    <g>
                      <polygon class="cls-23" points="1133.62 912.48 1116.35 913.12 1116.35 887.11 1133.62 886.52 1133.62 912.48"/>
                      <polygon class="cls-23" points="1166.45 911.39 1145.72 912.08 1145.72 886.14 1166.45 885.51 1166.45 911.39"/>
                    </g>
                  </g>
                </g>
              </g>
              <g>
                <g>
                  <polygon class="cls-49" points="1081.79 1070.87 1016.13 1074.29 1016.13 959.33 1081.79 956.69 1081.79 1070.87"/>
                  <g>
                    <g>
                      <polygon class="cls-23" points="1042.05 994.3 1024.77 995.1 1024.77 967.2 1042.05 966.46 1042.05 994.3"/>
                      <polygon class="cls-23" points="1074.88 992.93 1055.87 993.8 1055.87 965.99 1074.88 965.18 1074.88 992.93"/>
                    </g>
                    <g>
                      <polygon class="cls-23" points="1042.05 1028.7 1024.77 1029.55 1024.77 1001.66 1042.05 1000.85 1042.05 1028.7"/>
                      <polygon class="cls-23" points="1074.88 1027.22 1055.87 1028.15 1055.87 1000.34 1074.88 999.47 1074.88 1027.22"/>
                    </g>
                    <g>
                      <polygon class="cls-23" points="1042.05 1063.09 1024.77 1064.01 1024.77 1036.12 1042.05 1035.25 1042.05 1063.09"/>
                      <polygon class="cls-23" points="1074.88 1061.5 1055.87 1062.5 1055.87 1034.69 1074.88 1033.75 1074.88 1061.5"/>
                    </g>
                  </g>
                </g>
                <g>
                  <polygon class="cls-49" points="1173.36 1066.26 1107.71 1069.61 1107.71 955.71 1173.36 953.12 1173.36 1066.26"/>
                  <g>
                    <g>
                      <polygon class="cls-23" points="1133.62 990.37 1116.35 991.15 1116.35 963.51 1133.62 962.78 1133.62 990.37"/>
                      <polygon class="cls-23" points="1166.45 989.03 1145.72 989.88 1145.72 962.32 1166.45 961.53 1166.45 989.03"/>
                    </g>
                    <g>
                      <polygon class="cls-23" points="1133.62 1024.45 1116.35 1025.29 1116.35 997.65 1133.62 996.86 1133.62 1024.45"/>
                      <polygon class="cls-23" points="1166.45 1023 1145.72 1023.91 1145.72 996.36 1166.45 995.5 1166.45 1023"/>
                    </g>
                    <g>
                      <polygon class="cls-23" points="1133.62 1058.52 1116.35 1059.43 1116.35 1031.79 1133.62 1030.94 1133.62 1058.52"/>
                      <polygon class="cls-23" points="1166.45 1056.97 1145.72 1057.95 1145.72 1030.4 1166.45 1029.47 1166.45 1056.97"/>
                    </g>
                  </g>
                </g>
              </g>
            </g>
            <g>
              <g>
                <g>
                  <polygon class="cls-49" points="451.13 946.92 375.11 949.66 375.11 827.26 451.13 825.4 451.13 946.92"/>
                  <g>
                    <g>
                      <polygon class="cls-23" points="404.48 866.61 385.47 867.2 385.47 837.5 404.48 836.97 404.48 866.61"/>
                      <polygon class="cls-23" points="440.76 865.59 420.03 866.24 420.03 836.63 440.76 836.05 440.76 865.59"/>
                    </g>
                    <g>
                      <polygon class="cls-23" points="404.48 901.48 385.47 902.14 385.47 874.19 404.48 873.59 404.48 901.48"/>
                      <polygon class="cls-23" points="440.76 900.34 420.03 901.06 420.03 873.2 440.76 872.54 440.76 900.34"/>
                    </g>
                    <g>
                      <polygon class="cls-23" points="404.48 938.1 385.47 938.83 385.47 910.88 404.48 910.2 404.48 938.1"/>
                      <polygon class="cls-23" points="440.76 936.83 420.03 937.63 420.03 909.77 440.76 909.03 440.76 936.83"/>
                    </g>
                  </g>
                </g>
                <g>
                  <polygon class="cls-49" points="553.07 943.22 478.78 945.9 478.78 824.71 553.07 822.89 553.07 943.22"/>
                  <g>
                    <g>
                      <polygon class="cls-23" points="508.15 863.68 489.14 864.26 489.14 834.86 508.15 834.33 508.15 863.68"/>
                      <polygon class="cls-23" points="542.71 862.74 518.52 863.37 518.52 834.05 542.71 833.48 542.71 862.74"/>
                    </g>
                    <g>
                      <polygon class="cls-23" points="508.15 898.21 489.14 898.86 489.14 871.18 508.15 870.59 508.15 898.21"/>
                      <polygon class="cls-23" points="542.71 897.16 518.52 897.86 518.52 870.27 542.71 869.62 542.71 897.16"/>
                    </g>
                    <g>
                      <polygon class="cls-23" points="508.15 934.47 489.14 935.19 489.14 907.51 508.15 906.84 508.15 934.47"/>
                      <polygon class="cls-23" points="542.71 933.29 518.52 934.08 518.52 906.48 542.71 905.76 542.71 933.29"/>
                    </g>
                  </g>
                </g>
              </g>
              <g>
                <g>
                  <polygon class="cls-49" points="451.13 1103.16 375.11 1107.03 375.11 984.63 451.13 981.64 451.13 1103.16"/>
                  <g>
                    <g>
                      <polygon class="cls-23" points="404.48 1021.79 385.47 1022.69 385.47 992.99 404.48 992.15 404.48 1021.79"/>
                      <polygon class="cls-23" points="440.76 1020.24 420.03 1021.21 420.03 991.61 440.76 990.7 440.76 1020.24"/>
                    </g>
                    <g>
                      <polygon class="cls-23" points="404.48 1058.4 385.47 1059.37 385.47 1029.67 404.48 1028.76 404.48 1058.4"/>
                      <polygon class="cls-23" points="440.76 1056.73 420.03 1057.78 420.03 1028.18 440.76 1027.19 440.76 1056.73"/>
                    </g>
                    <g>
                      <polygon class="cls-23" points="404.48 1095.01 385.47 1096.06 385.47 1066.36 404.48 1065.37 404.48 1095.01"/>
                      <polygon class="cls-23" points="440.76 1093.22 420.03 1094.35 420.03 1064.75 440.76 1063.68 440.76 1093.22"/>
                    </g>
                  </g>
                </g>
                <g>
                  <polygon class="cls-49" points="553.07 1097.93 478.78 1101.73 478.78 980.53 553.07 977.6 553.07 1097.93"/>
                  <g>
                    <g>
                      <polygon class="cls-23" points="508.15 1017.34 489.14 1018.22 489.14 988.81 508.15 987.99 508.15 1017.34"/>
                      <polygon class="cls-23" points="542.71 1015.9 518.52 1016.85 518.52 987.54 542.71 986.64 542.71 1015.9"/>
                    </g>
                    <g>
                      <polygon class="cls-23" points="508.15 1053.59 489.14 1054.54 489.14 1025.14 508.15 1024.24 508.15 1053.59"/>
                      <polygon class="cls-23" points="542.71 1052.04 518.52 1053.07 518.52 1023.75 542.71 1022.78 542.71 1052.04"/>
                    </g>
                    <g>
                      <polygon class="cls-23" points="508.15 1089.84 489.14 1090.87 489.14 1061.46 508.15 1060.5 508.15 1089.84"/>
                      <polygon class="cls-23" points="542.71 1088.17 518.52 1089.29 518.52 1059.97 542.71 1058.92 542.71 1088.17"/>
                    </g>
                  </g>
                </g>
              </g>
            </g>
          </g>
          <path class="cls-49" d="M793.03,969.81l-5.95.25c-35.77,1.42-64.68,30.46-64.68,64.7v191.54l134.77-8.74v-189c0-33.79-28.67-60.16-64.15-58.76Z"/>
          <g>
            <g>
              <polygon class="cls-49" points="777.69 935.14 706.85 937.71 706.85 819.14 777.69 817.4 777.69 935.14"/>
              <g>
                <g>
                  <polygon class="cls-23" points="734.5 857.29 715.49 857.85 715.49 829.08 734.5 828.58 734.5 857.29"/>
                  <polygon class="cls-23" points="767.32 856.38 744.86 856.99 744.86 828.3 767.32 827.76 767.32 856.38"/>
                </g>
                <g>
                  <polygon class="cls-23" points="734.5 891.07 715.49 891.69 715.49 864.62 734.5 864.05 734.5 891.07"/>
                  <polygon class="cls-23" points="767.32 890.06 744.86 890.73 744.86 863.74 767.32 863.12 767.32 890.06"/>
                </g>
                <g>
                  <polygon class="cls-23" points="734.5 926.54 715.49 927.23 715.49 900.15 734.5 899.52 734.5 926.54"/>
                  <polygon class="cls-23" points="767.32 925.42 744.86 926.17 744.86 899.17 767.32 898.48 767.32 925.42"/>
                </g>
              </g>
            </g>
            <g>
              <polygon class="cls-49" points="874.45 931.66 801.88 934.18 801.88 816.75 874.45 815.04 874.45 931.66"/>
              <g>
                <g>
                  <polygon class="cls-23" points="831.25 854.54 808.79 855.14 808.79 826.64 831.25 826.1 831.25 854.54"/>
                  <polygon class="cls-23" points="862.36 853.65 841.62 854.25 841.62 825.83 862.36 825.3 862.36 853.65"/>
                </g>
                <g>
                  <polygon class="cls-23" points="831.25 888 808.79 888.67 808.79 861.84 831.25 861.23 831.25 888"/>
                  <polygon class="cls-23" points="862.36 887.01 841.62 887.67 841.62 860.93 862.36 860.32 862.36 887.01"/>
                </g>
                <g>
                  <polygon class="cls-23" points="831.25 923.13 808.79 923.87 808.79 897.05 831.25 896.37 831.25 923.13"/>
                  <polygon class="cls-23" points="862.36 922.03 841.62 922.77 841.62 896.03 862.36 895.35 862.36 922.03"/>
                </g>
              </g>
            </g>
          </g>
          <polygon class="cls-49" points="1245.93 1203.71 288.72 1266.59 288.72 1236.62 1245.93 1176.43 1245.93 1203.71"/>
          <polygon class="cls-23" points="862.36 1185.54 717.22 1194.5 717.22 1187.73 862.36 1178.87 862.36 1185.54"/>
          <polygon class="cls-7" points="311.3 729.98 352.26 568.47 200.9 657.48 311.3 729.98"/>
          <polygon class="cls-24" points="311.3 729.98 352.26 568.47 1107.8 569.44 1228.9 717.92 311.3 729.98"/>
          <polygon class="cls-63" points="304.27 742.68 304.27 1234.9 193.64 1167.61 193.28 688.65 304.27 742.68"/>
          <polygon class="cls-63" points="176.41 1168.53 288.72 1235.87 288.72 1266.35 176.41 1199.33 176.41 1168.53"/>
          <polygon class="cls-49" points="304.11 1235.04 193.56 1167.89 177.07 1168.81 287.96 1236.51 304.11 1235.04"/>
          <g>
            <polygon class="cls-49" points="273.17 1111.59 212.69 1084.08 212.69 954.24 273.17 988.44 273.17 1111.59"/>
            <g>
              <g>
                <polygon class="cls-23" points="236.88 1008.97 217.88 998.93 217.88 967.98 236.88 978.56 236.88 1008.97"/>
                <polygon class="cls-23" points="266.25 1023.19 248.98 1014 248.98 983.89 266.25 993.46 266.25 1023.19"/>
              </g>
              <g>
                <polygon class="cls-23" points="236.88 1046.99 217.88 1037.61 217.88 1006.67 236.88 1016.57 236.88 1046.99"/>
                <polygon class="cls-23" points="266.25 1060.35 248.98 1051.63 248.98 1021.52 266.25 1030.62 266.25 1060.35"/>
              </g>
              <g>
                <polygon class="cls-23" points="236.88 1085 217.88 1076.3 217.88 1045.35 236.88 1054.59 236.88 1085"/>
                <polygon class="cls-23" points="266.25 1097.5 248.98 1089.26 248.98 1059.16 266.25 1067.78 266.25 1097.5"/>
              </g>
            </g>
          </g>
          <g>
            <polygon class="cls-49" points="273.17 945.28 212.69 908.44 212.69 778.59 273.17 822.13 273.17 945.28"/>
            <g>
              <g>
                <polygon class="cls-23" points="236.88 837.19 217.88 824.03 217.88 793.08 236.88 806.77 236.88 837.19"/>
                <polygon class="cls-23" points="266.25 855.42 248.98 843.98 248.98 813.87 266.25 825.69 266.25 855.42"/>
              </g>
              <g>
                <polygon class="cls-23" points="236.88 875.2 217.88 862.71 217.88 831.76 236.88 844.79 236.88 875.2"/>
                <polygon class="cls-23" points="266.25 892.58 248.98 881.61 248.98 851.51 266.25 862.85 266.25 892.58"/>
              </g>
              <g>
                <polygon class="cls-23" points="236.88 913.22 217.88 901.4 217.88 870.45 236.88 882.8 236.88 913.22"/>
                <polygon class="cls-23" points="266.25 929.73 248.98 919.25 248.98 889.14 266.25 900.01 266.25 929.73"/>
              </g>
            </g>
          </g>
          <polygon class="cls-32" points="1245.93 738.5 288.72 755.34 288.72 730.65 1245.93 716.05 1245.93 738.5"/>
          <polygon class="cls-27" points="288.72 730.32 176.41 657.68 176.41 683.17 288.72 755.55 288.72 730.32"/>
          <polygon class="cls-36" points="200.9 657.34 311.3 729.91 287.96 731.28 177.07 657.54 200.9 657.34"/>
          <g>
            <polygon class="cls-63" points="518.52 1295.38 478.78 1252.82 478.78 1222.89 518.52 1265.56 518.52 1295.38"/>
            <g>
              <g>
                <polygon class="cls-49" points="1069.69 1200.59 577.26 1232.21 577.26 1203.05 1069.69 1172.82 1069.69 1200.59"/>
                <polygon class="cls-44" points="1097.34 1226.47 549.62 1263.21 549.62 1233.98 1097.34 1198.78 1097.34 1226.47"/>
                <polygon class="cls-49" points="1123.26 1254.06 518.52 1296.24 518.52 1265.19 1123.26 1224.81 1123.26 1254.06"/>
              </g>
              <polygon class="cls-63" points="578.24 1232.03 535.8 1189.62 535.8 1159.85 579.52 1199.26 578.24 1232.03"/>
              <polygon class="cls-31" points="549.62 1233.85 506.42 1192.66 506.42 1221.14 549.62 1263.58 549.62 1233.85"/>
              <polygon class="cls-49" points="507.45 1192.69 535.07 1189.7 577.88 1232.15 549.38 1233.98 507.45 1192.69"/>
              <polygon class="cls-44" points="479.67 1222.88 507.45 1221.13 549.38 1263.22 519.62 1265.21 479.67 1222.88"/>
              <polygon class="cls-44" points="577.88 1203 535.07 1159.13 983.26 1133.63 1070.27 1172.78 577.88 1203"/>
              <polygon class="cls-63" points="1097.14 1198.83 1069.69 1190 1069.69 1200.59 1097.14 1198.83"/>
              <polygon class="cls-63" points="1122.04 1224.82 1097.34 1216.38 1097.34 1226.47 1122.04 1224.82"/>
            </g>
          </g>
          <g>
            <g>
              <path class="cls-49" d="M577.26,1170.46v15.09c0,7.62,23.42,12.38,51.22,10.69,27.65-1.69,50.72-9.21,50.72-16.75v-14.94l-101.94,5.92Z"/>
              <path class="cls-63" d="M678.28,1165.34c0,7.55-22.3,15-49.95,16.65-27.8,1.66-50.44-3.17-50.44-10.79s22.65-15.09,50.44-16.68c27.65-1.57,49.95,3.27,49.95,10.82Z"/>
            </g>
            <g>
              <polygon class="cls-49" points="658.47 1165.7 599.73 1169.18 599.73 797.8 658.47 796.47 658.47 1165.7"/>
              <path class="cls-49" d="M658.14,1164.31c0,3.74-13.27,7.54-29.68,8.51-16.47.97-29.85-1.29-29.85-5.05s13.39-7.57,29.85-8.52c16.41-.94,29.68,1.32,29.68,5.06Z"/>
            </g>
            <g>
              <path class="cls-63" d="M577.26,789.71v15.46c0,7.62,23.42,7.46,51.22,6.8,27.65-.65,50.72-1.58,50.72-9.13v-15.31l-101.94,2.18Z"/>
              <path class="cls-63" d="M678.28,788.68c0,7.55-22.17,8.09-49.82,8.7-27.8.62-50.58,1.08-50.58-6.54s22.65-14.26,50.44-14.82c27.65-.56,49.95,5.11,49.95,12.66Z"/>
            </g>
          </g>
          <polygon class="cls-63" points="557.71 799.05 515.3 771.12 515.3 748.8 559.79 778.39 557.71 799.05"/>
          <polygon class="cls-63" points="515.3 748.78 770.42 603.89 807.77 619.04 557.31 777.04 515.3 748.78"/>
          <g>
            <path class="cls-13" d="M620.46,1151.87c0,1.31-.93,2.44-2.32,2.52l-.36.02c-1.4.08-2.5-.92-2.5-2.23v-323.32c0-1.31,1.2-2.41,2.6-2.44h.23c1.4-.04,2.36.99,2.36,2.3v323.15Z"/>
            <path class="cls-13" d="M644.65,1150.54c0,1.31-1.23,2.43-2.62,2.51l-1.08.02c-1.39.08-3.21-.92-3.21-2.23v-322.58c0-1.31,1.77-2.4,3.16-2.43h.81c1.39-.04,2.94.99,2.94,2.3v322.41Z"/>
          </g>
          <g>
            <g>
              <path class="cls-49" d="M910.73,1147.72v13.96c0,7.38,21.7,12.04,47.74,10.46,25.9-1.57,47.29-8.8,47.29-16.1v-13.83l-95.03,5.51Z"/>
              <path class="cls-63" d="M1005.15,1142.36c0,7.31-20.9,14.47-46.81,16.01-26.04,1.54-47.25-3.18-47.25-10.56s21.21-14.56,47.25-16.03c25.91-1.47,46.81,3.28,46.81,10.58Z"/>
            </g>
            <g>
              <polygon class="cls-49" points="985.03 1141.73 931.47 1144.87 931.47 787.1 985.03 785.91 985.03 1141.73"/>
              <path class="cls-49" d="M986.28,1141.32c0,3.62-12.43,7.27-27.81,8.17-15.43.9-27.97-1.32-27.97-4.95s12.54-7.3,27.97-8.18c15.38-.88,27.81,1.35,27.81,4.96Z"/>
            </g>
            <g>
              <path class="cls-63" d="M910.73,782.57v13.98c0,7.38,21.7,7.24,47.74,6.62,25.9-.61,47.29-1.49,47.29-8.79v-13.84l-95.03,2.04Z"/>
              <path class="cls-63" d="M1005.15,780.67c0,7.31-20.78,7.81-46.68,8.39-26.04.58-47.38,1.01-47.38-6.37s21.21-13.78,47.25-14.31c25.91-.52,46.81,4.98,46.81,12.29Z"/>
            </g>
          </g>
          <g>
            <path class="cls-13" d="M952.2,1128.17c0,1.27-1.31,2.36-2.62,2.43l-.28.02c-1.31.07-2.28-.9-2.28-2.17v-312.93c0-1.27.85-2.33,2.16-2.36h.51c1.31-.04,2.51.96,2.51,2.23v312.77Z"/>
            <path class="cls-13" d="M972.94,1126.93c0,1.27-.62,2.35-1.93,2.43l-.63.02c-1.3.07-2.62-.89-2.62-2.16v-312.23c0-1.27,1.54-2.32,2.84-2.35h.18c1.3-.04,2.17.96,2.17,2.23v312.07Z"/>
          </g>
          <g>
            <path class="cls-63" d="M1043.61,763.1l-235.84-144.06c-1.04-.63-2.37-.63-3.41.02l-246.86,153.69c-1.23.76-1.79,2.35-1.37,3.65.41,1.3,1.7,2.34,3.16,2.31l482.69-9.85c1.33-.03,2.51-1.07,2.88-2.33s-.13-2.75-1.25-3.43Z"/>
            <path class="cls-49" d="M1034.17,763.8l-96.01,1.92-370.35,7.37,212.52-132.51,24.02-14.98c1.04-.64,2.38-.73,3.42-.09l226.4,138.29Z"/>
            <path class="cls-23" d="M833.75,708.81c0,14.6-12.38,26.64-27.68,26.9-15.35.26-27.83-11.43-27.83-26.1s12.48-26.72,27.83-26.9c15.31-.18,27.68,11.51,27.68,26.11Z"/>
            <path class="cls-11" d="M938.17,765.72l-370.35,7.37,212.52-132.51c5.45,13.88,6.49,30.87-6.68,47.59-30.47,38.72-29.26,70.67,52.44,59.26,44.88-6.26,84.5,3.26,112.07,18.29Z"/>
          </g>
          <polygon class="cls-49" points="1041.93 787.99 557.23 798.76 557.23 778.75 1041.93 768.86 1041.93 787.99"/>
        </g>
        <g>
          <g>
            <path class="cls-54" d="M359.77,746.8c-76.89,50.65-165.21,53.45-202.38,7.89l-.03.02-.13-.22c-1.52-1.87-2.98-3.78-4.32-5.82-1.68-2.57-3.2-5.22-4.53-7.92l-43.11-66.97-8.95-13.92,88.92-56.65c14.12-15.92,31.27-30.87,51.01-43.89,22.2-14.62,45.36-25.24,67.95-31.89l89-56.68,49.33,85.87c.18.28.4.55.58.83,1.92,2.88,3.58,5.88,5.03,8.97,2.32,4.88,4.08,9.99,5.34,15.29,12.09,51.28-25.12,119.9-93.71,165.09Z"/>
            <path class="cls-18" d="M360.18,747.38c-20.9,14.48-43.81,25.89-67.74,32.31-24.55,6.59-58.45,10.79-83.54,4.71-41.72-10.11-57.5-40.01-78.86-72.78-8.23-12.63-17.3-24.77-24.84-37.84,25.03.69,55.63,13.67,77.39,25.35,18.8,10.09,35.96,24.42,56.56,30.83,45.41,14.13,99.54-6.99,128.93-42.92,17.96-21.95,17.18-54.18,38.9-73.72,14.04-12.63,33.51-17.71,46.5-31.62-2.33,2.49,1.2,23.28,1.02,27.56-.42,9.84-2,19.56-4.85,28.99-6.66,22.02-19.58,41.78-34.43,59.14-15.74,18.41-34.41,35.69-55.05,49.98Z"/>
          </g>
          <polygon class="cls-43" points="461.89 427.15 180.8 445.71 24.68 680.18 16.24 685.07 18.35 688.71 18.35 688.71 311.3 676.76 472.85 425.67 472.85 425.67 470.74 422.03 461.89 427.15"/>
          <polygon class="cls-50" points="177.9 440.69 15.51 684.57 307.87 665.27 470.26 421.4 177.9 440.69"/>
          <path class="cls-8" d="M105.26,832.24c-2.18,0-4.02-1.7-4.16-3.91l-8.95-144.49c-.07-1.16.34-2.3,1.15-3.14l142.6-149.09c1.59-1.67,4.23-1.72,5.89-.13,1.66,1.59,1.72,4.23.13,5.89l-141.34,147.77,8.84,142.67c.14,2.3-1.61,4.28-3.9,4.42-.09,0-.17,0-.26,0Z"/>
          <path class="cls-52" d="M96.86,824.17l3.32-5.07c1.27-1.92,3.47-3,5.76-2.81,2.29.19,4.3,1.62,5.23,3.72l2.13,5.65c.61,1.37.49,2.84.39,4.34l-3.07,46.16c-.07.99-3.98,1.54-9.27,1.19-5.29-.35-9.1-1.41-9.03-2.4l3.08-46.29c.11-1.6.58-3.14,1.46-4.48Z"/>
        </g>
        <g>
          <g>
            <g>
              <path class="cls-9" d="M687.72,663.45c4.64-5,12.96-26.51-2.21-30.94-15.26-4.45-23.74-10.07-44.75-26.92-21.01-16.84-26.41-2.38,3.27,24.97,29.68,27.35,37.09,39.99,43.69,32.88Z"/>
              <path class="cls-2" d="M707.6,632.03l-12.5,10.91c-2.61,2.28-6.41,2.57-9.34.72-1.36-.86-2.24-2.32-2.35-3.93-.12-1.61.54-3.18,1.77-4.23l18.27-15.63,4.16,12.17Z"/>
            </g>
            <g>
              <path class="cls-65" d="M1081.94,526.95c22.08,19.35-24.01,82.79-97.65,62.22-89.24-24.92-202.72-13.72-279.23,48.57-4.44-3.95-15.43-10.14-10.4-15.23,69.11-69.88,133.12-110,186.14-120.77,80.16-16.27,138.26-29.88,201.14,25.2Z"/>
              <g class="cls-19">
                <path class="cls-20" d="M823.05,553.52c-12.95,7.53-15.7-7.77-22.38-17.83,28.67-17.6,55.59-28.96,80.13-33.94,80.16-16.27,138.26-29.88,201.14,25.2,22.08,19.34-24.01,82.79-97.65,62.22-26.63-7.44-55.44-11.57-84.76-12.18-23.59-14.83-42.89-48.87-76.47-23.47Z"/>
              </g>
            </g>
          </g>
          <path class="cls-1" d="M1094.97,593.03l4.53,1.73s29.32-27.68,34.55-34.74c6.38-8.61-65.42-30.56-88.74-59.27-24.5-30.17-5.14,35.82-5.14,35.82l54.8,56.45Z"/>
          <g>
            <path class="cls-59" d="M1121.56,321.43s-26.03,3.57-54.57,54.18c-21.46,38.05-68.05,69.58-68.05,69.58l-4.78,29.94,38.67,6.79,13.83-9.11,37.73-80.29,37.17-71.1Z"/>
            <g>
              <path class="cls-51" d="M1172.03,318.2s64.16,7.91,65.54,81.75c1.27,68.14-23.31,94.53-83.63,151.35-6.07,5.71-15.9,5.71-16.63,6.54-3.92,4.42-7.89,9.02-11.9,13.84-53.98-51.81-114.85-69.35-114.85-69.35,0,0,56.3-116.46,81.03-155.07,25.5-39.8,63.97-33.01,80.45-29.05Z"/>
              <g class="cls-21">
                <path class="cls-48" d="M1065.5,490.19c27.09,14.49,65.47,12.85,79.59-5.08,10.63-13.51,12.35-18.54,25.3-39.75,10.41-17.06,15.48-19.8,38.23-34.16,8.58-5.42,18.33-13.27,27.88-25.03.6,4.32.98,8.9,1.08,13.78,1.27,68.14-23.31,94.53-83.63,151.35-6.07,5.71-15.9,5.71-16.63,6.54-3.92,4.42-7.89,9.02-11.9,13.84-53.98-51.81-114.85-69.35-114.85-69.35,0,0,9.34-18.32,21.72-44.07,8.97,15.04,15.85,22.66,33.23,31.95Z"/>
              </g>
            </g>
            <path class="cls-66" d="M1109.74,492.36s-12.16.56-20.8-2.92c-8.64-3.48-7.93-4.28-17.87-5.54-9.66-1.23-28.7-6.96-17.92-16.76,11.99-10.91,32.55-7.85,38.46-.61,5.69,6.98,15.56,11.41,15.56,11.41l2.56,14.41Z"/>
            <path class="cls-57" d="M1218.2,355s35.64,4.15,14.84,118.9c-10.79,59.52-64.1,51.14-128.47,26.55-4.36-9.12,1.25-28.44,1.25-28.44,0,0,79.98,32.98,82.05-15.13,2.32-53.94,9.54-107.58,30.33-101.88Z"/>
            <path class="cls-5" d="M1157.1,342.61c15.25,0,30.75-11.29,31.49-11.84.26-.19.31-.55.12-.81-.19-.26-.55-.31-.81-.12-.2.15-20.57,15-37.06,10.88-4.57-1.14-7.69-3.38-9.29-6.64-3.04-6.22.41-14.19.44-14.27.13-.29,0-.63-.3-.76-.3-.13-.64,0-.76.3-.15.35-3.7,8.55-.42,15.25,1.76,3.59,5.14,6.03,10.05,7.26,2.14.54,4.34.77,6.54.77Z"/>
            <path class="cls-30" d="M1134.43,555.47c.16,0,.32-.07.43-.19.21-.24.2-.6-.04-.82-.57-.52-58.02-51.94-109.87-64.61-.32-.08-.62.12-.7.42-.08.31.12.62.42.7,51.57,12.61,108.8,63.83,109.37,64.35.11.1.25.15.39.15Z"/>
          </g>
          <g>
            <path class="cls-53" d="M1173.86,288.92s-2.16,24.85-.21,29.56c1.95,4.71-4.21,11.12-16.4,13.6-12.18,2.47-2.54-24.78-2.54-24.78l19.14-18.37Z"/>
            <path class="cls-47" d="M1138.76,290.77c-12.66-6.91-12.4-39.32-5.24-41.79,4.11-1.42,6.14,8.57,19.7,14.36,10.56,4.5,18.08,2.17,21.93,8.39,1.81,2.92,2.5,7.23,1.91,10.85-.3,1.87-1.14,4.29-3.15,8.99-1.78,4.17-1.64,4.01-2.2,5.23-1.34,2.93-4.06,7.96-9.64,14.3-.75-1.78-1.81-3.97-3.3-6.29-.57-.89-2.86-4.37-5.91-7.06-5.55-4.91-10.5-4.99-14.13-6.97Z"/>
            <path class="cls-55" d="M1169.52,304.47s-4.74,11.6-17.7,12.83c-11.6,1.1-17.43-24.38-10.97-31.02,2.15-2.22,6.93-3.76,11.1-3.29,2.46.28,3.41,1.13,7.44,1.51,3.71.35,4.66-.21,5.88.53,1.53.92,2.96,3.54,1.93,11.43,1.83-2.57,4.33-3.85,6.33-3.27.32.09,1.19.5,1.77,1.24,2.08,2.68,0,6.87-5.77,10.04Z"/>
          </g>
          <g>
            <path class="cls-38" d="M1101.2,507.78c.59.09,1.12.51,1.27,1.06.02.08-.21,2.99-.2,3.08.06.68-.36,1.3-1,1.51l-54.56,17.72-101.96-39.93,48.45,3.7,108.01,12.85Z"/>
            <path class="cls-37" d="M1101.22,507.39c.67.1,1.19.64,1.25,1.32.06.68-.36,1.3-1,1.51l-54.56,17.72-101.96-39.93,48.45,3.7,107.84,15.67Z"/>
            <path class="cls-39" d="M1049.32,527.15l-8.13-106.37c-.13-1.7-1.42-3.1-3.1-3.36l-122.11-19.11c-1.09-.17-2.21.16-3.03.9-.82.74-1.27,1.81-1.22,2.91l4.58,99.14c.08,1.71,1.33,3.14,3.01,3.45l126.85,23.48,3.14-1.05Z"/>
            <path class="cls-38" d="M1046.71,531.16l-8.38-108.71c-.13-1.7-1.42-3.09-3.1-3.36l-122.11-19.11c-1.09-.17-2.21.16-3.03.9-.82.74-1.27,1.81-1.22,2.91l4.58,99.15c.08,1.7,1.32,3.13,2.99,3.45l130.27,24.76Z"/>
            <path class="cls-6" d="M1046.7,531.16l-130.27-24.76c-1.68-.32-2.91-1.75-2.99-3.45l-1.38-29.9c38.81,22.04,87.44,24.84,132.76,33.68l1.88,24.44Z"/>
          </g>
          <g>
            <path class="cls-62" d="M826.06,508.88c1.78-6.18,5.72-13.02-8.33-18-10.2-3.62-27.92-4.78-44.02-5.61-22.56-1.16-27.75,12.34,5.22,20.93,21.6,5.62,44.6,11.47,47.13,2.68Z"/>
            <path class="cls-40" d="M808.48,499.41c-.21,3.46,1.99,6.18,4.87,6.59,6.68.95,5.42-2.48,5.64-5.94.21-3.46,2.91-5.86-4.87-6.59-2.89-.27-5.42,2.48-5.64,5.94Z"/>
            <path class="cls-65" d="M877,479.51l-6.59-1.04s-12.84,1.2-48.22,10.96c-7.57,1.26-17.9,23.36,4.29,24.23,22.19.87,49.21,17.39,49.21,17.39l1.31-51.54Z"/>
            <path class="cls-65" d="M1107.42,582.37s-3.23,28.69-69.94,26.08c-66.7-2.61-185.87-71.86-185.12-108.19.75-36.34,45.09-21.82,91.01-.82,38.75,17.73,98.61,27.99,110.88,29.9,15.71,2.44,56.96,39.26,53.17,53.04Z"/>
            <g class="cls-21">
              <path class="cls-16" d="M1020.15,546.41c-30.88-3.15-37.81-25.3-76.23-31.71-24.9-4.15-33.69,3.2-46.38-5.3-10.02-6.71-15.13-18.41-17.6-31.12,17.03,1.44,40.01,10.42,63.44,21.14,37.64,17.22,95.19,27.4,109.71,29.71.43.07,10.16-3.41,10.16-3.41,0,0,7.24,4.14,12.44,7.41-20.24,10.85-44.26,14.42-55.54,13.27Z"/>
            </g>
          </g>
        </g>
        <path class="cls-4" d="M398.96,1144.06c-27.37,2.49-43.88,47.81-50.83,66.88-7.85,21.55-20.46,56.15-4.46,88.29,14.15,28.42,42.56,38.63,74.02,49.94,57.7,20.75,105.52,10.47,123.96,6.24,27.52-6.31,51.83-11.89,59.75-31.21,11.31-27.6-19.7-61.5-21.4-63.32-26.93-28.74-50.33-16.44-91.85-39.24-56.89-31.23-60.15-80.23-89.18-77.59Z"/>
        <g>
          <g>
            <path class="cls-25" d="M512.65,1031.21c6.65-4.31.59-16.87.23-43.83-.44-33.04,8.34-39.19,1.29-52.16-8.62-15.85-30.31-22.41-44.68-22.72-3.17-.07-3.91-1.8-30.47,5.08-47.85,12.39-59.82-.89-81.25,12.38-20.7,12.82-11.64,26.86-31.74,41.89-32.58,24.37-66.85-1.98-90.14,18.41-22.03,19.28-22.53,68.41.63,95.21,26.27,30.39,73.63,21.26,105.37,15.23,6.68-1.27,40.41-8.35,75.54-34.28,19.43-14.34,32.77-29.66,41.26-40.94,1.99-2.24,5.1-4.96,9.2-5.4,4.93-.53,8.88,2.49,10.79,3.81,10.01,6.93,27.42,11.54,33.96,7.3Z"/>
            <path class="cls-51" d="M485.91,1013.1c8.56-7.8,39.09,7.23,59.33,27.17,23.77,23.43,21.95,42.42,42.69,71.53,10.31,14.47,28,33.95,59.33,51.01-2.22,5.54-4.44,11.09-6.65,16.63-15.15.91-44.89.38-72.64-17.74-19.27-12.59-29.19-29.26-48.24-62.1-19.12-32.96-44.52-76.75-33.82-86.5Z"/>
            <path class="cls-14" d="M678.77,1458.7l-23.84-14.32h-10.76s-3.66,13.64-3.25,14.32c4.79,7.85,27.11,13.83,41.04,14.32,2.31.08,5.54.09,6.37-1.58,1.41-2.84-4.9-8.79-9.56-12.74Z"/>
            <path class="cls-3" d="M654.51,1428.74c-1.53,8.87.41,13.49,2.5,16.08,1.47,1.82,2.78,2.34,11.5,9.89,2.89,2.5,4.35,3.83,4.02,4.53-.38.8-2.93.37-8.43-.96-11.99-2.88-18.01-4.38-19.48-7.27-1.33-2.61-.15-3.79-.23-10.91-.05-4.69-1-8.46-1.75-10.82,3.96-.18,7.91-.37,11.87-.55Z"/>
            <path class="cls-46" d="M671.74,1358.47s10.77,12.85,9.02,26.94c-1.75,14.09-20.61-6.51-23.24-13.47-2.63-6.96-5.7-16.88-5.7-16.88,0,0,13.23-8.23,19.93,3.41Z"/>
            <path class="cls-29" d="M667.63,1338.36s-2.92,14.97,2.65,22.87c2.78,3.94,6.52,7.27,5.42,10.48-.74,2.15-3.54,3.69-5.91,3.45-4.54-.47-7.06-7.43-8.84-12.34-2.62-7.26-4.09-22.78-4.09-22.78l10.77-1.67Z"/>
            <path class="cls-24" d="M659.05,1350.98c3.31-1.21,6.62-2.41,9.94-3.62,5.17-11.8,11.47-31.19,9.37-54.75-5.42-60.59-61.46-92.7-67.68-96.13-15.27,7.66-30.73,18.47-31.29,32.09-.7,17.1,22.6,26.14,44.5,51.15,13.15,15.01,27.19,37.38,35.18,71.26Z"/>
            <path class="cls-24" d="M655.48,1435.67c10.94-42.75,8.15-77.63,4.99-97.73-4.77-30.37-14.48-92.15-55.73-115.19-9.01-5.03-21.88-9.54-37.58-23.52-13.11-11.68-21.44-23.96-26.46-32.62-55.17-16.18-106.05-9.62-128.5,19.96-2.59,3.42-9.09,10.83-10.35,21.77-2.84,24.67,21.4,54.37,48.6,60.57,34.57,7.88,54.62-27.61,85.25-15.8,8.57,3.3,15.83,11.49,30.36,27.86,18.48,20.83,28.87,40.05,32.8,47.74,11.7,22.9,20.58,39.8,21.87,61.71.3,5.1.48,15.41,6.46,26.54,4.59,8.54,10.81,14.23,15.44,17.75,4.28.32,8.56.65,12.84.97Z"/>
            <path class="cls-22" d="M401.86,1208.34c1.26-10.93,7.75-18.35,10.35-21.77,22.45-29.59,73.33-36.14,128.5-19.96,5.03,8.65,13.36,20.94,26.46,32.62,15.69,13.99,28.57,18.49,37.58,23.52,25.19,14.07,38.6,42.58,46.33,69.57-11.46-17.77-21.27-22.49-28.86-22.58-10.87-.12-15.72,9.17-28.69,7.9-13.87-1.35-17.04-12.82-28.28-14.14-3.36-.39-7.5.12-12.48,2.77-6.64-6.95-11.58-11.06-17.05-13.17-30.63-11.81-50.68,23.69-85.25,15.8-27.2-6.2-51.44-35.9-48.6-60.57Z"/>
            <path class="cls-24" d="M626.9,1241.87c-6.24-.33-15.86-.52-27.46.62-55.04,5.44-70.22,32.67-115.71,39.31-10.76,1.57-58.68,8.57-79.43-19.13-14.9-19.89-12.64-54.15,3.65-67.63,6.9-5.7,13.73-5.55,57.9-5.15,16.63.15,33.27.2,49.9.42,70.41.9,83.88-3.98,96.69,7.67,5.98,5.43,14.72,17.1,14.46,43.89Z"/>
            <g>
              <path class="cls-51" d="M478.25,1015.96s-82.16-23.96-90.69,36.19c-8.17,57.65,33.68,84.11,14.64,142.51-2.21,6.77,156.41-24.24,156.41-24.24-21.17-26.41-26.09-48.21-26.6-63.36-.55-16.61,4.23-24.16,0-43.8,0,0-4.72-21.91-21.77-40.72-2.45-2.7-5.36-5.51-31.99-6.58Z"/>
              <path class="cls-10" d="M425.7,1182.22l-.45-1.67c.77-.21,77.69-20.67,123.2-23.23l.1,1.72c-45.33,2.54-122.08,22.97-122.85,23.17Z"/>
            </g>
            <g>
              <path class="cls-58" d="M460.41,979.91c.75,3.52,4.58,22.39-3.14,27.24-1.67,1.05-4.89,1.66-11.32,2.86-4.21.79-7.74,1.27-10.24,1.57.36,3.16,1.43,8.31,5.08,13,10.24,13.13,30.76,9.73,33.69,9.2,10.32-1.88,20.48-5.07,22.94-7.02,3.74-2.97,6.67-5.2,8.41-7.46-4-1.93-12.06-7.02-17.47-8.69-4.05-1.24-7.84-2.13-11.3-2.77-.57-3.65-1.14-7.29-1.7-10.94-4.98-5.67-9.96-11.33-14.94-17Z"/>
              <path class="cls-42" d="M460.04,989.31s1.4,13.83,14.84,16.27c12.04,2.18,21.1-26.9,14.94-34.43-2.05-2.51-7.13-4.9-11.52-4.77-3.09.09-13.54,4.07-15,14.52-2.08-2.19-4.67-2.82-5.95-1.9-1.62,1.16-.75,4.55-.56,5.32.68,2.66,2.42,4.3,3.25,5Z"/>
            </g>
          </g>
          <g>
            <path class="cls-34" d="M575.36,1177.17l-125.76,6.12c-1.73.08-3.31,1.01-4.23,2.48l-3.48,5.59c-1.73,2.78.35,6.37,3.62,6.24l133.2-5.07-3.37-15.35Z"/>
            <path class="cls-28" d="M706.15,1107.14l-129.92,2.52c-3.84.07-7.36,2.17-9.26,5.51l-44.99,79.15,137.21-5.47c3.77-.15,7.2-2.19,9.14-5.42l41.68-69.64c1.77-2.96-.41-6.72-3.86-6.66Z"/>
            <path class="cls-17" d="M566.97,1115.17c1.9-3.34,5.42-5.44,9.26-5.51l2.85-.05c.42,4.19,1.71,8.03,4.28,11.13,8.01,9.67,21.32,3.71,31.24,13.94,10.9,11.24.83,24.62,10.57,35.09,10.26,11.01,26.84,2.05,45.9,9.09l-2.74,4.59c-1.94,3.23-5.37,5.27-9.14,5.42l-137.21,5.47,44.99-79.15Z"/>
          </g>
          <path class="cls-51" d="M459.85,1172.97c1.64-4.32,3.27-8.64,4.91-12.97-18.09-4.96-43.11-12.29-68.77-21.46-4.02-1.44-8.79-3.22-10.36-7.44-4.39-11.86,23.51-24.16,34.35-50.06,10.03-23.96,4.51-57.2-7.13-61.13-24.22-8.17-110.12,98.74-79.44,143.81,17.34,25.48,70.8,29.53,126.44,9.25Z"/>
          <path class="cls-15" d="M464.76,1160c11.36-6.03,24.95.15,25.83.56,2.5,1.18,6.13,3.28,9.8,7.02.41.57,5.34,7.39,3.55,9.58-1.44,1.75-7.01.3-13.71-3.86-2.81-.39-6.98-.75-11.99-.29-9.19.85-13.4,3.75-16.74,1.25-2.44-1.83-3.28-5.71-2.4-8.6.94-3.1,3.74-4.64,5.66-5.66Z"/>
        </g>
      </g>
    </g>
  </g>
</svg>