<?xml version="1.0" encoding="UTF-8"?>
<svg id="_Layer_" data-name="&amp;lt;Layer&amp;gt;" xmlns="http://www.w3.org/2000/svg" viewBox="0 0 1556.21 1556.21">
  <defs>
    <style>
      .cls-1 {
        fill: #d8d6d6;
      }

      .cls-2 {
        fill: #ffd593;
      }

      .cls-3 {
        fill: #d37b24;
      }

      .cls-4 {
        fill: #3f5f99;
      }

      .cls-5 {
        fill: #3a2232;
      }

      .cls-6 {
        fill: #2d3e7c;
      }

      .cls-7 {
        fill: #39a6b9;
      }

      .cls-8 {
        fill: #fff;
      }

      .cls-9 {
        fill: #ef8359;
      }

      .cls-10 {
        fill: #2c3c78;
      }

      .cls-11 {
        fill: #c57752;
      }

      .cls-12 {
        fill: #6c81b0;
      }

      .cls-13 {
        fill: #fc9465;
      }

      .cls-14 {
        fill: #f28161;
      }

      .cls-15 {
        fill: #43c4db;
      }

      .cls-16 {
        fill: #debd9d;
      }

      .cls-17 {
        fill: #a30a21;
      }

      .cls-18 {
        fill: #e65a28;
      }

      .cls-19 {
        fill: #261521;
      }

      .cls-20 {
        fill: #cd2434;
      }

      .cls-21 {
        fill: #f08d60;
      }

      .cls-22 {
        fill: #eabd81;
      }

      .cls-23 {
        fill: #e5943c;
      }

      .cls-24 {
        fill: #3f59a8;
      }

      .cls-25 {
        fill: #eaeaea;
      }

      .cls-26 {
        fill: #ccc2c2;
      }

      .cls-27 {
        fill: #d88736;
      }

      .cls-28 {
        fill: #7f331c;
      }

      .cls-29 {
        fill: #eae4e4;
      }
    </style>
  </defs>
  <path class="cls-13" d="M398.82,799.28c2.74-2.99,6.44-5.15,9.98-7.23,57.94-33.99,125.11-85.07,150.13-149.9,2.52-6.53,7.16-20.24,2.71-26.71-4.99-7.25-23.75-12.98-31.92-14.96-5.7-1.38-37.19-13-39.82-6.33-17.63,44.75-44.93,84.99-73.69,123.24-12.42,16.53-31.21,33.61-40.68,51.78-3.67,7.04-1.69,13.69,2.75,19.98,3.8,5.4,12.88,9.56,18.28,13.16.63-1.12,1.4-2.13,2.25-3.06Z"/>
  <path class="cls-13" d="M635.77,463.56c-14.48,59.24-31.87,119.6-66.52,169.35-3.4,4.92-6.93,9.7-10.67,14.34-12.82,16.01-27.86,30.84-41.23,31.74-50.72,3.33-36.59-61.53-23.28-98.12.62-1.73,1.18-3.39,1.8-5.13,11.71-34.72,16.15-73.94,27.65-108.24,12.33-36.86,33.47-81.9,74.91-91.54,21.83-4.99,41.3,28.34,42.68,46.7,1.11,13.79-2.08,27.51-5.34,40.88Z"/>
  <path class="cls-12" d="M635.77,463.56c-14.48,59.24-31.87,119.6-66.52,169.35l-73.38-57.17c11.71-34.72,16.15-73.94,27.65-108.24,12.33-36.86,37.63-89.46,79.06-99.09,21.83-4.99,37.14,35.89,38.53,54.26,1.11,13.79-2.08,27.51-5.34,40.88Z"/>
  <path class="cls-13" d="M633.81,1258.93c-.11-13.65-3.11-26.51-14.15-32.71-6.9-3.87-86.77-5.37-86.09,2.64,7.31,85.79-1.53,140.47-1.25,219.15.05,14.6,13.14,14.73,17.73,11.88,6.84-4.24,29.79-45.71,43.89-70.56,19.02-33.52,35.78-77.34,39.28-117.56.37-4.24.61-8.59.58-12.86Z"/>
  <path class="cls-24" d="M515.13,1419.22l83.75,13.38s53.57-129.55,57.23-200.97c.55-10.76,3.05-21.24,7.41-31.09,25.11-56.73,103.31-247.56,72.42-359.48l-168.28-19.72s-81.14,492.27-52.54,597.89Z"/>
  <path class="cls-13" d="M809.4,1243.89c-4.06-13.03-10.65-24.48-23.01-27.21-7.72-1.71-84.61,19.97-81.64,27.44,31.82,80.01,39.18,134.91,62.22,210.14,4.27,13.96,16.84,10.3,20.41,6.25,5.32-6.04,15.29-52.37,21.6-80.24,8.51-37.59,11.87-84.38,3.58-123.9-.88-4.17-1.9-8.4-3.17-12.47Z"/>
  <path class="cls-24" d="M740.58,1439.31l84.04-11.43s14.15-143.15-4.06-211.59c-2.3-8.63-2.68-17.66-1.56-26.53,7.34-57.99,28.68-315.61-34.22-415.31l-166.92,77.35s64.77,494.69,122.71,587.51Z"/>
  <path class="cls-4" d="M704.71,1479.74c.52.89,1.75,1.26,2.8,1.27,8.45,0,16.81-.01,25.27-.02,18.93,0,37.76.01,56.69.02l2.99.03c2.17-5.75,3.26-9.82,3.48-13.55.14-5.06-1.41-9.24-4.69-15.49-15.69,2.24-23.72-4.49-24.08-4.4-9.79,1.59-17.11,3.47-24.09,6.07-3.98,1.47-7.87,3.21-12.02,5.3-4.25,2.09-29.89,14.26-26.35,20.78Z"/>
  <path class="cls-4" d="M470.64,1479.74c.52.89,1.75,1.26,2.81,1.27,8.45,0,16.81-.01,25.26-.02,18.93,0,37.76.01,56.69.02l2.99.03c2.17-5.75,3.26-9.82,3.48-13.55.14-5.06-1.41-9.24-4.69-15.49-15.69,2.24-23.72-4.49-24.08-4.4-9.79,1.59-17.11,3.47-24.09,6.07-3.97,1.47-7.87,3.21-12.02,5.3-4.25,2.09-29.89,14.26-26.35,20.78Z"/>
  <path class="cls-6" d="M669.09,1185.18l-27.29-248.14c-6.49-5.94-40.35-38.7-45.04-78.62l6.88-.81c4.78,40.62,43.35,74.79,43.74,75.13l1.01.89,27.59,250.79-6.89.76Z"/>
  <path class="cls-12" d="M776.06,403.38c31.16,74.06,50.57,242.58,41.16,464.61l-264.42,4.99s-45.53-325.54,14.34-472.72l147.8-43.65c14.97-2.5,52.3,25.82,61.12,46.77Z"/>
  <g>
    <polygon class="cls-26" points="439.22 846.52 404.12 1020.97 498.68 1040 533.78 865.55 509.83 832.46 498.61 816.91 439.22 846.52"/>
    <polygon class="cls-29" points="459.68 852.34 434.28 1027.04 498.68 1040 533.78 865.55 498.53 817.32 459.68 852.34"/>
  </g>
  <g>
    <path class="cls-27" d="M252.05,962.07c40.07,121.33,88.19,214.53,107.46,208.16,19.28-6.37,2.42-109.89-37.66-231.22-40.07-121.33-88.19-214.53-107.47-208.16-19.28,6.37-2.42,109.89,37.66,231.22Z"/>
    <path class="cls-3" d="M211.52,771.85c-.12,3.28,7.22,6.21,16.4,6.53,9.17.32,16.7-2.08,16.81-5.36.12-3.28-7.22-6.21-16.39-6.53-9.17-.32-16.7,2.07-16.81,5.36Z"/>
    <path class="cls-3" d="M217.41,799.18c-.12,3.45,7.6,6.53,17.25,6.87,9.65.34,17.57-2.18,17.69-5.64.12-3.45-7.6-6.53-17.25-6.87-9.65-.34-17.57,2.18-17.69,5.64Z"/>
    <path class="cls-3" d="M219.69,827c-.17,4.84,10.65,9.14,24.16,9.62,13.51.48,24.6-3.06,24.78-7.89.17-4.84-10.65-9.14-24.16-9.62-13.51-.48-24.6,3.06-24.78,7.89Z"/>
    <path class="cls-3" d="M229.61,866.88c.16,5.9,13.64,10.32,30.11,9.88,16.47-.44,29.7-5.58,29.54-11.47-.16-5.9-13.64-10.32-30.11-9.88-16.47.44-29.7,5.58-29.54,11.47Z"/>
    <path class="cls-3" d="M239.95,909.13c.17,6.31,14.59,11.04,32.21,10.56,17.62-.47,31.77-5.97,31.6-12.27-.17-6.31-14.59-11.04-32.21-10.56-17.62.47-31.77,5.97-31.6,12.27Z"/>
    <path class="cls-3" d="M255.11,950.43c.17,6.31,14.59,11.04,32.21,10.56,17.62-.47,31.77-5.97,31.6-12.27-.17-6.31-14.59-11.04-32.21-10.56-17.62.47-31.77,5.97-31.6,12.27Z"/>
    <path class="cls-3" d="M267.53,992.63c.17,6.31,14.59,11.04,32.21,10.56,17.62-.47,31.77-5.96,31.6-12.27-.17-6.31-14.59-11.04-32.21-10.56-17.62.47-31.77,5.97-31.6,12.27Z"/>
    <path class="cls-3" d="M282.1,1032.49c.16,5.88,13.61,10.29,30.04,9.86,16.44-.44,29.63-5.56,29.47-11.45-.16-5.88-13.61-10.29-30.04-9.86-16.44.44-29.63,5.56-29.47,11.45Z"/>
    <path class="cls-3" d="M297.06,1066.41c.14,5.3,12.25,9.27,27.05,8.87,14.8-.4,26.68-5.01,26.54-10.3-.14-5.3-12.25-9.27-27.05-8.87-14.8.4-26.68,5.01-26.53,10.31Z"/>
    <path class="cls-3" d="M312.18,1101.63c.11,4.31,9.98,7.55,22.03,7.23,12.05-.32,21.73-4.08,21.61-8.39-.12-4.31-9.98-7.55-22.03-7.23-12.05.32-21.73,4.08-21.61,8.39Z"/>
    <path class="cls-3" d="M327.6,1127.52c.09,3.41,7.9,5.97,17.44,5.72,9.54-.26,17.2-3.23,17.11-6.64-.09-3.41-7.9-5.97-17.44-5.72-9.54.26-17.2,3.23-17.11,6.64Z"/>
  </g>
  <g>
    <path class="cls-23" d="M209.82,973.59c60.08,112.77,123.3,196.46,141.22,186.91,17.92-9.55-16.26-108.7-76.34-221.48-60.08-112.77-123.3-196.46-141.22-186.91-17.92,9.54,16.26,108.7,76.34,221.48Z"/>
    <path class="cls-3" d="M137.61,793c.44,3.25,8.17,4.89,17.26,3.65,9.09-1.24,16.1-4.88,15.66-8.13-.44-3.25-8.17-4.89-17.26-3.65-9.09,1.24-16.1,4.88-15.66,8.13Z"/>
    <path class="cls-3" d="M148.06,818.94c.47,3.42,8.6,5.14,18.17,3.84,9.57-1.3,16.95-5.13,16.48-8.56-.47-3.42-8.6-5.14-18.17-3.84s-16.95,5.13-16.48,8.56Z"/>
    <path class="cls-3" d="M155.02,845.97c.65,4.8,12.04,7.2,25.44,5.38,13.4-1.82,23.73-7.19,23.08-11.98s-12.04-7.2-25.44-5.38c-13.4,1.82-23.73,7.19-23.08,11.98Z"/>
    <path class="cls-3" d="M171.56,883.59c1.16,5.78,15.19,7.86,31.35,4.63,16.16-3.23,28.32-10.54,27.17-16.32-1.16-5.78-15.19-7.85-31.35-4.63-16.16,3.23-28.32,10.53-27.17,16.32Z"/>
    <path class="cls-3" d="M188.92,923.47c1.24,6.19,16.25,8.4,33.53,4.95,17.28-3.45,30.29-11.27,29.06-17.45-1.24-6.19-16.25-8.4-33.53-4.95-17.28,3.45-30.29,11.27-29.06,17.45Z"/>
    <path class="cls-3" d="M210.87,961.6c1.24,6.19,16.25,8.4,33.53,4.95,17.28-3.45,30.29-11.27,29.06-17.45-1.24-6.19-16.25-8.4-33.53-4.95-17.28,3.45-30.29,11.27-29.06,17.45Z"/>
    <path class="cls-3" d="M230.27,1001.08c1.24,6.19,16.25,8.4,33.53,4.95,17.28-3.45,30.29-11.27,29.06-17.45-1.24-6.19-16.25-8.4-33.53-4.95-17.28,3.45-30.29,11.27-29.06,17.45Z"/>
    <path class="cls-3" d="M251.39,1037.89c1.15,5.77,15.16,7.84,31.28,4.61,16.12-3.22,28.26-10.51,27.11-16.28-1.15-5.77-15.16-7.84-31.28-4.61-16.12,3.22-28.26,10.51-27.11,16.28Z"/>
    <path class="cls-3" d="M271.88,1068.78c1.04,5.19,13.65,7.05,28.16,4.15,14.52-2.9,25.44-9.46,24.4-14.66-1.04-5.19-13.65-7.06-28.16-4.16-14.52,2.9-25.44,9.46-24.4,14.66Z"/>
    <path class="cls-3" d="M292.76,1100.93c.85,4.23,11.11,5.75,22.94,3.38,11.82-2.36,20.72-7.71,19.88-11.94-.85-4.23-11.11-5.75-22.94-3.39-11.82,2.36-20.72,7.71-19.88,11.94Z"/>
    <path class="cls-3" d="M312.35,1123.83c.67,3.35,8.8,4.55,18.15,2.68,9.36-1.87,16.4-6.1,15.73-9.45-.67-3.35-8.8-4.55-18.15-2.68-9.36,1.87-16.4,6.1-15.73,9.45Z"/>
  </g>
  <g>
    <path class="cls-13" d="M255.54,925.86c15.09,13.9,41.04,19.83,60.28,11.96,15.55-6.36,27.75-20.35,31.95-36.61,5.06-19.62-3.94-38.01-23.63-43.82-4.53-1.34-9.36-2.18-13.98-1.2-8.63,1.83-13.85,8.88-23.41,9.91-6.47.7-13.1.46-19.37,2.19-11.25,3.11-18.42,11.06-21.47,20.45-4.05,12.45-.87,27.45,9.63,37.13Z"/>
    <path class="cls-11" d="M304.04,868.09c-.19,2.79-1.84,5.2-3.9,6.95-2.07,1.82-4.71,2.86-7.36,3.39-5.36.76-10.8-.65-14.47-4.66,2.68-.74,4.97-.99,7.16-1.27,2.18-.36,4.21-.49,6.16-.89,3.95-.68,7.48-1.46,12.41-3.52Z"/>
  </g>
  <g>
    <path class="cls-13" d="M390.47,922c11.03,17.29,34.6,29.67,55.22,26.98,16.65-2.17,32.03-12.57,40.25-27.22,9.91-17.67,5.92-37.75-11.63-48.41-4.04-2.46-8.49-4.5-13.21-4.74-8.81-.44-15.66,5.04-25.17,3.59-6.43-.98-12.78-2.91-19.28-2.84-11.67.13-20.63,5.98-25.99,14.27-7.1,11-7.87,26.32-.19,38.35Z"/>
    <path class="cls-11" d="M452.13,878.55c-.9,2.65-3.11,4.56-5.55,5.73-2.47,1.23-5.29,1.56-7.98,1.39-5.38-.63-10.28-3.39-12.8-8.21,2.78-.03,5.06.31,7.25.6,2.2.21,4.2.6,6.18.71,3.99.35,7.61.5,12.9-.22Z"/>
  </g>
  <g>
    <path class="cls-13" d="M323.09,909.44c6.22,19.55,25.8,37.57,46.42,40.28,16.65,2.19,34.19-3.91,45.9-15.95,14.13-14.53,15.43-34.96,1.21-49.77-3.27-3.41-7.04-6.54-11.54-7.98-8.4-2.69-16.43.84-25.24-3.01-5.97-2.6-11.6-6.1-17.91-7.7-11.31-2.87-21.48.47-28.79,7.11-9.69,8.8-14.37,23.41-10.05,37.02Z"/>
    <path class="cls-11" d="M393.85,883.31c-1.55,2.33-4.17,3.61-6.83,4.11-2.7.55-5.51.15-8.07-.71-5.03-1.99-9.06-5.92-10.26-11.23,2.69.68,4.81,1.6,6.85,2.45,2.07.76,3.9,1.66,5.79,2.28,3.76,1.37,7.22,2.44,12.52,3.1Z"/>
  </g>
  <path class="cls-19" d="M987.15,298.4c3.37,5.35,9.05,10.96,16.64,16.65,1.32.99,2.77,1.98,4.23,2.97,3.17,2.18,6.54,4.29,10.17,6.41.2.07.4.2.53.27,3.9,2.25,7.99,4.42,12.29,6.54,1.45.66,2.84,1.39,4.29,2.05,11.49,5.42,24.51,10.5,38.58,14.99,3.04.99,6.21,1.98,9.38,2.91,3.17.92,6.41,1.85,9.64,2.71,32.89,8.79,63.74,12.48,87.06,11.36,2.64-.13,5.22-.33,7.73-.59,2.91-.26,5.61-.66,8.19-1.12.99-.2,1.98-.4,2.91-.59,2.97-.59,5.68-1.39,8.12-2.31.86-.26,1.65-.59,2.38-.92,2.51-1.06,4.69-2.25,6.47-3.7.46-.33.93-.73,1.39-1.12.59-.59,1.06-1.06,1.45-1.52-11.89-19.09-53.5-41.61-105.75-55.48-59.32-15.85-112.22-15.13-125.7.53Z"/>
  <path class="cls-5" d="M1033.38,313.79c-4.29-2.11-8.39-4.29-12.29-6.54,3.83,2.25,7.93,4.43,12.29,6.54Z"/>
  <path class="cls-5" d="M1020.57,306.99c-3.63-2.11-7-4.23-10.17-6.41,3.1,2.18,6.54,4.29,10.17,6.41Z"/>
  <polygon class="cls-22" points="173.13 902.25 265.33 1227.68 430.56 1229.7 451.77 1229.7 534.09 906.66 221.13 902.55 173.13 902.25"/>
  <polygon class="cls-2" points="221.13 902.55 285.87 1196.32 459.25 1203.51 537.83 906.66 221.13 902.55"/>
  <path class="cls-24" d="M955.18,754.93c-16.32-13.09-39.88-42.96-22.32-54.13,18.28-11.64,19.86-35.82,25.37-54.7,8.4-28.78,17.55-58.69,29.42-86.24,9.24-21.45,20.33-44.49,36.32-61.82,1.73-1.9,3.51-3.76,5.39-5.52,21.18-19.81,51.52-26.13,71.99-1.96,6.27,7.4,10.78,16.51,11.65,26.17,1.08,11.98-3.46,23.83-9.57,34.19-13.77,23.33-32.68,43.65-43.81,68.54-9.47,21.18-18.24,36.85-25.41,56.3-4.68,12.71-23.01,47.65-26.25,66.22-11.3,64.81-30.52,30.75-52.78,12.94Z"/>
  <path class="cls-24" d="M1028.08,760.82c4.05-5.4-32.32-8.48-31.41-15.3,1.6-12.05,11.58-30.61,2.24-37.43-14.12-10.32-51.69-17.32-68.56-20.51-2.9-.55-5.78-1.09-8.64-1.68-36.63-7.49-66.15-10.12-107.22-27.25-5.78,6.47-5.62,6.75-10.65,13.78-3.97,5.56-10.05,10.99-12.86,17.24,22.82,18.87,51.16,36.35,76.02,53.03,31.44,21.08,52.65,35.81,88.77,39.88,14.02,1.58,53.9,2.76,72.3-21.75Z"/>
  <path class="cls-28" d="M603.93,275.54s-33.68-19.96-24.95-72.34c0,0,22.45-66.11,51.14-74.84l33.68,7.48-59.87,139.69Z"/>
  <path class="cls-28" d="M684.74,201.89c-17.11.12-34.46-3.92-48.03-14.76-8.06-6.43-14.59-14.94-17.79-24.81-2.22-6.87-4.59-5.55-4.29-12.7,0-6.65,9.63-14.76,13.95-17.33-1.83-1.2-3.44-2.69-4.23-4.82-1.37-3.71-.16-7.72,3.44-9.59,1.36-.7,2.93-.98,4.42-1.25,1.83-.33,3.65-.65,5.48-.98,3-.53,6-1.07,9-1.6-.28-.36-.55-.71-.82-1.07-1.16-1.55-2.24-3.23-2.54-5.18-.32-2.11.27-4.24,1.74-5.79,1.43-1.5,3.47-2.03,5.48-2.11,3.55-.14,6.92.7,10.29,1.78,1.46.47,2.91.97,4.37,1.41.19.06.35.09.52.14-1.42-2.93-2.17-6.1,1.4-7.74,3.9-1.8,8.98-1.25,12.99-.19,6.73,1.77,11.88,5.95,17.32,9.83-.62-1.68-1.25-3.36-1.88-5.03-1.23-3.23,2.27-6.19,5.21-4.21,6.54,4.41,11.92,10.37,15.81,17.2,1.38-4.97,3.93-9.23,9.87-8.04,7.38,1.48,10.89,9.79,11.61,16.49,1.37,12.79-2.65,27.28-12.21,36.26-2.88,5.85-6.63,11.17-11.36,15.71-6.08,5.84-13.75,8.61-20.38,13.57-4.96,3.71-7.68,9.08-9.37,14.82Z"/>
  <path class="cls-13" d="M805.58,416.48c41.4,44.78,86.45,90.05,108.81,146.41,2.23,5.55,4.26,11.13,6.07,16.82,6.27,19.53,10.33,40.25,3.7,51.9-25.23,44.13-71.5-3.47-94.66-34.76-1.1-1.48-2.18-2.86-3.28-4.33-22.48-28.93-52.73-54.28-74.98-82.81-23.93-30.64-49.81-73.12-34.96-112.99,7.89-20.95,30-20.81,46.08-11.83,12.11,6.69,33.89,21.5,43.24,31.6Z"/>
  <path class="cls-12" d="M813.25,412.53c44.95,40.87,78.7,93.81,101.13,150.36l-88.18,29.62c-22.48-28.93-52.73-54.28-74.98-82.81-23.93-30.64-53.81-80.76-38.97-120.62,2.98-8.01-2.83-23.36,1.86-29.62,7.33-9.77,34.75,7.5,41.68,11.4,20.84,11.74,39.99,25.79,57.45,41.67Z"/>
  <path class="cls-13" d="M357.69,785.65c-8.89,9.82-10.53,24.52-25.16,44.24-.68.91,36.33,20.42,47.31,22.73,1.33.28,29.23-34.92,34.79-45.66,9.45-18.26,2.09-32.21-14.64-36.74-14.8-15.95-41.27-6.25-42.3,15.44Z"/>
  <path class="cls-13" d="M716.22,356.71c-26.54,27.65-80.93,82.8-126.11,118.98-3.12,2.49,1.18-68.6,9.56-106.78,1.39-.62,2.77-1.18,4.16-1.73,41.99-15.8,80.52-19.33,112.39-10.46Z"/>
  <path class="cls-13" d="M609.34,378.09c.35,15.04,14,11.71,29.24,11.57l28.13-.14c5.41-.07,10.46-1.73,14.62-4.57,5.89-16.91,7.76-30.35,3.6-37.9-2.35-4.16-.83-9.42,3.4-11.71,1.8-1.04,3.19-1.18,4.43-.69l-.28-41.71-82.32.55-.42,42.68c3.26-2.63,8.11-2.63,11.29.35,3.46,3.26,3.74,8.73.49,12.27-4.5,4.85-8.52,15.24-12.2,29.31Z"/>
  <path class="cls-2" d="M406.02,904.44l-.93,30.3c6.57.67,13.15,1.26,19.73,1.82l.97-31.64c.8-45.72-12.49-80.09-36.46-94.3-14.06-8.34-30.43-8.39-44.88-.17-25.39,14.47-40.53,51.09-40.52,97.96,0,5.46,4.49,9.99,9.89,9.89,5.46,0,9.89-4.43,9.89-9.89-.01-46.72,15.76-72.35,30.53-80.77,8.35-4.73,16.99-4.75,25,0,17.43,10.34,27.44,39.1,26.78,76.82Z"/>
  <g>
    <path class="cls-13" d="M383.44,840.41c-.96,5.1-1.39,12.75-6.34,15.82-1.22.76-2.83,1.02-4.09.34-2.97-1.59-3.57-5.11-3.15-8.23.73-5.33,3.36-10.22,6.22-14.69,1.4-2.19,5.87-9.43,8.04-4,.36.91.36,1.91.31,2.88-.13,2.61-.49,5.25-.99,7.87Z"/>
    <path class="cls-13" d="M369.52,822.7c4.32.33,4.27,4.21,3.94,7.7-.48,5.12-1.27,10.21-2.2,15.27-.68,3.66-1.72,9.39-6.82,8.89-6.39-.62-5.69-7.75-4.61-12.42.85-3.68,2.36-7.18,3.65-10.72,3.23-8.95,6.04-8.72,6.04-8.72Z"/>
    <path class="cls-13" d="M362.08,829.63c-.67,7.12-.12,16.78-6.14,21.9-1.48,1.26-3.47,2.04-5.39,1.73-11.51-1.85,1.55-27.19,3.89-32,1.15-2.37,4.17-4.75,6.52-2.34,2.29,2.35,1.39,7.87,1.12,10.7Z"/>
    <path class="cls-13" d="M346.04,816.17c2.15,3.27,1.7,8.09,1.82,11.81.19,5.9,1.21,14.38-3.19,19.07-2.08,2.22-5.74,2.76-8.38,1.23-4.71-2.73-2.92-7.99-1.83-12.21,1.48-5.72,3.1-11.42,5.43-16.85.5-1.16,1.06-2.34,2.01-3.16,1.92-1.66,3.24-1.25,4.13.11Z"/>
  </g>
  <path class="cls-13" d="M321.6,818.57c-1.75,2.46-9.1,9.92-4.86,12.88,7.66,5.34,13.23-2.7,18.32-8.84,19.65-23.7,36.16-15.97,32.74-23.08-4.32-9,19.94-32.02,11.23-37.42-38.35,9.35-47.92,43.11-57.42,56.46Z"/>
  <path class="cls-15" d="M1043.65,821.6c1.03-.03,2.06-.05,3.08-.07,25.84-.46,51.69.74,77.34,3.57,12.59,1.39,32.79-2.21,36.29,9.9,12.16,42.04,6.22,82.3-4.7,123.71-21.79,82.62-48.99,170.44-105.47,236.52-9.25,10.82-10.65,21.93-25.68,22.79-30.39,1.74-34.45-10.85-38.11-37.05-14.09-100.94,4.03-238.74,38.38-333.77,8.76-24.22-20.5-14.43-3.13-21.82,6.9-2.94,14.49-3.58,22-3.8Z"/>
  <path class="cls-13" d="M1086.75,1420.49c2.86,9.3,7.45,18.79,10.44,29.52,2.32,8.04,18.25,2.88,18.69.69,1.36-6.12,7.87-25.21,10.77-34.03-13.14,2.04-28.47,5.96-39.9,3.82Z"/>
  <path class="cls-15" d="M990.57,1201.42l81.64,219.73,78.78.06s3.73-231.48-77.3-297.43l-71.84,42.61c-8.99,5.33-14.73,25.17-11.28,35.03Z"/>
  <g>
    <path class="cls-5" d="M1043.04,1470.87c.43.79,1.51,1.08,2.38,1.09,7.14.01,14.2-.04,21.33-.03,16-.04,31.93-.07,47.93-.11l2.52.08c.36-.94.65-1.8.94-2.59,1.31-3.53,1.96-6.19,2.11-8.79.15-4.18-1.14-7.71-3.86-12.91-3.03.43-5.77.49-8.07.27-7.93-.59-11.96-3.92-12.24-3.92-1.08.14-2.09.36-3.1.5-2.88.57-5.55,1.14-8.08,1.71-2.02.57-3.97,1.14-5.84,1.72-1.15.36-2.31.71-3.39,1.15-1.37.5-2.74,1.08-4.11,1.72-1.95.79-3.97,1.72-6.06,2.73-.29.14-.72.36-1.23.57-1.44.72-3.61,1.79-6.06,3.09-6.35,3.45-14.43,8.33-15.31,12-.22.65-.15,1.23.14,1.73Z"/>
    <path class="cls-8" d="M1043.04,1470.87c.43.79,1.51,1.08,2.38,1.09,7.14.01,14.2-.04,21.33-.03,16-.04,31.93-.07,47.93-.11l2.52.08c.36-.94.65-1.8.94-2.59-17.08-.18-59.6-.2-75.25-.17-.22.65-.15,1.23.14,1.73Z"/>
  </g>
  <path class="cls-15" d="M1161.24,821.29c5.23-.53,10.57-.27,15.85,0,27.67,1.42,55.28,2.98,82.9,4.96,3.25.23,6.94.7,8.81,3.37,1.4,2,1.33,4.64,1.19,7.08-3.67,64.77-13.5,129.2-29.25,192.14-14.92,59.58-32.26,118.84-72.92,166.41-9.25,10.82-10.65,21.93-25.68,22.79-30.39,1.74-45.49-17.91-49.14-44.11-13.18-94.47-.49-190.82,26.82-281.71,5.87-19.52,11.43-63.31,34.49-69.66,2.28-.63,4.59-1.02,6.93-1.26Z"/>
  <path class="cls-13" d="M1267.11,1414.97c5.41,8.08,12.54,15.86,18.48,25.27,4.53,7.04,18.31-2.49,18.1-4.71-.45-6.25.29-26.41.54-35.69-12,5.74-25.56,13.9-37.12,15.13Z"/>
  <path class="cls-15" d="M1090.82,1213.69l162.54,206.1,75.47-22.59s-62.97-222.78-159.53-262.66l-78.48,79.15Z"/>
  <g>
    <path class="cls-5" d="M1239.72,1475.79c.64.64,1.76.6,2.59.36,6.84-2.04,13.59-4.12,20.43-6.16,15.32-4.63,30.56-9.25,45.88-13.88l2.44-.65c.08-1,.11-1.91.16-2.75.24-3.76.1-6.5-.51-9.02-1.06-4.05-3.31-7.06-7.41-11.25-2.78,1.28-5.38,2.13-7.65,2.58-7.76,1.71-12.58-.32-12.85-.23-.99.45-1.9.94-2.83,1.37-2.6,1.37-4.99,2.69-7.24,3.96-1.77,1.13-3.47,2.24-5.1,3.32-1,.68-2,1.35-2.92,2.07-1.17.87-2.32,1.82-3.44,2.83-1.64,1.32-3.31,2.79-5.02,4.35-.23.22-.59.55-1.01.9-1.18,1.1-2.94,2.75-4.92,4.7-5.09,5.13-11.43,12.13-11.21,15.9-.02.68.21,1.22.63,1.62Z"/>
    <path class="cls-8" d="M1239.72,1475.79c.64.64,1.76.6,2.59.36,6.84-2.04,13.59-4.12,20.43-6.16,15.32-4.63,30.56-9.25,45.88-13.88l2.44-.65c.08-1,.11-1.91.16-2.75-16.41,4.74-57.15,16.94-72.12,21.47-.02.68.21,1.22.63,1.62Z"/>
  </g>
  <path class="cls-24" d="M1001.68,847.37c52.71,14.47,124.44,14.99,179,12.88,8.85-.27,99.81-1.06,100.47-9.05,3.9-48.81-.07-97.36-5.68-145.85-5.02-42.67-11.36-85.27-14.8-127.88-2.77-35.01-9.97-70.74-38.58-90.23-7.13-4.89-14.93-8.46-23.12-11.16-.59-.26-1.12-.33-1.72-.59-4.29-1.26-8.19-2.25-12.15-3.04-3.9-.79-7.73-1.45-11.63-1.92-15.13-1.65-30.12-3.5-45.18-3.57-10.7-.07-22-.53-33.22-.13-.93,0-1.85,0-2.77.07-3.9.2-7.79.53-11.62.99-7.6.99-14.93,2.64-22,5.42-22.99,9.18-38.18,31.38-44.39,54.63-3.57,13.41-4.69,27.41-5.02,41.15-1.06,51.19-3.1,102.38-6.21,153.44-.79,12.95-16.51,120.61-1.39,124.84Z"/>
  <path class="cls-13" d="M1115.49,474.18l-12.62-54.77,61.03-23.78,12.39,77.96c.59,12-5.88,22.93-15.55,26.01-9.6,3.05-22.13,4.34-33.96-2.65-7.17-4.23-11.6-13.17-11.29-22.77Z"/>
  <path class="cls-24" d="M1160.14,525.83c.33,12.02,6.21,23.25,13.47,32.83,14.99,19.68,32.56,36.99,47.16,57.14,15.39,21.2,27.41,43.99,40.49,66.58,4.43,7.6,9.45,15.26,14.2,22.99,6.21,10.24,11.96,20.67,15.26,31.9,18.76,63.08,33.89,27.02,53.9,6.74,14.66-14.93,28.31-20.62,23.38-40.82-7.93-32.5-21.4-64.6-32.7-85.6-13.21-24.51-23.73-44.12-39.24-67.18-22-32.7-50.99-64.67-93-74.24-2.05-.53-4.03-.73-5.88-.73-13.8,0-20.87,11.56-28.53,23.05-2.31,3.57-4.29,7.33-5.75,11.36-1.92,5.09-2.91,10.5-2.77,15.99Z"/>
  <path class="cls-13" d="M1215.1,969.2s-4.66,2.67-11.1,7.5c-3.22,2.31-6.58,4.97-9.66,7.56-6.99,5.84-9.66,8.54-6.17,12,.46.45,1.36.46,1.94.45,3.51-.09,6.78-2.11,9.88-3.55,3.22-1.49,6.32-3.25,9.25-5.25,2.77-1.88,5.2-4.16,7.66-6.41.44-.42,5.51-5.46,5.25-5.71l-7.06-6.59Z"/>
  <path class="cls-13" d="M1217.19,973.28l-5.02-9.35s-6.69,3.23-15.68,8.32c-4.71,2.66-9.69,5.56-13.91,8.39-7.85,5.23-9.66,8.61-5.82,11.15,0,0,2.34,1.42,10.63-1.65,4.66-1.27,9.99-3.2,15.37-6.16.6-.33,1.28-.76,1.93-1.15,4.22-2.56,9-6.13,12.5-9.55Z"/>
  <path class="cls-13" d="M1220,922.48c-3.44,7.07-6.11,13.65-9.75,20.37-3.57,6.59-9.95,12.01-15.42,16.97-.64.58,8.13,24.75,16.41,26.63.56.13,25.77-19.05,31.14-26.27,3.69-4.96,9.74-11.79,12.67-17.23,2.38-4.42,3.27-9.91,3.11-14.98-.08-2.52-.69-5.02-2.34-6.99-1.84-2.19-4.7-2.9-7.12-4.2-3-1.61-5.74-3.74-8.97-4.91-5.69-2.06-8.74-3.08-13.46.63-1.55,1.22-4.46,6.27-6.26,9.98Z"/>
  <path class="cls-13" d="M1212.95,916.24c-8.1,3.66-14.09,8.86-22.81,10.82-2.22.5-10.14.99-9.24,4.79,1.62,6.87,7.7,7.42,13.69,6.77,3.74-.4,7.57-.92,11.31-.32,3.19.51,5.78,2.06,8.75,3.28,1.31.54,16.13,6.71,16.31,6.65.5-.14-1.38-9.93-1.24-10.43,2.11-7.25,3.01-20.55.83-27.99-4.77-.05-13.64,4.63-17.6,6.42Z"/>
  <path class="cls-13" d="M1205.26,956.11s-8.78,2.76-17.36,7.35c-4.51,2.26-8.64,4.79-12.38,6.93-8.43,4.71-10.47,8.85-7.16,10.95,0,0,2.3,1.5,10.84-1.09,3.81-.86,8.07-2.09,12.53-4,.36-.15.72-.39,1.08-.55.16-.06.32-.05.47-.12.2-.1.32-.27.51-.38,4.43-2.06,8.91-4.7,13.16-8.34l-1.68-10.75Z"/>
  <path class="cls-24" d="M1279.86,786.67c-.73,2.85-1.47,5.7-2.24,8.51-11.29,41.3-28.67,68.02-46.7,114.98-2.51,6.54,17.62,19.71,18.8,20.44,9.35,5.84,11.63,2.24,18.84-5.04,22.38-22.62,41.28-48.46,59.03-74.95,20.17-30.08,39.12-71.97,45.53-107.75,2.49-13.89-3.65-37.35-8.29-50.38-2.26-6.36-31.71,7.53-36.86,11.49-9.63,7.41-19.09,16.1-26.5,24.98-11.21,13.42-17.34,41.09-21.62,57.72Z"/>
  <path class="cls-13" d="M1095.09,467.11c1.25,10.52,2.93,21.53,9.3,30.01,4.45,5.91,10.89,10.1,17.77,12.82,24.05,9.52,52.9.66,67.59-20.94,1.53-2.26,7.7-10.65,6.52-13.47-1.19-2.86-16.23-3.66-19.36-4.15-27.03-4.24-54.5-5.68-81.82-4.27Z"/>
  <path class="cls-13" d="M650.52,691.6c-2.65-1.43-10.96-7.82-13.38-3.24-4.36,8.26,1.23,14.08,7.77,18.64,23.33,16.28,18.92,33.49,25.56,29.23,8.4-5.4,23.88-11.33,28.17-20.64-16.93-15.07-33.71-16.2-48.13-23.99Z"/>
  <path class="cls-13" d="M705.6,760.68c3.52-2,7.71-2.93,11.72-3.82,65.56-14.61,145.16-42.66,188.83-96.7,4.4-5.45,20.93-30.48,21.33-39.37.4-8.79-29.2-4.86-36.37-9.24-5-3.06-31.42-23.77-35.96-18.22-30.49,37.2-68.8,67.14-107.9,94.74-16.89,11.93-40.01,22.44-54.59,36.83-5.65,5.58-5.8,12.51-3.51,19.86,1.97,6.3,9.33,13.04,13.37,18.13.95-.87,1.98-1.6,3.08-2.22Z"/>
  <g>
    <path class="cls-13" d="M604.34,766.58l5.74,10.96c4.61-1.13,9.42-2.6,13.9-4.14l-7.48-12.56c-4.68,1.6-8.75,3.67-12.16,5.74Z"/>
    <path class="cls-13" d="M610.08,777.54l-5.74-10.96c-19.2,8.89-11.47,15.28,5.74,10.96Z"/>
    <path class="cls-13" d="M623.98,773.4c9.09-2.94,10.98-4.14,10.98-4.14l-1.42-11.7c-6.28.13-11.96,1.4-17.04,3.27l7.48,12.56Z"/>
    <path class="cls-13" d="M611.21,776.4c-5.52,5.51-13.94-2.9-8.41-8.42,5.52-5.51,13.94,2.9,8.41,8.42Z"/>
    <path class="cls-13" d="M627.83,767.36c-.38,9.46-14.7,8.9-14.31-.58.38-9.46,14.7-8.9,14.31.58Z"/>
  </g>
  <g>
    <path class="cls-13" d="M606.79,743.56c.6,4.87,1.73,13.08,2.24,16.21,10.63.59,19.54.61,19.54.61l1.11-12.91c-6.33-2.28-17.05-3.66-22.89-3.91Z"/>
    <g>
      <path class="cls-13" d="M590.68,745.06c.57,3.77,1.6,10.03,2.19,13.46,5.28.6,10.93,1.07,16.17,1.25-.51-3.13-1.64-11.34-2.24-16.21-6-.14-11.42.46-16.11,1.51Z"/>
      <path class="cls-13" d="M577.29,749.84c-1.32,6.36,3.61,7.37,15.58,8.68-.58-3.42-1.61-9.69-2.19-13.46-12.71,1.06-13.39,4.78-13.39,4.78Z"/>
      <path class="cls-13" d="M616.52,753.58c-2.81,10.31-18.41,6.08-15.6-4.25,2.81-10.31,18.41-6.08,15.6,4.25Z"/>
      <path class="cls-13" d="M599.07,753.39c-2.33,8.58-15.31,5.06-12.97-3.53,2.33-8.58,15.31-5.06,12.97,3.53Z"/>
    </g>
  </g>
  <g>
    <path class="cls-13" d="M587,733.67c0,4.94,0,11.16.15,14.07,6.68.75,14.29,1.12,21.43,1.36.06-3.97.16-12.34.21-17.58-8.12-.19-15.55.79-21.79,2.15Z"/>
    <path class="cls-13" d="M573.53,738.21c-2.96,5.32,1.23,8.18,13.62,9.53-.15-2.92-.15-9.13-.15-14.07-11.59,1.45-13.48,4.54-13.48,4.54Z"/>
    <path class="cls-13" d="M608.58,749.1c13.65.49,23.47.2,23.47.2l.55-14.7c-7.24-2.19-17.14-2.96-23.81-3.08-.05,5.24-.15,13.61-.21,17.58Z"/>
    <path class="cls-13" d="M594.78,738.68c2.63,8.83-10.73,12.82-13.36,3.97-2.63-8.83,10.73-12.82,13.36-3.97Z"/>
    <path class="cls-13" d="M619.13,737.76c3.23,10.85-13.18,15.75-16.42,4.88-3.23-10.85,13.18-15.75,16.42-4.88Z"/>
  </g>
  <g>
    <path class="cls-13" d="M595.01,726.22c1.06-4.35,2.4-9.81,3.33-13.51,5.9.48,12.56.76,18.78,1.71l-5.45,16.77c-6.29-1.23-11.86-3.07-16.66-4.97Z"/>
    <path class="cls-13" d="M598.33,712.71c-.93,3.7-2.27,9.16-3.33,13.51-21.12-6.63-15.02-15.14,3.33-13.51Z"/>
    <path class="cls-13" d="M617.02,714.37c12.8,1.38,24.44,4.9,24.44,4.9l-6.18,12.99c-8.49.92-16.48.38-23.62-1.09l5.35-16.81Z"/>
    <path class="cls-13" d="M595.77,726c8.78,1.36,10.85-11.93,2.06-13.29-8.78-1.36-10.85,11.93-2.06,13.29Z"/>
    <path class="cls-13" d="M623.83,724.31c1.77-11.42-15.5-14.11-17.27-2.67-1.77,11.42,15.5,14.11,17.27,2.67Z"/>
  </g>
  <path class="cls-13" d="M673.08,714.58c-13.03-2.36-26.38,4.03-50.85,2.04-1.13-.09,4.13,44.31,7.98,54.85.47,1.27,42.84,3.67,54.9,2.71,20.5-1.63,28.44-15.25,23.44-31.85,5.71-21-16.52-38.33-35.47-27.74Z"/>
  <path class="cls-9" d="M773.86,218.74c5.17,8.77-.59,21.75-12.87,28.99-12.28,7.24-26.43,6-31.6-2.77-5.17-8.77.59-21.75,12.87-28.99,12.28-7.24,26.43-6,31.6,2.77Z"/>
  <path class="cls-13" d="M604.8,183.42c-10.04,24.71-19.89,51.71-12.53,77.85,6.87,24.39,25.6,44.3,47.62,56.08,6.67,3.57,13.71,6.43,21,8.47,32.18,8.98,62.47-2.76,80.77-30.77,5.33-8.16,9.62-17.02,12.49-26.32.97-3.17,1.78-6.35,2.38-9.56,1.75-9.1,2.15-18.46.81-27.63-1.77-12.38-5.2-23.67-4.83-36.4.54-18.07-1.72-37.97-11.52-53.8-23.37-37.75-85.51-34.7-113.06-3.64-8.28,9.34-13.22,21.23-17.82,32.67-1.71,4.27-3.52,8.62-5.32,13.05Z"/>
  <path class="cls-28" d="M691.09,214.01c-9.05-6.83-27.4-5.87-33.27,4.92,6.37-2.03,8.74-2.51,11.11-2.89,4.85-.78,9.7-.79,14.58-.36,1.49.13,9.59,2.05,7.57-1.66Z"/>
  <path class="cls-28" d="M757.2,231.4c-3.64-2.31-5.39-3.16-7.17-3.94-4.51-1.99-9.2-3.21-14.01-4.03-1.51-.25-9.82-.41-6.93-3.5,7.85-3.3,19.7-.95,26.35,5.46.54,2.09,1.15,4.06,1.76,6.02Z"/>
  <path class="cls-13" d="M613.39,223.2c-7.09,7.31-21.13,5.18-31.36-4.75-10.23-9.93-12.77-23.9-5.67-31.21,7.09-7.3,21.13-5.18,31.36,4.75,10.23,9.93,12.77,23.9,5.67,31.21Z"/>
  <path class="cls-14" d="M723.59,268.57c-3.4,10.74,2.66,22.25,13.34,25.62,1.57.44,3.15.72,4.72.85,5.33-8.16,9.62-17.02,12.49-26.32.97-3.17,1.78-6.35,2.38-9.56-2.04-1.78-4.48-3.23-7.32-4.1-10.74-3.4-22.25,2.66-25.63,13.5Z"/>
  <path class="cls-14" d="M669.51,265.48c-3.38,10.79-14.88,16.8-25.67,13.42-10.79-3.38-16.8-14.88-13.42-25.67,3.38-10.79,14.88-16.8,25.67-13.42,10.79,3.38,16.8,14.88,13.42,25.67Z"/>
  <path class="cls-8" d="M679.52,273.81c-.05.68-.3,3.68-.04,7.34.04.81.15,1.65.25,2.49,1.25,9.36,6.6,20.73,26.64,10.24,2.42-1.31,5.18-2.98,8.14-5.03,0,0-15.03-2.85-31.17-12.94-1.16-.62-2.26-1.35-3.36-2.09q-.37-.04-.47,0Z"/>
  <path d="M687.7,241.06c-2.91-3.24-5.66-6.34-8.58-6.58-1.43-.21-3.04.34-4.87,1.09l-5.68,3.18c.41-1.1,1.04-2.06,1.59-3.13.72-.92,1.52-1.81,2.37-2.7,1.82-1.64,4.45-2.91,7.31-2.64,2.83.37,4.99,2.18,6.13,4.2,1.19,2.02,1.86,4.22,1.74,6.56Z"/>
  <path d="M746.32,247.58c-2.91-3.24-5.66-6.34-8.58-6.58-1.43-.21-3.04.34-4.87,1.09l-5.68,3.19c.41-1.1,1.04-2.06,1.59-3.14.72-.92,1.52-1.81,2.37-2.7,1.82-1.64,4.45-2.91,7.31-2.64,2.83.37,4.99,2.18,6.13,4.2,1.19,2.02,1.86,4.22,1.74,6.56Z"/>
  <path class="cls-25" d="M679.49,273.87c-.01.62-.27,3.62,0,7.28.33.41.69.92,1.09,1.36,1.96,2.21,4.38,3.88,6.83,5.17,2.51,1.33,5.19,2.04,7.78,2.62,2.68.56,5.31.77,7.95.83-2.56-.65-5.05-1.41-7.38-2.49-2.33-1.08-4.6-2.27-6.42-3.86-1.92-1.56-3.46-3.39-4.59-5.4-.63-1.04-1.12-2.32-1.38-3.47-1.16-.62-2.26-1.35-3.36-2.09-.25.03-.5.05-.5.05Z"/>
  <path class="cls-18" d="M694.67,256.24c.83,1.91,2.12,3.65,3.87,4.95,1.66,1.43,3.87,2.18,6.07,2.48,2.22.22,4.49-.08,6.45-.99,1.96-.88,3.75-2.11,4.96-3.86-4.01,1.11-7.58,1.85-11.04,1.41-3.48-.29-6.66-1.92-10.32-3.99Z"/>
  <path class="cls-28" d="M595.93,197.34c6.87-35.61,27.97-67.95,62.84-81.67,17.38-6.84,35.13-10.18,53.03-3.69,11.55,4.19,22.08,10.65,32.07,17.71,8.26,5.84,18.91,11.76,23.16,21.39,3.47,7.87,2.52,15.59.55,23.6,6.12,2.6,14.9,8.26,14.32,15.97-1.08,14.31-22.86,14.02-32.3,12-26.52-5.68-51.48-17.52-72.77-34.2-1.2-.07-2.4-.15-3.6-.27-3,5.43-6.91,10.35-11.69,14.35-6.23,5.22-13.82,8.81-21.8,10.59,1.88,5.69.57,12.56-1.06,18.07-1.47,4.97-4.76,7.89-9.82,8.94-.57.17-1.16.25-1.8.24-.59.08-1.18.2-1.78.24-3.55,11.48-13,18.09-23.11,17.93-11.5-.19-9.87-22.38-6.24-41.2Z"/>
  <path class="cls-10" d="M1275.66,707.76c-.73,0-1.46-.31-1.98-.91-8.55-9.98-17.15-19.91-25.75-29.84-8.42-9.71-16.83-19.43-25.21-29.2-16.67-19.45-32.1-40.71-32.1-64.33,0-1.43,1.16-2.6,2.6-2.6s2.6,1.16,2.6,2.6c0,21.93,14.83,42.25,30.86,60.95,8.36,9.76,16.78,19.47,25.19,29.18,8.61,9.94,17.21,19.87,25.77,29.86.93,1.09.81,2.73-.28,3.66-.49.42-1.09.63-1.69.63Z"/>
  <path class="cls-7" d="M1143.3,1278.85c-.68,0-1.35-.26-1.86-.78-3.52-3.62-86.26-88.98-91.08-122.72l21.24-203.72c-6.29-5.16-34.93-30.96-28.36-68.18.25-1.41,1.58-2.37,3.01-2.11,1.41.25,2.35,1.6,2.1,3.01-6.77,38.39,27.17,63.78,27.51,64.04.74.54,1.14,1.44,1.05,2.36l-21.4,204.5c4.57,31.44,88.8,118.32,89.64,119.19,1,1.03.98,2.68-.05,3.67-.51.49-1.16.74-1.81.74Z"/>
  <path class="cls-4" d="M529.73,603.1c-1.71-.17-2.74-1.45-2.59-2.88.61-5.59,15.12-137.28,26.31-170.83.46-1.36,1.91-2.08,3.29-1.64,1.36.46,2.1,1.93,1.64,3.29-11.01,33.03-25.92,168.39-26.08,169.76-.14,1.33-1.27,2.31-2.58,2.31Z"/>
  <g>
    <path class="cls-13" d="M681.33,384.95c7.07-4.78,11.64-12.89,11.57-21.97l-.14-28.34c-1.25-.49-2.63-.35-4.43.69-4.23,2.29-5.75,7.55-3.4,11.71,4.16,7.55,2.29,21-3.6,37.9Z"/>
    <path class="cls-24" d="M581.09,569.53c.76.75,1.68,1.32,2.74,1.62,5.05,1.46,9.56-3.34,12.63-7.61,29.27-40.76,56.95-82.83,79.39-127.72,9.84-19.67,18.71-40.03,23.14-61.57,2.5-12.15,4.52-30.57-6.1-39.59-.34,27.25-11.14,53.22-23.13,77.7-23.79,48.56-52.92,94.41-85.38,137.66-2.51,3.34-5.12,6.85-5.81,10.97-.51,3.03.4,6.48,2.52,8.55Z"/>
  </g>
  <g>
    <path class="cls-13" d="M609.34,377.82c3.67-13.79,7.69-24.18,12.2-29.03,3.26-3.53,2.98-9.01-.49-12.27-3.19-2.98-8.04-2.98-11.29-.35l-.42,41.65Z"/>
    <path class="cls-24" d="M570.33,568.3c-.21,4.78,3.53,8.8,8.32,9.01,4.99,0,8.8-3.67,9.01-8.31,2.22-56.89,9.63-144.13,21.69-190.9,0-.28.42-41.92.42-41.92-.35.21-.69.49-.97.83-30,32.64-37.7,211.07-38.46,231.3Z"/>
  </g>
  <rect class="cls-29" x="541.38" y="574.99" width="88.29" height="57.49" transform="translate(1153.03 1224.44) rotate(-178.31)"/>
  <path class="cls-1" d="M564.54,575.03c1.13,9.58,10.51,16.34,20.94,15.11,10.43-1.23,17.97-10,16.84-19.58-1.13-9.58-10.51-16.34-20.94-15.11-10.43,1.24-17.97,10-16.84,19.58Z"/>
  <g>
    <path class="cls-13" d="M824.23,636.25c-8.68-1.25-17.01.11-25.72-1.34-2.22-.37-9.63-2.86-10.23.95-1.07,6.88,4.28,9.64,10,11.27,3.57,1.02,7.26,1.97,10.46,3.91,2.73,1.65,5.01,3.87,7.27,6.09,1,.98,4.74,5.8,6.23,5.41.5-.13.85-.56,1.17-.96,4.62-5.85,13.83-14.05,14.6-21.66-4.34-1.82-10.41-3.18-13.78-3.67Z"/>
    <g>
      <path class="cls-13" d="M768.41,685.43c-4.06-3.23-10.62-7.19-11.02-12.99-.1-1.43.42-2.98,1.61-3.78,2.8-1.88,6.19-.77,8.74,1.06,4.37,3.13,7.47,7.75,10.08,12.36,1.28,2.26,5.59,9.6-.22,8.97-.97-.1-1.86-.57-2.7-1.07-2.25-1.34-4.41-2.89-6.5-4.55Z"/>
      <path class="cls-13" d="M790.57,681.4c-2.31,3.67-5.72,1.81-8.65-.11-4.31-2.82-8.44-5.9-12.47-9.09-2.92-2.31-7.49-5.91-4.67-10.18,3.53-5.35,9.51-1.41,13.13,1.73,2.86,2.48,5.24,5.44,7.78,8.23,6.4,7.04,4.89,9.42,4.89,9.42Z"/>
      <path class="cls-13" d="M787.91,671.59c-5.98-3.92-14.78-7.95-16.49-15.67-.42-1.9-.18-4.02.99-5.58,7.01-9.31,23.31,14.08,26.47,18.39,1.56,2.13,2.25,5.91-.98,6.86-3.15.93-7.61-2.45-9.99-4.01Z"/>
      <path class="cls-13" d="M807.31,663.69c-3.9.37-7.94-2.28-11.29-3.91-5.3-2.58-13.28-5.65-15.37-11.73-.99-2.88.24-6.37,2.83-7.98,4.61-2.88,8.42,1.15,11.65,4.09,4.36,3.98,8.65,8.07,12.36,12.68.79.98,1.57,2.03,1.86,3.26.57,2.47-.41,3.45-2.03,3.6Z"/>
    </g>
  </g>
  <path class="cls-14" d="M814.31,635.58l-13.64,12.64.04-1.12c2.41,2.27,4.6,4.71,6.63,7.36,1.01,1.33,1.97,2.71,2.74,4.29.62,1.49,1.76,3.57.17,5.93-1.86,2.11-3.9,1.53-5.62,1.47-1.76-.24-3.37-.77-4.92-1.39-3.08-1.27-5.92-2.9-8.69-4.6l2.05-2.23c1.81,2.39,3.48,4.8,4.98,7.43.75,1.31,1.45,2.66,2,4.18.35,1.46,1.47,3.33-.36,5.88-2.11,1.86-3.95,1.39-5.67,1.26-1.69-.29-3.18-.89-4.61-1.55-2.81-1.39-5.31-3.14-7.71-4.97l2.2-2.48c1.81,1.93,3.5,3.87,5.1,5.99.8,1.05,1.56,2.15,2.24,3.38.34.61.66,1.27.91,2.06.18.75.57,1.9-.4,3.29l.34-.73c-.32,1.46-1.33,2.41-2.52,2.85-1.15.38-2.28.33-3.17.09-1.84-.45-3.38-1.22-4.78-2.11-2.84-1.75-5.26-3.91-7.65-6.05l1.97-1.57c1.18,2.32,2.26,4.63,3.2,7.06.47,1.21.9,2.44,1.23,3.75.17,1.32.95,2.62-.32,4.6-2.18,2.26-4.72.91-6.5.23-1.89-.9-3.57-2.05-5.13-3.33-3.15-2.52-5.93-5.4-8.57-8.37,2.96,2.67,5.95,5.3,9.19,7.54,1.61,1.13,3.32,2.11,5.08,2.79,1.64.72,3.94.84,4.47.02.32-.42.21-1.9-.17-2.96-.34-1.15-.8-2.3-1.31-3.43-1-2.27-2.18-4.51-3.4-6.67-.35-.61-.13-1.39.48-1.74.47-.27,1.05-.2,1.44.12,2.45,2.03,4.93,3.94,7.51,5.48,1.27.8,2.64,1.39,3.88,1.68,1.34.31,1.96-.15,2.04-.52l.16-.78c.03.59-.03-.91-.72-1.78-.57-1-1.28-2-2.04-2.97-1.51-1.94-3.21-3.84-4.93-5.61-.64-.66-.62-1.71.04-2.35.59-.57,1.52-.61,2.16-.13,2.3,1.71,4.69,3.31,7.17,4.49,1.23.57,2.49,1.1,3.71,1.32.59.08,1.2.16,1.69.08.44.01,1.06-.36.91-.22.17,0,.26-1.41-.25-2.58-.41-1.22-1.03-2.48-1.71-3.7-1.34-2.45-2.95-4.86-4.62-7.12-.52-.67-.39-1.64.29-2.15.52-.4,1.24-.39,1.76-.08,2.64,1.69,5.35,3.28,8.15,4.49,1.39.62,2.82,1.15,4.22,1.4,1.29.37,3.02,0,3.17-.21.62-.66.42-2.21-.21-3.55-.59-1.38-1.43-2.73-2.33-4.04-1.79-2.63-3.92-5.09-6.05-7.48-.32-.36-.29-.82.01-1.09.03-.03,14.66-11.5,14.66-11.5Z"/>
  <path class="cls-16" d="M1024.87,305.86c-4.05,5.95-7.51,18.45-8.74,24.84-2.72,14.19.69,43.18,14.31,48.1l110.37,22.95c5.69,2.05,11.95,2.48,17.78.68,13.37-4.1,33.94-17.16,29.32-59.01-.13-.99-.4-2.16-.82-3.47-2-6.7-7.54-16.75-13.33-24.52-3.77-5.05-7.63-9.16-10.7-10.82-15.41-8.35-38.85-5.33-108.55-19.27-16.66-3.36-12.94-4.02-29.65,20.52Z"/>
  <path class="cls-21" d="M1004.36,339.93c-6.61,7.26-3.74,20.65,6.42,29.91,10.16,9.26,23.76,10.88,30.37,3.62,6.61-7.26,3.74-20.65-6.42-29.91-10.16-9.26-23.76-10.88-30.37-3.62Z"/>
  <path class="cls-13" d="M1015.64,393.48c1.46,5.8,3.56,11.38,6.29,16.46,10.32,18.96,28.15,31.32,46.68,37.08,31.32,9.78,68.01.1,86.44-29.98,16.13-26.37,16.97-65.5,12.26-96.96-5.15-34.46-24.83-54.21-53.55-60.97-18.91-4.39-39.42-4.61-56.06,5.93-16.57,10.45-27.72,31.59-28.29,53.76-.13,4.76.2,9.63-.54,14.23-.28,1.66-.64,3.33-1.3,4.88-1.56,3.79-3.88,6.62-5.89,9.63-1.42,2.22-2.66,4.64-3.76,7.12-4.87,11.69-5.35,25.76-2.29,38.82Z"/>
  <path class="cls-18" d="M1067.14,379.39c-3.7.23-6.88.41-9.37-.56-1.16-.39-2.18-1.2-3.01-2.15-.78-.98-1.31-2.19-1.03-3.75-1.61,1-2.01,3.06-1.42,4.69.53,1.69,2,3.12,4,3.89,3.95,1.35,8.27.14,10.83-2.12Z"/>
  <path class="cls-16" d="M1091.43,339.76c9.99-4.45,27.02.44,30.19,11.85-5.54-3.29-7.67-4.26-9.81-5.13-4.38-1.79-8.94-2.86-13.62-3.51-1.43-.2-9.45-.16-6.76-3.21Z"/>
  <path class="cls-16" d="M1027.45,338.14c2.08-.72,3.38-1.07,4.69-1.42,4.64-1.12,9.28-1.5,14.03-1.52,1.41,0,9.33,1.24,7.14-2.18-6.49-4.12-17.03-4.12-24.42.01-.28,1.66-.64,3.33-1.3,4.88-.07.08-.06.15-.13.24Z"/>
  <path class="cls-14" d="M1099.09,388.35c1.06,10.86,10.72,18.8,21.58,17.73,10.86-1.06,18.8-10.72,17.73-21.58-1.06-10.86-10.72-18.8-21.58-17.73-10.86,1.06-18.8,10.72-17.73,21.58Z"/>
  <path class="cls-14" d="M1015.64,393.47c1.98.48,4.14.63,6.28.43,10.88-1.06,18.85-10.68,17.78-21.56-1.07-10.88-10.74-18.77-21.63-17.7-5.02,11.7-5.49,25.78-2.44,38.84Z"/>
  <path d="M1043.39,351.12c-1.24,4.32-.63,8.3,1.37,8.87,2,.58,4.63-2.46,5.87-6.79,1.24-4.32.63-8.29-1.37-8.87-2-.58-4.63,2.46-5.87,6.79Z"/>
  <path d="M1097.66,361.4c.68,4.45,2.9,7.8,4.96,7.48,2.06-.32,3.17-4.18,2.49-8.62-.68-4.45-2.9-7.8-4.96-7.48-2.06.32-3.17,4.18-2.49,8.62Z"/>
  <path class="cls-16" d="M1165.74,393.74s-123.7,5.02-151.69-21.44c0,0-20.35,47.9,34.13,90.71,8.32,6.54,30.54,7.71,38.05,8.32,24.01,1.96,68.04-12.21,79.51-77.6Z"/>
  <path class="cls-17" d="M1054.09,405.6c2.14,2.18,4.17,3.98,6,5.48,15.03,11.95,21.29,3.32,23.84-4.32,1.42-4.2,1.71-8.13,1.71-8.13-16.2-5.78-31.54,6.98-31.54,6.98Z"/>
  <path class="cls-20" d="M1060.09,411.08c15.03,11.95,21.29,3.32,23.84-4.32-6.67-3.07-16.54-5.11-23.84,4.32Z"/>
  <path class="cls-8" d="M1054.09,405.6c13.58,2.72,25.27-3.13,31.23-7.09-15.89-5.66-31.23,7.09-31.23,7.09Z"/>
  <path class="cls-16" d="M1150.26,341.47c1.67,5.75,6.45,7.47,10.08,7.69,3.07.17,6.52,1.26,8.73-3.2,1.62,3.53,4,4.34,7.1,3.28,2.68-.93,3.89-4.5,4.39-8.44.88,1.23,1.95,2.09,3.16,2.02,1.26-.06,2.51-1.17,3.38-2.86-2-6.7-7.54-16.75-13.33-24.52-.3.06-1.95-2.45-2.12-2.71-11.57-17.08-8.74-11.17-13.36-3.89-2.67,4.21-10.14,25.29-8.03,32.64Z"/>
  <path class="cls-13" d="M1156.54,374.2c5.25,8.3,18.93,9.06,30.54,1.71,11.61-7.35,16.77-20.04,11.52-28.34-5.25-8.3-18.93-9.06-30.54-1.71-11.61,7.35-16.77,20.04-11.52,28.34Z"/>
  <path class="cls-10" d="M1252.68,859.75c-.3,0-.62-.05-.92-.17-1.34-.51-2.02-2.01-1.51-3.35l29.73-78.47c.51-1.34,2.01-2.02,3.35-1.51,1.34.51,2.02,2.01,1.51,3.35l-29.73,78.47c-.39,1.04-1.38,1.68-2.43,1.68Z"/>
  <path class="cls-5" d="M983.73,288.42c.02.71.11,1.42.24,2.12.2.86.4,1.72.66,2.58.26.86.66,1.72,1.06,2.64.4.86.92,1.72,1.45,2.64,13.47-15.65,66.38-16.38,125.7-.53,52.25,13.87,93.86,36.4,105.75,55.48.46-.53.92-1.06,1.26-1.65.33-.4.59-.79.79-1.26.13-.26.2-.46.33-.73.26-.53.46-1.12.59-1.72,5.55-20.74-43.13-51.72-108.72-69.16-65.52-17.5-123.19-14.8-128.67,5.88-.13.53-.2,1.06-.33,1.65-.1.66-.13,1.34-.11,2.04Z"/>
  <path class="cls-5" d="M983.97,290.54c.2.86.4,1.72.66,2.58.26.86.66,1.72,1.06,2.64.4.86.92,1.72,1.45,2.64,13.47-15.65,66.38-16.38,125.7-.53,52.25,13.87,93.86,36.4,105.75,55.48.46-.53.92-1.06,1.26-1.65.33-.4.59-.79.79-1.26.13-.26.2-.46.33-.73.26-.53.46-1.12.59-1.72,5.55-20.74-43.13-51.72-108.72-69.16-65.52-17.5-123.19-14.8-128.67,5.88-.13.53-.2,1.06-.33,1.65-.2,1.32-.13,2.77.13,4.16Z"/>
  <path class="cls-5" d="M1184.91,310.82l-3.3-29.72c-.66-5.9-4.37-11.02-9.77-13.48l-82.64-37.56c-8.04-3.65-17.48-2.11-23.93,3.92l-49.18,45.93s105.82-8.32,168.83,30.91Z"/>
  <path class="cls-4" d="M803.5,567.51c-.68,0-1.36-.26-1.87-.79l-71.09-73.59c-1-1.03-.97-2.68.06-3.67,1.04-.99,2.68-.96,3.67.06l71.09,73.59c1,1.03.97,2.68-.06,3.67-.51.49-1.16.73-1.81.73Z"/>
</svg>