<?xml version="1.0" encoding="UTF-8"?>
<svg id="_Layer_" data-name="&amp;lt;Layer&amp;gt;" xmlns="http://www.w3.org/2000/svg" viewBox="0 0 1394.53 1556.21">
  <path d="M524.63,614.89l.35-.58c27.83,23.64,125,47.96,188.24,47.96,109.27,0,180.89-45.74,183.9-47.68,4.4-2.85,6.99-7.79,6.86-13.04-1.1-42.3-16.86-83.48-44.42-115.96-22.73-26.79-53.12-46.28-87.89-56.34-21.38-6.2-43.96-8.76-67.22-7.72-26.18,1.23-51.71,7.22-75.87,17.81l-4.73,2.04c-13.3,5.75-28.39,12.27-40.48,22.6-13.32,11.39-25.02,24.61-34.75,39.29-9.73,14.63-17.35,30.51-22.67,47.19-2.69,8.45-4.78,17.09-6.2,25.63l-.26,1.4c-3.44,18.61-5.72,30.9,5.14,37.4ZM549.17,582.97l.34-1.9c1.2-7.15,2.95-14.37,5.2-21.46,4.47-14.01,10.88-27.35,19.07-39.66,8.18-12.36,18.02-23.46,29.21-33.04,8.63-7.37,20.94-12.69,32.85-17.84l4.86-2.11c20.76-9.09,42.7-14.23,65.16-15.28,19.97-.96,39.23,1.27,57.43,6.54,29.05,8.42,54.39,24.63,73.27,46.88,21.19,24.97,34.08,56.07,36.78,88.38-7.85,4.24-21.8,11.09-40.65,17.85-7.67-29.86-21.05-58.49-39.1-83.41-2.94-4.07-8.6-4.99-12.64-2.03-4.06,2.94-4.97,8.6-2.03,12.64,16.96,23.44,29.19,50.47,36.24,78.57-27.28,8.17-61.94,14.97-101.91,14.97-45.17,0-84.51-8.63-114.25-18.16,2.47-24.87,8.51-49.14,18.44-72.21,1.98-4.6-.14-9.93-4.73-11.9-4.58-1.98-9.92.13-11.9,4.73-10.1,23.46-16.46,48.07-19.39,73.28-15.39-5.78-27.04-11.3-33.92-14.84.34-2.38.87-5.61,1.69-10.01ZM613.81,358.06c10.28,13.2,25.02,24.26,43.81,32.86,19.62,8.98,39.52,13.52,58.47,13.52,13.42,0,26.35-2.29,38.35-6.87,30.22-11.57,54.42-38.85,63.16-71.23,10.49-38.94-2.38-83.46-32.04-110.78-30.37-28.02-71.37-37.7-107.42-25.61-25.94,2.59-47.38,15.09-63.72,37.18-15.42,20.8-23.08,48.38-20.98,75.65,1.61,21.12,8.67,40.23,20.38,55.28ZM638.66,245.1c11.51-15.54,25.86-23.8,43.87-25.23,1.33-.11,2.64-.39,3.9-.84,7.7-2.77,15.67-4.13,23.67-4.13,19.3,0,38.76,7.89,55.01,22.85,21.6,19.92,30.99,52.37,23.34,80.74-6.26,23.22-23.43,42.72-44.8,50.89-20.96,8.05-47.73,5.87-73.46-5.91-14.33-6.57-25.28-14.63-32.56-23.97-8.07-10.34-12.94-23.83-14.1-39.03-1.54-20.14,3.97-40.32,15.14-55.37ZM764.16,1102.9h0c-18.81-5.45-38.72-7.65-59.02-6.78-22.96,1.07-45.37,6.32-66.61,15.61l-4.07,1.77c-11.69,5.05-24.95,10.78-35.68,19.95-11.73,10.04-22.01,21.65-30.55,34.53-8.56,12.91-15.26,26.86-19.92,41.47-2.35,7.38-4.19,14.95-5.67,23.7-3.02,16.33-5.19,28.12,5.45,34.61,2.83,1.7,70.62,41.39,164.75,41.39s158.15-40.01,160.77-41.72c4.41-2.85,7-7.79,6.87-13.04-.97-37.2-14.83-73.4-39.04-101.94-19.99-23.56-46.71-40.7-77.28-49.55ZM816.93,1260.72c-6.79-25.37-17.99-49.71-33.34-70.92-2.92-4.07-8.6-4.99-12.64-2.03-4.06,2.94-4.96,8.6-2.03,12.64,14.26,19.7,24.62,42.36,30.79,65.96-23.36,6.9-52.89,12.59-86.86,12.59-38.74,0-72.37-7.25-97.87-15.34,2.25-20.89,7.41-41.28,15.76-60.67,1.98-4.6-.14-9.92-4.73-11.9-4.59-2-9.92.13-11.9,4.73-8.52,19.77-14.02,40.47-16.71,61.71-11.58-4.43-20.55-8.64-26.33-11.58.29-1.88.7-4.25,1.25-7.28l.29-1.63c1.05-6.18,2.55-12.37,4.47-18.38,3.81-11.96,9.29-23.38,16.31-33.96,6.99-10.54,15.4-20.06,25.01-28.26,7.26-6.21,17.83-10.78,28.04-15.19l4.19-1.82c17.84-7.81,36.66-12.23,55.9-13.11,16.97-.8,33.61,1.08,49.23,5.61,24.86,7.19,46.52,21.06,62.66,40.08,17.85,21.04,28.81,47.14,31.35,74.35-6.76,3.59-17.96,9-32.85,14.4ZM681.94,895.05c-22.99,2.36-41.99,13.47-56.51,33.05-13.68,18.44-20.46,42.86-18.61,67.02,1.44,18.74,7.7,35.7,18.11,49.08,9.1,11.7,22.14,21.48,38.78,29.12,17.3,7.92,34.87,11.92,51.6,11.92,11.9,0,23.37-2.02,34.01-6.08,26.85-10.27,48.32-34.49,56.06-63.21,9.3-34.49-2.1-73.95-28.38-98.18-26.86-24.76-63.07-33.39-95.06-22.72ZM756.53,939.96c18.24,16.81,26.17,44.19,19.7,68.13-5.27,19.56-19.7,35.99-37.69,42.87-17.72,6.77-40.42,4.92-62.25-5.08-12.18-5.59-21.45-12.39-27.54-20.22-6.76-8.69-10.85-20.04-11.84-32.85-1.3-17.01,3.35-34.04,12.76-46.74,9.79-13.18,21.44-19.9,36.67-21.12,1.33-.11,2.64-.39,3.9-.84,6.46-2.32,13.16-3.47,19.88-3.47,16.26,0,32.69,6.66,46.4,19.31ZM1206.52,1120.5c-19.36-22.82-45.23-39.4-74.79-47.96-18.18-5.26-37.46-7.46-57.07-6.56-22.23,1.04-43.89,6.12-64.4,15.11l-3.99,1.73c-11.28,4.88-24.09,10.41-34.47,19.29-11.32,9.67-21.27,20.91-29.56,33.41-8.25,12.42-14.74,25.91-19.27,40.11-2.26,7.06-4.04,14.39-5.31,21.87l-.22,1.24c-2.92,15.88-5.02,27.36,5.54,33.74,2.74,1.64,68.24,39.98,159.13,39.98s152.77-38.67,155.31-40.32c4.41-2.85,7-7.79,6.88-13.04-.94-36-14.35-71.02-37.77-98.61ZM1182.63,1224.59c-6.57-24.29-17.34-47.59-32.06-67.91-2.94-4.06-8.6-4.99-12.64-2.03-4.06,2.94-4.97,8.6-2.03,12.64,13.63,18.82,23.55,40.45,29.51,62.97-22.43,6.6-50.76,12.03-83.3,12.03-37.18,0-69.47-6.94-93.99-14.7,2.2-19.97,7.15-39.42,15.11-57.91,1.98-4.6-.14-9.92-4.73-11.9-4.58-1.99-9.93.13-11.9,4.73-8.13,18.86-13.43,38.63-16.06,58.93-10.68-4.11-19.05-8-24.54-10.78.27-1.7.64-3.82,1.12-6.45l.31-1.72c1.01-6,2.46-11.95,4.28-17.65,3.69-11.54,8.96-22.51,15.66-32.6,6.76-10.16,14.83-19.3,24.03-27.16,6.92-5.92,17.05-10.29,26.84-14.53l4.11-1.79c17.12-7.5,35.19-11.73,53.69-12.59,16.39-.81,32.28,1.05,47.28,5.4,23.85,6.9,44.67,20.2,60.17,38.48,17.05,20.09,27.56,45.02,30.06,71.01-6.46,3.42-17.03,8.49-30.93,13.55ZM997.4,904.2c-13.27,17.9-19.84,41.59-18.04,65.01,1.39,18.17,7.46,34.64,17.57,47.6,8.83,11.36,21.48,20.85,37.59,28.24,16.74,7.68,33.77,11.56,49.98,11.56,11.53,0,22.66-1.97,32.99-5.92,26.02-9.96,46.86-33.45,54.36-61.3,9.02-33.44-2.03-71.69-27.52-95.19-26.04-24-61.18-32.37-92.13-22.05-22.31,2.3-40.74,13.09-54.81,32.06ZM1060.51,901.2c6.17-2.22,12.56-3.3,18.97-3.3,15.55,0,31.27,6.38,44.39,18.48,17.44,16.08,25.01,42.26,18.83,65.15-5.04,18.7-18.83,34.4-36,40.96-16.94,6.5-38.68,4.7-59.62-4.89-11.65-5.34-20.52-11.84-26.34-19.34-6.36-8.16-10.36-19.29-11.3-31.36-1.25-16.28,3.19-32.57,12.19-44.71,9.33-12.58,20.43-18.98,34.96-20.14,1.33-.11,2.64-.39,3.9-.84ZM396.72,1072.54c-18.17-5.25-37.38-7.44-57.08-6.56-22.23,1.04-43.9,6.12-64.41,15.11l-3.98,1.73c-11.28,4.88-24.09,10.41-34.47,19.29-11.32,9.67-21.27,20.91-29.57,33.42-8.25,12.44-14.74,25.94-19.27,40.13-2.27,7.16-4.04,14.49-5.47,22.88-2.97,16.01-5.12,27.58,5.39,33.88,2.7,1.64,67.29,40.06,159.23,40.06s152.77-38.67,155.31-40.32c4.41-2.85,7-7.79,6.88-13.04-.93-35.99-14.34-71.01-37.77-98.61-19.36-22.82-45.22-39.4-74.78-47.96ZM447.61,1224.59c-6.57-24.29-17.34-47.6-32.06-67.92-2.92-4.06-8.6-4.99-12.64-2.03-4.06,2.94-4.97,8.6-2.03,12.64,13.63,18.83,23.55,40.45,29.51,62.97-22.44,6.6-50.76,12.03-83.3,12.03-36.99,0-69.36-7-93.98-14.8,2.2-19.9,7.15-39.33,15.11-57.81,1.98-4.6-.14-9.93-4.73-11.9-4.59-1.99-9.92.13-11.9,4.73-8.12,18.85-13.42,38.59-16.05,58.83-10.68-4.1-19.06-7.97-24.54-10.72.27-1.72.65-3.88,1.14-6.57l.28-1.59c.99-5.89,2.43-11.84,4.27-17.63,3.68-11.51,8.95-22.49,15.66-32.6,6.76-10.16,14.83-19.3,24.03-27.16,6.92-5.92,17.05-10.29,26.84-14.53l4.12-1.79c16.87-7.39,35.44-11.74,53.69-12.59,16.39-.81,32.3,1.05,47.29,5.4,23.84,6.9,44.66,20.2,60.16,38.48,17.06,20.11,27.57,45.03,30.07,71.01-6.47,3.42-17.03,8.49-30.94,13.56ZM261.9,1016.81c8.83,11.34,21.48,20.85,37.59,28.23,16.76,7.69,33.77,11.57,49.98,11.57,11.53,0,22.66-1.97,32.99-5.92,26.01-9.96,46.85-33.45,54.37-61.3,9.01-33.45-2.05-71.72-27.53-95.19-26.04-24-61.15-32.37-92.13-22.05-22.31,2.3-40.74,13.09-54.81,32.06-13.27,17.9-19.85,41.59-18.04,65.01,1.39,18.17,7.46,34.64,17.57,47.6ZM286.62,922.18c9.33-12.58,20.43-18.98,34.96-20.14,1.33-.11,2.64-.39,3.9-.84,6.17-2.22,12.56-3.3,18.97-3.3,15.55,0,31.27,6.38,44.41,18.48,17.43,16.07,25,42.25,18.83,65.14-5.05,18.7-18.84,34.41-36.01,40.98-16.96,6.47-38.68,4.69-59.61-4.89-11.66-5.34-20.53-11.85-26.35-19.34-6.36-8.16-10.36-19.29-11.3-31.36-1.25-16.28,3.2-32.57,12.19-44.71ZM329.56,824.92v-32.38c0-32.11,26.12-58.23,58.21-58.23h307.45v-41.58c0-8.34,6.76-15.09,15.09-15.09s15.09,6.76,15.09,15.09v41.58h287.22c32.11,0,58.23,26.12,58.23,58.23v32.38c0,8.34-6.76,15.09-15.09,15.09s-15.09-6.76-15.09-15.09v-32.38c0-15.46-12.58-28.04-28.04-28.04h-287.22v77.45c0,8.34-6.76,15.09-15.09,15.09s-15.09-6.76-15.09-15.09v-77.45h-307.45c-15.46,0-28.03,12.58-28.03,28.04v32.38c0,8.34-6.76,15.09-15.09,15.09s-15.09-6.76-15.09-15.09Z"/>
</svg>