<?xml version="1.0" encoding="UTF-8"?>
<svg id="_Layer_" data-name="&amp;lt;Layer&amp;gt;" xmlns="http://www.w3.org/2000/svg" viewBox="0 0 1394.53 1556.21">
  <defs>
    <style>
      .cls-1 {
        fill: #fff;
      }

      .cls-2 {
        fill: #3f59a6;
      }
    </style>
  </defs>
  <path class="cls-1" d="M966.29,1018.1l172.95-20.54s49.38-.5,49.38-22.48c0-32.3-33.26-23.58-74.39-27.05-41.13-3.47-787.9,0-787.9,0,0,0-49.05,37.71-56.1,88.65-7.06,50.94,47.18,99.57,74.7,100.72,82.63,3.45,831.86,11.84,831.86,11.84,0,0,16.89-27.62,6.31-33.2-10.58-5.58-94.89-4.49-94.89-4.49l-121.91-93.44Z"/>
  <path class="cls-2" d="M1176.78,1153.03h-.04c-7.49-.08-750.24-8.42-831.98-11.84-15.81-.66-37.67-14.57-54.41-34.62-10.78-12.92-28.23-39.24-23.91-70.43,7.19-51.88,55.5-89.56,57.55-91.14.66-.51,1.47-.78,2.3-.79,30.5-.14,747.42-3.43,788.24.01,9.1.77,17.67.93,25.96,1.08,27.86.52,51.92.97,51.92,29.76,0,24.73-46.59,26.2-52.94,26.28l-163.45,19.42,113.44,86.94c16.85-.19,84.82-.63,95.39,4.95,2.49,1.31,4.22,3.52,5.01,6.38,2.96,10.77-8.52,30.01-9.84,32.17-.69,1.13-1.92,1.82-3.25,1.82ZM327.66,951.83c-6.85,5.6-47.47,40.53-53.68,85.37-3.92,28.29,12.23,52.56,22.21,64.51,14.96,17.92,35.52,31.33,48.88,31.89,79.42,3.32,784.49,11.3,829.55,11.81,4.2-7.35,9.36-19.06,7.91-24.34-.29-1.06-.78-1.44-1.22-1.67-7.08-3.73-60.84-4.47-93.07-4.05h-.05c-.84,0-1.65-.28-2.31-.79l-121.91-93.44c-1.23-.94-1.77-2.53-1.35-4.03.41-1.49,1.68-2.59,3.22-2.77l172.95-20.54c.13-.01.27-.02.41-.03,11.83-.13,45.61-3.83,45.61-18.67,0-20.42-14.43-21.59-44.46-22.15-8.02-.15-17.1-.32-26.45-1.11-39.68-3.35-750.68-.15-786.24,0Z"/>
  <path class="cls-1" d="M1140.71,996.51c-157.37-.39-767.07-23.72-824.46,1.88-57.39,25.61-31.94,83.97,24.66,100.46,56.6,16.49,794.2,13.13,805.17,14.06,0,0-49.08-10.21-53.07-58.35-2.74-33.02,47.7-58.05,47.7-58.05Z"/>
  <path class="cls-2" d="M1146.08,1116.71c-.11,0-.21,0-.32-.01-2.17-.16-33.02-.19-75.72-.22-204.64-.15-683.89-.49-730.2-13.98-33.41-9.73-57.97-34.46-59.72-60.13-1.37-20.05,10.91-36.9,34.57-47.46,43.42-19.38,383.71-11.55,632.17-5.84,82.33,1.89,153.44,3.53,193.85,3.63,1.76,0,3.29,1.22,3.69,2.94.4,1.72-.43,3.49-2.01,4.27-.48.24-48.09,24.27-45.6,54.33,3.7,44.66,48.16,54.54,50.06,54.94,1.97.41,3.27,2.29,2.98,4.28-.28,1.88-1.89,3.25-3.76,3.25ZM538.84,990.23c-112.71,0-201.35,2.85-221.04,11.64-20.53,9.16-31.22,23.37-30.08,39.99,1.54,22.55,23.85,44.48,54.26,53.34,45.27,13.18,541.33,13.54,728.07,13.67,25.06.02,43.33.03,55.71.06-15.19-8.24-34.08-24.35-36.54-54.07-2.04-24.66,22.17-44.57,37.59-54.64-41.81-.37-106.47-1.86-180.11-3.55-123.76-2.84-281.05-6.46-407.86-6.46Z"/>
  <path class="cls-1" d="M888.79,799.44l152.3-30.66s42.16-.38,40.99-12.72c-2.01-21.17-23.82-14.61-59.57-18.18-35.75-3.57-703.64,7.73-703.64,7.73,0,0-30.43,27.54-39.46,93.9-9.03,66.36,32.63,107.21,56.61,108.07,72.02,2.6,733.13-1.73,733.13-1.73,0,0,12.54-17.09,3.61-24.1-8.93-7.01-82.68-3.67-82.68-3.67l-101.29-118.65Z"/>
  <path class="cls-2" d="M464.4,952.21c-64.02,0-111.98-.23-128.52-.83-11.83-.43-25.73-8.81-37.2-22.43-19.31-22.93-27.7-55.72-23.04-89.96,9.11-66.97,39.39-95.04,40.68-96.21.68-.62,1.57-.97,2.49-.98,27.28-.46,668.52-11.26,704.08-7.71,8.99.9,17.11,1.15,24.28,1.36,21.41.65,36.87,1.12,38.69,20.24.24,2.58-.61,5.03-2.47,7.09-7.98,8.86-35.51,9.72-41.91,9.79l-145.6,29.31,95.88,112.31c19.54-.84,74.33-2.51,83.34,4.56,9.33,7.32,2.58,21.89-2.89,29.34-.71.97-1.84,1.55-3.04,1.55-5.08.03-392.84,2.55-604.77,2.55ZM320.47,749.39c-5.15,5.34-29.48,33.26-37.28,90.63-4.37,32.11,3.4,62.74,21.33,84.03,9.95,11.82,22.08,19.38,31.65,19.73,69.16,2.5,690.64-1.46,730.96-1.71,2.76-4.36,7.64-13.9,3.29-17.31-4.83-3.79-45.36-4.43-80.16-2.86-1.15.07-2.3-.44-3.06-1.33l-101.29-118.65c-.88-1.03-1.14-2.44-.7-3.71.44-1.28,1.52-2.22,2.85-2.49l152.3-30.66c.24-.05.48-.07.72-.07,12.62-.12,32.34-2.45,36.69-7.28.6-.67.56-1.06.54-1.28-1.12-11.83-8.93-12.67-31.35-13.35-7.29-.22-15.56-.47-24.81-1.4-34.29-3.43-665.93,7.12-701.66,7.72Z"/>
  <path class="cls-1" d="M1042.43,767.39c-137.51,3.09-669.04-13.28-720.64,21.32-51.59,34.6-32.63,109.87,15.91,130,48.54,20.13,693.35-1.11,702.88-.16,0,0-42.32-12.15-43.1-74.62-.54-42.86,44.95-76.53,44.95-76.53Z"/>
  <path class="cls-2" d="M528.8,931.23c-102.3,0-176.61-2.4-192.56-9.01-26.49-10.99-45.55-37.75-48.57-68.19-2.78-28.03,8.89-52.99,32-68.49,39.31-26.36,336.49-23.98,553.48-22.24,71.85.58,133.9,1.07,169.19.28,1.58-.1,3.14,1,3.68,2.57.54,1.57,0,3.3-1.33,4.29-.44.33-43.92,33.06-43.41,73.43.74,58.67,38.74,70.54,40.36,71.02,1.88.55,3.04,2.45,2.67,4.38-.38,1.93-2.17,3.25-4.1,3.06-2.19-.16-28.92.53-65.95,1.46-153.21,3.85-320.28,7.44-445.45,7.44ZM691.78,769.97c-169.65,0-340.64,3.64-367.87,21.9-20.71,13.88-31.16,36.27-28.66,61.42,2.7,27.26,20.35,52.13,43.91,61.91,38.52,15.98,471.8,5.09,634.9.99,24.31-.61,41.02-1.03,51.69-1.26-13.32-9.46-31.56-29.88-32.07-70.96-.41-33.01,24.54-60.25,38.08-72.59-36.49.51-93.56.05-158.66-.47-55.26-.44-118.21-.95-181.31-.95Z"/>
  <path class="cls-1" d="M950.99,587.87l169.69-30.7s45.23-1.09,45.4-12.24c.55-36.51-23.21-27.38-63.7-29.74-40.48-2.37-791.29,20.29-791.29,20.29,0,0-37.88,42.54-44.05,101.76-6.17,59.21,38.96,109.36,66.03,109.59,81.28.69,830.17-13.53,830.17-13.53,0,0,12.8-34.78,2.32-40.81-10.48-6.03-93.34-1.4-93.34-1.4l-121.24-103.22Z"/>
  <path class="cls-2" d="M339.83,750.65c-2.62,0-4.88,0-6.78-.02-12.03-.1-26.96-8.84-39.95-23.37-22.02-24.64-33.17-58.44-29.84-90.42,6.23-59.75,43.41-102.12,44.99-103.89.69-.78,1.68-1.24,2.73-1.27,30.66-.93,751.43-22.62,791.63-20.28,8.02.47,15.49.48,22.08.49,17.49.03,30.13.05,37.97,8.02,5.11,5.2,7.41,13.17,7.23,25.09-.2,13.27-33.96,15.6-48.81,15.98l-161.5,29.21,113.96,97.03c16.98-.92,83.37-4.09,93.94,1.98,12.3,7.08,2.61,36.56-.65,45.42-.54,1.47-1.93,2.46-3.5,2.49-7.31.14-715.23,13.55-823.5,13.55ZM312.91,539.23c-6.05,7.32-36.68,46.61-42.07,98.4-3.11,29.89,7.33,61.5,27.94,84.57,11.41,12.76,24.56,20.74,34.34,20.83,77.93.69,778.51-12.55,827.44-13.48,5.06-14.78,7.48-31.25,3.13-33.76-6.55-3.77-57.3-2.79-91.24-.9-.99.04-1.93-.27-2.68-.9l-121.24-103.22c-1.12-.95-1.59-2.47-1.21-3.89.38-1.42,1.55-2.49,3-2.75l169.69-30.7c.19-.03.39-.05.58-.06,23.03-.56,41.63-5.11,41.68-8.49.15-9.75-1.45-15.99-5.05-19.64-5.61-5.7-16.91-5.72-32.56-5.75-6.69-.01-14.28-.02-22.51-.5-38.91-2.27-749.33,19.04-789.26,20.24Z"/>
  <path class="cls-1" d="M1122.11,555.9c-154.7,5.85-754.36,3.27-810.39,35.2-56.03,31.93-30.13,98.43,25.76,115.24,55.88,16.81,780.87-16.62,791.67-15.99,0,0-48.4-9.85-53.04-65.39-3.19-38.1,46.01-69.07,46.01-69.07Z"/>
  <path class="cls-2" d="M441.75,714.93c-55.73,0-93.76-1.45-105.37-4.94-32.24-9.7-56.09-35.54-59.35-64.33-2.65-23.38,9.3-44.47,32.81-57.86,42.48-24.21,377.17-28.79,621.54-32.13,80.96-1.11,150.88-2.07,190.59-3.57,1.66-.08,3.27,1.03,3.78,2.68.51,1.64-.15,3.43-1.6,4.34-.47.3-47.21,30.21-44.25,65.53,4.34,51.91,48.16,61.59,50.02,61.98,1.95.41,3.26,2.25,3,4.22-.26,1.98-1.97,3.39-3.99,3.3-2.22-.08-32.49,1.11-74.33,2.78-223.61,8.92-473.51,17.99-612.84,17.99ZM1109.79,560.13c-41.07,1.27-105.18,2.14-178.3,3.15-229.81,3.15-577.1,7.9-617.88,31.13-21.03,11.99-31.34,29.89-29.01,50.4,2.88,25.4,25.08,49.2,53.98,57.9,44.6,13.42,532.17-6.04,715.71-13.37,25.97-1.04,44.52-1.77,56.7-2.23-15.34-8.47-35.71-26.29-38.68-61.82-2.42-28.96,22.69-53.41,37.48-65.16Z"/>
  <path class="cls-2" d="M582.95,820.17c-25.31,0-41.71-.27-44.8-.45-2.1-.12-3.7-1.92-3.57-4.02.12-2.1,1.85-3.7,4.02-3.58,12.49.73,242.92,2.91,398.37-17.26,2.07-.28,3.99,1.2,4.26,3.28.27,2.08-1.2,3.99-3.28,4.26-117.49,15.24-277.72,17.76-355,17.76Z"/>
  <path class="cls-1" d="M701.68,1000.44c36.89-21.59,50.35-60.38,59.17-49.03,21.24,27.34,37.46,50.31,48.57,45.55,16.67-7.15,13.59-186.06,13.59-186.06l-130.25,4.57s-1.17,66.28,3.13,108.5c3.57,35.07-2.62,81.39,5.79,76.47Z"/>
  <path class="cls-2" d="M700.51,1004.61c-.92,0-1.82-.24-2.63-.71-4.79-2.78-4.89-12.39-4.65-35.81.14-13.91.3-29.68-1.13-43.73-4.27-41.96-3.16-108.29-3.15-108.95.04-2.02,1.65-3.66,3.67-3.73l130.25-4.57c1.03-.01,2.01.34,2.75,1.04.74.7,1.17,1.67,1.19,2.69,0,.45.76,45.34-.55,90.52-2.7,93.67-11.24,97.33-15.35,99.1-12.81,5.49-27.29-13.29-47.34-39.29-1.87-2.42-3.78-4.9-5.73-7.42-.38-.49-.59-.58-.59-.58-1.95.04-7.9,7.23-12.24,12.47-9.37,11.33-22.2,26.84-41.43,38.09-1,.59-2.06.88-3.08.88ZM701.68,1000.44h0ZM699.75,997.16,696.51,819.14c-.16,14.38-.5,68.53,3.16,104.44,1.47,14.47,1.31,30.47,1.17,44.58-.1,10.38-.23,22.95.79,27.86,17.05-10.49,28.83-24.74,37.52-35.25,7.89-9.54,12.63-15.37,18.3-15.21,1.7.03,4.19.66,6.4,3.51,1.96,2.52,3.88,5.01,5.75,7.44,15.21,19.72,30.95,40.11,38.31,36.95,8.76-5.87,12.63-94.72,11.35-178.62l-122.76,4.31Z"/>
</svg>