<?xml version="1.0" encoding="UTF-8"?>
<svg id="_Layer_" data-name="&amp;lt;Layer&amp;gt;" xmlns="http://www.w3.org/2000/svg" viewBox="0 0 1394.53 1556.21">
  <defs>
    <style>
      .cls-1 {
        fill: #d4dcff;
      }

      .cls-2 {
        fill: #fff;
      }

      .cls-3 {
        fill: #ff940a;
      }

      .cls-4 {
        fill: #070a3d;
      }

      .cls-5 {
        fill: #fa9265;
      }

      .cls-6 {
        fill: #3f59a6;
      }

      .cls-7 {
        fill: #d37d58;
      }
    </style>
  </defs>
  <path class="cls-2" d="M1355.03,276.36c-6.2-18.67-21.15-32.2-38.28-40.99-19.13-9.82-40.5-14.65-61.5-18.53-24.64-4.57-49.68-7.11-74.73-7.62-48.89-.99-97.95,5.71-144.73,20-26.54-.82-53.15.98-79.35,5.53-6.38,1.11-12.77,2.56-19.21,3.7-11.43-6.98-19.78-18.2-19.38-32.65.59-21.22,16.29-39.6,13.68-61.26-2.04-16.9-15.15-28.95-30.01-35.6-17.92-8.04-37.71-8.99-57-7.01-22.34,2.27-43.95,8.79-64.54,17.61-44.12,18.92-82.57,47.85-122.88,73.41-.77.49-1.55.98-2.32,1.47-12.36,5.45-24.51,11.42-36.37,17.89-16.16,8.84-32.02,20.4-50.4,24.02-15.22,3-34.43-1.16-42-16.1-4.06-8.01-3.95-17.34-6.44-25.82-1.81-6.18-5.01-11.84-9.23-16.72-9.02-10.44-22.28-17.03-35.78-19.23-17.52-2.85-35.38.78-51.98,6.36-15.77,5.32-31.07,12.22-45.59,20.37-29.16,16.34-55.32,37.97-76.82,63.57-10.7,12.75-20.62,26.58-34.25,36.44-10.05,7.26-22.87,11.82-35.16,10.6,1.04-1.16,2.07-2.33,3.15-3.49,1.24-1.34-.77-3.36-2.02-2.01-1.53,1.65-3.03,3.33-4.5,5.01-3.8-.72-7.52-1.99-11.04-4-1.35-.78-2.58,1.3-1.22,2.09,3.43,1.97,6.87,3.34,10.27,4.24-19.47,22.92-34.45,49.48-43.73,78.16-7.6,23.45-18.8,62.64,3.73,81.73,9.98,8.46,24.06,9.15,36.08,5.14,13.81-4.62,24.06-14.96,31.71-27.06,9.26-14.71,15.28-31.36,22.57-47.07,8.07-17.4,16.72-34.53,25.9-51.36,4.68-8.56,9.51-17.06,14.47-25.48,2.05-3.47,4.16-7.01,6.57-10.31,2.58-3.57,5.5-6.87,9.07-9.51,1.09-.8,2.23-1.48,3.41-2.05,6.8-3.28,14.79-2.51,19.47,4.47,4.03,6.02,4.47,14.39,2.22,21.14-5.19,15.53-21.56,25.38-31.26,37.94-9.2,11.92-15.84,25.77-19.64,40.32-7.52,28.87-3.51,59.94,12.2,85.4,14.89,24.15,39.03,42.7,66.51,50.05,63.17,16.91,124.23-24.99,163.7-70.57,35.91-41.47,60.9-91.46,96.13-133.31,20.71-4.4,42.26-2.33,51.73,19.16,5.69,12.93,4.97,28.1,3.49,41.85-1.84,16.91-4.88,33.6-5.61,50.64-1.37,32.1,4.32,65.29,25.52,90.5,9.05,10.76,20.68,19.47,34.04,24.06,15.36,5.27,32.1,4.53,47.59.23,33.83-9.39,59.51-34.45,86.46-55.52,28.02-21.9,58.45-40.76,90.5-56.17,15.33-7.39,31.05-14.5,47.46-19.18,14.65-4.18,30.58-6.62,45.62-2.98,15.44,3.73,27.33,14.19,34.3,28.3,6.2,12.62,8.42,26.62,9.13,40.56-11.48,20.31-24.77,39.73-32.7,61.83-.44,1.22-.86,2.45-1.26,3.69-.72,2.18-1.39,4.39-1.99,6.61-2.92,10.62-4.58,21.58-5.04,32.59-.07,1.52-.1,3.02-.11,4.52-.49,43.17,17.61,86.52,52.81,112.86,46.22,34.59,114.2,36.6,157.76-3.44,20.47-18.8,34.46-44.87,38.11-72.48,4.27-32.26-8.22-61.58-24.35-88.81-18.01-30.4-40.06-60.61-42.55-97.12-1.22-17.84,3.43-34.1,13.72-48.7.16-.23.33-.44.49-.67,10.11-5.35,20.66-10.01,30.5-15.72,18.61-10.78,35.86-25.13,46.81-43.92,10.63-18.25,14.83-41.25,8.07-61.58ZM742.46,141.47c39.14-22.38,85.53-42.34,131.72-37.12,18.02,2.04,38.54,9.28,48.93,25.12,12.53,19.05,1.34,39.68-4.75,58.76-2.87,9.02-4.66,18.67-2.32,28.02,2.17,8.6,7.65,15.93,14.56,21.32.73.57,1.48,1.08,2.23,1.6-6.83,1.01-13.7,1.52-20.63.67-6.57-.8-13.44-2.98-17.81-8.24-6.39-7.68-4.55-17.89-4.84-27.11-1.03-31.84-33.32-48.05-61.41-49.71-18.12-1.08-36.53,1.6-54.39,4.47-18.28,2.92-36.39,6.91-54.21,11.92-17.34,4.88-34.41,10.71-51.11,17.48,24.55-15.94,48.6-32.65,74.03-47.18ZM1089.77,422.82c-25.74-17.74-60.35-7.96-86.73,2.92-32.78,13.52-64.13,30.51-93.32,50.66-14.5,10.01-28.25,20.96-41.9,32.08-13.9,11.34-28.07,22.62-44,31-15.59,8.19-33.24,13.59-51,12.64-15.85-.83-30.61-7.36-42.41-17.88-25.23-22.56-33.7-56.61-33.48-89.34.11-17.99,2.84-35.64,5.12-53.43,1.75-13.6,2.87-27.97-.82-41.34-3.56-12.9-12.41-23.39-25.38-27.46-9.17-2.89-18.92-2.59-28.41-.82,6.9-7.98,14.19-15.62,22.03-22.83,11.84-10.88,29.49-26.99,47.17-22.52,17.01,4.3,18.33,23.26,17.79,37.74-.52,14.39-1.89,28.25,1.42,42.44,3.33,14.29,9.95,27.76,18.74,39.49,41.61,55.58,117.62,60.04,179,39.68,34.61-11.48,66.44-29.8,97.16-49.16,15.92-10.05,32.6-21.72,51.85-23.65,14.6-1.45,28.35,4.35,37.68,15.56,17.83,21.45,18.15,53.28,8.84,78.3-3.25,8.74-7.34,17.08-11.79,25.23-1.84-22.87-7.84-45.73-27.55-59.3ZM1351.41,320.09c-7,22.02-23.47,39.5-42.21,52.3-11.12,7.6-23.31,13.24-35.23,19.36,7.09-9.38,14.6-18.84,17.21-30.43,7.03-31.02-25.39-52.86-47.57-67.33-27.91-18.23-58.19-32.78-89.75-43.46-35.13-11.89-71.91-18.95-108.95-20.92,5.35-1.52,10.71-2.97,16.11-4.29,25.12-6.17,50.76-10.18,76.56-12.02,49.29-3.54,100.47.15,148.16,13.59,19.62,5.53,39.8,13.81,53.77,29.23,15.87,17.48,18.9,41.93,11.91,63.98Z"/>
  <path class="cls-3" d="M1172.61,442.83c-15.9,49.39-59.79,79.25-93.8,116.01.6-2.22,1.27-4.42,1.99-6.61,3.62-3.82,7.34-7.57,11.11-11.25,20.99-20.58,43.97-39.97,60.74-64.36,14.63-21.28,24.24-47.8,22.33-73.87-2.01-27.42-19.07-49.84-44.9-59.22-27.11-9.85-56.27-5.41-82.66,4.48-53.41,20.04-104.69,64.94-165.36,53.64-23.88-4.45-46.02-18.04-56.43-40.61-11.5-25-8.77-53.59-18.46-79.12-4.45-11.73-11.45-23.35-22.23-30.24-13.86-8.86-30.29-6.36-45.01-1.19-28.48,10-55.47,25.51-79.35,43.87-22.44,17.24-41.64,37.77-59.48,59.63-16.7,20.45-32.46,41.69-50.19,61.26-17.24,19.03-36.6,36.53-59.4,48.65-19.57,10.41-45.18,16.62-66.4,7.47-23.45-10.15-29.28-35.77-26.67-59.01,1.53-13.8,5.35-27.2,9.22-40.5,4.55-15.66,9.61-31.17,15.17-46.48,5.59-15.48,12.67-30.47,18.04-46.01,2.53-7.36,4.03-15.31,1.42-22.87-2.9-8.33-10-13.28-18.9-12.21-7.86.95-15.25,4.96-22.36,8.22-6.8,3.13-13.55,6.39-20.22,9.79-12.88,6.56-25.52,13.59-37.89,21.07-50.33,30.5-95.75,68.58-134.88,112.54-.91,1.03-2.4-.49-1.5-1.52,9.54-10.85,19.49-21.33,29.83-31.43,42.4-41.38,91.14-76.25,143.98-103.03,6.69-3.38,13.44-6.64,20.24-9.75,6.43-2.94,13-6.34,19.96-7.78,11.48-2.37,21.09,3.54,24.38,14.76,4.19,14.29-4.21,28.95-9.41,41.8-6.33,15.67-12.13,31.56-17.44,47.61-4.99,15.18-9.77,30.56-13.54,46.11-3.25,13.44-5.56,27.63-3.57,41.44,1.96,13.49,8.82,25.92,20.88,32.83,11.53,6.62,25.56,7.31,38.41,5.17,26.49-4.39,49.81-20.79,69.2-38.61,20.04-18.4,36.96-39.84,53.82-61.11,17.09-21.59,34.28-43.27,54.55-62.03,21.77-20.14,46.52-37.12,73.17-50.17,23.01-11.27,54.07-26.4,77.78-8.92,20.55,15.15,25.56,42.36,29,65.96,2.12,14.6,4.16,29.63,10.54,43.11,5.94,12.54,15.64,22.51,27.71,29.24,25.35,14.17,55.47,13.23,82.56,5.05,57.08-17.21,107.68-65.96,170.7-58.7,24.19,2.79,47.61,14.42,59.84,36.22,12.05,21.51,10.85,47.79,3.49,70.64Z"/>
  <path class="cls-3" d="M1190.74,413.85c-3.98,29.52-18.15,56.97-34.76,81.29-18.38,26.93-40.3,51.34-61.36,76.17-6.98,8.22-13.96,16.44-20.97,24.64.02-1.5.05-3,.11-4.52,16.52-19.41,33.08-38.78,49.39-58.37,20.03-24.06,39.47-49.27,52.34-78.01,11.27-25.22,16.47-52.58,11.78-80.03-4.11-24.04-15.48-47.84-35.41-62.66-25.77-19.2-59.28-18.01-88.74-9.18-31.17,9.33-58.71,27.02-88.32,40.07-25.05,11.06-52.29,19.05-79.77,13.75-21.59-4.16-43.51-15.84-54.41-35.67-13.19-23.97-2.98-50.64-2.68-76.13.16-14.42-4.34-28.64-17.45-36.24-11.84-6.88-26.67-6.91-39.88-5.33-59.22,7.11-114.07,37.59-159.85,74.52-23.21,18.72-44.71,39.54-64.88,61.49-18.17,19.77-38.51,48.83-69.15,45.59-24.46-2.59-33.84-27.68-31.95-49.37,2.58-29.83,25.75-53.5,28.36-83.23,1.06-12.02-1.43-25.22-8.76-35.02-9.93-13.29-26.52-14.43-40.84-7.73-15.04,7.05-27.86,19.02-40.54,29.49-13.29,10.98-26.36,22.21-39.22,33.66-6.25,5.56-12.44,11.17-18.59,16.83-4.18,3.82-8.33,7.68-12.48,11.56-39.93,37.3-78.29,76.26-116.66,115.15-1.01,1.03-2.59-.55-1.58-1.58,12.07-12.31,24.15-24.63,36.29-36.88,49.21-49.6,99.34-98.44,153.39-142.79,18.85-15.45,49.11-45.03,74.89-26.36,19.77,14.3,19.15,43.11,11.71,63.66-9.87,27.27-30.07,53.51-22,83.99,3.67,13.88,13.9,25.02,28.75,26.31,16.85,1.47,31.74-8.15,43.27-19.44,11.09-10.85,20.88-23.05,31.54-34.3,10.44-11.03,21.25-21.72,32.47-31.95,21.99-20.08,45.62-38.49,71.09-53.93,25.05-15.2,52-27.5,80.31-35.2,13.52-3.69,27.56-6.78,41.61-7.58,12.31-.7,25.79.57,36.24,7.73,23.65,16.18,15.46,47.31,13.08,71.09-1.37,13.52-1.21,27.29,5.22,39.6,5.71,10.99,15.14,19.56,25.83,25.61,58.49,32.99,117.69-12.62,170.43-35.21,27.79-11.92,59.92-20.37,89.85-11.6,23.6,6.92,41.8,24.42,52.16,46.43,10.13,21.51,13.29,46.21,10.13,69.69Z"/>
  <path class="cls-2" d="M1074.01,824.7c-28.15-40.99-71.45-68.27-114.95-90.57-10.32-5.3-20.78-10.34-31.25-15.33,32.06-19.8,49.25-58.78,46.25-95.93-3.18-39.42-30.12-70.77-67.68-82.1-18.12-5.46-37.74-6.25-56.15-1.83-9.12,2.2-17.97,5.71-26.05,10.52-10,5.99-18.17,14.42-27.79,20.96-10.21,6.93-24.19,11.97-33.99,1.37-6.73-7.26-7.6-18.51-8.68-27.86-1.04-9.1-1.86-18.51-5.84-26.89-4.08-8.6-11.07-15.58-19.21-20.4-18.51-10.99-40.68-10.29-59.97-1.78-9.8,4.32-18.54,10.28-26.49,17.19-5.95.5-11.81,1.84-17.39,4.11-11.22,4.58-20.88,12.13-29.11,20.92-8.43,9-15.53,19.16-22.34,29.41-7.88,11.84-15.66,23.73-24.02,35.23-9.33,12.8-19.13,25.26-29.39,37.35-1.63,1.91-3.26,3.83-4.93,5.74-3.54,2.35-7.11,4.65-10.76,6.85-21.5,13-44.52,23.49-68.5,30.99-11.16,3.49-22.95,6.33-34.84,7.58-17.81-10.6-30.45-28.97-37.18-48.64-4.8-14.04-6.92-28.69-7.96-43.43-1.03-14.53-1.52-29.58-7.01-43.3-4.34-10.81-11.66-20.96-22.46-26-11.34-5.28-24.38-4.19-35.85.16-22.93-1.22-35.47,22.72-48.91,36.97-8.58,9.1-19.69,15.74-32.57,12.33-13.65-3.6-23.09-15.36-28.1-28-4.99-12.59-6.72-26.31-9.03-39.57-2.59-14.79-5.19-29.58-7.8-44.38-1.83-10.34-3.65-20.68-5.46-31.02.38-.52.75-1.03,1.14-1.55.33-.44.2-.88-.1-1.16.34-.18.68-.36,1.04-.51.54-.23.7-1.01.49-1.48-.26-.59-.8-.8-1.4-.7-.68.11-1.37.31-2.04.57-.49-2.84-1-5.69-1.5-8.53-.26-1.52-2.56-.86-2.3.64.52,3.02,1.04,6.02,1.55,9.02-1.16.77-2.2,1.75-2.97,2.87-2.92,2.46-5.4,5.41-7.23,8.81-.26.49-.15.93.11,1.24-24.95,31.97-43.37,70.67-43.89,111.7-.21,16.31,2.92,32.38,8.99,47.17-1.39-.55-2.77-1.11-4.18-1.6-1.21-.44-1.7,1.45-.52,1.89,1.97.77,3.93,1.6,5.86,2.45,8.55,19.39,22.28,36.4,40.38,48.55,8.2,5.5,17.14,9.7,26.5,12.36,6.61,10.58,12.22,21.72,17.04,33.22-9.69,36.55-2.19,77.55,22.54,106.88,15.23,18.07,36.14,31.15,58.8,37.71,25.05,7.24,50.01,5.32,74.6-2.64,28.98-9.38,64.47-25.12,92.7-5.5-10.78,14.4-11.47,33.38-5.07,49.94,7.37,19.1,22.74,32.52,41.8,39.44,21.94,7.96,46.2,7.24,68.87,3.25,24.42-4.32,48.15-12.49,70.11-23.99,21.95-11.51,40.69-26.6,59.17-42.96,17.97-15.92,38.23-31.75,63.54-31.1,11.63.31,23.21,4.53,30.78,13.68,7.21,8.71,9.48,20.29,8.66,31.33-1.89,25.88-20.03,45.31-36.48,63.67-15.58,17.37-31.74,37.09-33.61,61.34-1.52,19.33,8.3,36.27,23.76,47.23,15.71,11.16,35.23,16.52,54.08,19.26,26.19,3.82,53.17,4.29,79.57,2.94,48.73-2.51,98.9-11.61,143.1-33.01,36.55-17.7,70.39-45.45,84.4-84.71,15.51-43.46,2.48-91.41-22.9-128.37ZM362.85,687.7c-49.47-13.8-56.9-69.67-52.42-113.32,1.58-15.17,3.39-39.63-14.61-44.53.7-.21,1.4-.41,2.12-.59,13.37-3.36,27.42-.98,37.4,8.99,10.01,9.98,14.26,24.06,16.05,37.71,1.94,14.74,1.84,29.67,4.35,44.34,4.58,26.72,16.26,53.1,39.05,69.07.6.42,1.21.83,1.83,1.24-11.37.83-22.77.15-33.76-2.92ZM613.4,544.05c-15.97,21.15-30.92,42.63-49.83,61.37-12.48,12.36-26,23.65-40.35,33.79,1.27-1.52,2.56-3.03,3.82-4.55,9.8-11.86,19.18-24.07,28.1-36.6,8.04-11.3,15.46-22.98,23.22-34.46,13.72-20.26,30.71-41.93,55.78-47.82,1.61-.38,3.26-.67,4.91-.9-9.49,8.77-17.88,18.87-25.65,29.16Z"/>
  <path class="cls-3" d="M1050.09,704.67c-73.28,38.67-170.18,24.21-230.64-31.72-16.13-14.92-28.16-33.05-41.43-50.39-12.97-16.94-27.92-32.94-48.11-41.06-41.15-16.57-88.28.96-120.9,27.5-38.11,31-63.35,74.03-96.72,109.52-31.91,33.95-73.51,62.16-122.2,56.83-47.53-5.2-86.93-39.28-98.71-85.61-2.75-10.82-3.97-22.02-3.53-33.18.24-6,.97-11.95,2.18-17.83,1.08-5.29,2.58-10.82,1.1-16.2-4.14-15.07-25.48-14.24-35.32-5.92-17.19,14.53-15.35,41-31.53,56.39-8.84,8.4-20.92,8.97-31,2.39-10.02-6.55-16.66-17.15-22.27-27.44-24.45-44.82-36.93-96.09-36.27-147.12.16-12.59,1.15-25.16,2.88-37.63.18-1.33-1.84-1.91-2.04-.56-7.32,49.96-1.69,101.53,16.06,148.79,4.31,11.48,9.32,22.7,15.01,33.56,5.15,9.82,10.76,19.64,18.89,27.32,6.78,6.4,15.56,11.23,25.15,10.03,9.2-1.15,16.3-7.42,21.32-14.86,11.14-16.51,12.14-48.72,35.26-53.85,10.13-2.25,21.9,2.02,22.09,13.84.1,5.86-2.05,11.77-2.89,17.55-.82,5.68-1.22,11.43-1.18,17.17.33,44.42,25.98,85.97,66.31,104.93,20.18,9.49,43.03,13.37,65.18,10.58,22.16-2.79,42.87-12.31,60.97-25.14,39.56-28.04,65.79-69.37,96.89-105.67,31.43-36.68,72.77-70.51,123.84-69.13,24.12.65,45.26,10.99,61.89,28.22,15.76,16.33,27.32,36.08,41.96,53.34,52.67,62.07,145.15,85.45,221.71,59.28,9.45-3.23,18.36-7.34,27.18-11.99,1.28-.68.15-2.63-1.14-1.95Z"/>
  <path class="cls-4" d="M838.41,638.89c-4.49,24.14-14.47,46.76-23.96,69.23-9.59,22.7-19.05,45.91-22.03,70.56-.13,1.03-.83,1.57-1.88,1.42-19.39-2.76-37.5-12.54-50.53-27.14-3.95,5.38-7.89,10.76-11.84,16.15-.57.77-1.5.95-2.25.28-19.05-16.6-32.88-38.75-39.54-63.1-14.55,7.86-29.06,15.74-43.59,23.62-.93.51-1.84-.15-1.96-1.11-2.12-19.95-1.65-40.07,1.39-59.89-17.3,2.05-34.82-1.79-49.43-11.46-1.14-.75-.72-2.59.72-2.63,18.49-.34,35.36-9.46,48.55-21.99,27.19-25.85,36.45-63.28,49.89-96.99,5.37-13.46,11.91-27.16,20.32-39.32-.44-.29-.69-1-.36-1.45,1.08-1.5,2.43-2.69,4.01-3.57,9.69-12.69,21.69-23.29,36.89-29.55,1.24-.52,2.14,1.65.91,2.17-13.13,5.66-24.1,14.92-33.09,25.87.62-.07,1.18-.08,1.75-.05.64.02,1.35.07,1.93.38.52.29.65,1.04.41,1.57,1.45-.02,2.9,0,4.35.05,22.9.72,45.52,8.66,64,22.15,18.79,13.7,32.59,32.93,40.33,54.82,7.91,22.41,9.33,46.71,5.01,70.02Z"/>
  <path class="cls-4" d="M1107.5,676.01c-5.58,16.21-16.88,30.03-31.35,38.95-.07.52-.28,1.03-.78,1.24-3.02,1.35-6.05,2.64-9.1,3.9,8.04,2.74,14.86,8.77,18.45,16.57.41.9.1,1.97-.93,2.27-13.14,3.73-26.73,6.93-40.48,6.93-11.43.02-23.09-2.48-32.5-9.26-.39-.28-.73-.6-1.13-.9-12.77,1.91-25.7,2.79-38.62,2.51-29.13-.65-57.93-7.36-84.09-20.27-24.71-12.2-46.79-29.81-63.49-51.8-19.05-25.07-29-55.19-41.36-83.78-1.39-3.21-2.82-6.39-4.3-9.56-1.68,1.83-3.39,3.59-5.2,5.27-4.03,3.77-8.45,7.36-13.72,9.22-5.27,1.84-10.94,1.29-16.05-.78-9.96-4.05-18.07-12.62-24.12-21.3-6-8.58-10.26-18.41-12.48-28.64-4.4-20.3-.31-41.54,11.19-58.84,5.59-8.42,12.76-15.79,21.09-21.53,3.93-2.71,8.14-4.96,12.49-6.87,6.05-3.11,12.56-5.4,19.07-7.34,8.68-2.59,17.55-4.44,26.54-5.63,36.06-4.81,73.17,1.42,106.4,15.85,39.97,17.36,73.85,46.4,100.04,80.97,13.34,17.61,24.76,36.66,34.28,56.59,4.6,9.62,8.78,19.47,12.64,29.41,3.78,9.77,5.84,27.8,12.14,35.78,1.65,2.09,3.41,4.08,5.35,5.94,10.05,9.7,24.06,16.28,38.18,13.26,1.04-.21,2.25.7,1.86,1.86Z"/>
  <path class="cls-5" d="M959.54,872.9s-132.52,13.05-135.78,12.25c-1.97-.49-23.93-64.41-41.62-115.05-9.18-26.19-17.21-48.85-20.73-57.31-.91-2.18-1.53-3.42-1.79-3.55l139.17-32.03,60.75,195.7Z"/>
  <path class="cls-7" d="M883.8,701.86c-6.16,13.44-15.33,25.15-26.5,34.79-10.05,8.64-21.46,15.66-33.4,21.32-6.12,2.9-12.39,5.48-18.77,7.68-6.82,2.33-13.86,4.27-21.1,4.45-.62.02-1.26.02-1.88,0-9.18-26.19-17.21-48.85-20.73-57.31,2.67.08,5.38.07,8.07-.03,38.03-1.35,74.71-16.83,113.07-12.95.93.1,1.66,1.14,1.24,2.05Z"/>
  <polygon class="cls-5" points="757.16 489.58 675.29 501.27 704.5 566.31 757.16 489.58"/>
  <path class="cls-5" d="M967.48,662.56c-40.12,69.51-138.78,122.14-238.14,51.78-56.01-39.66-66.67-91.27-45.6-143.69,5.17.75,12.38,1.7,18.51,2.15,10.94.82,37.1-5.37,38.95-6.12,1.83-.75,7.67-3.6,3.67-9.92-4.01-6.33-35.15-5.51-40.24-5.92-3.13-.24-8.14.02-11.6.23,6.21-11.35,13.85-22.67,22.74-33.84,49.97-62.81,129.01-93.32,198.52-53.19,69.51,40.12,93.32,129.01,53.19,198.5Z"/>
  <path class="cls-2" d="M741.2,566.69c-1.84.75-28,6.93-38.95,6.12-6.13-.46-13.34-1.4-18.51-2.15,2.61-6.52,5.73-13.05,9.3-19.57,3.46-.21,8.46-.47,11.6-.23,5.09.41,36.22-.41,40.24,5.92,4,6.31-1.84,9.17-3.67,9.92Z"/>
  <path class="cls-4" d="M792.61,493.73c.11,2.69-1.75,4.89-3.55,6.65-1.86,1.81-3.96,3.41-6.21,4.7-2.18,1.27-4.65,2.48-7.18,2.85-2.46.36-5.1-.28-6.36-2.63-1.19-2.22-.65-4.91.31-7.11,1.53-3.54,4.21-6.33,7.55-8.04,3.31-2.68,7.65-4.19,11.5-2.27,2.19,1.09,3.85,3.38,3.95,5.84Z"/>
  <path class="cls-4" d="M815.48,504.86c-1.25-6.78-6.13-13.29-11.49-17.4-2.96-2.28-6.32-4-9.88-5.12-3.4-1.08-7.68-2-11.19-1.06-1.08.29-1.17,2.04,0,2.27,1.68.34,3.38.33,5.08.57,1.7.24,3.4.63,5.05,1.14,3.26,1.01,6.34,2.6,9.05,4.68,2.51,1.93,4.71,4.3,6.46,6.93,1.84,2.78,2.89,5.7,3.99,8.81.66,1.86,3.3,1.12,2.95-.81Z"/>
  <path class="cls-4" d="M845.93,494.22c.24,1.15-.67,1.71-1.58,1.64-.54.31-1.32.22-1.68-.52-4.13-8.29-12.01-13.57-20.24-17.24-3.62-1.6-7.33-2.96-11.01-4.34-2.87-1.06-6.39-2.38-7.69-5.43-1.14-2.69.21-5.54,2.71-6.84,3.12-1.64,6.57-.45,9.6.79,13.89,5.73,26.8,16.56,29.89,31.94Z"/>
  <path class="cls-7" d="M746.58,557.15c-1.86-3.19-5.38-4.59-8.85-5.17-4.27-.72-8.66-.99-12.97-1.33-10.61-.82-21.65-1.63-32.26-.48-1.58.17-1.63,2.41,0,2.5,8.22.46,16.47.21,24.7.65,3.98.21,7.96.5,11.93.86,3.71.34,7.9.34,11.38,1.8,2.98,1.25,5.81,5.15,2.6,7.81-2.54,2.1-6.74,2.65-9.83,3.41-7.64,1.87-15.42,3-23.28,3.42-4.31.23-8.63.28-12.95.1-2.28-.09-4.57-.25-6.84-.46-2.25-.21-4.55-.7-6.81-.57-1.7.1-1.98,2.35-.4,2.92,4.03,1.44,9.04,1.32,13.29,1.51,4.56.2,9.15.17,13.71-.12,8.88-.57,17.74-2.02,26.33-4.31,3.17-.85,6.98-1.61,9.39-4.03,2.31-2.32,2.48-5.74.87-8.51Z"/>
  <path class="cls-4" d="M1003.3,731.37c-.1,1.06-.2,2.1-.29,3.15-1.11.39-2.2.78-3.29,1.19-26.29,9.64-50.95,23.32-77.73,31.71-29.13,9.12-59.66,12.23-89.88,15.28-.85.08-1.73-.83-1.66-1.66l3.86-47.46c2.28-28.13,4.58-56.25,6.9-84.39,1.27-15.31,2.4-30.66,3.69-45.99-1.55-2.45-3.05-4.94-4.45-7.47-12.84-23.18-19.55-49.56-18.97-76.08.62-27.38,8.69-54.62,23.63-77.63.29-.44.73-.59,1.16-.57.21-.29.44-.59.67-.88-.26-.91.21-2.02,1.42-1.93.5-.57.83-.68,1.11-.72.26-.03.49-.02.72.1.39.15.67.47.8.86,21.38,2.1,42.37,8.91,60.38,20.71,8.68,3.39,17.11,7.32,25.18,12.02,19.16,11.14,35.9,26.58,45.85,46.61,10.91,21.99,14.58,47.07,17.89,71.14,3.59,26.24,5.56,52.73,5.76,79.23.15,20.97-.77,41.92-2.72,62.78Z"/>
  <path class="cls-5" d="M926.51,628.16c-9.74,15.45-30.76,25.83-48.93,21.35-.62-4.78-1.24-9.56-1.84-14.34-.16-1.37-.34-2.72-.51-4.08-.52-4.09-1.03-8.17-1.55-12.26-.13-1.17-.28-2.35-.42-3.54-.11-.95-.23-1.89-.34-2.84-.18-1.42-.36-2.84-.54-4.27-.55-4.68-1.13-9.36-1.68-14.04,2.15-1.53,4.4-2.95,6.67-4.3,4.11-2.43,8.51-4.58,13.19-5.73,5.37-1.78,11.01-2.58,16.78-1.83,10.11,1.29,18.85,7.18,22.6,16.82,3.75,9.59,1.97,20.48-3.44,29.06Z"/>
  <path class="cls-7" d="M911.92,600.55c-8.74-3.34-18.69-3.18-27.4.21-4.11,1.61-8.56,4.13-12.13,7.42.18,1.44.36,2.85.54,4.27,3.65-4.29,9-7.39,14.17-9.13,7.8-2.63,16.24-2.54,23.94.39,1.99.75,2.84-2.41.88-3.16ZM881.27,612.47c-2.94.16-5.66,1.18-8.01,2.82.15,1.19.29,2.37.42,3.54,4.88-4.04,12.31-4.71,16.69.88,2.19,2.79,2.45,6.57.8,9.7-1.94,3.7-5.97,4.81-9.88,4.03-2.07-.41-4.16-1.21-6.05-2.35.16,1.35.34,2.71.51,4.08,2.64,1.19,5.5,1.86,8.15,1.83,9.08-.06,14.68-10.41,9.8-18.12-2.61-4.13-7.55-6.65-12.43-6.41Z"/>
  <path class="cls-4" d="M857.06,593.58c-23.06-5.68-35.88-31-40.75-52.37-5.37-23.52-1.67-48.38,10.3-69.32,6.35-11.11,14.89-20.85,24.8-28.91,1.19-.97-.4-3.06-1.65-2.14-19.15,14.08-32.6,35.7-37.35,58.96-5.1,25.01-.3,52.3,13.69,73.74,6.94,10.63,17.14,20.81,30.08,23.25,2.08.39,2.99-2.69.88-3.21Z"/>
  <path class="cls-4" d="M847.37,596.6c-.34-1.54-2.56-.86-2.32.64,2.1,13.23.19,27.02-5.87,39-2.87,5.68-6.67,11.69-11.68,15.72-2.71,2.19-6.18,3.35-9.32,1.34-2.7-1.73-4.27-4.75-6.06-7.3-.97-1.38-2.86-.21-2.22,1.3,1.89,4.48,5.48,9.43,10.66,10.12,5.98.8,10.69-4.3,14.07-8.51,7.39-9.21,12.06-20.42,13.57-32.12.88-6.76.63-13.52-.83-20.18Z"/>
  <path class="cls-5" d="M149.63,531.49c-4.35,13.77,34.2,114.31,57.99,177.74,18.27,48.69,89.52,154.4,75.02,198.9-14.5,44.51-86.5,122-151.5,50.67-55.07-60.44-77.3-189.53-86.26-251.53-15.72-108.76-7.61-168.53-7.61-168.53l112.35-7.25Z"/>
  <path class="cls-5" d="M236.7,420.41c-5.27,24.2-11.43,48.98-24.69,70.2-6.43,10.26-14.51,19.03-23.78,26.8-9.13,7.63-18.95,14.45-27.73,22.52-4.27,3.91-8.32,8.14-11.73,12.84-3.46,4.75-6.03,9.98-8.66,15.22-2.56,5.07-5.25,10.14-9.07,14.39-4.03,4.49-9.26,7.45-15.05,9.02-6.33,1.7-12.98,1.93-19.49,2.07-7.5.18-15,.1-22.49-.26-6.93-.33-13.94-.72-20.81-1.83-5.4-.88-13.1,8.45-17.2,4.64-4.27-4,.95-76.97,3.07-91.83,4.24-29.75,9.61-59.37,16.78-88.56.1-.38.29-.6.52-.78,1.76-14.42,4.57-28.77,7.65-42.98-.26-.28-.46-.64-.49-1.11-.59-6.49,2.76-12.59,7.81-16.5,7.63-5.92,17.19-5.56,25.15-1.4,5.25,1.37,9.07,4.7,11.74,8.79,2.84,4.34,4.5,9.41,5.79,14.39,1.6,6.15,2.82,12.4,4.44,18.54,3.75,14.12,8.51,28.02,14.35,41.43,2.17,4.96,4.71,10.19,8.95,13.72,5.23,4.37,11.82,3.47,17.47.38,5.59-3.07,10.57-7.49,15.14-11.91,4.6-4.47,8.81-9.36,12.53-14.58,3.69-5.19,6.92-10.68,9.62-16.44,2.85-6.05,4.96-12.54,8.82-18.06,3.26-4.65,7.94-8.64,13.6-9.88,5.46-1.21,10.9.57,14.74,4.6,9.54,9.98,5.61,24.68,3,36.6Z"/>
  <path class="cls-7" d="M118.17,498.45c-1.1-4.15-2.29-8.28-3.58-12.37-1.28-4.05-2.45-8.23-4.2-12.1-.58-1.28-2.4-.32-2.15.91,1.41,7.1,4.12,14.02,6.04,21,1.96,7.13,3.63,14.35,4.7,21.67,1.91,13.06,1.73,26.62-2.08,39.34-1.01,3.37-2.26,6.67-3.81,9.84-.78,1.59-1.63,3.15-2.55,4.67-.93,1.54-2.05,2.94-2.66,4.64-.52,1.43,1.34,2.07,2.28,1.33,2.42-1.9,3.98-5.37,5.36-8.07,1.43-2.79,2.65-5.7,3.67-8.66,2.12-6.17,3.35-12.64,3.9-19.13,1.24-14.51-1.21-29.06-4.91-43.06Z"/>
  <path class="cls-3" d="M443.04,356.75c-15.36.88-30.74,1.44-46.14,1.66-27.04.39-54.08-.23-81.07-1.86-10.21-.62-20.44-1.32-30.66-2.19,18.36,23.78,40.84,44.36,66.25,60.44,1.13.7.39,2.48-.9,2.14-31.38-8.17-62.76-16.34-94.16-24.47,16.24,23.83,28.3,50.38,35.49,78.32.33,1.22-1.17,2.05-2.07,1.21-6.49-5.99-12.97-11.99-19.44-17.97-20.42-18.89-40.84-37.77-61.16-56.74-.67,1.27-2.71,1.06-2.72-.55-.02-.67-.02-1.34-.02-1.99-1.3-1.22-2.61-2.41-3.9-3.64-1.01-.93.5-2.43,1.52-1.5l2.35,2.15c-.08-9.95.05-19.91.33-29.88.59-20.42,1.88-40.82,3.88-61.14.99-10.1,2.17-20.17,3.52-30.22,1.08-8.06,1.99-16.31,3.52-24.33-.6-.07-1.14-.55-.86-1.29,3.15-8.37,6.48-16.67,9.96-24.9,12.54-29.59,27.33-58.19,44.15-85.56.65-1.08,2.02-.5,2.17.57,3.33,25.23,3.57,50.79.77,76.08,10.52-4.34,21.1-8.53,31.75-12.54,39.68-14.96,80.23-27.47,121.29-38,1.16-.29,1.61,1.17.77,1.81-10.05,7.39-20.08,14.79-30.12,22.16-26.31,19.33-52.65,38.64-78.97,57.93,36.78-4.03,74.29-.75,109.8,9.66,1.04.31,1.11,1.92,0,2.2l-30.89,7.45c-34.92,8.45-69.84,16.88-104.77,25.3,10.68,3.46,21.3,7.13,31.8,11.04,41.25,15.38,81.12,34.32,119.11,56.55.99.59.52,2.04-.57,2.1Z"/>
  <path class="cls-4" d="M303.9,245.14c-.13,3.44-.9,6.82-1.65,10.18-.95,4.13-1.89,8.25-2.85,12.38-1.94,8.38-3.95,16.73-6.02,25.08-4.14,16.7-17.26,64.72-21.86,81.29-4.57,16.44-9.36,32.81-14.37,49.14-2.51,8.22-5.11,16.42-7.73,24.61-2.41,7.49-4.62,15.14-7.55,22.43-2.53,6.28-5.99,12.1-11.64,16-5.77,3.96-12.8,5.58-19.57,6.83-16.91,3.13-33.91,5.81-50.9,8.29-17.06,2.5-34.15,4.73-51.26,6.67-6.51.73-15.41,3.21-20.76-1.91-4.06-3.88-4.24-10.21-3.6-15.41.95-7.65,3.3-15.23,5.09-22.7,2.04-8.42,4.11-16.83,6.23-25.21,4.21-16.67,8.58-33.29,13.11-49.86.2-.72.39-1.42.59-2.14,7.99-31.15,25.44-93.52,34.45-124.39,1.78-6.05,3.83-12.26,7.98-17.17,4.5-5.35,10.99-7.19,17.71-7.99,17.26-2.05,34.66-3.34,51.96-4.99,17.4-1.66,34.82-3.31,52.22-4.96,4.19-.39,8.38-.9,12.57-1.16,3.15-.2,6.48-.15,9.48.9,6.13,2.15,8.6,7.94,8.38,14.11Z"/>
  <path class="cls-5" d="M135.08,410.43c-12.56,3.23-24.86,8.35-35.15,16.36,7.81-1.88,15.72-3.43,23.58-4.7,11.21-1.79,22.64-2.74,33.96-1.43,9.34,1.09,20.5,3.23,26.8,10.96,5.51,6.78,6.02,16.77-1.19,22.56-8.04,6.44-19.34,4.91-28.95,5.56-10.58.72-21.09,2.43-31.35,5.06-19.83,5.09-38.69,13.59-55.66,25-.49.77-.98,1.55-1.47,2.3-2.77,4.32-8.12,8.38-12.74,3.82-3.73-3.7-4.44-10.32-5.1-15.27-.88-6.41-.96-12.88-.52-19.34.91-13.19,3.74-26.23,6.39-39.16,1.47-7.18,3-14.34,4.58-21.5,0-6.57.47-13.14,1.73-19.59,1.13-5.72,2.95-11.22,5.5-16.36,0-1.76.03-3.52.11-5.28,1.08-20.21,8.4-40.09,20.27-56.5,3.64-5.86,7.99-11.27,12.67-16.28,5.81-6.23,12.3-11.81,19.28-16.7,7.03-4.93,14.66-9.44,22.7-12.49,7.78-2.94,17.16-3.7,24.12,1.65,2.82,2.15,4.83,5.41,5.61,8.87,1,1.75,1.58,3.72,1.55,5.84-.08,5.22-3.47,9.66-6.95,13.23-4.19,4.31-8.79,8.2-13.01,12.48-7.4,7.5-14.3,15.49-20.68,23.89,4.57-.88,9.13-1.61,13.67-2.27,12.07-1.7,25.72-3.29,35.7,5.27,3.88,3.34,6.61,8.04,6.88,13.21.29,5.4-2.22,10.58-5.79,14.52-2.9,3.21-6.46,5.5-10.34,7.24,2.32.15,4.63.34,6.91.64,10.06,1.3,22.15,6.13,22.54,17.99.18,5.43-2.43,10.7-6.05,14.63-4.29,4.63-10.26,7.19-16.31,8.63-6.8,1.62-13.81,1.99-20.73,2.92-7.58,1.01-15.15,2.36-22.57,4.26Z"/>
  <path class="cls-7" d="M169.63,423.39c-.15-.28-.4-.53-.79-.67-4.52-1.63-9.64-2.93-14.41-2.22-2.52-.28-5.04-.52-7.57-.67-15.03-.88-30.2.61-44.81,4.22-16.3,4.03-32.27,10.74-46.19,20.19-1.91,1.3-.16,4.4,1.83,3.13,21.72-13.8,46.24-22.28,71.99-23.84,5.88-.36,11.79-.35,17.67,0-5,4.04-5.5,10.83-1.64,16,4.2,5.61,12.5,8.18,19.23,8.48,6.39.28,13.81-3.01,15.06-9.93,1.26-6.96-4.43-12.39-10.39-14.7ZM175.22,440.35c-4.18,5.66-12.31,4.33-18.07,2.45-3.26-1.07-6.64-2.7-8.69-5.57-1.91-2.67-2.57-6.23-.63-9.07,1.65-2.43,3.96-3.62,6.53-4.11,4.47.41,8.97,1.05,13.16,2.4,5.47,1.76,12.16,7.86,7.7,13.9Z"/>
  <path class="cls-7" d="M182.06,361.23c-7.66-.95-15.79-.32-23.45.33-15.93,1.36-31.69,4.63-46.82,9.77-8.31,2.82-16.44,6.2-24.3,10.09-7.88,3.9-16.41,8.04-22.84,14.12-1.04.98.28,2.41,1.44,1.87,6.1-2.84,11.64-6.72,17.58-9.9,5.89-3.16,11.95-6.02,18.14-8.54,12.36-5.03,25.23-8.79,38.34-11.24,6.32-1.18,12.79-2.12,19.29-2.7-.89.86-1.65,1.87-2.22,3.01-2.83,5.77,0,12.87,4.87,16.55,10.05,7.61,31.27,3.12,31.76-11.49.24-7.09-5.32-11.09-11.81-11.89ZM190.02,375.15c-.39,1.55-1.13,3.03-2.17,4.24-2.68,3.11-6.82,4.62-10.9,5.12-4.06.5-8.37.07-11.86-2.06-5.22-3.18-7.94-10.99-2.26-15.14,1.61-1.17,3.53-1.84,5.45-2.32,3.74-.94,7.64-1.25,11.48-.91,3.38.3,6.99,1.26,9.04,3.97,1.52,2.01,1.82,4.65,1.21,7.12Z"/>
  <path class="cls-7" d="M178.78,325.13c-3.53-5.7-10.33-6.99-16.56-6.93-7.22.07-14.47.85-21.59,2.03-14.35,2.39-28.38,7-41.13,14.04-13.17,7.27-24.82,17.1-33.97,29.05-1.36,1.78,1.66,3.51,3,1.76,14.27-18.58,34.98-31.36,57.34-37.81,6.45-1.86,13.08-3.26,19.78-4.17-2.35,2.82-3.18,6.88-2.23,10.49,1.49,5.67,6.95,9.63,12.54,10.62,6.38,1.13,13.73-.83,18.97-4.6,4.74-3.41,7.14-9.15,3.84-14.48ZM167.26,339.39c-5.96,2.12-13.21,2.27-17.9-2.6-3.77-3.91-3.7-10.74,1.03-13.91,4.2-.75,8.02-.98,11.83-1,5.27-.04,12.27.91,14.17,6.79,1.82,5.63-4.82,9.19-9.13,10.73Z"/>
  <path class="cls-7" d="M162.42,259.54c-3.94-8.04-15.95-7.24-22.7-3.82-5.46,2.77-11.73,9.06-10.94,15.72.86,7.29,8.89,9.61,15.1,8.28,6.53-1.4,12.87-5.59,16.9-10.89,2.03-2.68,3.21-6.08,1.64-9.28ZM158.5,265.49c-2.57,4.31-7.49,7.67-12.08,9.48-4.29,1.68-11.29,2.73-13.74-2.47-2.27-4.82,2.78-9.82,6.51-12.15,4.33-2.71,9.55-3.56,14.53-2.47,3.99.88,7.33,3.33,4.78,7.61Z"/>
  <path class="cls-1" d="M208.43,296.01c-4.87,3.06-12.56,3.4-16.29-1.65-1.75-2.35-2.17-5.49-1.56-8.3.46-2.07,1.48-3.88,2.79-5.49,1.78-3.2,4.86-5.76,8.38-6.91,2.79-.9,5.93-.95,8.65.23,2.75,1.21,4.55,3.73,5.04,6.67,1.02,5.94-1.93,12.24-7.01,15.45Z"/>
  <path class="cls-1" d="M297.78,284.45c-.54,3.41-1.7,6.72-2.66,10.05-.98,3.38-1.97,6.75-2.95,10.14-1.96,6.7-3.9,13.42-5.87,20.14-1.45,4.91-4.09,10.42-10,10.5-.59,0-1-.33-1.24-.78-.47-.23-.82-.7-.67-1.37,2.41-10.29,5.28-20.5,7.91-30.73,1.32-5.12,2.64-10.24,3.96-15.36,1.3-5.09,2.33-10.37,4.06-15.35.34-1.03,1.52-.95,1.97-.25,5.12,1.91,6.25,8.19,5.48,13Z"/>
  <path class="cls-1" d="M277.23,357.84c-1.01,5.09-3.6,10.75-9.26,11.81-.86.16-1.47-.44-1.65-1.09-.16-.13-.29-.33-.34-.6-.2-1.04.13-1.97.38-3,.26-1.09.52-2.2.78-3.29.51-2.04,1-4.08,1.48-6.12,1.03-4.24,2.05-8.48,3.2-12.67.26-.95,1.22-1.03,1.83-.59.2-.02.39.02.62.13,5.51,3,3.96,10.44,2.97,15.43Z"/>
  <path class="cls-5" d="M1283.48,1244.19c7.65,21.33,14.89,41.54,21.3,59.38-11.07-26.96-21.89-54.02-32.39-81.19-16.44-42.58-32.13-85.43-47.2-128.54,10.24-19.95,25.85-36.84,43.91-50.15,14.58-10.75,30.63-19.12,47.36-25.9,17.13,28.22,40.16,59.32,52.41,82.35,43.12,81.16.06,142.67-69.22,145.67-5.2.23-10.6-.36-16.16-1.63Z"/>
  <path class="cls-5" d="M585.17,964.49c.02,20.73-4,42.1-12.92,60.87-.98-.02-1.96-.03-2.95-.05-57.72-.95-125.73-3.75-203.79-8.51-88.95-5.41-161.22-15.56-193.04-27.19-55.4-20.27-55.22-76.75-58-117.43-4.34-64.08,87.89-64.31,144.67-67.57,44.7-2.56,146.46-5.66,272.73-9.1,1.16-.03,2.32-.07,3.49-.1,8.46,12.26,14.96,25.95,20.35,39.73,7.75,19.78,13.75,40.37,19.15,60.9,5.86,22.34,10.29,45.28,10.31,68.45Z"/>
  <path class="cls-4" d="M1387.17,1506.9c-1.11.02-2.22.02-3.31.03-77.7.93-155.4,1.84-233.1,2.74-104.04,1.19-208.08,2.18-312.12,3.44-1.01.02-2.04.02-3.05.03-.13-.67-.24-1.35-.36-2.02-1.06-5.92-1.94-11.89-2.63-17.86-5.2-44.57-.52-90.93,14.63-133.27.29-.83.6-1.66.9-2.5.33-.88.67-1.76,1-2.64.59-1.55,3.08-.9,2.51.7-.23.64-.44,1.26-.65,1.89,18.01-.33,36.03-.67,54.03-1.04,86.55-1.78,173.09-4.13,259.61-7.05,27.17-.91,54.34-1.89,81.52-2.94,1.4-.05,2.79-.1,4.19-.16,1.06.82,2.12,1.65,3.16,2.48,13.54,10.67,26.52,22.05,38.88,34.04,18.25,17.66,35.16,36.7,50.66,56.82,15.54,20.19,29.63,41.51,42.13,63.72.21.38.42.75.64,1.13.46.82.9,1.63,1.35,2.45Z"/>
  <path class="cls-6" d="M1329.9,1373.78l-512.51,16.98-59.82-167.79s-68.03-31.17-82.27-103.79c-7.86-40.04-2.37-71.37,7.52-94.86-31.13,1.35-68.01,1.71-110.56,1.04,8.92-18.77,12.93-40.14,12.92-60.87-.02-23.17-4.45-46.11-10.31-68.45-5.4-20.53-11.4-41.12-19.15-60.9-5.4-13.78-11.89-27.46-20.35-39.73,33.06-.9,67.78-1.83,103.57-2.77,51.7-1.35,94.02,3.13,127.07,13.1,1.19.34,2.38.72,3.56,1.11-4.7,4.55-8.55,10-11.27,15.97-6.33,13.93-5.81,30.22-.82,44.46,10.13,28.95,38.29,47.56,67,54.77,27.79,6.98,58.05,3.95,84.08-7.98,26.24-12,47.09-32.91,59.43-58.96,5.27-11.12,8.97-23.06,10.89-35.23,1.14-.28,2.3-.54,3.47-.78,35.28-7.67,83.29-8.58,140.43,14.06,88.46,35.05,148.97,111.53,192.09,182.01.54.9,1.08,1.76,1.6,2.63-16.73,6.78-32.78,15.15-47.36,25.9-16.82,12.39-31.51,27.9-41.72,46.11-.57.98-1.11,1.97-1.61,2.98-.2.34-.39.7-.57,1.06,15.07,43.11,30.76,85.95,47.2,128.54,10.5,27.17,21.32,54.23,32.39,81.19,6.03,16.9,11.32,31.66,15.46,43.24,6.05,16.9,9.66,26.98,9.66,26.98Z"/>
  <path class="cls-4" d="M719.28,964.31c-4.07-10.52-7.94-21.21-12.62-31.48-.5-1.09-2.31-.32-1.93.82,3.47,10.4,7.78,20.57,11.86,30.75-17.58,20-31.59,44.19-37.45,70.3-.29,1.3,1.61,1.84,2,.55,7.8-25.68,19.69-49.72,37.8-69.71.28-.31.49-.81.33-1.24Z"/>
  <path class="cls-4" d="M1134.61,1063.33c-5.54-7.06-11.56-13.77-17.43-20.56-5.79-6.7-11.61-13.36-17.47-19.99-11.81-13.35-23.78-26.58-35.92-39.64-6.83-7.35-13.72-14.65-20.67-21.9-.87-.9-2.22.46-1.37,1.37,24.32,26.09,48.27,52.52,71.64,79.48,6.57,7.58,12.91,15.39,19.67,22.8.97,1.07,2.4-.47,1.55-1.55Z"/>
  <path class="cls-5" d="M761.37,943.03c-1.45,4.26-4.34,7.8-7.5,10.91-7.13,7.08-14.91,13.72-22.98,19.7-16.26,12.04-36.22,20.97-56.89,18.18-29.91-4.04-44.49-29.9-61.39-52.47-1.29.36-6.46,3.69-7.76,4.04-11.07,2.79-19.56,3.01-30.66-1.46-9.33-3.73-16.03-11.96-20.17-20.88-2.48-5.32-4.22-10.93-5.76-16.57-2.45-.51-4.84-1.22-7.13-2.3-11.37-5.33-15.12-18.66-16.52-30.14-.65-5.45-.62-10.98.15-16.37-7.57-4.68-13.05-12.35-16.08-20.66-3.98-10.94-3.36-23.03-.6-34.18,2.56-10.46,6.59-21.74,13.57-30.12,7.16-8.58,17.61-11.5,28.48-10.39,3.08.31,6.16.83,9.21,1.5-11.64-12.66-23.91-24.77-36.04-36.88-12.75-12.72-25.49-25.47-37.33-39.06-5.48-6.28-11.24-13.57-11.55-22.3-.25-6.72,2.98-14.14,9.54-16.75,8.46-3.38,18.01,2.23,24.94,6.7,7.94,5.14,15.04,11.47,22.12,17.71,15.28,13.5,30.27,27.33,44.97,41.47,14.79,14.24,29.29,28.79,43.46,43.63,1.75,1.84,3.47,3.69,5.2,5.51.28.16.55.31.83.5,2.17,1.58,3.87,3.83,5.66,5.82s3.59,3.98,5.38,5.97c15.76,17.47,31.51,34.95,47.27,52.42,14.58,16.2,29.36,32.24,43.01,49.24,6.62,8.24,12.98,16.7,18.85,25.47,2.94,4.39,5.74,8.84,8.38,13.41,2.59,4.47,5.2,9.02,6.83,13.94,1.53,4.62,2.09,9.72.52,14.39Z"/>
  <path class="cls-5" d="M978.87,819.88c-1.93,12.17-5.63,24.1-10.89,35.23-12.35,26.05-33.19,46.96-59.43,58.96-26.03,11.92-56.28,14.96-84.08,7.98-28.7-7.21-56.87-25.82-67-54.77-4.99-14.24-5.51-30.53.82-44.46,2.72-5.97,6.57-11.42,11.27-15.97,19.2,6.13,35.13,14.19,47.82,24.11l107.46,10.31c9.93-5.95,28.44-15.38,54.03-21.38Z"/>
  <path class="cls-5" d="M730.25,895.92c23.76,18.77,335.46,99.19,436.58,122.1,101.12,22.91,211.02,63.64,215.87,133.93,4.89,70.76-27.26,120.85-171.87,91.49-144.61-29.36-335.77-121-428.77-184.49-41.87-28.58-127.81-90.67-127.81-90.67l75.99-72.36Z"/>
  <path class="cls-4" d="M1058.93,727.97c-11.35,25-36.71,45.67-65.27,43.37-.96-.08-1.71-.88-1.43-1.88,1.88-6.95,2.3-14.12,1.35-21.17-1.11,5.12-3.02,10.08-5.61,14.69-17.04,30.37-53.07,38.38-84.6,44.46-.98.18-1.79-.42-1.88-1.44-.85-11.92-1.68-23.84-2.53-35.77l-78.24,39.09c-.77.39-1.93.11-2.12-.85-5.12-25.97-3.16-52.92,5.53-77.88-12.3,5.35-27.97,1.79-36.29-8.95-.62-.78-.57-2.25.65-2.48,9.54-1.75,18.4-5.87,26.13-11.69,32.55-24.55,37.72-67.65,41.72-105.28.16-1.63,2.74-1.66,2.58,0-1.18,12.17-2.37,24.33-4.52,36.35-.91,5.1-2.02,10.21-3.36,15.23.16.24.24.55.15.93-1.44,6.28-.51,13.06,2.32,18.84,1.42,2.89,3.26,5.55,5.53,7.85,2.3,2.32,4.99,3.91,7.68,5.71.68.46.64,1.39.16,1.84,17.73,10.55,41.54,10.91,60.12,2.72,14.12-6.23,26.08-16.34,35.91-28.13,10.03-12.04,17.45-25.64,24.35-39.63,3.59-7.27,7.67-14.71,14.14-19.83,5.79-4.58,13.41-7.39,20.78-5.5,7.11,1.79,12.26,7.52,16.29,13.31,4.81,6.93,8.95,14.42,12.67,21.99,14.07,28.72,21.53,63.8,7.78,94.09Z"/>
  <path class="cls-4" d="M972.61,478.07c-4.71-.49-9.35,1.61-12.38,5.11-.23-3.72-1.11-7.38-2.59-10.85-.43-1.01-2.23-.76-2.4.31-.88,5.35-.2,10.82,2.05,15.72-.87.37-1.75.74-2.61,1.13-1.43.65-.4,3.15,1.08,2.56,1.22-.51,2.02-.86,2.82-1.23.73,1.2,2.48.23,2.03-.99.47-.25.93-.51,1.4-.77,4.51-2.56,8.26-5.37,11.59-8.66.91-.9.16-2.22-.97-2.34ZM968.77,481.06c-2.34,1.98-4.86,3.75-7.52,5.27,1.69-2.66,4.45-4.57,7.52-5.27Z"/>
  <path class="cls-7" d="M811.84,850.12c-2.4-7.26-4.95-14.47-7.43-21.71-4.94-14.41-9.85-28.83-14.87-43.22-2.85-8.15-5.7-16.31-8.73-24.39-.54-1.44-2.82-.88-2.35.65,8.8,28.44,18.9,56.51,28.54,84.67,1.3,3.78,2.69,7.55,3.7,11.42,1.1,4.18.97,7.92.77,12.17-.08,1.63,2.19,1.74,2.69.36,2.24-6.17-.37-14.05-2.33-19.96Z"/>
  <path class="cls-7" d="M610.09,937.21c-4.23,2.91-8.15,5.42-13.28,6.45-5,1.01-10.26.68-15.17-.63-10.73-2.88-18.97-10.71-24.24-20.3-5.48-9.98-8.18-21.86-8.16-33.21.01-5.9.92-11.95,3.64-17.24,2.64-5.14,6.85-9.12,11.87-11.92,13.06-7.27,28.63-5.7,42.93-4.39,1.76.16,1.69-2.5,0-2.71-13.97-1.77-28.6-3.24-41.84,2.73-5.41,2.44-10.25,6.11-13.75,10.94-3.72,5.13-5.5,11.37-6.13,17.62-1.23,12.26,1.43,25.48,6.59,36.62,5.02,10.82,13.43,20.16,24.8,24.34,5.79,2.12,12.12,2.87,18.23,2.02,5.83-.8,12.56-3.19,16.32-7.95.96-1.22-.28-3.42-1.82-2.36Z"/>
  <path class="cls-7" d="M593.39,918.36c-2.62-3.27-4.99-6.49-6.69-10.36-1.68-3.83-2.43-7.82-3.26-11.89-.3-1.49-2.56-1.1-2.59.35-.1,4.42,1.29,8.95,3.02,12.97,1.72,3.99,4.12,8.13,7.25,11.19,1.48,1.45,3.69-.77,2.27-2.27Z"/>
  <path class="cls-7" d="M611.55,920.75c-.88-5.17-2.34-10.38-5.74-14.49-2.83-3.43-7.18-5.96-11.74-5.61-2.1.16-4.14.83-5.87,2.04-1.87,1.32-2.69,2.88-3.43,4.97-.44,1.24,1.62,2.14,2.15.91,1.4-3.21,5.62-5,8.93-4.42,3.85.68,6.92,3.61,8.79,6.9,2.13,3.76,2.97,8.15,3.59,12.37.73,4.93.98,9.91,1.34,14.88.17,2.31,3.74,2.35,3.63,0-.27-5.87-.67-11.76-1.65-17.56Z"/>
  <path class="cls-7" d="M607.36,815.58c-20.82-10.32-46.65-8.15-64.69,6.81-16.76,13.89-24.96,37.02-18.81,58.16,1.76,6.05,4.65,11.76,8.59,16.68,3.77,4.7,9.02,9.11,15.41,8.24,1.79-.24,1.29-3.06-.42-3.08-5.6-.07-9.77-4.19-12.94-8.39-3.05-4.05-5.35-8.64-6.86-13.47-3.04-9.7-2.94-20.16.12-29.84,6.06-19.19,22.66-33.63,42.43-37.12,11.92-2.11,24.56-.34,35.44,4.97,1.97.96,3.71-1.98,1.73-2.96Z"/>
  <path class="cls-7" d="M612.18,784.04c-10.21-8.38-21.79-15.01-34.12-19.71-12.22-4.66-26.51-8.65-39.51-5.04-11.78,3.27-20.53,12.88-26.32,23.25-6.55,11.71-10.2,25.44-8.73,38.88,1.47,13.4,7.85,26.11,18.8,34.17,1.44,1.06,3.34-1.36,1.93-2.5-8.77-7.11-14.54-17.33-16.6-28.39-2.3-12.36.27-25.35,5.69-36.57,4.85-10.04,12.23-20.03,22.87-24.37,11.96-4.88,25.67-1.43,37.35,2.6,13.15,4.54,25.35,11.43,36.22,20.1,1.71,1.36,4.15-1.02,2.43-2.43Z"/>
  <path class="cls-7" d="M560.88,811.79c-3.13-2.64-6.58-4.88-10.32-6.57-3.59-1.62-7.81-3.24-11.8-3.24-1.54,0-1.79,2.18-.36,2.64,1.8.57,3.67.88,5.48,1.42,1.79.54,3.55,1.19,5.26,1.96,3.43,1.56,6.65,3.57,9.53,5.99,1.53,1.29,3.76-.91,2.22-2.22Z"/>
  <path class="cls-7" d="M519.01,663.51c-1.38-3.01-3.74-5.76-6.07-8.09-4.7-4.69-10.84-8.75-17.14-10.91-3.37-1.16-7.57-1.06-10.07,1.83-1.68,1.94-1.9,5.1-.36,7.11.67,2.49,2.29,4.56,4.18,6.44,2.5,2.48,5.34,4.64,8.38,6.4,2.98,1.73,6.19,3.09,9.5,4.03,2.8.8,6.44,1.9,9.31.86,3.33-1.22,3.57-4.83,2.27-7.67ZM514.49,668.22c-.44.03-.9-.03-1.33-.1-6.56-1.13-13.17-3.54-18.46-7.68-2.21-1.73-11.05-12.38-3.63-13.22,1.26-.14,2.52.27,3.7.72,8.42,3.18,16.13,8.74,20.76,16.46.6.99,1.12,2.34.36,3.23-.35.41-.86.57-1.41.61Z"/>
  <path class="cls-7" d="M290.38,887.53c-2.14-7.19-4.48-14.31-6.96-21.39-4.91-14.02-10.45-27.82-16.8-41.26-3.63-7.68-7.43-15.29-11.7-22.63-.68-1.17-2.4-.14-1.8,1.05,6.66,13.33,13.26,26.65,18.99,40.41,5.73,13.74,10.81,27.71,15.11,41.96,1.19,3.95,2.33,7.91,3.41,11.89,1.11,4.08,1.97,8.3,3.35,12.3.46,1.35,2.29.78,2.09-.58-1.07-7.34-3.57-14.67-5.68-21.76Z"/>
  <path class="cls-7" d="M1341.94,1078.09c-18.88-9.56-38.46-17.9-58.18-25.55-19.86-7.7-40.07-14.52-60.53-20.43-11.43-3.3-22.97-6.56-34.68-8.72-1.46-.27-2.09,1.83-.62,2.26,10.22,2.98,20.58,5.5,30.82,8.42,10,2.85,19.94,5.92,29.81,9.19,20.09,6.67,39.88,14.21,59.31,22.61,10.95,4.73,21.7,9.85,32.46,14.99,1.85.88,3.48-1.83,1.62-2.77Z"/>
  <path class="cls-4" d="M1048.56,1365.19c-31.75-13.27-61.98-29.75-90.84-48.45-29.1-18.85-56.79-39.8-83.92-61.36-15.18-12.06-30.22-24.31-45.22-36.6-.98-.8-2.38.58-1.4,1.4,26.79,22.2,53.58,44.41,81.45,65.26,27.74,20.76,56.49,40.28,86.89,56.95,16.97,9.31,34.48,17.69,52.52,24.73,1.2.47,1.68-1.43.53-1.92Z"/>
  <path class="cls-4" d="M1119.54,1381.04c-29.96-13.65-59.23-28.83-87.35-45.96-28.14-17.13-55.22-36.02-81.05-56.48-14.49-11.48-28.69-23.4-42.34-35.85-.86-.78-2.14.49-1.28,1.28,24.22,22.31,49.69,43.11,76.57,62.16,26.95,19.11,55.16,36.47,84.3,52.04,16.42,8.77,33.15,16.95,50.21,24.41,1.08.47,2.03-1.11.94-1.61Z"/>
  <path class="cls-4" d="M1099.91,661.4c-3.88,4.28-8.87,6.9-14.71,7.13-6.06.25-11.88-2.18-16.74-5.65-5.38-3.84-9.57-9.12-13.23-14.56-3.53-5.26-7.86-11.06-8.64-17.53-.18-1.46-2.44-1.54-2.34,0,.46,7.28,4.93,13.73,8.88,19.6,4.01,5.96,8.64,11.59,14.62,15.67,5.41,3.69,12.06,6.05,18.67,5.44,5.98-.55,12.21-3.33,15.39-8.65.69-1.15-.96-2.49-1.89-1.46Z"/>
  <path class="cls-4" d="M657.85,625.81c-7.17,7.51-16.29,13.06-26.27,15.94-4.97,1.44-10.3,2.4-15.48,2.15-5.31-.25-11.2-2.88-12.12-8.7-.18-1.14-2.05-.87-2,.27.23,5.57,4.7,9.49,9.91,10.72,5.68,1.34,12.01.36,17.6-.99,11.52-2.78,22.01-9.03,29.99-17.79.98-1.08-.59-2.68-1.61-1.61Z"/>
  <path class="cls-3" d="M646.92,440.66c-5.27.52-10.82-1.87-13.8-6.31-2.3-3.42-2.9-7.67-1.95-11.58.64-1.4,1.22-2.85,1.74-4.32.41-1.18-1.35-1.85-1.97-.83-.93,1.52-1.58,3.19-2,4.91-4.42,9.22-12.34,16.78-21.59,21.01-.6.27-.72.79-.58,1.27-.75.31-1.14,1.55-.23,2.18,7.84,5.39,11.65,15.6,9.71,24.85-.3,1.43,1.81,2.04,2.21.61,3.89-13.96,14.93-25.37,28.73-29.78,1.03-.33.92-2.11-.27-1.99ZM618.91,464.74c-.64-7.39-4.36-14.31-10.26-19.07,8.44-3.88,15.17-10.14,19.84-17.87.19,2.73,1,5.42,2.56,7.75,2.51,3.74,6.42,6.15,10.71,6.95-10.01,4.37-18.2,12.39-22.86,22.24Z"/>
  <path class="cls-3" d="M680.91,136.45c-4.44,1.24-8.93-1.73-10.84-5.69-2.44-5.05-.83-11.12,1.38-15.95.54-1.17-1.16-2.21-1.76-1.03-6.72,13.19-19.15,22.58-32.73,27.79-1.96-.63-3.06,1.27-1.81,2.07,8.15,5.22,12.29,15.27,9.15,24.62-.43,1.28,1.57,2.13,2.19.92,7.3-14.2,19.94-25.3,35.01-30.61,1.33-.47.8-2.52-.59-2.13ZM647.71,162.35c.16-7.28-3.08-14.73-8.91-19.09,11.56-3.83,21.09-11.69,28.14-21.41-.62,3.59-.37,7.27,1.44,10.55,1.6,2.91,4.3,5.17,7.39,6.09-11.42,5.09-21.22,13.4-28.06,23.86Z"/>
  <path class="cls-3" d="M1081.2,173.74c-.6.17-1.19.36-1.78.55-3.55.49-7.18-2.51-8.2-5.84-1.08-3.54.22-7.19,2.32-10.15.82-.92,1.63-1.87,2.44-2.84.87-1.05-.5-2.5-1.52-1.52-1.3,1.24-2.51,2.72-3.49,4.35-6.03,6.47-14.34,10.79-22.65,13.41-.4-.35-.8-.7-1.24-1.03-1.07-.79-2.35.93-1.4,1.82,1.79,1.69,3.44,3.26,4.66,5.42,1.19,2.09,1.99,4.39,2.42,6.76.87,4.84.12,9.84-2.35,14.11-.68,1.32,1.25,2.47,2,1.17,5.89-11.38,16.2-20.03,28.4-23.88.23-.06.45-.14.68-.22,1.62-.67.83-2.42-.29-2.11ZM1055.15,191.35c.74-6.33-.94-13.09-5.05-17.87,4.83-1.3,9.5-3.57,13.61-6.35,1.9-1.28,3.64-2.69,5.28-4.19-.6,2.42-.55,4.95.52,7.35,1.15,2.58,3.31,4.57,5.82,5.5-7.95,3.34-14.94,8.74-20.19,15.56Z"/>
</svg>