<?xml version="1.0" encoding="UTF-8"?>
<svg id="_Layer_" data-name="&amp;lt;Layer&amp;gt;" xmlns="http://www.w3.org/2000/svg" viewBox="0 0 1394.53 1556.21">
  <defs>
    <style>
      .cls-1 {
        fill: #d4dcff;
      }

      .cls-2 {
        fill: #fff;
      }

      .cls-3 {
        fill: #111445;
      }

      .cls-4 {
        fill: #070a3d;
      }

      .cls-5 {
        fill: #44c2d9;
      }

      .cls-6 {
        fill: #70cbdb;
      }

      .cls-7 {
        fill: #fa9265;
      }

      .cls-8 {
        fill: #3f59a6;
      }

      .cls-9 {
        fill: #d37d58;
      }
    </style>
  </defs>
  <path class="cls-4" d="M1256.41,495.33c-1.76,12.73-3.69,25.92-9.8,37.41-2.95,5.53-6.92,10.48-11.91,14.27-5.21,3.93-11.33,6.51-17.65,7.96-12.88,2.95-26.5,1.66-39.2-1.48-12.67-3.13-24.78-8.45-35.9-15.25-22.97-14.07-41.8-34.11-56.68-56.4-16.98-25.42-29.27-53.52-41.28-81.52-3.03-7.06-6.06-14.14-9.14-21.18-3.09-7.08-6.35-14.11-9.06-21.34-2.69-7.19-4.8-14.65-5.42-22.33-.64-7.83.6-15.64,2.72-23.18,2.16-7.62,5.05-15.07,7.88-22.47,2.69-7.04,5.64-14.04,9.56-20.5,6.8-11.25,17.18-21.21,30.5-23.79.61-.11.98.45.92.92.24-.08.44-.14.63-.19-.61-1.26-1.24-2.51-1.84-3.8-.4-.84.85-1.58,1.26-.73.65,1.39,1.34,2.76,2.06,4.13.81.08.98.68.64.97,1.72,3.4,3.71,6.67,5.85,9.83,13.44,19.75,32.39,34.9,50.87,49.63,18.6,14.83,37.67,29.68,52.16,48.76,8.28,10.91,14.01,23.23,20.31,35.32,3.31,6.32,6.84,12.57,11.16,18.28,4.14,5.48,9.12,10.17,14.3,14.65,9.77,8.43,20.39,16.7,25.37,29.03,5.51,13.62,3.63,28.86,1.68,43.01Z"/>
  <path class="cls-4" d="M1132.41,316.35c-11.7-12.99-21.79-27.29-31.74-41.64-9.85-14.22-19.6-28.55-30.72-41.83-9.99-11.91-21.3-22.83-34.11-31.69-12.4-8.58-26.37-15.22-41.27-17.96-15.83-2.9-32.05-.98-47.01,4.82-15.09,5.84-28.81,15.17-40.17,26.63-10.98,11.11-19.8,24.44-25.02,39.2-4.93,13.88-6.63,28.64-6.56,43.33-2.6,17.74-4.15,35.66-2.8,53.51,1.6,21.16,7.6,42.6,20.21,59.92,1.71,2.35,3.53,4.62,5.47,6.79.79.88,1.6,1.75,2.44,2.59.68,1.76,1.36,3.52,2.06,5.27.14.37.55.44.82.29.03,3.08,1.8,5.98,4.3,8.09,4.47,12.04,10.85,23.28,20.23,32.32,7.85,7.58,17.41,12.85,27.98,15.52,11.3,2.85,23.12,3.05,34.67,2.31,11.48-.74,23.02-2.56,33.84-6.58,10.2-3.77,19.41-9.54,27.18-17.15,7.58-7.41,13.72-16.23,18.72-25.55,5.29-9.87,9.45-20.36,12.4-31.16,4.67-17.14,6.25-35.43,3.24-53,14.49-8.16,28.39-17.43,40.88-28.44,1.68-1.48,3.34-2.98,4.95-4.51.32-.31.27-.79,0-1.08ZM894.94,410.4c-6.14-8.31-10.76-17.67-14.04-27.45-7.23-21.54-7.83-44.48-5.81-66.93.28-3.14.63-6.28,1-9.41.92,17.84,3.65,35.67,7.33,53.1,3.8,17.97,8.79,35.74,15.01,53.03.43,1.19.88,2.38,1.32,3.57-1.69-1.9-3.3-3.87-4.81-5.91Z"/>
  <path class="cls-8" d="M1330.21,778.08c-8.66,8.91-20.75,13.88-32.3,17.81-13.86,4.74-28.26,7.69-42.77,9.54-30.64,3.92-61.85,3.38-92.67,2.9-32.14-.48-73.85-51.41-105.93-53.77-31.18-2.31-52.74,44.1-83.74,39.94-27.15-3.64-54.23-8.29-80.73-15.28-26.18-6.92-51.87-16.15-75.8-28.94-23.74-12.7-45.23-29-63.96-48.33-37.42-38.59-63.38-86.29-87.77-133.72-.45.18-1.03-.27-.71-.76-.31-1.21.53-1.84,1.08-1.55,6.72-9.79,13.96-19.2,21.78-28.13,34.45-39.37,78.41-70.03,126.28-90.79,43.73-18.97,90.67-29.77,138.13-33.84.53-.05,1.06-.1,1.6-.14-3.19,12.7-2.22,26.52,2.64,38.59,8.66,21.47,27.9,37.41,48.99,45.96,25.07,10.16,52.97,10.82,78.67,2.66,24.5-7.79,46.28-22.5,65-39.9,5.66-5.25,11.06-10.77,16.25-16.44.48.21.95.44,1.42.66,19.33,9.22,37.53,20.67,53.92,34.5,20.21,17.04,37.58,37.29,52.18,59.29,32.08,48.39,49.99,104.52,60.9,161.15,2.77,14.44,5.55,29.05,7.11,43.69,1.37,12.82-.26,25.29-9.56,34.88Z"/>
  <path class="cls-7" d="M1164.23,443.91c-5.19,5.67-10.59,11.19-16.25,16.44-18.71,17.39-40.49,32.11-65,39.9-25.69,8.16-53.6,7.5-78.67-2.66-21.09-8.54-40.33-24.49-48.99-45.96-4.87-12.07-5.84-25.89-2.64-38.59,11.19-.92,22.39-1.48,33.59-1.68,55.81-1.02,113.23,5.59,165.2,26.92,4.3,1.76,8.56,3.63,12.75,5.63Z"/>
  <polygon class="cls-7" points="1121.23 410.28 1030.33 455.42 1013.14 429.08 982.8 382.59 1000.47 370.53 1051.96 335.37 1121.23 410.28"/>
  <path class="cls-9" d="M1056.63,359.47c-.19,1.68-.4,3.35-.71,5.01-2.98,16.44-10.35,32.03-20.89,44.97-5.37,6.59-11.59,12.59-18.57,17.46-1.08.76-2.19,1.48-3.32,2.16l-30.34-46.49,17.67-12.06c.87-.5,1.72-.97,2.59-1.43,8.56-4.63,17.57-8.85,26.87-11.77,8.61-2.69,18.96-3.97,27.16.69.76.43.26,1.52-.47,1.45Z"/>
  <path class="cls-7" d="M1069.71,257.48c11.55,49.92,6.99,126.05-66.71,144.92-69.97,17.91-102.52-53.16-114.07-103.08-11.55-49.92,19.55-99.76,69.47-111.31,49.92-11.55,99.76,19.55,111.31,69.47Z"/>
  <polygon class="cls-7" points="907.09 330.89 898.44 379.47 938.21 379.47 907.09 330.89"/>
  <path class="cls-1" d="M1052.88,1241.93c-9.28,25.87-40.19,23.9-69.34,25.64-46.41,2.78-92.91,3.83-139.32,5.69-93.83,3.94-187.67,7.89-281.41,11.72-94.21,3.95-188.42,7.89-282.62,11.95-22.83.93-65.9,2.2-88.73,2.78-18.56.46-47.89-4.52-49.75-49.08-4.64-113.59-3.62-274.28-8.72-388.1-1.39-57.2-3.06-114.4-3.06-171.6.37-28.19-.09-56.39.28-84.58.09-8.47,0-18.22.37-28.08.19-3.13.37-28.83.65-31.97,76.48-1.04,152.96-2.2,229.44-3.6,228.32-4.29,456.56-10.21,684.79-17.87.46,2.79.93,28.14,1.2,31.04,1.21,11.02,1.12,22.28,1.3,33.07.28,29.93.65,59.87.93,89.8.65,60.45,1.3,120.9,1.95,181.34,0,62.65.74,125.42,1.58,188.07.28,24.83.74,49.66,1.76,74.37.93,23.44-.84,38.87-.28,68.45.19,10.33,1.86,42.93-1.02,50.93Z"/>
  <g>
    <path class="cls-8" d="M555.28,587.29c34.02-.83,68.06-1.33,102.08-2.32.59-.02.6-.93,0-.93-60.63.7-121.27,2.64-181.88,4.25-60.31,1.6-120.62,3.43-180.92,5.5-34.02,1.17-68.03,2.36-102.04,3.81-.63.03-.63,1,0,.98,60.61-2.04,121.21-4.29,181.82-6.2,60.31-1.9,120.62-3.62,180.94-5.08Z"/>
    <path class="cls-8" d="M330.6,611.88c-29.04,1.25-58.06,2.88-87.06,4.9-16.28,1.13-32.54,2.4-48.79,3.84-.64.06-.65,1.06,0,1.01,29.12-2.29,58.26-4.39,87.42-6.07,29.02-1.67,58.06-2.98,87.11-3.92,16.3-.53,32.61-.92,48.92-1.28.64-.01.65-1.01,0-1-29.21.36-58.42,1.27-87.6,2.53Z"/>
    <path class="cls-8" d="M486.08,611.33c-16.17.17-32.35.19-48.52.22-.63,0-.63.97,0,.98,28.82.36,57.64.06,86.45-.55,28.81-.61,57.62-1.61,86.4-3.02,16.15-.79,32.31-1.63,48.45-2.64.76-.05.76-1.23,0-1.18-28.77,1.8-57.54,3.24-86.35,4.25-28.8,1.01-57.61,1.65-86.43,1.95Z"/>
    <path class="cls-8" d="M663.82,623.01c-60.98,5.04-121.97,9.39-183.09,12.32-60.79,2.92-121.64,4.69-182.5,5.31-34.16.34-68.31-.02-102.47.06-.72,0-.72,1.1,0,1.12,30.72.76,61.5.51,92.22.26,30.43-.25,60.86-.78,91.28-1.61,60.84-1.65,121.65-4.48,182.38-8.46,34.08-2.24,68.16-4.69,102.17-7.77.78-.07.79-1.29,0-1.23Z"/>
    <path class="cls-8" d="M339.77,660.41c-18.89.59-37.78,1.37-56.67,2.08-18.89.71-37.78,1.42-56.67,2.14-10.58.4-21.18.71-31.75,1.31-.69.04-.7,1.09,0,1.08,18.89-.34,37.79-1.3,56.67-2.01,18.89-.71,37.78-1.41,56.67-2.12,10.59-.4,21.17-.78,31.75-1.25.78-.03.79-1.25,0-1.22Z"/>
    <path class="cls-8" d="M576.19,653.21c-7.16-.54-14.43-.37-21.61-.43-7.06-.06-14.12-.1-21.18-.09-14.12.02-28.24.21-42.35.55-28.22.68-56.45,1.96-84.61,3.98-15.95,1.14-31.91,2.41-47.81,4.08-.66.07-.68,1.11,0,1.05,28.28-2.36,56.57-4.5,84.92-5.9,28.2-1.39,56.44-2.16,84.67-2.34,7.92-.05,15.85-.05,23.77,0,4.03.02,8.07.07,12.1.12,4.03.05,8.07.22,12.1.08.7-.03.69-1.02,0-1.08Z"/>
    <path class="cls-8" d="M660.02,649.26c-4.26-.17-8.53.03-12.78.15-4.19.12-8.39.28-12.58.46-8.45.38-16.89.88-25.32,1.52-4.78.36-9.56.77-14.33,1.21-.84.08-.85,1.41,0,1.33,16.84-1.57,33.73-2.63,50.63-3.15,4.79-.15,9.6-.12,14.38-.45.68-.05.69-1.04,0-1.07Z"/>
  </g>
  <path class="cls-5" d="M980.83,656.98c-.32,6.95-.9,13.9-2.16,20.73-2.16,11.65-6.58,23.08-14.43,32.09-3.77,4.34-8.32,7.98-13.48,10.53-5.84,2.87-12.2,4.34-18.62,5.22-6.69.92-13.44,1.29-20.17,1.8-7.41.55-14.83,1.11-22.24,1.68-14.94,1.11-29.87,2.24-44.8,3.37-29.76,2.24-59.52,4.47-89.29,6.71-12.52.94-26.29,2.89-38.06-2.72-8.72-4.16-14.93-12.82-17.3-21.99-3.09-11.94-5.88-24.07-6.43-36.43-.82-18.31,3.34-41.65,21.28-50.86,9.59-4.92,20.79-4.72,31.27-5.22,15.04-.74,30.08-1.47,45.12-2.19,29.81-1.43,59.6-2.87,89.4-4.3,8.35-.4,16.7-.81,25.07-1.21.32-.58.66-1.18,1-1.76,8.72-15.3,17.44-30.58,26.16-45.86.37-.64,1.43-.21,1.21.52-1.84,5.87-3.47,11.8-4.9,17.76-2.26,9.38-3.98,18.89-5.22,28.47.5-.03,1.02-.05,1.53-.08,7.41-.35,14.85-.73,22.26-1.08,5.67-.27,11.53-.43,17.05,1.06,5.14,1.39,9.61,4.45,12.3,9.09,2.69,4.63,3.53,10.11,3.77,15.36.31,6.42-.05,12.91-.34,19.31Z"/>
  <path class="cls-6" d="M986.72,849.55c-1.1,7.25-2.18,14.52-3.27,21.79-1,6.59-1.85,13.22-3.08,19.78-1,5.35-2.42,10.78-5.3,15.46-2.85,4.66-7.06,8.01-12.11,10.03-5.4,2.18-11.28,2.85-17.04,3.38-7.27.68-14.54,1.32-21.81,1.97-29.19,2.63-58.4,5.14-87.66,7.08-8.87.6-17.75,1.13-26.63,1.6-7.95,11.82-15.89,23.63-23.83,35.46-.42.63-1.29.08-.98-.58,1.64-3.64,3.16-7.33,4.55-11.07,2.79-7.54,5.01-15.28,6.71-23.15-15.86.73-31.74,1.23-47.62,1.42-7.4.08-14.8.11-22.2.05-5.79-.03-11.65-.06-17.35-1.35-5.35-1.23-10.4-3.74-13.91-8.08-3.35-4.16-5.08-9.33-5.98-14.54-1.05-6.01-1.21-12.17-1.39-18.26-.43-14.95-2.21-30.47.26-45.31,2.73-16.42,11.62-31.05,28.62-35.1,6.5-1.56,13.19-2.4,19.81-3.16,28.74-3.27,57.81-2.06,86.66-1.43,29.39.63,58.77,1.27,88.16,1.9,14.23.31,28.5.35,42.7.98,9.38.4,20.07,1.64,27.42,8.11,9.62,8.48,6.95,21.83,5.27,33.03Z"/>
  <path class="cls-5" d="M990.87,1093.77c-.56,5.34-1.82,10.65-4.51,15.35-2.53,4.45-6.27,8.08-10.56,10.83-9.95,6.38-21.97,7.71-33.5,8.42-26.78,1.66-53.57,3.08-80.34,4.63-26.84,1.53-53.7,3.06-80.53,4.59-6.34.35-12.69.85-19.02,1.02-5.34.13-10.87-.16-15.83-2.24-9.3-3.9-13.33-13.41-14.99-22.75-.98-5.5-1.35-11.11-1.71-16.68-.4-6.58-.6-13.18-.58-19.78.06-26.44,2.9-51.17,34.19-54.99,5.16-.63,10.33-.82,15.51-1.03,6.72-.26,13.44-.52,20.17-.77,13.46-.52,26.9-1.03,40.35-1.56,26.9-1.03,53.79-2.06,80.7-3.11,2.39-.08,4.77-.18,7.17-.27,5.98-11.69,11.96-23.36,17.94-35.04.27-.53,1.23-.31,1.18.31-.42,4-.82,8-1.23,11.99-.76,7.38-1.48,14.77-2.24,22.15,5.84-.23,11.67-.45,17.51-.68,8.98-.34,20.76-1.05,26.45,7.46,2.92,4.37,3.24,9.88,3.35,14.97.16,6.61.27,13.22.42,19.83l.4,20.04c.11,5.77.31,11.57-.29,17.33Z"/>
  <path class="cls-2" d="M966.97,1074.61c-4.09,4.57-10.48,6.72-16.51,6.1-3.1-.32-6.25-1.42-8.73-3.34-.4-.31-.79-.66-1.17-1.04,1.01-.57,2-1.19,2.92-1.91,2.41-1.92,5.02-5.37,2.9-8.45-1.51-2.2-4.66-2.14-6.82-1.02-2.8,1.45-3.8,4.49-2.98,7.46.36,1.33,1.02,2.54,1.86,3.62-1.58.83-3.17,1.65-4.78,2.43-3.81,1.86-7.69,3.57-11.63,5.12-6.8,2.69-15.55,5.95-22.61,2.28-2.3-1.19-4.29-3.11-5.54-5.41.66-.5,1.32-1.01,1.95-1.54,1.52-1.27,3.12-2.59,4.35-4.16.99-1.27,1.66-2.96.88-4.52-.67-1.35-2.21-2.16-3.69-2.18-3.56-.05-5.76,3.79-6.04,6.93-.16,1.75.22,3.49.92,5.09-.57.41-1.15.81-1.73,1.2-5.73,3.8-12.17,6.51-18.88,8-6.74,1.5-13.8,1.77-20.62.63-6.16-1.03-13.81-3.91-14.87-10.81,1.3-1.24,2.55-2.54,3.7-3.92.25-.3.25-.77-.13-.98-.92-.52-1.85-1.03-2.77-1.55-.3-.17-.67-.07-.85.22-1.1,1.75-1.45,3.76-1.26,5.74-3.44,3.17-7.35,5.82-11.62,7.8-3.05,1.42-6.28,2.49-9.58,3.16-3.68.75-7.83.98-11.27-.79-3.18-1.63-5.67-5.17-4.92-8.85.15-.75-.97-1.08-1.16-.32-1.16,4.45-4.74,8.88-9.83,8.09-2.12-.33-4-1.67-4.56-3.81-.16-.61-.2-1.25-.14-1.87.79-1.16,1.51-2.37,2.16-3.62.28-.54-.3-1.23-.87-.87-1.44.92-2.27,2.41-2.51,4.03-5.69,8.26-14.8,13.96-24.79,15.33-.8.11-.46,1.32.33,1.21,9.68-1.33,18.6-6.69,24.49-14.42.43,2.47,2.26,4.33,4.66,5.04,4.91,1.45,9.01-1.69,11.11-5.81.42,1.98,1.51,3.81,3.03,5.21,2.74,2.53,6.51,3.36,10.16,3.22,7.45-.3,15.03-3.53,21.1-7.72,1.56-1.08,3.05-2.27,4.47-3.53.23.96.57,1.9,1.03,2.78,1.78,3.38,5.11,5.53,8.61,6.82,3.83,1.41,8.01,1.97,12.06,2.19,3.99.22,8-.03,11.94-.67,7.93-1.29,15.61-4.26,22.3-8.72.61-.4,1.2-.84,1.79-1.26.56.99,1.23,1.92,1.99,2.74,6.1,6.59,15.72,5.11,23.35,2.47,4.44-1.54,8.8-3.39,13.06-5.37,2.25-1.05,4.48-2.14,6.67-3.3.47-.25.93-.49,1.4-.74,1.37,1.43,3.05,2.58,4.79,3.39,6.28,2.93,14.17,2.31,19.96-1.5,1.44-.95,2.71-2.08,3.86-3.36.57-.64-.37-1.58-.94-.94ZM836.9,1074.02c.51.29,1.03.58,1.54.87-.77.89-1.57,1.74-2.4,2.57.01-1.21.3-2.37.85-3.43ZM893.25,1079.11c-1.09-2.82-.9-6.3,1.35-8.53,1.22-1.21,3.12-1.76,4.6-.66,1.8,1.35.63,3.43-.58,4.72-1.6,1.7-3.41,3.23-5.3,4.64-.02-.06-.06-.11-.08-.17ZM937.88,1068.58c.76-2.17,3.64-3.64,5.85-3.06,1.33.35,2.17,1.49,2.23,2.86.08,1.72-1.14,3.22-2.33,4.32-1.18,1.1-2.54,1.91-3.95,2.67-1.59-1.93-2.65-4.39-1.81-6.79Z"/>
  <path class="cls-2" d="M640.35,1163.46c-.4.02-.79.02-1.18.02-67.11,1.02-134.22,2.16-201.31,3.42-77.59,1.47-155.16,3-232.74,4.75-.44,0-.87,0-1.31.03-.03-.32-.05-.65-.05-.98-.76-15.41-1-30.89-1.5-46.31-.58-18.59-1.18-37.17-1.76-55.76-.6-18.97-1.21-37.95-1.8-56.92-1.5-46.92-2.98-93.85-4.45-140.76-1.9-60-3.79-120.01-5.67-180-.02-.45-.03-.89-.05-1.34h1.42c13.19.1,26.36.18,39.53.23,91.14.37,182.3.02,273.43-1.08,42.54-.52,85.08-1.24,127.61-2.1.35,0,.71,0,1.08-.02,0,.45.02.9.02,1.35.77,40.72,1.53,81.42,2.27,122.14,1.1,59.69,2.19,119.4,3.27,179.09,1.06,57.69,2.11,115.37,3.16,173.06.02.39.02.77.03,1.16Z"/>
  <path class="cls-8" d="M639.35,1109.17c-1.61-3.19-3.3-6.34-5.11-9.43-7.29-12.48-16.14-24.02-26.26-34.3-5.01-5.09-10.33-9.88-15.93-14.31-2.85-2.27-5.77-4.43-8.77-6.51-1.5-1.05-3.01-2.06-4.55-3.06-.74-.48-1.48-.95-2.24-1.43-.58-.35-1.47-.68-1.76-1.32-.42-.92-.48-2.21-.69-3.18-.21-.94-.43-1.87-.66-2.79-.48-2.05-1.02-4.08-1.56-6.11-.76-2.77-1.58-5.55-2.47-8.3.48-.11.97-.23,1.45-.34,22.36-5.3,44.52-11.06,66.56-17.07.02.42.02.85.03,1.27.63,34.45,1.26,68.88,1.89,103.33.03,1.19.05,2.37.06,3.56Z"/>
  <path class="cls-3" d="M640.35,1163.46c-.4.02-.79.02-1.18.02-67.11,1.02-134.22,2.16-201.31,3.42-15.14.29-30.27.58-45.43.87-.45,0-.9.02-1.35.02-30.5.6-61,1.19-91.5,1.84-.26-.29-.1-.61.06-.92,6.16-12.14,11.54-24.68,15.31-37.77,3.77-13.09,6.01-26.61,6.96-40.2.95-13.72.61-27.5-.77-41.19-1.37-13.62-3.77-27.11-6.96-40.43-.4-1.69-.82-3.37-1.32-5.05-.06-.21-.19-.32-.34-.37-1.31-6.21-2.89-12.36-4.75-18.43-3-9.77-6.92-19.54-12.28-28.32.4-.16.82-.29,1.23-.42,5.32-1.85,10.64-3.61,15.94-5.3.43-.15.87-.27,1.31-.4,2.34,2.89,4.5,5.92,6.59,8.95,5.87,8.53,11.38,17.31,16.57,26.28,10.27,17.73,19.17,36.27,26.71,55.32,1.55,3.92,3.03,7.85,4.45,11.8,24.47-2.77,48.81-6.05,72.99-9.82,30.5-4.74,60.74-10.27,90.68-16.59-.39-1.69-.79-3.4-1.21-5.09-3.53-14.3-8.12-28.34-13.73-41.96-5.51-13.36-11.98-26.63-21.33-37.75-3.48-4.14-7.38-7.98-11.67-11.32.81.11,1.61.21,2.42.32,6.46.82,13.12,1.77,19.84,2.82.79.11,1.6.24,2.39.37,6.19,5.48,12.07,11.3,17.63,17.41,10.43,11.43,19.73,23.89,27.73,37.14,5.75,9.54,10.82,19.49,15.14,29.76,1.08,2.71,1.9,5.48,2.66,8.25.55,2.03,1.08,4.06,1.56,6.11.23.92.45,1.85.66,2.79.21.97.27,2.26.69,3.18.29.64,1.18.97,1.76,1.32.76.48,1.5.95,2.24,1.43,1.53,1,3.05,2.01,4.55,3.06,3,2.08,5.92,4.24,8.77,6.51,5.59,4.43,10.91,9.22,15.93,14.31,10.12,10.28,18.97,21.83,26.26,34.3,1.81,3.09,3.5,6.24,5.11,9.43.32,17.72.64,35.41.97,53.13.02.39.02.77.03,1.16Z"/>
  <path class="cls-8" d="M317.93,1058.18c-29.42,2.51-58.95,4.29-88.55,5.35-9.66.35-19.33.61-29,.79-.56-17.54-1.13-35.08-1.68-52.62,10.38-11.22,21.79-20.92,34.11-27.77,14.23-7.92,30.68-15.14,47.73-21.59,4.95-1.87,9.93-3.68,14.94-5.4,5.37,8.79,9.29,18.55,12.28,28.32,6.69,21.86,9.82,44.75,10.14,67.56.03,1.79.03,3.56.02,5.35Z"/>
  <path class="cls-8" d="M531.96,1026.76c-29.94,6.32-60.18,11.85-90.68,16.59-24.18,3.77-48.52,7.04-72.99,9.82-1.42-3.95-2.9-7.88-4.45-11.8-7.54-19.05-16.44-37.59-26.71-55.32-5.19-8.96-10.7-17.75-16.57-26.28-2.1-3.03-4.26-6.06-6.59-8.95,6.98-2.22,13.9-4.3,20.65-6.24.47-.13.92-.26,1.37-.39,5.98,7.61,13.04,14.36,20.86,20.05,10.72,7.79,22.86,13.62,35.67,17.01,13.09,3.47,27.37,4.67,40.72,1.98,7.06-1.43,14.06-4.16,19.6-8.85,4.55-3.85,7.91-8.96,9.88-14.57,3.69-10.46,2.74-22.6-3.4-31.9.58.05,1.18.11,1.77.18,7.19.69,14.89,1.55,22.92,2.55,4.29,3.34,8.19,7.17,11.67,11.32,9.35,11.12,15.81,24.39,21.33,37.75,5.61,13.62,10.2,27.66,13.73,41.96.42,1.69.82,3.4,1.21,5.09Z"/>
  <path class="cls-8" d="M637.37,1001c-22.59,6.16-45.28,12.04-68.2,17.46-4.32-10.27-9.38-20.21-15.14-29.76-8-13.25-17.3-25.71-27.73-37.14-5.56-6.11-11.45-11.93-17.63-17.41,36.66,5.82,75.01,14.86,96.98,28.08,10.56,6.35,21.25,15.91,31.52,27,.06,3.92.14,7.85.21,11.77Z"/>
  <path class="cls-7" d="M462.72,959.81c-1.97,5.61-5.34,10.72-9.88,14.57-5.55,4.69-12.54,7.41-19.6,8.85-13.35,2.69-27.63,1.48-40.72-1.98-12.82-3.38-24.95-9.22-35.67-17.01-7.82-5.69-14.88-12.44-20.86-20.05,39.33-11.24,72.6-17.73,78.76-18.6,3.88-.55,21.31.1,44.57,2.32,6.14,9.3,7.09,21.44,3.4,31.9Z"/>
  <path class="cls-7" d="M738.76,515.9c-.52,4.22-4.19,7.14-7.53,9.32-4.16,2.69-8.72,4.96-13.69,5.63-4.71.63-9.32-.4-13.27-3.05-3.69-2.48-6.64-5.95-9.17-9.58-2.69-3.85-4.9-8.35-4.75-13.17.13-4.53,2.31-8.29,6.16-10.66,1.98-1.22,4.24-2.37,6.46-3.09,1.71-.55,3.51-.58,5.05.27,9.32,1.42,18.02,6.37,24.71,12.88,3.06,2.98,6.61,6.82,6.03,11.45Z"/>
  <path class="cls-5" d="M1045.45,524.85c-228.23,7.66-456.47,13.57-684.79,17.87-76.48,1.39-152.96,2.55-229.44,3.6,1.2-11.04,1.53-16.94,12.01-21.47,7.16-3.09,26.6-3.3,34.21-3.54,105.07-2.78,210.13-5.92,315.2-8.82,96.06-2.67,192.13-5.34,288.19-8.12,48.17-1.28,96.43-2.67,144.7-4.06,22.18-.58,44.78-1.88,67.01-1.16,21.63.7,38.56.97,44.74,6.07,6.98,5.76,6.5,10.46,8.17,19.63Z"/>
  <path class="cls-7" d="M1047.8,607.11c-.58,5.08-2.58,10.56-7.98,12.12-2.26.65-4.69.32-6.53-1.19-2.14-1.77-3.03-4.61-4.03-7.09-2.64-6.51-5.29-13.04-7.93-19.55-3.71-9.16-7.45-18.31-11.14-27.48-3.76-5.24-7.88-10.24-12.35-14.91-3.84-4.01-7.93-7.82-12.23-11.33-3.89-3.19-8.69-6.42-10.28-11.46-1.34-4.26.53-8.43,4.09-10.88,3.53-2.42,8.22-3.3,12.44-2.89,11.08,1.06,20.88,8.2,28.37,15.97,7.93,8.24,14.33,17.96,18.99,28.37,4.64,10.45,7.58,21.62,8.59,33,.52,5.74.65,11.61-.02,17.33Z"/>
  <path class="cls-7" d="M1084.76,555.93c-.11,1.15-.23,2.27-.37,3.4-.1.85-1.43.87-1.34,0,.06-.58.11-1.16.16-1.73-2.24,1.93-5.26,2.79-8.27,2.48-4.05-.4-7.92-2.52-10.54-5.61-3.01-3.55-4.55-8.09-5.19-12.64-1.47-10.16,1.47-20.68-1.6-30.64-1.39-4.5-4.01-8.43-8.08-10.88-4.11-2.5-8.9-3.47-13.46-4.77-4.43-1.26-9.06-2.9-12.4-6.21-2.84-2.82-4.67-7.01-4.05-11.06,1.42-9.01,12.77-9.56,19.83-8.56,16.73,2.39,30.71,15.04,38.08,29.81,6.95,13.94,8.62,29.66,8.01,45.15.31,1.79-.2,3.72-.38,5.45-.33,3.22,1.46,3.21-.41,5.8Z"/>
  <path class="cls-7" d="M1067.92,563.87c-1.66,3.45-5.13,6.17-8.98,6.56-3.97.39-7.11-2.21-8.93-5.53-1.97-3.56-2.95-7.66-4.42-11.45-1.66-4.27-3.58-8.45-5.71-12.51-8.45-16.12-20.41-30.21-34.82-41.3-.77-.6-.02-1.93.77-1.34.64.48,1.26,1.02,1.9,1.5-2.48-2.37-4.95-4.75-7.41-7.14-2.74-2.63-7.08-5.92-4.98-10.22,1.55-3.19,5.55-4.79,8.87-5.08,4.77-.42,9.59.61,14.02,2.37,8.27,3.27,15.8,8.77,22.29,14.8,6.27,5.8,11.72,12.53,16.15,19.83,4.42,7.25,7.84,15.14,10.09,23.33,1.15,4.14,1.98,8.38,2.5,12.64.55,4.53.66,9.33-1.35,13.54Z"/>
  <path class="cls-9" d="M1022.95,487c-.24-2.45-1.81-4.61-3.62-6.19-3.58-3.12-8.74-4.67-13.42-3.54-2.41.58-4.8,2.1-5.53,4.6-.2.69-.26,1.47-.18,2.23-.03,3.58,3.94,7.03,6.83,8.42,3.88,1.87,8.76,2.17,12.63.08,2.1-1.13,3.52-3.17,3.28-5.61ZM1019.18,490.88c-2.95,1.83-6.85,1.78-10.05.68-1.8-.62-3.47-1.65-4.84-2.98-.35-.35-.73-.75-1.09-1.2.26-.27.32-.77.04-1.08-1.11-1.2-1.65-2.58-1.05-4.19.66-1.74,2.49-2.69,4.2-3.1,3.72-.9,7.84.2,10.88,2.42,2.89,2.11,6.07,6.87,1.91,9.45Z"/>
  <path class="cls-7" d="M1036.32,515.76c-6.5-7.98-14.09-15.02-22.21-21.33-4.03-3.13-8.21-6.46-13.11-8.09-4.09-1.37-8.98-1.23-12.59,1.37-3.74,2.68-4.79,7.32-3.58,11.62,1.34,4.8,4.98,8.25,8.85,11.14,4,2.98,8.08,5.75,11.83,9.04,3.61,3.18,6.98,6.59,10.09,10.24,7.53,8.83,13.46,18.92,17.63,29.69.18,4.61,1,9.19,2.4,13.59.92,2.89,2.06,5.85,3.5,8.64.34,2.34.6,4.67.79,7.03.05.71,1.14.73,1.11,0-.08-1.42-.19-2.84-.34-4.24.58.94,1.19,1.85,1.85,2.72,1.27,1.66,3.01,3.09,5.22,3.06,1.9-.03,3.48-1.19,4.61-2.64,2.84-3.69,3.37-8.95,3.82-13.43,2.11-21.31-6.61-42.14-19.89-58.42ZM1035.52,565.94c.84,2.68,1.58,5.38,2.19,8.12-.93-2.66-1.66-5.37-2.19-8.12Z"/>
  <path class="cls-8" d="M1267.1,540.59c8.09,3.05,46.52,81.23,59.21,138.66,12.68,57.43,20.42,79.76,19.88,210.86-.54,131.11-47.06,180.5-106.39,176.78-59.33-3.72-112.84-45.06-121.97-249.55-9.13-204.49,149.28-276.75,149.28-276.75Z"/>
  <path class="cls-8" d="M1261.29,1064.06c-56.05,16.81-95.56-5.32-143.69-105.59-.23-.47-.45-.94-.66-1.4,11.83-1.16,23.36-4.74,33.93-10.11,11.38-5.75,21.7-13.54,30.58-22.66,9.28-9.56,16.85-20.62,22.79-32.53,6.35-12.67,10.82-26.23,13.83-40.06,1.32-6.06,2.35-12.15,3.13-18.31.37.61.74,1.21,1.13,1.82,30.76,50.05,56.58,92.42,60.98,101.65,11.28,23.63,38.99,108.89-22.02,127.19Z"/>
  <path class="cls-7" d="M1221.2,833.4c-.77,6.16-1.8,12.25-3.13,18.31-3.01,13.83-7.48,27.39-13.83,40.06-5.95,11.91-13.51,22.97-22.79,32.53-8.88,9.12-19.2,16.91-30.58,22.66-10.57,5.37-22.1,8.95-33.93,10.11-4.08-8.5-8.19-17.57-12.4-27.21-54.29-124.64-80.21-273.48-80.21-273.48l61.34-75.33s2.9,29.37,18.88,60.42c9.66,18.76,68.85,114.18,116.66,191.92Z"/>
  <path class="cls-7" d="M1092.9,672.25c-1.19,4.64-3.95,8.59-7.99,11.19-3.89,2.48-8.5,3.63-13.03,4.26-5.03.68-10.16.81-15.22.74-10.45-.14-21.23-2.09-29.11-9.46-7.14-6.67-10.93-16.31-12.38-25.82-1.87-12.35,0-24.82.82-37.17,1.52-23-1.74-46.28-9.59-67.96l-1.98.63c-.98.32-1.4-1.23-.42-1.55.61-.21,1.23-.39,1.84-.6-.31-.81-.6-1.63-.92-2.45-.31-.76.92-1.08,1.21-.34.32.81.63,1.6.94,2.4,4.72-1.55,9.46-3.01,14.23-4.38,20.58-5.9,41.61-10.19,62.85-12.86.45-.06.77.4.81.81.21,3.21.43,6.43.64,9.64l5.27,77.99c.87,12.99,1.76,26,2.63,38.99.37,5.29.74,10.75-.6,15.96Z"/>
  <path class="cls-7" d="M734.22,504.54c-.37.11-.76.24-1.13.39-.29-.27-.56-.53-.85-.81-.02.31-.21.63-.63.68-1.52.1-3.01.26-4.51.5-12.06,1.9-23.37,7.85-31.92,16.54-2.14,2.18-4.11,4.51-5.85,7.01-1.87,2.68-3.4,5.51-4.9,8.4-1.58,2.97-3.32,5.88-6.09,7.88-2.42,1.76-5.56,2.6-8.46,1.58-2.71-.95-4.88-3.16-6.09-5.74-1.48-3.14-1.52-6.72-.93-10.11,1.11-6.58,4.05-13.07,7.58-18.72.44-.66.85-1.32,1.31-1.98-2.87,2.93-5.46,6.11-7.74,9.51-1.74,2.58-3.29,5.29-4.63,8.11-1.27,2.69-2.27,5.48-3.32,8.27-1.79,4.69-4.14,10.25-9.24,12.15-5.75,2.13-11.69-2.08-13.83-7.33-.66-1.64-1.05-3.38-1.19-5.16-.63,1.16-1.26,2.3-1.85,3.47-2.81,5.42-6.69,11.48-13.46,11.86-6.45.35-10.11-6.01-9.99-11.77.06-3.47,1.13-6.85,2.27-10.09,1.05-2.95,2.26-5.84,3.64-8.62-3.64.69-7.42,1.9-11.06,3.38-3.13,1.27-6.17,2.74-9.12,4.38-2.81,1.55-5.48,3.4-8.48,4.55-2.66,1.02-5.67,1.31-8.27-.06-2.05-1.08-3.47-3.08-4.22-5.22-1.82-5.22.5-10.43,4.14-14.22,4.06-4.24,9.45-7.43,14.67-9.99,5.37-2.61,11.07-4.56,16.91-5.8,8.45-1.77,17.2-2.05,25.73-.81,1.5-.95,3.03-1.84,4.63-2.63,8.91-4.35,19.54-5.87,29.13-3.19,8.96-2.55,18.62-2.52,27.57.16,2.39-1,4.87-1.72,7.43-2.1,6.53-.95,12.88.71,18.54,3.98,5.3,3.09,9.87,7.29,14.25,11.54Z"/>
  <path class="cls-4" d="M582.29,845.1c-12.8,5.29-26.76,7.45-40.56,6.22,1.69,3.68,3.16,7.45,4.32,11.3,4.53,14.94,5.01,31.03,1.35,46.2-.11.5-.71.58-1.05.29-3.26-2.87-6.61-5.63-10.04-8.25-11.43-8.75-23.84-16.17-36.9-22.21.13,5.03-.5,10.06-1.85,14.91-5.16,18.38-20.2,33.96-38.87,38.62-.68.16-1.13-.66-.66-1.16,1.31-1.42,2.37-3.05,3.11-4.82,2.95-7.09,1.18-15.6-2.64-22-4.5-7.51-11.45-13.09-17.84-18.89-12.69-11.48-22.97-25.28-30.82-40.46-8.08-15.65-13.62-32.51-17.17-49.73-4.01-19.47-5.58-39.36-5.98-59.21-.11-5-.13-9.99-.11-14.99.02-4.76.21-9.54-.4-14.28-.98-7.53-5.14-16.27-13.27-17.86-.21.14-.52.19-.77-.02-.5-.21-.68-.34-.79-.52-1.68-.84-3.82-.63-5.51.1-6.83,6.17-13.01,12.78-18.59,19.88-.39.5-1.26-.18-.87-.68,1.42-1.89,2.87-3.76,4.38-5.58,2.61-3.13,5.38-6.11,8.24-9.01-.18-.24-.23-.6.03-.89,1.64-1.89,3.61-3.79,5.92-4.87,9.51-8.67,20.09-16.2,31.37-22.34,17.22-9.4,36.13-15.7,55.58-18.33,20.84-2.79,43.07-1.84,62.63,6.53,17.64,7.56,32.93,22.16,38.22,40.99,5.61,19.97-2.27,40.17-12.8,57.15.11,4.71.29,9.43.63,14.14,1.21,16.52,4.37,33.16,12.12,47.96,6.71,12.82,16.68,24.04,29.77,30.55.6.29.32,1.06-.18,1.27Z"/>
  <path class="cls-7" d="M481.44,841.59l-5.06,17.68-10.19,35.51-14.12,49.25-104.62,4.3s41.88-134.51,42.44-137.83c.55-3.32,91.55,31.08,91.55,31.08Z"/>
  <path class="cls-9" d="M476.38,859.27l-10.19,35.51c-1.24.06-2.48.08-3.72.03-12.22-.5-23.08-6.82-31.06-15.86-4.11-4.66-7.5-9.95-10.2-15.52-3.11-6.45-5.47-13.33-6.45-20.42-.06-.47.34-.77.69-.77-.16-.52.23-1.19.9-1,1.93.53,3.87,1.08,5.8,1.63,7.74,2.19,15.46,4.4,23.2,6.59,7.46,2.13,14.99,4.11,22.34,6.56,2.93.97,5.85,2.03,8.69,3.26Z"/>
  <path class="cls-7" d="M527.8,702.44c29.82,45.34,55.17,117.74-7.68,157.06-59.26,37.08-126.68-3.75-156.5-49.08-29.82-45.34-17.23-106.26,28.1-136.08,45.34-29.82,106.26-17.23,136.08,28.1Z"/>
  <polygon class="cls-7" points="508.24 698.64 567.84 710.95 538.04 754.3 508.24 698.64"/>
  <path class="cls-7" d="M441.14,1164.28s-10.03,11.17-22.92,25.34c-7.99,8.77-27.81,37.32-49.94,72.4-.32.52-.66,1.05-1,1.58-6.11,9.72-12.4,19.94-18.65,30.35-2.1-4.19-3.97-8.48-5.72-12.78-5.48-13.57-9.8-27.6-12.93-41.88-3.13-14.3-5.04-28.84-5.71-43.46-.55-12.11-.69-25.47,5.71-36.24,43.3-39.27,79.18-71.64,82.33-72.88l28.84,77.57Z"/>
  <path class="cls-7" d="M552.58,985.04c0,1.95-.45,3.92-1.27,5.65-2.52,5.32-8.34,7.74-13.38,10.05-4.8,2.19-9.45,4.74-13.86,7.64-4.48,2.95-8.74,6.24-12.7,9.83-3.22,2.93-6.17,6.09-9.03,9.35,1.34.13,2.68.32,4.4.52,6.64.77,14.59,5.46,18.81,11.01,3.85,5.06,5.69,8.27,6.04,14.51.45,7.93.33,12.57-1.48,20.29-.87,3.64-1.57,6.37-3.09,9.81-.76,1.72-2.38,4.01-3.94,5.11,0,4.58.14,11.46-1.45,15.77-1.21,3.29-3,6.38-5.47,8.88-.43.44-.92.84-1.39,1.23.08,1.39.14,2.77.13,4.16-.03,7.17-1.53,14.4-5.22,20.62-3.27,5.51-8.29,10.06-14.51,11.94-5.87,1.77-12.72,1.24-17.83-2.35-3.43-2.42-5.69-5.85-7.21-9.62-1.5,6.75-3.56,13.38-6.71,19.55-2.6,5.11-6,9.87-10.27,13.7-4.76,4.26-10.49,7.25-16.62,8.96-13.99,3.9-28.66,1.31-42.2-3.08-3.51-1.13-6.98-2.39-10.45-3.67-1.45-.44-2.89-.95-4.3-1.6-1.8-.68-3.61-1.4-5.29-2.34-2.16-1.19-4.14-2.93-4.95-5.3-.35-.45-.71-.9-1.03-1.37-2.74-3.93-3.98-8.72-3.72-13.48.6-10.61,7.33-19.88,13.38-28.15,7.79-10.67,15.8-21.42,25.03-30.9,8.25-9.77,16.67-19.41,25.26-28.9,11.53-12.75,23.36-25.24,35.45-37.46,11.17-11.27,22.34-22.79,34.9-32.51,5.84-4.53,12.03-8.62,18.7-11.82,6.56-3.14,13.83-5.71,21.15-6.32,3.66-.31,7.51.18,10.51,2.45,2.51,1.9,3.6,4.85,3.6,7.85Z"/>
  <path class="cls-7" d="M769.21,1091.87c-.68,2.64-1.45,5.25-2.3,7.87-3.35,10.23-7.91,20.24-13.86,29.17-6.34,9.51-11.81,19.36-19.9,27.58-5.57,5.66-12.19,10.48-19.64,13.36-6.85,2.65-17.8,5.5-25.06,3.86-8.56-1.93-9.99-12.82-8.06-19.93,2.3-8.4,8.61-14.77,15.81-19.31,2.92-1.84,5.98-3.4,9.09-4.9.02-.18.02-.37.05-.55,1.08-10.16,3.55-20.15,7.35-29.6,3.56-8.83,8.17-17.62,14.54-24.79,5.59-6.33,13.12-11.36,21.78-11.78,8.88-.4,18.02,3.76,20.68,12.75,1.56,5.27.92,10.96-.48,16.27Z"/>
  <g>
    <path class="cls-4" d="M602.76,1198.7c5.21.46,10.56-1.07,15.42-3.27,9.57-3.07,18.99-6.77,28.37-10.32,10.22-3.88,20.4-7.84,30.53-11.89,9.07-3.62,18.22-7.14,27.09-11.18,8.29-3.77,16.4-8.44,22.32-15.51,5.56-6.62,8.25-14.99,10.02-23.32,1.95-9.3,3.42-18.73,5.07-28.09,4.99-28.04,10.41-56.01,15.25-84.08,4.43-25.68,10.04-52.12,9.63-78.27-.08-5.39-1.14-11.12-5.62-14.66-3.73-2.92-8.62-3.27-13.14-2.75-6.19.72-12.26,2.88-18.21,4.6-6.83,1.97-13.66,4.03-20.45,6.19-17.12,5.44-33.81,12.16-50.26,19.37-15.34,6.72-34.04,11.54-40.61,28.57-3.9,10.11-5.09,21.44-7.07,32.04-5.5,29.4-12.4,57.01-15.75,86.74-3.08,27.33-8.17,62.38-7.93,90.99.07,7.97,7.05,14.13,15.34,14.84Z"/>
    <path class="cls-1" d="M695.62,1001.02c1.53.09,3.1-.18,4.5-.78,4.66-1.99,8.16-6.89,8.53-11.93.39-5.3-3.05-12.07-8.99-12.2-5.6-.12-9.26,6-10.74,10.68-.65,2.05-1.09,4.21-.92,6.36.17,2.15.98,4.3,2.54,5.79,1.36,1.31,3.19,1.98,5.07,2.09Z"/>
    <g>
      <path class="cls-1" d="M607.72,1045.29c.83.66,1.69.18,2.07-.56.32-.14.59-.4.67-.82,1.52-7.73,2.72-15.55,4.15-23.3,1.45-7.76,2.8-15.53,4.13-23.31.12-.67-.43-.98-.95-.93-.26-.2-.56-.3-.96-.22-4.37.9-7.3,5.11-8.77,9.04-1.67,4.43-2.09,9.33-2.86,13.97-.8,4.91-2.06,9.95-2.13,14.94-.08,4.29,1.18,8.45,4.64,11.2Z"/>
      <path class="cls-1" d="M601.31,1077.6c.44.41,1.02.54,1.54.21.58-.06,1.05-.25,1.23-.84.95-3.14,1.3-6.48,1.98-9.69.33-1.62.71-3.24,1.08-4.84.36-1.58.97-3.26,1.07-4.88.04-.71-.39-1.13-.9-1.22-.3-.45-.83-.73-1.45-.41-3.91,1.97-6.83,5.71-7.66,10.02-.38,1.99-.29,4.1.22,6.09.51,1.94,1.41,4.15,2.91,5.56Z"/>
    </g>
  </g>
  <path class="cls-7" d="M769,1064.06c1.69,2.59,2.22,5.69,2.26,8.64.16,10.68-4.24,21.4-11.43,29.96-.08,3.22-.43,6.4-1.35,9.46-.65,3.12-1.73,6.2-2.85,9.09-.31.83-1.67.49-1.37-.37.16-.43.31-.86.45-1.28-1.41,1.81-3.1,3.42-5.1,4.59-3.51,2-7.58,2.34-11.54,1.92-3.73-.39-7.42-1.24-11.07-2.08-3.95-.92-7.89-1.94-11.78-3.06-3.91-1.14-7.79-2.38-11.6-3.75-2.85-1.02-5.69-2.14-8.29-3.71-4.69-2.85-8.54-7.52-7.48-13.33,1.14-6.32,7.24-10.46,13.17-11.62.29-.06.57-.08.86-.14-.18-.04-.35-.08-.53-.12-6.83-2.02-13.21-5.6-16.41-11.58-2.89-5.42-2.43-11.7,2.45-16.06,2.95-2.65,6.64-4.12,10.58-4.87-2.32-.39-4.63-.9-6.83-1.75-2.98-1.18-5.79-2.95-7.48-5.73-1.9-3.12-1.96-6.97-.67-10.31,2.98-7.73,11.23-10.86,18.73-12.49,9.09-1.98,18.49-2,27.68-.98,4.67.51,9.29,1.26,13.9,2.16,2.87.55,5.77,1.12,8.62,1.85-5.77-5.87-13.25-10.27-20.83-13.35-3.61-1.49-7.32-2.73-11.07-3.87-3.65-1.1-7.38-2.1-10.76-3.87-5.83-3.04-11.01-9.64-8.21-16.47,2.79-6.83,10.58-9.07,17.32-8.87,3.77.12,7.56.71,11.27,1.32,3.36.57,6.73,1.28,10.01,2.24,6.26,1.83,12.39,4.65,17.16,9.19,5.1,4.83,8.01,11.35,9.19,18.2,1.22,7.11.75,14.19,0,21.28,1.12,1.81,2.22,3.65,3.2,5.56,3.3,6.42,4.93,14.47-.06,20.53-.18.2-.37.39-.55.57-.18.63-.41,1.24-.59,1.86.35.41.71.79,1,1.24Z"/>
  <path class="cls-9" d="M720.61,983.6c-2.37-1.1-5.05-1.55-7.65-1.26-2.36.26-4.71,1.06-6.44,2.73-4.13,4-2.95,10.5,2.19,12.97,2.82,1.36,6.14,1.36,9.2.73,1.9-.4,3.79-1.04,5.35-2.2,1.56-1.16,2.77-2.88,3-4.81.2-1.67-.34-3.38-1.32-4.76-.98-1.37-2.36-2.42-3.86-3.19-.15-.08-.31-.15-.46-.23ZM717.3,997.21c-3.53.81-7.56.45-10.21-2.28-2.43-2.51-2.34-6.62.37-8.89,2.69-2.24,7.01-2.5,10.29-1.72,3.22.77,7.08,3.21,6.92,6.97-.16,3.64-4.38,5.22-7.37,5.91Z"/>
  <path class="cls-9" d="M712.39,1027.83c-1.7-2.19-4.4-3.21-7.12-3.32-3.22-.14-6.3,1.05-9.23,2.26-4.75,1.04-9.78,5.1-9.93,10.28-.15,5.48,5.31,8.42,10.1,8.74,5.25.35,11.24-1.01,14.94-4.98,3.26-3.49,4.33-9,1.24-12.98ZM710.74,1038.53c-2.67,3.71-7.35,5.18-11.73,5.46-4.1.26-9.65-.68-10.95-5.33-1.19-4.29,2.45-7.48,5.85-9.31,3.91-2.1,9.58-4.17,13.93-2.62.61.22,1.2.52,1.74.88,3.65,2.47,3.53,7.63,1.16,10.92Z"/>
  <path class="cls-9" d="M767.38,1033.69c-8.62-5.19-18.6-7.16-28.44-8.54-10.68-1.5-21.61-3.06-32.37-1.41-2.81.43-5.59,1.09-8.27,2.02-2.53.88-5.33,1.92-7.4,3.64-.39.33.03,1.08.52.88,2.29-.94,4.41-2.19,6.75-3.02,2.29-.81,4.65-1.42,7.04-1.84,5.21-.92,10.52-1.02,15.79-.69,5.4.33,10.77,1.02,16.14,1.75,4.76.65,9.51,1.39,14.18,2.53,5.35,1.32,10.54,3.2,15.27,6.05.88.53,1.68-.85.8-1.38Z"/>
  <path class="cls-9" d="M713.95,1058.79c-3.47-3.03-8.09-4.63-12.68-4.53-4.61.1-10.02,1.87-12.32,6.18-1.3,2.43-1.43,5.3-.04,7.72,1.38,2.41,3.87,4.17,6.35,5.31,5.14,2.36,11.31,2.27,15.98-1.12,2.13-1.55,3.86-3.65,4.76-6.14,1.02-2.86.21-5.46-2.04-7.42ZM711.2,1070.15c-3.61,3.22-8.7,3.95-13.24,2.53-4.36-1.37-9.83-5.18-7.98-10.43.96-2.74,3.47-4.53,6.12-5.46.17-.06.34-.1.51-.15,4.73-1.31,9.76-.65,13.86,1.81,2.05,1.23,4.45,3,4.21,5.67-.21,2.33-1.78,4.52-3.48,6.04Z"/>
  <path class="cls-9" d="M768.47,1063.05c-9.08-3.17-18.43-5.34-27.92-6.86-9.41-1.51-18.92-2.27-28.45-2.16-5.28.06-10.66.2-15.89,1.01-.5.08-.39.92.12.89,4.76-.24,9.49-.67,14.27-.74,4.64-.06,9.28.08,13.91.39,9.53.64,18.95,2.13,28.21,4.47,5.17,1.31,10.27,2.86,15.31,4.59,1.01.35,1.44-1.24.44-1.59Z"/>
  <path class="cls-9" d="M715.9,1089.73c-3.88-2.54-8.97-3.1-13.45-2.09-2.14.48-4.17,1.4-5.95,2.68-1.64,1.18-3.23,2.76-3.5,4.86-.3,2.41,1.29,4.6,3.06,6.07,1.87,1.56,4.15,2.56,6.54,3.05,2.91.59,5.95.54,8.89.16,2.47-.32,4.99-1.07,6.77-2.91,3.61-3.74,1.54-9.26-2.36-11.82ZM717.75,1099.04c-2.06,3.92-8.1,3.94-11.89,3.75-3.88-.2-8.8-1.68-10.61-5.5-.99-2.09.44-3.97,2.02-5.25,3.85-3.12,9.52-3.56,14.16-2.22.31.09.62.19.93.3,3.44,1.21,7.5,4.93,5.4,8.93Z"/>
  <path class="cls-9" d="M766.53,1101.43c-2.17-3.54-5.78-5.68-9.51-7.26-4.41-1.87-9.03-3.32-13.67-4.47-9.46-2.34-19.17-3.29-28.9-2.9-5.53.22-9.08.63-14.47,1.93-.76.18-2.45,1.4-1.72,1.29,4.71-.67,9.42-1.29,14.18-1.52,4.69-.22,9.4-.09,14.08.3,9.34.79,18.56,2.8,27.34,6.09,4.17,1.56,8.66,3.51,11.08,7.47.62,1.01,2.22.09,1.6-.93Z"/>
  <path class="cls-9" d="M745.79,1130.79c-.91-1.19-2.39-2.11-3.64-2.91-1.32-.85-2.73-1.55-4.18-2.15-2.94-1.22-5.99-2-9.18-2.04-.7-.01-.66.98,0,1.06,2.94.35,5.93,1.04,8.62,2.29,1.28.6,2.51,1.31,3.69,2.1.64.43,1.26.88,1.86,1.37.57.46,1.08,1.02,1.69,1.41.66.42,1.65-.46,1.13-1.13Z"/>
  <path class="cls-9" d="M488.63,1121.36c-1.02-4.58-3.31-11.79-8.99-12.12-.89-.05-.84,1.25,0,1.36,2.29.29,3.86,2.1,4.93,4.01,1.29,2.31,2.09,4.95,2.62,7.53,1.12,5.42.52,11.43-3.11,15.82-.65.79.47,1.92,1.13,1.13,4.11-4.96,4.79-11.6,3.42-17.73Z"/>
  <path class="cls-9" d="M487.85,1120.83c-1.51-.77-3.39-1.13-5.04-1.43-1.58-.29-3.16-.5-4.77-.37-2.93.25-5.58,1.58-7.45,3.86-4.14,5.05-3.49,11.89-1.24,17.61.35.88,1.78.5,1.43-.4-2.01-5.12-2.89-11.36.76-15.99,1.69-2.15,4.11-3.41,6.84-3.55,1.46-.07,2.93.11,4.35.45,1.5.36,3,1.02,4.51,1.25.8.12,1.47-.99.6-1.43Z"/>
  <path class="cls-9" d="M504.66,1085.26c-9.03-7.26-21.7-6.88-32.11-3.17-6.96,2.48-13.35,6.24-19.57,10.17-.71.45-.08,1.54.66,1.12,10.3-5.78,21.03-12.32,33.24-12.24,5.21.03,10.49,1.25,14.9,4.12,4.38,2.85,7.41,7.26,9.19,12.11,2.06,5.61,2.71,11.6,2.95,17.54.05,1.13,1.79,1.13,1.76,0-.33-10.56-2.27-22.63-11.02-29.66Z"/>
  <path class="cls-9" d="M523.63,1078.33c-.8-4.28-1.72-8.59-2.99-12.76-2.09-6.87-5.64-14.03-12.69-16.87-4.14-1.67-8.73-1.5-13.05-.72-4.54.82-9.01,2.24-13.34,3.81-9.74,3.53-18.96,8.4-27.35,14.48-.83.6-.03,1.99.81,1.39,7.13-5.13,14.85-9.43,22.99-12.72,4.02-1.63,8.14-3.02,12.32-4.15,4.21-1.15,8.66-2.08,13.05-1.51,3.81.5,7.18,2.32,9.72,5.18,2.31,2.6,3.86,5.83,5.02,9.09,1.28,3.6,2.13,7.33,2.93,11.06,1.01,4.68,1.87,9.41,2.04,14.2.17,4.68-.35,9.35-1.95,13.77-.74,2.03-1.72,3.98-2.93,5.78-1.24,1.84-2.8,3.38-4.4,4.91-.63.6.2,1.73.95,1.23,3.29-2.19,5.67-5.77,7.25-9.33,1.67-3.76,2.56-7.8,2.82-11.9.31-5-.29-10.02-1.2-14.93Z"/>
  <path class="cls-9" d="M524.49,1036.28c-5.26-5.7-12.75-8.68-20.35-9.48-8.26-.86-16.43.91-23.99,4.19-9.64,4.19-18.06,10.56-26.32,16.96-.57.44.19,1.44.78,1.01,13.52-9.88,28.26-20.95,45.82-20.69,7.42.11,15.06,2.25,20.74,7.2,6.24,5.43,9.26,13.57,9.79,21.68.7,10.63-2.68,20.96-6.38,30.78-.41,1.09,1.33,1.55,1.74.48,3.45-9.17,6.6-18.75,6.54-28.66-.05-8.44-2.55-17.17-8.36-23.47Z"/>
  <path class="cls-9" d="M498.2,1078.6c-.07-.36-.52-.59-.86-.49-2.21.68-4.4,1.37-6.55,2.24-.3.12-.51.4-.42.74.08.3.43.53.74.42.95-.34,1.91-.67,2.88-.98.01.26.16.5.38.64,1.06.67,2.26,1.18,3.46,1.55.57.17.98-.38.89-.89-.18-1.08-.31-2.16-.53-3.23Z"/>
  <path class="cls-9" d="M547.39,978.3c-.83-1.71-2.68-2.64-4.41-3.19-3.59-1.15-7.67-1.11-11.3.11-3.21,1.08-8.91,4-7.79,8.17,1.18,4.38,6.83,5.43,10.7,5.29,4.16-.14,9.02-1.72,11.76-5.02,1.24-1.5,1.95-3.5,1.05-5.36ZM545.7,981.76c-1.63,2.97-5.73,4.53-8.88,5.08-3.2.56-7.81.42-10.26-2.03-2.08-2.08-1.07-4.45,1.14-5.88,3.44-2.23,7.68-3.2,11.76-2.8,2.73.27,8.38,1.74,6.25,5.63Z"/>
  <path class="cls-9" d="M552.55,752.89c-5.91-.59-11.76-1.71-17.48-3.3-2.84-.79-5.64-1.7-8.4-2.72-1.32-.49-2.63-1.01-3.94-1.55-1.37-.57-2.79-1.38-4.24-1.73-.68-.17-.95.68-.45,1.06,1.18.9,2.75,1.45,4.1,2.05,1.35.59,2.72,1.15,4.1,1.68,2.81,1.08,5.66,2.03,8.55,2.85,5.8,1.65,11.75,2.74,17.74,3.34,1.07.11,1.06-1.57,0-1.67Z"/>
  <path class="cls-4" d="M504.8,702.12c-.53,1.5-1.6,2.83-3.17,3.32-1.78.55-3.68-.14-5.04-1.29-.97-.81-1.66-1.88-2.24-3.01-.97-1.09-1.72-2.34-2.18-3.7-.52-1.56-.67-3.38-.08-4.93.65-1.72,2.18-2.81,4.04-2.79,1.94,0,3.6,1.11,4.91,2.47,1.31,1.38,2.57,2.99,3.34,4.75.71,1.62,1.01,3.44.42,5.16Z"/>
  <path class="cls-4" d="M499.74,689.09c-.61-.86-1.99-1.18-2.97-1.4-1.05-.23-2.13-.31-3.2-.23-2.22.17-4.35.96-6.08,2.37-3.2,2.6-4.91,7.64-3.24,11.54.31.71,1.27.16,1.16-.49-.3-1.81-.37-3.56.16-5.33.53-1.75,1.55-3.35,2.97-4.52,1.43-1.18,3.29-1.85,5.13-1.98.93-.06,1.86,0,2.77.2.45.1.9.24,1.33.4.46.18.87.44,1.38.46.49.02.89-.6.59-1.02Z"/>
  <g>
    <path class="cls-2" d="M172.43,528.49c-1.74-.24-3.51.34-4.88,1.42-1.32,1.02-2.56,2.74-2.34,4.48.08.98.18,1.72.39,2.42.9,3,3.97,4.43,6.93,3.97,3-.47,5.24-3,5.11-6.06-.13-2.93-2.19-5.8-5.21-6.22Z"/>
    <path class="cls-2" d="M150.72,528.49c-1.74-.24-3.51.34-4.88,1.42-1.32,1.02-2.56,2.74-2.34,4.48.08.98.18,1.72.39,2.42.9,3,3.97,4.43,6.93,3.97,3-.47,5.24-3,5.11-6.06-.13-2.93-2.19-5.8-5.21-6.22Z"/>
  </g>
  <path class="cls-9" d="M671.84,521.37c-4.19-1.55-7.64,2.02-8.85,5.7-1.12,4.15-2.07,8.6.35,12.16,1.99,2.92,5.98,4.06,8.89,1.77,1.41-1.11,2.34-2.72,3.03-4.36.85-2,1.48-4.14,1.63-6.32.26-3.68-1.4-7.6-5.06-8.96ZM674.11,534.98c-.48,1.34-1.08,2.69-2,3.8-.88,1.07-2.1,1.87-3.53,1.82-1.52-.06-2.95-.97-3.81-2.2-2.19-3.14-1.21-7.24-.29-10.68.95-2.7,3.13-5.55,6.12-4.93,3.19.65,4.69,4.06,4.61,7.02-.04,1.78-.52,3.52-1.11,5.18Z"/>
  <path class="cls-9" d="M692.99,490.45c-12.55,5.9-22.54,16.69-27.87,29.45-1.48,3.54-2.72,7.28-3.15,11.11-.07.65.95.75,1.11.15.87-3.25,1.69-6.49,2.92-9.62,1.24-3.16,2.79-6.2,4.59-9.07,3.54-5.65,8.14-10.7,13.45-14.73,3.03-2.3,6.31-4.28,9.75-5.9.93-.44.12-1.82-.81-1.38Z"/>
  <path class="cls-9" d="M666.6,489.9c-1.69.49-3.31,1.57-4.81,2.48-1.58.95-3.11,1.97-4.61,3.04-2.96,2.14-5.77,4.5-8.36,7.08-5.14,5.12-9.54,11.11-12.83,17.58-1.15,2.26-2.17,4.6-3.03,6.99-1.54,4.27-3.02,9.14-.54,13.12,2.12,3.4,6.44,4.35,9.58,1.78,3.27-2.67,5.21-7.48,5.78-11.56.55-3.94-.56-8.53-4.62-10.13-1.99-.78-4.09-.33-5.8.83,1.44-2.82,3.05-5.57,4.9-8.19,4.09-5.8,9.14-10.99,14.82-15.25,1.55-1.17,3.16-2.26,4.81-3.29,1.71-1.06,3.69-1.89,5.29-3.1.63-.48.3-1.62-.57-1.36ZM637.07,523.56c1.15-1.23,2.78-2.22,4.52-1.97,3.68.53,4.87,4.72,4.59,7.87-.31,3.51-1.81,7.23-4.05,9.96-1.02,1.24-2.38,2.39-4.07,2.4-1.59,0-3.1-.94-4.01-2.21-2.52-3.54-.95-8.22.28-11.91,1.03-1.49,1.63-2.96,2.73-4.13Z"/>
  <path class="cls-9" d="M618.01,524.6c-4.42-1.28-8.24,2.01-10.05,5.75-.14.28-.09.54.03.75-.75,1.46-1.32,3.09-1.61,4.63-.4,2.05-.33,4.23.58,6.14,1.7,3.56,5.89,4.75,9.17,2.56,3.43-2.29,5.56-6.54,6.15-10.53.55-3.71-.14-8.1-4.26-9.29ZM620.65,533.04c-.33,3.29-1.82,6.59-4.18,8.91-1.13,1.12-2.65,2.12-4.31,1.96-1.52-.14-2.84-1.22-3.57-2.51-.98-1.72-1-3.84-.6-5.73.41-1.94,1.36-3.66,1.94-5.53,1.5-2.19,3.64-4.12,6.44-4.02,1.41.05,2.8.68,3.56,1.91.9,1.46.9,3.35.73,5.01Z"/>
  <path class="cls-9" d="M632.23,495.54c-9.83,6.74-17.56,16.47-22.07,27.49-1.29,3.16-2.35,6.42-2.93,9.78-.13.76.95,1.09,1.17.32,1.63-5.61,3.6-11.03,6.49-16.12,2.87-5.05,6.44-9.68,10.6-13.75,2.35-2.3,4.89-4.39,7.58-6.29.87-.61.05-2.05-.84-1.44Z"/>
  <path class="cls-9" d="M727.24,503.03c-9.35,2.9-18.34,7.35-26.01,13.48-.49.39.16,1.23.67.86,7.93-5.57,16.45-10.1,25.71-12.99.86-.27.49-1.62-.37-1.35Z"/>
  <path class="cls-9" d="M585.88,510.07c-3.54-2.49-7.72.24-10.4,2.66-.15.13-.21.29-.23.46-2.33,1.89-4.34,4.9-4.39,7.84-.03,1.56.69,3.08,2.1,3.83,1.43.76,3.17.69,4.7.31,3.27-.81,6.2-2.87,8.21-5.55,1.11-1.48,2.01-3.23,2.08-5.11.06-1.71-.65-3.43-2.07-4.43ZM584.84,517.97c-1.46,2.24-3.69,4.03-6.18,4.99-1.9.74-5.73,1.5-6.01-1.52-.14-1.48.56-2.93,1.29-4.17.7-1.18,1.57-2.2,2.51-3.17,2.15-1.63,4.6-3.8,7.44-2.99,1.27.36,2.08,1.4,2.24,2.71.17,1.49-.49,2.93-1.29,4.14Z"/>
  <path class="cls-9" d="M967.49,370.24c-3.49,4.66-7.48,8.76-12.35,12-4.85,3.22-10.09,5.19-15.67,6.7-.78.21-.44,1.31.33,1.19,5.79-.91,11.49-3.6,16.31-6.87,4.82-3.27,9.24-7.51,12.3-12.49.36-.59-.51-1.06-.91-.53Z"/>
  <path class="cls-4" d="M951.92,335.91c1.11,2.87,1.04,6.86-1.55,8.95-5.41,4.4-12.74-4.53-13.06-9.53-.27-4.16,3.47-6.71,7.33-5.89,3.35.72,6.07,3.32,7.28,6.47Z"/>
  <path class="cls-4" d="M963.52,335.61c-2.92-4.34-7.18-7.67-12.13-9.38-2.69-.93-5.59-1.36-8.44-1.26-2.75.09-6.22.49-8.57,2.05-.62.41-.23,1.33.5,1.19,1.32-.27,2.58-.8,3.91-1.09,1.37-.3,2.76-.47,4.16-.51,2.67-.08,5.32.31,7.85,1.17,4.58,1.56,8.57,4.68,11.27,8.69.6.89,2.05.05,1.45-.85Z"/>
  <path class="cls-9" d="M1003.68,518.92c-.35-.83-.85-1.6-1.45-2.26-1.49-1.64-3.52-2.68-5.59-3.48-3.03-1.16-6.38-1.86-9.52-1.07-2.77.7-6.59,3.5-6.28,6.79.32,3.41,4.21,6.88,7.04,8.29,3.37,1.68,7.45,1.9,10.98.6,2.35-.87,4.6-2.59,5.2-5.03.32-1.28.13-2.63-.38-3.85ZM1001.56,523.95c-2.45,3.01-7.38,3.47-10.88,2.51-1.44-.39-2.78-1.08-3.98-1.96-1.26-1.33-2.75-2.64-3.35-4.4-.67-1.97.1-3.98,1.77-5.16,3.27-2.32,8.52-1.25,11.9.28,1.76.8,3.56,1.88,4.63,3.54,1.04,1.62,1.17,3.67-.08,5.21Z"/>
  <path class="cls-9" d="M1011.09,494.47c-.77-2.25-2.49-3.95-4.34-5.35-3.75-2.85-8.69-5.61-13.44-3.5-2.66,1.18-4.35,3.62-3.69,6.58.89,4.03,4.35,7.53,8,9.23,3.58,1.67,9.11,2.51,12.24-.55,1.69-1.66,1.98-4.23,1.24-6.41ZM1008.41,499.82c-2.59,2.2-6.87,1.5-9.72.2-4-1.83-11.58-10.29-4.3-12.92,3.89-1.4,7.75.87,10.82,3.08,1.62,1.17,3.3,2.58,4.07,4.48.71,1.73.63,3.89-.88,5.17Z"/>
  <path class="cls-9" d="M1044.51,473.47c-1.01-4.45-6.11-5.76-10.05-5.5-3.83.26-9.56.99-11.28,5.05-.58,1.22-.6,2.62-.24,3.83.57,1.93,2.09,3.36,3.83,4.28,3.7,1.96,8.8,2.75,12.74,1.09,3.32-1.4,5.83-5.08,5-8.76ZM1040.12,479.98c-2.97,2.04-7,1.6-10.26.6-1.78-.55-3.71-1.4-4.77-3.02-.77-1.16-.94-2.5-.56-3.75.9-1.16,1.83-2.06,3.18-2.67,1.38-.62,2.9-.92,4.39-1.13,3.34-.48,7.9-.78,10.09,2.4,1.75,2.54.27,5.96-2.06,7.56Z"/>
  <path class="cls-9" d="M1075.59,552.82c-2.19-6.8-5.07-13.46-7.94-19.99-2.87-6.53-6.05-12.93-9.76-19.03-6.61-10.88-15.11-20.94-25.86-27.92-2.93-1.91-6.02-3.58-9.24-4.96-3.12-1.34-6.4-2.57-9.78-3.01-.7-.09-.75.96-.16,1.17,2.9,1.03,5.84,1.86,8.66,3.11,2.77,1.22,5.44,2.66,8,4.28,5.15,3.26,9.83,7.19,14.05,11.58,9.28,9.68,15.95,21.47,21.46,33.6,1.62,3.57,3.16,7.18,4.65,10.8,1.5,3.65,2.9,7.36,4.56,10.94.35.76,1.61.22,1.35-.57Z"/>
  <path class="cls-9" d="M1062.13,560.99c-3.8-12.14-9.36-23.7-16.42-34.27-7.06-10.56-15.59-20.17-25.32-28.35-2.73-2.3-5.56-4.49-8.47-6.55-2.91-2.06-5.92-4.21-9.14-5.75-.77-.37-1.35.64-.66,1.14,2.52,1.85,5.24,3.46,7.79,5.27,2.58,1.83,5.1,3.75,7.54,5.75,4.84,3.97,9.41,8.28,13.67,12.88,8.49,9.19,15.69,19.56,21.32,30.73,3.19,6.32,5.85,12.89,7.97,19.64.34,1.09,2.06.63,1.72-.47Z"/>
  <path class="cls-9" d="M1048.62,570.08c-1.11-2.73-2.44-5.39-3.7-8.06-1.25-2.65-2.5-5.31-3.83-7.93-2.44-4.81-5.23-9.4-8.59-13.63-6.14-7.73-13.81-14.13-22.05-19.5-4.76-3.1-9.74-5.96-14.92-8.29-.67-.3-1.26.64-.59,1.01,8.65,4.83,17.2,9.71,24.82,16.12,7.72,6.5,14.11,14.18,18.85,23.1,3.09,5.81,5.54,11.96,8.67,17.75.38.71,1.65.22,1.34-.56Z"/>
  <path class="cls-4" d="M967.9,317.29c-.21.27-.51.43-.9.37-6.43-1.02-12.85-2.08-19.26-3.16-2.87-.48-5.75-.97-8.64-1.45-1.43-.24-2.87-.48-4.32-.73-1.16-.21-2.47-.29-3.58-.72-1.93-.76-2.32-3.01-.87-4.47,1.63-1.64,4.71-1.87,6.87-2.06,10.64-.95,20.51,5.17,29.8,9.46,1.1.51,1.75,1.67.9,2.76Z"/>
  <path class="cls-4" d="M895.14,312.51c-.11.92-.79,1.87-1.82,1.74-.98-.26-1.21-.76-1.35-1.16-.23-.6-.42-1.23-.6-1.84-.66-2.24-1.13-4.53-1.43-6.85-.1-.79-.1-1.81.73-2.24.94-.5,1.76.34,2.19,1.1,1.1,1.87,1.84,3.97,2.14,6.13.14,1.02.27,2.1.14,3.13Z"/>
  <path class="cls-4" d="M488.1,677.87c-1.01.61-2.26.94-3.37,1.35-1.18.43-2.34.89-3.5,1.35-2.53,1.03-5.03,2.16-7.41,3.51-4.08,2.32-7.82,5.35-10.36,9.33-.4.63-1.27.29-1.35-.27-.11-.14-.19-.32-.13-.56,1.19-5.03,4.11-9.74,7.74-13.38,3.21-3.21,7.22-5.87,11.85-6.29,2.19-.19,4.59.15,6.54,1.23,1.74.95,1.66,2.74,0,3.72Z"/>
  <path class="cls-4" d="M482.58,771.26c-8.88,3.9-19.42,4.8-28.13-.02-4.01-2.23-7.22-5.51-9.32-9.59-.11-.21-.2-.43-.3-.64,1.22,1.55,2.58,3,4.11,4.3,5.21,4.43,12.04,6.94,18.87,5.57,3.58-.72,7.07-2.48,9.38-5.36.45-.56-.27-1.34-.81-.81-4.59,4.51-11.11,6.18-17.33,4.53-6.53-1.74-11.81-6.52-15.36-12.14-.29-.45-.54-.92-.8-1.38-.65-2.39-1.08-4.85-1.35-7.3-2.24-20.33,2.63-40.65,5.93-60.58,1.8-10.77,3.21-21.65,2.92-32.59.79-.14.79-1.35-.02-1.32-.05-1.21-1.21-1.21-1.19-.45v.58c-18.86,1.69-37.35,6.66-54.63,14.36-17.44,7.77-33.56,18.39-47.55,31.37-13.49,12.53-25,27.18-33.98,43.23-4.47,8-8.29,16.31-11.46,24.89-3.43,9.28-6.25,18.81-10.41,27.79-3.92,8.43-9.06,16.3-16.59,21.92-6.72,5.03-15.1,8.38-23.62,7.46-2.08-.23-4.11-.74-6.06-1.47-.73-.27-1.13.6-.89,1.14,7.93,18.59,26.31,31.97,46.23,34.67,5.25.71,10.54.63,15.8-.06-3.93,16.52-7.5,33.14-11.2,49.71-.1.45.21.97.71.93,9.95-.55,19.7-3.14,28.61-7.46,2.5,3.87,5.43,7.46,8.59,10.77,4.14,4.32,8.74,8.21,13.57,11.72,5.45,3.95,11.27,7.51,17.68,9.66,7.11,2.37,15.04,2.84,22.12.1.39-.16.68-.61.4-1.03-6.37-10.11-10.72-21.42-12.98-33.16-1.55-8-2.08-16.18-1.64-24.33,5.06,7.69,10.82,15.01,18.59,20.02,11.59,7.51,26.02,7.54,39.03,4.27,8.06-2.03,15.8-5.21,23.47-8.35.55-.21.63-1,0-1.19-9.66-2.92-17.36-10.33-22.39-18.88-5.93-10.08-8.08-21.76-8.59-33.32-.11-2.53-.13-5.08-.13-7.61,7.16,3.4,14.36,6.67,21.55,9.99.42.19.97-.02.95-.55-.31-12.93-4.21-25.69-11.17-36.61-1.55-2.43-3.29-4.74-5.14-6.95,8.45,2.43,17.54,2.53,26,.13,8.29-2.35,15.81-7.09,21.6-13.46,3.16-3.5,5.75-7.43,7.77-11.7.27-.58-.27-1.08-.84-.84Z"/>
  <path class="cls-4" d="M1098.9,337.9c-2.01.32-4.05.61-6.08.87-16.7,2.03-33.74,1.11-50.18-2.4-16.46-3.53-32.35-9.7-46.83-18.28-14.11-8.37-26.74-19.07-37.38-31.53-10.43-12.24-18.94-26.07-25.18-40.88-5.61-13.31-9.35-27.39-10.91-41.75-.16.11-.32.23-.48.34.37-1.32.81-2.61,1.32-3.88.05.4.1.82.13,1.23.34-.23.65-.47.98-.68,14.93-9.91,32.74-15.56,50.6-16.52,17.44-.95,34.92,2.81,50.52,10.61,15.57,7.79,28.92,19.46,38.77,33.79,10.46,15.22,17.07,32.69,22.78,50.13,3.08,9.36,6.24,18.8,8.56,28.39,2.35,9.66,3.55,19.7,1.58,29.52.48-.06.97-.11,1.45-.19.82-.13,1.18,1.13.35,1.26Z"/>
  <path class="cls-4" d="M1140.97,425.97c-.29.36-.62.72-.96,1.08-9.39,10.28-22.47,17.72-36.71,20.74-16.77,3.54-34.8.61-49.52-7.52-7.48-4.14-13.92-9.62-19.18-16.03-5.39-6.57-9.47-13.95-12.81-21.56-3.42-7.83-6.04-15.92-8.45-24.05-2.81-9.49-5.31-19.07-7.51-28.7-3.1-13.63-5.66-27.43-7.44-41.28-.05-.37-.09-.75-.14-1.12.42-.21.86-.42,1.29-.61.86-.42,1.73-.83,2.6-1.24,7.71-3.59,15.5-7.04,23.41-10.24,3.6-1.46,7.47-2.82,11.47-2.17,3.28.53,6.13,2.43,8.43,4.59,2.42,2.28,4.5,4.9,6.59,7.45,2.2,2.71,4.35,5.44,6.47,8.2,4.18,5.51,8.17,11.15,12.06,16.84,7.8,11.41,15.14,23.08,22.65,34.66,7.5,11.55,15.17,23.03,23.63,33.99,7.09,9.19,14.75,17.96,23.21,26.09.29.29.59.58.89.87Z"/>
  <path class="cls-7" d="M1055.72,338.58c-.24,1.55-.66,3.11-1.27,4.63-2.61,6.69-8.51,12.64-15.83,13.06-.97.05-1.92-.03-2.87-.24-.1-.39-.19-.79-.27-1.18-.47-1.97-.92-3.92-1.37-5.9-.13-.55-.26-1.08-.37-1.63-.89-3.9-1.74-7.82-2.56-11.74-.21-.98-.42-1.95-.61-2.93-.37-1.77-.72-3.53-1.08-5.3-.53-2.66-1.05-5.32-1.55-8,.87-.98,1.85-1.87,2.97-2.66,3.16-2.26,7.03-3.55,10.9-3.37,3.87.18,7.71,1.89,10.22,4.82,4.48,5.19,4.69,13.96,3.71,20.44Z"/>
  <path class="cls-9" d="M1051.68,323.35c-5.05-2.9-10.69-.21-14.73,3.11-2.21,1.81-4.56,3.84-6.4,6.19.19.98.4,1.95.61,2.93.61-.53,1.35-.87,2.16-1.02,1.97-.34,3.95.79,5.03,2.39,2.37,3.45.39,9.2-3.77,10.25-.29.08-.58.11-.85.11.11.55.24,1.08.37,1.63.45-.05.92-.14,1.39-.31,4.76-1.66,7.14-8.16,4.34-12.41-1.42-2.13-3.95-3.58-6.54-3.21-.4.06-.77.16-1.15.29,1.58-1.92,3.5-3.6,5.32-5.16,3.58-3.09,8.77-6.08,13.44-3.42.89.52,1.68-.87.79-1.39Z"/>
  <path class="cls-9" d="M1054.44,343.21c-2.61,6.69-8.51,12.64-15.83,13.06-.97.05-1.92-.03-2.87-.24-.1-.39-.19-.79-.27-1.18,1.85.32,3.77.27,5.74-.24,5.61-1.5,9.38-6.58,12.57-11.06.18-.24.42-.34.66-.34Z"/>
  <path class="cls-4" d="M965.2,296.01c-3.61.16-7.24-.24-10.74-1.15-9.96-2.58-18.81-9.12-24.13-17.88.19,1.55.26,3.13.14,4.71-.19,2.76-.71,6.42-3.42,7.88-2.89,1.56-6.08-.53-8.11-2.55-2.89-2.89-4.96-6.51-6.04-10.41-.29,1.9-.69,3.8-1.29,5.66-.84,2.69-1.98,6.32-4.77,7.64-2.68,1.27-4.96-.79-6.03-3.13-1.48-3.27-2.08-7.16-2.56-10.7-.18-1.29-.31-2.58-.4-3.87-.63,2.51-1.5,4.98-2.61,7.35-1.06,2.27-2.31,4.66-3.98,6.56-1.32,1.5-3.29,3.01-5.43,2.66-1.89-.31-2.98-1.9-3.5-3.61-.63-2.05-.82-4.3-1-6.43-.4-4.8-.16-9.66.58-14.43,1.5-9.61,5.13-18.83,9.99-27.21,4.82-8.29,10.83-15.83,17.33-22.84,3.18-3.43,6.42-6.88,10.01-9.9,2.02-1.69,4.18-3.19,6.53-4.3,0-.55.69-.79,1.11-.48,1.24-.5,2.53-.92,3.9-1.15.63-.13.92.84.27.98-1.29.29-2.5.71-3.68,1.23,2.22,6.85,4.63,13.65,7.16,20.39,4.72,12.53,9.88,24.87,15.18,37.16,5.3,12.28,10.7,24.53,16.07,36.79.21.48-.03,1.02-.6,1.03Z"/>
  <path class="cls-4" d="M1101.12,425.48c-3.45,4.52-7.56,8.35-12.55,11.12-5,2.78-10.58,4.54-16.26,5.2-11.89,1.39-23.58-2.14-33.38-8.86-10.45-7.16-18.4-17.46-23.79-28.84-6.13-12.95-9.1-27.19-10.71-41.36-1.77-15.56-1.95-31.24-3.39-46.82-.18-1.92-.38-3.83-.62-5.74-.09-.73-1.24-.77-1.18,0,.63,8.05,1.14,16.11,1.57,24.17.42,8.07.84,16.14,1.62,24.18,1.41,14.64,4.04,29.31,9.81,42.91,5.09,11.98,12.77,22.9,23.15,30.87,9.68,7.44,21.6,11.96,33.9,11.33,11.36-.58,23.05-5.27,30.43-14.18.89-1.07,1.67-2.21,2.38-3.4.39-.66-.56-1.15-1-.58Z"/>
  <path class="cls-4" d="M1249.57,426.8c-12.08-15.51-34.52-16.58-47.56-30.93-6.59-7.26-9.64-16.83-12.11-26.12-2.52-9.48-4.5-19.27-9.05-28.05-2.23-4.29-5.12-8.23-8.71-11.48-3.63-3.28-7.84-5.84-12.28-7.87-9.28-4.24-19.32-6.4-29-9.52-4.9-1.58-9.75-3.41-14.28-5.89-4.88-2.67-9.34-6.06-13.37-9.9-8.12-7.73-14.51-17.03-20.49-26.45-1.47-2.32-2.94-4.63-4.4-6.95-.42-.66-1.46-.06-1.05.62,10.96,18.57,23.45,37.91,44.03,46.77,9.33,4.01,19.3,6.17,28.91,9.36,9.37,3.12,18.55,7.48,24.84,15.36,6.12,7.66,8.82,17.38,11.24,26.71,2.43,9.38,4.57,19.1,9.47,27.58,2.33,4.04,5.32,7.67,8.91,10.65,3.66,3.03,7.79,5.44,12.02,7.57,8.45,4.26,17.58,7.5,25.18,13.27,3.89,2.95,7.21,6.61,9.45,10.97,2.6,5.05,3.72,10.77,3.77,16.42.1,12.33-4.96,23.85-10.75,34.48-1.46,2.67-2.96,5.31-4.47,7.96-.46.81.78,1.54,1.25.73,6.18-10.71,12.62-21.82,14.78-34.17,1.87-10.67.51-22.35-6.31-31.1Z"/>
  <path class="cls-4" d="M979.26,291.09c-7.33,4.51-16.31,6.18-24.76,4.5-7.78-1.55-14.83-5.94-19.83-12.07-1.37-1.69-2.58-3.51-3.6-5.43-.87-1.64-2.17-4.32-.5-5.87.76-.7-.38-1.84-1.14-1.14-3.1,2.88.11,7.89,1.89,10.58,2.35,3.57,5.34,6.69,8.77,9.24,7.2,5.34,16.26,7.74,25.16,6.7,5.25-.61,10.31-2.34,14.81-5.11.88-.54.07-1.93-.81-1.39Z"/>
  <path class="cls-4" d="M1276.81,930.66c-1.72-4-3.71-7.9-5.64-11.81-1.93-3.91-3.88-7.81-5.87-11.69-3.97-7.77-8.06-15.47-12.26-23.12-8.37-15.23-17.18-30.22-26.45-44.93-5.22-8.29-10.59-16.49-16.14-24.57-.35-.52-1.2-.03-.85.5,9.63,14.54,18.96,29.29,27.84,44.3,8.85,14.96,17.26,30.18,25.23,45.63,2.23,4.32,4.43,8.67,6.59,13.03,2.19,4.41,4.23,8.91,6.51,13.27.36.69,1.32.08,1.03-.6Z"/>
  <path class="cls-4" d="M1293.8,898.93c-7.54-10.12-16.06-19.55-25.02-28.42-8.94-8.85-18.45-17.11-28.46-24.74-5.7-4.34-11.59-8.42-17.62-12.29-.54-.35-1.03.5-.5.85,10.51,6.93,20.61,14.52,30.17,22.71,9.51,8.15,18.5,16.91,26.88,26.22,4.76,5.28,9.29,10.75,13.75,16.28.36.45,1.15-.15.8-.62Z"/>
  <path class="cls-8" d="M308.05,1159.25c-1.97,25.55-6.3,51.87-12.11,77.47-16.41,72.48-44.47,139.29-63.13,167.08-25.24,37.62-88.16,62.01-114.98,40.85-20.59-16.26-31.16-53.2-13.43-134.88,9.78-45.07,23.99-112.18,36.64-166.31,9.16-39.12,17.51-71.48,22.79-83.84,17.35-29.32,40.8-60.05,68.98-75.7,14.23-7.92,30.68-15.14,47.73-21.59,7.27,22.44,34.03,112.1,27.5,196.91Z"/>
  <path class="cls-8" d="M381.54,1330.74c-.16.53-.34,1.05-.52,1.56-1.72,4.79-4.29,9.27-7.21,13.44-4.08,5.87-8.7,11.4-13.48,16.72-9.3,10.38-19.59,19.84-30.53,28.45-22.15,17.43-46.85,31.35-72.33,43.25-12.86,5.98-25.95,11.48-39.16,16.65-14.28,5.59-28.74,11.56-43.88,14.38-5.88,1.1-11.9,1.69-17.88,1.4-15.49.73-29.23-4.11-39.8-16.57-2.68-3.14-5-6.3-7.01-9.46-1.24-1.97-2.34-3.85-3.3-5.75-28.71-55.63,35.3-112.24,67.67-136.75,20.2-15.31,92.72-81.25,152.51-135.46,1.11-1.02,2.22-2.01,3.34-3.01-6.4,10.77-6.25,24.13-5.71,36.24.66,14.62,2.58,29.16,5.71,43.46,3.13,14.28,7.45,28.31,12.93,41.88,1.76,4.3,3.63,8.59,5.72,12.78,4.01,8.08,8.79,15.77,14.83,22.49,4.27,4.74,9.14,8.96,14.57,12.32.69.43,1.39.84,2.1,1.24.47.26.95.5,1.42.74Z"/>
  <path class="cls-4" d="M382.83,1325.13c-.27,1.92-.73,3.79-1.29,5.61-.47-.24-.95-.48-1.42-.74-.71-.4-1.4-.81-2.1-1.24-5.43-3.35-10.3-7.58-14.57-12.32-6.04-6.72-10.82-14.41-14.83-22.49,6.25-10.41,12.54-20.63,18.65-30.35.34-.53.68-1.06,1-1.58,2,5.24,3.89,10.54,5.64,15.88,2.56,7.79,4.95,15.67,6.9,23.65,1.89,7.67,3.19,15.68,2.01,23.58Z"/>
  <path class="cls-8" d="M321.93,1090.72c-.95,13.59-3.19,27.11-6.96,40.2-3.77,13.09-9.16,25.63-15.31,37.77-.16.31-.32.63-.48.94-.31,0-.63,0-.94.02-.32,0-.66.02-.98.02-30.71.63-61.42,1.27-92.12,1.98-.44,0-.87,0-1.31.03-.03-.32-.05-.65-.05-.98-.76-15.41-1-30.89-1.5-46.31-.58-18.59-1.18-37.17-1.76-55.76-.03-1-.06-2.02-.1-3.01-.02-.44-.03-.85-.03-1.29,9.67-.18,19.34-.43,29-.79,29.6-1.06,59.13-2.84,88.55-5.35.02-1.79.02-3.56-.02-5.35-.13-9.35-.72-18.72-1.87-28.02-.85-7.09-2.01-14.14-3.51-21.12.14.05.27.16.34.37.5,1.68.92,3.35,1.32,5.05,3.19,13.31,5.59,26.81,6.96,40.43,1.39,13.69,1.72,27.47.77,41.19Z"/>
  <path class="cls-8" d="M316.05,1024.81c-1.27-7.11-2.87-13.75-4.24-20.44-.1-.5.37-.79.73-.68,1.5,6.98,2.66,14.02,3.51,21.12Z"/>
  <path class="cls-4" d="M307.25,1179.45c-1.34,1.21-2.68,2.43-4.01,3.66-10.85,9.9-21.71,19.8-32.55,29.71-6.84,6.25-13.69,12.51-20.52,18.78-.66.6-1.34,1.21-2,1.8-.16.16-.32.31-.48.45-.37.34-.73.68-1.1,1-2.8,2.58-5.61,5.14-8.41,7.7-10.83,9.91-21.68,19.83-32.51,29.73-5.45,4.98-10.9,9.96-16.35,14.94-5.17,4.74-10.3,9.58-15.62,14.17-9.61,8.32-21.34,15.89-34.63,14.77-.64-.06-.64-1.06,0-1.02,1.58.11,3.18.13,4.77-.02,13.57-1.23,24.34-10.37,34-19.18,10.66-9.72,21.28-19.47,31.93-29.21,10.74-9.83,21.47-19.65,32.21-29.48.71-.66,1.43-1.31,2.14-1.97.14-.13.29-.26.43-.4.37-.32.74-.66,1.11-1.02.45-.4.89-.81,1.34-1.23,9.01-8.22,18.02-16.47,27.03-24.71,10.74-9.83,21.46-19.67,32.19-29.5.68-.63,1.69.39,1.02,1.02Z"/>
  <path class="cls-4" d="M250.23,1233.03c-.85.27-1.71.55-2.55.82-1.05.34-2.1.69-3.13,1.03-.69.23-1.39.47-2.08.69-.74.24-1.47.5-2.21.74-17.25,5.84-34.3,12.19-51.16,19.02-17.01,6.88-33.76,14.36-50.42,22-.58.27-1.1-.58-.5-.87,9.27-4.58,18.67-8.88,28.14-13.01,16.68-7.27,33.56-14.06,50.65-20.3,5.84-2.13,11.67-4.24,17.54-6.27,2.13-.74,4.26-1.48,6.38-2.19.69-.24,1.4-.47,2.1-.71,1.34-.45,2.68-.9,4.01-1.35,1.05-.35,2.11-.71,3.16-1.05-.66.6-1.34,1.21-2,1.8.65-.11,1.31-.23,1.95-.35.03,0,.08-.02.11-.02Z"/>
  <path class="cls-4" d="M250.23,1233.03c-.85.27-1.71.55-2.55.82-.37.34-.73.68-1.1,1-.82.16-1.64.31-2.47.43-.55.11-1.1.21-1.64.29-2.66.47-5.3.9-7.96,1.32-2.66.42-5.32.82-8,1.21-13.91,2.01-27.9,3.48-41.93,4.43-.72.05-.71-1.08,0-1.13,7.93-.53,15.85-1.23,23.75-2.1,10.9-1.21,21.76-2.72,32.56-4.61,1.6-.26,3.18-.55,4.77-.84.84-.14,1.66-.29,2.5-.47.65-.11,1.31-.23,1.95-.35.03,0,.08-.02.11-.02Z"/>
  <path class="cls-4" d="M310.39,853.26c-8.95,10.92-10.4,25.48-13.11,38.82-.84,4.14-1.83,8.25-3.21,12.25-.29.83,1.03,1.19,1.32.36,4.57-13.31,4.76-27.76,10.21-40.81,1.47-3.53,3.35-6.92,5.66-9.97.38-.5-.47-1.16-.87-.67Z"/>
  <path class="cls-4" d="M433.78,890.67c-3.32,3.97-7.22,7.21-11.89,9.48-4.66,2.27-9.85,3.52-15.04,3.58-10.26.13-19.88-4.77-26.33-12.67-3.61-4.43-6.1-9.73-7.12-15.35-.17-.96-1.64-.56-1.47.4,1.89,10.39,8.72,19.62,17.89,24.79,9.43,5.31,20.88,5.66,30.8,1.46,5.5-2.33,10.65-6.03,14.21-10.88.45-.61-.56-1.39-1.05-.81Z"/>
  <path class="cls-5" d="M836.62,355c-4.01-1.48-8.04-2.98-12.06-4.48-7.87-2.92-15.75-5.84-23.62-8.77-.6.43-1.18.89-1.77,1.31-7.19,5.13-15.18,9.19-23.62,11.85-15.93,5.03-33.34,4.66-48.47-2.72-13.73-6.69-24.92-18.89-28.26-34.03-.05-.24-.08-.47-.13-.69-.82-2.35-1.5-4.72-2-7.11-3.19-15.38-.23-32.05,8.38-45.23,8.45-12.93,22.12-21.99,37.01-25.78,15.07-3.82,30.93-2.01,44.8,5,13.65,6.9,25.02,18.43,31.6,32.26,3.9,8.17,6.27,17.26,5.87,26.36-.39,8.35-3.32,16.28-8.04,23.13-.42.61-.85,1.21-1.31,1.8,5.5,10.01,13.06,18.89,22.2,25.74.63.47.29,1.69-.58,1.37Z"/>
  <path class="cls-8" d="M517.84,515.01c-8.03,11.64-18.86,21.13-30.35,29.26-12.99,9.17-27.1,17.07-41.54,23.71-14.94,6.85-30.64,12.2-46.89,14.81-14.19,2.27-28.61,2.35-42.75-.23-5.21,17.39-6.85,35.83-4.66,53.86.08.73-.89.79-1.23.34-3.84-5.21-7.16-10.78-9.91-16.64-4.85-10.28-7.98-21.34-9.3-32.63-.52-4.3-.74-8.64-.69-12.96-2.37-1.1-4.71-2.27-7-3.53-10.03-3.64-18.89-10.2-25.68-18.6-8.96-11.09-14.57-24.78-16.93-38.78-2.11-12.56-1.58-25.44,1.21-37.85,2.81-12.54,7.88-24.58,14.69-35.5,6.85-11.03,15.47-20.96,25.48-29.24,10.06-8.32,21.46-14.88,33.77-19.23,13.19-4.66,27.2-6.92,41.17-6.98,14.06-.05,28.13,2.11,41.59,6.13,13.59,4.05,26.63,9.99,38.61,17.57,12.15,7.69,23.45,17.07,32.76,28.06,9.54,11.25,17.22,24.73,18.68,39.62,1.37,13.9-3.21,27.44-11.03,38.8Z"/>
  <g>
    <path class="cls-2" d="M774.52,271.42c-4.53-14.79-23.28-17.98-34.12-7.97-2.96,2.74-5.1,6.32-6.4,10.12-.66,1.93-1.02,3.91-1.17,5.93-.19,2.71.37,4.03,1.66,6.4,1.34,2.46,4.9.3,3.72-2.17-1.09-2.29-.85-3.81-.23-6.25.53-2.06,1.26-4.01,2.34-5.85,2.02-3.43,5.06-6.25,8.79-7.72,7.34-2.88,15.9-.39,19.47,6.89,3.86,7.88-1.51,14.66-6.32,20.57-4.76,5.84-10.78,14.59-6.66,22.33,1.39,2.6,4.92.69,4.48-1.89-1.5-8.62,4.3-14.34,9.18-20.67,4.41-5.72,7.5-12.46,5.26-19.74Z"/>
    <path class="cls-2" d="M766.61,328.31c-.04-.17-.15-.29-.23-.44-.26-.5-.38-.65-.5-.81-.44-.56-.56-.7-.72-.8-.53-.3-.73-.34-.95-.34-.97.31-1.12.44-1.23.61-.77,1.17-.87,1.31-.92,1.48-.15.29-.22.6-.21.93,0,.61.06.92.21,1.21.1.3.26.56.5.78.22.24.48.4.78.5.29.15.6.22.94.21.21-.03.43-.06.65-.09.41-.12.77-.32,1.07-.63.13-.16.25-.33.38-.49.22-.38.33-.79.33-1.23-.05-.49-.08-.7-.11-.92Z"/>
  </g>
  <path class="cls-2" d="M449.01,454.04c-.2.53-.41,1.05-.63,1.57-12.82,30.37-40.97,54.43-49.78,86.26-1.17,4.22-1.8,8.49-2.63,12.75-7.53-16.55-19.58-30.56-31.71-44.89-15.04-17.79-40.42-47.17-20.27-68.56,3.63-3.86,9.26-7.07,14.99-6.1,3.96.67,7.09,3.19,9.8,5.71,8.07,7.51,14.66,16.14,19.45,25.43.26-9.03,5.54-17.77,13.63-23.7,8.09-5.93,18.81-9.12,29.53-9.36,6.13-.14,12.94.94,16.65,5.05,3.97,4.39,2.99,10.49.96,15.86Z"/>
  <path class="cls-2" d="M937.99,676.44c-4.25,2.65-10.06,1.85-13.23-2.1-.58-.72-1.03-1.54-1.4-2.39.38-.19.78-.36,1.16-.56,2.31-1.2,4.8-2.76,5.84-5.27.91-2.18-.14-4.65-2.5-5.25-2.52-.64-4.85.91-5.9,3.15-1.07,2.26-1.05,4.95-.32,7.32-4.21,2.02-8.59,3.71-13.07,5.03-5.29,1.56-10.76,2.67-16.26,3.14-4.8.41-10.49.17-13.82-3.84-.22-.26-.41-.54-.6-.82,1.15-.76,2.26-1.57,3.27-2.48,1.69-1.52,3.58-4.25,2.18-6.53-1.15-1.89-3.6-1.8-5.31-.79-2.06,1.21-2.98,3.59-2.82,5.9.09,1.29.44,2.45.96,3.5-.25.15-.51.3-.75.45-5.06,2.94-10.79,4.74-16.63,5.14-2.85.2-6.05.26-8.6-1.24-2.21-1.3-3.76-4.22-2.42-6.66.28-.52-.43-1.14-.85-.65-3.62,4.25-8.48,9.52-14.69,8.27-2.44-.49-4.44-2.08-4.93-4.58-.28-1.45-.04-3.01.78-4.18.57-.48,1.15-.96,1.71-1.46.47-.42-.13-1.01-.62-.8-.97.42-1.69,1.1-2.2,1.91-5.66,4.75-12.15,8.65-18.87,11.63-3.83,1.7-7.81,3.1-11.86,4.18-1.97.52-3.96.97-5.97,1.34-2.04.38-4.15.72-6.23.46-2.07-.25-4.06-1.18-4.96-3.15-.55-1.2-.69-2.71-.06-3.84.36-.37.72-.75,1.07-1.12.42-.44-.13-1.23-.67-.87-.54.44-.83.73-1.06,1.05-3.9,3.95-8.34,8.13-14.12,8.56-4.77.36-9.92-2.22-9.97-7.36,1.72-1.91,3.21-4.05,4.38-6.38.23-.45-.15-.99-.66-.86-3.07.8-4.73,3.71-4.89,6.72-4.72,5.08-11.23,8.48-18.17,9.27-.65.07-.67,1.09,0,1.03,6.9-.63,13.39-3.78,18.24-8.62.16,1.2.57,2.36,1.23,3.34,3.58,5.31,11.33,4.82,16.31,2.09,2.55-1.4,4.76-3.32,6.82-5.36-.09,1.67.57,3.44,1.76,4.64,3.01,3.02,8.06,2.14,11.79,1.44,9.17-1.73,18.06-5.11,26.06-9.91,3.2-1.92,6.2-4.08,9.08-6.41-.44,2,0,4.28,1.28,5.85,3.2,3.93,9.3,3.11,13.12.68,2.16-1.37,3.91-3.2,5.58-5.1-.04,1.5.53,3.01,1.52,4.21,1.8,2.21,4.75,2.94,7.48,3.11,6.16.37,12.58-1.17,18.11-3.84,1.17-.57,2.34-1.2,3.48-1.89,2.01,2.96,5.61,4.76,9.25,5.24,3.27.43,6.58.1,9.83-.34,3.26-.44,6.5-1.05,9.7-1.85,5.7-1.43,11.23-3.47,16.52-6.02,2.15,4.89,7.31,7.66,12.64,6.67,1.41-.26,2.75-.81,3.96-1.57.77-.48.06-1.7-.71-1.22ZM756.8,676.1c-.66,1.12-1.41,2.19-2.22,3.21.38-1.3,1.12-2.46,2.22-3.21ZM876.48,669.73c.21-2.04,1.63-4,3.8-4.2,1.04-.1,2.02.43,2.28,1.51.29,1.2-.46,2.44-1.18,3.34-1.09,1.35-2.58,2.44-4.09,3.39-.61-1.25-.94-2.65-.8-4.04ZM922.49,667.9c.01-2.22.89-5.09,3.3-5.75,2.41-.66,4.45,1.38,3.3,3.72-1.06,2.17-3.33,3.42-5.39,4.47-.26.13-.52.25-.78.38-.27-.92-.44-1.86-.43-2.81Z"/>
  <path class="cls-2" d="M955.66,867.96c-6.18-.87-12.91,2.44-18.79-.47-1.21-.6-2.31-1.54-2.95-2.68,2.23-1.85,4.15-4.03,5.72-6.47.2-.32.06-.74-.24-.93-2.35-1.51-5.02-.15-6.45,1.96-1.08,1.6-1.34,3.41-.85,5.09-2.6,1.91-5.56,3.34-8.67,4.17-2.8.75-6.16,1.32-9.01.48-1.16-.34-2.44-1.08-2.8-2.28,1.04-1.09,2.03-2.22,2.93-3.45.28-.37-.02-.94-.43-1.05-2.21-.57-3.88,1.44-4.04,3.5-.01.19.01.37.03.55-4.51,4.45-10.58,7.71-16.78,8.24-3.5.3-7.78-.43-9.65-3.78-.28-.5-.48-1.06-.64-1.63.75-.56,1.44-1.17,2-1.88,1.39-1.74,2.17-4.16.13-5.71-.2-.15-.51-.11-.72,0-2.69,1.46-3.48,4.22-3.02,6.9-1.68,1.06-3.52,1.95-5.3,2.78-4.51,2.09-9.32,3.59-14.22,4.46-4.79.85-10.05,1.37-14.79,0-3.64-1.06-7.2-3.72-8.39-7.42,3.38-2.67,6.44-5.71,9.09-9.11.27-.35.35-.99-.16-1.22-4.12-1.84-8.85.83-10.4,4.87-.61,1.59-.65,3.23-.31,4.81-10.77,8.17-24.56,12.46-38.05,11.02-2.83-.3-5.89-1-8.02-3.01-1.87-1.76-2.86-4.41-1.92-6.89.27-.72-.79-1.31-1.29-.75-4.12,4.66-9.19,10.54-15.86,11.1-5.08.43-11.99-3.49-10.9-9.36.16-.88-.93-1.37-1.44-.61-3.46,5.11-7.79,11.58-14.36,12.77-4.95.89-12.32-2.79-11.15-8.67.14-1.1-1.36-1.3-1.53-.42-.67,5.62-4.6,10.52-9.8,12.2-5.33,1.73-11.38.05-15.17-4.03-.58-.62-1.49.3-.93.93,4.12,4.57,10.99,6.54,16.85,4.49,4.35-1.53,7.76-4.94,9.48-9.11,1.71,4.06,6.81,6.61,11.23,6.34,6.76-.41,11.57-6.23,15.27-11.55.79,4.98,6.19,8.41,11.16,8.6,6.72.26,12.18-4.87,16.51-9.67.15,3.42,2.87,6.46,6.03,7.81,4.59,1.96,10.21,1.86,15.1,1.47,9.81-.77,19.41-4.21,27.52-9.78.6-.41,1.16-.86,1.74-1.29,1,2.52,2.95,4.74,5.16,6.15,5,3.19,11.46,2.95,17.1,2.2,6.09-.81,12.02-2.58,17.56-5.25,1.47-.71,3.08-1.45,4.56-2.36.69,1.95,2.02,3.7,3.74,4.67,6.18,3.5,14.5.55,20.03-2.91,1.79-1.12,3.43-2.42,4.94-3.86.82,1.5,2.6,2.45,4.32,2.77,5.91,1.11,12.65-1.27,17.44-4.65.6.11.86.5,1.18.86,2.11,2.33,5.46,3.19,8.5,3.29,4.53.14,8.93-1.44,13.47-.84.8.1,1-1.3.19-1.41ZM838.34,866.46c-.35-4,3.5-8.44,7.63-7.42-2.27,2.76-4.83,5.28-7.61,7.53,0-.04-.02-.08-.02-.12ZM884.76,863.14c1.08,1.32-.79,3.46-1.99,4.46-.07-1.74.54-3.43,1.99-4.46ZM933.54,861.49c.59-1.85,2.49-3.81,4.47-3.21-1.29,1.92-2.84,3.64-4.62,5.13-.1-.61-.07-1.25.14-1.92Z"/>
</svg>