<?xml version="1.0" encoding="UTF-8"?>
<svg id="_Layer_" data-name="&amp;lt;Layer&amp;gt;" xmlns="http://www.w3.org/2000/svg" viewBox="0 0 1077.89 1684.21">
  <defs>
    <style>
      .cls-1 {
        fill: #3b724e;
      }

      .cls-2 {
        fill: #464c7b;
      }

      .cls-2, .cls-3, .cls-4, .cls-5 {
        opacity: .5;
      }

      .cls-6 {
        fill: #c98b53;
      }

      .cls-7 {
        fill: #766782;
      }

      .cls-3, .cls-8 {
        fill: #d9dee2;
      }

      .cls-9 {
        fill: #fff;
      }

      .cls-10, .cls-4 {
        fill: #383838;
      }

      .cls-11 {
        fill: #4a3333;
      }

      .cls-12 {
        fill: #753022;
      }

      .cls-13 {
        fill: #d6a26e;
      }

      .cls-14 {
        fill: #f2f2f2;
      }

      .cls-15 {
        fill: #e9946b;
      }

      .cls-16 {
        fill: #43c4db;
      }

      .cls-17 {
        fill: #5b74ca;
      }

      .cls-18 {
        fill: #ea876c;
      }

      .cls-19 {
        fill: #252560;
      }

      .cls-20, .cls-5 {
        fill: #1a1a1a;
      }

      .cls-21 {
        fill: #953b16;
      }

      .cls-22 {
        fill: #b9522a;
      }

      .cls-23 {
        fill: #264930;
      }

      .cls-24 {
        fill: #ac4520;
      }

      .cls-25 {
        fill: #d87257;
      }

      .cls-26 {
        fill: #3f59a8;
      }
    </style>
  </defs>
  <g>
    <g>
      <path class="cls-7" d="M343.84,1558.64s-24.12-1.78-25.57,7.7c-1.45,9.48,54.03,7.11,54.03,7.11,0,0,168.69-.59,171.58-7.7s.06-10.67-27.98-10.07c-27.98.59-172.06,2.96-172.06,2.96Z"/>
      <g>
        <g>
          <path class="cls-16" d="M371.1,1492.38s6.45.28,9.35,7.94c2.9,7.66,6.21,27.28,4.94,33.63-1.27,6.35-41.87-.78-41.87-.78l-2.48-17.33,30.07-23.46Z"/>
          <path class="cls-20" d="M383.22,1535.95s3.27-.94,5.19,4.53c1.96,5.58,2.57,14.06-.44,19.38-1.94,3.42-7.68,2.57-11.26,2.97-4.97.55-9.94,1.17-14.9,1.85-3.47.47-6.76.8-9.2,3.43-1.13,1.22-2.02,2.64-3.08,3.92-3.88,4.72-8.96,7.98-14.58,10.29-14.24,5.85-33.68,7.16-52.97,5.26-19.29-1.91-19.95-11.62-19.81-14.85.14-3.22,2.75-13.87,10.27-13.55,7.52.32,110.79-23.22,110.79-23.22Z"/>
          <path class="cls-22" d="M361.02,1443.54s5.79,32.19,9.13,41.83c3.35,9.64,2.44,22.55-3.91,31.24-6.34,8.68-15.99,10.96-15.99,10.96l-23.93-21.21s7.39-10.85,6.21-19.44c-1.18-8.59-17.8-47.1-17.8-47.1l46.29,3.72Z"/>
          <path class="cls-16" d="M375.4,1504.94s-3.92,15.98-24.7,23.69c0,0,5.88-11.59-4.31-24.94-10.19-13.35-19.06-7.28-24.71-1.06-5.65,6.22-18.39,27.2-26.19,33.32-7.8,6.12-15.37,6.87-19.89,12.06-4.53,5.19-8.08,12.57-6.07,15.89,2.01,3.32,12.52,9.15,44.99,5.16,32.46-3.99,27.51-13.89,33.02-16.88,5.51-2.99,34.84-9.27,37.27-15.62,2.43-6.35-.72-33.4-9.4-31.62Z"/>
          <path class="cls-10" d="M285.23,1541.22c.46-.21.9-.29,1.22-.08.75.5.13,1.93-.04,2.56-.86,3.3,4.12,4.43,6.46,5.16,2.86.89,5.84,1.71,8.84,1.9,6.43.39,11.61-2.51,17-5.59,9.09-5.2,18.57-10.28,28.53-13.58,1.18-.39,1.64,1.33.71,1.92-7.4,4.71-13.97,8.74-21.61,13.06-6.18,3.5-12.6,9.24-19.88,9.94-6.38.61-19.11-2.81-24.54-6.36-.9-.59-1.73-1.36-2.2-2.35-.92-1.93.75-3.71,2.27-5.06.35-.31,2.54-1.2,3.24-1.52Z"/>
        </g>
        <g>
          <path class="cls-16" d="M498.45,1510.63s-3.25-2.11-5.32,4.37c-2.07,6.48-1.33,21.71-1.33,21.71l12.62,3.04,7.14-13.15-13.11-15.97Z"/>
          <path class="cls-20" d="M563.33,1549.84s4.52,5.77,5.67,11.5c1.15,5.74,2.3,11.47-.86,17.26-3.15,5.79-15.98,11.7-37.49,11.98-21.51.27-35.07-8.88-37.29-14.6s.36-10.61-.74-12.51c-1.1-1.9-4.33-1.86-4.36-4.74-.04-2.87-2.45-27.01,5.09-26.14,7.54.86,69.98,17.25,69.98,17.25Z"/>
          <path class="cls-22" d="M482.49,1438.78s7.8,21.41,9.07,36.45c1.27,15.04,2.4,19.33,4.61,24.68,2.22,5.35-1.96,15.08-.8,21.52,1.16,6.44,4.44,10.7,4.44,10.7,0,0,1.36-1.08,1.44-1.14,6.66-5.3,13.33-10.59,19.99-15.89,3.09-2.46,6.18-4.91,9.27-7.37.68-.54,1.46-1.01,2.11-1.57,1.22-1.04,1.09-2.63,1.25-4.14.46-4.27.81-8.57.69-12.87-.08-2.67-.22-5.51-.9-8.1-.71-2.71-1.93-5.33-2.9-7.95-2.42-6.54-4.6-13.51-5.03-20.52-.03-.48-.05-.96-.06-1.45-.12-9.68-1.81-58.05-4.26-81.68-2.45-23.63-38.91,69.32-38.91,69.32Z"/>
          <path class="cls-16" d="M498.12,1526.89s1.05-1.78,2.04-8.85c.99-7.07,8.38-17.75,25.58-17.97,17.2-.22,21.69,13.84,22.84,20s7.73,15.78,11.01,20.15c3.28,4.37,6.57,9.62,4.49,14.94-2.08,5.32-11.72,8.97-32.16,8.35-20.44-.62-32.33-4.88-34.53-9.27-1.57-3.12-.14-6.52-.59-9.76-.47-3.38-1.97-6.04-4.53-8.32-.32-.29-.67-.59-.81-1-.11-.32-.08-.67-.04-1,.14-1.45.19-14.24,2.31-13.4,2.16.85,4.38,6.12,4.38,6.12Z"/>
          <path class="cls-10" d="M508.25,1538.32c1.7,2.26,2.57,5.34,5.72,5.83,1.46.23,2.95-.03,4.41-.27,10.14-1.62,20.49-1.95,30.71-.96.63.06,1.39.08,1.77-.44.19-.27.23-.61.25-.94.2-3.84-1.63-7.63-2.19-11.44-.17-1.15,1.72-1.46,2.47-1.07,1.29.66,1.96,3.44,2.45,4.7,1.26,3.25,2.13,6.64,2.59,10.09.33,2.49.04,4.36-2.6,5.19-4.01,1.27-8.5-.16-12.57-.34-4.39-.19-8.81-.31-13.2-.13-4.58.18-9.07,1.32-13.58,1.49-6.44.24-7.56-6.67-9.78-10.05-1.21-1.83,2.21-3.49,3.58-1.68Z"/>
        </g>
        <path class="cls-16" d="M225.52,1105.41c17.54,117.17,54.95,262.8,61.92,303.58,6.97,40.78,8.14,48.29,8.14,48.29,0,0,52.83,10.09,89.02-19.41,0,0-4.82-40.81-18.38-92.26-13.56-51.45-25.37-135.19-29.05-170.63-3.68-35.44-7.46-164.45-7.45-163.38s24.45,62.07,47.96,134.9c23.51,72.83,42.99,167.23,48.65,189.74,5.66,22.51,19.67,109.45,21.82,109.42,2.15-.03,57.22,17.56,96.61-14.13,0,0-33.05-146.92-40.95-175.86-7.9-28.94-16.65-40.66-18.93-51.38-2.29-10.73-28.32-265.57-46.38-333.1-18.06-67.53-58.03-139.9-58.03-139.9l-138.08,37.17s-47.26,133.94-16.88,336.94Z"/>
        <path class="cls-11" d="M277.48,840.18c.75-3.52,6.05-2.09,5.39,1.41-2.67,14.2.48,28.35,8.23,40.1-.03-.39-.07-.77-.1-1.16-1.41-18.22-1.34-37.32,2.25-55.31.56-2.8,5.31-2.29,5.06.62-1.54,17.96-2.87,35.59-1.47,53.62,1.43,18.46,5.55,36.05,10.27,53.88.96,3.63-4.33,5.11-5.57,1.61-4.74-13.41-7.61-27.74-9.32-42-13.39-13.87-18.73-34.02-14.75-52.77Z"/>
        <path class="cls-19" d="M309.32,1034.33c0-1.56,2.4-1.59,2.42-.03,1.12,106.49,19.28,212.23,40.79,316.23,6.12,29.58,12.53,59.11,18.94,88.63.56,2.56-3.36,3.71-3.92,1.14-22.69-104.33-45.51-209.14-54.53-315.72-2.54-30.05-3.63-60.1-3.7-90.25Z"/>
        <path class="cls-9" d="M309.96,949.71c13.12,29.12,30.41,90.4,41.18,119.61,1.25,3.39-12.41-7.82-13.21-11.43-5.79-26.11-24.22-79.43-32.21-107.46-.95-3.35,2.78-3.96,4.24-.73Z"/>
      </g>
    </g>
    <path class="cls-20" d="M379.82,423.01c.78.15,8.13,3.99,6.32,13.35-1.8,9.36-7.79,9.69-7.79,9.69,0,0,8.53,7.45,3.34,21.81-5.2,14.37-36.82,14.74-43.5-5.15-6.68-19.89,41.63-39.7,41.63-39.7Z"/>
    <g>
      <g>
        <path class="cls-10" d="M216.98,724.43s-32.89,256.97-15.3,290.62c17.59,33.65,140.72,33.65,160.6,29.06,19.88-4.59,120.07-22.18,126.19-36.71,6.12-14.53-42.06-182.02-52.77-211.84s-24.47-99.42-24.47-99.42l-194.25,28.3Z"/>
        <path class="cls-20" d="M420.16,876.02c-2.94-29.26-13.06-57.43-13.98-86.94-.05-1.44-.9-2.35-1.96-2.73-.48-.68-1.26-1.15-2.35-1.13-52.76.86-105.52,2.01-158.24,3.95-3.11.11-3.13,4.91,0,4.85,52.19-.94,104.37-2.01,156.56-2.71,1.07,22.87,7.29,44.99,11.38,67.42,1.09,5.96,2.01,11.95,2.6,17.98.27,2.79.47,5.6.59,8.4.11,2.68,1.09,7.04-1.42,8.54-2.44,1.46-6.16,2-8.91,2.8-2.99.87-6,1.67-9.02,2.41-5.81,1.43-11.68,2.62-17.59,3.6-24.37,4.06-49.27,4.39-73.86,2.48-12.59-.98-25.13-2.55-37.6-4.54-6.37-1.01-12.72-2.12-19.06-3.3-2.63-.49-6.89-.52-8.69-2.6-1.9-2.19-1.73-6.56-2.08-9.28-3.55-28.06-4.46-56.69-1.77-84.87.22-2.33-3.4-2.31-3.63,0-2.72,27.29-3.22,54.61-.32,81.91.51,4.82.16,12.01,3.44,15.97,3.57,4.3,11.56,4.34,16.66,5.3,13.16,2.48,26.43,4.51,39.74,6,26.61,2.99,53.57,3.58,80.16.05,12.85-1.71,25.58-4.33,37.99-8.11,4.41-1.34,11-2.18,11.99-7.57,1.03-5.61-.05-12.26-.62-17.89Z"/>
        <path class="cls-20" d="M212.93,758.05l69.82-6.85-53.19-28.6-12.58,1.83s-1.67,13.04-4.05,33.61Z"/>
      </g>
      <g>
        <path class="cls-14" d="M366.88,495s21.41,9.94,40.53,13c19.12,3.06,42.06,22.18,45.89,39.77,3.82,17.59.76,33.65,3.82,39.77s6.12,14.53,5.35,22.94c-.76,8.41-.76,13.77-.76,17.59s1.57,5.73.78,12.81c-.78,7.08-20.67,15.49-20.67,15.49l-227.9,34.42-45.41-28.34s-5.88-5.22-5.09-14.83c.79-9.6,6.91-24.9,6.91-31.78s-1.53-16.83,0-28.3c1.53-11.47,7.65-25.24,7.65-29.06s9.18-42.06,25.24-54.3c16.06-12.24,32.12-13.77,45.12-12.24,13,1.53,25.24-6.12,32.89-5.35,7.65.76,85.66,8.41,85.66,8.41Z"/>
        <path class="cls-8" d="M229.98,559.48c.45-.31.79-.79.88-1.45.68-5.06.21-9.9-.67-14.9-.3-1.69-3.19-1.32-3.03.41.2,2.09.25,4.19.23,6.29-.18-.61-.35-1.22-.53-1.82-.69-2.26-4.01-1.32-3.53.97,2.87,13.71,4.94,27.39,6.64,41.28.39,3.16,5.33,3.3,5.07,0-.82-10.3-2.59-20.67-5.06-30.78Z"/>
        <path class="cls-8" d="M408.99,557.18c-.29-2.2-3.64-2.36-3.56,0,.21,6.02-1.48,12-4.15,17.34-2.13,4.27-5.01,8.83-4.36,13.79.31,2.4,3.8,3.35,4.53.61,1.44-5.42,3.97-10.08,5.96-15.29,2.09-5.47,2.33-10.72,1.59-16.46Z"/>
        <path class="cls-3" d="M453.11,547.13c-8.44-4.04-18.2-.28-24.81,5.51-8.24,7.21-13.82,17-18.33,26.78-.44.95.88,1.77,1.42.83,4.48-7.67,9.94-15.64,16.16-22,6.6-6.74,14.73-10.57,24.06-7.57,2.07.66,3.51-2.6,1.5-3.55Z"/>
        <path class="cls-3" d="M226.97,578.47c-2.47-11.74-7.69-23.81-14.82-33.47-5.36-7.26-15.18-19.17-25.22-13.22-.62.37-.22,1.45.5,1.2,6.06-2.14,11.35,2.81,15.18,6.84,3.45,3.64,6.46,7.63,9.07,11.91,5.32,8.73,8.29,18.16,11.34,27.82.8,2.52,4.48,1.48,3.94-1.09Z"/>
      </g>
      <g>
        <path class="cls-10" d="M225.39,616.6s-.76-22.94,6.88-42.06c7.65-19.12,26-55.06,30.59-67.3,4.59-12.24,13.77-23.71,20.65-26,6.88-2.29,24-4.67,24-4.67l53.31,12.88s9.87.97,13.69,10.14,13,56.59,16.83,65.01c3.82,8.41,7.65,22.18,7.65,22.18,0,0-4.59,13.77-3.82,23.71.76,9.94-7.65,40.53-7.65,40.53l-113.19,2.29-38.24-13.77-10.71-22.94Z"/>
        <path class="cls-14" d="M348.14,477.79s10.71,3.82,13.77,7.65c3.06,3.82,0,9.18,1.53,13.77,1.53,4.59,9.94,26.77,13,49.71,3.06,22.94,1.53,45.12,0,47.42-1.53,2.29-35.18,17.59-60.42,12.24-25.24-5.35-61.95-21.41-63.48-26-1.53-4.59,3.06-38.24,6.88-45.12,3.82-6.88,7.65-11.47,7.65-11.47,0,0-3.82-10.71-.76-12.24,3.06-1.53,9.94-1.53,9.94-1.53,0,0,11.47-21.41,12.24-24.47.76-3.06,0-8.41,6.12-13,6.12-4.59,35.94-1.53,35.94-1.53l17.59,4.59Z"/>
        <path class="cls-20" d="M303.4,473.58s-15.3.76-9.18,10.71c6.12,9.94,43.59,11.47,43.59,11.47l17.43-1.34s6.27-2.48,5.51-7.07c-.76-4.59-16.06-9.18-16.06-9.18l-41.3-4.59Z"/>
        <path class="cls-18" d="M350.82,460.58s-3.06,9.94-.76,19.88c2.29,9.94,6.88,13,6.88,13,0,0-3.06,3.06-8.41,5.35-5.35,2.29-10.71,15.3-10.71,15.3,0,0-19.12,1.53-19.88,0-.76-1.53-1.53-9.18-5.35-13-3.82-3.82-16.06-10.71-18.35-16.83,0,0,5.35-.76,6.88-5.35,1.53-4.59.76-20.65.76-20.65l48.95,2.29Z"/>
        <path class="cls-8" d="M316.18,512.06c-3.91-.04-7.82-.05-11.73-.05.61-.71.7-1.89-.35-2.52-2.82-1.67-5.44-3.47-7.75-5.82-2.33-2.38-5.93-6.24-6.18-9.74-.1-1.39-1.97-1.35-2.13,0-.48,4.02,2.2,7.44,4.67,10.36,2.56,3.03,5.67,5.71,9.1,7.72-6.45.02-12.89.06-19.33.07-5.6,0-18.54-1.18-18.33,7.22.12,4.88,2.93,9.16,3.04,14.12.12,5.66-.68,11.49-1.54,17.07-1.72,11.22-4.4,22.27-6.48,33.43-.26,1.42,1.72,2,2.18.6,3.08-9.41,5.7-18.83,7.48-28.58,1.56-8.56,3.78-18.8,1.95-27.43-.44-2.08-1.32-4.03-1.88-6.08-.85-3.14-.17-4.9,3.15-5.54,4.36-.84,9.02-.45,13.43-.45,10.23,0,20.47.12,30.7,0,2.81-.03,2.82-4.34,0-4.37Z"/>
        <path class="cls-8" d="M360.99,503.99c-1.72,3.21-4.02,6.38-7.33,8.11-3.49,1.82-7.3,1.68-11.04,2.46-2.02.42-1.44,3.37.47,3.47,4.3.21,9.28-.77,12.92-3.14,3.49-2.27,5.43-5.94,7.3-9.54.79-1.53-1.5-2.89-2.32-1.36Z"/>
        <path class="cls-20" d="M287.75,530.87c-.48-2.94-4.1-6.1-7.12-4.42-1.35.75-2.16,2.26-2.16,3.8,0,.49.09.96.23,1.41-.5,2.39,1.2,4.87,3.83,5.13,3.28.32,5.74-2.77,5.23-5.91Z"/>
        <path class="cls-20" d="M358.88,530.87c-.48-2.94-4.1-6.1-7.12-4.42-1.35.75-2.16,2.26-2.16,3.8,0,.49.09.96.23,1.41-.5,2.39,1.2,4.87,3.83,5.13,3.28.32,5.74-2.77,5.23-5.91Z"/>
        <path class="cls-25" d="M349.35,476.02c-.74-8.26,1.46-15.43,1.46-15.43l-48.95-2.29s.31,6.46.14,12.36c3.14,5.25,10.84,15.17,24.33,15.17,11.36,0,18.9-5.56,23.01-9.8Z"/>
      </g>
      <g>
        <g>
          <path class="cls-22" d="M190.98,590.6s0-6.88,4.59-6.88,2.29,5.35,14.53,13.77c12.24,8.41,15.96,11.71,21.36,20s-8.36,9.83-8.36,9.83l-32.12-35.94v-.76Z"/>
          <path class="cls-13" d="M204.74,611.25s-55.83-115.48-55.06-125.42,4.59-16.83.76-29.83c-3.82-13-11.47-29.06-22.18-33.65-10.71-4.59-22.18.76-26,13-3.82,12.24,12.24,40.53,17.59,45.12s14.15,6.5,17.97,12.62,44.36,107.83,44.36,107.83c0,0,11.47,37.47,21.41,42.06,9.94,4.59,15.3-3.06,1.15-31.74Z"/>
          <path class="cls-22" d="M209.33,600.54s-19.88-12.24-25.24-9.18c-5.35,3.06-8.41,8.41-7.65,11.47.76,3.06,3.82,4.59,6.12,4.59s5.35-3.06,8.41-1.53c3.06,1.53,9.18,5.35,7.65,5.35s-12.24-2.29-15.3,0c-3.06,2.29-4.59,9.18-1.53,11.47,3.06,2.29,19.12,3.82,16.83,4.59-2.29.76-12.08,1.32-12.54,2.57s1.45,5.07,1.45,5.07c0,0,12.62,21.42,16.45,23.72,3.82,2.29,42.06,15.3,42.06,15.3l13-34.42s-18.74-7.27-22.56-14.15-7.65-12.24-16.06-18.35c-8.41-6.12-11.09-6.5-11.09-6.5Z"/>
          <path class="cls-24" d="M212.47,607.17c-1.22-1.71-4.57-.75-3.69,1.56,2.92,7.64-2.62,14.15-1.98,21.8.17,2.03,1.01,4.04.51,6.09-.36,1.49-1.3,2.84-1.79,4.29-1.07,3.13-1.26,6.82-.28,9.98.53,1.71,3.41,2.01,3.78,0,.31-1.68.24-3.31.37-5,.19-2.44,1.07-4.14,2.04-6.29,1.85-4.1-.15-7.02-.11-11.2.07-6.97,5.87-14.62,1.15-21.23Z"/>
          <path class="cls-21" d="M220.53,606.51c-3.28-3.14-7.09-5.02-11.1-7.06-3.87-1.96-7.12-5.18-11.14-6.73-1.88-.73-3.18,2.37-1.37,3.26,3.76,1.84,6.97,4.62,10.72,6.53,3.81,1.95,7.84,3.52,11.37,5.98,1.18.82,2.54-1,1.52-1.97Z"/>
        </g>
        <g>
          <path class="cls-22" d="M380.26,641.45s3.06-13,4.59-19.88c1.53-6.88,4.59-11.47,9.18-13.77,4.59-2.29,15.3-10.71,19.88-15.3s7.65-3.06,7.65-3.06c0,0-16.06,20.65-15.3,21.41s10.71,0,16.83.76c6.12.76,11.47,3.06,12.24,5.35.76,2.29-3.06,5.35-3.06,5.35,0,0,3.82,0,3.06,3.82-.76,3.82-6.12,6.12-6.12,6.12l-18.06,6.92-4.89,4.55-26-2.29Z"/>
          <path class="cls-8" d="M433.91,578c-8.49,6.25-17.7,14.08-22.59,23.61-.48.94.69,1.92,1.49,1.15,3.67-3.56,6.86-7.58,10.56-11.12,3.9-3.74,8.1-7.13,12.55-10.19,2.12-1.46.04-4.97-2.02-3.45Z"/>
          <path class="cls-21" d="M427.79,630.09c-3.6-3.66-8.52-3.08-13.08-1.86-5.95,1.6-11.46,3.39-16.67,6.72-1.47.94-.18,3.16,1.37,2.34,3.88-2.06,8.3-3.31,12.54-4.4,4.08-1.05,9.36-3.11,12.93.12,1.96,1.77,4.79-1.01,2.92-2.92Z"/>
        </g>
        <path class="cls-14" d="M175.68,620.42s12.24,12.24,17.59,22.94,12.24,14.53,16.83,16.83c4.59,2.29,29.06,9.94,35.18,12.24,0,0,5.35-32.12,13.77-34.41,8.41-2.29,68.83,3.06,77.24,4.59,8.41,1.53,29.06,4.59,32.12,3.82,3.06-.76,5.35-7.65,14.53-6.88,9.18.76,22.18,3.82,22.18,3.82,0,0,2.29-4.59,9.94-6.12,7.65-1.53,35.94-10.71,35.94-10.71,0,0,9.94-.76,11.47,7.65,1.53,8.41-3.06,22.18-5.35,26-2.29,3.82-6.12,4.59-6.12,9.94s3.82,11.47-.76,23.71-6.88,23.71-29.83,29.06c-22.94,5.35-55.06-.76-55.06-.76,0,0-1.53,34.42-8.41,39.77-6.88,5.35-67.3-7.65-75.71-9.18-8.41-1.53-59.65-22.18-67.3-23.71-7.65-1.53-37.47-13-44.36-29.83-6.88-16.83,2.29-26.77,1.53-30.59s-8.41-9.94-7.65-17.59c.76-7.65,9.18-29.06,9.18-29.06l3.06-1.53Z"/>
        <path class="cls-8" d="M211.03,659.91c-2.52-1.41-5.27-2.59-8.1-3.62.12-.42.07-.89-.26-1.33-8.12-10.72-13.18-22.8-23.73-31.58-1.15-.95-2.6.49-1.63,1.64,4.36,5.19,8.69,10.6,12.25,16.37,2.7,4.37,5.01,9.01,8.06,13.14-2.13-.64-4.26-1.22-6.32-1.75-1.49-.38-2.01,1.73-.62,2.26,6.38,2.48,12.69,5.52,19.17,7.7,1.67.57,2.72-1.99,1.19-2.83Z"/>
        <path class="cls-20" d="M307.25,720.55c-1.64,8.04-2.78,16-5.43,23.82-1.34,3.95-2.94,7.76-4.74,11.47,2.08.4,4.29.82,6.58,1.25,1.54-3.4,2.9-6.88,4.06-10.4,2.64-8.02,4.85-16.95,4.6-25.45-.04-1.33-1.05-2.21-2.17-2.46,1.43-.17,2.87-1.59,2.49-3.28-3.08-13.59-7.56-26.43-7.48-40.57.04-6.69,1.23-13.11,4.58-18.96,3.11-5.45,7.54-9.7,11.33-14.62.12-.16.21-.31.3-.47-2.61-.25-5.44-.51-8.41-.77-8.79,9.06-14.34,20.64-14.46,33.44-.14,14.69,3.5,30.54,9.45,43.94.31.69.79,1.08,1.34,1.24-.94.08-1.79.65-2.04,1.84Z"/>
        <path class="cls-8" d="M365.35,720.61c-25.14-1.97-52.97-5.23-78.19-5.46-6.07-.06-12.14.07-18.21-.18-3.41-.14-6.8-.45-10.18-.95-2.8-.42-6.37-.56-9.02-1.55-2-.75-1.76-.39-2.11-3.14-.18-1.44-.34-2.88-.49-4.32-.28-2.88-.48-5.78-.59-8.67-.25-6.27.05-12.53.12-18.81.03-2.29-3.73-2.94-4.11-.56-1.03,6.4-1.21,12.88-1.06,19.36.08,3.38.27,6.75.55,10.12.22,2.56.08,5.86,1.19,8.25,1.01,2.18,2.9,2.59,5.04,3.06,3.2.7,6.42,1.35,9.66,1.83,6.67,1,13.36,1.2,20.1,1.23,28.32.13,58.23,2.72,86.52,3.61,3.43.11,4.12-3.56.76-3.82Z"/>
        <path class="cls-8" d="M443.2,628.35c-7.24.52-14.28,2.37-21.17,4.56-5.6,1.78-11.49,3.9-15.76,8.09-.28.28-.45.58-.53.87-1.23-.39-2.48-.73-3.76-.99-2.19-.44-3.01,2.58-.92,3.34,7.32,2.65,15.04,6.38,22.99,5.59,1.75-.17,1.82-2.74,0-2.78-5.17-.11-9.75-2.04-14.41-3.8,9.74-7.35,22.44-9.09,33.91-12.43,1.31-.38,1.12-2.57-.33-2.46Z"/>
      </g>
      <path class="cls-6" d="M141.33,443.59c-4.38-8.61-12.28-20.41-23.73-17.44-10.34,2.68-12.9,15.2-8.21,23.8,1.04,1.9,2.65-.29,2.06-2.37-1.89-6.56-.41-16.18,8.91-16.4,7.88-.19,12.69,8.63,15.81,14.62,3.33,6.39,8.08,15.82,5.5,23.13-2.52,7.17-13.2,10.65-17.22,3.88-1.8-3.02-5.04-2.18-3.47.92,4.57,9.01,16.88,9.3,23.12,1.97,7.87-9.24,1.97-22.81-2.76-32.11Z"/>
      <path class="cls-20" d="M286.69,585.09c-1.99-.8-3.8.42-4.86,2.09-.58.17-1.06.58-1.2,1.28-.45,2.28-.1,4.9,2.17,6.09,2.43,1.27,5.1-.05,5.78-2.65.58-2.21.66-5.79-1.89-6.81Z"/>
      <path class="cls-20" d="M361.97,592.2c-1.21-1.21-3.02-1.3-4.44-.6-.35-.03-.73.05-1.12.26-2.12,1.15-4.15,3.44-2.78,5.98,1.24,2.31,4.4,2.23,6.38.97,1.99-1.27,4.05-4.52,1.96-6.61Z"/>
    </g>
    <g>
      <polygon class="cls-20" points="386.43 397.15 388.08 352.43 325.43 307.78 268.07 350.28 261.71 382.06 274.42 401.91 386.43 397.15"/>
      <path class="cls-18" d="M277.6,422.57s9.43,45.71,48.01,49.86c38.58,4.15,52.08-43.51,52.08-43.51,0,0,20.65-6.35,21.45-20.65.79-14.3-7.94-19.86-16.68-15.09,0,0-.79-14.3-5.56-19.06s-13.5-2.38-21.45-14.3-29.39-27.8-45.28-23.83c-15.89,3.97-11.92,13.5-18.27,22.24s-13.11,29.79-13.11,29.79c0,0-7.15-10.33-16.68-1.59-9.53,8.74-1.59,37.33,15.49,36.14Z"/>
      <path class="cls-20" d="M303.97,385.88c-3.78-2.13-8.91.02-9.74,4.34-.45,2.32.41,4.65,2.35,6.03,1.84,1.31,3.9,1.33,5.91.43.05-.02.09-.06.14-.09.36-.1.7-.22,1.03-.4,3.91-2.07,4.24-8.1.31-10.32Z"/>
      <path class="cls-20" d="M360.02,386.71c-3.89-.36-7.27,3.52-5.52,7.2.25,2.04,1.74,3.98,3.72,4.61,3.13.98,6.69-1.11,7.35-4.32.74-3.6-1.91-7.15-5.55-7.48Z"/>
      <path class="cls-20" d="M369.83,378.35c-4.95-5.6-11.76-10.3-19.14-11.88-4.66-1-6.33,5.42-1.95,7.06,6.16,2.31,11.5,5.03,16.28,9.63,3.18,3.06,7.69-1.54,4.81-4.81Z"/>
      <path class="cls-20" d="M309.23,353.39c-7.08,2.08-13.95,6.29-18.14,12.49-1.93,2.85,2.19,5.54,4.53,3.5,4.73-4.13,9.39-7.34,15.52-9.04,4.46-1.24,2.54-8.25-1.91-6.94Z"/>
      <path class="cls-24" d="M329.97,412.86c-.43-.15-.83-.56-1.23-.79-.52-.3-1.07-.57-1.61-.81-1.23-.54-2.41-.92-3.74-1.07-2.08-.23-2.88,3.04-1.06,3.93,1.09.54,2.21.85,3.41,1.03.55.08,1.11.14,1.67.19.59.06,1.31-.08,1.88.05,1.67.38,2.28-1.97.7-2.54Z"/>
      <path class="cls-9" d="M308.98,429.32s30.19,0,32.57.79c2.38.79-9.53,12.71-16.68,11.92-7.15-.79-15.89-12.71-15.89-12.71Z"/>
      <path class="cls-20" d="M292.17,356.23s-8.61,15.9-7.02,30.99c1.59,15.09,11.12,23.04,11.12,38.92s-6.35,33.36-28.6,30.98c0,0,20.65-9.53,16.68-30.19-3.97-20.65-10.33-34.16-6.35-48.46,3.97-14.3,14.17-22.26,14.17-22.26Z"/>
      <g>
        <path class="cls-14" d="M275.22,386.03s3.97-34.95,33.36-46.07c29.39-11.12,74.9-.51,76.37,52.57l7.83,1.44s7.15,5.56,16.68-3.18c9.53-8.74,5.56-15.89,7.94-19.06,2.38-3.18,17.48-11.12,15.89-25.42-1.59-14.3-7.15-13.5-4.77-19.86,2.38-6.35,6.35-24.63-16.68-50.84-23.04-26.21-56.4-22.24-59.58-25.42-3.18-3.18-5.56-5.56-11.12-5.56s-14.3,3.18-14.3,3.18c0,0-16.68-10.33-33.36-1.59-16.68,8.74-29.39,30.19-28.6,35.75.79,5.56-19.06,4.77-28.6,22.24-9.53,17.48-3.97,31.77,0,38.13,3.97,6.35,9.53,10.33,8.74,15.09-.79,4.77-3.18,11.12,2.38,22.24,5.56,11.12,20.65,11.12,20.65,11.12l7.15-4.77Z"/>
        <path class="cls-8" d="M413.93,336.25c-4.66,2.45-9.66,4.65-14.72,6.11-4.63,1.33-9.38,1.35-14.02,2.31-.53-1.29-1.08-2.58-1.67-3.84-6.05-12.99-15.85-26.06-28.78-32.8-5.4-2.82-11.31-4.49-17.33-5.12.33-5.13.91-10.13,2.16-15.17.42-1.68-1.95-2.26-2.55-.7-1.91,4.96-3.18,10.28-3.36,15.62-6.69-.22-13.44.8-19.74,2.96-13.12,4.51-23.93,13.96-31.51,25.45-.15.23-.3.46-.45.69-.04,0-.09,0-.13.02-9.69,2.17-18.82-.28-27.76-4.19-1.37-.6-2.55,1.24-1.2,2.06,7.77,4.74,16.93,8.47,26.12,7.12-6.98,12.79-10.89,28.28-7.85,42.45.35,1.64,3.17,1.31,2.98-.4-2.82-26.15,12.19-55.65,36.41-66.87,12.24-5.67,27.24-6.55,39.69-1,12.11,5.39,21.3,16.75,27.41,28.21,7.28,13.65,10.34,28.83,10.09,44.21-.04,2.71,4.05,2.68,4.19,0,.6-11.69-1.2-23.55-5.12-34.61,4.71.26,9.98-1.13,14.21-2.6,5.41-1.88,9.97-4.5,14.22-8.28.92-.81-.25-2.17-1.26-1.64Z"/>
        <path class="cls-3" d="M409.3,354.43c-.79-.6-1.73.68-1.05,1.35.5.49-2.99.7-2.87.7-1.25.02-2.55-.06-3.78-.27-2.3-.39-4.44-1.21-6.5-2.29-1.73-.91-3.27,1.71-1.53,2.63,4.23,2.23,8.97,3.2,13.73,2.46,3.01-.47,4.87-2.39,2-4.58Z"/>
        <path class="cls-3" d="M330.86,257.35c-.25-1.05-1.39-1.29-2.24-.91-6.02,2.65-6.6,12.2-6.89,17.86-.41,8.03,1.22,15.85,4.58,23.13.52,1.14,2.52.31,2.04-.86-2.45-6.01-3.85-12.36-3.88-18.86-.02-4.37.16-13.48,3.84-17.31.17,1.32.26,2.64.29,3.99.05,1.92,2.83,1.89,2.95,0,.17-2.42-.13-4.68-.68-7.03Z"/>
        <path class="cls-3" d="M314.53,300.89c-2.04-2.84-3.84-5.87-5.03-9.18-1.34-3.73-.9-7.06.17-10.81.54-1.88-2.39-2.68-2.92-.81-1.07,3.77-1.76,7.29-.57,11.12,1.24,4.01,3.44,7.74,5.92,11.1,1.06,1.44,3.5.06,2.43-1.42Z"/>
        <path class="cls-3" d="M275.23,323.34c-6.19-1.55-10.85-4.9-15.59-9.05-1.95-1.7-4.13-3.41-5.46-5.67-1.37-1.31-1.35-2.43.05-3.36.36.24.73.48,1.09.72,1.65.63,3.39,2.75,4.7,3.95,1.41,1.29,3.38-.68,2.1-2.1-2.06-2.28-7.01-7.47-10.63-6.18-3.43,1.22-1.13,6.37.13,8.46,2.36,3.89,6.67,6.97,10.25,9.66,3.88,2.92,8.15,5.35,13.05,5.82,1.3.13,1.54-1.95.31-2.26Z"/>
        <path class="cls-3" d="M266.72,365.55c-4.37,2.49-7.93,4.06-13.06,4.25-1.3.05-1.22,1.8,0,1.96,4.91.63,10.87-.87,14.46-4.39.95-.93-.26-2.47-1.41-1.82Z"/>
        <path class="cls-22" d="M397.74,398.27c-2.53-6.09-8.03-8.18-13.77-5.82.97,5.14,8.47,6.33,13.77,5.82Z"/>
        <path class="cls-22" d="M267.75,393.06c4.76-.48,7.33-3.3,8.99-7.26-2.78-2.45-8.16-5.31-14.63.62-1.47,1.35-2.52,3.17-3.19,5.28,2.73,1.24,5.87,1.65,8.83,1.35Z"/>
      </g>
    </g>
  </g>
  <g>
    <g>
      <path class="cls-7" d="M669.17,1552.26s-31.19-2.3-33.06,9.96c-1.87,12.26,69.86,9.19,69.86,9.19,0,0,218.12-.77,221.86-9.96s.08-13.79-36.18-13.02c-36.18.77-222.48,3.83-222.48,3.83Z"/>
      <g>
        <path class="cls-15" d="M641.1,1420.79c0,.67,1.33,43.96-2,60.61-3.33,16.65-18.65,43.29-18.65,43.29l50.62,8.66,16.11-33.68s-8.79-36.26-2.79-58.9c5.99-22.64-43.29-19.98-43.29-19.98Z"/>
        <path class="cls-19" d="M592.77,1555.57s-16.28,19.74-8.28,33.06c7.99,13.32,41.29,15.98,61.27,8.66,19.98-7.33,25.31-15.98,25.98-21.31s-5.99-13.32-2-15.32c4-2,4.66.67,13.99-2.66,9.32-3.33,15.32-10.66,16.65-15.32,1.33-4.66-3.33-23.98-12.65-26.64s-94.95,39.53-94.95,39.53Z"/>
        <path class="cls-26" d="M667.07,1517.37c.66.11,7.33-5.33,9.32-11.32,2-5.99,8.66-16.65,8.66-16.65,0,0,6.66,21.98,4.66,28.64s-11.32,11.32-13.99,14.65c-2.66,3.33-5.99,11.99-7.99,19.31-2,7.33-10.66,20.65-37.3,23.31-26.64,2.66-38.63-4.66-39.3-13.99-.67-9.32,11.32-19.31,11.32-19.31,0,0,7.99-12.65,13.32-23.31,5.33-10.66,9.32-20.65,17.32-23.31,7.99-2.66,29.97-3.33,33.3,2,3.33,5.33-3.33,19.31.67,19.98Z"/>
        <path class="cls-9" d="M667.74,1521.36c-5.22,3.61-9.74,12.78-13.58,17.66-4.26,5.42-9.87,10.29-17.06,10.03-7.63-.27-15.25-.89-22.87-1.3-2.22-.12-9.94.9-10.43-1.74-.57-3.08,2.12-6.65,3.33-9.32.81-1.8.42-4.17-1.33-2.66-4.66,4-11.19,13.81-3.99,18.25,3.48,2.14,8.5,1.78,12.42,2.11,5.08.43,10.17.82,15.26,1.23,4.73.38,9.92,1.4,14.58.06,3.92-1.13,7.39-3.75,10.42-6.41,3.17-2.78,4.37-5,6.6-8.58,1.21-1.94,2.26-4.64,3.33-6.66,1.06-2.01,4.17-6.06,5.33-7.99,1.7-2.82.9-6.66-2-4.66Z"/>
      </g>
      <g>
        <path class="cls-15" d="M831.19,1426.67s-.67,35.97-2.66,42.63-6.93,19.12-6.93,19.12l67.93,41.29,13.32-21.31s-15.98-19.98-18.65-33.3c-2.66-13.32-1.33-54.61-1.33-54.61l-51.68,6.19Z"/>
        <path class="cls-19" d="M810.79,1506.89s-21.83,28.81-12.51,39.47c9.32,10.66,49.29,8.66,53.28,6.66,4-2,17.32,2,20.65,5.33,3.33,3.33,17.32,19.31,62.61,20.65,45.29,1.33,53.95-6.66,55.95-15.98,2-9.32-14.13-21.76-14.13-21.76l-165.85-34.36Z"/>
        <path class="cls-26" d="M809.61,1507.73s9.32-40.63,17.32-38.63c7.99,2,17.32,23.31,35.3,32.64,17.98,9.32,21.31,9.99,23.31,8.66,2-1.33-9.99-11.99-7.33-17.98,2.66-5.99,11.99-13.99,19.98-11.32,7.99,2.66,27.97,27.31,34.63,31.3,6.66,4,36.63,13.99,41.29,22.64,0,0,11.32,5.99,8.66,13.99s-29.97,11.32-54.61,5.33c-24.64-5.99-43.29-11.99-59.94-20.65s-57.28-17.32-58.61-25.98Z"/>
        <path class="cls-9" d="M977.36,1534.55c-.83-2.27-3.11-4.29-5.56-5.66-.48-.27-6.73-2.71-6.89-1.65-.08.54.51.91.98,1.19,2.01,1.16,3.39,3.15,4.7,5.07.31.45.63,1,.43,1.51-1.09,2.76-5.64,2.83-8.05,3.2-3.49.54-7.07.64-10.59.36-7.3-.6-13.71-3.39-20.25-6.45-12.92-6.05-26.36-11.43-40.34-14.46-3.01-.65-3.99,3.4-1.25,4.52,8.18,3.31,16.47,6.35,24.66,9.66,7.71,3.11,15.18,6.81,22.92,9.84,7.56,2.96,15.85,4.16,23.94,3.36,4.49-.45,9.93-1.12,13.4-4.31,2.25-2.07,2.61-4.2,1.9-6.15Z"/>
      </g>
      <g>
        <path class="cls-26" d="M695.61,685.46s-28.12,146.99-46.92,365.65c-18.8,218.66-29.45,390.97-26.94,394.73,2.51,3.76,22.56,20.68,52,15.66,29.45-5.01,39.47-13.16,39.47-13.16,0,0,8.14-120.94,34.46-240.61,26.31-119.67,47.62-228.06,50.12-224.93,2.51,3.13,15.04,348.37,15.66,375.94.63,27.57,0,84.58,3.13,89.59,3.13,5.01,32.58,18.8,54.51,18.17,21.93-.63,38.72-15.09,38.72-18.85s5.65-163.21,6.39-269.38c.57-80.94,4.39-246.85-3.76-328.93-8.15-82.08-26.94-203.62-26.94-203.62l-189.91,39.72Z"/>
        <path class="cls-1" d="M818.48,888.84c-.05-2.96-5.12-2.14-5.89.82-2.04,7.81-2.65,16.13-3.88,24.11-1.25,8.06-2.62,16.11-4.01,24.15-2.79,16.11-6.22,32.06-9.55,48.06-.93,4.46,5.34,2.6,6.42-1.9,3.85-16.07,7.29-28.6,10.05-44.88,1.37-8.06,2.54-16.15,3.64-24.25,1.09-8.06,3.36-17.95,3.23-26.1Z"/>
        <path class="cls-1" d="M839.4,743.73c-.47-2.85-5.11-1.99-4.97.82.75,15.4,2.22,30.88,1.03,46.3-.57,7.4-1.76,14.83-3.95,21.94-1.79,5.78-4.83,11.49-10.37,14.01.42-8.28.54-16.59.4-24.96-.17-10.2-.54-20.4-.83-30.6-.14-4.88-.26-9.76-.33-14.63-.07-5.12.42-10.39-.81-15.38-.72-2.92-4.96-2.52-5.68.16-1.26,4.75-.74,9.87-.66,14.75.08,4.88.22,9.76.37,14.63.32,9.98.72,19.95.93,29.93.43,19.91.67,40.31-2.4,60.03-.52,3.32,4.54,4.62,5.13,1.26,1.57-9.03,2.66-18.04,3.35-27.08.11-.02.21-.04.33-.07,16.24-4.24,19.76-24.46,21.28-38.62,1.89-17.56.05-35.15-2.83-52.48Z"/>
        <path class="cls-2" d="M900.59,1439.13c-13.63,5.89-27.53,9.44-42.5,8.6-8.74-.49-17.01-2.48-24.99-5.46-1.41-60.02-3.43-131.31-5.84-191.3-2.42-60.09-5.36-120.15-8.85-180.18-1.97-33.84-3.52-67.81-6.76-101.55-.19-1.97-3.21-2.05-3.13,0,1.11,30.13,3.46,60.23,5.16,90.34,1.71,30.12,3.3,60.25,4.76,90.38,2.91,60.06,5.46,131.43,7.3,191.54,1.01,32.97,1.94,65.94,2.7,98.92-3.7-1.58-7.35-3.34-10.96-5.26-1.74-.93-3.03,1.46-1.51,2.59,23.92,17.7,60.98,19.59,87.02,5.5,2.76-1.49.33-5.29-2.4-4.11Z"/>
        <path class="cls-2" d="M707.58,1432.86c-6.44,3.69-12.72,6.58-20.05,8.09-7.16,1.48-14.54,1.82-21.84,1.52-14.52-.6-28.87-4.43-40.78-12.98-1.52-1.09-3.43,1.38-2,2.6,11.75,10.04,27.1,13.95,42.27,14.77,14.73.8,32.55-.76,44.74-10.01,2.3-1.75.33-5.51-2.33-3.99Z"/>
      </g>
      <path class="cls-23" d="M674.89,816.3l69-80.51-57.74-3.92c-3.93,20.69-6.74,49.41-11.26,84.43Z"/>
      <path class="cls-23" d="M905.23,786.26c-1.52-12.04-3.09-24.09-4.67-35.81l-19.54,13.33,24.21,22.48Z"/>
    </g>
    <g>
      <path class="cls-8" d="M886.93,618.89s-5.35,19.12-6.12,23.71c0,0,3.06,4.59,3.82,8.41s-5.35,10.71-5.35,10.71l-52.01,19.88-133.84-14.53s-19.12-27.53-19.88-45.89c-.76-18.35,212.61-15.3,212.61-15.3l.76,13Z"/>
      <g>
        <path class="cls-20" d="M679,693.83c-3.7,3.03-7.32,6.16-10.79,9.45-2.2,2.09-6.04,4.69-6.12,8.07-.08,3.13,3.18,5.53,5.27,7.44,1.91,1.74,4.63,5,7.55,4.14,1.73-.51,2.85-2.87,1.82-4.41.17-.33.29-.71.33-1.14.18-1.92.41-3.83.69-5.73.43-1.94.69-3.93.94-5.92.18-1.4-.74-2.35-1.91-2.72,1.97-1.83,3.98-3.62,6.01-5.39,2.63-2.28-1.16-5.94-3.79-3.79Z"/>
        <path class="cls-20" d="M689.12,668.9c-4.76-2.26-10.46-4.65-15.85-3.9-6.04.85-7.75,5.88-8.77,11.19-.62,3.24-1.14,6.52-1.34,9.82-.15,2.46-.44,5.35,1.42,7.28,1.76,1.83,4.52,1.78,6.91,1.89,3.71.17,7.37-.17,11.04-.75,1.79-.28,2.38-1.73,2.12-3.12.48-.35.89-.86,1.14-1.56,1.93-5.28,3.11-10.65,3.75-16.23.02-.15,0-.29,0-.43,1.09-1.17,1.29-3.37-.43-4.19Z"/>
        <path class="cls-10" d="M881.59,657.9s-27.84,9.18-57.26,5.35c-29.43-3.82-109.51-4.03-120.77-3.55-11.25.49-17.61,2.02-17.61,6.61s2.39,12.24,1.59,14.53c-.8,2.29-16.7,19.88-29.43,83.36s-9.54,145.31-19.09,192.72-20.68,107.83-15.91,116.25,75.55,21.41,115.32,18.35,73.17-4.59,89.07-4.59,97.82-9.18,104.98-19.12c7.16-9.94-7.95-230.2-19.09-299.79-11.13-69.59-28.63-110.13-31.81-110.13Z"/>
        <path class="cls-20" d="M927.77,855.37c-1.13-10.17-2.27-20.34-3.4-30.51-1.12-10.02-2.03-20.1-3.38-30.09-.49-3.68-1.33-7.24-3.49-10.33-2.41-3.44-5.86-5.88-9.13-8.44-7.44-5.83-14.79-11.8-22.35-17.48-3.32-2.5-6.91-4.78-11-5.78-4.5-1.1-9.18-.85-13.77-.72-20.27.56-40.53,1.47-60.77,2.73-11.1.69-22.24,1.32-33.3,2.4-9.87.97-16.97,7.15-25.48,11.65-18.32,9.66-38.77,14.93-59.45,15.59-2.28.07-3.21,2.18-2.82,3.89,0,.06-.03.12-.03.19-1.86,27.62-1.92,55.33-.8,82.99.05,1.17.88,2.66,2.17,2.85,78.4,11.96,158.6,10.52,236.53-4.27,3.27-.62,7.89-.66,10.07-3.57,2.23-2.98.76-7.79.39-11.09ZM921.5,863.07c-1.27.96-5.65,1.1-7.24,1.4-2.18.41-4.35.81-6.53,1.19-4.6.82-9.21,1.59-13.83,2.31-9.45,1.48-18.93,2.77-28.44,3.85-18.57,2.11-37.23,3.48-55.91,4.1-41.8,1.39-83.73-.97-125.12-7.03-1.07-26.17-1.02-52.36-.34-78.54,16-.71,31.84-3.99,46.72-9.93,7.63-3.05,15.01-6.69,22-11,3.71-2.29,7.15-4.97,11.53-5.83,4.45-.87,9.16-.91,13.68-1.25,18.97-1.42,37.97-2.54,56.98-3.35,9.5-.41,19.01-.76,28.52-.98,4.6-.11,9.21-.19,13.45,1.86,4,1.94,7.44,5,10.92,7.72,7.07,5.54,14.48,10.82,21.25,16.72,7.11,6.2,6.45,16.21,7.42,24.92,1.05,9.43,2.1,18.85,3.15,28.28.53,4.71,1.05,9.43,1.58,14.14.25,2.23.5,4.47.75,6.7.11.97.28,1.99.33,2.98.09,1.74.11.99-.88,1.74Z"/>
        <path class="cls-5" d="M768.78,770.53c-.27-2.56-4.26-2.66-4.09,0,1.89,29.27,3.43,58.56,5.28,87.82.19,3.03,4.83,3.09,4.76,0-.66-29.25-2.88-58.74-5.95-87.82Z"/>
        <path class="cls-5" d="M886.27,813.97c-.89-13.76-1.8-27.63-3.72-41.29-.35-2.51-4.58-1.93-4.44.6.8,13.83,2.19,27.62,3.03,41.45.83,13.84,1.27,27.69,1.77,41.55.12,3.37,5.31,3.4,5.26,0-.21-14.11-.98-28.22-1.89-42.3Z"/>
        <path class="cls-20" d="M879.97,668.09c-11.85,3.46-23.34,6.17-35.74,6.72-12.05.53-24.21.45-36.26.14-12.62-.32-25.01-1.89-37.53-3.36-12.17-1.44-24.43-1.81-36.67-1.12-13.73.77-27.94,2.4-41.14,6.38-2.29.69-1.28,3.8.96,3.48,12.68-1.8,25.17-4.06,37.99-4.78,12.23-.69,24.48-.32,36.66,1.09,12.52,1.45,24.92,3.23,37.54,3.67,12.09.42,24.26.47,36.34.11,13.17-.39,26.99-2.21,39.28-7.19,3.09-1.25,1.97-6.13-1.42-5.14Z"/>
      </g>
      <g>
        <path class="cls-14" d="M823.29,370.3s3.93,6.52,4.72,12.07.79,9.38,1.56,10.91c.76,1.53,27.53,13,48.95,19.12,21.41,6.12,38.24,31.36,40.53,39.77,2.29,8.41,3.06,13.77,4.59,15.3s6.88,3.82,8.41,8.41c1.53,4.59.76,6.88,1.53,9.18s10.71,17.59,12.24,24.47c1.53,6.88,11.47,19.12,11.47,19.12l-33.65,41.3-225.61,27.53-62.89-124.83s3.24-26.59,18.53-45.71c15.3-19.12,45.89-32.89,52.77-35.94,6.88-3.06,18.35-7.65,19.88-9.18s7.97-23.3,10.1-25.42,33.49,3.24,33.49,3.24l53.37,10.67Z"/>
        <path class="cls-17" d="M817.71,420.43s-51.24-2.29-52,0c-.76,2.29,9.94,41.3,19.12,65.01,9.18,23.71,11.47,74.95,11.47,74.95l4.59.76s.76-40.53-4.59-60.42c-5.35-19.88-28.3-76.48-26-78.01,2.29-1.53,51.24,3.06,47.42-2.29Z"/>
        <path class="cls-8" d="M782.39,413c-8.79-5.33-18.48-8.87-27.75-13.25-8.69-4.11-17.23-9.25-24.4-15.69-.64-.57-1.79.18-1.25.97,11.62,16.99,34.24,21.74,51.36,31.45,2.26,1.28,4.26-2.14,2.04-3.48Z"/>
        <path class="cls-8" d="M830.32,395.16c-.21-2.41-3.85-2.49-3.82,0,.11,8.24-.77,15.67-6.58,21.98-1.13,1.22.57,2.9,1.81,1.81,6.63-5.8,9.32-15.18,8.58-23.79Z"/>
        <path class="cls-8" d="M897.77,505.01c-.8-15.34-4.05-31.21-.33-46.41.65-2.67-3.28-3.74-4.1-1.13-4.45,14.2-2.97,28.6-1.91,43.19.55,7.57.83,15.23-.32,22.76-1.15,7.5-3.63,14.46-6.73,21.35-1.54,3.42,3.29,6.44,5.14,3,7.04-13.09,9.02-28.1,8.26-42.76Z"/>
        <path class="cls-3" d="M919.04,457.23c-.4-2-3.42-1.47-3.47.47-.19,8.39-1.24,16-4.22,23.9-2.69,7.14-6.17,14.2-10.05,20.77-.85,1.44,1.26,2.6,2.2,1.28,4.85-6.8,8.81-13.89,11.83-21.7,2.96-7.64,5.37-16.52,3.71-24.73Z"/>
        <path class="cls-17" d="M785.74,433.32s-.05-.08-.08-.13c-1.14-1.72-3.23-2.99-5.22-3-2.27,0-4.13,2.14-3.5,4.38.14.51.42,1.01.77,1.48.45,1.36,1.29,2.61,2.6,3.27,1.72.87,3.95.62,5.22-.89,1.39-1.65,1.19-3.55.21-5.12Z"/>
        <path class="cls-17" d="M837.98,434.32c-.58-2.65-3.62-4.51-6.13-3.06-.29.17-.56.37-.8.59-.57.18-1.02.63-1.22,1.25-.45,1.4-.47,3.04.38,4.31.14.21.31.4.48.58.02.03.04.06.07.08.02.03.05.04.08.07.03.02.05.04.08.07.07.06.13.12.21.17.68.52,1.5.82,2.38.9,2.8.27,5.08-2.18,4.47-4.96Z"/>
        <path class="cls-17" d="M814.09,520.17c-2.94-2.04-6.91-.31-6.94,3.39-.02,2.09,1.2,3.52,2.83,4.24.28.34.59.65.96.92,1.4,1.02,3.31,1.02,4.65-.12,2.91-2.48,1.15-6.58-1.51-8.43Z"/>
        <path class="cls-17" d="M866.79,522.95c-.5-2.79-3.52-4.97-6.31-3.98-2.4.85-3.3,3.88-1.91,5.79.27,1.7,1.19,3.2,3.11,3.63,3.24.72,5.65-2.45,5.11-5.44Z"/>
      </g>
      <g>
        <path class="cls-17" d="M811.21,359.63s10.71,4.59,15.3,16.83c4.59,12.24-8.41,19.12-9.94,26s2.29,19.12,1.53,19.12-3.65,0-3.65,0l-22.35.77-5.35-.76s8.41-16.83,3.82-24.47c-4.59-7.65-52-27.53-54.3-34.42-2.29-6.88,3.06-9.94,7.65-9.94s67.3,6.88,67.3,6.88Z"/>
        <path class="cls-20" d="M752.33,352.75s-11.47-1.53-13.77,3.06,7.94,9.79,7.94,9.79l33.36,7.8,39.38,18.68s4.98-3.39,4.98-12.56-15.3-19.12-15.3-19.12l-56.59-7.65Z"/>
        <path class="cls-22" d="M750.8,341.28s2.29,18.35-5.35,23.71c0,0,33.65,19.12,42.06,24.47,8.41,5.35,9.18,10.71,9.18,14.53s-4.59,18.35-4.59,18.35l22.94-.76s-4.59-13.77-1.53-19.88c3.06-6.12,6.88-10.71,6.88-10.71,0,0-7.65-3.82-8.41-13.77-.76-9.94.76-24.47.76-24.47l-61.95-11.47Z"/>
        <path class="cls-21" d="M811.77,369.89c.07-8.51.97-17.14.97-17.14l-54.84-10.16-6.96.16c.18,2.25.39,6.77-.26,11.27,1.84,2.46,13.77,21.94,33.01,25.5,12.64,2.34,22.41-4.2,28.09-9.63Z"/>
      </g>
      <g>
        <path class="cls-10" d="M724.3,266.59s-14.65-1.46-16.85-10.99c-2.2-9.52,1.46-13.92,1.46-13.92,0,0-19.78-9.52-10.25-35.16,9.52-25.63,32.23-24.17,32.23-24.17,0,0-2.2-11.72,9.52-15.38,11.72-3.66,16.85-.73,18.31-2.2s5.86-19.78,43.21-17.58c37.35,2.2,59.33,32.96,61.52,49.8,2.2,16.85-2.2,22.7-1.46,24.9.73,2.2,6.59,5.86,6.59,14.65s-18.31,21.97-18.31,21.97c0,0,0,5.13-3.66,8.06-3.66,2.93-32.23,8.79-32.23,8.79l-90.09-8.79Z"/>
        <path class="cls-22" d="M729.43,265.86s2.93-21.97,24.17-35.16,51.27-10.99,64.45,1.46c13.18,12.45,18.31,30.76,19.04,34.42.73,3.66,4.39,20.51-1.46,51.27-5.86,30.76-26.37,46.87-54.93,45.41-28.56-1.46-42.48-22.7-46.87-49.07-4.39-26.37-4.39-48.34-4.39-48.34Z"/>
        <path class="cls-12" d="M837.09,266.59c-.59-2.97-4.09-15.61-12.44-26.92-1,2.82-1.89,6.58-1.11,9.71,1.46,5.86,9.52,10.25,10.25,26.37.73,16.11-11.72,30.76-13.18,30.76s-6.59-2.93-18.31-4.39c-11.72-1.46-25.63,1.46-36.62,5.13-10.99,3.66-20.51,2.93-25.63-8.06-5.13-10.99-6.59-35.89-5.13-38.82,1.46-2.93,4.39-6.59,7.32-11.72,1.94-3.39,1.95-7.75,1.74-10.31-12.56,12.62-14.56,27.52-14.56,27.52,0,0,0,21.97,4.39,48.34,4.39,26.37,18.31,47.61,46.87,49.07,28.56,1.46,49.07-14.65,54.93-45.41,5.86-30.76,2.2-47.61,1.46-51.27Z"/>
        <path class="cls-20" d="M760.54,271.46c-.97-3.25-4.96-5.31-8.11-3.85-2.03.94-3.03,3.34-2.79,5.42-.26,1.42-.05,2.88,1.04,3.98,1.16,1.17,3.05,1.76,4.67,1.72,3.57-.07,6.2-3.89,5.19-7.28Z"/>
        <path class="cls-20" d="M811.29,266.56c-1.62.11-3.03.8-3.77,2.3-.39.78-.53,1.6-.45,2.38-.03.14-.06.27-.07.42-.17,2.88,2.46,5.35,5.29,5.23,2.96-.13,5.28-2.78,5.28-5.69,0-3.4-3.34-4.84-6.29-4.65Z"/>
        <path class="cls-12" d="M820.35,251.93c-5.15-4.37-11.05-7.73-17.55-9.64-3.53-1.04-4.94,4.31-1.51,5.47,5.76,1.95,11.01,4.62,15.92,8.23,2.35,1.73,5.37-2.17,3.13-4.06Z"/>
        <path class="cls-12" d="M763.96,241.31c-3.38.75-6.38,2.99-9.08,5.06-2.78,2.12-5.64,4.2-8.3,6.46-2.33,1.98.64,4.93,3.01,3.9,2.99-1.31,5.51-3.6,8.11-5.53,2.67-1.98,5.44-3.36,8.36-4.9,2.82-1.49.82-5.63-2.1-4.98Z"/>
        <path class="cls-24" d="M789.71,294.46c-1.03-.66-2.1-.96-3.29-1.2-1.4-.29-2.64-.45-3.79.52-.79.66-.55,1.81,0,2.51.8,1.01,2.26,1.01,3.45.99,1.17-.02,2.23-.08,3.33-.5,1.01-.39,1.27-1.7.3-2.32Z"/>
        <path class="cls-20" d="M797.45,313.03c-3.63,2.44-7.61,4.05-11.91,4.88-4.39.84-8.46-.23-12.78.02-2.02.12-3.1,2.97-1.09,4.03,4.2,2.23,10.04,1.6,14.53.57,4.97-1.14,9.36-3.66,13.19-6.98,1.37-1.18-.43-3.53-1.94-2.52Z"/>
        <path class="cls-22" d="M731.62,266.59s-10.99-5.86-13.92,5.13c-2.93,10.99,7.32,27.1,15.38,30.76,0,0-2.2-24.9-1.46-35.89Z"/>
        <path class="cls-22" d="M835.63,265.86s2.93,16.85.73,35.89c0,0,16.11-13.18,13.92-27.83-2.2-14.65-10.25-11.72-14.65-8.06Z"/>
        <path class="cls-20" d="M856.42,236.02c-3.68.63-7.49.89-11.21,1.12-1.58.1-3.52.41-5.05-.09-.32-.1-.62-.24-.93-.41-4.2-16.71-15.41-32.16-29.65-40.77-1.14-.69-2.29-1.3-3.46-1.85,3.16-1.53,5.91-4.26,7.9-6.94.89-1.19-1.08-2.71-2.06-1.59-2.77,3.15-5.96,4.62-9.66,6.37-.25.12-.43.27-.56.44-.77-.25-1.54-.47-2.31-.67,2.86-2.92,5.07-6.98,6.37-10.16,2.51-6.13,2.87-12.65,1.22-19.05-.4-1.53-2.66-.88-2.35.65,1.13,5.62.5,11.56-1.74,16.84-1.1,2.58-2.56,5.01-4.38,7.15-1.19,1.4-2.6,2.5-3.96,3.65-1.58-.2-3.18-.33-4.82-.38-7.65-.23-15.63.14-23.02,2.29-10.41,3.03-19.49,9.55-26.38,17.85-.19-.02-.39,0-.61.05-2.86.74-5.65.65-8.47-.24-1.89-.59-2.62,2.27-.81,2.93,2.27.83,4.6,1.17,6.95,1.08-1.82,2.57-3.42,5.29-4.84,8.1-.37-.38-.91-.61-1.57-.49-5.14.92-10.3.55-15.14-.98,1.42-.85,1.07-3.52-1.01-3.61-2.84-.13-5.61-.45-8.39-1.02-2.23-.46-3.4,2.34-1.53,3.62,7.77,5.34,17.08,7.22,26.28,5.35-4.64,10.45-6.69,22.12-6.27,33.45.06,1.59,2.3,1.55,2.44,0,2.11-24.29,11.37-50.32,35.71-60.35,6.27-2.59,12.96-3.44,19.7-3.67,3.33-.11,6.68-.15,9.99.15.34.27.79.4,1.3.25.08-.02.16-.06.24-.08,3.37.42,6.67,1.24,9.81,2.77,10.22,4.97,18.59,13.87,24.19,23.63,2.67,4.65,4.57,9.41,5.89,14.29-.04.27,0,.55.19.84.02.03.04.05.05.07,1.74,6.82,2.35,13.89,2.28,21.26-.02,2.07,3.4,2.67,3.73.5.9-5.97.7-12.08-.43-18.08,5.31,1.19,12.17-1.15,17-2.05,1.46-.27.83-2.47-.61-2.22Z"/>
        <path class="cls-4" d="M763.31,173.64c.86,1.1,1.71,2.22,2.56,3.32.98,1.27,2.74-.51,1.76-1.76-1.49-1.91-6.97-10.11-9.07-4.03-1.99,5.75,3.12,12.16,6.43,16.23.86,1.06,2.31-.44,1.49-1.49-2.41-3.1-4.89-6.38-5.58-10.35-.2-1.18-.5-1.95.4-2.87,1.09-1.12,1.15-.13,2,.95Z"/>
        <path class="cls-4" d="M857.55,194.08c-1.33-2.29-6.05-.16-7.82.25-1.75.4-1,3.01.74,2.67.6-.12,3.04-.89,3.87-.84-.03.05-.05.11-.08.18-.39.68-.84,1.31-1.34,1.91-1.42,1.73-3.18,3.15-5.11,4.27-4.74,2.74-10.22,3.26-15.57,2.78-1.59-.14-1.57,2.32,0,2.47,8.06.81,16.64-.94,22.27-7.16,1.23-1.36,4.24-4.49,3.05-6.53Z"/>
        <path class="cls-4" d="M848.72,213.11c-3.77.58-7.53.64-11.31.14-1.35-.18-1.68,2.2-.32,2.39,4.14.59,8.17.58,12.28-.18,1.56-.29.88-2.58-.65-2.35Z"/>
        <path class="cls-4" d="M721.06,234.96c-1.78.82-3.64,1.25-5.58,1.5-1.58.2-1.69,2.64,0,2.56,2.41-.11,4.71-.8,6.89-1.82,1.52-.71.2-2.94-1.31-2.24Z"/>
      </g>
      <g>
        <path class="cls-21" d="M853.28,623.48s28.3-29.06,43.59-34.42c15.3-5.35-39.77-8.41-39.77-8.41l-30.59,9.94,26.77,32.89Z"/>
        <g>
          <path class="cls-22" d="M869.34,556.18s19.12-16.83,31.36-29.83c12.24-13,22.94-24.47,29.06-25.24s21.41,6.88,23.71,9.18,1.53,5.35,1.53,5.35c0,0,6.88,3.82,8.41,7.65,1.53,3.82,0,5.35,2.29,6.12,2.29.76,6.12,2.29,6.12,4.59s-.76,3.82-.76,3.82c0,0,3.06,2.29,3.06,4.59s-9.18,15.3-9.18,15.3l-72.65,6.88-22.94-8.41Z"/>
          <path class="cls-24" d="M939.43,553.59c-.29-2.08-.91-4.5-1.58-6.49-.61-1.78-1.63-2.61-2.68-4.04-1.33-1.81-1.06-4.11-2.53-5.85-1.64-1.94-3.2-1.88-3.6-4.68-.61-4.28-2.46-5.14-5.38-8.01-1.77-1.74-1.81-3.9-3.18-5.82-1.07-1.5-2.48-2.33-4.14-3.02-1.04-.43-1.77,1.32-.77,1.82,2.96,1.48,2.41,4.25,3.46,6.84.58,1.42,1.6,2.44,2.72,3.44,1.98,1.77,3,2.42,3.36,5.27.2,1.58.33,2.91,1.36,4.19,1.31,1.63,2.82,2.26,3.54,4.47.55,1.67.72,2.57,1.92,3.95,1.48,1.71,2.06,2.83,2.56,5.05.41,1.82.68,3.26,2.04,4.58,1.35,1.31,3.12-.07,2.89-1.68Z"/>
          <path class="cls-14" d="M854.29,558.22s21.16-5.1,28.81-8.15c7.65-3.06,24.47.76,28.3,1.53,3.82.76,8.41-3.82,14.53-3.82s19.12,3.06,22.18.76c3.06-2.29,9.18-6.12,16.83-6.88,7.65-.76,12.24-1.53,16.06.76s-1.53,6.12,0,10.71c1.53,4.59,6.12,9.94,6.12,14.53s0,1.53,2.29,12.24c2.29,10.71,3.82,31.36-13,40.53-16.83,9.18-11.47,2.29-18.35,7.65-6.88,5.35-24.47,9.18-34.42,3.82-9.94-5.35-32.49-2.1-32.49-2.1l-36.85-71.57Z"/>
          <path class="cls-8" d="M976.41,556.18c-4.45-4.02-8.44-8.26-14.22-9.98-2.81-.84-5.81-1.25-8.75-1-3.28.27-6.64,2.48-9.83,1.17-1.62-.67-2.68,1.98-1.18,2.8,1.92,1.06,3.51,1.61,5.7,1.16,3.73-.76,6.6-1.69,10.5-.88,6.55,1.36,11.36,5.61,16.65,9.35,1.96,1.38,2.91-1.01,1.13-2.62Z"/>
          <path class="cls-17" d="M916.12,629.57c2.36.4,4.57.97,6.43,1.8,9.3-12.91,6.89-33.6,1.13-47.08-3.76-8.79-9.51-16.29-16.45-22.82-5.23-4.92-11.18-9.98-18.03-12.53-2.31.12-4.42.45-6.09,1.12-.34.13-.7.27-1.09.41.16.12.34.23.57.31,7.97,2.95,14.33,8.16,20.32,14.08,6.14,6.08,11.48,12.91,14.9,20.9,3.25,7.6,4.98,15.88,4.71,24.16-.24,7.49-2.42,13.62-6.38,19.64Z"/>
          <path class="cls-21" d="M954.4,515.22c-1.97-1.53-4.24-2.62-6.4-3.87-1.86-1.08-3.57-1.76-5.73-1.31-1.59.33-3.14,1.06-4.63,1.84-.2-.18-.43-.34-.72-.46-3.07-1.21-5.69-1.18-8.06,1.31-1.83,1.93-4.43,4.51-3.88,7.34.27,1.38,1.92,1.78,3.02,1.23,4.03-2.01,8.05-4.06,12.08-6.07,2.19-1.09,4.31-1.99,6.82-1.27,2.18.62,4.02,1.12,5.8,2.45,1.42,1.06,3.12-.1,1.71-1.2Z"/>
          <path class="cls-21" d="M968.66,534.85c-5.34-.51-10.19-3.22-15.53-3.72-5.3-.49-10.25,1.53-14.96,3.72-1.34.62-.37,2.97,1.02,2.41,5.59-2.26,10.49-3.41,16.42-1.7,4.39,1.26,8.47,3.02,13.06,3.52,2.69.29,2.7-3.97,0-4.23Z"/>
        </g>
        <g>
          <path class="cls-14" d="M844.1,600.54s7.65,9.18,11.47,25.24,3.06,16.83.76,18.35c-2.29,1.53-98.66,31.36-137.66,19.88-39-11.47-61.95-71.12-64.24-78.77-2.29-7.65-1.53-19.88-4.59-22.94-3.06-3.06-13-9.18-15.3-27.53-2.29-18.35-3.82-60.42,6.12-82.6,9.94-22.18,71.89-7.65,80.3,10.71,8.41,18.35,9.56,42.45,14.15,52.39,4.59,9.94,10.71,18.35,10.71,23.71s-1.48,9.17,1.94,13c3.42,3.83,8,7.65,8,7.65l85.66,32.89,2.68,8.03Z"/>
          <path class="cls-8" d="M752.19,555.83c-2.27-3.23-3.66-6.84-3.54-10.83.11-3.63,1.36-6.93.64-10.59-1.47-7.5-8.52-11.79-10.81-18.81-1.23-3.77-1.42-7.91-2.07-11.8-.69-4.05-1.47-8.1-2.38-12.11-1.93-8.55-4.56-16.81-7.65-25-.92-2.43-4.7-1.5-3.96,1.09,2.38,8.37,4.4,16.89,6.12,25.42.87,4.28,1.63,8.57,2.27,12.89.61,4.14.85,8.46,2.35,12.4,2.52,6.59,10.56,11.71,10.37,19.17-.09,3.75-1.24,7.06-.7,10.89.53,3.78,1.99,7.21,4.28,10.26,2.22,2.97,7.28.17,5.08-2.97Z"/>
          <path class="cls-3" d="M729.54,503.99c-1.42-5.74-4.64-11.27-7.49-16.4-2.64-4.76-5.57-9.35-9.08-13.52-6.85-8.12-15.68-14.59-25.5-18.65-10.07-4.17-21.79-5.82-32.22-1.95-8.17,3.04-16.44,9.72-18.42,18.61-.28,1.26,1.5,2.14,2.16.91,4.32-8,10.45-13.92,19.43-16.39,10.47-2.88,21.84-.33,31.34,4.47,8.38,4.24,15.81,10.31,21.6,17.7,6.37,8.13,10.26,17.49,14.63,26.73.97,2.05,4.07.57,3.55-1.5Z"/>
          <path class="cls-17" d="M833.08,651.24c2.13-8.96.97-19.15-.86-27.62-3.11-14.39-9.96-27.03-19.61-38.03-1.58-1.8-4.09.8-2.6,2.6,8.1,9.8,13.7,22.06,16.34,34.45,1.94,9.06,3.47,21.06-.07,30.41,2.37-.61,4.64-1.22,6.8-1.8Z"/>
        </g>
        <g>
          <path class="cls-20" d="M857.1,603.6c0,.76,13.77,26.77,31.36,26.77s7.06-19.88,7.06-19.88l-28.47-25.24-9.94,18.35Z"/>
          <path class="cls-22" d="M897.63,615.83s-62.71-16.06-75.71-18.35c-13-2.29-38.24,3.82-45.89,3.82s-16.06-3.06-22.18.76c-6.12,3.82-26,14.53-29.83,13.77-3.82-.76-6.88-5.35-3.06-8.41,3.82-3.06,27.53-16.06,27.53-16.06,0,0-13,1.53-21.41,7.65s-19.12,11.47-23.71,9.94c-4.59-1.53-4.59-7.65-4.59-7.65,0,0-6.88.76-7.65-4.59-.76-5.35,19.88-22.18,25.24-25.24,0,0-20.65,9.18-25.24,8.41-4.59-.76-5.35-6.88,8.41-13.77,13.77-6.88,19.88-9.94,26.77-11.47,6.88-1.53,30.59-3.82,35.18-2.29,4.59,1.53,49.71,6.88,62.71,6.88s30.59-1.53,34.42-.76c3.82.76,29.83,26,39,57.36Z"/>
          <path class="cls-24" d="M767.99,591.5c-.56-2.33.56-4.82-.44-7.08-.41-.93-.88-1-1.39-1.83-1.05-1.71-1.29-2.94-1.15-4.98.12-1.73.45-2.92-.34-4.58-1.03-2.17-3.4-3.52-3.61-6.09-.17-2,.68-3.85.25-5.91-.74-3.5-3.39-6.29-6.83-7.17-1.18-.3-2.03,1.47-.86,2.03,2.14,1.04,3.96,2.55,4.7,4.92.65,2.11-.2,4.04-.2,6.13,0,3.32,2.68,4.46,3.8,7.19,1.27,3.11-1.59,6.03.63,9.04.41.55,1.14.97,1.5,1.54,1.87,2.9.53,3.01.67,4.97.13,1.93,1.49,4.49.89,6.31-.59,1.81,2.15,2.49,2.81.78.77-2.02.06-3.25-.42-5.25Z"/>
          <path class="cls-21" d="M746.1,559.93c-10.63-.68-22.02,3.86-30.73,9.67-2.22,1.48-.19,5.04,2.11,3.61,9.21-5.76,18.56-8.06,29.02-10.33,1.73-.37,1.21-2.84-.4-2.94Z"/>
        </g>
      </g>
    </g>
  </g>
</svg>