<?xml version="1.0" encoding="UTF-8"?>
<svg id="_Layer_" data-name="&amp;lt;Layer&amp;gt;" xmlns="http://www.w3.org/2000/svg" viewBox="0 0 1394.53 1556.21">
  <defs>
    <style>
      .cls-1 {
        fill: #292945;
      }

      .cls-1, .cls-2, .cls-3 {
        stroke: #fed770;
        stroke-miterlimit: 10;
      }

      .cls-2 {
        fill: #fff;
      }

      .cls-3 {
        fill: #fed770;
      }
    </style>
  </defs>
  <path class="cls-2" d="M122.73,534.69s-7.5-18.58,19.5-30.2c144.29-62.05,934.91-129.29,967.35-85.67,32.43,43.63-198.33,200.88-198.33,200.88l-788.52-85.02Z"/>
  <path class="cls-3" d="M911.25,622.52c-.1,0-.2,0-.3-.02l-788.52-85.02c-1.03-.11-1.91-.78-2.3-1.74-.09-.21-8.19-21.27,21-33.82,74.28-31.94,317.95-64.54,526.48-82.68,193.15-16.8,425.38-27.42,444.22-2.08,3.25,4.38,4.35,9.84,3.28,16.24-9.54,56.71-194.41,183.27-202.28,188.63-.47.32-1.02.49-1.58.49ZM124.9,532.1l785.62,84.71c13.87-9.54,190.22-131.85,199.05-184.34.83-4.9.09-8.82-2.25-11.96-13.71-18.44-198.43-16.62-439.23,4.33-208.09,18.1-451.05,50.55-524.75,82.24-19.88,8.55-19.35,20.73-18.44,25.03Z"/>
  <path class="cls-2" d="M305.2,800.25c-8.19-1.5-15.18,47.5-.21,218.51,14.96,171.01,15.22,270.12,29.84,277.28,14.62,7.16,692.34-56.34,709.7-69.58,17.36-13.25-37.81-497.29-54.45-504.32s-684.88,78.11-684.88,78.11Z"/>
  <path class="cls-3" d="M343.07,1299.27c-5.21,0-8.49-.23-9.48-.72-10.85-5.32-13.78-39.75-20.63-138.52-2.67-38.53-6-86.49-10.77-141.03-11.38-130.04-11.68-210.29-.84-220.16,1.12-1.02,2.45-1.51,3.83-1.42,70.11-8.93,669.2-84.97,685.99-77.87,2.27.96,6.08,2.57,15.05,54.01,5.21,29.86,11.18,71.05,17.26,119.11,9.37,74,17.85,155.31,22.68,217.5,8.71,111.92,2.65,116.54.07,118.51-12.46,9.51-299.83,37.49-357.31,43.01-106.48,10.21-300.21,27.58-345.84,27.58ZM305.06,803.05c-1.59,1.51-14.37,20.07,2.72,215.46,4.78,54.59,8.11,102.57,10.78,141.13,5.22,75.3,9,129.71,17.5,133.88,8.88,2.69,164.28-9.36,353.65-27.54,199.7-19.17,344.92-36.35,353.14-41.77,5.32-6.47,1.81-94.74-15.45-250.71-16.3-147.22-32.35-241.65-38.6-248.82-20.12-4.56-499.57,54.96-683.25,78.36-.16.02-.33.03-.49.02Z"/>
  <path class="cls-2" d="M433.61,794.08s-6.57,44.93,19.12,45.98c25.69,1.06,430.5-38.27,433.75-50.62s-3.17-49.7-3.17-49.7l-449.7,54.33Z"/>
  <path class="cls-3" d="M453.92,842.89c-.51,0-.94,0-1.31-.02-6.06-.25-11.02-2.66-14.76-7.17-11.07-13.35-7.19-40.86-7.02-42.03.18-1.25,1.18-2.23,2.44-2.38l449.7-54.33c1.47-.17,2.85.84,3.1,2.31.27,1.55,6.49,38.1,3.12,50.89-.72,2.72-1.61,6.1-67.86,15.33-35.5,4.95-84.96,10.85-143.01,17.08-99.68,10.69-206.21,20.32-224.4,20.32ZM436.14,796.59c-.65,6.45-1.85,26.02,6.04,35.52,2.72,3.27,6.21,4.95,10.66,5.14,11.64.49,110.21-8.04,219.84-19.73,146.03-15.58,204.66-25.35,211.23-29.41,2.06-9.4-1.08-33.69-2.93-45.27l-444.84,53.74Z"/>
  <path class="cls-3" d="M348.1,894.05c-1.55,0-2.8-1.25-2.81-2.8,0-1.55,1.25-2.81,2.8-2.82,16.68-.05,109.29-9.79,216.52-21.07,88.46-9.3,188.73-19.84,266.6-27.08,135.71-12.6,136.72-9.15,137.78-5.48.43,1.49-.42,3.05-1.91,3.48-1.03.3-2.1-.02-2.81-.75-15.15-4.96-236.87,18.36-399.08,35.41-107.39,11.29-200.14,21.04-217.1,21.1h0ZM963.61,836.39h0Z"/>
  <path class="cls-3" d="M351.58,935.71c-.36,0-.66,0-.93-.01-1.55-.05-2.76-1.36-2.7-2.9.06-1.55,1.36-2.77,2.9-2.7,11.32.4,126.42-8.85,315.82-25.4,157.57-13.77,299.22-26.73,304.65-27.69,1.52-.26,2.98.75,3.25,2.28.27,1.53-.75,2.98-2.28,3.25-6.21,1.1-157.36,14.84-305.14,27.76-88.28,7.71-293.46,25.43-315.59,25.43Z"/>
  <path class="cls-3" d="M361.64,979.5c-1.43,0-2.65-1.09-2.79-2.54-.15-1.54.99-2.91,2.53-3.06,23.6-2.22,578.23-54.43,603.66-54.72h.03c1.54,0,2.79,1.24,2.81,2.77.02,1.55-1.23,2.82-2.77,2.84-25.2.28-597.42,54.15-603.2,54.69-.09,0-.18.01-.27.01Z"/>
  <path class="cls-3" d="M353.64,1023.17c-1.48,0-2.72-1.16-2.8-2.66-.08-1.55,1.11-2.87,2.65-2.95,2.38-.12,238.74-12.59,316.75-21.56,19.2-2.21,46.55-5.42,77.05-8.99,125.1-14.67,221.18-25.85,226.28-25.15,1.54.21,2.61,1.62,2.41,3.15-.21,1.53-1.61,2.62-3.15,2.41-.09,0-.22,0-.36,0-9.84,0-138.77,15.12-224.51,25.18-30.5,3.58-57.85,6.78-77.06,8.99-78.18,8.99-314.72,21.47-317.09,21.59-.05,0-.1,0-.15,0Z"/>
  <path class="cls-3" d="M362.61,1079.25c-1.4,0-2.62-1.05-2.78-2.48-.18-1.54.92-2.93,2.46-3.11,54.65-6.39,583.11-50.67,608.01-50.95h.03c1.54,0,2.79,1.23,2.81,2.77.02,1.55-1.23,2.82-2.77,2.84-24.86.28-552.81,44.53-607.42,50.92-.11.01-.22.02-.33.02Z"/>
  <path class="cls-3" d="M830.64,1037.23c-.17,0-.34-.01-.51-.05-1.52-.28-2.53-1.74-2.25-3.27,1.93-10.5.74-50.31.73-50.71-.05-1.55,1.17-2.84,2.72-2.89,1.51-.1,2.84,1.17,2.89,2.72.05,1.66,1.21,40.81-.82,51.89-.25,1.35-1.43,2.3-2.76,2.3Z"/>
  <path class="cls-1" d="M904.43,1031.17c-.2,0-.4-.02-.6-.06-1.51-.33-2.47-1.82-2.14-3.34,1.59-7.3,1.22-35.43.8-49.27-.05-1.55,1.17-2.84,2.72-2.89,1.55-.1,2.84,1.17,2.89,2.72.05,1.66,1.22,40.84-.92,50.64-.29,1.31-1.45,2.21-2.74,2.21Z"/>
  <path class="cls-3" d="M717.06,990.53c-.96,0-1.91-.5-2.43-1.39-6.23-10.7-10.34-110.66-10.78-122.02-.06-1.55,1.15-2.85,2.69-2.91,1.53,0,2.85,1.15,2.91,2.69,1.67,42.38,5.87,112.28,10.02,119.42.78,1.34.33,3.06-1.01,3.84-.44.26-.93.38-1.41.38Z"/>
  <path class="cls-3" d="M636.47,995.68c-.1,0-.19,0-.29-.01-3.36-.34-7.54-.77-9.35-62.12-.86-29.16-.72-58.59-.72-58.89,0-1.54,1.27-2.79,2.81-2.79h0c1.55,0,2.81,1.27,2.8,2.82-.27,52.3,1.86,109.31,5.88,115.63,1.08.48,1.78,1.61,1.65,2.85-.15,1.45-1.37,2.52-2.79,2.52ZM637.77,990.53h0Z"/>
  <path class="cls-3" d="M560.99,996.45c-.66,0-1.32-.23-1.85-.7-8.97-7.9-15.91-91.97-17.21-108.75-.12-1.54,1.04-2.89,2.58-3.01,1.56-.1,2.9,1.04,3.01,2.58,3.74,48.26,10.49,100.72,15.32,104.97,1.16,1.02,1.28,2.8.25,3.96-.55.63-1.33.95-2.11.95Z"/>
  <path class="cls-3" d="M485.76,1064.64c-1.47,0-2.7-1.14-2.8-2.63-.67-10.51-5.36-42.26-5.41-42.58-.01-.08-.02-.16-.03-.23l-8.49-132.98c-.1-1.55,1.08-2.88,2.62-2.98,1.59-.09,2.88,1.08,2.98,2.62l8.48,132.87c.36,2.44,4.77,32.41,5.44,42.93.1,1.55-1.07,2.88-2.62,2.98-.06,0-.12,0-.18,0Z"/>
  <path class="cls-3" d="M421.37,1070.1c-1.33,0-2.51-.95-2.76-2.31-3.12-17.26-5.78-48.13-5.81-48.44-2.96-25.35-14.68-124.4-14.68-124.4l5.57-.66s11.72,99.06,14.69,124.5c.03.39,2.68,31.01,5.75,48.01.27,1.53-.74,2.98-2.26,3.26-.17.03-.34.04-.5.04Z"/>
  <path class="cls-3" d="M784.13,984.9c-1.47,0-2.7-1.14-2.8-2.63-.06-.88-.23-2.91-.47-5.63-.87-9.97-2.5-28.52-2.1-35.02.64-10.51-4.91-76.83-4.97-77.5-.13-1.54,1.02-2.9,2.56-3.03,1.56-.14,2.9,1.02,3.03,2.56.23,2.75,5.64,67.4,4.98,78.31-.37,6.08,1.29,25.07,2.09,34.19.24,2.78.43,4.86.48,5.76.1,1.55-1.07,2.88-2.62,2.98-.06,0-.12,0-.18,0Z"/>
  <path class="cls-3" d="M843.16,979.79c-1.11,0-2.16-.66-2.6-1.75-3.32-8.18-3-40.43-2.95-44.08.39-14.58-5-78.34-5.05-78.98-.13-1.54,1.02-2.9,2.56-3.03,1.52-.12,2.9,1.01,3.03,2.56.22,2.64,5.47,64.72,5.07,79.56-.12,9.57.09,35.81,2.54,41.85.58,1.44-.11,3.07-1.54,3.66-.35.14-.7.21-1.05.21Z"/>
  <path class="cls-3" d="M909.92,926.97s-.09,0-.13,0c-1.55-.07-2.74-1.39-2.67-2.93.56-11.88-3.5-75.7-3.54-76.34-.1-1.55,1.08-2.88,2.62-2.98,1.58-.1,2.88,1.08,2.98,2.62.17,2.64,4.12,64.77,3.55,76.96-.07,1.5-1.31,2.67-2.8,2.67Z"/>
  <path class="cls-2" d="M595.05,1104.76c37.14-6.54,198.95-26.19,201.07-14.18,2.12,12,24.87,120.13,8.92,123.85-15.95,3.72-197.21,27.09-200.58,16.51-3.37-10.57-21.41-124.06-9.4-126.18Z"/>
  <path class="cls-3" d="M622.5,1236.47c-19.22,0-20.09-2.72-20.71-4.68-2.34-7.34-20.21-111.67-10.93-127.03,1.18-1.95,2.67-2.58,3.71-2.77,17.49-3.08,66.79-9.69,113.89-14.08,88.58-8.26,89.73-1.73,90.42,2.17.21,1.19.62,3.33,1.18,6.22,19.91,103,14.01,118.89,5.61,120.85-8.17,1.9-57.09,8.63-105.35,13.67-40.24,4.2-63.87,5.64-77.83,5.64ZM606.98,1229.58c12.47,6.67,175.84-12.86,197.42-17.89,1.96-.46,10.69-8.11-9.84-114.32-.5-2.59-.89-4.59-1.12-5.85-1.85-1.17-13.71-4.8-88.49,2.36-41.73,3.99-90.01,10.24-109.18,13.6-.81.94-4.74,8.32,1.33,59.69,3.27,27.7,8.11,56.12,9.88,62.4Z"/>
  <path class="cls-2" d="M174.57,497.03s895.76-92.12,927.44-81.46c45.48,15.3-84.11,298.72-107.39,314.36-23.28,15.65-680.21,87.93-696.97,78.88-16.76-9.05-159.6-218.42-172.12-256.06-12.52-37.64,3.09-46.73,49.04-55.73Z"/>
  <path class="cls-3" d="M307.59,812.29c-6.09,0-10.01-.31-11.27-.99-18.99-10.25-161.65-222.14-173.45-257.64-5.5-16.55-5.73-27.74-.75-36.29,7.11-12.19,24.42-17.7,51.91-23.08.08-.02.17-.03.25-.04,36.6-3.76,896.73-92.05,928.62-81.33,6.06,2.04,9.77,7.8,11.02,17.11,8.28,61.55-95.15,287.06-117.74,302.24-12.96,8.71-197.82,31.93-352.18,49.16-12.37,1.38-277.1,30.86-336.41,30.86ZM174.99,499.81c-25.19,4.94-42.01,10.08-48.02,20.38-4.05,6.94-3.66,17.01,1.23,31.69,12.84,38.61,156.2,246.6,170.79,254.47,9.3,3.5,158.32-9.7,346.55-30.74,195.01-21.8,337.92-41.54,347.53-48,19.44-13.07,123.36-236.91,115.31-296.84-.94-7.02-3.38-11.24-7.25-12.54-24.6-8.28-616.48,49.73-926.13,81.58Z"/>
  <path class="cls-2" d="M181.05,535.06c117.49-7.5,877.79-98.52,883.1-78.63,5.32,19.89-60.02,232.44-90.97,254.65-30.95,22.21-644.2,81.58-654.79,74.17-10.59-7.42-130.62-208.13-137.44-219.83-6.82-11.7-16.03-29.32.09-30.35Z"/>
  <path class="cls-3" d="M326.73,788.66c-8.35,0-9.29-.66-9.94-1.11-11.83-8.28-137.04-218.63-138.26-220.72-6.38-10.95-11.77-22.05-8.03-29.06,1.77-3.33,5.26-5.18,10.36-5.5,38.81-2.48,149.17-14.22,276.96-27.82,131.75-14.02,281.07-29.91,399.54-40.8,206.53-18.99,208.25-12.6,209.49-7.93,5.68,21.26-60.35,234.91-92.04,257.65-19.58,14.05-241.76,38.74-336.37,48.7-77.03,8.11-156.27,15.64-217.4,20.64-57.54,4.71-82.88,5.95-94.32,5.95ZM319.81,782.79c10.05,2.4,148.83-8.43,321.89-26.71,190.94-20.18,317.33-38.29,329.85-47.28,30.44-21.84,93.18-229.48,90.02-251-6.27-2.88-48.69-2.95-210.88,12.09-117.3,10.87-263.38,26.42-392.27,40.13-127.85,13.6-238.27,25.35-277.2,27.84-3.03.19-4.97,1.05-5.77,2.54-2.78,5.21,5,18.57,7.93,23.59,10.53,18.07,125.45,209.5,136.42,218.79ZM181.05,535.06h0Z"/>
  <path class="cls-2" d="M868.35,1197.54c3.46-17.66,24-41,34.84-58.22,10.83-17.21,13.77-43.1,19.94-47.17,6.17-4.07,22.84-16.14,31.67-35.99,8.83-19.84,4.34-47.09-4.86-47.42-9.2-.33-7.24,16.07-14.88,25.73-7.64,9.67-19.63,23.28-27.06,21.92-7.43-1.36-.99-15.54,2.47-33.2,3.46-17.66,6.92-78.47,4.28-91.15-2.65-12.68-14.53-11.92-17.55-1.63-3.01,10.29-3.71,42.46-9.69,63.96-5.97,21.49-10.17,41.96-18.58,39.74-8.4-2.22-3.52-26.4-4.14-64.91-.62-38.51-9.92-69.13-21.01-70.26-11.09-1.13-15.37,3.73-13.99,10.99,1.38,7.26,1.95,44.86,3.37,81.48,1.42,36.63-11.38,37.44-15.04,37.68-3.66.23-6.32-27.13-12.49-66.21-6.17-39.08-18.11-39.23-23.71-40.71s-9.47,9.78-7.8,21.61c1.67,11.83,8.07,54.56,6.56,73.94-1.52,19.37-9.51,66.7-19.18,59.06-9.67-7.64-11.05-58.04-17.47-72.32-6.42-14.28-24.24-5.8-23.71,2.43.53,8.23-3.25,49.78-4.59,71.89s27.56,57.91,38.05,78.35c10.48,20.44,25.68,100.25,30.7,135.73l121.63-21.53s-31.98-69.56-28.13-95.51l-9.63,21.73Z"/>
  <path class="cls-2" d="M582.6,1311.56s-31.03-69.86-20.94-81.33c10.09-11.47,23.13-23.13,30.92-55.11,7.8-31.99,1.98-76.88,4.52-98.7,2.54-21.81-8.86-30.92-19.14-22.4-10.28,8.53-16.72,46.34-15.85,60.06.88,13.72-2.23,26.71-11.36,22.38-9.13-4.34-27.28-57.3-28.59-77.88s-8.88-46.67-17.16-53.03c-8.28-6.36-13.03,11.66-10.78,46.94,2.25,35.28,4.23,50.9-5.69,49.57-9.93-1.33-18.73-77.53-23.59-91.98s-9.47-24.98-19.08-21.42c-9.61,3.57-9.2,40.93-5.36,70.21,3.84,29.28,16.37,56.03,5.78,59.66-10.59,3.63-26-68.21-27.13-85.85-1.13-17.64-7.03-33.01-15.22-22.65-8.2,10.36-5.53,36.76.9,75.72,6.42,38.95,18.64,60.81,10.8,61.31-7.84.5-19.77-32.2-21.94-50.76-2.17-18.56-5-32.15-13.58-27.67-8.57,4.48,1.21,34.37,1.67,56.97.46,22.6,25.42,89.9,34.26,105.08,8.84,15.18,37.66,34.99,44.31,62.12,6.65,27.13,12.82,62.16,12.82,62.16l109.41-43.4Z"/>
  <path class="cls-3" d="M784.47,1295.66c-1.38,0-2.58-1.01-2.77-2.41-5.01-35.4-20.28-115.09-30.41-134.85-2.95-5.75-7.49-12.91-12.3-20.48-12.68-19.99-27.06-42.64-26.05-59.32.47-7.78,1.26-18.16,2.02-28.2,1.42-18.78,2.9-38.19,2.57-43.34-.34-5.38,4.74-10.91,11.57-12.61,5.88-1.46,13.56.1,17.5,8.85,2.83,6.29,4.64,18.57,6.56,31.57,2.36,16,5.31,35.92,10.09,39.7.25.2.38.22.38.22,0,0,3.89-1.11,8.66-21.61,2.92-12.56,4.92-26.97,5.6-35.69,1.4-17.86-4.1-56.3-6.17-70.77l-.37-2.56c-1.38-9.76.66-19.25,4.97-23.08,1.85-1.64,4.1-2.23,6.32-1.64.34.09.7.17,1.08.26,6.51,1.51,18.62,4.31,24.68,42.73,1.63,10.32,3.01,19.82,4.23,28.2,2.37,16.28,4.62,31.71,6.38,35.52,10.37-1.8,11.91-19.68,11.33-34.64-.48-12.33-.86-24.97-1.21-36.11-.66-21.65-1.24-40.35-2.11-44.95-.81-4.25.02-7.88,2.4-10.48,2.96-3.23,7.87-4.52,14.62-3.83,14.7,1.5,22.96,37.86,23.53,73.01.2,12.53-.18,23.75-.49,32.77-.5,14.68-.98,28.54,2.54,29.47,4.62,1.23,9.25-15.91,12.96-29.68.71-2.65,1.44-5.36,2.2-8.09,3.41-12.26,5.11-28.43,6.47-41.43,1.02-9.66,1.89-18.01,3.23-22.57,1.78-6.08,6.54-10.03,11.79-9.81,4.27.17,9.46,3.32,11.2,11.66,2.83,13.57-.97,75.41-4.27,92.26-.94,4.79-2.1,9.35-3.12,13.37-1.69,6.64-3.6,14.17-2.33,16.15.07.11.18.29.73.39,2.06.39,8.54-.91,24.35-20.9,2.86-3.62,4.31-8.61,5.58-13.02,2-6.91,4.06-14.08,11.6-13.78,2.06.07,5.05,1.04,7.66,5.21,5.7,9.13,6.93,29.86-.33,46.16-8.57,19.25-24.15,31.56-32.68,37.19-2.17,1.43-4.55,9.05-6.86,16.42-2.89,9.25-6.49,20.76-12.25,29.9-3.19,5.06-7.13,10.55-11.31,16.36-9.75,13.57-20.81,28.96-23.15,40.9-.3,1.52-1.78,2.52-3.29,2.21-1.52-.3-2.51-1.77-2.21-3.29,2.58-13.15,14.01-29.06,24.1-43.1,4.12-5.74,8.02-11.16,11.11-16.07,5.37-8.53,8.85-19.65,11.64-28.59,3.07-9.81,5.29-16.9,9.12-19.43,8.02-5.29,22.66-16.84,30.65-34.78,6.25-14.04,5.52-33.18.7-40.91-.59-.94-1.77-2.52-3.1-2.57-2.91-.07-4.02,2.89-6.01,9.73-1.42,4.9-3.03,10.46-6.57,14.94-13.38,16.92-22.84,24.21-29.76,22.94-1.93-.35-3.47-1.35-4.45-2.88-2.59-4.04-.82-10.97,1.62-20.56,1-3.95,2.14-8.43,3.05-13.07,3.46-17.66,6.78-78.08,4.28-90.04-.9-4.33-3.17-7.09-5.93-7.2-2.58-.12-5.13,2.22-6.18,5.78-1.19,4.07-2.04,12.18-3.03,21.58-1.39,13.2-3.11,29.63-6.65,42.34-.75,2.71-1.48,5.41-2.19,8.05-5.45,20.28-9.74,36.3-19.81,33.65-7.85-2.07-7.45-13.8-6.72-35.09.31-8.95.69-20.09.49-32.48-.63-38.74-10.24-66.67-18.49-67.51-4.74-.48-8.27.24-9.92,2.04-1.15,1.26-1.5,3.16-1.03,5.63.96,5.03,1.51,23.04,2.21,45.83.34,11.14.73,23.76,1.21,36.07,1.01,26.12-4.93,39.77-17.66,40.59-5.08.35-6.31-6.79-11.21-40.44-1.22-8.37-2.6-17.85-4.22-28.14-5.47-34.67-15.19-36.92-20.41-38.13-.44-.1-.86-.2-1.25-.3-.2-.05-.54-.15-1.16.41-2.44,2.17-4.33,9.7-3.14,18.1l.36,2.55c2.09,14.64,7.66,53.52,6.21,72-.04.56-5.18,56.57-17.55,61.98-2.06.9-4.25.57-6.16-.94-6.07-4.8-8.75-20.25-12.16-43.28-1.78-12.05-3.62-24.52-6.13-30.09-2.97-6.61-8.18-6.41-11.03-5.7-4.07,1.01-7.49,4.19-7.32,6.8.35,5.54-1.07,24.28-2.57,44.12-.76,10.02-1.55,20.38-2.02,28.12-.9,14.86,13.57,37.66,25.19,55.97,4.88,7.69,9.49,14.95,12.56,20.93,10.56,20.6,25.78,99.89,30.98,136.62.22,1.53-.85,2.95-2.39,3.17-.13.02-.26.03-.4.03Z"/>
  <path class="cls-3" d="M906.11,1274.13c-1.06,0-2.08-.6-2.55-1.63-1.32-2.87-32.28-70.62-28.35-97.09.23-1.53,1.67-2.6,3.19-2.36,1.53.23,2.59,1.65,2.36,3.19-3.68,24.83,27.59,93.24,27.9,93.92.65,1.41.03,3.07-1.38,3.72-.38.17-.78.26-1.17.26Z"/>
  <path class="cls-3" d="M473.18,1357.76c-1.34,0-2.52-.96-2.76-2.32-.06-.35-6.23-35.25-12.79-61.98-4.15-16.93-17.27-30.85-28.84-43.13-6.4-6.79-11.92-12.66-15.17-18.24-9.17-15.75-30.17-83.36-34.59-105.95-6.25-31.92-9.93-54.92-.22-60,3.48-1.82,6.14-1.19,7.75-.34,5.69,3.01,7.95,13.34,9.91,30.17,2.48,21.22,14.45,47.89,18.84,48.28.54-2.11-1.63-9.8-3.73-17.24-2.84-10.07-6.74-23.86-9.53-40.8-6.93-42.03-9.04-66.9-.33-77.91,3.68-4.65,7.08-4.81,9.27-4.12,8.66,2.7,10.57,22.37,10.95,28.33.51,7.95,4.2,28.52,9.27,47.88,8.88,33.89,14.27,35.46,14.32,35.48,4.33-1.53,1.27-14.22-1.97-27.66-2.11-8.75-4.5-18.67-5.85-28.96-.9-6.89-8.37-67.44,7.16-73.21,3.28-1.22,6.36-1.16,9.13.16,6.44,3.08,10.1,12.63,13.59,22.99,1.66,4.93,3.69,16.39,6.04,29.66,3.59,20.25,10.28,57.95,15.4,60.47,1.41.16,1.88-.28,2.08-.47,3.15-2.94,2.19-17.37.86-37.34-.19-2.79-.38-5.74-.58-8.83-1.07-16.77-1.51-45.62,7.55-50.45,1.39-.74,4.24-1.59,7.74,1.1,9.27,7.12,16.92,34.23,18.25,55.08,1.35,21.15,19.51,71.98,26.99,75.53,2.19,1.04,3.14.4,3.49.16,2.9-1.96,4.49-10.12,3.87-19.83-.88-13.71,5.43-52.91,16.86-62.39,4.88-4.05,10.36-4.93,15.02-2.4,7,3.8,10.26,14,8.71,27.28-.93,7.93-.72,18.96-.48,31.72.41,21.98.88,46.88-4.11,67.32-7.15,29.32-18.88,42.28-28.31,52.69-1.11,1.22-2.19,2.42-3.24,3.61-6.14,6.98,8.81,50.01,21.4,78.33.63,1.42,0,3.07-1.42,3.7-1.42.63-3.07-.01-3.7-1.42-5.3-11.94-31.22-72.12-20.48-84.32,1.07-1.21,2.17-2.43,3.29-3.67,9.47-10.46,20.2-22.32,27.01-50.26,4.81-19.73,4.35-44.25,3.95-65.88-.24-12.97-.45-24.17.52-32.48,1.5-12.88-2.19-19.74-5.81-21.7-2.57-1.39-5.68-.76-8.76,1.79-9.09,7.54-15.7,44.25-14.84,57.72.38,5.92.52,20.19-6.32,24.83-1.8,1.22-4.84,2.26-9.05.26-10.83-5.14-28.86-59.46-30.19-80.24-1.36-21.26-9.02-45.56-16.07-50.98-.76-.58-1.32-.79-1.68-.6-2.9,1.55-6.53,14.85-4.59,45.14.2,3.09.39,6.03.58,8.82,1.64,24.67,2.46,37.06-2.63,41.81-1.74,1.63-4.05,2.27-6.81,1.9-7.5-1.01-12.05-19.99-20.03-65.01-2.31-13.05-4.31-24.32-5.84-28.85-2.83-8.42-6.23-17.59-10.68-19.72-1.39-.66-2.9-.65-4.76.03-5.69,2.11-8.48,29.63-3.55,67.22,1.31,10,3.66,19.76,5.74,28.38,4.35,18.06,7.5,31.1-1.84,34.3-1.16.4-2.98.58-5.06-.81-11.87-7.92-24.83-72.65-25.78-87.51-.94-14.71-4.75-22.62-7.02-23.33-.7-.22-1.91.62-3.2,2.25-7.34,9.29-4.88,35.01,1.47,73.52,2.74,16.63,6.59,30.25,9.4,40.19,3.53,12.49,5.3,18.76,2.84,22.23-.64.9-1.85,2-4.02,2.14-.11,0-.22.01-.32.01-11.25,0-22.71-37.24-24.58-53.24-.75-6.47-2.76-23.64-6.96-25.86-.25-.14-.93-.49-2.53.35-6.75,3.53-.57,35.09,3.12,53.94,4.25,21.72,25.18,89.18,33.93,104.2,2.93,5.03,8.25,10.68,14.41,17.22,11.45,12.15,25.7,27.28,30.2,45.64,6.6,26.91,12.8,61.99,12.86,62.34.27,1.53-.75,2.98-2.28,3.25-.17.03-.33.04-.49.04Z"/>
  <path class="cls-3" d="M646.76,524.87c-1.41,0-2.62-1.06-2.78-2.49-.18-1.54.93-2.93,2.47-3.11,11.89-1.36,290.63-33.19,318.54-33.19.08,0,.16,0,.24,0,1.55.01,2.8,1.28,2.79,2.83-.01,1.54-1.27,2.79-2.81,2.79-.08,0-.16,0-.25,0-27.53,0-314.97,32.82-317.88,33.15-.11.01-.22.02-.32.02Z"/>
  <path class="cls-3" d="M646.02,552.28c-1.39,0-2.6-1.03-2.78-2.45-.2-1.54.89-2.94,2.42-3.14,11.94-1.54,291.89-37.58,308.91-37.58.04,0,.08,0,.12,0,1.55.02,2.79,1.29,2.77,2.84-.02,1.55-1.3,2.73-2.84,2.77,0,0-.07,0-.11,0-16.58,0-305.22,37.16-308.14,37.54-.12.02-.24.02-.36.02Z"/>
  <path class="cls-3" d="M647.78,572.03c-1.39,0-2.6-1.03-2.78-2.45-.2-1.54.89-2.94,2.42-3.14,11.03-1.42,270.39-34.73,289.6-32.09,1.54.21,2.61,1.62,2.4,3.16-.21,1.53-1.6,2.6-3.16,2.4-14.79-2.04-194.92,20.11-288.12,32.1-.12.02-.24.02-.36.02Z"/>
  <path class="cls-3" d="M653.6,590.75c-1.4,0-2.61-1.04-2.78-2.47-.19-1.54.91-2.94,2.45-3.12,10.33-1.25,253.21-30.52,272.34-29.02,1.55.12,2.7,1.48,2.57,3.02-.12,1.55-1.49,2.7-3.02,2.57-18.7-1.54-268.69,28.69-271.22,28.99-.11.01-.23.02-.34.02Z"/>
  <path class="cls-3" d="M336.28,698.55c-1.41,0-2.62-1.06-2.78-2.49-.18-1.54.93-2.93,2.47-3.11,22.02-2.51,539.8-61.56,572.13-60.27,1.55.06,2.75,1.37,2.69,2.91-.06,1.55-1.39,2.73-2.91,2.69-31.99-1.28-565.89,59.63-571.28,60.24-.11.01-.22.02-.32.02Z"/>
  <path class="cls-3" d="M375.46,718.75c-1.4,0-2.62-1.05-2.78-2.48-.18-1.54.93-2.93,2.46-3.11,7.13-.83,174.92-20.23,197.12-21.56,1.58-.08,2.88,1.09,2.97,2.63.09,1.55-1.09,2.88-2.63,2.97-22.04,1.31-195.06,21.33-196.8,21.53-.11.01-.22.02-.33.02Z"/>
  <path class="cls-3" d="M384.95,737.18c-.08,0-.15,0-.21,0-1.55-.05-2.76-1.35-2.71-2.9.05-1.54,1.38-2.8,2.89-2.71h.07c8.87,0,165.39-15.85,184.15-23.08,1.44-.56,3.07.16,3.63,1.61.56,1.45-.16,3.07-1.61,3.63-19.88,7.66-176.53,23.45-186.22,23.45Z"/>
  <path class="cls-3" d="M397.16,754.68c-1.42,0-2.63-1.07-2.79-2.51-.16-1.54.95-2.92,2.49-3.09,6.09-.65,149.4-15.9,175.37-16.76,1.55-.05,2.85,1.16,2.9,2.71.05,1.55-1.16,2.85-2.71,2.9-25.77.85-173.47,16.57-174.96,16.73-.1.01-.2.02-.3.02Z"/>
  <path class="cls-3" d="M344.57,676.78c-17.88,0-30.1-21.46-44.22-46.26-6.78-11.92-13.8-24.24-22.1-35.53-16.45-22.28-22.85-32.01-19.9-38.55,2.22-4.92,8.59-6.34,20.34-7.37,3.1-.29,263.52-24.46,284.1-26.65,2.54-.27,4.95.59,7.15,2.55,18.8,16.75,21.26,122.65,21.27,123.71.06,4.01.15,9.52-115.01,19.25-59.85,5.06-119.73,8.53-131.01,8.84-.21,0-.41,0-.62,0ZM563.68,527.98c-.11,0-.21,0-.31.02-20.63,2.19-281.55,26.41-284.18,26.65h0c-7.14.63-14.6,1.6-15.73,4.09-1.89,4.2,9.37,19.46,19.31,32.92,8.49,11.56,15.59,24.03,22.46,36.08,13.39,23.52,25.01,43.86,39.81,43.42,31.05-.84,226.52-14.13,240.55-23.28-.33-23.96-5.52-106.37-19.39-118.72-1.1-.98-1.93-1.18-2.52-1.18ZM585.59,648.72v.03-.03ZM278.94,551.86h0Z"/>
  <path class="cls-3" d="M476.57,651.23c-9.2,0-18.11-.7-24.42-2.59-14.24-4.28-31.7-14.61-32.44-15.04l-36.68-24.01c-.63-.41-1.07-1.06-1.21-1.79-.15-.74,0-1.5.42-2.12l17.34-25.76c.29-.43.69-.77,1.15-.98l44.85-20.64c.36-.16.75-.25,1.14-.26l40.13-.45c.37,0,.7.06,1.03.18,2.38.9,23.4,9.04,27.91,15.89h0c.86,1.32,21.16,32.56,21.46,48.42.26,13.93-10.54,23.96-28.89,26.81-7.91,1.23-20.08,2.36-31.79,2.36ZM388.48,606.44l34.2,22.39c.07.04,17.51,10.35,31.08,14.43,13.95,4.19,42.23,1.85,53.74.06,7.36-1.14,24.44-5.49,24.14-21.16-.27-14.22-20.24-44.98-20.54-45.45-2.61-3.96-16.32-10.31-24.71-13.54l-38.99.44-43.59,20.06-15.32,22.75Z"/>
  <path class="cls-2" d="M429.13,609.47c-4.55-4.93-12.55-11.93-21.57-10.8-9.02,1.13-6.58,11.77.79,15.66,7.37,3.89,14.14,5.57,14.7,7.11s.45,8.95-8.93,12.56c-9.38,3.61-26.53-4.72-44.74-15.24-18.21-10.52-25.05-22.96-22.46-28.47,2.59-5.51,27.95-33.47,53.64-35.88,25.69-2.41,33.93-.14,40.05-2.01,6.12-1.88,15.82-8.64,42.22-6.38,26.4,2.26,46.79,8.41,50.51,15.85,3.72,7.44-1.02,17.77-3.79,19.7-2.77,1.93-14.15-5.79-25.82-9.69-11.67-3.9-34.55-2.75-44.12-2.94-9.57-.19-32.76,4.34-35.63,4.26-2.87-.08,3.78,8.56,5.76,19.44,1.98,10.89,18.78,21.7,17.89,23.09s-7.23,8.21-9.28,5.62c-2.04-2.59-9.2-11.87-9.2-11.87Z"/>
  <path class="cls-3" d="M409.04,637.64c-10.87,0-26.02-7.76-41.07-16.46-19.76-11.41-26.91-25.05-23.6-32.09,3.03-6.44,29.2-34.97,55.92-37.48,13.94-1.31,22.98-1.26,28.94-1.21,5.06.03,8.12.05,10.55-.69.97-.3,2.12-.77,3.45-1.31,6.53-2.66,17.47-7.1,39.83-5.19,22.26,1.91,47.82,7.47,52.78,17.39,4.28,8.56-.55,20.36-4.69,23.26-2.95,2.06-7.42-.06-14.82-3.58-4.13-1.96-8.8-4.19-13.49-5.75-8.87-2.97-25.21-2.86-36-2.79-2.84.02-5.34.03-7.29,0-5.85-.1-17.85,1.74-25.78,2.96-3.13.48-5.39.83-7.01,1.05.26.62.57,1.31.84,1.93,1.62,3.67,3.84,8.69,4.89,14.46,1.16,6.36,8.76,13.28,13.29,17.41,3.84,3.49,5.77,5.25,4.2,7.7-.55.85-5.77,7.27-10.15,7.49-1.51.07-2.8-.51-3.7-1.64-1.92-2.44-8.36-10.79-9.14-11.8-4.65-5.02-11.72-10.75-19.08-9.83-2.92.37-3.2,1.88-3.29,2.38-.43,2.36,1.49,6.14,5.04,8.01,3.2,1.69,6.33,2.96,8.84,3.99,4.3,1.75,6.45,2.63,7.18,4.65,1.02,2.83.41,11.9-10.56,16.13-1.82.7-3.87,1.02-6.08,1.03ZM425.53,555.99c-5.84,0-13.57.16-24.72,1.2-24.5,2.3-48.92,29.08-51.36,34.28-1.66,3.54,4.04,14.86,21.33,24.85,15.16,8.76,33.68,18.39,42.33,15.05,6.69-2.58,7.29-7.12,7.3-8.59-.84-.46-2.58-1.17-4.02-1.75-2.63-1.07-5.9-2.4-9.35-4.22-5.46-2.88-8.87-8.89-7.94-13.98.71-3.85,3.66-6.38,8.12-6.94,7.75-.97,16.04,3.07,23.98,11.68.05.06.11.12.16.19,0,0,6.15,7.97,8.66,11.19,1.07-.52,2.84-2.08,4.06-3.35-.61-.59-1.39-1.29-2.08-1.92-5.07-4.61-13.54-12.32-15.04-20.55-.93-5.11-3-9.78-4.5-13.2-1.75-3.96-2.71-6.15-1.42-8.08.66-.97,1.75-1.51,3-1.48h.02c.89,0,5.11-.65,8.84-1.23,8.6-1.33,20.37-3.16,26.75-3.03,1.91.04,4.35.02,7.14,0,11.17-.07,28.06-.18,37.82,3.08,5.01,1.68,9.85,3.98,14.12,6.01,3.35,1.59,7.88,3.74,9.44,3.84,1.73-1.7,5.65-9.94,2.65-15.94-2.56-5.12-18.75-11.78-48.24-14.31-21.03-1.8-30.78,2.17-37.23,4.8-1.46.59-2.71,1.1-3.92,1.48-3.25,1-6.83.97-12.23.94-1.14,0-2.35-.02-3.66-.02ZM440.54,619.61h0Z"/>
  <path class="cls-3" d="M506.82,586.08c4.37.87,5.55,5.9.76,5.58-4.8-.32-4.14-6.26-.76-5.58Z"/>
  <path class="cls-3" d="M510.86,583.73c-.18,0-.36-.02-.55-.05-.06-.01-5.91-1.14-11.95-.23-1.52.24-2.96-.82-3.19-2.35-.23-1.53.82-2.96,2.35-3.19,7.05-1.07,13.61.21,13.89.27,1.52.3,2.5,1.78,2.2,3.3-.26,1.34-1.44,2.26-2.75,2.26Z"/>
  <path class="cls-3" d="M453.59,594.91c-.43,0-.86-.1-1.26-.3-1.38-.7-1.94-2.38-1.24-3.77,2.13-4.22,11.12-7.09,13.83-7.87,1.48-.43,3.04.43,3.47,1.92.43,1.49-.43,3.04-1.92,3.47-4.81,1.39-9.76,3.78-10.38,5.01-.49.98-1.48,1.54-2.51,1.54Z"/>
  <path class="cls-3" d="M466.44,591c5.98.26,9.82,5.11,4.58,5.6-5.23.49-9.37-5.81-4.58-5.6Z"/>
  <path class="cls-3" d="M500.66,622.85c-2.14,0-3.96-.22-5.17-.71-1.43-.59-2.12-2.23-1.53-3.66.59-1.43,2.22-2.12,3.66-1.53,2.75,1.12,15.46-.65,19.82-3.19.43-.25.71-.45.88-.6-.78-1.06-3.49-3.04-4.44-3.74-2.97-2.17-7.52-4.94-11.54-7.38-3.27-1.99-6.1-3.71-7.71-4.87-1.25-.91-1.54-2.66-.63-3.92.91-1.26,2.67-1.53,3.92-.63,1.43,1.04,4.3,2.78,7.33,4.63,4.11,2.5,8.77,5.33,11.93,7.64,4.14,3.03,7.07,5.42,6.9,8.64-.15,2.95-2.91,4.55-3.82,5.08-3.93,2.29-13.18,4.25-19.6,4.25ZM518.5,613.47h.02-.02Z"/>
  <path class="cls-3" d="M496.56,632.61c-5.08,0-9.05-.89-9.24-.93-1.51-.34-2.45-1.85-2.11-3.35.34-1.51,1.85-2.46,3.35-2.12.05,0,4.56,1.01,9.8.75,5.49-.28,18.23-3.57,21.48-5.3,1.36-.73,3.07-.21,3.8,1.16.73,1.37.21,3.07-1.16,3.8-4.24,2.26-17.83,5.65-23.84,5.95-.71.04-1.41.05-2.08.05Z"/>
  <path class="cls-3" d="M497.65,663.1c-.95,0-1.87-.48-2.4-1.35-.8-1.33-.38-3.05.95-3.85,6.84-4.15,4.92-9.41,4.68-10-.58-1.42.07-3.06,1.49-3.67,1.42-.6,3.04.03,3.66,1.44,1.54,3.5,2.08,11.57-6.93,17.03-.45.28-.96.41-1.45.41Z"/>
  <path class="cls-3" d="M392.74,673.18c-1.06,0-2.07-.6-2.54-1.62-.66-1.4-.05-3.07,1.35-3.73,4.31-2.01,9.47-3.63,14.46-5.2,7.61-2.38,15.47-4.85,19.83-8.58,6.08-5.2.68-17.28.62-17.4-.64-1.41-.02-3.07,1.39-3.72,1.41-.64,3.07-.03,3.72,1.38.3.65,7.22,16.04-2.07,24-5.23,4.48-13.65,7.12-21.8,9.67-4.82,1.51-9.79,3.07-13.76,4.93-.39.18-.79.26-1.19.26Z"/>
</svg>